<svg xmlns="http://www.w3.org/2000/svg" xmlns:xlink="http://www.w3.org/1999/xlink" width="82" height="82" viewBox="0 0 82 82">
  <defs>
    <clipPath id="clip-path">
      <rect id="Rectángulo_291634" data-name="Rectángulo 291634" width="67.237" height="66.508" fill="none"/>
    </clipPath>
  </defs>
  <g id="Grupo_877614" data-name="Grupo 877614" transform="translate(-346.667 -7084)">
    <circle id="Elipse_4711" data-name="Elipse 4711" cx="41" cy="41" r="41" transform="translate(346.667 7084)" fill="#fff"/>
    <g id="Grupo_872672" data-name="Grupo 872672" transform="translate(353.766 7099.492)">
      <g id="Grupo_872672-2" data-name="Grupo 872672" clip-path="url(#clip-path)">
        <path id="Trazado_255761" data-name="Trazado 255761" d="M.434,53.467a3.651,3.651,0,0,0,2.2,2.117c.475.175.662.44.456.949a4.847,4.847,0,0,0-.286,1.933c.016.94.012,1.881,0,2.821a3.67,3.67,0,0,0,.315,1.66A.712.712,0,0,1,2.826,64a3.971,3.971,0,0,0-1.993,3.86c.048,1-.011,2.012.014,3.017a3.591,3.591,0,0,0,3.739,3.641q15.481,0,30.963.01a3.685,3.685,0,0,0,2.937-1.33c.552-.633.6-.673,1.389-.318a18.213,18.213,0,0,0,5.542,1.528,18.5,18.5,0,0,0,9.7-1.311c6.6-2.932,10.591-7.966,11.667-15.124a18.63,18.63,0,0,0-4.44-15.193,1.619,1.619,0,0,0-1.74-.76c-.041-.014-.078-.031-.118-.046-.414.7-.381.981.179,1.606a17.352,17.352,0,0,1-1,24.478c-4.7,4.353-10.267,5.622-16.479,4.123-.187-.045-.368-.116-.551-.175h0C35.993,69.735,31.836,65.19,30.6,58.28A17.3,17.3,0,0,1,42.466,38.7a4.242,4.242,0,0,1,.443-.093,15.158,15.158,0,0,1,5.665-.711,17.066,17.066,0,0,1,8.936,2.957A1.079,1.079,0,0,0,59,40.75c-.017-.026-.036-.05-.052-.076a1.347,1.347,0,0,0-.755-1.509,19.287,19.287,0,0,0-8.98-3.014,19.639,19.639,0,0,0-5.273.337,1.64,1.64,0,0,1-1.471-.32,3.212,3.212,0,0,0-1.888-.661c-.662-.05-.768-.2-.552-.842a6.087,6.087,0,0,0,.214-2.01c0-.918,0-1.837,0-2.755A3.7,3.7,0,0,0,36.5,26.074c-1.136-.033-2.274-.022-3.41,0a1.215,1.215,0,0,1-1.216-.681C29.466,21.182,27,17,24.617,12.775a4.958,4.958,0,0,0-5.875-2.53,4.427,4.427,0,0,0-2.656,2.014c-1.347,2.175-2.574,4.42-3.86,6.631-1.22,2.1-2.46,4.184-3.627,6.311a1.47,1.47,0,0,1-1.581.875,12.6,12.6,0,0,0-1.442-.006A3.758,3.758,0,0,0,1.755,29.9q-.023,1.705,0,3.411a3.655,3.655,0,0,0,3.1,3.678c.172.032.344.063.514.1a.472.472,0,0,1,.407.665c-.452,1.878-.149,3.785-.194,5.678a2.2,2.2,0,0,0,.211.755c.137.39-.015.588-.409.62-.436.036-.874.014-1.311.017a3.727,3.727,0,0,0-3.654,2.39c-.1.216-.07.544-.423.582v5.249c.292-.018.356.224.434.414m30.1,11.907a.957.957,0,0,1,.94.5,20.264,20.264,0,0,0,5.006,5.3c.3.167.785.3.757.615-.039.437-.494.681-.908.859a2.382,2.382,0,0,1-.968.127q-15.286,0-30.572,0a1.925,1.925,0,0,1-2.167-2.185c0-1.072-.011-2.143,0-3.215A1.877,1.877,0,0,1,4.594,65.39c1.224-.011,2.448.01,3.672.017,1.157-.008,2.314-.022,3.47-.022q9.4,0,18.8-.012m-1.018-3.268.575,1.31H6.887c-1.577,0-2.291-.705-2.294-2.263,0-1.005,0-2.01,0-3.015A1.922,1.922,0,0,1,6.688,56c1.245-.025,2.491-.009,3.736-.009q8.653,0,17.306,0c.188,0,.393-.073.566.071A25.2,25.2,0,0,0,29.519,62.106ZM40.264,37.264c.06.2-.1.184-.174.216a19.677,19.677,0,0,0-7.511,5.747,1.1,1.1,0,0,1-.144.127.385.385,0,0,1-.02.062,2.025,2.025,0,0,1-2.321,1.267,12.081,12.081,0,0,0-2.546-.011c-.555.034-.749-.139-.662-.679a5.321,5.321,0,0,0,.029-.651c-.008-1.9-.013-3.8-.029-5.694,0-.268.058-.39.359-.389q6.512.012,13.017.005m-6.685-8.009a1.47,1.47,0,0,0,0-.2c-.041-.384-.085-.767-.128-1.151.435-.013.87-.033,1.305-.038.59-.006,1.181-.015,1.771,0a1.883,1.883,0,0,1,1.932,1.958c.009,1.18-.013,2.36-.021,3.54a1.869,1.869,0,0,1-2.082,1.92c-2.531.014-5.062,0-7.593.005-.436,0-.873-.008-1.309,0-.326.008-.57.022-.577-.454-.007-.493.259-.455.572-.442a7.241,7.241,0,0,0,3.265-.482,5.193,5.193,0,0,0,2.869-4.665m-28,6.032a1.912,1.912,0,0,1-2.033-2.07q-.016-1.638,0-3.276A1.923,1.923,0,0,1,5.64,27.869c.43-.005.861,0,1.328,0a6.238,6.238,0,0,0-.154,2.016c.088,1.008.414,1.3,1.411,1.265A1.173,1.173,0,0,0,8.8,29.809a3.164,3.164,0,0,1,.421-2.14q4.016-6.943,8.026-13.89a2.473,2.473,0,0,1,.195-.256,2.845,2.845,0,0,1,2.594-1.693,2.974,2.974,0,0,1,2.873,1.6c1.408,2.413,2.8,4.838,4.194,7.258,1.3,2.25,2.528,4.544,3.915,6.737a3.189,3.189,0,0,1-2.905,5.018c-.653-.046-1.312-.011-1.967-.005-.9.009-1.217.327-1.217,1.231q0,7.216,0,14.433a4.492,4.492,0,0,1-.026.72,1.545,1.545,0,0,1-1.539,1.345c-1.792.014-3.585-.007-5.377-.014-.349.006-.7.035-1.046.014a1.536,1.536,0,0,1-1.468-1.408,1.253,1.253,0,0,1-.01-.13q.01-7.628.021-15.256a1.153,1.153,0,0,0-.918-.947,14.585,14.585,0,0,1-3.893-.209,1,1,0,0,0-1.113.5,1.141,1.141,0,0,0,.324,1.294,7.389,7.389,0,0,0,3.091.39c.314-.009.538,0,.527.434-.01.391-.16.469-.51.468-2.468-.012-4.936.008-7.4-.015m7.909,8.825c0,.415-.091.569-.539.557-1.223-.032-2.447,0-3.671-.015a1.856,1.856,0,0,1-1.959-1.919c-.025-1.223-.027-2.448.008-3.671a1.759,1.759,0,0,1,1.737-1.78c1.265-.035,2.532.006,3.8.014a.663.663,0,0,1,.529.031c.153.115.088.281.089.424,0,2.12-.009,4.239.009,6.359m-11.518,4.5a1.886,1.886,0,0,1,1.972-1.983c1.222-.012,2.444.011,3.666.019,1.812-.008,3.625-.008,5.437-.03.349,0,.454.11.441.449-.022.545-.016,1.092,0,1.638a3.493,3.493,0,0,0,3.5,3.43q3.178.033,6.356,0a3.541,3.541,0,0,0,3.539-3.478c.018-.545.012-1.092,0-1.638,0-.249.023-.407.343-.4,1.018.017,2.037.006,3.171.006a21.426,21.426,0,0,0-1.935,6.16h0c-.012,1.239-.012,1.239-1.227,1.239H4.379c-1.76,0-2.41-.649-2.41-2.4,0-1-.011-2.009,0-3.013" transform="translate(0 -8.28)"/>
        <path id="Trazado_255762" data-name="Trazado 255762" d="M.261,202.449a3.484,3.484,0,0,0,1.982,2.074c.7.255.984.456.558,1.194a2.431,2.431,0,0,0-.18,1.22c.011,1.093.014,2.187,0,3.28a3.759,3.759,0,0,0,.441,1.956c.161.283.109.393-.177.522a3.692,3.692,0,0,0-1.861,1.855c-.537,1.141-.544,5.775.017,6.9a3.86,3.86,0,0,0,3.776,2.212q15.254-.017,30.509-.006c.175,0,.35-.007.524-.015a3.582,3.582,0,0,0,2.886-1.567c.276-.394.449-.418.869-.224A18.517,18.517,0,0,0,51.875,223.2c7.175-1.688,12.1-6.067,14.347-13.075,2.238-6.991.728-13.362-4.079-18.927-.592-.686-.87-.724-1.647-.337l-.012.02c.039.015.077.032.118.046a1.619,1.619,0,0,1,1.74.76,18.63,18.63,0,0,1,4.44,15.193C65.708,214.036,61.719,219.07,55.117,222a18.505,18.505,0,0,1-9.7,1.311,18.217,18.217,0,0,1-5.542-1.528c-.785-.354-.837-.315-1.389.318a3.685,3.685,0,0,1-2.937,1.33q-15.481-.023-30.963-.01a3.591,3.591,0,0,1-3.739-3.641c-.026-1.005.034-2.013-.014-3.017a3.971,3.971,0,0,1,1.993-3.861.712.712,0,0,0,.3-1.053,3.67,3.67,0,0,1-.315-1.66c.01-.94.015-1.881,0-2.821a4.848,4.848,0,0,1,.286-1.933c.206-.508.018-.773-.456-.949a3.652,3.652,0,0,1-2.2-2.117c-.078-.19-.143-.431-.434-.414.216.094.191.321.261.491" transform="translate(0 -157.185)"/>
        <path id="Trazado_255763" data-name="Trazado 255763" d="M.423,46.126a3.726,3.726,0,0,1,3.654-2.39c.437,0,.875.019,1.311-.017.395-.032.546-.231.409-.62a2.2,2.2,0,0,1-.211-.755c.045-1.894-.258-3.8.194-5.678A.472.472,0,0,0,5.373,36c-.17-.04-.342-.071-.514-.1a3.655,3.655,0,0,1-3.1-3.678q-.024-1.705,0-3.411a3.758,3.758,0,0,1,3.821-3.834,12.556,12.556,0,0,1,1.442.006A1.47,1.47,0,0,0,8.6,24.1c1.167-2.127,2.407-4.213,3.627-6.311,1.285-2.211,2.513-4.456,3.86-6.631a4.428,4.428,0,0,1,2.656-2.014,4.958,4.958,0,0,1,5.875,2.53C27,15.9,29.466,20.086,31.878,24.3a1.215,1.215,0,0,0,1.216.681c1.136-.022,2.274-.032,3.41,0A3.7,3.7,0,0,1,40.238,28.8c.006.918,0,1.836,0,2.755a6.084,6.084,0,0,1-.214,2.01c-.216.64-.11.792.552.842a3.213,3.213,0,0,1,1.888.661,1.64,1.64,0,0,0,1.471.32,19.631,19.631,0,0,1,5.273-.337,19.283,19.283,0,0,1,8.979,3.014,1.347,1.347,0,0,1,.755,1.509c.017.026.035.051.052.076l.036-.032c.281-.817.2-1.092-.556-1.579A19.169,19.169,0,0,0,43.7,35.251c-.259.053-.527.19-.8-.062A3.592,3.592,0,0,0,40.34,34.2c-.328,0-.365-.1-.233-.385a3.832,3.832,0,0,0,.322-1.657c-.011-1.137.005-2.274,0-3.41a3.853,3.853,0,0,0-3.994-3.947c-1.159-.006-2.318-.022-3.476.009a.833.833,0,0,1-.864-.5q-3.655-6.387-7.353-12.749c-2.209-3.817-6.925-3.8-9.134.026q-3.678,6.374-7.35,12.75a.777.777,0,0,1-.812.474c-.7-.041-1.4-.027-2.1-.006a3.855,3.855,0,0,0-3.753,3.727c-.035,1.311-.037,2.624,0,3.934a3.838,3.838,0,0,0,2.952,3.576,11.28,11.28,0,0,0,1.123.153,18.236,18.236,0,0,0,.014,7.365c-.595,0-1.248-.021-1.9,0A3.75,3.75,0,0,0,.545,45.474,10.213,10.213,0,0,0,0,46.708c.353-.038.327-.366.423-.582" transform="translate(0 -7.184)"/>
        <path id="Trazado_255764" data-name="Trazado 255764" d="M210.284,172.968a2.851,2.851,0,0,1-.806-.426,17.188,17.188,0,0,0-8.043-2.653,18.392,18.392,0,0,0-6.006.616q-.291.091-.576.189a27.017,27.017,0,0,0-2.789,1.8,18.5,18.5,0,0,0-5.993,8.09,17.618,17.618,0,0,0-1.2,6.832,18.368,18.368,0,0,0,3.907,11,18.7,18.7,0,0,0,5.9,4.965,1.381,1.381,0,0,1,.287.172c.054.017.107.036.162.053a16.955,16.955,0,0,0,16.031-3.181,16.462,16.462,0,0,0,6.087-10.606A16.966,16.966,0,0,0,213.1,175.6a2.638,2.638,0,0,1-.467-.628.925.925,0,0,1,.291-1.222,3.138,3.138,0,0,1-1.468-1.2c-.244.512-.682.552-1.172.426m3.345,14.148A13.422,13.422,0,1,1,200.1,173.674a13.444,13.444,0,0,1,13.526,13.442" transform="translate(-152.448 -140.055)" fill="#f0e54c"/>
        <path id="Trazado_255765" data-name="Trazado 255765" d="M336.48,185.018a3.138,3.138,0,0,0,1.468,1.2l.019-.017h0l-1.464-1.236c-.008.018-.016.033-.024.05" transform="translate(-277.471 -152.53)" fill="#f0e54c"/>
        <path id="Trazado_255766" data-name="Trazado 255766" d="M242.383,169.638a18.387,18.387,0,0,1,6.006-.616,17.187,17.187,0,0,1,8.043,2.653,2.847,2.847,0,0,0,.806.426c.491.127.929.086,1.172-.426l-.012-.018a1.08,1.08,0,0,1-1.487.108,17.066,17.066,0,0,0-8.936-2.957,15.157,15.157,0,0,0-5.665.711q-.25.156-.5.307.285-.1.576-.189" transform="translate(-199.401 -139.188)" fill="#f0e54c"/>
        <path id="Trazado_255767" data-name="Trazado 255767" d="M260.145,193.336a2.635,2.635,0,0,0,.467.628,16.966,16.966,0,0,1,4.151,14.23,16.462,16.462,0,0,1-6.087,10.606,16.956,16.956,0,0,1-16.031,3.181c-.055-.017-.108-.036-.162-.053a.332.332,0,0,1,.108.222h0c.184.059.365.129.552.175,6.212,1.5,11.78.23,16.479-4.123a17.351,17.351,0,0,0,1-24.478c-.559-.625-.593-.907-.179-1.606l-.008,0a.925.925,0,0,0-.291,1.222" transform="translate(-199.958 -158.423)" fill="#f0e54c"/>
        <path id="Trazado_255768" data-name="Trazado 255768" d="M344.853,192.034l.008,0,.012-.02-.019.017" transform="translate(-284.376 -158.343)" fill="#f0e54c"/>
        <path id="Trazado_255769" data-name="Trazado 255769" d="M336.423,185.018c.008-.017.016-.032.024-.05l-.036.032.012.018" transform="translate(-277.414 -152.53)" fill="#f0e54c"/>
        <path id="Trazado_255770" data-name="Trazado 255770" d="M279.875,94.4a2.731,2.731,0,0,0-1.8-.033c-1.073.355-2.151.7-3.209,1.093a2.856,2.856,0,0,0-1.863,2.737,3.034,3.034,0,0,0,3.6,3.141c1.01-.161,2.013-.37,3.011-.6a2.813,2.813,0,0,0,2.4-2.782c-.038-1.7-.665-3.044-2.141-3.561m-.48,4.364a6.118,6.118,0,0,1-.89.207c-.813.159-1.628.31-2.321.441a1.017,1.017,0,0,1-1.168-.879.944.944,0,0,1,.571-1.236c1-.372,2.008-.729,3.028-1.04.642-.2,1.058.123,1.28.864.28.935.144,1.413-.5,1.643" transform="translate(-225.129 -77.702)"/>
        <path id="Trazado_255771" data-name="Trazado 255771" d="M250.513,38.2a3.207,3.207,0,0,0-1.281-3.4,2.913,2.913,0,0,0-4.22.138c-.741.8-1.441,1.643-2.152,2.473a2.753,2.753,0,0,0-.671,1.871,3.092,3.092,0,0,0,1.881,2.843,2.779,2.779,0,0,0,3.178-.435c.806-.671,1.588-1.372,2.373-2.067a2.882,2.882,0,0,0,.891-1.421m-2.207-.052c-.751.7-1.542,1.355-2.314,2.032a1.061,1.061,0,0,1-1.732-.474.929.929,0,0,1,.156-1.094c.676-.772,1.332-1.563,2.029-2.317.518-.56,1.008-.489,1.675.178s.736,1.163.185,1.675" transform="translate(-199.716 -28.006)"/>
        <path id="Trazado_255772" data-name="Trazado 255772" d="M192.7,0a2.6,2.6,0,0,0-2.612,1.834,25.775,25.775,0,0,0-.82,3.888,3.032,3.032,0,0,0,2.432,3.2,2.91,2.91,0,0,0,3.425-1.639c.466-1.126.829-2.295,1.2-3.456a2.556,2.556,0,0,0,.07-.974C196.235.991,194.723.024,192.7,0m1.553,3.889c-.318.81-.566,1.647-.865,2.465a.968.968,0,0,1-1.262.631,1.047,1.047,0,0,1-.88-1.249c.194-.945.4-2.037.647-3.12a.791.791,0,0,1,.874-.645c1.2.094,2.059.459,1.486,1.919" transform="translate(-156.074 0)"/>
        <path id="Trazado_255773" data-name="Trazado 255773" d="M67.883,35.88a5.431,5.431,0,0,0,.153,4.115.961.961,0,0,0,1.076.727,1.8,1.8,0,0,1,1.149.09,1.153,1.153,0,0,1,.918.947,2.168,2.168,0,0,1,2.236,2.356q0,6.284-.005,12.568a4.962,4.962,0,0,0,.271,1.856c1.792.007,3.585.028,5.377.014A1.545,1.545,0,0,0,80.6,57.207a4.492,4.492,0,0,0,.026-.72q0-7.216,0-14.433c0-.9.321-1.222,1.217-1.231.656-.006,1.315-.041,1.967.005a3.189,3.189,0,0,0,2.905-5.018c-1.387-2.194-2.616-4.488-3.915-6.737-1.4-2.42-2.786-4.844-4.194-7.258a2.974,2.974,0,0,0-2.873-1.6A2.846,2.846,0,0,0,73.14,21.91a4.247,4.247,0,0,1-.513,1.6c-1.575,4.125-3.167,8.244-4.743,12.369" transform="translate(-55.702 -16.668)" fill="#94d5a3"/>
        <path id="Trazado_255774" data-name="Trazado 255774" d="M43.98,325.6a3.974,3.974,0,0,0-.664,2.536c.044.937.033,1.878,0,2.816-.018.5.112.679.651.678q13.822-.025,27.644-.017c.216,0,.507.114.586-.244a20.265,20.265,0,0,1-5.006-5.3.957.957,0,0,0-.94-.5q-9.4.023-18.8.012c-1.157,0-2.313.014-3.47.022" transform="translate(-35.714 -268.468)" fill="#f0e54c"/>
        <path id="Trazado_255775" data-name="Trazado 255775" d="M73.272,272.489,56.3,272.5c-1.249,0-1.672.347-1.73,1.623-.059,1.308-.012,2.62-.015,3.931,0,.325.151.486.478.479.131,0,.262,0,.393,0H74.5a25.2,25.2,0,0,1-1.223-6.04" transform="translate(-44.976 -224.702)" fill="#f0e54c"/>
        <path id="Trazado_255776" data-name="Trazado 255776" d="M48.458,331.841a3.966,3.966,0,0,1-.914.045H21.194c-1.427,0-1.476-.049-1.475-1.467,0-.961-.039-1.924.016-2.883a2.046,2.046,0,0,1,.851-1.879c-1.224-.007-2.448-.028-3.672-.017a1.877,1.877,0,0,0-1.966,1.988c-.014,1.072-.005,2.143,0,3.215a1.925,1.925,0,0,0,2.167,2.185q15.286,0,30.572,0a2.382,2.382,0,0,0,.968-.127c.414-.178.869-.423.908-.859.028-.312-.461-.448-.757-.615.113.326-.14.367-.344.415" transform="translate(-12.32 -268.529)" fill="#fec150"/>
        <path id="Trazado_255777" data-name="Trazado 255777" d="M70.625,331.767q-13.822.008-27.644.017c-.54,0-.669-.179-.651-.678.033-.938.044-1.879,0-2.816a3.974,3.974,0,0,1,.665-2.536,2.045,2.045,0,0,0-.851,1.879c-.055.959-.016,1.922-.016,2.883,0,1.418.049,1.467,1.476,1.467H69.953a3.954,3.954,0,0,0,.914-.045c.2-.048.457-.089.344-.415h0c-.078.358-.37.244-.586.244" transform="translate(-34.729 -268.626)" fill="#fec150"/>
        <path id="Trazado_255778" data-name="Trazado 255778" d="M39.554,221.267a26.135,26.135,0,0,1,0,2.754c-.03.615.195.784.793.782q10.365-.027,20.73-.013a21.435,21.435,0,0,1,1.935-6.16c-1.134,0-2.153.011-3.171-.006-.32-.005-.347.153-.343.4.009.546.016,1.092,0,1.638a3.542,3.542,0,0,1-3.539,3.478q-3.178.028-6.356,0a3.493,3.493,0,0,1-3.5-3.43c-.019-.545-.025-1.093,0-1.638.014-.339-.091-.454-.441-.449-1.812.023-3.625.022-5.437.03a4.22,4.22,0,0,0-.666,2.614" transform="translate(-32.61 -180.283)" fill="#f0e54c"/>
        <path id="Trazado_255779" data-name="Trazado 255779" d="M50.242,278.318q-9.054.008-18.107,0c-.968,0-1.163-.2-1.176-1.149-.014-1.028-.007-2.056,0-3.083a3.714,3.714,0,0,1,.113-.909c.25-.968.5-1.167,1.5-1.167q8.3,0,16.6,0a1.536,1.536,0,0,1,.71.056c-.173-.144-.378-.071-.566-.071q-8.653-.007-17.306,0c-1.245,0-2.491-.016-3.736.009a1.922,1.922,0,0,0-2.094,2.136c0,1.005,0,2.01,0,3.015,0,1.557.717,2.262,2.294,2.263H51.682l-.575-1.31a1.089,1.089,0,0,1-.865.21" transform="translate(-21.588 -224.281)" fill="#fec150"/>
        <path id="Trazado_255780" data-name="Trazado 255780" d="M54.082,278.2c-.327.006-.478-.154-.478-.479,0-1.311-.045-2.623.015-3.931.058-1.275.481-1.622,1.73-1.623l16.971-.007a1.534,1.534,0,0,0-.71-.056q-8.3-.005-16.6,0c-1,0-1.254.2-1.5,1.167a3.716,3.716,0,0,0-.113.909c-.006,1.028-.012,2.056,0,3.083.012.948.208,1.147,1.176,1.149q9.053.014,18.107,0a1.089,1.089,0,0,0,.865-.21H54.476c-.131,0-.262,0-.393,0" transform="translate(-44.025 -224.373)" fill="#fec150"/>
        <path id="Trazado_255781" data-name="Trazado 255781" d="M176.445,198.753a17.061,17.061,0,0,1-1.1-6.553,18.4,18.4,0,0,1,6.619-13.947,15.535,15.535,0,0,1,2.754-1.924,17.263,17.263,0,0,0,.012,32.278l-.032-.016a18.5,18.5,0,0,1-8.248-9.838" transform="translate(-143.08 -145.406)" fill="#fec150"/>
        <path id="Trazado_255782" data-name="Trazado 255782" d="M176.627,200.19a17.261,17.261,0,0,1,7.57-26.638,11.3,11.3,0,0,1,1.277-.591,4.2,4.2,0,0,0-.443.092,17.3,17.3,0,0,0-11.87,19.575c1.24,6.91,5.4,11.455,12.036,13.727-.262-.3-.66-.347-.989-.526a16.524,16.524,0,0,1-7.581-5.64" transform="translate(-142.564 -142.629)" fill="#fec150"/>
        <path id="Trazado_255783" data-name="Trazado 255783" d="M187.985,202.443a18.368,18.368,0,0,1-3.907-11,17.619,17.619,0,0,1,1.2-6.832,18.5,18.5,0,0,1,5.993-8.09,26.994,26.994,0,0,1,2.789-1.8c-.262.09-.519.185-.774.283a15.536,15.536,0,0,0-2.754,1.924,18.4,18.4,0,0,0-6.619,13.947,17.065,17.065,0,0,0,1.1,6.553,18.5,18.5,0,0,0,8.248,9.838l.031.016q.434.162.881.3a1.375,1.375,0,0,0-.287-.172,18.7,18.7,0,0,1-5.9-4.965" transform="translate(-151.65 -144.074)" fill="#fec150"/>
        <path id="Trazado_255784" data-name="Trazado 255784" d="M238.169,173.268q.253-.152.5-.307a11.306,11.306,0,0,0-1.277.591c.254-.1.512-.193.774-.283" transform="translate(-195.763 -142.629)" fill="#fec150"/>
        <path id="Trazado_255785" data-name="Trazado 255785" d="M238.343,360.689q-.447-.142-.881-.3c.328.179.727.224.989.526a.332.332,0,0,0-.108-.222" transform="translate(-195.818 -297.184)" fill="#fec150"/>
        <path id="Trazado_255786" data-name="Trazado 255786" d="M13.615,226.069H36.477c1.215,0,1.215,0,1.227-1.24a1.158,1.158,0,0,1-.867.212q-9.825.006-19.649,0c-1,0-1.194-.2-1.2-1.189-.01-1.091-.035-2.184.011-3.275a2.145,2.145,0,0,1,.851-1.884c-1.222-.008-2.445-.031-3.666-.019a1.886,1.886,0,0,0-1.972,1.983c-.014,1,0,2.009,0,3.013,0,1.75.651,2.4,2.41,2.4" transform="translate(-9.237 -180.322)" fill="#fec150"/>
        <path id="Trazado_255787" data-name="Trazado 255787" d="M38.412,220.681c-.046,1.09-.021,2.183-.011,3.275.009.989.2,1.187,1.2,1.189q9.825.013,19.65,0a1.158,1.158,0,0,0,.867-.212q-10.365,0-20.73.013c-.6,0-.822-.167-.793-.782a26.138,26.138,0,0,0,0-2.754,4.22,4.22,0,0,1,.666-2.614,2.146,2.146,0,0,0-.851,1.884" transform="translate(-31.654 -180.426)" fill="#fec150"/>
        <path id="Trazado_255788" data-name="Trazado 255788" d="M153.674,165.245c-.3,0-.362.121-.359.389.016,1.9.021,3.8.029,5.695l5.519.012a1.083,1.083,0,0,0,.144-.127,19.677,19.677,0,0,1,7.511-5.747c.075-.033.234-.012.174-.216q-6.5,0-13.017-.005" transform="translate(-126.428 -136.266)" fill="#f0e54c"/>
        <path id="Trazado_255789" data-name="Trazado 255789" d="M47.729,165.374c0,1.814-.013,3.627,0,5.44,0,.407-.093.584-.543.587-.477,0-.525-.226-.521-.607.014-1.289.024-2.578,0-3.867a4.411,4.411,0,0,1,.536-1.584c-1.266-.008-2.533-.048-3.8-.014a1.759,1.759,0,0,0-1.737,1.78c-.035,1.223-.033,2.447-.007,3.671a1.855,1.855,0,0,0,1.959,1.919c1.224.013,2.448-.017,3.671.015.447.012.542-.142.538-.557-.018-2.119-.005-4.239-.009-6.359,0-.143.065-.309-.089-.424" transform="translate(-34.337 -136.324)" fill="#fec150"/>
        <path id="Trazado_255790" data-name="Trazado 255790" d="M47.213,48.161l1.02.924a1,1,0,0,1,1.113-.5,14.593,14.593,0,0,0,3.893.209,5.366,5.366,0,0,0-1.37-.03.909.909,0,0,1-.961-.625,5.557,5.557,0,0,1-.26-4.209c.715-2.112,1.571-4.171,2.38-6.248,1.015-2.6,1.951-5.237,3.09-7.791a2.473,2.473,0,0,0-.195.256q-4.014,6.945-8.026,13.89a3.164,3.164,0,0,0-.421,2.14,1.173,1.173,0,0,1-.571,1.341Z" transform="translate(-38.679 -24.648)" fill="#78c1a3"/>
        <path id="Trazado_255791" data-name="Trazado 255791" d="M66.846,43.929a5.558,5.558,0,0,0,.26,4.209.909.909,0,0,0,.961.625,5.367,5.367,0,0,1,1.37.03,1.8,1.8,0,0,0-1.149-.09.961.961,0,0,1-1.076-.727,5.431,5.431,0,0,1-.153-4.115c1.577-4.125,3.168-8.243,4.743-12.369a4.246,4.246,0,0,0,.513-1.6c-1.139,2.554-2.075,5.188-3.09,7.791-.81,2.076-1.665,4.136-2.38,6.248" transform="translate(-54.878 -24.649)" fill="#78c1a3"/>
        <path id="Trazado_255792" data-name="Trazado 255792" d="M90.195,158.285q-.01-5.823,0-11.646c0-.371,0-.741,0-1.112a2.039,2.039,0,0,0-1.519-2.174,1.282,1.282,0,0,1-.514-.277q-.011,7.628-.021,15.256a1.261,1.261,0,0,0,.01.131,1.536,1.536,0,0,0,1.468,1.408c.347.021.7-.008,1.045-.014a1.808,1.808,0,0,1-.462-1.57" transform="translate(-72.678 -117.984)" fill="#78c1a3"/>
        <path id="Trazado_255793" data-name="Trazado 255793" d="M90.49,145.432a2.168,2.168,0,0,0-2.237-2.356,1.28,1.28,0,0,0,.514.277,2.039,2.039,0,0,1,1.519,2.174c.007.371,0,.742,0,1.112q0,5.823,0,11.646a1.808,1.808,0,0,0,.462,1.57A4.962,4.962,0,0,1,90.484,158q.019-6.284.005-12.568" transform="translate(-72.776 -117.985)" fill="#78c1a3"/>
        <path id="Trazado_255794" data-name="Trazado 255794" d="M29.631,119.123c.351,0,.5-.077.511-.468.011-.434-.212-.443-.527-.434a7.389,7.389,0,0,1-3.091-.39c-1.617.059-1.323.031-1.347-1.3,0-.247,0-.494,0-.741-.034-.043-.068-.085-.1-.127-.13-.212-.324-.407-.2-.692-1,.037-1.323-.257-1.411-1.265a6.237,6.237,0,0,1,.153-2.016c-.468,0-.9,0-1.328,0a1.923,1.923,0,0,0-2.092,2.072q-.017,1.638,0,3.276a1.912,1.912,0,0,0,2.033,2.07c2.468.023,4.936,0,7.4.015" transform="translate(-16.646 -92.101)" fill="#fec150"/>
        <path id="Trazado_255795" data-name="Trazado 255795" d="M46.932,131.1c.035.042.068.084.1.127,0-.059,0-.117,0-.176l-.308-.643c-.12.286.074.48.2.692" transform="translate(-38.502 -107.538)" fill="#fec150"/>
        <path id="Trazado_255796" data-name="Trazado 255796" d="M175.8,117.821c1.456.007,2.912-.018,4.367.011a4.7,4.7,0,0,0,2.667-.662c.008-1.18.029-2.36.021-3.54a1.883,1.883,0,0,0-1.932-1.958c-.59-.018-1.181-.009-1.771,0-.435,0-.87.025-1.305.038.043.383.087.767.128,1.15a1.5,1.5,0,0,1,0,.2,5.193,5.193,0,0,1-2.869,4.665c.209.176.458.1.69.1" transform="translate(-144.402 -92.079)" fill="#f0e54c"/>
        <path id="Trazado_255797" data-name="Trazado 255797" d="M163.785,143.741a4.987,4.987,0,0,1-1.488.19c-1.462,0-2.924.008-4.387-.009-.3,0-.671.1-.844-.3a7.241,7.241,0,0,1-3.265.482c-.313-.013-.579-.05-.572.442.007.476.251.462.577.454.436-.011.873,0,1.309,0,2.531,0,5.062.009,7.593,0a1.87,1.87,0,0,0,2.082-1.921,1.458,1.458,0,0,1-1,.667" transform="translate(-126.357 -117.983)" fill="#fcc04f"/>
        <path id="Trazado_255798" data-name="Trazado 255798" d="M175.8,143.725c-.231,0-.481.074-.69-.1.173.4.543.3.844.3,1.462.017,2.924,0,4.387.009a4.987,4.987,0,0,0,1.488-.19,1.459,1.459,0,0,0,1-.667,4.7,4.7,0,0,1-2.667.662c-1.455-.029-2.911,0-4.367-.011" transform="translate(-144.402 -117.983)" fill="#fcc04f"/>
        <path id="Trazado_255799" data-name="Trazado 255799" d="M157.888,200.146c-1.281,0-2.563,0-3.844,0a1.051,1.051,0,0,1-.8-.209,5.324,5.324,0,0,1-.029.651c-.088.539.106.713.661.679a12.1,12.1,0,0,1,2.546.011,2.025,2.025,0,0,0,2.321-1.267.384.384,0,0,0,.02-.062,1.8,1.8,0,0,1-.878.2" transform="translate(-126.331 -164.87)" fill="#fec250"/>
        <path id="Trazado_255800" data-name="Trazado 255800" d="M154.277,200.142c1.281.008,2.563,0,3.844,0a1.8,1.8,0,0,0,.878-.2l-5.519-.012a1.052,1.052,0,0,0,.8.209" transform="translate(-126.564 -164.87)" fill="#fec250"/>
        <path id="Trazado_255801" data-name="Trazado 255801" d="M71.787,165.531c-.624,1.288-.319,2.664-.384,4a8.717,8.717,0,0,0,.01,1.114c.016.2.033.418.31.414s.292-.223.312-.42a8.214,8.214,0,0,0,.015-.852c0-1.2,0-2.4,0-3.607a1.127,1.127,0,0,1,.2-.868.663.663,0,0,0-.529-.031h0a.256.256,0,0,1,.058.245" transform="translate(-58.866 -136.267)" fill="#ede24b"/>
        <path id="Trazado_255802" data-name="Trazado 255802" d="M70.287,167.056c.027,1.289.017,2.578,0,3.867,0,.382.044.61.521.607.45,0,.546-.18.543-.587-.014-1.813,0-3.627,0-5.44a1.127,1.127,0,0,0-.2.868c-.007,1.2,0,2.4,0,3.607a8.215,8.215,0,0,1-.015.852c-.021.2-.043.415-.312.42s-.294-.218-.31-.414a8.783,8.783,0,0,1-.01-1.114c.065-1.34-.24-2.716.384-4a.256.256,0,0,0-.059-.245,4.409,4.409,0,0,0-.536,1.584" transform="translate(-57.961 -136.453)" fill="#ede24b"/>
        <path id="Trazado_255803" data-name="Trazado 255803" d="M49.4,136.015a3.255,3.255,0,0,1,.06.727c.008.821.01.82.79,1.018a2.973,2.973,0,0,1,.364.132,1.141,1.141,0,0,1-.324-1.293,1.336,1.336,0,0,1-.89-.584" transform="translate(-40.737 -112.162)" fill="#f0e34c"/>
        <path id="Trazado_255804" data-name="Trazado 255804" d="M48.661,134.076a1.308,1.308,0,0,1,.13.34,1.335,1.335,0,0,0,.89.584l-1.02-.924" transform="translate(-40.127 -110.563)" fill="#f0e34c"/>
        <path id="Trazado_255805" data-name="Trazado 255805" d="M48.8,135.97a3.255,3.255,0,0,0-.06-.727c-.044-.054-.088-.109-.131-.164,0,.247-.006.494,0,.741.024,1.331-.27,1.359,1.347,1.3a2.973,2.973,0,0,0-.364-.132c-.779-.2-.782-.2-.79-1.018" transform="translate(-40.079 -111.39)" fill="#f0e34c"/>
        <path id="Trazado_255806" data-name="Trazado 255806" d="M48.654,134.076h0c0,.059,0,.117,0,.176.043.055.087.11.131.164a1.308,1.308,0,0,0-.13-.34" transform="translate(-40.12 -110.563)" fill="#f0e34c"/>
        <path id="Trazado_255807" data-name="Trazado 255807" d="M209.117,191.7a13.439,13.439,0,1,0,13.526,13.442A13.426,13.426,0,0,0,209.117,191.7m.11,24.908a11.47,11.47,0,1,1,11.448-11.48,11.478,11.478,0,0,1-11.448,11.48" transform="translate(-161.461 -158.085)"/>
        <path id="Trazado_255808" data-name="Trazado 255808" d="M287.858,105.517c-1.021.311-2.028.669-3.028,1.04a.945.945,0,0,0-.571,1.236,1.018,1.018,0,0,0,1.169.879c.693-.131,1.507-.282,2.32-.441a6.119,6.119,0,0,0,.89-.207c.644-.23.78-.708.5-1.643-.222-.742-.639-1.06-1.28-.864" transform="translate(-234.371 -86.966)" fill="#f6f392"/>
        <path id="Trazado_255809" data-name="Trazado 255809" d="M255.66,45.5c-.7.754-1.352,1.544-2.029,2.317a.929.929,0,0,0-.156,1.094,1.061,1.061,0,0,0,1.732.474c.772-.676,1.562-1.333,2.314-2.032.551-.512.474-1.018-.185-1.675s-1.158-.738-1.675-.178" transform="translate(-208.93 -37.215)" fill="#f6f392"/>
        <path id="Trazado_255810" data-name="Trazado 255810" d="M202.056,11.22a.792.792,0,0,0-.874.645c-.246,1.083-.453,2.175-.647,3.12a1.047,1.047,0,0,0,.88,1.249.968.968,0,0,0,1.262-.631c.3-.818.546-1.655.864-2.465.573-1.459-.287-1.825-1.486-1.919" transform="translate(-165.365 -9.25)" fill="#f6f392"/>
        <path id="Trazado_255811" data-name="Trazado 255811" d="M218.474,202.928a11.47,11.47,0,1,0,11.458,11.46,11.453,11.453,0,0,0-11.458-11.46m4.155,17.3a5.206,5.206,0,0,1-2.81,1.574c-.365.076-.468.212-.452.555a2.924,2.924,0,0,1-.067.842.88.88,0,0,1-.973.7.93.93,0,0,1-.914-.865c-.056-.352.181-.814-.149-1.032a2.59,2.59,0,0,0-1.021-.159,7.127,7.127,0,0,1-2.51-.9.979.979,0,1,1,.889-1.739,7.357,7.357,0,0,0,2.218.754c.391.052.605.014.577-.478-.043-.762-.011-1.529-.011-2.294s-.012-1.53.006-2.295a.51.51,0,0,0-.391-.574,12.01,12.01,0,0,1-1.544-.706,3.366,3.366,0,0,1-.82-5.471,3.988,3.988,0,0,1,2.188-1.235c.491-.089.626-.3.564-.738a1.545,1.545,0,0,1,0-.327.917.917,0,0,1,.9-.943.868.868,0,0,1,1.018.867c-.094.914.408,1.039,1.1,1.164a4.5,4.5,0,0,1,1.676.714.986.986,0,0,1,.427,1.394,1,1,0,0,1-1.429.3c-1.725-.927-1.725-.927-1.725.946,0,.787.012,1.574-.006,2.36a.465.465,0,0,0,.413.544,8.117,8.117,0,0,1,1.778.647,3.927,3.927,0,0,1,1.069,6.395" transform="translate(-170.72 -167.34)" fill="#fec150"/>
        <path id="Trazado_255812" data-name="Trazado 255812" d="M250.268,223.055a8.121,8.121,0,0,0-1.778-.647.465.465,0,0,1-.413-.544c.017-.786.006-1.573.006-2.36,0-1.873,0-1.873,1.725-.946a1,1,0,0,0,1.429-.3.986.986,0,0,0-.427-1.394,4.5,4.5,0,0,0-1.676-.714c-.689-.125-1.192-.25-1.1-1.164a.868.868,0,0,0-1.018-.867.918.918,0,0,0-.9.943,1.561,1.561,0,0,0,0,.327c.062.442-.072.649-.564.738a3.988,3.988,0,0,0-2.188,1.235,3.366,3.366,0,0,0,.82,5.471,12.041,12.041,0,0,0,1.544.707.51.51,0,0,1,.391.574c-.018.765-.006,1.53-.006,2.295s-.032,1.532.011,2.294c.028.493-.186.531-.577.478a7.347,7.347,0,0,1-2.218-.754.979.979,0,1,0-.889,1.739,7.127,7.127,0,0,0,2.51.9,2.594,2.594,0,0,1,1.021.159c.329.218.092.68.149,1.032a.93.93,0,0,0,.914.865.88.88,0,0,0,.973-.7,2.924,2.924,0,0,0,.067-.842c-.016-.343.088-.48.452-.555a5.2,5.2,0,0,0,2.81-1.574,3.927,3.927,0,0,0-1.069-6.395m-5.1-1.926c-.766-.43-1-.874-.842-1.576a2.217,2.217,0,0,1,1.526-1.484c.288-.031.261.145.262.32q0,.72,0,1.44,0,.393,0,.786c0,1.044,0,1.044-.945.514M248.478,229c-.366.113-.405-.012-.4-.317.012-.677,0-1.355,0-2.032,0-.656,0-1.311,0-1.966,0-.26.069-.379.34-.248a.8.8,0,0,0,.124.041c1.306.383,2.053,1.153,2.027,2.092A2.908,2.908,0,0,1,248.478,229" transform="translate(-199.428 -176.566)"/>
        <path id="Trazado_255813" data-name="Trazado 255813" d="M277.879,272.775a.808.808,0,0,1-.124-.041c-.271-.131-.343-.011-.34.248.007.655,0,1.311,0,1.966,0,.677.008,1.355,0,2.032-.005.3.034.43.4.317a2.908,2.908,0,0,0,2.093-2.431c.026-.939-.721-1.709-2.027-2.092" transform="translate(-228.762 -224.86)" fill="#fdc150"/>
        <path id="Trazado_255814" data-name="Trazado 255814" d="M257.587,236.963c0-.175.026-.351-.262-.32a2.216,2.216,0,0,0-1.525,1.484c-.161.7.076,1.146.842,1.576.945.53.945.53.945-.514q0-.393,0-.786c0-.48,0-.96,0-1.441" transform="translate(-210.901 -195.14)" fill="#fbbf4f"/>
      </g>
    </g>
  </g>
</svg>
