<svg xmlns="http://www.w3.org/2000/svg" xmlns:xlink="http://www.w3.org/1999/xlink" width="63" height="63.196" viewBox="0 0 63 63.196"><defs><radialGradient id="a" cx="0.741" cy="0.152" r="0.5" gradientUnits="objectBoundingBox"><stop offset="0" stop-color="#fff"/><stop offset="1" stop-color="#e1efe3"/></radialGradient><clipPath id="b"><rect width="35.208" height="35.214" fill="#2b7e3b"/></clipPath></defs><g transform="translate(-301.667 -5845)"><g transform="translate(16.667 -1475)"><circle cx="31.5" cy="31.5" r="31.5" transform="translate(285 7320)" fill="url(#a)"/><path d="M8407.5,11782a31.476,31.476,0,0,1-31.5-31.5,31.842,31.842,0,0,1,.514-5.7,38.533,38.533,0,0,0,51.173,29.878A31.38,31.38,0,0,1,8407.5,11782Z" transform="translate(-8091 -4398.805)" fill="#bce2c1"/></g><g transform="translate(315.512 5858.948)"><g clip-path="url(#b)"><path d="M92.669,17.05c-.318.016-.379-.078-.379-.384q.016-7.951.007-15.9c0-.582-.181-.764-.76-.764H85.15c-.633,0-.8.167-.8.791q0,4.33,0,8.661c0,.774,0,.756-.789.782-.313.01-.355-.095-.353-.374.013-1.893.007-3.786.007-5.679,0-.6-.178-.772-.787-.772H73.765c-.6,0-.777.176-.777.782,0,4.141-.005,8.282.009,12.423,0,.352-.073.461-.434.437-.508-.033-.708.19-.71.7,0,.639,0,1.278,0,1.917,0,.608.175.786.774.786H92.677c.575,0,.756-.184.756-.768q0-.941,0-1.881c0-.578-.183-.779-.765-.75m-7.19-15.7c0-.169.044-.219.216-.218,1.751.006,3.5.01,5.253,0,.3,0,.212.182.212.325q0,3.816,0,7.632c0,2.544,0,5.088.007,7.632,0,.265-.06.333-.326.327-.934-.018-1.869-.015-2.8,0-.233,0-.291-.06-.289-.291.009-1.929.006-3.858.005-5.786,0-.556-.188-.743-.743-.745-.438,0-.876-.008-1.313,0-.169,0-.219-.043-.219-.216q.008-4.331,0-8.662m.819,10c.265,0,.333.06.328.327-.016.816,0,.816-.824.816H83.175c-1.029,0-2.058-.007-3.087.006-.231,0-.292-.058-.291-.29.005-.852,0-.852.859-.852,1.881,0,3.762.006,5.642-.007m-.514,3.415H83.194c-1.041,0-2.082-.007-3.123.006-.217,0-.3-.048-.272-.271.031-.279-.115-.647.055-.818s.537-.049.818-.05c1.881,0,3.762,0,5.642-.008.247,0,.314.056.31.307-.012.835,0,.835-.841.835m.84,1.42c-.005.852,0,.852-.859.852-1.881,0-3.762-.006-5.642.007-.265,0-.333-.061-.327-.327.016-.816,0-.816.825-.816h2.626c1.029,0,2.058.007,3.087-.006.232,0,.292.058.291.29M74.447,4.539q3.656.016,7.312,0c.273,0,.325.073.323.331q-.019,2.52,0,5.041c0,.274-.075.328-.332.322-.8-.018-1.609-.009-2.413-.005-.46,0-.668.211-.669.675,0,1.941-.007,3.881.006,5.822,0,.269-.068.328-.329.325q-1.97-.022-3.94,0c-.237,0-.288-.067-.287-.293.009-1.988.005-3.976.005-5.964s.006-3.952-.007-5.928c0-.272.071-.324.33-.323M92.306,18.533c-.023.78-.007.781-.79.781q-9.068,0-18.136.008c-.32,0-.411-.075-.4-.4.026-.745.008-.745.755-.745h8.944c3.088,0,6.176,0,9.263-.007.294,0,.372.066.364.363" transform="translate(-65.035 -0.001)" fill="#2b7e3b"/><path d="M22.489,227.854c-1.244,1-2.473,2.02-3.708,3.03-.2.162-.4.323-.633.512a2.039,2.039,0,0,0-1.646-1.558c-.99-.269-1.97-.573-2.948-.885a7.267,7.267,0,0,0-3.38-.392,9.413,9.413,0,0,0-2.191.777C5.5,230.391,3,231.421.509,232.451a.676.676,0,0,0-.509.675q.008,3.6,0,7.206a.6.6,0,0,0,.341.607.691.691,0,0,0,.639-.08q3.974-1.853,7.947-3.707a1.387,1.387,0,0,1,.61-.137q4.223.007,8.447.005a.9.9,0,0,0,.625-.189c2.263-1.92,4.533-3.832,6.79-5.76a2.084,2.084,0,0,0,.5-2.55,2.252,2.252,0,0,0-3.408-.667m2.12,2.405c-.8.686-1.605,1.361-2.408,2.041-1.309,1.107-2.621,2.211-3.922,3.327a.976.976,0,0,1-.693.261c-2.744-.011-5.488,0-8.232-.01a1.7,1.7,0,0,0-.749.168q-3.554,1.666-7.112,3.322c-.1.048-.209.094-.355.16,0-2,0-3.941-.005-5.881,0-.192.077-.259.235-.324q3.513-1.45,7.02-2.914a7.963,7.963,0,0,1,1.913-.714,5.14,5.14,0,0,1,2.244.15c1.287.386,2.577.765,3.863,1.155a.745.745,0,0,1,.556,1.057.766.766,0,0,1-.759.419c-1.135-.006-2.271.006-3.406-.009-.249,0-.313.059-.309.308.012.834,0,.834.842.834,1.171,0,2.342-.007,3.513,0a1.036,1.036,0,0,0,.71-.254q2.739-2.253,5.485-4.5a1.31,1.31,0,0,1,.892-.369,1,1,0,0,1,1,.652.954.954,0,0,1-.318,1.113" transform="translate(0 -205.776)" fill="#2b7e3b"/><path d="M.562,22.478a2.464,2.464,0,0,1,1.564,1.871c.073.346.136.695.212,1.041a.548.548,0,0,0,.566.486.551.551,0,0,0,.562-.491c.075-.346.139-.694.212-1.041A2.473,2.473,0,0,1,5.215,22.49c.283-.119.518-.253.52-.589s-.229-.476-.513-.594a2.472,2.472,0,0,1-1.544-1.849c-.075-.346-.137-.695-.213-1.04a.569.569,0,0,0-1.129.009c-.071.335-.136.671-.207,1.005A2.487,2.487,0,0,1,.568,21.308c-.287.12-.509.264-.5.6.006.319.224.459.5.57M1.957,21.8a3.8,3.8,0,0,0,.94-1.142,3.991,3.991,0,0,0,.946,1.14c.093.074.085.121,0,.189A3.927,3.927,0,0,0,2.9,23.134a3.946,3.946,0,0,0-.939-1.142c-.08-.065-.1-.113,0-.19" transform="translate(-0.059 -16.224)" fill="#2b7e3b"/><path d="M316.474,93.142a2.477,2.477,0,0,1-1.536-1.855c-.072-.334-.137-.67-.205-1.006a.588.588,0,0,0-.549-.511.576.576,0,0,0-.579.482c-.079.345-.139.694-.214,1.04a2.478,2.478,0,0,1-1.542,1.85c-.281.118-.518.252-.519.591s.232.476.514.593a2.472,2.472,0,0,1,1.544,1.848c.076.346.141.694.211,1.041a.571.571,0,0,0,1.134,0c.071-.347.136-.695.212-1.041a2.471,2.471,0,0,1,1.516-1.831c.292-.125.543-.256.539-.612,0-.338-.248-.471-.526-.588m-1.382.707a3.648,3.648,0,0,0-.916,1.119,4.358,4.358,0,0,0-.941-1.125c-.105-.084-.094-.135,0-.214a3.975,3.975,0,0,0,.927-1.123,3.928,3.928,0,0,0,.905,1.1c.095.077.152.13.02.237" transform="translate(-281.792 -81.253)" fill="#2b7e3b"/><path d="M228.08,25.085c.55,0,.55,0,.55-.551,0-.585,0-.585-.586-.585-.549,0-.549,0-.549.551,0,.585,0,.585.586.585" transform="translate(-205.91 -21.677)" fill="#2b7e3b"/><path d="M251.988,25.085c.585,0,.585,0,.585-.586,0-.55,0-.55-.551-.55-.585,0-.585,0-.585.587,0,.55,0,.55.551.55" transform="translate(-227.582 -21.677)" fill="#2b7e3b"/><path d="M228.091,49.033c.538,0,.538,0,.538-.527,0-.609,0-.609-.6-.609-.538,0-.538,0-.538.527,0,.609,0,.609.6.609" transform="translate(-205.909 -43.353)" fill="#2b7e3b"/><path d="M252.015,49.033c.558,0,.558,0,.558-.542,0-.594,0-.594-.578-.594-.558,0-.558,0-.558.542,0,.594,0,.594.578.594" transform="translate(-227.582 -43.353)" fill="#2b7e3b"/><path d="M228.044,72.98c.585,0,.585,0,.585-.586,0-.55,0-.55-.551-.55-.585,0-.585,0-.585.587,0,.55,0,.55.551.55" transform="translate(-205.909 -65.028)" fill="#2b7e3b"/><path d="M252.042,72.98c.531,0,.531,0,.531-.534,0-.6,0-.6-.6-.6-.531,0-.531,0-.531.534,0,.6,0,.6.6.6" transform="translate(-227.582 -65.028)" fill="#2b7e3b"/><path d="M251.993,96.928c.58,0,.58,0,.58-.591,0-.545,0-.545-.556-.545-.58,0-.58,0-.58.591,0,.545,0,.545.556.545" transform="translate(-227.582 -86.704)" fill="#2b7e3b"/><path d="M252,120.876c.569,0,.569,0,.569-.567s0-.569-.567-.569-.569,0-.569.567,0,.569.567.569" transform="translate(-227.582 -108.38)" fill="#2b7e3b"/><path d="M252.043,144.824c.529,0,.529,0,.529-.535,0-.6,0-.6-.606-.6-.529,0-.529,0-.529.536,0,.6,0,.6.606.6" transform="translate(-227.582 -130.055)" fill="#2b7e3b"/><path d="M107.843,60.968c.4-.013.8,0,1.206,0,.9,0,.892,0,.859-.921-.006-.166-.042-.226-.216-.219-.319.014-.638,0-.958,0h-.248c-.9,0-.892,0-.859.921.006.166.042.225.216.219" transform="translate(-97.406 -54.148)" fill="#2b7e3b"/><path d="M143.832,60.97c.294-.018.591,0,.887,0H145c.9,0,.894,0,.882-.9,0-.219-.084-.246-.268-.24-.378.012-.757,0-1.135,0-.9,0-.9,0-.88.9,0,.175.033.253.23.241" transform="translate(-129.973 -54.149)" fill="#2b7e3b"/><path d="M143.672,84.924c.4-.01.8,0,1.206,0,.93,0,.925,0,.874-.942-.008-.155-.047-.2-.2-.2-.307.011-.615,0-.922,0h-.284c-.929,0-.924,0-.874.942.008.155.047.2.2.2" transform="translate(-129.842 -75.832)" fill="#2b7e3b"/><path d="M107.843,108.864c.4-.013.8,0,1.206,0,.9,0,.892,0,.859-.921-.006-.166-.042-.226-.216-.219-.319.014-.638,0-.958,0h-.248c-.9,0-.892,0-.859.921.006.166.042.225.216.219" transform="translate(-97.406 -97.5)" fill="#2b7e3b"/><path d="M107.982,132.8c.378-.015.757,0,1.135,0,.88,0,.869,0,.869-.878,0-.234-.077-.275-.282-.263-.283.016-.567,0-.851,0h-.284c-.88,0-.869,0-.869.878,0,.234.077.271.282.263" transform="translate(-97.482 -119.16)" fill="#2b7e3b"/><path d="M109.7,155.62c-.39.011-.78,0-1.171,0-.9,0-.891,0-.87.911,0,.2.067.236.243.229.307-.012.615,0,.922,0h.248c.9,0,.891,0,.87-.911,0-.2-.067-.234-.243-.229" transform="translate(-97.441 -140.855)" fill="#2b7e3b"/><path d="M109.776,83.753c-.591.009-1.183.016-1.774,0-.238-.007-.289.067-.287.293,0,.849,0,.849.861.849h.532c.932,0,.926,0,.89-.926-.007-.174-.056-.216-.222-.214" transform="translate(-97.495 -75.804)" fill="#2b7e3b"/></g></g></g></svg>