<svg xmlns="http://www.w3.org/2000/svg" xmlns:xlink="http://www.w3.org/1999/xlink" width="63" height="63.196" viewBox="0 0 63 63.196"><defs><radialGradient id="a" cx="0.741" cy="0.152" r="0.5" gradientUnits="objectBoundingBox"><stop offset="0" stop-color="#fff"/><stop offset="1" stop-color="#e1efe3"/></radialGradient><clipPath id="b"><rect width="36.509" height="36.52" fill="#2b7e3b"/></clipPath></defs><g transform="translate(-301.667 -5920)"><g transform="translate(16.667 -1400)"><circle cx="31.5" cy="31.5" r="31.5" transform="translate(285 7320)" fill="url(#a)"/><path d="M8407.5,11782a31.476,31.476,0,0,1-31.5-31.5,31.842,31.842,0,0,1,.514-5.7,38.533,38.533,0,0,0,51.173,29.878A31.38,31.38,0,0,1,8407.5,11782Z" transform="translate(-8091 -4398.805)" fill="#bce2c1"/></g><g transform="translate(314.667 5933)"><g clip-path="url(#b)"><path d="M14.95,37.013a13.829,13.829,0,0,0,2.083.25h.706a.091.091,0,0,1,.019-.043,1.559,1.559,0,0,1,.193-.157.581.581,0,0,0,.219-.6.607.607,0,0,0-.488-.464,13.565,13.565,0,0,0-1.488-.138,16.8,16.8,0,0,1-13.1-9.346,16.452,16.452,0,0,1-1.624-5.766,16.79,16.79,0,0,1,2.3-10.325,17.1,17.1,0,0,1,2.182-2.9A16.608,16.608,0,0,1,16.862,2.274a16.876,16.876,0,0,1,16.487,9.349A16.548,16.548,0,0,1,35.04,17.95a16.7,16.7,0,0,1-1.733,8.73c-.107.213-.244.408-.346.623a.666.666,0,0,0,.19.94.694.694,0,0,0,.914-.321,11.806,11.806,0,0,0,.905-1.816,18.16,18.16,0,0,0,1.356-5.371,17.823,17.823,0,0,0-1.531-9.1,17.388,17.388,0,0,0-3.809-5.463A17.963,17.963,0,0,0,20.75,1.11a16.4,16.4,0,0,0-2.7-.194A17.989,17.989,0,0,0,6.674,5.1a17.875,17.875,0,0,0-6.331,11c-.071.409-.118.823-.179,1.234-.017.114.031.278-.164.3v.285a1.093,1.093,0,0,1,0,.856v.57a.926.926,0,0,1,0,.784v.357a5.049,5.049,0,0,1,.191,1.2A18.253,18.253,0,0,0,14.95,37.013" transform="translate(0 -0.802)" fill="#2b7e3b"/><path d="M.164,16.54c.061-.411.108-.825.179-1.234a17.875,17.875,0,0,1,6.331-11A17.988,17.988,0,0,1,18.055.114a16.4,16.4,0,0,1,2.7.194A17.963,17.963,0,0,1,30.987,5.371,17.387,17.387,0,0,1,34.8,10.834a17.823,17.823,0,0,1,1.531,9.1A18.16,18.16,0,0,1,34.971,25.3a11.806,11.806,0,0,1-.905,1.816.694.694,0,0,1-.914.321.667.667,0,0,1-.19-.94c.1-.214.239-.41.346-.623a16.692,16.692,0,0,0,1.733-8.73,16.548,16.548,0,0,0-1.691-6.326,16.836,16.836,0,0,0-4.475-5.614A16.747,16.747,0,0,0,16.862,1.472,16.609,16.609,0,0,0,5.946,6.719a17.1,17.1,0,0,0-2.182,2.9,16.79,16.79,0,0,0-2.3,10.325A16.452,16.452,0,0,0,3.09,25.708a16.8,16.8,0,0,0,13.1,9.346,13.564,13.564,0,0,1,1.488.138.607.607,0,0,1,.488.464.581.581,0,0,1-.219.6,1.56,1.56,0,0,0-.193.157.091.091,0,0,0-.019.043h.023c.394-.158.578-.409.538-.732a.723.723,0,0,0-.687-.65c-.153-.021-.307-.036-.461-.042a14.17,14.17,0,0,1-2.745-.391A16.777,16.777,0,0,1,2.084,13.806,16.746,16.746,0,0,1,26.012,3.423a16.862,16.862,0,0,1,8.666,18.162,16.077,16.077,0,0,1-1.733,4.752.962.962,0,0,0-.193.668.7.7,0,0,0,.561.615.78.78,0,0,0,.865-.475,18.679,18.679,0,0,0,2.208-6.93,16.8,16.8,0,0,0-1.035-8.254A17.969,17.969,0,0,0,20.688.217a16.4,16.4,0,0,0-8.785.963A17.979,17.979,0,0,0,.189,15.672,5.2,5.2,0,0,1,0,16.84c.2-.022.147-.185.164-.3" transform="translate(0 0)" fill="#2b7e3b"/><path d="M0,141.4v.856a2.038,2.038,0,0,0,0-.856" transform="translate(0 -124.278)" fill="#2b7e3b"/><path d="M0,141.4a2.038,2.038,0,0,1,0,.856,1.093,1.093,0,0,0,0-.856" transform="translate(0 -124.278)" fill="#2b7e3b"/><path d="M0,153.178v.784a1.779,1.779,0,0,0,0-.784" transform="translate(0 -134.627)" fill="#2b7e3b"/><path d="M0,153.178a1.779,1.779,0,0,1,0,.784.926.926,0,0,0,0-.784" transform="translate(0 -134.627)" fill="#2b7e3b"/><path d="M140.776,301.107h-.042s0,.009,0,.013-.015.024-.024.024h.713a.087.087,0,0,1-.016-.056,4.291,4.291,0,0,1-.633.02" transform="translate(-123.672 -264.623)" fill="#2b7e3b"/><path d="M146.463,301.054a.087.087,0,0,0,.016.056.212.212,0,0,1,.008-.061l-.024,0" transform="translate(-128.725 -264.59)" fill="#2b7e3b"/><path d="M140.644,301.05c.019.006.027.014.03.023h.042a4.287,4.287,0,0,0,.633-.02v0h-.706" transform="translate(-123.611 -264.59)" fill="#2b7e3b"/><path d="M146.465,301.054l.024,0h-.023s0,0,0,0" transform="translate(-128.727 -264.59)" fill="#2b7e3b"/><path d="M140.7,301.257s0-.009,0-.014h-.027c0,.012,0,.025.005.037s.016-.008.024-.024" transform="translate(-123.634 -264.76)" fill="#2b7e3b"/><path d="M140.644,301.058c0,.007,0,.015,0,.022h.027c0-.008-.011-.016-.03-.023" transform="translate(-123.611 -264.598)" fill="#2b7e3b"/><path d="M47.474,33.25a13.527,13.527,0,0,0-9.133,2.893,13.768,13.768,0,0,0-5.656,10.432A15.371,15.371,0,0,0,33.9,53.244a14.169,14.169,0,0,0,9.015,7.905.725.725,0,1,0,.45-1.373c-.121-.048-.247-.081-.371-.121a12.758,12.758,0,0,1-8.833-11.142c-.023-.245.056-.272.262-.266.475.013.951.007,1.426,0a.763.763,0,0,0,.795-.481.738.738,0,0,0-.763-1c-.5-.016-1-.005-1.5,0-.139,0-.244.015-.226-.2a12.439,12.439,0,0,1,1.668-5.426A12.719,12.719,0,0,1,45.9,34.791c.222-.023.253.056.249.247-.011.487-.014.975,0,1.462a.773.773,0,0,0,.744.829.76.76,0,0,0,.732-.842c.007-.356,0-.713,0-1.069,0-.629,0-.629.607-.573.165.015.332.026.5.051a12.446,12.446,0,0,1,6.923,3.361A12.749,12.749,0,0,1,59.6,46.506c.023.236-.052.276-.264.269-.451-.015-.9-.008-1.355,0-.564,0-.905.283-.91.734s.333.74.9.746c.463,0,.927.01,1.39,0,.2-.006.265.044.247.253a12.569,12.569,0,0,1-.466,2.55,1.113,1.113,0,0,0-.066.558.692.692,0,0,0,.68.566.769.769,0,0,0,.828-.63,15.8,15.8,0,0,0,.467-2.262A14.3,14.3,0,0,0,47.474,33.25" transform="translate(-28.726 -29.208)" fill="#2b7e3b"/><path d="M146.433,178.612a7.4,7.4,0,1,0,7.388,7.423,7.42,7.42,0,0,0-7.388-7.423m-.048,13.32a5.958,5.958,0,1,1,6-5.947,5.964,5.964,0,0,1-6,5.947" transform="translate(-122.19 -156.981)" fill="#2b7e3b"/><path d="M98.149,88.864a2.086,2.086,0,0,0,1.36-2.027,2.154,2.154,0,0,0-1.3-2.109.348.348,0,0,1-.235-.375c.009-.915,0-1.83,0-2.745q0-1.319,0-2.638a3,3,0,0,0-.022-.39.7.7,0,0,0-.666-.62.719.719,0,0,0-.7.545,2.356,2.356,0,0,0-.046.494q0,2.656,0,5.311c0,.185,0,.331-.224.415a1.9,1.9,0,0,0-1.1,1.1.345.345,0,0,1-.38.232c-1.283-.01-2.566-.005-3.849,0-.119,0-.238,0-.356.008a.722.722,0,0,0,.012,1.444c.106.009.214.006.32.006,1.236,0,2.471.009,3.707-.006.281,0,.461.05.558.339a1.485,1.485,0,0,0,.486.648,2.217,2.217,0,0,0,2.428.37M96.47,86.816a.853.853,0,0,1,.841-.833.784.784,0,0,1,.821.788.9.9,0,0,1-.86.862.819.819,0,0,1-.8-.817" transform="translate(-79.048 -68.518)" fill="#2b7e3b"/><path d="M184.235,207.913c-.121-.045-.25-.073-.374-.11-.295-.088-.6-.154-.882-.269a.4.4,0,0,1-.072-.762.958.958,0,0,1,.68-.138c.346.041.653.215.993.266a.665.665,0,0,0,.784-.5.635.635,0,0,0-.357-.826,2.4,2.4,0,0,0-.7-.236c-.3-.033-.4-.14-.379-.445.024-.429-.154-.588-.564-.587-.3,0-.577.134-.551.426a.694.694,0,0,1-.618.831.125.125,0,0,0-.03.018,1.972,1.972,0,0,0-1.038,1.816c.028.818.582,1.2,1.247,1.474a5.182,5.182,0,0,0,.543.163c.25.073.5.134.748.22a.476.476,0,0,1,.376.462.587.587,0,0,1-.381.519,1.415,1.415,0,0,1-1.039.009c-.222-.08-.436-.186-.661-.257a.652.652,0,0,0-.914.351.74.74,0,0,0,.321,1.007,1.7,1.7,0,0,0,.828.3c.387.014.592.134.516.563-.048.271.121.41.363.487.5.158.834-.075.82-.622a.475.475,0,0,1,.377-.555,1.921,1.921,0,0,0,1.293-1.93c-.018-.859-.385-1.324-1.328-1.675" transform="translate(-159.045 -179.565)" fill="#2b7e3b"/></g></g></g></svg>