<svg xmlns="http://www.w3.org/2000/svg" xmlns:xlink="http://www.w3.org/1999/xlink" width="63" height="63.196" viewBox="0 0 63 63.196"><defs><radialGradient id="a" cx="0.741" cy="0.152" r="0.5" gradientUnits="objectBoundingBox"><stop offset="0" stop-color="#fff"/><stop offset="1" stop-color="#e1efe3"/></radialGradient><clipPath id="b"><rect width="35.08" height="35.146" fill="#2b7e3b"/></clipPath></defs><g transform="translate(-294.667 -5732)"><g transform="translate(-7 -113)"><g transform="translate(16.667 -1475)"><circle cx="31.5" cy="31.5" r="31.5" transform="translate(285 7320)" fill="url(#a)"/><path d="M8407.5,11782a31.476,31.476,0,0,1-31.5-31.5,31.842,31.842,0,0,1,.514-5.7,38.533,38.533,0,0,0,51.173,29.878A31.38,31.38,0,0,1,8407.5,11782Z" transform="translate(-8091 -4398.805)" fill="#bce2c1"/></g><g transform="translate(315.667 5859)"><g transform="translate(0)" clip-path="url(#b)"><path d="M33.325,34.375c-.019-1.029-.014-2.059-.035-3.088,0-.2.044-.259.24-.25.308.015.617.012.925,0a.586.586,0,0,0,.623-.624c0-.08,0-.16,0-.24q0-10.262,0-20.525c0-.694-.17-.862-.875-.862-2.718,0-5.435,0-8.153.007-.272,0-.335-.073-.334-.338.01-2.551,0-5.1.009-7.654a.747.747,0,0,0-.444-.8H9.8a.748.748,0,0,0-.444.8q.009,3.737,0,7.474c0,.51,0,.51-.492.51-2.681,0-5.361.005-8.042-.006A.839.839,0,0,0,0,9.2V30.616a.728.728,0,0,0,.775.429c.249-.018.5.009.751-.007.2-.013.269.036.264.26-.024,1.027-.018,2.054-.035,3.081a.725.725,0,0,0,.438.768H32.887a.733.733,0,0,0,.438-.772M25.14,25.205a1.182,1.182,0,0,1-1.161,1.153,1.167,1.167,0,1,1,1.161-1.153M11.1,24.023a1.167,1.167,0,1,1,0,2.335,1.167,1.167,0,0,1,0-2.335M7.353,33.981c-.7-.009-1.391,0-2.086,0s-1.368-.007-2.052,0c-.2,0-.3-.026-.293-.27.02-.708-.013-1.417.016-2.124A2.308,2.308,0,0,1,5.3,29.3a2.335,2.335,0,0,1,2.3,2.355c.017.7,0,1.394.008,2.09,0,.207-.073.24-.255.238M4.1,26.961A1.156,1.156,0,0,1,5.255,25.78a1.167,1.167,0,0,1,.032,2.334A1.166,1.166,0,0,1,4.1,26.961m3.658,1.9c-.064.212-.117.2-.261.079s-.407-.214-.471-.375c-.072-.18.193-.322.281-.5a2.271,2.271,0,0,0-.18-2.518,2.2,2.2,0,0,0-2.387-.884,2.226,2.226,0,0,0-1.761,1.8A2.127,2.127,0,0,0,3.39,28.31c.174.218.127.295-.083.421a2.641,2.641,0,0,0-.9.882.5.5,0,0,1-.5.26c-.75-.012-.75,0-.75-.767V19.912c0-3.2,0-6.4-.007-9.606,0-.277.053-.359.346-.358q3.767.02,7.533,0c.253,0,.323.056.322.317q-.013,6.57,0,13.14a.716.716,0,0,1-.141.441,2.25,2.25,0,0,0,.057,2.765c.1.133.132.2-.04.3a3.38,3.38,0,0,0-1.475,1.947m5.389,5.119c-.684-.017-1.369-.006-2.054-.006s-1.369-.006-2.054,0c-.19,0-.279-.017-.277-.25.013-1.28-.008-2.561.011-3.841a2.33,2.33,0,0,1,4.606-.521,2.876,2.876,0,0,1,.059.646c.005,1.223,0,2.447.009,3.67,0,.242-.062.3-.3.3m7.053,0c-.89-.011-1.78,0-2.67,0s-1.78,0-2.67,0c-.149,0-.258.005-.254-.207.032-1.4-.06-2.812.049-4.215a2.878,2.878,0,0,1,2.994-2.594,2.912,2.912,0,0,1,2.814,3.02c.02,1.246,0,2.492.009,3.738,0,.22-.069.264-.272.261M15.788,24.03a1.752,1.752,0,1,1,3.5.006,1.752,1.752,0,0,1-3.5-.006m5.5,3.6c-.128.171-.2.239-.348,0a3.544,3.544,0,0,0-1.291-1.248c-.189-.108-.209-.168-.049-.336a2.916,2.916,0,0,0-3.45-4.622,2.963,2.963,0,0,0-1.473,3.131,2.818,2.818,0,0,0,.79,1.486c.146.143.19.215-.028.337a3.629,3.629,0,0,0-1.316,1.27c-.111.178-.175.192-.3.016a2.675,2.675,0,0,0-.839-.746c-.172-.1-.144-.166-.043-.3a2.312,2.312,0,0,0-1.379-3.73,1.986,1.986,0,0,0-.849.006c-.144.034-.189,0-.182-.142,0-.08,0-.16,0-.24v-10.5c0-3.5,0-7-.007-10.5,0-.292.077-.349.356-.348q6.661.014,13.323,0c.273,0,.36.047.36.345q-.015,10.534,0,21.069c0,.233.011.34-.316.3a2.18,2.18,0,0,0-2.274,1.134,2.205,2.205,0,0,0,.154,2.567c.135.186.123.259-.068.37a2.541,2.541,0,0,0-.762.68m4.747,6.353c-.7-.016-1.392-.006-2.088-.006s-1.369,0-2.054,0c-.173,0-.263-.014-.261-.231.012-1.314-.012-2.63.017-3.944a2.292,2.292,0,0,1,1.838-2.217,2.32,2.32,0,0,1,2.586,1.279,2.406,2.406,0,0,1,.236,1.094c0,1.246-.005,2.492.005,3.738,0,.221-.053.288-.279.283m5.89,0c-.707-.01-1.413,0-2.12,0s-1.391-.007-2.086,0c-.191,0-.251-.048-.248-.245.012-.7-.009-1.394.008-2.09a2.347,2.347,0,0,1,2-2.329,2.315,2.315,0,0,1,2.595,1.769,2.273,2.273,0,0,1,.068.541c.008.708,0,1.416.008,2.124,0,.18-.049.231-.229.229m-3.28-7.035a1.178,1.178,0,0,1,1.179-1.167,1.167,1.167,0,1,1-.032,2.334,1.187,1.187,0,0,1-1.147-1.168m3.876,2.479a2.05,2.05,0,0,0-.8-.73c-.2-.111-.17-.193-.05-.354a2.324,2.324,0,1,0-3.739-.055c.149.212.186.323-.074.448-.159.077-.32.3-.437.277-.146-.033-.137-.3-.205-.469a3.4,3.4,0,0,0-1.336-1.6c-.2-.123-.177-.189-.052-.351a2.247,2.247,0,0,0,.04-2.737.715.715,0,0,1-.143-.441q.005-6.57,0-13.14c0-.255.059-.321.319-.32q3.784.017,7.568,0c.26,0,.315.066.314.319q-.014,4.837-.006,9.675c0,3.179,0,6.358.006,9.538,0,.294-.049.454-.377.388a.192.192,0,0,0-.068,0,.824.824,0,0,1-.952-.443" fill="#2b7e3b"/><path d="M155,26.337c0-.592-.21-.8-.81-.8q-3.287,0-6.575,0c-.6,0-.808.2-.809.8q0,2.127,0,4.254c0,.606.2.806.793.807,1.1,0,2.192,0,3.287,0s2.192,0,3.287,0c.641,0,.826-.191.827-.843q0-2.11,0-4.22m-1.164,3.624c0,.212-.058.271-.269.27q-2.668-.012-5.335,0c-.219,0-.263-.076-.261-.277q.014-1.49,0-2.981c0-.212.058-.271.269-.268.889.011,1.778,0,2.667,0s1.756.006,2.633,0c.209,0,.3.032.3.274-.014.993-.012,1.987,0,2.981" transform="translate(-133.361 -23.201)" fill="#2b7e3b"/><path d="M186.326,179.724c0-.562,0-.562-.576-.562-.6,0-.6,0-.6.608,0,.561,0,.561.576.561.6,0,.6,0,.6-.607" transform="translate(-168.2 -162.758)" fill="#2b7e3b"/><path d="M185.74,204.7c-.592,0-.592,0-.592.581s0,.59.584.59.592,0,.592-.582,0-.589-.583-.589" transform="translate(-168.196 -185.954)" fill="#2b7e3b"/><path d="M185.746,153.6c-.6,0-.6,0-.6.608,0,.563,0,.563.576.563.6,0,.6,0,.6-.609,0-.562,0-.562-.576-.562" transform="translate(-168.195 -139.54)" fill="#2b7e3b"/><path d="M185.722,128c-.577,0-.577,0-.577.562,0,.611,0,.611.6.611.577,0,.577,0,.577-.564,0-.609,0-.609-.6-.609" transform="translate(-168.193 -116.281)" fill="#2b7e3b"/><path d="M185.735,103.557c.595,0,.595,0,.595-.588s0-.587-.6-.587c-.578,0-.578,0-.578.57v.034c0,.569,0,.569.579.569" transform="translate(-168.203 -93.009)" fill="#2b7e3b"/><path d="M134.594,153.608c-.566,0-.566,0-.566.571,0,.6,0,.6.608.6.563,0,.563,0,.563-.573,0-.6,0-.6-.6-.6" transform="translate(-121.757 -139.544)" fill="#2b7e3b"/><path d="M160.142,153.607c-.563,0-.563,0-.563.576,0,.595,0,.595.579.595s.592,0,.592-.578,0-.593-.608-.593" transform="translate(-144.968 -139.543)" fill="#2b7e3b"/><path d="M236.878,129.177c.606,0,.606,0,.606-.6,0-.569,0-.569-.569-.569-.6,0-.6,0-.6.6,0,.574,0,.574.566.574" transform="translate(-214.675 -116.284)" fill="#2b7e3b"/><path d="M236.906,153.608c-.593,0-.593,0-.593.575,0,.6,0,.6.609.6.562,0,.562,0,.562-.577,0-.593,0-.593-.578-.593" transform="translate(-214.676 -139.544)" fill="#2b7e3b"/><path d="M134.652,180.332c.549,0,.549,0,.549-.551,0-.619,0-.619-.618-.619-.552,0-.552,0-.552.551,0,.618,0,.618.622.618" transform="translate(-121.758 -162.759)" fill="#2b7e3b"/><path d="M160.164,180.332c.586,0,.586,0,.586-.581s0-.589-.579-.589-.592,0-.592.581,0,.588.585.588" transform="translate(-144.968 -162.759)" fill="#2b7e3b"/><path d="M211.931,179.753c0-.591,0-.591-.583-.591s-.588,0-.588.58,0,.59.577.59c.594,0,.594,0,.594-.579" transform="translate(-191.463 -162.758)" fill="#2b7e3b"/><path d="M237.485,179.752c0-.589,0-.589-.583-.589s-.588,0-.588.581,0,.588.58.588.591,0,.591-.58" transform="translate(-214.677 -162.759)" fill="#2b7e3b"/><path d="M134.591,204.7h-.034c-.528,0-.528,0-.528.541,0,.629,0,.629.612.629.559,0,.559,0,.559-.575,0-.6,0-.6-.608-.6" transform="translate(-121.757 -185.958)" fill="#2b7e3b"/><path d="M160.154,204.7c-.575,0-.575,0-.575.564,0,.607,0,.607.6.607.57,0,.57,0,.57-.563,0-.607,0-.607-.6-.607" transform="translate(-144.968 -185.957)" fill="#2b7e3b"/><path d="M211.342,204.7c-.581,0-.581,0-.581.587s0,.583.584.583.587,0,.587-.587,0-.583-.59-.583" transform="translate(-191.464 -185.957)" fill="#2b7e3b"/><path d="M236.912,204.7c-.6,0-.6,0-.6.605,0,.565,0,.565.569.565.6,0,.6,0,.6-.6,0-.565,0-.565-.573-.565" transform="translate(-214.677 -185.958)" fill="#2b7e3b"/><path d="M134.639,128H134.6c-.578,0-.578,0-.578.594,0,.578,0,.578.562.578.609,0,.609,0,.609-.6,0-.574,0-.574-.559-.574" transform="translate(-121.756 -116.284)" fill="#2b7e3b"/><path d="M211.3,153.607c-.541,0-.541,0-.541.557,0,.614,0,.614.625.614h.034c.512,0,.512,0,.512-.525,0-.646,0-.646-.63-.646" transform="translate(-191.463 -139.543)" fill="#2b7e3b"/><path d="M211.351,128c-.594,0-.594,0-.594.573,0,.6,0,.6.608.6.564,0,.564,0,.564-.577,0-.6,0-.6-.578-.6" transform="translate(-191.46 -116.282)" fill="#2b7e3b"/><path d="M160.143,128c-.567,0-.567,0-.567.572,0,.6,0,.6.609.6.563,0,.563,0,.563-.577,0-.6,0-.6-.6-.6" transform="translate(-144.965 -116.282)" fill="#2b7e3b"/><path d="M211.353,102.374c-.6,0-.6,0-.6.607,0,.569,0,.569.572.569.6,0,.6,0,.6-.609,0-.566,0-.566-.575-.566" transform="translate(-191.459 -93.001)" fill="#2b7e3b"/><path d="M160.195,102.374c-.62,0-.62,0-.62.624,0,.552,0,.552.555.552.616,0,.616,0,.616-.626,0-.55,0-.55-.552-.55" transform="translate(-144.964 -93.001)" fill="#2b7e3b"/><path d="M339.152,151.74v-3.876c0-.854,0-.84-.843-.857-.282-.006-.334.086-.333.346.009,2.721,0,5.442.008,8.164,0,.282-.125.647.053.825s.543.025.823.059c.25.03.3-.074.3-.305-.01-1.452-.005-2.9-.005-4.356" transform="translate(-307.001 -133.547)" fill="#2b7e3b"/><path d="M300.965,151.724v-3.872c0-.844,0-.83-.846-.848-.286-.006-.327.094-.326.346.008,2.719,0,5.437.006,8.156,0,.284-.094.663.049.826.169.191.558.031.848.067.24.03.275-.077.274-.288-.008-1.462,0-2.924,0-4.386" transform="translate(-272.322 -133.545)" fill="#2b7e3b"/><path d="M32.756,151.679V147.8c0-.813,0-.794-.813-.821-.325-.011-.363.1-.362.386.01,2.71,0,5.419.009,8.129,0,.282-.124.649.053.824s.544.024.824.057c.253.03.3-.079.3-.309-.01-1.463,0-2.927,0-4.39" transform="translate(-28.658 -133.524)" fill="#2b7e3b"/><path d="M71.187,151.727v-3.906c0-.8,0-.791-.816-.809-.278-.006-.36.057-.359.349.012,2.73.007,5.46.008,8.19,0,.272-.089.637.05.792.164.184.538.024.816.063s.308-.09.306-.327c-.01-1.451-.005-2.9-.005-4.352" transform="translate(-63.584 -133.551)" fill="#2b7e3b"/></g></g></g></g></svg>