<svg xmlns="http://www.w3.org/2000/svg" width="400" height="443.424" viewBox="0 0 400 443.424">
  <g id="Grupo_1072267" data-name="Grupo 1072267" transform="translate(2729.751 3716.222)">
    <g id="Grupo_1072261" data-name="Grupo 1072261">
      <g id="Grupo_1072248" data-name="Grupo 1072248" transform="translate(3622.249 7231.778)">
        <g id="Grupo_1072051" data-name="Grupo 1072051" transform="translate(-6352 -10948)">
          <rect id="Rect치ngulo_377635" data-name="Rect치ngulo 377635" width="400" height="443.424" fill="#fff"/>
        </g>
      </g>
      <g id="Grupo_1072257" data-name="Grupo 1072257" transform="translate(-994.501 282.127)">
        <g id="Grupo_1072226" data-name="Grupo 1072226" transform="translate(-1636 -3843.127)">
          <rect id="Rect치ngulo_377663" data-name="Rect치ngulo 377663" width="198.232" height="53.001" transform="translate(0 0.5)" fill="#0c5e46"/>
          <g id="Grupo_1072225" data-name="Grupo 1072225" transform="translate(-7 -6)">
            <g id="Grupo_871603" data-name="Grupo 871603" transform="translate(0)">
              <g id="Grupo_870556" data-name="Grupo 870556">
                <g id="Grupo_870549" data-name="Grupo 870549" transform="translate(28.705 30.636) rotate(-180)">
                  <path id="Trazado_213855" data-name="Trazado 213855" d="M0,0,3.93,3.368V27.361H0Z" transform="translate(24.775 0)" fill="#08956c"/>
                  <path id="Trazado_213856" data-name="Trazado 213856" d="M0,28.7l3.93-3.588V0H0Z" transform="translate(28.705 26.706) rotate(90)" fill="#08956c"/>
                </g>
              </g>
            </g>
          </g>
          <g id="Grupo_1072224" data-name="Grupo 1072224" transform="translate(205.232 60.819) rotate(180)">
            <g id="Grupo_871603-2" data-name="Grupo 871603" transform="translate(0 0)">
              <g id="Grupo_870556-2" data-name="Grupo 870556" transform="translate(0)">
                <g id="Grupo_870549-2" data-name="Grupo 870549" transform="translate(28.705 30.636) rotate(-180)">
                  <path id="Trazado_213855-2" data-name="Trazado 213855" d="M0,0,3.93,3.368V27.361H0Z" transform="translate(24.775 0)" fill="#08956c"/>
                  <path id="Trazado_213856-2" data-name="Trazado 213856" d="M0,28.7l3.93-3.588V0H0Z" transform="translate(28.705 26.706) rotate(90)" fill="#08956c"/>
                </g>
              </g>
            </g>
          </g>
        </g>
        <path id="Trazado_609632" data-name="Trazado 609632" d="M17.735,6.339h-3.92V17H11.178V6.339H7.311V4.2H17.735ZM23.1,17a2.821,2.821,0,0,1-.255-.853,3.073,3.073,0,0,1-2.4,1.028,3.376,3.376,0,0,1-2.316-.809,2.6,2.6,0,0,1-.918-2.039,2.687,2.687,0,0,1,1.121-2.32,5.529,5.529,0,0,1,3.239-.817h1.169v-.545a1.567,1.567,0,0,0-.338-1.055,1.331,1.331,0,0,0-1.068-.4,1.513,1.513,0,0,0-1.006.308,1.045,1.045,0,0,0-.365.844h-2.54a2.551,2.551,0,0,1,.51-1.529,3.37,3.37,0,0,1,1.441-1.1,5.253,5.253,0,0,1,2.092-.4,4.15,4.15,0,0,1,2.791.883,3.09,3.09,0,0,1,1.033,2.483V14.8a4.546,4.546,0,0,0,.378,2.048V17ZM21,15.233a2.188,2.188,0,0,0,1.037-.25,1.645,1.645,0,0,0,.7-.672V12.676H21.8q-1.907,0-2.03,1.318l-.009.149a1.017,1.017,0,0,0,.334.782A1.3,1.3,0,0,0,21,15.233ZM32.588,9.872a6.9,6.9,0,0,0-.914-.07,1.86,1.86,0,0,0-1.89.976V17h-2.54V7.49h2.4l.07,1.134a2.354,2.354,0,0,1,2.118-1.31,2.662,2.662,0,0,1,.791.114ZM36.491,17H33.942V7.49h2.549Zm-2.7-11.971a1.251,1.251,0,0,1,.382-.94,1.648,1.648,0,0,1,2.079,0,1.244,1.244,0,0,1,.387.94,1.247,1.247,0,0,1-.391.949,1.629,1.629,0,0,1-2.065,0A1.247,1.247,0,0,1,33.792,5.029ZM39.277,17V9.354H37.862V7.49h1.415V6.682A3.283,3.283,0,0,1,40.2,4.2a3.557,3.557,0,0,1,2.571-.883,5.938,5.938,0,0,1,1.292.176L44.032,5.46a3.238,3.238,0,0,0-.773-.079q-1.433,0-1.433,1.345V7.49h1.89V9.354h-1.89V17Zm11.268,0a2.821,2.821,0,0,1-.255-.853,3.073,3.073,0,0,1-2.4,1.028,3.376,3.376,0,0,1-2.316-.809,2.6,2.6,0,0,1-.918-2.039,2.687,2.687,0,0,1,1.121-2.32,5.529,5.529,0,0,1,3.239-.817h1.169v-.545a1.567,1.567,0,0,0-.338-1.055,1.331,1.331,0,0,0-1.068-.4,1.513,1.513,0,0,0-1.006.308,1.045,1.045,0,0,0-.365.844h-2.54a2.551,2.551,0,0,1,.51-1.529,3.37,3.37,0,0,1,1.441-1.1,5.253,5.253,0,0,1,2.092-.4A4.15,4.15,0,0,1,51.7,8.2a3.09,3.09,0,0,1,1.033,2.483V14.8a4.546,4.546,0,0,0,.378,2.048V17Zm-2.1-1.767a2.188,2.188,0,0,0,1.037-.25,1.645,1.645,0,0,0,.7-.672V12.676h-.949q-1.907,0-2.03,1.318l-.009.149a1.017,1.017,0,0,0,.334.782A1.3,1.3,0,0,0,48.444,15.233Zm11.391-.861a.818.818,0,0,0-.461-.734,5.241,5.241,0,0,0-1.481-.479Q54.5,12.447,54.5,10.276a2.613,2.613,0,0,1,1.05-2.114A4.237,4.237,0,0,1,58.3,7.314a4.56,4.56,0,0,1,2.9.853,2.687,2.687,0,0,1,1.085,2.215h-2.54a1.229,1.229,0,0,0-.352-.9,1.488,1.488,0,0,0-1.1-.356,1.52,1.52,0,0,0-.993.29.916.916,0,0,0-.352.738.783.783,0,0,0,.4.681,4.114,4.114,0,0,0,1.349.448,11.019,11.019,0,0,1,1.6.426A2.628,2.628,0,0,1,62.3,14.267a2.481,2.481,0,0,1-1.116,2.1,4.815,4.815,0,0,1-2.883.8,5.029,5.029,0,0,1-2.123-.426,3.561,3.561,0,0,1-1.455-1.169,2.716,2.716,0,0,1-.527-1.6h2.408a1.326,1.326,0,0,0,.5,1.037,1.987,1.987,0,0,0,1.248.36,1.839,1.839,0,0,0,1.1-.277A.861.861,0,0,0,59.834,14.372Zm8.191-2.2a5.731,5.731,0,0,1,1-3.542,3.237,3.237,0,0,1,2.729-1.318,2.913,2.913,0,0,1,2.294,1.037V3.5H76.6V17H74.3l-.123-1.011a2.989,2.989,0,0,1-2.443,1.187,3.228,3.228,0,0,1-2.694-1.323A5.916,5.916,0,0,1,68.026,12.175Zm2.54.189a3.754,3.754,0,0,0,.466,2.051,1.517,1.517,0,0,0,1.354.713,1.7,1.7,0,0,0,1.661-.995V10.375A1.675,1.675,0,0,0,72.4,9.38Q70.566,9.38,70.566,12.364Zm12.375,4.812a4.668,4.668,0,0,1-3.406-1.283,4.561,4.561,0,0,1-1.314-3.419v-.246a5.745,5.745,0,0,1,.554-2.562,4.064,4.064,0,0,1,1.569-1.74,4.4,4.4,0,0,1,2.316-.611,3.947,3.947,0,0,1,3.072,1.23,5,5,0,0,1,1.121,3.489v1.037H80.8a2.36,2.36,0,0,0,.743,1.494,2.245,2.245,0,0,0,1.569.563A2.742,2.742,0,0,0,85.4,14.064l1.248,1.4A3.813,3.813,0,0,1,85.1,16.723,5.075,5.075,0,0,1,82.941,17.176Zm-.29-7.813a1.587,1.587,0,0,0-1.226.512,2.651,2.651,0,0,0-.6,1.466h3.533v-.2A1.891,1.891,0,0,0,83.9,9.826,1.638,1.638,0,0,0,82.651,9.362ZM90.974,17H88.425V3.5h2.549Zm9.545,0H97.882V4.2h2.637Zm7.172-3.173,2.9-9.624h2.936L109.071,17H106.32L101.881,4.2h2.927Zm13.605.536h-4.623L115.794,17h-2.8l4.764-12.8H120.2l4.79,12.8h-2.8Zm-3.911-2.136h3.2l-1.608-4.79Z" transform="translate(-1603 -3827.127)" fill="#fff"/>
      </g>
      <path id="Trazado_609621" data-name="Trazado 609621" d="M0,0H53V24a5,5,0,0,1-5,5H5a5,5,0,0,1-5-5Z" transform="translate(-2504.501 -3669) rotate(180)" fill="#03386e"/>
      <path id="Trazado_609622" data-name="Trazado 609622" d="M0,0H53V24a5,5,0,0,1-5,5H5a5,5,0,0,1-5-5Z" transform="translate(-2398.769 -3448) rotate(180)" fill="#03386e"/>
      <path id="Trazado_609623" data-name="Trazado 609623" d="M0,0H53V24a5,5,0,0,1-5,5H5a5,5,0,0,1-5-5Z" transform="translate(-2611.001 -3448) rotate(180)" fill="#03386e"/>
      <path id="Trazado_609624" data-name="Trazado 609624" d="M0,0H343V47H0Z" transform="translate(-2702.501 -3669)" fill="#dbe5f3"/>
      <path id="Trazado_609546" data-name="Trazado 609546" d="M0,0H170.817V146.587H0Z" transform="translate(-2713.001 -3448)" fill="#e5f0ff"/>
      <path id="Trazado_609625" data-name="Trazado 609625" d="M0,0H170V147H0Z" transform="translate(-2517 -3448)" fill="#dbf2f3"/>
      <path id="Trazado_609626" data-name="Trazado 609626" d="M8.846,16H6.837V6.291L3.874,7.3V5.607L8.588,3.873h.257Zm9.919-5.055a3.3,3.3,0,0,1-4.906-.046,4.384,4.384,0,0,1-.946-2.934A4.811,4.811,0,0,1,13.395,5.8a3.59,3.59,0,0,1,1.37-1.511,3.886,3.886,0,0,1,2.059-.54,3.491,3.491,0,0,1,2.9,1.361,5.734,5.734,0,0,1,1.071,3.644v.564a7.447,7.447,0,0,1-1.478,4.989,5.562,5.562,0,0,1-4.408,1.743h-.241V14.381h.291a4.13,4.13,0,0,0,2.739-.859A3.581,3.581,0,0,0,18.765,10.945Zm-1.942-.506a2.036,2.036,0,0,0,1.137-.349,2.3,2.3,0,0,0,.822-.963V8.338a3.786,3.786,0,0,0-.548-2.15,1.65,1.65,0,0,0-1.419-.813,1.631,1.631,0,0,0-1.39.718,3.018,3.018,0,0,0-.519,1.814,2.981,2.981,0,0,0,.523,1.834A1.657,1.657,0,0,0,16.823,10.438Zm10.036-4.2a2.426,2.426,0,0,1,.706-1.8,2.81,2.81,0,0,1,3.715,0,2.486,2.486,0,0,1,.7,1.839v.6a2.409,2.409,0,0,1-.7,1.785,2.505,2.505,0,0,1-1.847.7,2.585,2.585,0,0,1-1.847-.685,2.417,2.417,0,0,1-.726-1.847Zm1.411.636a1.331,1.331,0,0,0,.32.928,1.081,1.081,0,0,0,.843.354,1.059,1.059,0,0,0,.83-.354,1.392,1.392,0,0,0,.315-.961V6.233a1.347,1.347,0,0,0-.32-.932,1.075,1.075,0,0,0-.843-.358,1.045,1.045,0,0,0-.834.362,1.41,1.41,0,0,0-.311.953Zm4.4,6.163a2.376,2.376,0,0,1,.722-1.8,2.814,2.814,0,0,1,3.69,0,2.456,2.456,0,0,1,.718,1.859v.589a2.428,2.428,0,0,1-.693,1.781,2.491,2.491,0,0,1-1.855.7,2.564,2.564,0,0,1-1.872-.693,2.443,2.443,0,0,1-.71-1.83Zm1.411.639a1.324,1.324,0,0,0,.328.926,1.087,1.087,0,0,0,.843.361,1.053,1.053,0,0,0,.834-.344,1.416,1.416,0,0,0,.3-.967v-.623a1.312,1.312,0,0,0-.324-.93,1.167,1.167,0,0,0-1.664,0,1.371,1.371,0,0,0-.32.963ZM29.847,15.1l-1.038-.6,5.9-9.446,1.038.6Z" transform="translate(-2551.501 -3695)" fill="#fff"/>
      <path id="Trazado_609627" data-name="Trazado 609627" d="M16.092,10.912a6.591,6.591,0,0,1-.975,3.93,3.445,3.445,0,0,1-2.968,1.324A3.49,3.49,0,0,1,9.2,14.875a6.311,6.311,0,0,1-1.017-3.823V8.961a6.492,6.492,0,0,1,.975-3.91,3.477,3.477,0,0,1,2.976-1.3,3.5,3.5,0,0,1,2.959,1.27,6.294,6.294,0,0,1,1,3.8ZM14.075,8.654a5.114,5.114,0,0,0-.465-2.494,1.586,1.586,0,0,0-1.478-.793,1.585,1.585,0,0,0-1.453.751,4.726,4.726,0,0,0-.49,2.345V11.2a5.246,5.246,0,0,0,.473,2.523,1.589,1.589,0,0,0,1.486.83,1.561,1.561,0,0,0,1.436-.768,4.936,4.936,0,0,0,.49-2.4Zm7.952-2.416a2.426,2.426,0,0,1,.706-1.8,2.81,2.81,0,0,1,3.715,0,2.486,2.486,0,0,1,.7,1.839v.6a2.409,2.409,0,0,1-.7,1.785,2.505,2.505,0,0,1-1.847.7,2.585,2.585,0,0,1-1.847-.685,2.417,2.417,0,0,1-.726-1.847Zm1.411.636a1.331,1.331,0,0,0,.32.928,1.081,1.081,0,0,0,.843.354,1.059,1.059,0,0,0,.83-.354,1.392,1.392,0,0,0,.315-.961V6.233a1.347,1.347,0,0,0-.32-.932,1.075,1.075,0,0,0-.843-.358,1.045,1.045,0,0,0-.834.362,1.41,1.41,0,0,0-.311.953Zm4.4,6.163a2.376,2.376,0,0,1,.722-1.8,2.814,2.814,0,0,1,3.69,0,2.456,2.456,0,0,1,.718,1.859v.589a2.428,2.428,0,0,1-.693,1.781,2.491,2.491,0,0,1-1.855.7,2.564,2.564,0,0,1-1.872-.693,2.443,2.443,0,0,1-.71-1.83Zm1.411.639a1.324,1.324,0,0,0,.328.926,1.087,1.087,0,0,0,.843.361,1.053,1.053,0,0,0,.834-.344,1.416,1.416,0,0,0,.3-.967v-.623a1.312,1.312,0,0,0-.324-.93,1.167,1.167,0,0,0-1.664,0,1.371,1.371,0,0,0-.32.963ZM25.016,15.1l-1.038-.6,5.9-9.446,1.038.6Z" transform="translate(-2445.769 -3471)" fill="#fff"/>
      <path id="Trazado_609628" data-name="Trazado 609628" d="M8.754,10.007,9.41,3.914H15.9V5.657H11.087l-.332,2.889a3.731,3.731,0,0,1,1.893-.481,3.367,3.367,0,0,1,2.685,1.1,4.375,4.375,0,0,1,.959,2.972,4.027,4.027,0,0,1-1.062,2.934,3.878,3.878,0,0,1-2.914,1.092,4.061,4.061,0,0,1-2.752-.942,3.406,3.406,0,0,1-1.183-2.486h1.951a2.13,2.13,0,0,0,.631,1.349,1.919,1.919,0,0,0,1.345.469,1.734,1.734,0,0,0,1.448-.664,2.866,2.866,0,0,0,.519-1.81,2.533,2.533,0,0,0-.573-1.747,2,2,0,0,0-1.577-.643,2.624,2.624,0,0,0-.93.145,2.633,2.633,0,0,0-.83.569ZM22.027,6.238a2.426,2.426,0,0,1,.706-1.8,2.81,2.81,0,0,1,3.715,0,2.486,2.486,0,0,1,.7,1.839v.6a2.409,2.409,0,0,1-.7,1.785,2.505,2.505,0,0,1-1.847.7,2.585,2.585,0,0,1-1.847-.685,2.417,2.417,0,0,1-.726-1.847Zm1.411.636a1.331,1.331,0,0,0,.32.928,1.081,1.081,0,0,0,.843.354,1.059,1.059,0,0,0,.83-.354,1.392,1.392,0,0,0,.315-.961V6.233a1.347,1.347,0,0,0-.32-.932,1.075,1.075,0,0,0-.843-.358,1.045,1.045,0,0,0-.834.362,1.41,1.41,0,0,0-.311.953Zm4.4,6.163a2.376,2.376,0,0,1,.722-1.8,2.814,2.814,0,0,1,3.69,0,2.456,2.456,0,0,1,.718,1.859v.589a2.428,2.428,0,0,1-.693,1.781,2.491,2.491,0,0,1-1.855.7,2.564,2.564,0,0,1-1.872-.693,2.443,2.443,0,0,1-.71-1.83Zm1.411.639a1.324,1.324,0,0,0,.328.926,1.087,1.087,0,0,0,.843.361,1.053,1.053,0,0,0,.834-.344,1.416,1.416,0,0,0,.3-.967v-.623a1.312,1.312,0,0,0-.324-.93,1.167,1.167,0,0,0-1.664,0,1.371,1.371,0,0,0-.32.963ZM25.016,15.1l-1.038-.6,5.9-9.446,1.038.6Z" transform="translate(-2658.001 -3471)" fill="#fff"/>
      <path id="Trazado_609629" data-name="Trazado 609629" d="M52.921,5.607H49.152V16H47.069V5.607H43.333V3.914h9.587ZM58.283,16a3.113,3.113,0,0,1-.232-.838,3.393,3.393,0,0,1-4.565.232,2.47,2.47,0,0,1-.855-1.909,2.55,2.55,0,0,1,1.067-2.2,5.169,5.169,0,0,1,3.051-.768h1.237V9.924a1.573,1.573,0,0,0-.39-1.116,1.547,1.547,0,0,0-1.187-.419,1.777,1.777,0,0,0-1.129.344,1.066,1.066,0,0,0-.44.876H52.821a2.239,2.239,0,0,1,.49-1.382,3.263,3.263,0,0,1,1.332-1.009,4.68,4.68,0,0,1,1.88-.365,3.769,3.769,0,0,1,2.515.793A2.827,2.827,0,0,1,60,9.874v4.051a4.591,4.591,0,0,0,.34,1.934V16Zm-2.216-1.453a2.294,2.294,0,0,0,1.125-.291,1.941,1.941,0,0,0,.793-.78V11.783H56.9a2.973,2.973,0,0,0-1.685.39,1.264,1.264,0,0,0-.564,1.1,1.179,1.179,0,0,0,.386.926A1.5,1.5,0,0,0,56.067,14.547Zm10.75-5.686a4.991,4.991,0,0,0-.822-.066,1.85,1.85,0,0,0-1.868,1.063V16H62.11V7.019h1.926l.05,1a2.273,2.273,0,0,1,2.025-1.17,1.888,1.888,0,0,1,.714.116ZM70.236,16H68.219V7.019h2.017ZM68.095,4.686a1.071,1.071,0,0,1,.295-.772,1.113,1.113,0,0,1,.843-.307,1.127,1.127,0,0,1,.847.307,1.062,1.062,0,0,1,.3.772,1.038,1.038,0,0,1-.3.76,1.136,1.136,0,0,1-.847.3,1.122,1.122,0,0,1-.843-.3A1.046,1.046,0,0,1,68.095,4.686ZM73.142,16V8.513h-1.37V7.019h1.37V6.2a3.085,3.085,0,0,1,.83-2.308A3.18,3.18,0,0,1,76.3,3.076a4.662,4.662,0,0,1,1.129.149L77.375,4.8a3.973,3.973,0,0,0-.772-.066,1.3,1.3,0,0,0-1.444,1.486v.8h1.826V8.513H75.159V16Zm10.683,0a3.113,3.113,0,0,1-.232-.838,3.393,3.393,0,0,1-4.565.232,2.47,2.47,0,0,1-.855-1.909,2.55,2.55,0,0,1,1.067-2.2,5.169,5.169,0,0,1,3.051-.768h1.237V9.924a1.573,1.573,0,0,0-.39-1.116,1.547,1.547,0,0,0-1.187-.419,1.777,1.777,0,0,0-1.129.344,1.066,1.066,0,0,0-.44.876H78.363a2.239,2.239,0,0,1,.49-1.382,3.263,3.263,0,0,1,1.332-1.009,4.68,4.68,0,0,1,1.88-.365,3.769,3.769,0,0,1,2.515.793,2.827,2.827,0,0,1,.963,2.229v4.051a4.591,4.591,0,0,0,.34,1.934V16Zm-2.216-1.453a2.294,2.294,0,0,0,1.125-.291,1.941,1.941,0,0,0,.793-.78V11.783H82.438a2.973,2.973,0,0,0-1.685.39,1.264,1.264,0,0,0-.564,1.1,1.179,1.179,0,0,0,.386.926A1.5,1.5,0,0,0,81.608,14.547Zm19.739-.116a4.016,4.016,0,0,1-1.818,1.295,7.417,7.417,0,0,1-2.64.44,5.2,5.2,0,0,1-2.689-.689A4.589,4.589,0,0,1,92.4,13.506a6.9,6.9,0,0,1-.66-2.992V9.567a6.4,6.4,0,0,1,1.312-4.279,4.549,4.549,0,0,1,3.661-1.54,4.813,4.813,0,0,1,3.2,1,4.31,4.31,0,0,1,1.428,2.876H99.281a2.316,2.316,0,0,0-2.532-2.183A2.482,2.482,0,0,0,94.6,6.457a5.176,5.176,0,0,0-.76,2.981v.929a4.915,4.915,0,0,0,.826,3.039,2.724,2.724,0,0,0,2.3,1.082,3.026,3.026,0,0,0,2.291-.73V11.393h-2.49V9.8h4.582Zm6.068,1.735a4.173,4.173,0,0,1-3.109-1.208,4.381,4.381,0,0,1-1.191-3.217v-.249a5.389,5.389,0,0,1,.519-2.4,3.949,3.949,0,0,1,1.457-1.648,3.851,3.851,0,0,1,2.092-.589,3.525,3.525,0,0,1,2.835,1.17,4.949,4.949,0,0,1,1,3.312v.813h-5.869a2.7,2.7,0,0,0,.743,1.76,2.23,2.23,0,0,0,1.639.647,2.731,2.731,0,0,0,2.258-1.121l1.087,1.038a3.631,3.631,0,0,1-1.44,1.249A4.509,4.509,0,0,1,107.416,16.166Zm-.241-7.695a1.7,1.7,0,0,0-1.341.581,3.012,3.012,0,0,0-.652,1.619h3.843v-.149a2.452,2.452,0,0,0-.54-1.531A1.686,1.686,0,0,0,107.175,8.471Zm7.28-1.453.058,1.038a3.229,3.229,0,0,1,2.615-1.2q2.806,0,2.855,3.212V16h-2.017V10.181a1.85,1.85,0,0,0-.369-1.266,1.554,1.554,0,0,0-1.208-.411,1.944,1.944,0,0,0-1.818,1.1V16h-2.017V7.019Zm11.538,9.147a4.173,4.173,0,0,1-3.109-1.208,4.381,4.381,0,0,1-1.191-3.217v-.249a5.389,5.389,0,0,1,.519-2.4,3.949,3.949,0,0,1,1.457-1.648,3.851,3.851,0,0,1,2.092-.589,3.525,3.525,0,0,1,2.835,1.17,4.949,4.949,0,0,1,1,3.312v.813h-5.869a2.7,2.7,0,0,0,.743,1.76,2.23,2.23,0,0,0,1.639.647,2.731,2.731,0,0,0,2.258-1.121l1.087,1.038a3.631,3.631,0,0,1-1.44,1.249A4.509,4.509,0,0,1,125.993,16.166Zm-.241-7.695a1.7,1.7,0,0,0-1.341.581,3.012,3.012,0,0,0-.652,1.619H127.6v-.149a2.452,2.452,0,0,0-.54-1.531A1.686,1.686,0,0,0,125.752,8.471Zm10.11.39a4.991,4.991,0,0,0-.822-.066,1.85,1.85,0,0,0-1.868,1.063V16h-2.017V7.019h1.926l.05,1a2.273,2.273,0,0,1,2.025-1.17,1.888,1.888,0,0,1,.714.116ZM142.254,16a3.113,3.113,0,0,1-.232-.838,3.393,3.393,0,0,1-4.565.232,2.47,2.47,0,0,1-.855-1.909,2.55,2.55,0,0,1,1.067-2.2,5.169,5.169,0,0,1,3.051-.768h1.237V9.924a1.573,1.573,0,0,0-.39-1.116,1.547,1.547,0,0,0-1.187-.419,1.777,1.777,0,0,0-1.129.344,1.066,1.066,0,0,0-.44.876h-2.017a2.239,2.239,0,0,1,.49-1.382,3.263,3.263,0,0,1,1.332-1.009,4.68,4.68,0,0,1,1.88-.365,3.769,3.769,0,0,1,2.515.793,2.827,2.827,0,0,1,.963,2.229v4.051a4.591,4.591,0,0,0,.34,1.934V16Zm-2.216-1.453a2.294,2.294,0,0,0,1.125-.291,1.941,1.941,0,0,0,.793-.78V11.783h-1.087a2.973,2.973,0,0,0-1.685.39,1.264,1.264,0,0,0-.564,1.1A1.179,1.179,0,0,0,139,14.2,1.5,1.5,0,0,0,140.038,14.547ZM148.23,16h-2.017V3.25h2.017Zm11.8,0a3.113,3.113,0,0,1-.232-.838,3.393,3.393,0,0,1-4.565.232,2.47,2.47,0,0,1-.855-1.909,2.55,2.55,0,0,1,1.067-2.2,5.169,5.169,0,0,1,3.051-.768h1.237V9.924a1.573,1.573,0,0,0-.39-1.116,1.547,1.547,0,0,0-1.187-.419,1.777,1.777,0,0,0-1.129.344,1.066,1.066,0,0,0-.44.876h-2.017a2.239,2.239,0,0,1,.49-1.382,3.263,3.263,0,0,1,1.332-1.009,4.68,4.68,0,0,1,1.88-.365,3.769,3.769,0,0,1,2.515.793,2.827,2.827,0,0,1,.963,2.229v4.051a4.591,4.591,0,0,0,.34,1.934V16Zm-2.216-1.453a2.294,2.294,0,0,0,1.125-.291,1.941,1.941,0,0,0,.793-.78V11.783H158.64a2.973,2.973,0,0,0-1.685.39,1.264,1.264,0,0,0-.564,1.1,1.179,1.179,0,0,0,.386.926A1.5,1.5,0,0,0,157.81,14.547Zm10.75-5.686a4.991,4.991,0,0,0-.822-.066,1.85,1.85,0,0,0-1.868,1.063V16h-2.017V7.019h1.926l.05,1a2.273,2.273,0,0,1,2.025-1.17,1.888,1.888,0,0,1,.714.116Zm4.217-4.026V7.019h1.585V8.513h-1.585v5.014a1.1,1.1,0,0,0,.2.743.943.943,0,0,0,.726.228,3.107,3.107,0,0,0,.706-.083v1.561a4.968,4.968,0,0,1-1.328.191q-2.324,0-2.324-2.565V8.513h-1.478V7.019h1.478V4.835Zm4.383,9.04a1.152,1.152,0,0,1,.872.32,1.11,1.11,0,0,1,.307.8,1.071,1.071,0,0,1-.307.784,1.36,1.36,0,0,1-1.727,0,1.053,1.053,0,0,1-.315-.789,1.11,1.11,0,0,1,.307-.8A1.141,1.141,0,0,1,177.159,13.875Zm14.418-2.183h1.5v1.619h-1.5V16H189.56V13.311h-5.221l-.058-1.229,5.213-8.168h2.083Zm-5.18,0h3.163V6.645l-.149.266Zm14.294-7.836V5.524h-.249a4,4,0,0,0-2.706.93,3.89,3.89,0,0,0-1.2,2.565A3.275,3.275,0,0,1,199.015,8a3.094,3.094,0,0,1,2.528,1.129,4.446,4.446,0,0,1,.926,2.914,4.157,4.157,0,0,1-1.083,2.984,3.739,3.739,0,0,1-2.843,1.141,3.652,3.652,0,0,1-2.934-1.336,5.257,5.257,0,0,1-1.125-3.5v-.689a7.4,7.4,0,0,1,1.548-4.98,5.551,5.551,0,0,1,4.453-1.8Zm-2.167,5.769a2.124,2.124,0,0,0-1.216.374,2.183,2.183,0,0,0-.809,1v.614a3.618,3.618,0,0,0,.564,2.137,1.721,1.721,0,0,0,1.461.793,1.7,1.7,0,0,0,1.419-.672,2.8,2.8,0,0,0,.523-1.768,2.84,2.84,0,0,0-.531-1.785A1.693,1.693,0,0,0,198.525,9.625ZM211.69,7.1a2.81,2.81,0,0,1-.457,1.581,3.167,3.167,0,0,1-1.245,1.092,3.449,3.449,0,0,1,1.457,1.2,3.036,3.036,0,0,1,.51,1.727,3.171,3.171,0,0,1-1.079,2.528,4.894,4.894,0,0,1-5.757,0,3.168,3.168,0,0,1-1.083-2.523,3.072,3.072,0,0,1,.515-1.743A3.306,3.306,0,0,1,206,9.774a3.149,3.149,0,0,1-1.233-1.092,2.828,2.828,0,0,1-.452-1.581,3.144,3.144,0,0,1,1-2.449,4.462,4.462,0,0,1,5.387,0A3.144,3.144,0,0,1,211.69,7.1Zm-1.751,5.5a1.992,1.992,0,0,0-.535-1.448,1.882,1.882,0,0,0-1.415-.552,1.862,1.862,0,0,0-1.407.548,2.007,2.007,0,0,0-.527,1.453,1.944,1.944,0,0,0,.519,1.419,2.211,2.211,0,0,0,2.855.017A1.95,1.95,0,0,0,209.938,12.6Zm-.257-5.429a1.876,1.876,0,0,0-.457-1.3,1.754,1.754,0,0,0-2.449-.025,1.876,1.876,0,0,0-.448,1.324,1.869,1.869,0,0,0,.452,1.32,1.775,1.775,0,0,0,2.449,0A1.869,1.869,0,0,0,209.681,7.176Zm8.043,4.267a5.34,5.34,0,0,1,.963-3.333,3.085,3.085,0,0,1,2.582-1.258,2.931,2.931,0,0,1,2.308,1V3.25h2.017V16h-1.826l-.1-.93a2.973,2.973,0,0,1-2.416,1.1A3.068,3.068,0,0,1,218.7,14.9,5.535,5.535,0,0,1,217.725,11.443Zm2.017.174a3.739,3.739,0,0,0,.527,2.137,1.71,1.71,0,0,0,1.5.768,1.9,1.9,0,0,0,1.81-1.1V9.583A1.876,1.876,0,0,0,221.784,8.5a1.723,1.723,0,0,0-1.511.776A4.163,4.163,0,0,0,219.742,11.617Zm11.912,4.549a4.173,4.173,0,0,1-3.109-1.208,4.381,4.381,0,0,1-1.191-3.217v-.249a5.389,5.389,0,0,1,.519-2.4,3.949,3.949,0,0,1,1.457-1.648,3.851,3.851,0,0,1,2.092-.589,3.525,3.525,0,0,1,2.835,1.17,4.949,4.949,0,0,1,1,3.312v.813h-5.869a2.7,2.7,0,0,0,.743,1.76,2.23,2.23,0,0,0,1.639.647,2.731,2.731,0,0,0,2.258-1.121l1.087,1.038a3.631,3.631,0,0,1-1.44,1.249A4.509,4.509,0,0,1,231.653,16.166Zm-.241-7.695a1.7,1.7,0,0,0-1.341.581,3.012,3.012,0,0,0-.652,1.619h3.843v-.149a2.452,2.452,0,0,0-.54-1.531A1.686,1.686,0,0,0,231.413,8.471ZM238.966,16h-2.017V3.25h2.017Zm13.688-5.4H247.69v3.719h5.8V16h-7.9V3.914h7.844V5.607H247.69V8.944h4.964Zm3.611,3.271a1.152,1.152,0,0,1,.872.32,1.11,1.11,0,0,1,.307.8,1.071,1.071,0,0,1-.307.784,1.36,1.36,0,0,1-1.727,0,1.053,1.053,0,0,1-.315-.789,1.11,1.11,0,0,1,.307-.8A1.141,1.141,0,0,1,256.265,13.875Zm12.418-8.268h-3.769V16h-2.083V5.607H259.1V3.914h9.587Z" transform="translate(-2687.501 -3655)" fill="#12263f"/>
      <path id="Trazado_609630" data-name="Trazado 609630" d="M29.691,11.518V16h-2.1V3.914h4.624a4.675,4.675,0,0,1,3.217,1.055,3.549,3.549,0,0,1,1.191,2.792,3.431,3.431,0,0,1-1.166,2.767,4.9,4.9,0,0,1-3.266.989Zm0-1.693h2.523a2.485,2.485,0,0,0,1.71-.527,1.937,1.937,0,0,0,.589-1.523,2.09,2.09,0,0,0-.6-1.565,2.3,2.3,0,0,0-1.644-.6H29.691Zm13.273-.963a4.991,4.991,0,0,0-.822-.066,1.85,1.85,0,0,0-1.868,1.063V16H38.257V7.019h1.926l.05,1a2.273,2.273,0,0,1,2.025-1.17,1.888,1.888,0,0,1,.714.116Zm.6,2.565a5.3,5.3,0,0,1,.523-2.378,3.819,3.819,0,0,1,1.469-1.627,4.14,4.14,0,0,1,2.175-.569,3.923,3.923,0,0,1,2.951,1.17,4.6,4.6,0,0,1,1.224,3.1l.008.473a5.343,5.343,0,0,1-.51,2.374,3.773,3.773,0,0,1-1.461,1.619,4.17,4.17,0,0,1-2.2.573A3.9,3.9,0,0,1,44.7,14.9a4.848,4.848,0,0,1-1.141-3.374Zm2.017.174a3.619,3.619,0,0,0,.573,2.171,1.862,1.862,0,0,0,1.594.784,1.842,1.842,0,0,0,1.59-.8,4,4,0,0,0,.569-2.333,3.572,3.572,0,0,0-.585-2.158,1.973,1.973,0,0,0-3.158-.012A3.922,3.922,0,0,0,45.578,11.6Zm7.662-.158A5.34,5.34,0,0,1,54.2,8.11a3.085,3.085,0,0,1,2.582-1.258,2.931,2.931,0,0,1,2.308,1V3.25h2.017V16H59.283l-.1-.93a2.973,2.973,0,0,1-2.416,1.1,3.068,3.068,0,0,1-2.552-1.27A5.535,5.535,0,0,1,53.24,11.443Zm2.017.174a3.739,3.739,0,0,0,.527,2.137,1.71,1.71,0,0,0,1.5.768,1.9,1.9,0,0,0,1.81-1.1V9.583A1.876,1.876,0,0,0,57.3,8.5a1.723,1.723,0,0,0-1.511.776A4.163,4.163,0,0,0,55.257,11.617Zm13.4,3.5a3.128,3.128,0,0,1-2.523,1.046,2.788,2.788,0,0,1-2.212-.855,3.637,3.637,0,0,1-.751-2.474V7.019h2.017v5.794q0,1.71,1.419,1.71a1.993,1.993,0,0,0,1.984-1.054V7.019h2.017V16H68.7Zm7.695-.564a1.824,1.824,0,0,0,1.253-.44,1.5,1.5,0,0,0,.531-1.087h1.9a2.963,2.963,0,0,1-.523,1.565,3.43,3.43,0,0,1-1.328,1.15,3.958,3.958,0,0,1-1.81.423,3.829,3.829,0,0,1-2.988-1.22,4.84,4.84,0,0,1-1.1-3.37v-.208a4.759,4.759,0,0,1,1.1-3.283,3.8,3.8,0,0,1,2.988-1.233,3.69,3.69,0,0,1,2.611.934,3.345,3.345,0,0,1,1.058,2.453h-1.9a1.847,1.847,0,0,0-.527-1.27,1.7,1.7,0,0,0-1.258-.5,1.775,1.775,0,0,0-1.511.71,3.621,3.621,0,0,0-.54,2.154v.324a3.681,3.681,0,0,0,.527,2.179A1.773,1.773,0,0,0,76.349,14.556Zm7.736-9.72V7.019h1.585V8.513H84.086v5.014a1.1,1.1,0,0,0,.2.743.943.943,0,0,0,.726.228,3.107,3.107,0,0,0,.706-.083v1.561a4.968,4.968,0,0,1-1.328.191q-2.324,0-2.324-2.565V8.513H80.591V7.019h1.478V4.835Zm2.5,6.591a5.3,5.3,0,0,1,.523-2.378,3.819,3.819,0,0,1,1.469-1.627,4.14,4.14,0,0,1,2.175-.569A3.923,3.923,0,0,1,93.7,8.023a4.6,4.6,0,0,1,1.224,3.1l.008.473a5.343,5.343,0,0,1-.51,2.374,3.773,3.773,0,0,1-1.461,1.619,4.17,4.17,0,0,1-2.2.573A3.9,3.9,0,0,1,87.726,14.9a4.848,4.848,0,0,1-1.141-3.374ZM88.6,11.6a3.619,3.619,0,0,0,.573,2.171,1.862,1.862,0,0,0,1.594.784,1.842,1.842,0,0,0,1.59-.8,4,4,0,0,0,.569-2.333,3.572,3.572,0,0,0-.585-2.158,1.973,1.973,0,0,0-3.158-.012A3.922,3.922,0,0,0,88.6,11.6Zm13.074,1.959a.914.914,0,0,0-.444-.822,4.723,4.723,0,0,0-1.473-.5,7.574,7.574,0,0,1-1.718-.548,2.293,2.293,0,0,1-1.511-2.117,2.391,2.391,0,0,1,.979-1.942,3.872,3.872,0,0,1,2.49-.78,4.029,4.029,0,0,1,2.6.8,2.529,2.529,0,0,1,.992,2.067h-2.017a1.243,1.243,0,0,0-.432-.967A1.654,1.654,0,0,0,100,8.363a1.787,1.787,0,0,0-1.083.307.968.968,0,0,0-.419.822.818.818,0,0,0,.39.722,5.365,5.365,0,0,0,1.577.519,7.466,7.466,0,0,1,1.864.623,2.639,2.639,0,0,1,1,.867,2.212,2.212,0,0,1,.328,1.229,2.34,2.34,0,0,1-1,1.963,4.283,4.283,0,0,1-2.631.751,4.644,4.644,0,0,1-1.967-.4,3.238,3.238,0,0,1-1.345-1.1,2.594,2.594,0,0,1-.481-1.5h1.959a1.421,1.421,0,0,0,.54,1.1,2.1,2.1,0,0,0,1.32.386,2.04,2.04,0,0,0,1.212-.3A.938.938,0,0,0,101.675,13.56Zm11.115-.448,1.826-6.093h2.15L113.2,17.361a2.9,2.9,0,0,1-2.789,2.266,3.6,3.6,0,0,1-.971-.15V17.909l.382.025a1.964,1.964,0,0,0,1.15-.278,1.842,1.842,0,0,0,.61-.933l.291-.771-3.154-8.933h2.175ZM9,38.56a.914.914,0,0,0-.444-.822,4.723,4.723,0,0,0-1.473-.5,7.574,7.574,0,0,1-1.718-.548,2.293,2.293,0,0,1-1.511-2.117,2.391,2.391,0,0,1,.979-1.942,3.872,3.872,0,0,1,2.49-.78,4.029,4.029,0,0,1,2.6.8,2.529,2.529,0,0,1,.992,2.067H8.9a1.243,1.243,0,0,0-.432-.967,1.654,1.654,0,0,0-1.146-.386,1.787,1.787,0,0,0-1.083.307.968.968,0,0,0-.419.822.818.818,0,0,0,.39.722,5.365,5.365,0,0,0,1.577.519,7.466,7.466,0,0,1,1.864.623,2.639,2.639,0,0,1,1,.867,2.212,2.212,0,0,1,.328,1.229,2.34,2.34,0,0,1-1,1.963,4.283,4.283,0,0,1-2.631.751,4.644,4.644,0,0,1-1.967-.4,3.238,3.238,0,0,1-1.345-1.1,2.594,2.594,0,0,1-.481-1.5H5.515a1.421,1.421,0,0,0,.54,1.1,2.1,2.1,0,0,0,1.32.386,2.04,2.04,0,0,0,1.212-.3A.938.938,0,0,0,9,38.56ZM16.7,41.166a4.173,4.173,0,0,1-3.109-1.208A4.381,4.381,0,0,1,12.4,36.742v-.249a5.389,5.389,0,0,1,.519-2.4,3.949,3.949,0,0,1,1.457-1.648,3.851,3.851,0,0,1,2.092-.589,3.525,3.525,0,0,1,2.835,1.17,4.949,4.949,0,0,1,1,3.312v.813H14.43a2.7,2.7,0,0,0,.743,1.76,2.23,2.23,0,0,0,1.639.647,2.731,2.731,0,0,0,2.258-1.121l1.087,1.038a3.631,3.631,0,0,1-1.44,1.249A4.509,4.509,0,0,1,16.7,41.166Zm-.241-7.695a1.7,1.7,0,0,0-1.341.581,3.012,3.012,0,0,0-.652,1.619h3.843v-.149a2.452,2.452,0,0,0-.54-1.531A1.686,1.686,0,0,0,16.455,33.471Zm10.11.39a4.992,4.992,0,0,0-.822-.066,1.85,1.85,0,0,0-1.868,1.063V41H21.859V32.019h1.926l.05,1a2.273,2.273,0,0,1,2.025-1.17,1.888,1.888,0,0,1,.714.116Zm4.59,4.582,1.9-6.425H35.14L32.027,41H30.276l-3.138-8.981H29.23ZM38.544,41H36.526V32.019h2.017ZM36.4,29.686a1.07,1.07,0,0,1,.295-.772,1.113,1.113,0,0,1,.843-.307,1.127,1.127,0,0,1,.847.307,1.062,1.062,0,0,1,.3.772,1.038,1.038,0,0,1-.3.76,1.136,1.136,0,0,1-.847.3,1.122,1.122,0,0,1-.843-.3A1.046,1.046,0,0,1,36.4,29.686Zm8.027,9.87a1.824,1.824,0,0,0,1.253-.44,1.5,1.5,0,0,0,.531-1.087h1.9a2.963,2.963,0,0,1-.523,1.565,3.43,3.43,0,0,1-1.328,1.15,3.958,3.958,0,0,1-1.81.423,3.829,3.829,0,0,1-2.988-1.22,4.84,4.84,0,0,1-1.1-3.37v-.208a4.759,4.759,0,0,1,1.1-3.283,3.8,3.8,0,0,1,2.988-1.233,3.69,3.69,0,0,1,2.611.934,3.345,3.345,0,0,1,1.058,2.453h-1.9a1.847,1.847,0,0,0-.527-1.27,1.7,1.7,0,0,0-1.258-.5,1.775,1.775,0,0,0-1.511.71,3.621,3.621,0,0,0-.54,2.154v.324a3.682,3.682,0,0,0,.527,2.179A1.773,1.773,0,0,0,44.429,39.556ZM51.783,41H49.766V32.019h2.017ZM49.642,29.686a1.07,1.07,0,0,1,.295-.772,1.113,1.113,0,0,1,.843-.307,1.127,1.127,0,0,1,.847.307,1.062,1.062,0,0,1,.3.772,1.038,1.038,0,0,1-.3.76,1.136,1.136,0,0,1-.847.3,1.122,1.122,0,0,1-.843-.3A1.046,1.046,0,0,1,49.642,29.686Zm3.959,6.74a5.3,5.3,0,0,1,.523-2.378,3.819,3.819,0,0,1,1.469-1.627,4.14,4.14,0,0,1,2.175-.569,3.923,3.923,0,0,1,2.951,1.17,4.6,4.6,0,0,1,1.224,3.1l.008.473a5.343,5.343,0,0,1-.51,2.374,3.773,3.773,0,0,1-1.461,1.619,4.17,4.17,0,0,1-2.2.573A3.9,3.9,0,0,1,54.743,39.9,4.848,4.848,0,0,1,53.6,36.526Zm2.017.174a3.619,3.619,0,0,0,.573,2.171,1.862,1.862,0,0,0,1.594.784,1.842,1.842,0,0,0,1.59-.8,4,4,0,0,0,.569-2.333,3.572,3.572,0,0,0-.585-2.158,1.973,1.973,0,0,0-3.158-.012A3.922,3.922,0,0,0,55.618,36.6ZM68.692,38.56a.914.914,0,0,0-.444-.822,4.723,4.723,0,0,0-1.473-.5,7.574,7.574,0,0,1-1.718-.548,2.293,2.293,0,0,1-1.511-2.117,2.391,2.391,0,0,1,.979-1.942,3.872,3.872,0,0,1,2.49-.78,4.029,4.029,0,0,1,2.6.8,2.529,2.529,0,0,1,.992,2.067H68.592a1.243,1.243,0,0,0-.432-.967,1.654,1.654,0,0,0-1.146-.386,1.787,1.787,0,0,0-1.083.307.968.968,0,0,0-.419.822.818.818,0,0,0,.39.722,5.365,5.365,0,0,0,1.577.519,7.466,7.466,0,0,1,1.864.623,2.639,2.639,0,0,1,1,.867,2.212,2.212,0,0,1,.328,1.229,2.34,2.34,0,0,1-1,1.963,4.283,4.283,0,0,1-2.631.751,4.644,4.644,0,0,1-1.967-.4,3.238,3.238,0,0,1-1.345-1.1,2.594,2.594,0,0,1-.481-1.5h1.959a1.421,1.421,0,0,0,.54,1.1,2.1,2.1,0,0,0,1.32.386,2.04,2.04,0,0,0,1.212-.3A.938.938,0,0,0,68.692,38.56ZM80.62,41.166a4.173,4.173,0,0,1-3.109-1.208,4.381,4.381,0,0,1-1.191-3.217v-.249a5.389,5.389,0,0,1,.519-2.4A3.949,3.949,0,0,1,78.3,32.442a3.851,3.851,0,0,1,2.092-.589,3.525,3.525,0,0,1,2.835,1.17,4.949,4.949,0,0,1,1,3.312v.813H78.354a2.7,2.7,0,0,0,.743,1.76,2.23,2.23,0,0,0,1.639.647,2.731,2.731,0,0,0,2.258-1.121l1.087,1.038a3.631,3.631,0,0,1-1.44,1.249A4.509,4.509,0,0,1,80.62,41.166Zm-.241-7.695a1.7,1.7,0,0,0-1.341.581,3.012,3.012,0,0,0-.652,1.619h3.843v-.149a2.452,2.452,0,0,0-.54-1.531A1.686,1.686,0,0,0,80.38,33.471Zm8.633,1.5,1.71-2.955h2.241l-2.748,4.424L93.055,41H90.83l-1.793-3.071L87.253,41H85.011l2.839-4.557-2.739-4.424h2.225Zm9.114,6.192a4.173,4.173,0,0,1-3.109-1.208,4.381,4.381,0,0,1-1.191-3.217v-.249a5.389,5.389,0,0,1,.519-2.4A3.949,3.949,0,0,1,95.8,32.442a3.851,3.851,0,0,1,2.092-.589,3.525,3.525,0,0,1,2.835,1.17,4.949,4.949,0,0,1,1,3.312v.813H95.86a2.7,2.7,0,0,0,.743,1.76,2.23,2.23,0,0,0,1.639.647,2.731,2.731,0,0,0,2.258-1.121l1.087,1.038a3.631,3.631,0,0,1-1.44,1.249A4.509,4.509,0,0,1,98.127,41.166Zm-.241-7.695a1.7,1.7,0,0,0-1.341.581,3.012,3.012,0,0,0-.652,1.619h3.843v-.149a2.452,2.452,0,0,0-.54-1.531A1.686,1.686,0,0,0,97.886,33.471Zm7.28-1.453.058,1.038a3.229,3.229,0,0,1,2.615-1.2q2.806,0,2.855,3.212V41h-2.017V35.181a1.85,1.85,0,0,0-.369-1.266A1.554,1.554,0,0,0,107.1,33.5a1.944,1.944,0,0,0-1.818,1.1V41h-2.017V32.019Zm10.11-2.183v2.183h1.585v1.494h-1.585v5.014a1.1,1.1,0,0,0,.2.743.943.943,0,0,0,.726.228,3.107,3.107,0,0,0,.706-.083v1.561a4.968,4.968,0,0,1-1.328.191q-2.324,0-2.324-2.565V33.513h-1.478V32.019h1.478V29.835Zm2.5,6.591a5.3,5.3,0,0,1,.523-2.378,3.819,3.819,0,0,1,1.469-1.627,4.14,4.14,0,0,1,2.175-.569,3.923,3.923,0,0,1,2.951,1.17,4.6,4.6,0,0,1,1.224,3.1l.008.473a5.343,5.343,0,0,1-.51,2.374,3.773,3.773,0,0,1-1.461,1.619,4.17,4.17,0,0,1-2.2.573,3.9,3.9,0,0,1-3.042-1.266,4.848,4.848,0,0,1-1.141-3.374Zm2.017.174a3.619,3.619,0,0,0,.573,2.171,1.862,1.862,0,0,0,1.594.784,1.842,1.842,0,0,0,1.59-.8,4,4,0,0,0,.569-2.333,3.572,3.572,0,0,0-.585-2.158,1.973,1.973,0,0,0-3.158-.012A3.922,3.922,0,0,0,119.792,36.6Zm13.074,1.959a.914.914,0,0,0-.444-.822,4.723,4.723,0,0,0-1.473-.5,7.574,7.574,0,0,1-1.718-.548,2.293,2.293,0,0,1-1.511-2.117,2.391,2.391,0,0,1,.979-1.942,3.872,3.872,0,0,1,2.49-.78,4.029,4.029,0,0,1,2.6.8,2.529,2.529,0,0,1,.992,2.067h-2.017a1.243,1.243,0,0,0-.432-.967,1.654,1.654,0,0,0-1.146-.386,1.787,1.787,0,0,0-1.083.307.968.968,0,0,0-.419.822.818.818,0,0,0,.39.722,5.365,5.365,0,0,0,1.577.519,7.466,7.466,0,0,1,1.864.623,2.639,2.639,0,0,1,1,.867,2.212,2.212,0,0,1,.328,1.229,2.34,2.34,0,0,1-1,1.963,4.283,4.283,0,0,1-2.631.751,4.644,4.644,0,0,1-1.967-.4,3.238,3.238,0,0,1-1.345-1.1,2.594,2.594,0,0,1-.481-1.5h1.959a1.421,1.421,0,0,0,.54,1.1,2.1,2.1,0,0,0,1.32.386,2.04,2.04,0,0,0,1.212-.3A.938.938,0,0,0,132.865,38.56Zm5,.315a1.152,1.152,0,0,1,.872.32,1.11,1.11,0,0,1,.307.8,1.071,1.071,0,0,1-.307.784,1.36,1.36,0,0,1-1.727,0,1.053,1.053,0,0,1-.315-.789,1.11,1.11,0,0,1,.307-.8A1.141,1.141,0,0,1,137.862,38.875ZM35.572,63.186H30.89L29.911,66H27.728l4.565-12.086h1.884L38.751,66H36.56ZM31.48,61.493h3.5l-1.751-5.014Zm13.148-2.631a4.992,4.992,0,0,0-.822-.066,1.85,1.85,0,0,0-1.868,1.063V66H39.922V57.019h1.926l.05,1a2.273,2.273,0,0,1,2.025-1.17,1.888,1.888,0,0,1,.714.116Zm4.217-4.026v2.183H50.43v1.494H48.845v5.014a1.1,1.1,0,0,0,.2.743.943.943,0,0,0,.726.228,3.107,3.107,0,0,0,.706-.083v1.561a4.968,4.968,0,0,1-1.328.191q-2.324,0-2.324-2.565V58.513H45.35V57.019h1.478V54.835ZM62.9,61.692h1.5v1.619H62.9V66H60.881V63.311H55.66L55.6,62.082l5.213-8.168H62.9Zm-5.18,0h3.163V56.645l-.149.266ZM73.78,55.035,68.949,66H66.833l4.823-10.467H65.4V53.914H73.78Zm9.662,0L78.611,66H76.495l4.823-10.467h-6.25V53.914h8.375Zm13.24,5.57H91.718v3.719h5.8V66h-7.9V53.914h7.844v1.693H91.718v3.337h4.964Zm3.611,3.271a1.152,1.152,0,0,1,.872.32,1.11,1.11,0,0,1,.307.8,1.071,1.071,0,0,1-.307.784,1.36,1.36,0,0,1-1.727,0A1.053,1.053,0,0,1,99.123,65a1.11,1.11,0,0,1,.307-.8A1.141,1.141,0,0,1,100.293,63.875Zm12.418-8.268h-3.769V66h-2.083V55.607h-3.735V53.914h9.587Zm.506,8.268a1.152,1.152,0,0,1,.872.32,1.11,1.11,0,0,1,.307.8,1.071,1.071,0,0,1-.307.784,1.36,1.36,0,0,1-1.727,0,1.053,1.053,0,0,1-.315-.789,1.11,1.11,0,0,1,.307-.8A1.141,1.141,0,0,1,113.217,63.875Z" transform="translate(-2502 -3440)" fill="#12263f"/>
      <path id="Trazado_609631" data-name="Trazado 609631" d="M22.329,5.607H18.561V16H16.477V5.607H12.742V3.914h9.587ZM27.691,16a3.113,3.113,0,0,1-.232-.838,3.393,3.393,0,0,1-4.565.232,2.47,2.47,0,0,1-.855-1.909,2.55,2.55,0,0,1,1.067-2.2,5.169,5.169,0,0,1,3.051-.768h1.237V9.924A1.573,1.573,0,0,0,27,8.807a1.547,1.547,0,0,0-1.187-.419,1.777,1.777,0,0,0-1.129.344,1.066,1.066,0,0,0-.44.876H22.229a2.239,2.239,0,0,1,.49-1.382,3.263,3.263,0,0,1,1.332-1.009,4.68,4.68,0,0,1,1.88-.365,3.769,3.769,0,0,1,2.515.793,2.827,2.827,0,0,1,.963,2.229v4.051a4.591,4.591,0,0,0,.34,1.934V16Zm-2.216-1.453a2.294,2.294,0,0,0,1.125-.291,1.941,1.941,0,0,0,.793-.78V11.783H26.305a2.973,2.973,0,0,0-1.685.39,1.264,1.264,0,0,0-.564,1.1,1.179,1.179,0,0,0,.386.926A1.5,1.5,0,0,0,25.475,14.547Zm10.75-5.686a4.991,4.991,0,0,0-.822-.066,1.85,1.85,0,0,0-1.868,1.063V16H31.518V7.019h1.926l.05,1a2.273,2.273,0,0,1,2.025-1.17,1.888,1.888,0,0,1,.714.116ZM39.645,16H37.627V7.019h2.017ZM37.5,4.686a1.071,1.071,0,0,1,.295-.772,1.113,1.113,0,0,1,.843-.307,1.127,1.127,0,0,1,.847.307,1.062,1.062,0,0,1,.3.772,1.038,1.038,0,0,1-.3.76,1.136,1.136,0,0,1-.847.3,1.122,1.122,0,0,1-.843-.3A1.046,1.046,0,0,1,37.5,4.686ZM42.55,16V8.513H41.18V7.019h1.37V6.2a3.085,3.085,0,0,1,.83-2.308A3.18,3.18,0,0,1,45.7,3.076a4.662,4.662,0,0,1,1.129.149L46.783,4.8a3.973,3.973,0,0,0-.772-.066,1.3,1.3,0,0,0-1.444,1.486v.8h1.826V8.513H44.567V16Zm10.683,0A3.113,3.113,0,0,1,53,15.162a3.393,3.393,0,0,1-4.565.232,2.47,2.47,0,0,1-.855-1.909,2.55,2.55,0,0,1,1.067-2.2,5.169,5.169,0,0,1,3.051-.768h1.237V9.924a1.573,1.573,0,0,0-.39-1.116,1.547,1.547,0,0,0-1.187-.419,1.777,1.777,0,0,0-1.129.344,1.066,1.066,0,0,0-.44.876H47.771a2.239,2.239,0,0,1,.49-1.382,3.263,3.263,0,0,1,1.332-1.009,4.68,4.68,0,0,1,1.88-.365,3.769,3.769,0,0,1,2.515.793,2.827,2.827,0,0,1,.963,2.229v4.051a4.591,4.591,0,0,0,.34,1.934V16Zm-2.216-1.453a2.294,2.294,0,0,0,1.125-.291,1.941,1.941,0,0,0,.793-.78V11.783H51.847a2.973,2.973,0,0,0-1.685.39,1.264,1.264,0,0,0-.564,1.1,1.179,1.179,0,0,0,.386.926A1.5,1.5,0,0,0,51.017,14.547Zm14.236,1.619a4.173,4.173,0,0,1-3.109-1.208,4.381,4.381,0,0,1-1.191-3.217v-.249a5.389,5.389,0,0,1,.519-2.4,3.949,3.949,0,0,1,1.457-1.648,3.851,3.851,0,0,1,2.092-.589,3.525,3.525,0,0,1,2.835,1.17,4.949,4.949,0,0,1,1,3.312v.813H62.986a2.7,2.7,0,0,0,.743,1.76,2.23,2.23,0,0,0,1.639.647,2.731,2.731,0,0,0,2.258-1.121l1.087,1.038a3.631,3.631,0,0,1-1.44,1.249A4.509,4.509,0,0,1,65.252,16.166Zm-.241-7.695a1.7,1.7,0,0,0-1.341.581,3.012,3.012,0,0,0-.652,1.619h3.843v-.149a2.452,2.452,0,0,0-.54-1.531A1.686,1.686,0,0,0,65.012,8.471ZM75.454,13.56a.914.914,0,0,0-.444-.822,4.723,4.723,0,0,0-1.473-.5,7.574,7.574,0,0,1-1.718-.548,2.293,2.293,0,0,1-1.511-2.117,2.391,2.391,0,0,1,.979-1.942,3.872,3.872,0,0,1,2.49-.78,4.029,4.029,0,0,1,2.6.8,2.529,2.529,0,0,1,.992,2.067H75.354a1.243,1.243,0,0,0-.432-.967,1.654,1.654,0,0,0-1.146-.386,1.787,1.787,0,0,0-1.083.307.968.968,0,0,0-.419.822.818.818,0,0,0,.39.722,5.365,5.365,0,0,0,1.577.519,7.466,7.466,0,0,1,1.864.623,2.639,2.639,0,0,1,1,.867,2.212,2.212,0,0,1,.328,1.229,2.34,2.34,0,0,1-1,1.963,4.283,4.283,0,0,1-2.631.751,4.644,4.644,0,0,1-1.967-.4,3.238,3.238,0,0,1-1.345-1.1,2.594,2.594,0,0,1-.481-1.5h1.959a1.421,1.421,0,0,0,.54,1.1,2.1,2.1,0,0,0,1.32.386,2.04,2.04,0,0,0,1.212-.3A.938.938,0,0,0,75.454,13.56Zm11.6-1.959a5.348,5.348,0,0,1-.946,3.324,3.287,3.287,0,0,1-4.906.27v4.258H79.189V7.019h1.859l.083.913a2.963,2.963,0,0,1,2.416-1.079,3.062,3.062,0,0,1,2.577,1.224,5.49,5.49,0,0,1,.934,3.4Zm-2.009-.174a3.746,3.746,0,0,0-.535-2.133A1.741,1.741,0,0,0,82.983,8.5a1.856,1.856,0,0,0-1.776,1.021V13.51A1.873,1.873,0,0,0,83,14.556a1.739,1.739,0,0,0,1.507-.776A4.124,4.124,0,0,0,85.05,11.426Zm7.67,4.74a4.173,4.173,0,0,1-3.109-1.208,4.381,4.381,0,0,1-1.191-3.217v-.249a5.389,5.389,0,0,1,.519-2.4A3.949,3.949,0,0,1,90.4,7.442a3.851,3.851,0,0,1,2.092-.589,3.525,3.525,0,0,1,2.835,1.17,4.949,4.949,0,0,1,1,3.312v.813H90.454a2.7,2.7,0,0,0,.743,1.76,2.23,2.23,0,0,0,1.639.647,2.731,2.731,0,0,0,2.258-1.121l1.087,1.038a3.631,3.631,0,0,1-1.44,1.249A4.509,4.509,0,0,1,92.72,16.166Zm-.241-7.695a1.7,1.7,0,0,0-1.341.581,3.012,3.012,0,0,0-.652,1.619H94.33v-.149a2.452,2.452,0,0,0-.54-1.531A1.686,1.686,0,0,0,92.479,8.471Zm9.1,6.084a1.824,1.824,0,0,0,1.253-.44,1.5,1.5,0,0,0,.531-1.087h1.9a2.963,2.963,0,0,1-.523,1.565,3.43,3.43,0,0,1-1.328,1.15,3.958,3.958,0,0,1-1.81.423,3.829,3.829,0,0,1-2.988-1.22,4.84,4.84,0,0,1-1.1-3.37v-.208a4.759,4.759,0,0,1,1.1-3.283,3.8,3.8,0,0,1,2.988-1.233,3.69,3.69,0,0,1,2.611.934,3.345,3.345,0,0,1,1.058,2.453h-1.9a1.847,1.847,0,0,0-.527-1.27,1.7,1.7,0,0,0-1.258-.5,1.775,1.775,0,0,0-1.511.71,3.621,3.621,0,0,0-.54,2.154v.324a3.681,3.681,0,0,0,.527,2.179A1.773,1.773,0,0,0,101.577,14.556ZM108.931,16h-2.017V7.019h2.017ZM106.79,4.686a1.071,1.071,0,0,1,.295-.772,1.113,1.113,0,0,1,.843-.307,1.127,1.127,0,0,1,.847.307,1.062,1.062,0,0,1,.3.772,1.038,1.038,0,0,1-.3.76,1.136,1.136,0,0,1-.847.3,1.122,1.122,0,0,1-.843-.3A1.046,1.046,0,0,1,106.79,4.686ZM116.493,16a3.113,3.113,0,0,1-.232-.838,3.393,3.393,0,0,1-4.565.232,2.47,2.47,0,0,1-.855-1.909,2.55,2.55,0,0,1,1.067-2.2,5.169,5.169,0,0,1,3.051-.768h1.237V9.924a1.573,1.573,0,0,0-.39-1.116,1.547,1.547,0,0,0-1.187-.419,1.777,1.777,0,0,0-1.129.344,1.066,1.066,0,0,0-.44.876h-2.017a2.239,2.239,0,0,1,.49-1.382,3.263,3.263,0,0,1,1.332-1.009,4.68,4.68,0,0,1,1.88-.365,3.769,3.769,0,0,1,2.515.793,2.827,2.827,0,0,1,.963,2.229v4.051a4.591,4.591,0,0,0,.34,1.934V16Zm-2.216-1.453a2.294,2.294,0,0,0,1.125-.291,1.941,1.941,0,0,0,.793-.78V11.783h-1.087a2.973,2.973,0,0,0-1.685.39,1.264,1.264,0,0,0-.564,1.1,1.179,1.179,0,0,0,.386.926A1.5,1.5,0,0,0,114.277,14.547ZM122.47,16h-2.017V3.25h2.017ZM17.706,36.6a5.348,5.348,0,0,1-.946,3.324,3.031,3.031,0,0,1-2.54,1.241,3.051,3.051,0,0,1-2.366-.971v4.258H9.836V32.019H11.7l.083.913a2.963,2.963,0,0,1,2.416-1.079,3.062,3.062,0,0,1,2.577,1.224,5.49,5.49,0,0,1,.934,3.4ZM15.7,36.426a3.746,3.746,0,0,0-.535-2.133A1.741,1.741,0,0,0,13.63,33.5a1.856,1.856,0,0,0-1.776,1.021V38.51a1.873,1.873,0,0,0,1.793,1.046,1.739,1.739,0,0,0,1.507-.776A4.124,4.124,0,0,0,15.7,36.426ZM24.778,41a3.113,3.113,0,0,1-.232-.838,3.393,3.393,0,0,1-4.565.232,2.47,2.47,0,0,1-.855-1.909,2.55,2.55,0,0,1,1.067-2.2,5.169,5.169,0,0,1,3.051-.768h1.237v-.589a1.573,1.573,0,0,0-.39-1.116,1.547,1.547,0,0,0-1.187-.419,1.777,1.777,0,0,0-1.129.344,1.066,1.066,0,0,0-.44.876H19.316a2.239,2.239,0,0,1,.49-1.382,3.263,3.263,0,0,1,1.332-1.009,4.68,4.68,0,0,1,1.88-.365,3.769,3.769,0,0,1,2.515.793,2.827,2.827,0,0,1,.963,2.229v4.051a4.591,4.591,0,0,0,.34,1.934V41Zm-2.216-1.453a2.294,2.294,0,0,0,1.125-.291,1.941,1.941,0,0,0,.793-.78V36.783H23.392a2.973,2.973,0,0,0-1.685.39,1.264,1.264,0,0,0-.564,1.1,1.179,1.179,0,0,0,.386.926A1.5,1.5,0,0,0,22.562,39.547Zm10.75-5.686a4.992,4.992,0,0,0-.822-.066,1.85,1.85,0,0,0-1.868,1.063V41H28.6V32.019H30.53l.05,1a2.273,2.273,0,0,1,2.025-1.17,1.888,1.888,0,0,1,.714.116ZM39.7,41a3.113,3.113,0,0,1-.232-.838,3.393,3.393,0,0,1-4.565.232,2.47,2.47,0,0,1-.855-1.909,2.55,2.55,0,0,1,1.067-2.2,5.169,5.169,0,0,1,3.051-.768H39.4v-.589a1.573,1.573,0,0,0-.39-1.116,1.547,1.547,0,0,0-1.187-.419,1.777,1.777,0,0,0-1.129.344,1.066,1.066,0,0,0-.44.876H34.241a2.239,2.239,0,0,1,.49-1.382,3.263,3.263,0,0,1,1.332-1.009,4.68,4.68,0,0,1,1.88-.365,3.769,3.769,0,0,1,2.515.793,2.827,2.827,0,0,1,.963,2.229v4.051a4.591,4.591,0,0,0,.34,1.934V41Zm-2.216-1.453a2.294,2.294,0,0,0,1.125-.291,1.941,1.941,0,0,0,.793-.78V36.783H38.316a2.973,2.973,0,0,0-1.685.39,1.264,1.264,0,0,0-.564,1.1,1.179,1.179,0,0,0,.386.926A1.5,1.5,0,0,0,37.486,39.547ZM55.632,36.6a5.348,5.348,0,0,1-.946,3.324,3.287,3.287,0,0,1-4.906.27v4.258H47.763V32.019h1.859l.083.913a2.963,2.963,0,0,1,2.416-1.079A3.062,3.062,0,0,1,54.7,33.077a5.49,5.49,0,0,1,.934,3.4Zm-2.009-.174a3.746,3.746,0,0,0-.535-2.133,1.741,1.741,0,0,0-1.531-.789,1.856,1.856,0,0,0-1.776,1.021V38.51a1.873,1.873,0,0,0,1.793,1.046,1.739,1.739,0,0,0,1.507-.776A4.124,4.124,0,0,0,53.623,36.426Zm8.417-2.565a4.992,4.992,0,0,0-.822-.066,1.85,1.85,0,0,0-1.868,1.063V41H57.333V32.019h1.926l.05,1a2.273,2.273,0,0,1,2.025-1.17,1.888,1.888,0,0,1,.714.116Zm.6,2.565a5.3,5.3,0,0,1,.523-2.378,3.819,3.819,0,0,1,1.469-1.627,4.14,4.14,0,0,1,2.175-.569,3.923,3.923,0,0,1,2.951,1.17,4.6,4.6,0,0,1,1.224,3.1l.008.473a5.343,5.343,0,0,1-.51,2.374,3.773,3.773,0,0,1-1.461,1.619,4.17,4.17,0,0,1-2.2.573A3.9,3.9,0,0,1,63.779,39.9a4.848,4.848,0,0,1-1.141-3.374Zm2.017.174a3.619,3.619,0,0,0,.573,2.171,1.862,1.862,0,0,0,1.594.784,1.842,1.842,0,0,0,1.59-.8,4,4,0,0,0,.569-2.333,3.572,3.572,0,0,0-.585-2.158,1.973,1.973,0,0,0-3.158-.012A3.922,3.922,0,0,0,64.655,36.6Zm7.662-.158a5.34,5.34,0,0,1,.963-3.333,3.085,3.085,0,0,1,2.582-1.258,2.931,2.931,0,0,1,2.308,1v-4.6h2.017V41H78.359l-.1-.93a2.973,2.973,0,0,1-2.416,1.1,3.068,3.068,0,0,1-2.552-1.27A5.535,5.535,0,0,1,72.316,36.443Zm2.017.174a3.739,3.739,0,0,0,.527,2.137,1.71,1.71,0,0,0,1.5.768,1.9,1.9,0,0,0,1.81-1.1V34.583A1.876,1.876,0,0,0,76.375,33.5a1.723,1.723,0,0,0-1.511.776A4.163,4.163,0,0,0,74.333,36.617Zm13.4,3.5a3.128,3.128,0,0,1-2.523,1.046A2.788,2.788,0,0,1,83,40.311a3.637,3.637,0,0,1-.751-2.474V32.019h2.017v5.794q0,1.71,1.419,1.71a1.993,1.993,0,0,0,1.984-1.054v-6.45h2.017V41h-1.9Zm7.695-.564a1.824,1.824,0,0,0,1.253-.44,1.5,1.5,0,0,0,.531-1.087h1.9a2.963,2.963,0,0,1-.523,1.565,3.43,3.43,0,0,1-1.328,1.15,3.958,3.958,0,0,1-1.81.423,3.829,3.829,0,0,1-2.988-1.22,4.84,4.84,0,0,1-1.1-3.37v-.208a4.759,4.759,0,0,1,1.1-3.283,3.8,3.8,0,0,1,2.988-1.233,3.69,3.69,0,0,1,2.611.934,3.345,3.345,0,0,1,1.058,2.453h-1.9a1.847,1.847,0,0,0-.527-1.27,1.7,1.7,0,0,0-1.258-.5,1.775,1.775,0,0,0-1.511.71,3.621,3.621,0,0,0-.54,2.154v.324a3.681,3.681,0,0,0,.527,2.179A1.773,1.773,0,0,0,95.426,39.556Zm7.736-9.72v2.183h1.585v1.494h-1.585v5.014a1.1,1.1,0,0,0,.2.743.943.943,0,0,0,.726.228,3.107,3.107,0,0,0,.706-.083v1.561a4.968,4.968,0,0,1-1.328.191q-2.324,0-2.324-2.565V33.513H99.667V32.019h1.478V29.835Zm2.5,6.591a5.3,5.3,0,0,1,.523-2.378,3.819,3.819,0,0,1,1.469-1.627,4.14,4.14,0,0,1,2.175-.569,3.923,3.923,0,0,1,2.951,1.17,4.6,4.6,0,0,1,1.224,3.1l.008.473a5.343,5.343,0,0,1-.51,2.374,3.773,3.773,0,0,1-1.461,1.619,4.17,4.17,0,0,1-2.2.573A3.9,3.9,0,0,1,106.8,39.9a4.848,4.848,0,0,1-1.141-3.374Zm2.017.174a3.619,3.619,0,0,0,.573,2.171,1.862,1.862,0,0,0,1.594.784,1.842,1.842,0,0,0,1.59-.8A4,4,0,0,0,112,36.426a3.572,3.572,0,0,0-.585-2.158,1.973,1.973,0,0,0-3.158-.012A3.922,3.922,0,0,0,107.678,36.6Zm15.415,1.511,1.826-6.093h2.15L123.5,42.361a2.9,2.9,0,0,1-2.789,2.266,3.6,3.6,0,0,1-.971-.15V42.909l.382.025a1.964,1.964,0,0,0,1.15-.278,1.842,1.842,0,0,0,.61-.933l.291-.771-3.154-8.933h2.175ZM7.541,63.56a.914.914,0,0,0-.444-.822,4.723,4.723,0,0,0-1.473-.5,7.574,7.574,0,0,1-1.718-.548,2.293,2.293,0,0,1-1.511-2.117,2.391,2.391,0,0,1,.979-1.942,3.872,3.872,0,0,1,2.49-.78,4.029,4.029,0,0,1,2.6.8,2.529,2.529,0,0,1,.992,2.067H7.442a1.243,1.243,0,0,0-.432-.967,1.654,1.654,0,0,0-1.146-.386,1.787,1.787,0,0,0-1.083.307.968.968,0,0,0-.419.822.818.818,0,0,0,.39.722,5.365,5.365,0,0,0,1.577.519,7.466,7.466,0,0,1,1.864.623,2.639,2.639,0,0,1,1,.867,2.212,2.212,0,0,1,.328,1.229,2.34,2.34,0,0,1-1,1.963,4.283,4.283,0,0,1-2.631.751,4.644,4.644,0,0,1-1.967-.4,3.238,3.238,0,0,1-1.345-1.1,2.594,2.594,0,0,1-.481-1.5H4.055a1.421,1.421,0,0,0,.54,1.1,2.1,2.1,0,0,0,1.32.386,2.04,2.04,0,0,0,1.212-.3A.938.938,0,0,0,7.541,63.56Zm7.695,2.606a4.173,4.173,0,0,1-3.109-1.208,4.381,4.381,0,0,1-1.191-3.217v-.249a5.389,5.389,0,0,1,.519-2.4,3.949,3.949,0,0,1,1.457-1.648A3.851,3.851,0,0,1,15,56.853a3.525,3.525,0,0,1,2.835,1.17,4.949,4.949,0,0,1,1,3.312v.813H12.97a2.7,2.7,0,0,0,.743,1.76,2.23,2.23,0,0,0,1.639.647,2.731,2.731,0,0,0,2.258-1.121L18.7,64.473a3.631,3.631,0,0,1-1.44,1.249A4.509,4.509,0,0,1,15.236,66.166ZM15,58.471a1.7,1.7,0,0,0-1.341.581A3.012,3.012,0,0,0,13,60.671h3.843v-.149a2.452,2.452,0,0,0-.54-1.531A1.686,1.686,0,0,0,15,58.471Zm10.11.39a4.992,4.992,0,0,0-.822-.066,1.85,1.85,0,0,0-1.868,1.063V66H20.4V57.019h1.926l.05,1a2.273,2.273,0,0,1,2.025-1.17,1.888,1.888,0,0,1,.714.116Zm4.59,4.582,1.9-6.425H33.68L30.568,66H28.816l-3.138-8.981H27.77ZM37.084,66H35.067V57.019h2.017ZM34.942,54.686a1.071,1.071,0,0,1,.295-.772,1.113,1.113,0,0,1,.843-.307,1.127,1.127,0,0,1,.847.307,1.062,1.062,0,0,1,.3.772,1.038,1.038,0,0,1-.3.76,1.136,1.136,0,0,1-.847.3,1.122,1.122,0,0,1-.843-.3A1.046,1.046,0,0,1,34.942,54.686Zm8.027,9.87a1.824,1.824,0,0,0,1.253-.44,1.5,1.5,0,0,0,.531-1.087h1.9a2.963,2.963,0,0,1-.523,1.565,3.43,3.43,0,0,1-1.328,1.15,3.958,3.958,0,0,1-1.81.423,3.829,3.829,0,0,1-2.988-1.22,4.84,4.84,0,0,1-1.1-3.37v-.208A4.759,4.759,0,0,1,40,58.085a3.8,3.8,0,0,1,2.988-1.233,3.69,3.69,0,0,1,2.611.934,3.345,3.345,0,0,1,1.058,2.453h-1.9a1.847,1.847,0,0,0-.527-1.27,1.7,1.7,0,0,0-1.258-.5,1.775,1.775,0,0,0-1.511.71,3.621,3.621,0,0,0-.54,2.154v.324a3.682,3.682,0,0,0,.527,2.179A1.774,1.774,0,0,0,42.969,64.556ZM50.323,66H48.306V57.019h2.017ZM48.182,54.686a1.071,1.071,0,0,1,.295-.772,1.113,1.113,0,0,1,.843-.307,1.127,1.127,0,0,1,.847.307,1.062,1.062,0,0,1,.3.772,1.038,1.038,0,0,1-.3.76,1.136,1.136,0,0,1-.847.3,1.122,1.122,0,0,1-.843-.3A1.046,1.046,0,0,1,48.182,54.686Zm3.959,6.74a5.3,5.3,0,0,1,.523-2.378,3.819,3.819,0,0,1,1.469-1.627,4.14,4.14,0,0,1,2.175-.569,3.923,3.923,0,0,1,2.951,1.17,4.6,4.6,0,0,1,1.224,3.1l.008.473a5.343,5.343,0,0,1-.51,2.374,3.773,3.773,0,0,1-1.461,1.619,4.17,4.17,0,0,1-2.2.573A3.9,3.9,0,0,1,53.283,64.9a4.848,4.848,0,0,1-1.141-3.374Zm2.017.174a3.619,3.619,0,0,0,.573,2.171,1.862,1.862,0,0,0,1.594.784,1.842,1.842,0,0,0,1.59-.8,4,4,0,0,0,.569-2.333,3.572,3.572,0,0,0-.585-2.158,1.973,1.973,0,0,0-3.158-.012A3.922,3.922,0,0,0,54.158,61.6ZM67.232,63.56a.914.914,0,0,0-.444-.822,4.723,4.723,0,0,0-1.473-.5,7.574,7.574,0,0,1-1.718-.548,2.293,2.293,0,0,1-1.511-2.117,2.391,2.391,0,0,1,.979-1.942,3.872,3.872,0,0,1,2.49-.78,4.029,4.029,0,0,1,2.6.8,2.529,2.529,0,0,1,.992,2.067H67.133a1.243,1.243,0,0,0-.432-.967,1.654,1.654,0,0,0-1.146-.386,1.787,1.787,0,0,0-1.083.307.968.968,0,0,0-.419.822.818.818,0,0,0,.39.722,5.365,5.365,0,0,0,1.577.519,7.466,7.466,0,0,1,1.864.623,2.639,2.639,0,0,1,1,.867,2.212,2.212,0,0,1,.328,1.229,2.34,2.34,0,0,1-1,1.963,4.283,4.283,0,0,1-2.631.751,4.644,4.644,0,0,1-1.967-.4,3.238,3.238,0,0,1-1.345-1.1,2.594,2.594,0,0,1-.481-1.5h1.959a1.421,1.421,0,0,0,.54,1.1,2.1,2.1,0,0,0,1.32.386,2.04,2.04,0,0,0,1.212-.3A.938.938,0,0,0,67.232,63.56ZM77.351,66H75.334V53.25h2.017Zm4.341,0H79.675V57.019h2.017ZM79.551,54.686a1.071,1.071,0,0,1,.295-.772,1.113,1.113,0,0,1,.843-.307,1.127,1.127,0,0,1,.847.307,1.062,1.062,0,0,1,.3.772,1.038,1.038,0,0,1-.3.76,1.136,1.136,0,0,1-.847.3,1.122,1.122,0,0,1-.843-.3A1.046,1.046,0,0,1,79.551,54.686Zm9.372,8.874a.914.914,0,0,0-.444-.822A4.723,4.723,0,0,0,87,62.24a7.574,7.574,0,0,1-1.718-.548,2.293,2.293,0,0,1-1.511-2.117,2.391,2.391,0,0,1,.979-1.942,3.872,3.872,0,0,1,2.49-.78,4.029,4.029,0,0,1,2.6.8,2.529,2.529,0,0,1,.992,2.067H88.823a1.243,1.243,0,0,0-.432-.967,1.654,1.654,0,0,0-1.146-.386,1.787,1.787,0,0,0-1.083.307.968.968,0,0,0-.419.822.818.818,0,0,0,.39.722,5.365,5.365,0,0,0,1.577.519,7.466,7.466,0,0,1,1.864.623,2.639,2.639,0,0,1,1,.867,2.212,2.212,0,0,1,.328,1.229,2.34,2.34,0,0,1-1,1.963,4.283,4.283,0,0,1-2.631.751,4.644,4.644,0,0,1-1.967-.4,3.238,3.238,0,0,1-1.345-1.1,2.594,2.594,0,0,1-.481-1.5h1.959a1.421,1.421,0,0,0,.54,1.1,2.1,2.1,0,0,0,1.32.386,2.04,2.04,0,0,0,1.212-.3A.938.938,0,0,0,88.922,63.56Zm6.267-8.724v2.183h1.585v1.494H95.189v5.014a1.1,1.1,0,0,0,.2.743.943.943,0,0,0,.726.228,3.107,3.107,0,0,0,.706-.083v1.561a4.968,4.968,0,0,1-1.328.191q-2.324,0-2.324-2.565V58.513H91.695V57.019h1.478V54.835ZM103.681,66a3.113,3.113,0,0,1-.232-.838,3.393,3.393,0,0,1-4.565.232,2.47,2.47,0,0,1-.855-1.909,2.55,2.55,0,0,1,1.067-2.2,5.169,5.169,0,0,1,3.051-.768h1.237v-.589a1.573,1.573,0,0,0-.39-1.116,1.547,1.547,0,0,0-1.187-.419,1.777,1.777,0,0,0-1.129.344,1.066,1.066,0,0,0-.44.876H98.219a2.239,2.239,0,0,1,.49-1.382,3.263,3.263,0,0,1,1.332-1.009,4.68,4.68,0,0,1,1.88-.365,3.769,3.769,0,0,1,2.515.793,2.827,2.827,0,0,1,.963,2.229v4.051a4.591,4.591,0,0,0,.34,1.934V66Zm-2.216-1.453a2.294,2.294,0,0,0,1.125-.291,1.941,1.941,0,0,0,.793-.78V61.783h-1.087a2.973,2.973,0,0,0-1.685.39,1.264,1.264,0,0,0-.564,1.1,1.179,1.179,0,0,0,.386.926A1.5,1.5,0,0,0,101.465,64.547Zm5.669-3.1a5.34,5.34,0,0,1,.963-3.333,3.085,3.085,0,0,1,2.582-1.258,2.931,2.931,0,0,1,2.308,1v-4.6H115V66h-1.826l-.1-.93a2.973,2.973,0,0,1-2.416,1.1,3.068,3.068,0,0,1-2.552-1.27A5.535,5.535,0,0,1,107.134,61.443Zm2.017.174a3.739,3.739,0,0,0,.527,2.137,1.71,1.71,0,0,0,1.5.768,1.9,1.9,0,0,0,1.81-1.1V59.583a1.876,1.876,0,0,0-1.793-1.079,1.723,1.723,0,0,0-1.511.776A4.163,4.163,0,0,0,109.151,61.617Zm7.579-.191a5.3,5.3,0,0,1,.523-2.378,3.819,3.819,0,0,1,1.469-1.627,4.14,4.14,0,0,1,2.175-.569,3.923,3.923,0,0,1,2.951,1.17,4.6,4.6,0,0,1,1.224,3.1l.008.473a5.343,5.343,0,0,1-.51,2.374,3.773,3.773,0,0,1-1.461,1.619,4.17,4.17,0,0,1-2.2.573,3.9,3.9,0,0,1-3.042-1.266,4.848,4.848,0,0,1-1.141-3.374Zm2.017.174a3.619,3.619,0,0,0,.573,2.171,1.862,1.862,0,0,0,1.594.784,1.842,1.842,0,0,0,1.59-.8,4,4,0,0,0,.569-2.333,3.572,3.572,0,0,0-.585-2.158,1.973,1.973,0,0,0-3.158-.012A3.922,3.922,0,0,0,118.747,61.6Zm13.074,1.959a.914.914,0,0,0-.444-.822,4.723,4.723,0,0,0-1.473-.5,7.574,7.574,0,0,1-1.718-.548,2.293,2.293,0,0,1-1.511-2.117,2.391,2.391,0,0,1,.979-1.942,3.872,3.872,0,0,1,2.49-.78,4.029,4.029,0,0,1,2.6.8,2.529,2.529,0,0,1,.992,2.067h-2.017a1.243,1.243,0,0,0-.432-.967,1.654,1.654,0,0,0-1.146-.386,1.787,1.787,0,0,0-1.083.307.968.968,0,0,0-.419.822.818.818,0,0,0,.39.722,5.365,5.365,0,0,0,1.577.519,7.466,7.466,0,0,1,1.864.623,2.639,2.639,0,0,1,1,.867,2.212,2.212,0,0,1,.328,1.229,2.34,2.34,0,0,1-1,1.963,4.283,4.283,0,0,1-2.631.751,4.644,4.644,0,0,1-1.967-.4,3.238,3.238,0,0,1-1.345-1.1,2.594,2.594,0,0,1-.481-1.5h1.959a1.421,1.421,0,0,0,.54,1.1,2.1,2.1,0,0,0,1.32.386,2.04,2.04,0,0,0,1.212-.3A.938.938,0,0,0,131.821,63.56ZM17.884,91.166a4.173,4.173,0,0,1-3.109-1.208,4.381,4.381,0,0,1-1.191-3.217v-.249a5.389,5.389,0,0,1,.519-2.4,3.949,3.949,0,0,1,1.457-1.648,3.851,3.851,0,0,1,2.092-.589,3.525,3.525,0,0,1,2.835,1.17,4.949,4.949,0,0,1,1,3.312v.813H15.618a2.7,2.7,0,0,0,.743,1.76A2.23,2.23,0,0,0,18,89.556a2.731,2.731,0,0,0,2.258-1.121l1.087,1.038a3.631,3.631,0,0,1-1.44,1.249A4.509,4.509,0,0,1,17.884,91.166Zm-.241-7.695a1.7,1.7,0,0,0-1.341.581,3.012,3.012,0,0,0-.652,1.619h3.843v-.149a2.452,2.452,0,0,0-.54-1.531A1.686,1.686,0,0,0,17.643,83.471Zm7.28-1.453.058,1.038a3.229,3.229,0,0,1,2.615-1.2q2.806,0,2.855,3.212V91H28.434V85.181a1.85,1.85,0,0,0-.369-1.266,1.554,1.554,0,0,0-1.208-.411,1.944,1.944,0,0,0-1.818,1.1V91H23.022V82.019Zm15.771,9.147a4.173,4.173,0,0,1-3.109-1.208,4.381,4.381,0,0,1-1.191-3.217v-.249a5.389,5.389,0,0,1,.519-2.4,3.949,3.949,0,0,1,1.457-1.648,3.851,3.851,0,0,1,2.092-.589,3.525,3.525,0,0,1,2.835,1.17,4.949,4.949,0,0,1,1,3.312v.813H38.428a2.7,2.7,0,0,0,.743,1.76,2.23,2.23,0,0,0,1.639.647,2.731,2.731,0,0,0,2.258-1.121l1.087,1.038a3.631,3.631,0,0,1-1.44,1.249A4.509,4.509,0,0,1,40.695,91.166Zm-.241-7.695a1.7,1.7,0,0,0-1.341.581,3.012,3.012,0,0,0-.652,1.619H42.3v-.149a2.452,2.452,0,0,0-.54-1.531A1.686,1.686,0,0,0,40.454,83.471ZM48.008,91H45.99V78.25h2.017Zm11.8,0a3.113,3.113,0,0,1-.232-.838,3.393,3.393,0,0,1-4.565.232,2.47,2.47,0,0,1-.855-1.909,2.55,2.55,0,0,1,1.067-2.2,5.169,5.169,0,0,1,3.051-.768H59.5v-.589a1.573,1.573,0,0,0-.39-1.116,1.547,1.547,0,0,0-1.187-.419,1.777,1.777,0,0,0-1.129.344,1.066,1.066,0,0,0-.44.876H54.341a2.239,2.239,0,0,1,.49-1.382,3.263,3.263,0,0,1,1.332-1.009,4.68,4.68,0,0,1,1.88-.365,3.769,3.769,0,0,1,2.515.793,2.827,2.827,0,0,1,.963,2.229v4.051a4.591,4.591,0,0,0,.34,1.934V91Zm-2.216-1.453a2.294,2.294,0,0,0,1.125-.291,1.941,1.941,0,0,0,.793-.78V86.783H58.417a2.973,2.973,0,0,0-1.685.39,1.264,1.264,0,0,0-.564,1.1,1.179,1.179,0,0,0,.386.926A1.5,1.5,0,0,0,57.587,89.547Zm10.75-5.686a4.991,4.991,0,0,0-.822-.066,1.85,1.85,0,0,0-1.868,1.063V91H63.63V82.019h1.926l.05,1a2.273,2.273,0,0,1,2.025-1.17,1.888,1.888,0,0,1,.714.116Zm4.217-4.026v2.183h1.585v1.494H72.553v5.014a1.1,1.1,0,0,0,.2.743.943.943,0,0,0,.726.228,3.107,3.107,0,0,0,.706-.083v1.561a4.968,4.968,0,0,1-1.328.191q-2.324,0-2.324-2.565V83.513H69.058V82.019h1.478V79.835Zm7.77,5.171.656-6.093h6.491v1.743H82.655l-.332,2.889a3.732,3.732,0,0,1,1.893-.481,3.367,3.367,0,0,1,2.685,1.1,4.375,4.375,0,0,1,.959,2.972A4.027,4.027,0,0,1,86.8,90.074a3.878,3.878,0,0,1-2.914,1.092,4.061,4.061,0,0,1-2.752-.942,3.406,3.406,0,0,1-1.183-2.486H81.9a2.13,2.13,0,0,0,.631,1.349,1.919,1.919,0,0,0,1.345.469,1.734,1.734,0,0,0,1.448-.664,2.866,2.866,0,0,0,.519-1.81,2.533,2.533,0,0,0-.573-1.747,2,2,0,0,0-1.577-.643,2.2,2.2,0,0,0-1.76.714Zm15.4-6.151v1.668h-.249a4,4,0,0,0-2.706.93,3.89,3.89,0,0,0-1.2,2.565A3.275,3.275,0,0,1,94.044,83a3.094,3.094,0,0,1,2.528,1.129,4.446,4.446,0,0,1,.926,2.914,4.157,4.157,0,0,1-1.083,2.984,3.739,3.739,0,0,1-2.843,1.141,3.652,3.652,0,0,1-2.934-1.336,5.257,5.257,0,0,1-1.125-3.5v-.689a7.4,7.4,0,0,1,1.548-4.98,5.551,5.551,0,0,1,4.453-1.8Zm-2.167,5.769A2.124,2.124,0,0,0,92.338,85a2.183,2.183,0,0,0-.809,1v.614a3.618,3.618,0,0,0,.564,2.137,1.721,1.721,0,0,0,1.461.793,1.7,1.7,0,0,0,1.419-.672A2.8,2.8,0,0,0,95.5,87.1a2.84,2.84,0,0,0-.531-1.785A1.693,1.693,0,0,0,93.554,84.625ZM106.719,82.1a2.81,2.81,0,0,1-.457,1.581,3.167,3.167,0,0,1-1.245,1.092,3.449,3.449,0,0,1,1.457,1.2,3.036,3.036,0,0,1,.51,1.727,3.171,3.171,0,0,1-1.079,2.528,4.894,4.894,0,0,1-5.757,0A3.168,3.168,0,0,1,99.066,87.7a3.071,3.071,0,0,1,.515-1.743,3.306,3.306,0,0,1,1.444-1.187,3.149,3.149,0,0,1-1.233-1.092A2.828,2.828,0,0,1,99.34,82.1a3.144,3.144,0,0,1,1-2.449,4.462,4.462,0,0,1,5.387,0A3.144,3.144,0,0,1,106.719,82.1Zm-1.751,5.5a1.992,1.992,0,0,0-.535-1.448,1.882,1.882,0,0,0-1.415-.552,1.862,1.862,0,0,0-1.407.548,2.007,2.007,0,0,0-.527,1.453,1.944,1.944,0,0,0,.519,1.419,2.211,2.211,0,0,0,2.855.017A1.95,1.95,0,0,0,104.968,87.6Zm-.257-5.429a1.876,1.876,0,0,0-.457-1.3,1.754,1.754,0,0,0-2.449-.025,2.165,2.165,0,0,0,0,2.644,1.775,1.775,0,0,0,2.449,0A1.869,1.869,0,0,0,104.71,82.176Zm8.1,4.5h-4.358V85.048h4.358Zm7,4.325H117.8V81.291l-2.963,1.01V80.607l4.715-1.735h.257ZM41.367,111.443a5.34,5.34,0,0,1,.963-3.333,3.085,3.085,0,0,1,2.582-1.258,2.931,2.931,0,0,1,2.308,1v-4.6h2.017V116H47.41l-.1-.93a2.973,2.973,0,0,1-2.416,1.1,3.068,3.068,0,0,1-2.552-1.27A5.535,5.535,0,0,1,41.367,111.443Zm2.017.174a3.739,3.739,0,0,0,.527,2.137,1.71,1.71,0,0,0,1.5.768,1.9,1.9,0,0,0,1.81-1.1v-3.835a1.876,1.876,0,0,0-1.793-1.079,1.723,1.723,0,0,0-1.511.776A4.163,4.163,0,0,0,43.384,111.617ZM55.3,116.166a4.173,4.173,0,0,1-3.109-1.208A4.381,4.381,0,0,1,51,111.742v-.249a5.389,5.389,0,0,1,.519-2.4,3.949,3.949,0,0,1,1.457-1.648,3.851,3.851,0,0,1,2.092-.589,3.525,3.525,0,0,1,2.835,1.17,4.949,4.949,0,0,1,1,3.312v.813H53.03a2.7,2.7,0,0,0,.743,1.76,2.23,2.23,0,0,0,1.639.647,2.731,2.731,0,0,0,2.258-1.121l1.087,1.038a3.631,3.631,0,0,1-1.44,1.249A4.509,4.509,0,0,1,55.3,116.166Zm-.241-7.695a1.7,1.7,0,0,0-1.341.581,3.012,3.012,0,0,0-.652,1.619h3.843v-.149a2.452,2.452,0,0,0-.54-1.531A1.686,1.686,0,0,0,55.055,108.471ZM62.609,116H60.592V103.25h2.017ZM76.3,110.6H71.333v3.719h5.8V116h-7.9V103.914h7.844v1.693H71.333v3.337H76.3Zm3.611,3.271a1.152,1.152,0,0,1,.872.32,1.11,1.11,0,0,1,.307.8,1.071,1.071,0,0,1-.307.784,1.36,1.36,0,0,1-1.727,0,1.053,1.053,0,0,1-.315-.789,1.11,1.11,0,0,1,.307-.8A1.141,1.141,0,0,1,79.907,113.875Zm12.418-8.268H88.557V116H86.473V105.607H82.738v-1.693h9.587Zm.506,8.268a1.152,1.152,0,0,1,.872.32,1.11,1.11,0,0,1,.307.8,1.071,1.071,0,0,1-.307.784,1.36,1.36,0,0,1-1.727,0,1.053,1.053,0,0,1-.315-.789,1.11,1.11,0,0,1,.307-.8A1.141,1.141,0,0,1,92.832,113.875Z" transform="translate(-2699.001 -3440)" fill="#12263f"/>
      <g id="Grupo_1072258" data-name="Grupo 1072258" transform="matrix(0, -1, 1, 0, -2539.501, -3564.757)">
        <g id="Grupo_871598" data-name="Grupo 871598" transform="translate(15.014 15.997) rotate(180)">
          <path id="Trazado_213857" data-name="Trazado 213857" d="M2.027,16,0,13.97,5.972,8,0,2.026,2.027,0l8,8Z" transform="translate(4.989)" fill="#18b8c4"/>
          <path id="Trazado_213858" data-name="Trazado 213858" d="M0,8.3,3.139,5.165,0,2.026,2.026,0,7.192,5.165,2.026,10.33Z" transform="translate(0 2.834)" fill="#18b8c4"/>
        </g>
        <g id="Grupo_872766" data-name="Grupo 872766" transform="translate(37.204 0)">
          <path id="Trazado_213857-2" data-name="Trazado 213857" d="M2.027,0,0,2.026,5.972,8,0,13.97,2.027,16l8-8Z" transform="translate(4.989)" fill="#18b8c4"/>
          <path id="Trazado_213858-2" data-name="Trazado 213858" d="M0,2.026,3.139,5.165,0,8.3,2.026,10.33,7.192,5.165,2.026,0Z" transform="translate(0 2.833)" fill="#18b8c4"/>
        </g>
        <path id="Trazado_217429" data-name="Trazado 217429" d="M0,0H30.594" transform="translate(10.573 7.998)" fill="none" stroke="#18b8c4" stroke-width="2"/>
      </g>
      <g id="Grupo_1072259" data-name="Grupo 1072259" transform="matrix(0, -1, 1, 0, -2384.977, -3452.757)">
        <g id="Grupo_871598-2" data-name="Grupo 871598" transform="translate(15.014 15.997) rotate(180)">
          <path id="Trazado_213857-3" data-name="Trazado 213857" d="M2.027,16,0,13.97,5.972,8,0,2.026,2.027,0l8,8Z" transform="translate(4.989)" fill="#18b8c4"/>
          <path id="Trazado_213858-3" data-name="Trazado 213858" d="M0,8.3,3.139,5.165,0,2.026,2.026,0,7.192,5.165,2.026,10.33Z" transform="translate(0 2.834)" fill="#18b8c4"/>
        </g>
        <g id="Grupo_872766-2" data-name="Grupo 872766" transform="translate(83.465 -27.495) rotate(-90)">
          <path id="Trazado_213857-4" data-name="Trazado 213857" d="M2.027,0,0,2.026,5.972,8,0,13.97,2.027,16l8-8Z" transform="translate(4.989)" fill="#18b8c4"/>
          <path id="Trazado_213858-4" data-name="Trazado 213858" d="M0,2.026,3.139,5.165,0,8.3,2.026,10.33,7.192,5.165,2.026,0Z" transform="translate(0 2.833)" fill="#18b8c4"/>
        </g>
        <path id="Trazado_217429-2" data-name="Trazado 217429" d="M0,0H80.891V-38.826" transform="translate(10.573 7.998)" fill="none" stroke="#18b8c4" stroke-width="2"/>
      </g>
      <g id="Grupo_1072260" data-name="Grupo 1072260" transform="translate(-2702.501 -3452.757) rotate(-90)">
        <g id="Grupo_871598-3" data-name="Grupo 871598" transform="translate(15.014 15.997) rotate(180)">
          <path id="Trazado_213857-5" data-name="Trazado 213857" d="M2.027,0,0,2.026,5.972,8,0,13.97,2.027,16l8-8Z" transform="translate(4.989 0)" fill="#18b8c4"/>
          <path id="Trazado_213858-5" data-name="Trazado 213858" d="M0,2.026,3.139,5.165,0,8.3,2.026,10.33,7.192,5.165,2.026,0Z" transform="translate(0 2.833)" fill="#18b8c4"/>
        </g>
        <g id="Grupo_872766-3" data-name="Grupo 872766" transform="translate(99.462 43.492) rotate(90)">
          <path id="Trazado_213857-6" data-name="Trazado 213857" d="M2.027,16,0,13.97,5.972,8,0,2.026,2.027,0l8,8Z" transform="translate(4.989 0)" fill="#18b8c4"/>
          <path id="Trazado_213858-6" data-name="Trazado 213858" d="M0,8.3,3.139,5.165,0,2.026,2.026,0,7.192,5.165,2.026,10.33Z" transform="translate(0 2.834)" fill="#18b8c4"/>
        </g>
        <path id="Trazado_217429-3" data-name="Trazado 217429" d="M0,0H80.891V38.826" transform="translate(10.573 7.998)" fill="none" stroke="#18b8c4" stroke-width="2"/>
      </g>
    </g>
  </g>
</svg>
