<svg xmlns="http://www.w3.org/2000/svg" width="400" height="308.964" viewBox="0 0 400 308.964">
  <g id="Grupo_1072268" data-name="Grupo 1072268" transform="translate(2730 4904)">
    <g id="Grupo_1072255" data-name="Grupo 1072255">
      <g id="Grupo_1072245" data-name="Grupo 1072245" transform="translate(3622 6044)">
        <g id="Grupo_1072051" data-name="Grupo 1072051" transform="translate(-6352 -10948)">
          <rect id="Rect치ngulo_377635" data-name="Rect치ngulo 377635" width="400" height="308.964" fill="#fff"/>
        </g>
      </g>
      <path id="Trazado_609542" data-name="Trazado 609542" d="M53.578,0H9.592V94.588H-43.93" transform="translate(-2526.85 -4781.141) rotate(-90)" fill="none" stroke="#18b8c4" stroke-width="2"/>
      <path id="Trazado_609543" data-name="Trazado 609543" d="M-1545.959-4882.792H-1599.5v-133.976" transform="translate(-7533.911 -3191.252) rotate(90)" fill="none" stroke="#18b8c4" stroke-width="2"/>
      <g id="Grupo_1072252" data-name="Grupo 1072252" transform="translate(-770.072 132.152)">
        <g id="Grupo_1072229" data-name="Grupo 1072229" transform="translate(-189.428 565.219)">
          <rect id="Rect치ngulo_377663" data-name="Rect치ngulo 377663" width="259.76" height="71.82" transform="translate(-1700.5 -5582.72)" fill="#e1fbff"/>
          <g id="Grupo_1072225" data-name="Grupo 1072225" transform="translate(-1700.5 -5583.22)">
            <g id="Grupo_871603" data-name="Grupo 871603" transform="translate(0)">
              <g id="Grupo_870556" data-name="Grupo 870556">
                <g id="Grupo_870549" data-name="Grupo 870549" transform="translate(28.705 30.636) rotate(-180)">
                  <path id="Trazado_213855" data-name="Trazado 213855" d="M0,0,3.93,3.368V27.361H0Z" transform="translate(24.775 0)" fill="#3ae3fe"/>
                  <path id="Trazado_213856" data-name="Trazado 213856" d="M0,28.7l3.93-3.588V0H0Z" transform="translate(28.705 26.706) rotate(90)" fill="#3ae3fe"/>
                </g>
              </g>
            </g>
          </g>
          <g id="Grupo_1072224" data-name="Grupo 1072224" transform="translate(-1440.74 -5511.081) rotate(180)">
            <g id="Grupo_871603-2" data-name="Grupo 871603" transform="translate(0 0)">
              <g id="Grupo_870556-2" data-name="Grupo 870556" transform="translate(0 0)">
                <g id="Grupo_870549-2" data-name="Grupo 870549" transform="translate(28.705 30.636) rotate(-180)">
                  <path id="Trazado_213855-2" data-name="Trazado 213855" d="M0,0,3.93,3.368V27.361H0Z" transform="translate(24.775 0)" fill="#3ae3fe"/>
                  <path id="Trazado_213856-2" data-name="Trazado 213856" d="M0,28.7l3.93-3.588V0H0Z" transform="translate(28.705 26.706) rotate(90)" fill="#3ae3fe"/>
                </g>
              </g>
            </g>
          </g>
        </g>
        <path id="Trazado_609613" data-name="Trazado 609613" d="M25.055,16h-2.49V3.914h2.49Zm4.4-8.981.075,1a3.156,3.156,0,0,1,2.582-1.17,2.4,2.4,0,0,1,2.382,1.37,3.084,3.084,0,0,1,2.7-1.37,2.679,2.679,0,0,1,2.175.851,3.911,3.911,0,0,1,.714,2.561V16H37.672V10.272a1.71,1.71,0,0,0-.3-1.116A1.324,1.324,0,0,0,36.319,8.8a1.5,1.5,0,0,0-1.494,1.029L34.833,16h-2.4V10.281a1.689,1.689,0,0,0-.307-1.129A1.337,1.337,0,0,0,31.082,8.8,1.555,1.555,0,0,0,29.6,9.65V16h-2.4V7.019Zm20.553,4.574a5.387,5.387,0,0,1-.942,3.324,3.021,3.021,0,0,1-2.544,1.249,2.8,2.8,0,0,1-2.2-.946v4.233h-2.4V7.019h2.225l.083.88A2.819,2.819,0,0,1,46.5,6.853a3.041,3.041,0,0,1,2.582,1.229,5.532,5.532,0,0,1,.921,3.387Zm-2.4-.174a3.535,3.535,0,0,0-.444-1.934A1.446,1.446,0,0,0,45.874,8.8a1.571,1.571,0,0,0-1.552.863v3.677a1.6,1.6,0,0,0,1.569.888Q47.608,14.232,47.608,11.418Zm9.264,3.669a3.008,3.008,0,0,1-2.457,1.079,2.837,2.837,0,0,1-2.2-.83,3.543,3.543,0,0,1-.776-2.432V7.019h2.4v5.809q0,1.4,1.278,1.4a1.732,1.732,0,0,0,1.677-.848V7.019H59.2V16H56.938Zm8.268,1.079a4.409,4.409,0,0,1-3.217-1.212,4.308,4.308,0,0,1-1.241-3.229v-.232a5.426,5.426,0,0,1,.523-2.42,3.838,3.838,0,0,1,1.482-1.644,4.159,4.159,0,0,1,2.187-.577,3.727,3.727,0,0,1,2.9,1.162,4.722,4.722,0,0,1,1.058,3.3v.979H63.114a2.229,2.229,0,0,0,.7,1.411,2.12,2.12,0,0,0,1.482.531,2.589,2.589,0,0,0,2.167-1l1.179,1.32a3.6,3.6,0,0,1-1.461,1.191A4.793,4.793,0,0,1,65.14,16.166Zm-.274-7.379a1.5,1.5,0,0,0-1.158.484,2.5,2.5,0,0,0-.569,1.384h3.337v-.192a1.786,1.786,0,0,0-.432-1.238A1.547,1.547,0,0,0,64.866,8.787Zm10.193,4.731a.773.773,0,0,0-.436-.693,4.95,4.95,0,0,0-1.4-.452q-3.2-.672-3.2-2.723a2.468,2.468,0,0,1,.992-2,4,4,0,0,1,2.594-.8,4.307,4.307,0,0,1,2.735.805A2.538,2.538,0,0,1,77.367,9.75h-2.4a1.161,1.161,0,0,0-.332-.851A1.405,1.405,0,0,0,73.6,8.563a1.436,1.436,0,0,0-.938.274.865.865,0,0,0-.332.7.739.739,0,0,0,.378.643,3.885,3.885,0,0,0,1.274.423,10.407,10.407,0,0,1,1.511.4,2.482,2.482,0,0,1,1.9,2.416,2.343,2.343,0,0,1-1.054,1.988,4.548,4.548,0,0,1-2.723.76,4.75,4.75,0,0,1-2-.4,3.363,3.363,0,0,1-1.374-1.1,2.565,2.565,0,0,1-.5-1.515h2.274a1.252,1.252,0,0,0,.473.979,1.877,1.877,0,0,0,1.179.34,1.737,1.737,0,0,0,1.042-.261A.814.814,0,0,0,75.059,13.518Zm6.749-8.708V7.019h1.536v1.76H81.808v4.482a1.07,1.07,0,0,0,.191.714.959.959,0,0,0,.73.216,3.826,3.826,0,0,0,.706-.058V15.95a4.938,4.938,0,0,1-1.453.216,2.29,2.29,0,0,1-2.573-2.548V8.778H78.1V7.019h1.312V4.811Zm2.25,6.616a5.326,5.326,0,0,1,.515-2.382,3.768,3.768,0,0,1,1.482-1.619A4.323,4.323,0,0,1,88.3,6.853a4.09,4.09,0,0,1,2.968,1.112,4.464,4.464,0,0,1,1.282,3.021l.017.614a4.694,4.694,0,0,1-1.154,3.316,4.472,4.472,0,0,1-6.2,0,4.777,4.777,0,0,1-1.158-3.387Zm2.4.17a3.357,3.357,0,0,0,.481,1.958,1.73,1.73,0,0,0,2.739.008,3.674,3.674,0,0,0,.49-2.141,3.324,3.324,0,0,0-.49-1.945,1.592,1.592,0,0,0-1.378-.69,1.566,1.566,0,0,0-1.361.686A3.736,3.736,0,0,0,86.456,11.6ZM103.481,16a2.664,2.664,0,0,1-.241-.805,2.9,2.9,0,0,1-2.266.971,3.189,3.189,0,0,1-2.187-.764,2.456,2.456,0,0,1-.867-1.926,2.538,2.538,0,0,1,1.058-2.191,5.222,5.222,0,0,1,3.059-.772h1.1V10a1.48,1.48,0,0,0-.32-1,1.257,1.257,0,0,0-1.009-.374,1.429,1.429,0,0,0-.95.291.987.987,0,0,0-.344.8h-2.4A2.41,2.41,0,0,1,98.6,8.272,3.182,3.182,0,0,1,99.961,7.23a4.961,4.961,0,0,1,1.976-.378,3.92,3.92,0,0,1,2.635.834,2.918,2.918,0,0,1,.975,2.345v3.893a4.294,4.294,0,0,0,.357,1.934V16ZM101.5,14.332a2.066,2.066,0,0,0,.979-.237,1.554,1.554,0,0,0,.664-.635V11.916h-.9q-1.8,0-1.917,1.245l-.008.141a.96.96,0,0,0,.315.739A1.225,1.225,0,0,0,101.5,14.332ZM114.156,16h-2.407V3.25h2.407Zm1.6-4.574a5.326,5.326,0,0,1,.515-2.382,3.768,3.768,0,0,1,1.482-1.619A4.323,4.323,0,0,1,120,6.853a4.09,4.09,0,0,1,2.968,1.112,4.464,4.464,0,0,1,1.282,3.021l.017.614a4.694,4.694,0,0,1-1.154,3.316,4.472,4.472,0,0,1-6.2,0,4.777,4.777,0,0,1-1.158-3.387Zm2.4.17a3.357,3.357,0,0,0,.481,1.958,1.73,1.73,0,0,0,2.739.008,3.674,3.674,0,0,0,.49-2.141,3.324,3.324,0,0,0-.49-1.945A1.592,1.592,0,0,0,120,8.787a1.566,1.566,0,0,0-1.361.686A3.736,3.736,0,0,0,118.157,11.6Zm12.451,1.922a.773.773,0,0,0-.436-.693,4.95,4.95,0,0,0-1.4-.452q-3.2-.672-3.2-2.723a2.468,2.468,0,0,1,.992-2,4,4,0,0,1,2.594-.8,4.307,4.307,0,0,1,2.735.805,2.538,2.538,0,0,1,1.025,2.092h-2.4a1.161,1.161,0,0,0-.332-.851,1.405,1.405,0,0,0-1.038-.336,1.436,1.436,0,0,0-.938.274.865.865,0,0,0-.332.7.739.739,0,0,0,.378.643,3.885,3.885,0,0,0,1.274.423,10.407,10.407,0,0,1,1.511.4,2.482,2.482,0,0,1,1.9,2.416,2.343,2.343,0,0,1-1.054,1.988,4.548,4.548,0,0,1-2.723.76,4.75,4.75,0,0,1-2-.4,3.363,3.363,0,0,1-1.374-1.1,2.565,2.565,0,0,1-.5-1.515h2.274a1.252,1.252,0,0,0,.473.979,1.877,1.877,0,0,0,1.179.34,1.737,1.737,0,0,0,1.042-.261A.814.814,0,0,0,130.608,13.518ZM138.875,16V3.914h3.719a5.647,5.647,0,0,1,2.851.718,5.007,5.007,0,0,1,1.963,2.042,6.3,6.3,0,0,1,.706,3.009v.556a6.316,6.316,0,0,1-.693,3,4.964,4.964,0,0,1-1.955,2.034,5.69,5.69,0,0,1-2.847.73Zm2.49-10.069V14h1.2a2.7,2.7,0,0,0,2.233-.955,4.314,4.314,0,0,0,.789-2.731V9.675a4.382,4.382,0,0,0-.764-2.793,2.7,2.7,0,0,0-2.233-.95ZM152.3,16h-2.407V7.019H152.3ZM149.75,4.694a1.181,1.181,0,0,1,.361-.888,1.556,1.556,0,0,1,1.963,0,1.175,1.175,0,0,1,.365.888,1.178,1.178,0,0,1-.369.9,1.539,1.539,0,0,1-1.951,0A1.178,1.178,0,0,1,149.75,4.694Zm7.886,8.375L159.3,7.019h2.507L158.781,16H156.49l-3.03-8.981h2.507ZM165.4,16h-2.407V7.019H165.4ZM162.848,4.694a1.181,1.181,0,0,1,.361-.888,1.556,1.556,0,0,1,1.963,0,1.175,1.175,0,0,1,.365.888,1.178,1.178,0,0,1-.369.9,1.539,1.539,0,0,1-1.951,0A1.178,1.178,0,0,1,162.848,4.694ZM167,11.443a5.413,5.413,0,0,1,.942-3.345,3.057,3.057,0,0,1,2.577-1.245,2.751,2.751,0,0,1,2.167.979V3.25h2.407V16h-2.167l-.116-.955a2.823,2.823,0,0,1-2.308,1.121,3.049,3.049,0,0,1-2.544-1.249A5.587,5.587,0,0,1,167,11.443Zm2.4.179a3.546,3.546,0,0,0,.44,1.937,1.433,1.433,0,0,0,1.278.673,1.605,1.605,0,0,0,1.569-.939V9.743a1.582,1.582,0,0,0-1.552-.939Q169.4,8.8,169.4,11.621Zm11.688,4.545a4.409,4.409,0,0,1-3.217-1.212,4.308,4.308,0,0,1-1.241-3.229v-.232a5.426,5.426,0,0,1,.523-2.42,3.838,3.838,0,0,1,1.482-1.644,4.159,4.159,0,0,1,2.187-.577,3.727,3.727,0,0,1,2.9,1.162,4.722,4.722,0,0,1,1.058,3.3v.979H179.06a2.228,2.228,0,0,0,.7,1.411,2.12,2.12,0,0,0,1.482.531,2.589,2.589,0,0,0,2.167-1l1.179,1.32a3.6,3.6,0,0,1-1.461,1.191A4.793,4.793,0,0,1,181.085,16.166Zm-.274-7.379a1.5,1.5,0,0,0-1.158.484,2.5,2.5,0,0,0-.569,1.384h3.337v-.192a1.786,1.786,0,0,0-.432-1.238A1.547,1.547,0,0,0,180.811,8.787Zm7.537-1.768.075,1.038A3.136,3.136,0,0,1,191,6.853a2.606,2.606,0,0,1,2.125.838,3.912,3.912,0,0,1,.714,2.507V16h-2.4V10.256a1.556,1.556,0,0,0-.332-1.108,1.486,1.486,0,0,0-1.1-.344,1.65,1.65,0,0,0-1.519.863V16h-2.4V7.019Zm6.939,4.424A5.413,5.413,0,0,1,196.23,8.1a3.057,3.057,0,0,1,2.577-1.245,2.751,2.751,0,0,1,2.167.979V3.25h2.407V16h-2.167l-.116-.955a2.823,2.823,0,0,1-2.308,1.121,3.049,3.049,0,0,1-2.544-1.249A5.587,5.587,0,0,1,195.288,11.443Zm2.4.179a3.546,3.546,0,0,0,.44,1.937,1.433,1.433,0,0,0,1.278.673,1.605,1.605,0,0,0,1.569-.939V9.743a1.582,1.582,0,0,0-1.552-.939Q197.687,8.8,197.687,11.621Zm7.18-.2a5.327,5.327,0,0,1,.515-2.382,3.767,3.767,0,0,1,1.482-1.619,4.323,4.323,0,0,1,2.245-.573,4.09,4.09,0,0,1,2.968,1.112,4.464,4.464,0,0,1,1.282,3.021l.017.614a4.694,4.694,0,0,1-1.154,3.316,4.472,4.472,0,0,1-6.2,0,4.777,4.777,0,0,1-1.158-3.387Zm2.4.17a3.357,3.357,0,0,0,.481,1.958,1.73,1.73,0,0,0,2.739.008,3.674,3.674,0,0,0,.49-2.141,3.324,3.324,0,0,0-.49-1.945,1.592,1.592,0,0,0-1.378-.69,1.566,1.566,0,0,0-1.361.686A3.735,3.735,0,0,0,207.266,11.6Zm12.451,1.922a.773.773,0,0,0-.436-.693,4.95,4.95,0,0,0-1.4-.452q-3.2-.672-3.2-2.723a2.468,2.468,0,0,1,.992-2,4,4,0,0,1,2.594-.8A4.307,4.307,0,0,1,221,7.658a2.538,2.538,0,0,1,1.025,2.092h-2.4a1.161,1.161,0,0,0-.332-.851,1.405,1.405,0,0,0-1.038-.336,1.436,1.436,0,0,0-.938.274.865.865,0,0,0-.332.7.739.739,0,0,0,.378.643,3.885,3.885,0,0,0,1.274.423,10.407,10.407,0,0,1,1.511.4,2.482,2.482,0,0,1,1.9,2.416A2.343,2.343,0,0,1,221,15.406a4.548,4.548,0,0,1-2.723.76,4.75,4.75,0,0,1-2-.4,3.363,3.363,0,0,1-1.374-1.1,2.565,2.565,0,0,1-.5-1.515h2.274a1.252,1.252,0,0,0,.473.979,1.877,1.877,0,0,0,1.179.34,1.737,1.737,0,0,0,1.042-.261A.814.814,0,0,0,219.717,13.518Z" transform="translate(-1879.928 -4993)" fill="#12263f"/>
      </g>
      <g id="Grupo_1072253" data-name="Grupo 1072253" transform="translate(-2716 -4758.778)">
        <g id="Grupo_1072229-2" data-name="Grupo 1072229" transform="translate(0 0)">
          <path id="Trazado_609535" data-name="Trazado 609535" d="M0,0H129.76V138.125H0Z" transform="translate(0 0.5)" fill="#dbe5f3"/>
          <g id="Grupo_1072225-2" data-name="Grupo 1072225">
            <g id="Grupo_871603-3" data-name="Grupo 871603">
              <g id="Grupo_870556-3" data-name="Grupo 870556">
                <g id="Grupo_870549-3" data-name="Grupo 870549" transform="translate(28.705 30.636) rotate(-180)">
                  <path id="Trazado_213855-3" data-name="Trazado 213855" d="M0,0,3.93,3.368V27.361H0Z" transform="translate(24.775 0)" fill="#03386e"/>
                  <path id="Trazado_213856-3" data-name="Trazado 213856" d="M0,28.7l3.93-3.588V0H0Z" transform="translate(28.705 26.706) rotate(90)" fill="#03386e"/>
                </g>
              </g>
            </g>
          </g>
        </g>
        <path id="Trazado_609615" data-name="Trazado 609615" d="M11.65,10.6H6.686v3.719h5.8V16h-7.9V3.914H12.43V5.607H6.686V8.944H11.65Zm4.225-3.586.058,1.038a3.229,3.229,0,0,1,2.615-1.2q2.806,0,2.855,3.212V16H19.386V10.181a1.85,1.85,0,0,0-.369-1.266A1.554,1.554,0,0,0,17.809,8.5a1.944,1.944,0,0,0-1.818,1.1V16H13.974V7.019Zm10.11-2.183V7.019h1.585V8.513H25.985v5.014a1.1,1.1,0,0,0,.2.743.943.943,0,0,0,.726.228,3.107,3.107,0,0,0,.706-.083v1.561a4.968,4.968,0,0,1-1.328.191q-2.324,0-2.324-2.565V8.513H22.49V7.019h1.478V4.835Zm7.828,4.026a4.991,4.991,0,0,0-.822-.066,1.85,1.85,0,0,0-1.868,1.063V16H29.106V7.019h1.926l.05,1a2.273,2.273,0,0,1,2.025-1.17,1.888,1.888,0,0,1,.714.116Zm5.072,7.3a4.173,4.173,0,0,1-3.109-1.208,4.381,4.381,0,0,1-1.191-3.217v-.249a5.389,5.389,0,0,1,.519-2.4A3.949,3.949,0,0,1,36.56,7.442a3.851,3.851,0,0,1,2.092-.589,3.525,3.525,0,0,1,2.835,1.17,4.949,4.949,0,0,1,1,3.312v.813H36.618a2.7,2.7,0,0,0,.743,1.76A2.23,2.23,0,0,0,39,14.556a2.731,2.731,0,0,0,2.258-1.121l1.087,1.038a3.631,3.631,0,0,1-1.44,1.249A4.509,4.509,0,0,1,38.885,16.166Zm-.241-7.695a1.7,1.7,0,0,0-1.341.581,3.012,3.012,0,0,0-.652,1.619h3.843v-.149a2.452,2.452,0,0,0-.54-1.531A1.686,1.686,0,0,0,38.644,8.471Zm17.39,2.44a6.591,6.591,0,0,1-.975,3.93,3.445,3.445,0,0,1-2.968,1.324,3.49,3.49,0,0,1-2.951-1.291,6.311,6.311,0,0,1-1.017-3.823V8.961a6.492,6.492,0,0,1,.975-3.91,4.066,4.066,0,0,1,5.935-.033,6.294,6.294,0,0,1,1,3.8ZM54.017,8.654a5.114,5.114,0,0,0-.465-2.494,1.777,1.777,0,0,0-2.93-.042,4.726,4.726,0,0,0-.49,2.345V11.2a5.246,5.246,0,0,0,.473,2.523,1.589,1.589,0,0,0,1.486.83,1.561,1.561,0,0,0,1.436-.768,4.936,4.936,0,0,0,.49-2.4Zm11.306,4.458,1.826-6.093H69.3L65.729,17.361a2.9,2.9,0,0,1-2.789,2.266,3.6,3.6,0,0,1-.971-.15V17.909l.382.025a1.964,1.964,0,0,0,1.15-.278,1.842,1.842,0,0,0,.61-.933l.291-.771L61.247,7.019h2.175ZM76.894,9.036h1.229A2.2,2.2,0,0,0,79.6,8.554a1.718,1.718,0,0,0,.544-1.37,1.872,1.872,0,0,0-.452-1.341A1.821,1.821,0,0,0,78.3,5.367a1.926,1.926,0,0,0-1.336.469,1.567,1.567,0,0,0-.523,1.224H74.428a3.053,3.053,0,0,1,.494-1.693A3.318,3.318,0,0,1,76.3,4.176a4.489,4.489,0,0,1,1.98-.427,4.157,4.157,0,0,1,2.843.909,3.19,3.19,0,0,1,1.033,2.528,2.568,2.568,0,0,1-.519,1.531A3.253,3.253,0,0,1,80.3,9.8a2.965,2.965,0,0,1,1.515,1.071,2.932,2.932,0,0,1,.519,1.743,3.246,3.246,0,0,1-1.116,2.59,4.9,4.9,0,0,1-5.79.033,3.062,3.062,0,0,1-1.112-2.474h2.017a1.687,1.687,0,0,0,.535,1.295,2.03,2.03,0,0,0,1.44.5,2.094,2.094,0,0,0,1.478-.5,1.868,1.868,0,0,0,.54-1.444,1.887,1.887,0,0,0-.564-1.469,2.413,2.413,0,0,0-1.677-.515H76.894ZM92.1,10.912a6.591,6.591,0,0,1-.975,3.93,3.445,3.445,0,0,1-2.968,1.324,3.49,3.49,0,0,1-2.951-1.291,6.312,6.312,0,0,1-1.017-3.823V8.961a6.492,6.492,0,0,1,.975-3.91A4.066,4.066,0,0,1,91.1,5.018a6.294,6.294,0,0,1,1,3.8ZM90.084,8.654a5.114,5.114,0,0,0-.465-2.494,1.777,1.777,0,0,0-2.93-.042,4.726,4.726,0,0,0-.49,2.345V11.2a5.246,5.246,0,0,0,.473,2.523,1.589,1.589,0,0,0,1.486.83,1.561,1.561,0,0,0,1.436-.768,4.936,4.936,0,0,0,.49-2.4Zm11.679,2.258a6.591,6.591,0,0,1-.975,3.93,3.445,3.445,0,0,1-2.968,1.324,3.49,3.49,0,0,1-2.951-1.291,6.312,6.312,0,0,1-1.017-3.823V8.961a6.492,6.492,0,0,1,.975-3.91,4.066,4.066,0,0,1,5.935-.033,6.294,6.294,0,0,1,1,3.8ZM99.746,8.654a5.114,5.114,0,0,0-.465-2.494,1.777,1.777,0,0,0-2.93-.042,4.726,4.726,0,0,0-.49,2.345V11.2a5.246,5.246,0,0,0,.473,2.523,1.589,1.589,0,0,0,1.486.83,1.561,1.561,0,0,0,1.436-.768,4.936,4.936,0,0,0,.49-2.4ZM15.92,28.914v8.077a3.925,3.925,0,0,1-1.233,3.051A4.682,4.682,0,0,1,11.4,41.166a4.716,4.716,0,0,1-3.3-1.108,3.944,3.944,0,0,1-1.22-3.075V28.914H8.981V37A2.568,2.568,0,0,0,9.6,38.85a2.4,2.4,0,0,0,1.81.639q2.424,0,2.424-2.557V28.914Zm6.5,9.455,3.071-9.455H27.8L23.449,41H21.416L17.083,28.914h2.3Zm15.473-7.761H34.124V41H32.041V30.607H28.305V28.914h9.587ZM45.164,41H43.147V28.25h2.017Zm7.562,0a3.113,3.113,0,0,1-.232-.838,3.393,3.393,0,0,1-4.565.232,2.47,2.47,0,0,1-.855-1.909,2.55,2.55,0,0,1,1.067-2.2,5.169,5.169,0,0,1,3.051-.768h1.237v-.589a1.573,1.573,0,0,0-.39-1.116,1.547,1.547,0,0,0-1.187-.419,1.777,1.777,0,0,0-1.129.344,1.066,1.066,0,0,0-.44.876H47.264a2.239,2.239,0,0,1,.49-1.382,3.263,3.263,0,0,1,1.332-1.009,4.68,4.68,0,0,1,1.88-.365,3.769,3.769,0,0,1,2.515.793,2.827,2.827,0,0,1,.963,2.229v4.051a4.591,4.591,0,0,0,.34,1.934V41ZM50.51,39.547a2.294,2.294,0,0,0,1.125-.291,1.941,1.941,0,0,0,.793-.78V36.783H51.34a2.973,2.973,0,0,0-1.685.39,1.264,1.264,0,0,0-.564,1.1,1.179,1.179,0,0,0,.386.926A1.5,1.5,0,0,0,50.51,39.547Zm12.808-9.712v2.183H64.9v1.494H63.318v5.014a1.1,1.1,0,0,0,.2.743.943.943,0,0,0,.726.228,3.107,3.107,0,0,0,.706-.083v1.561a4.968,4.968,0,0,1-1.328.191q-2.324,0-2.324-2.565V33.513H59.823V32.019H61.3V29.835ZM71.81,41a3.113,3.113,0,0,1-.232-.838,3.393,3.393,0,0,1-4.565.232,2.47,2.47,0,0,1-.855-1.909,2.55,2.55,0,0,1,1.067-2.2,5.169,5.169,0,0,1,3.051-.768h1.237v-.589a1.573,1.573,0,0,0-.39-1.116,1.547,1.547,0,0,0-1.187-.419,1.777,1.777,0,0,0-1.129.344,1.066,1.066,0,0,0-.44.876H66.348a2.239,2.239,0,0,1,.49-1.382,3.263,3.263,0,0,1,1.332-1.009,4.68,4.68,0,0,1,1.88-.365,3.769,3.769,0,0,1,2.515.793,2.827,2.827,0,0,1,.963,2.229v4.051a4.591,4.591,0,0,0,.34,1.934V41Zm-2.216-1.453a2.294,2.294,0,0,0,1.125-.291,1.941,1.941,0,0,0,.793-.78V36.783H70.423a2.973,2.973,0,0,0-1.685.39,1.264,1.264,0,0,0-.564,1.1,1.179,1.179,0,0,0,.386.926A1.5,1.5,0,0,0,69.593,39.547Zm10.75-5.686a4.992,4.992,0,0,0-.822-.066,1.85,1.85,0,0,0-1.868,1.063V41H75.636V32.019h1.926l.05,1a2.273,2.273,0,0,1,2.025-1.17,1.888,1.888,0,0,1,.714.116ZM83.763,41H81.746V32.019h2.017ZM81.621,29.686a1.071,1.071,0,0,1,.295-.772,1.113,1.113,0,0,1,.843-.307,1.127,1.127,0,0,1,.847.307,1.062,1.062,0,0,1,.3.772,1.038,1.038,0,0,1-.3.76,1.136,1.136,0,0,1-.847.3,1.122,1.122,0,0,1-.843-.3A1.046,1.046,0,0,1,81.621,29.686ZM86.668,41V33.513H85.3V32.019h1.37V31.2a3.085,3.085,0,0,1,.83-2.308,3.18,3.18,0,0,1,2.324-.813,4.662,4.662,0,0,1,1.129.149L90.9,29.8a3.973,3.973,0,0,0-.772-.066,1.3,1.3,0,0,0-1.444,1.486v.8h1.826v1.494H88.685V41Zm10.683,0a3.113,3.113,0,0,1-.232-.838,3.393,3.393,0,0,1-4.565.232,2.47,2.47,0,0,1-.855-1.909,2.55,2.55,0,0,1,1.067-2.2,5.169,5.169,0,0,1,3.051-.768h1.237v-.589a1.573,1.573,0,0,0-.39-1.116,1.547,1.547,0,0,0-1.187-.419,1.777,1.777,0,0,0-1.129.344,1.066,1.066,0,0,0-.44.876H91.889a2.239,2.239,0,0,1,.49-1.382,3.263,3.263,0,0,1,1.332-1.009,4.68,4.68,0,0,1,1.88-.365,3.769,3.769,0,0,1,2.515.793,2.827,2.827,0,0,1,.963,2.229v4.051a4.591,4.591,0,0,0,.34,1.934V41Zm-2.216-1.453a2.294,2.294,0,0,0,1.125-.291,1.941,1.941,0,0,0,.793-.78V36.783H95.965a2.973,2.973,0,0,0-1.685.39,1.264,1.264,0,0,0-.564,1.1,1.179,1.179,0,0,0,.386.926A1.5,1.5,0,0,0,95.135,39.547Zm-64.9,26.619a4.173,4.173,0,0,1-3.109-1.208,4.381,4.381,0,0,1-1.191-3.217v-.249a5.389,5.389,0,0,1,.519-2.4,3.949,3.949,0,0,1,1.457-1.648A3.851,3.851,0,0,1,30,56.853a3.525,3.525,0,0,1,2.835,1.17,4.949,4.949,0,0,1,1,3.312v.813H27.969a2.7,2.7,0,0,0,.743,1.76,2.23,2.23,0,0,0,1.639.647,2.731,2.731,0,0,0,2.258-1.121L33.7,64.473a3.631,3.631,0,0,1-1.44,1.249A4.509,4.509,0,0,1,30.235,66.166Zm-.241-7.695a1.7,1.7,0,0,0-1.341.581A3.012,3.012,0,0,0,28,60.671h3.843v-.149a2.452,2.452,0,0,0-.54-1.531A1.686,1.686,0,0,0,29.994,58.471ZM40.437,63.56a.914.914,0,0,0-.444-.822,4.723,4.723,0,0,0-1.473-.5,7.574,7.574,0,0,1-1.718-.548,2.293,2.293,0,0,1-1.511-2.117,2.391,2.391,0,0,1,.979-1.942,3.872,3.872,0,0,1,2.49-.78,4.029,4.029,0,0,1,2.6.8,2.529,2.529,0,0,1,.992,2.067H40.337a1.243,1.243,0,0,0-.432-.967,1.654,1.654,0,0,0-1.146-.386,1.787,1.787,0,0,0-1.083.307.968.968,0,0,0-.419.822.818.818,0,0,0,.39.722,5.365,5.365,0,0,0,1.577.519,7.466,7.466,0,0,1,1.864.623,2.639,2.639,0,0,1,1,.867,2.212,2.212,0,0,1,.328,1.229,2.34,2.34,0,0,1-1,1.963,4.283,4.283,0,0,1-2.631.751,4.644,4.644,0,0,1-1.967-.4,3.238,3.238,0,0,1-1.345-1.1,2.594,2.594,0,0,1-.481-1.5H36.95a1.421,1.421,0,0,0,.54,1.1,2.1,2.1,0,0,0,1.32.386,2.04,2.04,0,0,0,1.212-.3A.938.938,0,0,0,40.437,63.56Zm11.663,1a1.824,1.824,0,0,0,1.253-.44,1.5,1.5,0,0,0,.531-1.087h1.9a2.963,2.963,0,0,1-.523,1.565,3.43,3.43,0,0,1-1.328,1.15,3.958,3.958,0,0,1-1.81.423,3.829,3.829,0,0,1-2.988-1.22,4.84,4.84,0,0,1-1.1-3.37v-.208a4.759,4.759,0,0,1,1.1-3.283,3.8,3.8,0,0,1,2.988-1.233,3.69,3.69,0,0,1,2.611.934,3.345,3.345,0,0,1,1.058,2.453h-1.9a1.847,1.847,0,0,0-.527-1.27,1.7,1.7,0,0,0-1.258-.5,1.775,1.775,0,0,0-1.511.71,3.621,3.621,0,0,0-.54,2.154v.324a3.682,3.682,0,0,0,.527,2.179A1.774,1.774,0,0,0,52.1,64.556Zm9.164,1.61a4.173,4.173,0,0,1-3.109-1.208,4.381,4.381,0,0,1-1.191-3.217v-.249a5.389,5.389,0,0,1,.519-2.4,3.949,3.949,0,0,1,1.457-1.648,3.851,3.851,0,0,1,2.092-.589,3.525,3.525,0,0,1,2.835,1.17,4.949,4.949,0,0,1,1,3.312v.813H59a2.7,2.7,0,0,0,.743,1.76,2.23,2.23,0,0,0,1.639.647,2.731,2.731,0,0,0,2.258-1.121l1.087,1.038a3.631,3.631,0,0,1-1.44,1.249A4.509,4.509,0,0,1,61.263,66.166Zm-.241-7.695a1.7,1.7,0,0,0-1.341.581,3.012,3.012,0,0,0-.652,1.619h3.843v-.149a2.452,2.452,0,0,0-.54-1.531A1.686,1.686,0,0,0,61.023,58.471Zm10.11.39a4.992,4.992,0,0,0-.822-.066,1.85,1.85,0,0,0-1.868,1.063V66H66.427V57.019h1.926l.05,1a2.273,2.273,0,0,1,2.025-1.17,1.888,1.888,0,0,1,.714.116Zm.6,2.565a5.3,5.3,0,0,1,.523-2.378,3.819,3.819,0,0,1,1.469-1.627,4.14,4.14,0,0,1,2.175-.569,3.923,3.923,0,0,1,2.951,1.17,4.6,4.6,0,0,1,1.224,3.1l.008.473a5.343,5.343,0,0,1-.51,2.374,3.773,3.773,0,0,1-1.461,1.619,4.17,4.17,0,0,1-2.2.573A3.9,3.9,0,0,1,72.872,64.9a4.848,4.848,0,0,1-1.141-3.374Zm2.017.174a3.619,3.619,0,0,0,.573,2.171,1.862,1.862,0,0,0,1.594.784,1.842,1.842,0,0,0,1.59-.8,4,4,0,0,0,.569-2.333,3.572,3.572,0,0,0-.585-2.158,1.973,1.973,0,0,0-3.158-.012A3.922,3.922,0,0,0,73.748,61.6Z" transform="translate(11.88 38.628)" fill="#12263f"/>
      </g>
      <g id="Grupo_1072254" data-name="Grupo 1072254" transform="translate(-2570.98 -4758.778)">
        <g id="Grupo_1072229-3" data-name="Grupo 1072229" transform="translate(0 0)">
          <path id="Trazado_609535-2" data-name="Trazado 609535" d="M0,0H228.985V138.4H0Z" transform="translate(0 0.5)" fill="#e4efff"/>
          <g id="Grupo_1072225-3" data-name="Grupo 1072225">
            <g id="Grupo_871603-4" data-name="Grupo 871603">
              <g id="Grupo_870556-4" data-name="Grupo 870556">
                <g id="Grupo_870549-4" data-name="Grupo 870549" transform="translate(28.705 30.636) rotate(-180)">
                  <path id="Trazado_213855-4" data-name="Trazado 213855" d="M0,0,3.93,3.368V27.361H0Z" transform="translate(24.775 0)" fill="#03386e"/>
                  <path id="Trazado_213856-4" data-name="Trazado 213856" d="M0,28.7l3.93-3.588V0H0Z" transform="translate(28.705 26.706) rotate(90)" fill="#03386e"/>
                </g>
              </g>
            </g>
          </g>
        </g>
        <path id="Trazado_609614" data-name="Trazado 609614" d="M2.385,16V3.914H5.955A5.6,5.6,0,0,1,8.8,4.628a4.868,4.868,0,0,1,1.922,2.025,6.429,6.429,0,0,1,.681,3v.606a6.4,6.4,0,0,1-.685,3.021,4.809,4.809,0,0,1-1.951,2.009,5.858,5.858,0,0,1-2.9.706Zm2.1-10.393v8.716h1.37A3.154,3.154,0,0,0,8.391,13.29a4.5,4.5,0,0,0,.9-2.968V9.65a4.619,4.619,0,0,0-.855-3A3.031,3.031,0,0,0,5.955,5.607ZM17.252,16.166a4.173,4.173,0,0,1-3.109-1.208,4.381,4.381,0,0,1-1.191-3.217v-.249a5.389,5.389,0,0,1,.519-2.4,3.949,3.949,0,0,1,1.457-1.648,3.851,3.851,0,0,1,2.092-.589,3.525,3.525,0,0,1,2.835,1.17,4.949,4.949,0,0,1,1,3.312v.813H14.986a2.7,2.7,0,0,0,.743,1.76,2.23,2.23,0,0,0,1.639.647,2.731,2.731,0,0,0,2.258-1.121l1.087,1.038a3.631,3.631,0,0,1-1.44,1.249A4.509,4.509,0,0,1,17.252,16.166Zm-.241-7.695a1.7,1.7,0,0,0-1.341.581,3.012,3.012,0,0,0-.652,1.619h3.843v-.149a2.452,2.452,0,0,0-.54-1.531A1.686,1.686,0,0,0,17.011,8.471Zm11.845.564h1.229a2.2,2.2,0,0,0,1.473-.481,1.718,1.718,0,0,0,.544-1.37,1.872,1.872,0,0,0-.452-1.341,1.821,1.821,0,0,0-1.382-.477,1.926,1.926,0,0,0-1.336.469,1.567,1.567,0,0,0-.523,1.224H26.391a3.053,3.053,0,0,1,.494-1.693,3.318,3.318,0,0,1,1.378-1.191,4.489,4.489,0,0,1,1.98-.427,4.157,4.157,0,0,1,2.843.909,3.19,3.19,0,0,1,1.033,2.528A2.568,2.568,0,0,1,33.6,8.716,3.253,3.253,0,0,1,32.26,9.8a2.965,2.965,0,0,1,1.515,1.071,2.932,2.932,0,0,1,.519,1.743,3.246,3.246,0,0,1-1.116,2.59,4.335,4.335,0,0,1-2.934.963,4.3,4.3,0,0,1-2.855-.93,3.062,3.062,0,0,1-1.112-2.474h2.017a1.687,1.687,0,0,0,.535,1.295,2.03,2.03,0,0,0,1.44.5,2.094,2.094,0,0,0,1.478-.5,1.868,1.868,0,0,0,.54-1.444,1.887,1.887,0,0,0-.564-1.469,2.413,2.413,0,0,0-1.677-.515H28.857Zm15.207,1.876a6.591,6.591,0,0,1-.975,3.93,3.445,3.445,0,0,1-2.968,1.324,3.49,3.49,0,0,1-2.951-1.291,6.311,6.311,0,0,1-1.017-3.823V8.961a6.492,6.492,0,0,1,.975-3.91,3.477,3.477,0,0,1,2.976-1.3,3.5,3.5,0,0,1,2.959,1.27,6.294,6.294,0,0,1,1,3.8ZM42.047,8.654a5.114,5.114,0,0,0-.465-2.494,1.777,1.777,0,0,0-2.93-.042,4.726,4.726,0,0,0-.49,2.345V11.2a5.246,5.246,0,0,0,.473,2.523,1.589,1.589,0,0,0,1.486.83,1.561,1.561,0,0,0,1.436-.768,4.936,4.936,0,0,0,.49-2.4Zm11.679,2.258a6.591,6.591,0,0,1-.975,3.93,3.445,3.445,0,0,1-2.968,1.324,3.49,3.49,0,0,1-2.951-1.291,6.311,6.311,0,0,1-1.017-3.823V8.961a6.492,6.492,0,0,1,.975-3.91,3.477,3.477,0,0,1,2.976-1.3,3.5,3.5,0,0,1,2.959,1.27,6.294,6.294,0,0,1,1,3.8ZM51.709,8.654a5.114,5.114,0,0,0-.465-2.494,1.777,1.777,0,0,0-2.93-.042,4.726,4.726,0,0,0-.49,2.345V11.2a5.246,5.246,0,0,0,.473,2.523,1.589,1.589,0,0,0,1.486.83,1.561,1.561,0,0,0,1.436-.768,4.936,4.936,0,0,0,.49-2.4Zm17.2-4.74v8.077a3.925,3.925,0,0,1-1.233,3.051,5.4,5.4,0,0,1-6.578.017,3.944,3.944,0,0,1-1.22-3.075V3.914h2.092V12a2.568,2.568,0,0,0,.614,1.851,2.4,2.4,0,0,0,1.81.639q2.424,0,2.424-2.557V3.914Zm6.5,9.455,3.071-9.455h2.308L76.437,16H74.4L70.07,3.914h2.3ZM90.88,5.607H87.112V16H85.028V5.607H81.293V3.914H90.88Zm9.081,10.559a4.173,4.173,0,0,1-3.109-1.208,4.381,4.381,0,0,1-1.191-3.217v-.249a5.389,5.389,0,0,1,.519-2.4,3.949,3.949,0,0,1,1.457-1.648,3.851,3.851,0,0,1,2.092-.589,3.525,3.525,0,0,1,2.835,1.17,4.949,4.949,0,0,1,1,3.312v.813H97.7a2.7,2.7,0,0,0,.743,1.76,2.23,2.23,0,0,0,1.639.647,2.731,2.731,0,0,0,2.258-1.121l1.087,1.038a3.631,3.631,0,0,1-1.44,1.249A4.509,4.509,0,0,1,99.961,16.166ZM99.72,8.471a1.7,1.7,0,0,0-1.341.581,3.012,3.012,0,0,0-.652,1.619h3.843v-.149a2.452,2.452,0,0,0-.54-1.531A1.686,1.686,0,0,0,99.72,8.471ZM107,7.019l.058,1.038a3.229,3.229,0,0,1,2.615-1.2q2.806,0,2.855,3.212V16h-2.017V10.181a1.85,1.85,0,0,0-.369-1.266,1.554,1.554,0,0,0-1.208-.411,1.944,1.944,0,0,0-1.818,1.1V16H105.1V7.019ZM124.183,16a3.113,3.113,0,0,1-.232-.838,3.393,3.393,0,0,1-4.565.232,2.47,2.47,0,0,1-.855-1.909,2.55,2.55,0,0,1,1.067-2.2,5.169,5.169,0,0,1,3.051-.768h1.237V9.924a1.573,1.573,0,0,0-.39-1.116,1.547,1.547,0,0,0-1.187-.419,1.777,1.777,0,0,0-1.129.344,1.066,1.066,0,0,0-.44.876h-2.017a2.239,2.239,0,0,1,.49-1.382,3.263,3.263,0,0,1,1.332-1.009,4.68,4.68,0,0,1,1.88-.365,3.769,3.769,0,0,1,2.515.793,2.827,2.827,0,0,1,.963,2.229v4.051a4.591,4.591,0,0,0,.34,1.934V16Zm-2.216-1.453a2.294,2.294,0,0,0,1.125-.291,1.941,1.941,0,0,0,.793-.78V11.783H122.8a2.973,2.973,0,0,0-1.685.39,1.264,1.264,0,0,0-.564,1.1,1.179,1.179,0,0,0,.386.926A1.5,1.5,0,0,0,121.967,14.547Zm5.669-3.1A5.34,5.34,0,0,1,128.6,8.11a3.085,3.085,0,0,1,2.582-1.258,2.931,2.931,0,0,1,2.308,1V3.25h2.017V16h-1.826l-.1-.93a2.973,2.973,0,0,1-2.416,1.1,3.068,3.068,0,0,1-2.552-1.27A5.535,5.535,0,0,1,127.636,11.443Zm2.017.174a3.739,3.739,0,0,0,.527,2.137,1.71,1.71,0,0,0,1.5.768,1.9,1.9,0,0,0,1.81-1.1V9.583A1.876,1.876,0,0,0,131.7,8.5a1.723,1.723,0,0,0-1.511.776A4.163,4.163,0,0,0,129.653,11.617Zm11.912,4.549a4.173,4.173,0,0,1-3.109-1.208,4.381,4.381,0,0,1-1.191-3.217v-.249a5.389,5.389,0,0,1,.519-2.4,3.949,3.949,0,0,1,1.457-1.648,3.851,3.851,0,0,1,2.092-.589,3.525,3.525,0,0,1,2.835,1.17,4.949,4.949,0,0,1,1,3.312v.813H139.3a2.7,2.7,0,0,0,.743,1.76,2.23,2.23,0,0,0,1.639.647,2.731,2.731,0,0,0,2.258-1.121l1.087,1.038a3.631,3.631,0,0,1-1.44,1.249A4.509,4.509,0,0,1,141.565,16.166Zm-.241-7.695a1.7,1.7,0,0,0-1.341.581,3.012,3.012,0,0,0-.652,1.619h3.843v-.149a2.452,2.452,0,0,0-.54-1.531A1.686,1.686,0,0,0,141.324,8.471ZM148.878,16h-2.017V3.25h2.017Zm7.562,0a3.113,3.113,0,0,1-.232-.838,3.393,3.393,0,0,1-4.565.232,2.47,2.47,0,0,1-.855-1.909,2.55,2.55,0,0,1,1.067-2.2,5.169,5.169,0,0,1,3.051-.768h1.237V9.924a1.573,1.573,0,0,0-.39-1.116,1.547,1.547,0,0,0-1.187-.419,1.777,1.777,0,0,0-1.129.344,1.066,1.066,0,0,0-.44.876h-2.017a2.239,2.239,0,0,1,.49-1.382A3.263,3.263,0,0,1,152.8,7.218a4.68,4.68,0,0,1,1.88-.365,3.769,3.769,0,0,1,2.515.793,2.827,2.827,0,0,1,.963,2.229v4.051a4.591,4.591,0,0,0,.34,1.934V16Zm-2.216-1.453a2.294,2.294,0,0,0,1.125-.291,1.941,1.941,0,0,0,.793-.78V11.783h-1.087a2.973,2.973,0,0,0-1.685.39,1.264,1.264,0,0,0-.564,1.1,1.179,1.179,0,0,0,.386.926A1.5,1.5,0,0,0,154.223,14.547Zm7.919-7.529.058,1.038a3.229,3.229,0,0,1,2.615-1.2q2.806,0,2.855,3.212V16h-2.017V10.181a1.85,1.85,0,0,0-.369-1.266,1.554,1.554,0,0,0-1.208-.411,1.944,1.944,0,0,0-1.818,1.1V16h-2.017V7.019Zm10.11-2.183V7.019h1.585V8.513h-1.585v5.014a1.1,1.1,0,0,0,.2.743.943.943,0,0,0,.726.228,3.107,3.107,0,0,0,.706-.083v1.561a4.968,4.968,0,0,1-1.328.191q-2.324,0-2.324-2.565V8.513h-1.478V7.019h1.478V4.835Zm7.081,11.331a4.173,4.173,0,0,1-3.109-1.208,4.381,4.381,0,0,1-1.191-3.217v-.249a5.389,5.389,0,0,1,.519-2.4,3.949,3.949,0,0,1,1.457-1.648,3.851,3.851,0,0,1,2.092-.589,3.525,3.525,0,0,1,2.835,1.17,4.949,4.949,0,0,1,1,3.312v.813h-5.869a2.7,2.7,0,0,0,.743,1.76,2.23,2.23,0,0,0,1.639.647,2.731,2.731,0,0,0,2.258-1.121l1.087,1.038a3.631,3.631,0,0,1-1.44,1.249A4.509,4.509,0,0,1,179.333,16.166Zm-.241-7.695a1.7,1.7,0,0,0-1.341.581,3.012,3.012,0,0,0-.652,1.619h3.843v-.149a2.452,2.452,0,0,0-.54-1.531A1.686,1.686,0,0,0,179.093,8.471Zm6.666,5.4a1.152,1.152,0,0,1,.872.32,1.11,1.11,0,0,1,.307.8,1.071,1.071,0,0,1-.307.784,1.36,1.36,0,0,1-1.727,0,1.053,1.053,0,0,1-.315-.789,1.11,1.11,0,0,1,.307-.8A1.141,1.141,0,0,1,185.758,13.875Zm10.019.448h5.487V16h-7.587V3.914h2.1ZM208.046,16a3.113,3.113,0,0,1-.232-.838,3.393,3.393,0,0,1-4.565.232,2.47,2.47,0,0,1-.855-1.909,2.55,2.55,0,0,1,1.067-2.2,5.169,5.169,0,0,1,3.051-.768h1.237V9.924a1.573,1.573,0,0,0-.39-1.116,1.547,1.547,0,0,0-1.187-.419,1.777,1.777,0,0,0-1.129.344,1.066,1.066,0,0,0-.44.876h-2.017a2.239,2.239,0,0,1,.49-1.382,3.263,3.263,0,0,1,1.332-1.009,4.68,4.68,0,0,1,1.88-.365,3.769,3.769,0,0,1,2.515.793,2.827,2.827,0,0,1,.963,2.229v4.051a4.591,4.591,0,0,0,.34,1.934V16Zm-2.216-1.453a2.294,2.294,0,0,0,1.125-.291,1.941,1.941,0,0,0,.793-.78V11.783h-1.087a2.973,2.973,0,0,0-1.685.39,1.264,1.264,0,0,0-.564,1.1,1.179,1.179,0,0,0,.386.926A1.5,1.5,0,0,0,205.829,14.547ZM9.18,29.835v2.183h1.585v1.494H9.18v5.014a1.1,1.1,0,0,0,.2.743.943.943,0,0,0,.726.228,3.107,3.107,0,0,0,.706-.083v1.561a4.968,4.968,0,0,1-1.328.191q-2.324,0-2.324-2.565V33.513H5.685V32.019H7.163V29.835ZM17.671,41a3.113,3.113,0,0,1-.232-.838,3.14,3.14,0,0,1-2.357,1,3.169,3.169,0,0,1-2.208-.772,2.47,2.47,0,0,1-.855-1.909,2.55,2.55,0,0,1,1.067-2.2,5.169,5.169,0,0,1,3.051-.768h1.237v-.589a1.573,1.573,0,0,0-.39-1.116,1.547,1.547,0,0,0-1.187-.419,1.777,1.777,0,0,0-1.129.344,1.066,1.066,0,0,0-.44.876H12.209a2.239,2.239,0,0,1,.49-1.382,3.263,3.263,0,0,1,1.332-1.009,4.68,4.68,0,0,1,1.88-.365,3.769,3.769,0,0,1,2.515.793,2.827,2.827,0,0,1,.963,2.229v4.051a4.591,4.591,0,0,0,.34,1.934V41Zm-2.216-1.453a2.294,2.294,0,0,0,1.125-.291,1.941,1.941,0,0,0,.793-.78V36.783H16.285a2.973,2.973,0,0,0-1.685.39,1.264,1.264,0,0,0-.564,1.1,1.179,1.179,0,0,0,.386.926A1.5,1.5,0,0,0,15.455,39.547ZM26.2,33.861a4.992,4.992,0,0,0-.822-.066,1.85,1.85,0,0,0-1.868,1.063V41H21.5V32.019h1.926l.05,1a2.273,2.273,0,0,1,2.025-1.17,1.888,1.888,0,0,1,.714.116ZM29.625,41H27.607V32.019h2.017ZM27.483,29.686a1.071,1.071,0,0,1,.295-.772,1.113,1.113,0,0,1,.843-.307,1.127,1.127,0,0,1,.847.307,1.062,1.062,0,0,1,.3.772,1.038,1.038,0,0,1-.3.76,1.136,1.136,0,0,1-.847.3,1.122,1.122,0,0,1-.843-.3A1.046,1.046,0,0,1,27.483,29.686ZM32.53,41V33.513H31.16V32.019h1.37V31.2a3.085,3.085,0,0,1,.83-2.308,3.18,3.18,0,0,1,2.324-.813,4.662,4.662,0,0,1,1.129.149l-.05,1.577a3.973,3.973,0,0,0-.772-.066,1.3,1.3,0,0,0-1.444,1.486v.8h1.826v1.494H34.547V41Zm10.683,0a3.113,3.113,0,0,1-.232-.838,3.393,3.393,0,0,1-4.565.232,2.47,2.47,0,0,1-.855-1.909,2.55,2.55,0,0,1,1.067-2.2,5.169,5.169,0,0,1,3.051-.768h1.237v-.589a1.573,1.573,0,0,0-.39-1.116,1.547,1.547,0,0,0-1.187-.419,1.777,1.777,0,0,0-1.129.344,1.066,1.066,0,0,0-.44.876H37.751a2.239,2.239,0,0,1,.49-1.382,3.263,3.263,0,0,1,1.332-1.009,4.68,4.68,0,0,1,1.88-.365,3.769,3.769,0,0,1,2.515.793,2.827,2.827,0,0,1,.963,2.229v4.051a4.591,4.591,0,0,0,.34,1.934V41ZM41,39.547a2.294,2.294,0,0,0,1.125-.291,1.941,1.941,0,0,0,.793-.78V36.783H41.827a2.973,2.973,0,0,0-1.685.39,1.264,1.264,0,0,0-.564,1.1,1.179,1.179,0,0,0,.386.926A1.5,1.5,0,0,0,41,39.547Zm14.236,1.619a4.173,4.173,0,0,1-3.109-1.208,4.381,4.381,0,0,1-1.191-3.217v-.249a5.389,5.389,0,0,1,.519-2.4,3.949,3.949,0,0,1,1.457-1.648A3.851,3.851,0,0,1,55,31.853a3.525,3.525,0,0,1,2.835,1.17,4.949,4.949,0,0,1,1,3.312v.813H52.966a2.7,2.7,0,0,0,.743,1.76,2.23,2.23,0,0,0,1.639.647,2.731,2.731,0,0,0,2.258-1.121l1.087,1.038a3.631,3.631,0,0,1-1.44,1.249A4.509,4.509,0,0,1,55.232,41.166Zm-.241-7.695a1.7,1.7,0,0,0-1.341.581A3.012,3.012,0,0,0,53,35.671h3.843v-.149a2.452,2.452,0,0,0-.54-1.531A1.686,1.686,0,0,0,54.992,33.471ZM65.434,38.56a.914.914,0,0,0-.444-.822,4.723,4.723,0,0,0-1.473-.5,7.574,7.574,0,0,1-1.718-.548,2.293,2.293,0,0,1-1.511-2.117,2.391,2.391,0,0,1,.979-1.942,3.872,3.872,0,0,1,2.49-.78,4.029,4.029,0,0,1,2.6.8,2.529,2.529,0,0,1,.992,2.067H65.334a1.243,1.243,0,0,0-.432-.967,1.654,1.654,0,0,0-1.146-.386,1.787,1.787,0,0,0-1.083.307.968.968,0,0,0-.419.822.818.818,0,0,0,.39.722,5.365,5.365,0,0,0,1.577.519,7.466,7.466,0,0,1,1.864.623,2.639,2.639,0,0,1,1,.867,2.212,2.212,0,0,1,.328,1.229,2.34,2.34,0,0,1-1,1.963,4.283,4.283,0,0,1-2.631.751,4.644,4.644,0,0,1-1.967-.4,3.238,3.238,0,0,1-1.345-1.1,2.594,2.594,0,0,1-.481-1.5h1.959a1.421,1.421,0,0,0,.54,1.1,2.1,2.1,0,0,0,1.32.386,2.04,2.04,0,0,0,1.212-.3A.938.938,0,0,0,65.434,38.56Zm7.6-2.117a5.34,5.34,0,0,1,.963-3.333,3.085,3.085,0,0,1,2.582-1.258,2.931,2.931,0,0,1,2.308,1v-4.6H80.9V41H79.072l-.1-.93a2.973,2.973,0,0,1-2.416,1.1A3.068,3.068,0,0,1,74,39.9,5.535,5.535,0,0,1,73.029,36.443Zm2.017.174a3.739,3.739,0,0,0,.527,2.137,1.71,1.71,0,0,0,1.5.768,1.9,1.9,0,0,0,1.81-1.1V34.583A1.876,1.876,0,0,0,77.088,33.5a1.723,1.723,0,0,0-1.511.776A4.163,4.163,0,0,0,75.046,36.617Zm11.912,4.549a4.173,4.173,0,0,1-3.109-1.208,4.381,4.381,0,0,1-1.191-3.217v-.249a5.389,5.389,0,0,1,.519-2.4,3.949,3.949,0,0,1,1.457-1.648,3.851,3.851,0,0,1,2.092-.589,3.525,3.525,0,0,1,2.835,1.17,4.949,4.949,0,0,1,1,3.312v.813H84.692a2.7,2.7,0,0,0,.743,1.76,2.23,2.23,0,0,0,1.639.647,2.731,2.731,0,0,0,2.258-1.121l1.087,1.038a3.631,3.631,0,0,1-1.44,1.249A4.509,4.509,0,0,1,86.958,41.166Zm-.241-7.695a1.7,1.7,0,0,0-1.341.581,3.012,3.012,0,0,0-.652,1.619h3.843v-.149a2.452,2.452,0,0,0-.54-1.531A1.686,1.686,0,0,0,86.717,33.471ZM101.692,41H99.683V31.291L96.72,32.3V30.607l4.715-1.735h.257Zm12.078-5.088a6.591,6.591,0,0,1-.975,3.93,3.445,3.445,0,0,1-2.968,1.324,3.49,3.49,0,0,1-2.951-1.291,6.312,6.312,0,0,1-1.017-3.823V33.961a6.492,6.492,0,0,1,.975-3.91,4.066,4.066,0,0,1,5.935-.033,6.294,6.294,0,0,1,1,3.8Zm-2.017-2.258a5.114,5.114,0,0,0-.465-2.494,1.777,1.777,0,0,0-2.93-.042,4.726,4.726,0,0,0-.49,2.345V36.2a5.246,5.246,0,0,0,.473,2.523,1.589,1.589,0,0,0,1.486.83,1.561,1.561,0,0,0,1.436-.768,4.936,4.936,0,0,0,.49-2.4Zm3.719-2.416a2.426,2.426,0,0,1,.706-1.8,2.56,2.56,0,0,1,4.416,1.839v.6a2.409,2.409,0,0,1-.7,1.785,2.505,2.505,0,0,1-1.847.7,2.585,2.585,0,0,1-1.847-.685,2.417,2.417,0,0,1-.726-1.847Zm1.411.636a1.331,1.331,0,0,0,.32.928,1.081,1.081,0,0,0,.843.354,1.059,1.059,0,0,0,.83-.354,1.392,1.392,0,0,0,.315-.961v-.608a1.347,1.347,0,0,0-.32-.932,1.075,1.075,0,0,0-.843-.358,1.045,1.045,0,0,0-.834.362,1.41,1.41,0,0,0-.311.953Zm4.4,6.163a2.376,2.376,0,0,1,.722-1.8,2.814,2.814,0,0,1,3.69,0,2.456,2.456,0,0,1,.718,1.859v.589a2.428,2.428,0,0,1-.693,1.781,2.491,2.491,0,0,1-1.855.7,2.564,2.564,0,0,1-1.872-.693,2.443,2.443,0,0,1-.71-1.83Zm1.411.639a1.324,1.324,0,0,0,.328.926,1.087,1.087,0,0,0,.843.361,1.053,1.053,0,0,0,.834-.344,1.416,1.416,0,0,0,.3-.967v-.623a1.312,1.312,0,0,0-.324-.93,1.167,1.167,0,0,0-1.664,0,1.371,1.371,0,0,0-.32.963ZM118.459,40.1l-1.038-.6,5.9-9.446,1.038.6Zm9.994,3.627-1.087-.647a5.866,5.866,0,0,0,.66-1.316,3.926,3.926,0,0,0,.187-1.141V39.049h1.818l-.008,1.453a4.049,4.049,0,0,1-.444,1.764A4.382,4.382,0,0,1,128.454,43.723Zm9.579-11.7.058.938a3.232,3.232,0,0,1,2.59-1.1,2.483,2.483,0,0,1,2.465,1.378,3.186,3.186,0,0,1,2.756-1.378,2.8,2.8,0,0,1,2.212.822,3.618,3.618,0,0,1,.743,2.424V41H146.84V35.156a1.786,1.786,0,0,0-.374-1.253,1.635,1.635,0,0,0-1.237-.4,1.679,1.679,0,0,0-1.125.369,1.948,1.948,0,0,0-.61.967L143.5,41h-2.017V35.09a1.439,1.439,0,0,0-1.619-1.585,1.776,1.776,0,0,0-1.718.988V41h-2.017V32.019Zm16.851,9.147a4.173,4.173,0,0,1-3.109-1.208,4.381,4.381,0,0,1-1.191-3.217v-.249a5.389,5.389,0,0,1,.519-2.4,3.949,3.949,0,0,1,1.457-1.648,3.851,3.851,0,0,1,2.092-.589,3.525,3.525,0,0,1,2.835,1.17,4.949,4.949,0,0,1,1,3.312v.813h-5.869a2.7,2.7,0,0,0,.743,1.76,2.23,2.23,0,0,0,1.639.647,2.731,2.731,0,0,0,2.258-1.121l1.087,1.038a3.631,3.631,0,0,1-1.44,1.249A4.509,4.509,0,0,1,154.883,41.166Zm-.241-7.695a1.7,1.7,0,0,0-1.341.581,3.012,3.012,0,0,0-.652,1.619h3.843v-.149a2.452,2.452,0,0,0-.54-1.531A1.686,1.686,0,0,0,154.643,33.471Zm5.03,2.972a5.34,5.34,0,0,1,.963-3.333,3.085,3.085,0,0,1,2.582-1.258,2.931,2.931,0,0,1,2.308,1v-4.6h2.017V41h-1.826l-.1-.93a2.973,2.973,0,0,1-2.416,1.1,3.068,3.068,0,0,1-2.552-1.27A5.535,5.535,0,0,1,159.673,36.443Zm2.017.174a3.739,3.739,0,0,0,.527,2.137,1.71,1.71,0,0,0,1.5.768,1.9,1.9,0,0,0,1.81-1.1V34.583a1.876,1.876,0,0,0-1.793-1.079,1.723,1.723,0,0,0-1.511.776A4.163,4.163,0,0,0,161.69,36.617ZM171.792,41h-2.017V32.019h2.017ZM169.65,29.686a1.07,1.07,0,0,1,.295-.772,1.113,1.113,0,0,1,.843-.307,1.127,1.127,0,0,1,.847.307,1.062,1.062,0,0,1,.3.772,1.038,1.038,0,0,1-.3.76,1.136,1.136,0,0,1-.847.3,1.122,1.122,0,0,1-.843-.3A1.046,1.046,0,0,1,169.65,29.686ZM179.354,41a3.113,3.113,0,0,1-.232-.838,3.393,3.393,0,0,1-4.565.232,2.47,2.47,0,0,1-.855-1.909,2.55,2.55,0,0,1,1.067-2.2,5.169,5.169,0,0,1,3.051-.768h1.237v-.589a1.573,1.573,0,0,0-.39-1.116,1.547,1.547,0,0,0-1.187-.419,1.777,1.777,0,0,0-1.129.344,1.066,1.066,0,0,0-.44.876h-2.017a2.239,2.239,0,0,1,.49-1.382,3.263,3.263,0,0,1,1.332-1.009,4.68,4.68,0,0,1,1.88-.365,3.769,3.769,0,0,1,2.515.793,2.827,2.827,0,0,1,.963,2.229v4.051a4.591,4.591,0,0,0,.34,1.934V41Zm-2.216-1.453a2.294,2.294,0,0,0,1.125-.291,1.941,1.941,0,0,0,.793-.78V36.783h-1.087a2.973,2.973,0,0,0-1.685.39,1.264,1.264,0,0,0-.564,1.1,1.179,1.179,0,0,0,.386.926A1.5,1.5,0,0,0,177.138,39.547Zm7.919-7.529.058,1.038a3.229,3.229,0,0,1,2.615-1.2q2.806,0,2.855,3.212V41h-2.017V35.181a1.85,1.85,0,0,0-.369-1.266,1.554,1.554,0,0,0-1.208-.411,1.944,1.944,0,0,0-1.818,1.1V41h-2.017V32.019Zm10.11-2.183v2.183h1.585v1.494h-1.585v5.014a1.1,1.1,0,0,0,.2.743.943.943,0,0,0,.726.228,3.107,3.107,0,0,0,.706-.083v1.561a4.968,4.968,0,0,1-1.328.191q-2.324,0-2.324-2.565V33.513h-1.478V32.019h1.478V29.835Zm7.081,11.331a4.173,4.173,0,0,1-3.109-1.208,4.381,4.381,0,0,1-1.191-3.217v-.249a5.389,5.389,0,0,1,.519-2.4,3.949,3.949,0,0,1,1.457-1.648,3.851,3.851,0,0,1,2.092-.589,3.525,3.525,0,0,1,2.835,1.17,4.949,4.949,0,0,1,1,3.312v.813h-5.869a2.7,2.7,0,0,0,.743,1.76,2.23,2.23,0,0,0,1.639.647,2.731,2.731,0,0,0,2.258-1.121l1.087,1.038a3.631,3.631,0,0,1-1.44,1.249A4.509,4.509,0,0,1,202.248,41.166Zm-.241-7.695a1.7,1.7,0,0,0-1.341.581,3.012,3.012,0,0,0-.652,1.619h3.843v-.149a2.452,2.452,0,0,0-.54-1.531A1.686,1.686,0,0,0,202.007,33.471ZM27.753,66a3.113,3.113,0,0,1-.232-.838,3.393,3.393,0,0,1-4.565.232,2.47,2.47,0,0,1-.855-1.909,2.55,2.55,0,0,1,1.067-2.2,5.169,5.169,0,0,1,3.051-.768h1.237v-.589a1.573,1.573,0,0,0-.39-1.116,1.547,1.547,0,0,0-1.187-.419,1.777,1.777,0,0,0-1.129.344,1.066,1.066,0,0,0-.44.876H22.291a2.239,2.239,0,0,1,.49-1.382,3.263,3.263,0,0,1,1.332-1.009,4.68,4.68,0,0,1,1.88-.365,3.769,3.769,0,0,1,2.515.793,2.827,2.827,0,0,1,.963,2.229v4.051a4.591,4.591,0,0,0,.34,1.934V66Zm-2.216-1.453a2.294,2.294,0,0,0,1.125-.291,1.941,1.941,0,0,0,.793-.78V61.783H26.366a2.973,2.973,0,0,0-1.685.39,1.264,1.264,0,0,0-.564,1.1,1.179,1.179,0,0,0,.386.926A1.5,1.5,0,0,0,25.536,64.547ZM37.963,66H35.946V53.25h2.017Zm7.562,0a3.113,3.113,0,0,1-.232-.838,3.393,3.393,0,0,1-4.565.232,2.47,2.47,0,0,1-.855-1.909,2.55,2.55,0,0,1,1.067-2.2,5.169,5.169,0,0,1,3.051-.768h1.237v-.589a1.573,1.573,0,0,0-.39-1.116,1.547,1.547,0,0,0-1.187-.419,1.777,1.777,0,0,0-1.129.344,1.066,1.066,0,0,0-.44.876H40.063a2.239,2.239,0,0,1,.49-1.382,3.263,3.263,0,0,1,1.332-1.009,4.68,4.68,0,0,1,1.88-.365,3.769,3.769,0,0,1,2.515.793,2.827,2.827,0,0,1,.963,2.229v4.051a4.591,4.591,0,0,0,.34,1.934V66Zm-2.216-1.453a2.294,2.294,0,0,0,1.125-.291,1.941,1.941,0,0,0,.793-.78V61.783H44.138a2.973,2.973,0,0,0-1.685.39,1.264,1.264,0,0,0-.564,1.1,1.179,1.179,0,0,0,.386.926A1.5,1.5,0,0,0,43.308,64.547Zm15.315-.988a.914.914,0,0,0-.444-.822,4.723,4.723,0,0,0-1.473-.5,7.574,7.574,0,0,1-1.718-.548,2.293,2.293,0,0,1-1.511-2.117,2.391,2.391,0,0,1,.979-1.942,3.872,3.872,0,0,1,2.49-.78,4.029,4.029,0,0,1,2.6.8,2.529,2.529,0,0,1,.992,2.067H58.524a1.243,1.243,0,0,0-.432-.967,1.654,1.654,0,0,0-1.146-.386,1.787,1.787,0,0,0-1.083.307.968.968,0,0,0-.419.822.818.818,0,0,0,.39.722,5.365,5.365,0,0,0,1.577.519,7.466,7.466,0,0,1,1.864.623,2.639,2.639,0,0,1,1,.867,2.212,2.212,0,0,1,.328,1.229,2.34,2.34,0,0,1-1,1.963,4.283,4.283,0,0,1-2.631.751,4.644,4.644,0,0,1-1.967-.4,3.238,3.238,0,0,1-1.345-1.1,2.594,2.594,0,0,1-.481-1.5h1.959a1.421,1.421,0,0,0,.54,1.1,2.1,2.1,0,0,0,1.32.386,2.04,2.04,0,0,0,1.212-.3A.938.938,0,0,0,58.623,63.56ZM64.509,66H62.491V57.019h2.017ZM62.367,54.686a1.071,1.071,0,0,1,.295-.772,1.113,1.113,0,0,1,.843-.307,1.127,1.127,0,0,1,.847.307,1.062,1.062,0,0,1,.3.772,1.038,1.038,0,0,1-.3.76,1.136,1.136,0,0,1-.847.3,1.122,1.122,0,0,1-.843-.3A1.046,1.046,0,0,1,62.367,54.686Zm3.984,6.757a5.253,5.253,0,0,1,.984-3.341,3.157,3.157,0,0,1,2.611-1.249,2.958,2.958,0,0,1,2.416,1.071l.091-.9H74.27v8.708a3.619,3.619,0,0,1-1.1,2.789A4.189,4.189,0,0,1,70.2,69.536a4.783,4.783,0,0,1-1.93-.411,3.429,3.429,0,0,1-1.432-1.075l.955-1.212a2.883,2.883,0,0,0,2.291,1.1,2.228,2.228,0,0,0,1.585-.544,2.084,2.084,0,0,0,.581-1.6v-.606a2.97,2.97,0,0,1-2.324.971,3.15,3.15,0,0,1-2.577-1.253A5.423,5.423,0,0,1,66.351,61.443Zm2.009.174a3.616,3.616,0,0,0,.552,2.129,1.775,1.775,0,0,0,1.531.776,1.941,1.941,0,0,0,1.81-1.046V59.525A1.913,1.913,0,0,0,70.46,58.5a1.782,1.782,0,0,0-1.548.789A4.049,4.049,0,0,0,68.36,61.617Zm13.422,3.5a3.128,3.128,0,0,1-2.523,1.046,2.788,2.788,0,0,1-2.212-.855,3.637,3.637,0,0,1-.751-2.474V57.019h2.017v5.794q0,1.71,1.419,1.71a1.993,1.993,0,0,0,1.984-1.054v-6.45h2.017V66h-1.9Zm6.151.88H85.916V57.019h2.017ZM85.792,54.686a1.071,1.071,0,0,1,.295-.772,1.113,1.113,0,0,1,.843-.307,1.127,1.127,0,0,1,.847.307,1.062,1.062,0,0,1,.3.772,1.038,1.038,0,0,1-.3.76,1.136,1.136,0,0,1-.847.3,1.122,1.122,0,0,1-.843-.3A1.046,1.046,0,0,1,85.792,54.686Zm8.292,11.48a4.173,4.173,0,0,1-3.109-1.208,4.381,4.381,0,0,1-1.191-3.217v-.249a5.389,5.389,0,0,1,.519-2.4,3.949,3.949,0,0,1,1.457-1.648,3.851,3.851,0,0,1,2.092-.589,3.525,3.525,0,0,1,2.835,1.17,4.949,4.949,0,0,1,1,3.312v.813H91.818a2.7,2.7,0,0,0,.743,1.76,2.23,2.23,0,0,0,1.639.647,2.731,2.731,0,0,0,2.258-1.121l1.087,1.038a3.631,3.631,0,0,1-1.44,1.249A4.509,4.509,0,0,1,94.084,66.166Zm-.241-7.695a1.7,1.7,0,0,0-1.341.581,3.012,3.012,0,0,0-.652,1.619h3.843v-.149a2.452,2.452,0,0,0-.54-1.531A1.686,1.686,0,0,0,93.844,58.471Zm7.28-1.453.058,1.038a3.229,3.229,0,0,1,2.615-1.2q2.806,0,2.855,3.212V66h-2.017V60.181a1.85,1.85,0,0,0-.369-1.266,1.554,1.554,0,0,0-1.208-.411,1.944,1.944,0,0,0-1.818,1.1V66H99.222V57.019Zm10.11-2.183v2.183h1.585v1.494h-1.585v5.014a1.1,1.1,0,0,0,.2.743.943.943,0,0,0,.726.228,3.107,3.107,0,0,0,.706-.083v1.561a4.968,4.968,0,0,1-1.328.191q-2.324,0-2.324-2.565V58.513h-1.478V57.019h1.478V54.835Zm7.081,11.331a4.173,4.173,0,0,1-3.109-1.208,4.381,4.381,0,0,1-1.191-3.217v-.249a5.389,5.389,0,0,1,.519-2.4,3.949,3.949,0,0,1,1.457-1.648,3.851,3.851,0,0,1,2.092-.589,3.525,3.525,0,0,1,2.835,1.17,4.949,4.949,0,0,1,1,3.312v.813h-5.869a2.7,2.7,0,0,0,.743,1.76,2.23,2.23,0,0,0,1.639.647,2.731,2.731,0,0,0,2.258-1.121l1.087,1.038a3.631,3.631,0,0,1-1.44,1.249A4.509,4.509,0,0,1,118.314,66.166Zm-.241-7.695a1.7,1.7,0,0,0-1.341.581,3.012,3.012,0,0,0-.652,1.619h3.843v-.149a2.452,2.452,0,0,0-.54-1.531A1.686,1.686,0,0,0,118.073,58.471ZM128.425,66V58.513h-1.37V57.019h1.37V56.2a3.085,3.085,0,0,1,.83-2.308,3.18,3.18,0,0,1,2.324-.813,4.662,4.662,0,0,1,1.129.149l-.05,1.577a3.973,3.973,0,0,0-.772-.066,1.3,1.3,0,0,0-1.444,1.486v.8h1.826v1.494h-1.826V66Zm4.939-4.574a5.3,5.3,0,0,1,.523-2.378,3.819,3.819,0,0,1,1.469-1.627,4.14,4.14,0,0,1,2.175-.569,3.923,3.923,0,0,1,2.951,1.17,4.6,4.6,0,0,1,1.224,3.1l.008.473a5.343,5.343,0,0,1-.51,2.374,3.773,3.773,0,0,1-1.461,1.619,4.17,4.17,0,0,1-2.2.573A3.9,3.9,0,0,1,134.5,64.9a4.848,4.848,0,0,1-1.141-3.374Zm2.017.174a3.619,3.619,0,0,0,.573,2.171,1.862,1.862,0,0,0,1.594.784,1.842,1.842,0,0,0,1.59-.8,4,4,0,0,0,.569-2.333,3.572,3.572,0,0,0-.585-2.158,1.973,1.973,0,0,0-3.158-.012A3.922,3.922,0,0,0,135.381,61.6Zm12.742-2.739a4.992,4.992,0,0,0-.822-.066,1.85,1.85,0,0,0-1.868,1.063V66h-2.017V57.019h1.926l.05,1a2.273,2.273,0,0,1,2.025-1.17,1.888,1.888,0,0,1,.714.116Zm3.171-1.843.058.938a3.232,3.232,0,0,1,2.59-1.1,2.483,2.483,0,0,1,2.465,1.378,3.186,3.186,0,0,1,2.756-1.378,2.8,2.8,0,0,1,2.212.822,3.618,3.618,0,0,1,.743,2.424V66H160.1V60.156a1.786,1.786,0,0,0-.374-1.253,1.635,1.635,0,0,0-1.237-.4,1.679,1.679,0,0,0-1.125.369,1.948,1.948,0,0,0-.61.967L156.763,66h-2.017V60.09a1.439,1.439,0,0,0-1.619-1.585,1.776,1.776,0,0,0-1.718.988V66h-2.017V57.019Zm18.336,8.1a3.128,3.128,0,0,1-2.523,1.046,2.788,2.788,0,0,1-2.212-.855,3.637,3.637,0,0,1-.751-2.474V57.019h2.017v5.794q0,1.71,1.419,1.71a1.993,1.993,0,0,0,1.984-1.054v-6.45h2.017V66h-1.9Zm6.151.88h-2.017V53.25h2.017Zm7.562,0a3.113,3.113,0,0,1-.232-.838,3.393,3.393,0,0,1-4.565.232,2.47,2.47,0,0,1-.855-1.909,2.55,2.55,0,0,1,1.067-2.2,5.169,5.169,0,0,1,3.051-.768h1.237v-.589a1.573,1.573,0,0,0-.39-1.116,1.547,1.547,0,0,0-1.187-.419,1.777,1.777,0,0,0-1.129.344,1.066,1.066,0,0,0-.44.876h-2.017a2.239,2.239,0,0,1,.49-1.382,3.263,3.263,0,0,1,1.332-1.009,4.68,4.68,0,0,1,1.88-.365,3.769,3.769,0,0,1,2.515.793,2.827,2.827,0,0,1,.963,2.229v4.051a4.591,4.591,0,0,0,.34,1.934V66Zm-2.216-1.453a2.294,2.294,0,0,0,1.125-.291,1.941,1.941,0,0,0,.793-.78V61.783h-1.087a2.973,2.973,0,0,0-1.685.39,1.264,1.264,0,0,0-.564,1.1,1.179,1.179,0,0,0,.386.926A1.5,1.5,0,0,0,181.126,64.547Zm7.263-.672a1.152,1.152,0,0,1,.872.32,1.11,1.11,0,0,1,.307.8,1.071,1.071,0,0,1-.307.784,1.36,1.36,0,0,1-1.727,0,1.053,1.053,0,0,1-.315-.789,1.11,1.11,0,0,1,.307-.8A1.141,1.141,0,0,1,188.389,63.875Zm0-7.047a1.152,1.152,0,0,1,.872.32,1.11,1.11,0,0,1,.307.8,1.071,1.071,0,0,1-.307.784,1.36,1.36,0,0,1-1.727,0,1.053,1.053,0,0,1-.315-.789,1.11,1.11,0,0,1,.307-.8A1.141,1.141,0,0,1,188.389,56.828ZM8.86,86.086a12.649,12.649,0,0,1,.515-3.64,9.991,9.991,0,0,1,1.511-3.08,6,6,0,0,1,2.108-1.905l.4,1.179a6.162,6.162,0,0,0-1.9,2.71,12.138,12.138,0,0,0-.793,4.171l-.008.714a13.2,13.2,0,0,0,.71,4.487,6.612,6.612,0,0,0,1.988,3l-.4,1.121a6.009,6.009,0,0,1-2.113-1.913,9.989,9.989,0,0,1-1.511-3.08A13.148,13.148,0,0,1,8.86,86.086ZM14.953,91V78.914h3.569a5.6,5.6,0,0,1,2.843.714,4.868,4.868,0,0,1,1.922,2.025,6.429,6.429,0,0,1,.681,3v.606a6.4,6.4,0,0,1-.685,3.021,4.809,4.809,0,0,1-1.951,2.009,5.858,5.858,0,0,1-2.9.706Zm2.1-10.393v8.716h1.37a3.154,3.154,0,0,0,2.536-1.033,4.5,4.5,0,0,0,.9-2.968V84.65a4.619,4.619,0,0,0-.855-3,3.031,3.031,0,0,0-2.482-1.038ZM28.01,91H25.993V82.019H28.01ZM25.868,79.686a1.071,1.071,0,0,1,.295-.772,1.113,1.113,0,0,1,.843-.307,1.127,1.127,0,0,1,.847.307,1.062,1.062,0,0,1,.3.772,1.038,1.038,0,0,1-.3.76,1.136,1.136,0,0,1-.847.3,1.122,1.122,0,0,1-.843-.3A1.046,1.046,0,0,1,25.868,79.686Zm7.5,8.757,1.9-6.425h2.083L34.244,91H32.492l-3.138-8.981h2.092ZM40.76,91H38.743V82.019H40.76ZM38.618,79.686a1.07,1.07,0,0,1,.295-.772,1.113,1.113,0,0,1,.843-.307,1.127,1.127,0,0,1,.847.307,1.062,1.062,0,0,1,.3.772,1.038,1.038,0,0,1-.3.76,1.136,1.136,0,0,1-.847.3,1.122,1.122,0,0,1-.843-.3A1.046,1.046,0,0,1,38.618,79.686Zm3.959,6.757a5.34,5.34,0,0,1,.963-3.333,3.085,3.085,0,0,1,2.582-1.258,2.931,2.931,0,0,1,2.308,1v-4.6h2.017V91H48.621l-.1-.93a2.973,2.973,0,0,1-2.416,1.1,3.068,3.068,0,0,1-2.552-1.27A5.535,5.535,0,0,1,42.578,86.443Zm2.017.174a3.739,3.739,0,0,0,.527,2.137,1.71,1.71,0,0,0,1.5.768,1.9,1.9,0,0,0,1.81-1.1V84.583A1.876,1.876,0,0,0,46.637,83.5a1.723,1.723,0,0,0-1.511.776A4.163,4.163,0,0,0,44.595,86.617Zm11.912,4.549A4.173,4.173,0,0,1,53.4,89.958a4.381,4.381,0,0,1-1.191-3.217v-.249a5.389,5.389,0,0,1,.519-2.4,3.949,3.949,0,0,1,1.457-1.648,3.851,3.851,0,0,1,2.092-.589,3.525,3.525,0,0,1,2.835,1.17,4.949,4.949,0,0,1,1,3.312v.813H54.24a2.7,2.7,0,0,0,.743,1.76,2.23,2.23,0,0,0,1.639.647,2.731,2.731,0,0,0,2.258-1.121l1.087,1.038a3.631,3.631,0,0,1-1.44,1.249A4.509,4.509,0,0,1,56.507,91.166Zm-.241-7.695a1.7,1.7,0,0,0-1.341.581,3.012,3.012,0,0,0-.652,1.619h3.843v-.149a2.452,2.452,0,0,0-.54-1.531A1.686,1.686,0,0,0,56.266,83.471Zm7.28-1.453.058,1.038a3.229,3.229,0,0,1,2.615-1.2q2.806,0,2.855,3.212V91H67.057V85.181a1.85,1.85,0,0,0-.369-1.266A1.554,1.554,0,0,0,65.48,83.5a1.944,1.944,0,0,0-1.818,1.1V91H61.645V82.019Zm7.205,4.424a5.34,5.34,0,0,1,.963-3.333A3.085,3.085,0,0,1,74.3,81.853a2.931,2.931,0,0,1,2.308,1v-4.6H78.62V91H76.794l-.1-.93a2.973,2.973,0,0,1-2.416,1.1,3.068,3.068,0,0,1-2.552-1.27A5.535,5.535,0,0,1,70.751,86.443Zm2.017.174a3.739,3.739,0,0,0,.527,2.137,1.71,1.71,0,0,0,1.5.768,1.9,1.9,0,0,0,1.81-1.1V84.583A1.876,1.876,0,0,0,74.81,83.5a1.723,1.723,0,0,0-1.511.776A4.163,4.163,0,0,0,72.768,86.617Zm7.579-.191a5.3,5.3,0,0,1,.523-2.378,3.819,3.819,0,0,1,1.469-1.627,4.14,4.14,0,0,1,2.175-.569,3.923,3.923,0,0,1,2.951,1.17,4.6,4.6,0,0,1,1.224,3.1l.008.473a5.343,5.343,0,0,1-.51,2.374,3.773,3.773,0,0,1-1.461,1.619,4.17,4.17,0,0,1-2.2.573A3.9,3.9,0,0,1,81.488,89.9a4.848,4.848,0,0,1-1.141-3.374Zm2.017.174a3.619,3.619,0,0,0,.573,2.171,1.862,1.862,0,0,0,1.594.784,1.842,1.842,0,0,0,1.59-.8,4,4,0,0,0,.569-2.333,3.572,3.572,0,0,0-.585-2.158,1.973,1.973,0,0,0-3.158-.012A3.922,3.922,0,0,0,82.364,86.6ZM95.437,88.56a.914.914,0,0,0-.444-.822,4.723,4.723,0,0,0-1.473-.5,7.574,7.574,0,0,1-1.718-.548,2.293,2.293,0,0,1-1.511-2.117,2.391,2.391,0,0,1,.979-1.942,3.872,3.872,0,0,1,2.49-.78,4.029,4.029,0,0,1,2.6.8,2.529,2.529,0,0,1,.992,2.067H95.338a1.243,1.243,0,0,0-.432-.967,1.654,1.654,0,0,0-1.146-.386,1.787,1.787,0,0,0-1.083.307.968.968,0,0,0-.419.822.818.818,0,0,0,.39.722,5.365,5.365,0,0,0,1.577.519,7.466,7.466,0,0,1,1.864.623,2.639,2.639,0,0,1,1,.867,2.212,2.212,0,0,1,.328,1.229,2.34,2.34,0,0,1-1,1.963,4.283,4.283,0,0,1-2.631.751,4.644,4.644,0,0,1-1.967-.4,3.238,3.238,0,0,1-1.345-1.1,2.594,2.594,0,0,1-.481-1.5h1.959a1.421,1.421,0,0,0,.54,1.1,2.1,2.1,0,0,0,1.32.386,2.04,2.04,0,0,0,1.212-.3A.938.938,0,0,0,95.437,88.56Zm7.653-1.884H98.733V85.048h4.358Zm3.868-2.64h1.229a2.2,2.2,0,0,0,1.473-.481,1.718,1.718,0,0,0,.544-1.37,1.872,1.872,0,0,0-.452-1.341,1.821,1.821,0,0,0-1.382-.477,1.926,1.926,0,0,0-1.336.469,1.567,1.567,0,0,0-.523,1.224h-2.017a3.053,3.053,0,0,1,.494-1.693,3.318,3.318,0,0,1,1.378-1.191,4.489,4.489,0,0,1,1.98-.427,4.157,4.157,0,0,1,2.843.909,3.19,3.19,0,0,1,1.033,2.528,2.568,2.568,0,0,1-.519,1.531,3.253,3.253,0,0,1-1.341,1.083,2.965,2.965,0,0,1,1.515,1.071,2.932,2.932,0,0,1,.519,1.743,3.246,3.246,0,0,1-1.116,2.59,4.9,4.9,0,0,1-5.79.033,3.062,3.062,0,0,1-1.112-2.474h2.017a1.687,1.687,0,0,0,.535,1.295,2.03,2.03,0,0,0,1.44.5,2.094,2.094,0,0,0,1.478-.5,1.868,1.868,0,0,0,.54-1.444,1.887,1.887,0,0,0-.564-1.469,2.413,2.413,0,0,0-1.677-.515h-1.187Zm15.207,1.876a6.591,6.591,0,0,1-.975,3.93,3.445,3.445,0,0,1-2.968,1.324,3.49,3.49,0,0,1-2.951-1.291,6.312,6.312,0,0,1-1.017-3.823V83.961a6.492,6.492,0,0,1,.975-3.91,4.066,4.066,0,0,1,5.935-.033,6.294,6.294,0,0,1,1,3.8Zm-2.017-2.258a5.114,5.114,0,0,0-.465-2.494,1.777,1.777,0,0,0-2.93-.042,4.726,4.726,0,0,0-.49,2.345V86.2a5.246,5.246,0,0,0,.473,2.523,1.589,1.589,0,0,0,1.486.83,1.561,1.561,0,0,0,1.436-.768,4.936,4.936,0,0,0,.49-2.4Zm11.679,2.258a6.591,6.591,0,0,1-.975,3.93,3.445,3.445,0,0,1-2.968,1.324,3.49,3.49,0,0,1-2.951-1.291,6.312,6.312,0,0,1-1.017-3.823V83.961a6.492,6.492,0,0,1,.975-3.91,4.066,4.066,0,0,1,5.935-.033,6.294,6.294,0,0,1,1,3.8Zm-2.017-2.258a5.114,5.114,0,0,0-.465-2.494,1.777,1.777,0,0,0-2.93-.042,4.726,4.726,0,0,0-.49,2.345V86.2a5.246,5.246,0,0,0,.473,2.523,1.589,1.589,0,0,0,1.486.83,1.561,1.561,0,0,0,1.436-.768,4.936,4.936,0,0,0,.49-2.4Zm12.966-4.74v8.077a3.925,3.925,0,0,1-1.233,3.051,5.4,5.4,0,0,1-6.578.017,3.944,3.944,0,0,1-1.22-3.075V78.914h2.092V87a2.568,2.568,0,0,0,.614,1.851,2.4,2.4,0,0,0,1.81.639q2.424,0,2.424-2.557V78.914Zm5.213,9.529,1.9-6.425h2.083L148.861,91H147.11l-3.138-8.981h2.092Zm7.77-8.608v2.183h1.585v1.494h-1.585v5.014a1.1,1.1,0,0,0,.2.743.943.943,0,0,0,.726.228,3.107,3.107,0,0,0,.706-.083v1.561a4.968,4.968,0,0,1-1.328.191q-2.324,0-2.324-2.565V83.513h-1.478V82.019h1.478V79.835Zm7.014,6.383a12.489,12.489,0,0,1-.506,3.557,10.078,10.078,0,0,1-1.536,3.121,6.014,6.014,0,0,1-2.15,1.947l-.4-1.121a6.379,6.379,0,0,0,1.971-2.943,13.071,13.071,0,0,0,.726-4.52v-.191a13.264,13.264,0,0,0-.631-4.2,7.416,7.416,0,0,0-1.81-3.042l-.257-.232.4-1.129a5.951,5.951,0,0,1,2.059,1.826,9.909,9.909,0,0,1,1.527,2.934,12.222,12.222,0,0,1,.6,3.349Zm5.329-1.245,1.71-2.955h2.241l-2.748,4.424L172.145,91H169.92l-1.793-3.071L166.343,91H164.1l2.839-4.557L164.2,82.019h2.225ZM178.76,91h-2.009V81.291l-2.963,1.01V80.607l4.715-1.735h.257Zm12.078-5.088a6.591,6.591,0,0,1-.975,3.93,3.445,3.445,0,0,1-2.968,1.324,3.49,3.49,0,0,1-2.951-1.291,6.311,6.311,0,0,1-1.017-3.823V83.961a6.492,6.492,0,0,1,.975-3.91,4.066,4.066,0,0,1,5.935-.033,6.294,6.294,0,0,1,1,3.8Zm-2.017-2.258a5.114,5.114,0,0,0-.465-2.494,1.777,1.777,0,0,0-2.93-.042,4.726,4.726,0,0,0-.49,2.345V86.2a5.246,5.246,0,0,0,.473,2.523,1.589,1.589,0,0,0,1.486.83,1.561,1.561,0,0,0,1.436-.768,4.936,4.936,0,0,0,.49-2.4Zm3.719-2.416a2.426,2.426,0,0,1,.706-1.8,2.56,2.56,0,0,1,4.416,1.839v.6a2.409,2.409,0,0,1-.7,1.785,2.505,2.505,0,0,1-1.847.7,2.585,2.585,0,0,1-1.847-.685,2.417,2.417,0,0,1-.726-1.847Zm1.411.636a1.331,1.331,0,0,0,.32.928,1.081,1.081,0,0,0,.843.354,1.059,1.059,0,0,0,.83-.354,1.392,1.392,0,0,0,.315-.961v-.608a1.347,1.347,0,0,0-.32-.932,1.075,1.075,0,0,0-.843-.358,1.045,1.045,0,0,0-.834.362,1.41,1.41,0,0,0-.311.953Zm4.4,6.163a2.376,2.376,0,0,1,.722-1.8,2.814,2.814,0,0,1,3.69,0,2.456,2.456,0,0,1,.718,1.859v.589a2.428,2.428,0,0,1-.693,1.781,2.491,2.491,0,0,1-1.855.7,2.564,2.564,0,0,1-1.872-.693,2.443,2.443,0,0,1-.71-1.83Zm1.411.639a1.324,1.324,0,0,0,.328.926,1.087,1.087,0,0,0,.843.361,1.053,1.053,0,0,0,.834-.344,1.416,1.416,0,0,0,.3-.967v-.623a1.312,1.312,0,0,0-.324-.93,1.167,1.167,0,0,0-1.664,0,1.371,1.371,0,0,0-.32.963ZM195.528,90.1l-1.038-.6,5.9-9.446,1.038.6Z" transform="translate(11 24.354)" fill="#12263f"/>
      </g>
      <path id="Trazado_609544" data-name="Trazado 609544" d="M0,4.037H2.5V0H0Zm5.359,0H7.678V0H5.359ZM9.283,0V4.037H65.272L61.235,0Z" transform="translate(-2586.24 -4615.842) rotate(180)" fill="#03386e"/>
      <path id="Trazado_609545" data-name="Trazado 609545" d="M0,4.037H2.5V0H0Zm5.359,0H7.678V0H5.359ZM9.283,0V4.037H65.272L61.235,0Z" transform="translate(-2341.996 -4615.842) rotate(180)" fill="#03386e"/>
    </g>
  </g>
</svg>
