<svg id="Grupo_877416" data-name="Grupo 877416" xmlns="http://www.w3.org/2000/svg" xmlns:xlink="http://www.w3.org/1999/xlink" width="593.862" height="415.497" viewBox="0 0 593.862 415.497">
  <defs>
    <clipPath id="clip-path">
      <rect id="Rectángulo_293727" data-name="Rectángulo 293727" width="593.862" height="415.497" fill="none"/>
    </clipPath>
    <clipPath id="clip-path-2">
      <rect id="Rectángulo_293726" data-name="Rectángulo 293726" width="593.86" height="415.497" fill="none"/>
    </clipPath>
    <clipPath id="clip-path-3">
      <rect id="Rectángulo_293724" data-name="Rectángulo 293724" width="140.572" height="174.094" fill="none"/>
    </clipPath>
    <clipPath id="clip-path-4">
      <rect id="Rectángulo_293725" data-name="Rectángulo 293725" width="111.224" height="119.428" fill="none"/>
    </clipPath>
  </defs>
  <g id="Grupo_877424" data-name="Grupo 877424" clip-path="url(#clip-path)">
    <g id="Grupo_877423" data-name="Grupo 877423">
      <g id="Grupo_877422" data-name="Grupo 877422" clip-path="url(#clip-path-2)">
        <path id="Trazado_258578" data-name="Trazado 258578" d="M884,271.593c83.366-1.015,136.6-90.881,95.229-163.265-12.47-21.82-32.611-39.391-64.919-43.564C814.9,51.924,810.286-12.019,755.371,2,706.988,14.342,714.251,104.664,795.333,136.4c59.265,23.2-13.281,130.024,62.543,134.521q13.8.819,26.125.67" transform="translate(-399.7 0)" fill="#cdd3e6"/>
        <path id="Trazado_258579" data-name="Trazado 258579" d="M707.681,491.876,489.273,370.093c-2.528-1.409-6.944-1.16-9.813.554L353.773,445.6c-2.869,1.715-3.148,4.27-.62,5.679L547.364,559.576l.921,21.1,29.308-6.848v0a10.729,10.729,0,0,0,3.778-1.309L707.06,497.556c2.869-1.714,3.148-4.27.62-5.679" transform="translate(-193.698 -203.484)" fill="#d6dae6"/>
        <path id="Trazado_258580" data-name="Trazado 258580" d="M1085.55,635.171l-5.3,3.47-2.355-7.552,8.163-.122Z" transform="translate(-594.115 -347.775)" fill="#212945"/>
        <path id="Trazado_258581" data-name="Trazado 258581" d="M666.17,33.461,671.447,30l9.333,8.486-11.426,1.958Z" transform="translate(-367.179 -16.535)" fill="#212945"/>
        <path id="Trazado_258582" data-name="Trazado 258582" d="M807.715,302.755,592.96,183.008c-4.743-2.644-7.186-10.093-5.429-16.551L623.177,35.412c1.757-6.459,7.075-9.579,11.817-6.935L850.345,149.3c4.743,2.644,6.209,7.586,4.452,14.045L819.533,295.821c-1.757,6.459-7.075,9.579-11.818,6.934" transform="translate(-323.52 -15.177)" fill="#212945"/>
        <path id="Trazado_258583" data-name="Trazado 258583" d="M795.593,310.694,580.838,190.947c-4.743-2.644-7.186-10.093-5.429-16.551L611.055,43.351c1.757-6.459,7.075-9.579,11.818-6.935L839.665,157.53c4.743,2.644,5.749,6.261,3.992,12.719L807.411,303.76c-1.757,6.459-7.075,9.579-11.817,6.934" transform="translate(-316.839 -19.553)" fill="#333e69"/>
        <path id="Trazado_258584" data-name="Trazado 258584" d="M798.85,314.016,592.792,199.12c-4.551-2.538-6.895-9.684-5.209-15.881L621.786,57.5c1.686-6.2,6.788-9.191,11.339-6.653L841.137,167.056c4.551,2.537,5.516,6.007,3.83,12.2l-34.779,128.1c-1.686,6.2-6.788,9.191-11.339,6.654" transform="translate(-323.562 -27.528)" fill="#57628c"/>
        <path id="Trazado_258585" data-name="Trazado 258585" d="M635.222,528.108l-.073-4.885-31.016,16.611-1.842-4.079L392.409,418.726c-2.528-1.409-7.505-1.152-10.374.562l-89.376,53.071-.022-1.44-13.593,6.858-1.936-.749.355,6.314a2.931,2.931,0,0,0,1.625,2.413L497.506,607.869c2.528,1.41,6.949,1.326,9.818-.388L631.948,533.7a6.509,6.509,0,0,0,3.274-5.591" transform="translate(-152.736 -230.291)" fill="#9fb7db"/>
        <path id="Trazado_258586" data-name="Trazado 258586" d="M905.884,602.448l-.073-4.885-31.016,16.611-1.842-4.079L770,552.69l-1.833,129.519a9.453,9.453,0,0,0,4.781.977,10.707,10.707,0,0,0,5.037-1.366L902.61,608.039a6.509,6.509,0,0,0,3.274-5.591" transform="translate(-423.397 -304.631)" fill="#8ba4cc"/>
        <path id="Trazado_258587" data-name="Trazado 258587" d="M633.493,496.592,415.086,374.809c-2.528-1.409-6.944-1.16-9.813.554L279.585,450.321c-2.869,1.714-3.148,4.27-.62,5.679L497.372,577.783c2.528,1.41,6.944,1.16,9.813-.554l125.688-74.958c2.869-1.714,3.148-4.27.62-5.679" transform="translate(-152.807 -206.083)" fill="#dfe8f5"/>
        <path id="Trazado_258588" data-name="Trazado 258588" d="M544.657,437.98a1.658,1.658,0,0,1-1.433-.145l-13.259-7.39c-.479-.267-.614-.635-.3-.821l8.633-5.161a1.655,1.655,0,0,1,1.433.145L552.989,432c.478.266.614.634.3.821Z" transform="translate(-291.846 -233.896)" fill="#c9d8ed"/>
        <path id="Trazado_258589" data-name="Trazado 258589" d="M579.391,487.945a1.646,1.646,0,0,1-1.437-.145L564.7,480.411c-.478-.266-.609-.632-.294-.82l8.637-5.163a1.65,1.65,0,0,1,1.423.145l13.259,7.389c.485.27.614.636.307.82Z" transform="translate(-310.992 -261.437)" fill="#c9d8ed"/>
        <path id="Trazado_258590" data-name="Trazado 258590" d="M562.528,509.154a1.65,1.65,0,0,1-1.429-.147l-13.261-7.391c-.47-.262-.617-.632-.3-.819l8.638-5.164a1.674,1.674,0,0,1,1.427.148l13.262,7.391c.476.265.612.635.306.818Z" transform="translate(-301.697 -273.126)" fill="#c9d8ed"/>
        <path id="Trazado_258591" data-name="Trazado 258591" d="M516.122,513.894a1.655,1.655,0,0,1-1.426-.144l-13.261-7.39c-.472-.264-.608-.634-.3-.818l8.635-5.163a1.664,1.664,0,0,1,1.43.143l13.261,7.391c.474.264.605.634.3.819Z" transform="translate(-276.124 -275.74)" fill="#c9d8ed"/>
        <path id="Trazado_258592" data-name="Trazado 258592" d="M435.328,502.235a1.655,1.655,0,0,1-1.431-.145l-13.26-7.39c-.478-.267-.614-.634-.3-.82l10.139-6.061a1.671,1.671,0,0,1,1.431.146l13.26,7.39c.478.266.607.638.3.82Z" transform="translate(-231.587 -268.817)" fill="#c9d8ed"/>
        <path id="Trazado_258593" data-name="Trazado 258593" d="M480.6,527.464a2.128,2.128,0,0,1-1.7-.3l-17.372-9.682c-.622-.346-.881-.783-.57-.969l10.14-6.061a2.152,2.152,0,0,1,1.7.3l17.372,9.682c.63.351.879.789.575.971Z" transform="translate(-253.995 -281.307)" fill="#c9d8ed"/>
        <path id="Trazado_258594" data-name="Trazado 258594" d="M740.615,677.281a1.625,1.625,0,0,1-1.336-.2l-13.25-7.385c-.483-.269-.666-.614-.407-.769l3.748-2.241a1.648,1.648,0,0,1,1.346.207l13.25,7.385c.478.266.653.61.4.763Z" transform="translate(-399.882 -367.422)" fill="#c9d8ed"/>
        <path id="Trazado_258595" data-name="Trazado 258595" d="M780.1,699.867a1.625,1.625,0,0,1-1.336-.2l-13.25-7.384c-.483-.269-.666-.614-.407-.769l3.749-2.241a1.646,1.646,0,0,1,1.346.208l13.25,7.385c.478.266.654.61.4.763Z" transform="translate(-421.644 -379.87)" fill="#c9d8ed"/>
        <path id="Trazado_258596" data-name="Trazado 258596" d="M821.943,722.754a1.627,1.627,0,0,1-1.321-.214l-13.254-7.387c-.475-.265-.67-.607-.42-.756l3.611-2.159a1.648,1.648,0,0,1,1.325.216l13.254,7.387c.478.266.663.607.416.755Z" transform="translate(-444.712 -392.533)" fill="#c9d8ed"/>
        <path id="Trazado_258597" data-name="Trazado 258597" d="M795.943,690.8a1.627,1.627,0,0,1-1.321-.214L781.368,683.2c-.475-.265-.67-.607-.42-.756l3.611-2.159a1.648,1.648,0,0,1,1.325.216l13.254,7.387c.478.266.663.607.416.754Z" transform="translate(-430.382 -374.921)" fill="#c9d8ed"/>
        <path id="Trazado_258598" data-name="Trazado 258598" d="M599.8,593.882a1.671,1.671,0,0,1-1.438-.149l-86.285-48.089c-.47-.262-.616-.635-.3-.821l10.139-6.061a1.686,1.686,0,0,1,1.432.147L609.631,587c.479.267.614.642.31.824Z" transform="translate(-281.988 -296.897)" fill="#c9d8ed"/>
        <path id="Trazado_258599" data-name="Trazado 258599" d="M486.843,533.723c-.019.012-.081,0-.138-.036l-10.136-5.649c-.055-.031-.086-.066-.067-.078l.63-.377c.019-.012.082,0,.137.036l10.136,5.649c.056.031.087.067.067.078Z" transform="translate(-262.635 -290.791)" fill="#c9d8ed"/>
        <path id="Trazado_258600" data-name="Trazado 258600" d="M436.2,503.047a.089.089,0,0,1-.079,0l-4.3-2.4c-.023-.013-.028-.033-.008-.045l.63-.377a.09.09,0,0,1,.079,0l4.3,2.4c.024.013.027.034.009.045Z" transform="translate(-237.999 -275.708)" fill="#c9d8ed"/>
        <path id="Trazado_258601" data-name="Trazado 258601" d="M556.612,536.442a1.661,1.661,0,0,1-1.432-.147l-13.259-7.389c-.47-.262-.613-.636-.3-.821l8.636-5.162a1.679,1.679,0,0,1,1.434.145l13.259,7.389c.481.268.612.637.3.822Z" transform="translate(-298.437 -288.166)" fill="#c9d8ed"/>
        <path id="Trazado_258602" data-name="Trazado 258602" d="M597.292,559.115a1.662,1.662,0,0,1-1.426-.144l-13.258-7.389c-.475-.265-.614-.637-.306-.821l8.636-5.163a1.674,1.674,0,0,1,1.436.146l13.258,7.389c.47.262.606.634.3.819Z" transform="translate(-320.862 -300.664)" fill="#c9d8ed"/>
        <path id="Trazado_258603" data-name="Trazado 258603" d="M637.975,581.788a1.657,1.657,0,0,1-1.426-.144l-13.261-7.39c-.474-.264-.607-.634-.3-.818l8.636-5.163a1.66,1.66,0,0,1,1.429.142l13.261,7.39c.474.264.605.634.3.82Z" transform="translate(-343.287 -313.162)" fill="#c9d8ed"/>
        <path id="Trazado_258604" data-name="Trazado 258604" d="M678.648,604.457a1.655,1.655,0,0,1-1.427-.144l-13.26-7.39c-.479-.267-.613-.636-.3-.821l8.636-5.163a1.666,1.666,0,0,1,1.435.145l13.26,7.391c.477.266.607.635.3.82Z" transform="translate(-365.702 -325.654)" fill="#c9d8ed"/>
        <path id="Trazado_258605" data-name="Trazado 258605" d="M719.333,627.131a1.674,1.674,0,0,1-1.437-.15l-13.255-7.388c-.474-.264-.607-.633-.3-.818l8.636-5.162a1.658,1.658,0,0,1,1.429.142l13.255,7.388c.479.267.617.64.307.825Z" transform="translate(-388.126 -338.152)" fill="#c9d8ed"/>
        <path id="Trazado_258606" data-name="Trazado 258606" d="M760.016,649.787a1.666,1.666,0,0,1-1.43-.146l-13.256-7.388c-.478-.266-.613-.636-.3-.821l8.636-5.162a1.666,1.666,0,0,1,1.434.145l13.257,7.388c.475.265.61.636.3.821Z" transform="translate(-410.55 -350.64)" fill="#c9d8ed"/>
        <path id="Trazado_258607" data-name="Trazado 258607" d="M823.561,685.2a1.66,1.66,0,0,1-1.43-.146l-36.125-20.133c-.477-.266-.611-.635-.3-.82l8.636-5.162a1.662,1.662,0,0,1,1.433.144L831.9,679.218c.478.266.61.636.3.821Z" transform="translate(-432.972 -363.136)" fill="#c9d8ed"/>
        <path id="Trazado_258608" data-name="Trazado 258608" d="M603.017,531.7a1.63,1.63,0,0,1-1.423-.143l-13.261-7.391c-.477-.266-.615-.63-.3-.817l8.638-5.164a1.656,1.656,0,0,1,1.424.146l13.262,7.391c.479.268.605.632.3.815Z" transform="translate(-324.018 -285.555)" fill="#c9d8ed"/>
        <path id="Trazado_258609" data-name="Trazado 258609" d="M643.7,554.375a1.649,1.649,0,0,1-1.426-.145l-13.265-7.393c-.472-.263-.61-.628-.3-.815l8.638-5.164a1.653,1.653,0,0,1,1.42.144l13.266,7.393c.472.263.609.634.3.816Z" transform="translate(-346.441 -298.052)" fill="#c9d8ed"/>
        <path id="Trazado_258610" data-name="Trazado 258610" d="M684.377,577.046a1.656,1.656,0,0,1-1.429-.147l-13.258-7.389c-.469-.262-.62-.634-.307-.821l8.638-5.164a1.684,1.684,0,0,1,1.43.15l13.259,7.389c.474.264.612.635.306.818Z" transform="translate(-368.859 -310.547)" fill="#c9d8ed"/>
        <path id="Trazado_258611" data-name="Trazado 258611" d="M725.055,599.716a1.647,1.647,0,0,1-1.427-.145l-13.256-7.389c-.478-.266-.617-.632-.3-.819l8.638-5.164a1.662,1.662,0,0,1,1.427.148l13.256,7.388c.476.265.61.634.3.817Z" transform="translate(-391.282 -323.044)" fill="#c9d8ed"/>
        <path id="Trazado_258612" data-name="Trazado 258612" d="M765.745,622.375a1.648,1.648,0,0,1-1.427-.145l-13.264-7.393c-.478-.266-.613-.63-.3-.817l8.638-5.164a1.651,1.651,0,0,1,1.423.146l13.265,7.392c.473.263.61.634.3.817Z" transform="translate(-413.706 -335.531)" fill="#c9d8ed"/>
        <path id="Trazado_258613" data-name="Trazado 258613" d="M806.417,645.044a1.64,1.64,0,0,1-1.425-.145l-13.255-7.387c-.482-.268-.621-.634-.308-.821l8.638-5.164a1.665,1.665,0,0,1,1.431.15l13.255,7.387c.475.265.607.633.3.815Z" transform="translate(-436.127 -348.027)" fill="#c9d8ed"/>
        <path id="Trazado_258614" data-name="Trazado 258614" d="M847.1,667.716a1.645,1.645,0,0,1-1.425-.145l-13.264-7.393c-.474-.264-.609-.628-.3-.815l8.638-5.164a1.647,1.647,0,0,1,1.419.143l13.264,7.393c.474.264.608.633.3.816Z" transform="translate(-458.549 -360.523)" fill="#c9d8ed"/>
        <path id="Trazado_258615" data-name="Trazado 258615" d="M619.888,510.5a1.653,1.653,0,0,1-1.435-.143l-13.26-7.39c-.471-.263-.606-.631-.291-.819l8.636-5.163a1.656,1.656,0,0,1,1.421.144l13.259,7.39c.479.267.612.635.306.818Z" transform="translate(-333.315 -273.868)" fill="#c9d8ed"/>
        <path id="Trazado_258616" data-name="Trazado 258616" d="M660.556,533.162a1.65,1.65,0,0,1-1.429-.141l-13.26-7.39c-.477-.266-.613-.634-.3-.823l8.637-5.163a1.665,1.665,0,0,1,1.428.147l13.26,7.39c.471.263.607.632.3.816Z" transform="translate(-355.73 -286.361)" fill="#c9d8ed"/>
        <path id="Trazado_258617" data-name="Trazado 258617" d="M701.239,555.836a1.653,1.653,0,0,1-1.437-.145L686.545,548.3c-.474-.264-.608-.632-.293-.82l8.637-5.163a1.655,1.655,0,0,1,1.422.144l13.258,7.389c.481.268.614.636.307.82Z" transform="translate(-378.153 -298.858)" fill="#c9d8ed"/>
        <path id="Trazado_258618" data-name="Trazado 258618" d="M741.908,578.5a1.641,1.641,0,0,1-1.429-.141l-13.261-7.39c-.478-.266-.613-.635-.3-.823l8.637-5.163a1.659,1.659,0,0,1,1.428.147l13.26,7.391c.478.267.607.632.3.816Z" transform="translate(-400.569 -311.351)" fill="#c9d8ed"/>
        <path id="Trazado_258619" data-name="Trazado 258619" d="M782.6,601.163a1.648,1.648,0,0,1-1.427-.139l-13.26-7.39c-.479-.267-.611-.633-.3-.822l8.637-5.163a1.653,1.653,0,0,1,1.425.146l13.261,7.391c.469.262.6.631.3.814Z" transform="translate(-423.001 -323.842)" fill="#c9d8ed"/>
        <path id="Trazado_258620" data-name="Trazado 258620" d="M823.283,623.836a1.657,1.657,0,0,1-1.439-.145L808.586,616.3c-.47-.262-.61-.632-.294-.82l8.637-5.163a1.665,1.665,0,0,1,1.424.145l13.258,7.389c.482.268.616.638.31.821Z" transform="translate(-445.42 -336.337)" fill="#c9d8ed"/>
        <path id="Trazado_258621" data-name="Trazado 258621" d="M863.956,646.5a1.653,1.653,0,0,1-1.431-.141l-13.26-7.39c-.478-.267-.611-.633-.3-.822l8.637-5.163a1.656,1.656,0,0,1,1.425.146l13.26,7.39c.474.264.608.633.3.816Z" transform="translate(-467.839 -348.832)" fill="#c9d8ed"/>
        <path id="Trazado_258622" data-name="Trazado 258622" d="M527.384,458.96a1.655,1.655,0,0,1-1.436-.144l-22.482-12.53c-.478-.267-.614-.635-.3-.823L511.8,440.3a1.661,1.661,0,0,1,1.429.148l22.482,12.53c.478.267.613.636.307.819Z" transform="translate(-277.241 -242.627)" fill="#c9d8ed"/>
        <path id="Trazado_258623" data-name="Trazado 258623" d="M919.8,647.024a1.657,1.657,0,0,1-1.432-.144l-22.483-12.531c-.469-.262-.61-.634-.3-.82l8.634-5.161a1.663,1.663,0,0,1,1.43.144l22.483,12.531c.478.266.614.634.3.821Z" transform="translate(-493.538 -346.285)" fill="#c9d8ed"/>
        <path id="Trazado_258624" data-name="Trazado 258624" d="M505.208,477.207a1.641,1.641,0,0,1-1.429-.147l-26.8-14.938c-.478-.267-.618-.632-.305-.82l8.638-5.164a1.659,1.659,0,0,1,1.428.149l26.8,14.937c.483.269.612.636.306.818Z" transform="translate(-262.639 -251.357)" fill="#c9d8ed"/>
        <path id="Trazado_258625" data-name="Trazado 258625" d="M469.783,488.068a1.664,1.664,0,0,1-1.431-.146l-17.871-9.96c-.478-.267-.612-.636-.3-.82l8.636-5.162a1.663,1.663,0,0,1,1.434.145l17.871,9.96c.478.266.611.637.3.822Z" transform="translate(-248.037 -260.086)" fill="#c9d8ed"/>
        <path id="Trazado_258626" data-name="Trazado 258626" d="M585.335,460.651a1.655,1.655,0,0,1-1.435-.146l-13.25-7.385c-.478-.266-.614-.636-.3-.822l8.634-5.161a1.657,1.657,0,0,1,1.433.145l13.251,7.385c.483.269.617.636.3.823Z" transform="translate(-314.271 -246.394)" fill="#c9d8ed"/>
        <path id="Trazado_258627" data-name="Trazado 258627" d="M625.826,483.2a1.662,1.662,0,0,1-1.434-.146l-13.259-7.39c-.475-.264-.613-.635-.3-.821l8.633-5.161a1.662,1.662,0,0,1,1.432.145l13.259,7.39c.478.266.616.635.3.822Z" transform="translate(-336.585 -258.82)" fill="#c9d8ed"/>
        <path id="Trazado_258628" data-name="Trazado 258628" d="M666.5,505.868a1.641,1.641,0,0,1-1.427-.142l-13.26-7.39c-.475-.265-.609-.633-.3-.82l8.634-5.161a1.652,1.652,0,0,1,1.429.143l13.26,7.39c.479.267.609.631.3.818Z" transform="translate(-359.008 -271.317)" fill="#c9d8ed"/>
        <path id="Trazado_258629" data-name="Trazado 258629" d="M707.187,528.545a1.661,1.661,0,0,1-1.433-.145L692.5,521.014c-.481-.268-.614-.636-.3-.822l8.634-5.161a1.653,1.653,0,0,1,1.434.146l13.252,7.385c.477.266.615.635.3.822Z" transform="translate(-381.433 -283.815)" fill="#c9d8ed"/>
        <path id="Trazado_258630" data-name="Trazado 258630" d="M747.853,551.209a1.637,1.637,0,0,1-1.426-.141L733.17,543.68c-.48-.268-.614-.636-.3-.822L741.5,537.7a1.654,1.654,0,0,1,1.434.146l13.256,7.388c.481.268.608.631.295.818Z" transform="translate(-403.848 -296.308)" fill="#c9d8ed"/>
        <path id="Trazado_258631" data-name="Trazado 258631" d="M788.551,573.872a1.659,1.659,0,0,1-1.428-.142l-13.265-7.393c-.473-.264-.606-.631-.295-.818l8.633-5.161a1.646,1.646,0,0,1,1.426.141l13.265,7.393c.472.263.61.631.3.819Z" transform="translate(-426.279 -308.799)" fill="#c9d8ed"/>
        <path id="Trazado_258632" data-name="Trazado 258632" d="M829.221,596.54a1.657,1.657,0,0,1-1.432-.145l-13.259-7.389c-.479-.267-.616-.637-.3-.823l8.634-5.161a1.661,1.661,0,0,1,1.436.147l13.258,7.389c.478.266.614.634.3.821Z" transform="translate(-448.692 -321.291)" fill="#c9d8ed"/>
        <path id="Trazado_258633" data-name="Trazado 258633" d="M869.9,619.21a1.644,1.644,0,0,1-1.424-.14l-13.269-7.4c-.472-.263-.6-.63-.293-.816l8.633-5.161a1.645,1.645,0,0,1,1.424.14l13.268,7.4c.474.264.606.629.293.816Z" transform="translate(-471.116 -333.788)" fill="#c9d8ed"/>
        <path id="Trazado_258634" data-name="Trazado 258634" d="M890.414,655.8a2.005,2.005,0,0,0-.774-.24,1.063,1.063,0,0,0-.646.1l-8.637,5.163a.3.3,0,0,0-.152.38.966.966,0,0,0,.443.438l3.462,1.929-11.325,6.77a.3.3,0,0,0-.143.381.943.943,0,0,0,.447.438l8.932,4.978a2.067,2.067,0,0,0,.778.245,1.079,1.079,0,0,0,.655-.1l20.53-12.273a.288.288,0,0,0,.14-.379.934.934,0,0,0-.449-.442Z" transform="translate(-480.968 -361.327)" fill="#c9d8ed"/>
        <path id="Trazado_258635" data-name="Trazado 258635" d="M475.968,491.032c-.019.012-.081,0-.138-.036l-10.136-5.649c-.055-.031-.086-.066-.067-.078l.63-.377c.019-.012.082,0,.137.036l10.136,5.649c.056.031.087.067.067.078Z" transform="translate(-256.641 -267.26)" fill="#c9d8ed"/>
        <path id="Trazado_258636" data-name="Trazado 258636" d="M540.529,634.46l-51.284-28.6c-2.763-1.541-2.622-4.04.313-5.554l16.866-8.7a12.286,12.286,0,0,1,10.362.049l51.284,28.6c2.763,1.541,2.622,4.04-.313,5.554l-16.866,8.7a12.286,12.286,0,0,1-10.362-.049" transform="translate(-268.568 -325.466)" fill="#c9d8ed"/>
        <path id="Trazado_258637" data-name="Trazado 258637" d="M333.766,734.732,277.8,703.566a2.489,2.489,0,0,0-2.295.119l-5.1,3.2c-.036.019-.074.035-.108.057l-51.491,32.33c-.651.409-.679,1.018-.063,1.362l48.676,32.52c.616.343,8.936-1.064,9.587-1.473l5.1-3.2c.035-.019.074-.035.24.295l51.491-32.33c.518-.76.546-1.369-.07-1.713" transform="translate(-120.323 -387.666)" fill="#d6dae6"/>
        <path id="Trazado_258638" data-name="Trazado 258638" d="M205.183,781.807l-8.721.08-.414-5.5,8.721-.08Z" transform="translate(-108.058 -427.885)" fill="#7693bf"/>
        <path id="Trazado_258639" data-name="Trazado 258639" d="M432.392,778.554l-8.721.08-.414-5.5,8.721-.08Z" transform="translate(-233.29 -426.091)" fill="#363656"/>
        <path id="Trazado_258640" data-name="Trazado 258640" d="M323.514,669.823a2.615,2.615,0,0,0-3.4,1.621l-2.915,13,8.311,3.679,0,.013,49.648,32.714,3.76-17.1c.217-.971.316-2.029-.542-2.488Z" transform="translate(-174.833 -369.082)" fill="#7693bf"/>
        <path id="Trazado_258641" data-name="Trazado 258641" d="M253.354,779.078l-55.968-31.166c-.616-.343-.588-.953.063-1.362l51.491-32.329a2.489,2.489,0,0,1,2.295-.118l56.2,28.287c.617.343,1.16,1.077,1.438,2.85l-53.223,33.72a2.488,2.488,0,0,1-2.295.119" transform="translate(-108.55 -393.473)" fill="#7693bf"/>
        <path id="Trazado_258642" data-name="Trazado 258642" d="M308.59,703.389l-6.61-3.681,0-.013-47.827-26.633a1.887,1.887,0,0,0-2.82,1.184l-2.794,12a2.108,2.108,0,0,0-.46.208l-51.491,32.33c-.651.409-.68,1.018-.063,1.362l55.968,31.166a2.49,2.49,0,0,0,2.3-.119l51.491-32.329a1,1,0,0,0,.487-.605l.008,0,2.9-12.5a2.2,2.2,0,0,0-1.087-2.379" transform="translate(-108.077 -370.831)" fill="#9fb7db"/>
        <path id="Trazado_258643" data-name="Trazado 258643" d="M304.829,721.32l-7.058-3.93c-.511-.284-.487-.789.052-1.128l5.386-3.382a2.062,2.062,0,0,1,1.9-.1l7.058,3.93c.51.285.487.789-.052,1.128l-5.386,3.382a2.063,2.063,0,0,1-1.9.1" transform="translate(-163.922 -392.767)" fill="#eff1f7"/>
        <path id="Trazado_258644" data-name="Trazado 258644" d="M336.837,739.144l-7.058-3.93c-.511-.284-.487-.789.052-1.128l5.386-3.382a2.063,2.063,0,0,1,1.9-.1l7.058,3.93c.51.285.487.789-.052,1.128l-5.386,3.382a2.063,2.063,0,0,1-1.9.1" transform="translate(-181.565 -402.591)" fill="#eff1f7"/>
        <path id="Trazado_258645" data-name="Trazado 258645" d="M368.845,756.968l-7.058-3.93c-.51-.284-.487-.789.052-1.128l5.386-3.381a2.061,2.061,0,0,1,1.9-.1l7.058,3.93c.51.285.487.789-.052,1.128l-5.386,3.382a2.062,2.062,0,0,1-1.9.1" transform="translate(-199.207 -412.416)" fill="#eff1f7"/>
        <path id="Trazado_258646" data-name="Trazado 258646" d="M400.852,774.791l-7.058-3.93c-.511-.284-.487-.789.052-1.128l5.386-3.381a2.061,2.061,0,0,1,1.9-.1l7.058,3.93c.51.285.487.789-.052,1.128l-5.386,3.382a2.062,2.062,0,0,1-1.9.1" transform="translate(-216.848 -422.239)" fill="#eff1f7"/>
        <path id="Trazado_258647" data-name="Trazado 258647" d="M277.456,738.507l-7.058-3.93c-.511-.284-.487-.789.052-1.128l5.386-3.382a2.062,2.062,0,0,1,1.9-.1l7.058,3.93c.51.285.487.789-.052,1.128l-5.386,3.382a2.063,2.063,0,0,1-1.9.1" transform="translate(-148.835 -402.24)" fill="#eff1f7"/>
        <path id="Trazado_258648" data-name="Trazado 258648" d="M309.464,756.331l-7.058-3.93c-.511-.284-.487-.789.052-1.128l5.386-3.381a2.061,2.061,0,0,1,1.9-.1l7.058,3.93c.51.285.487.789-.052,1.128l-5.386,3.382a2.063,2.063,0,0,1-1.9.1" transform="translate(-166.477 -412.064)" fill="#eff1f7"/>
        <path id="Trazado_258649" data-name="Trazado 258649" d="M341.471,774.155l-7.058-3.93c-.511-.284-.487-.789.052-1.128l5.386-3.382a2.061,2.061,0,0,1,1.9-.1l7.058,3.93c.51.284.487.789-.052,1.128l-5.386,3.382a2.062,2.062,0,0,1-1.9.1" transform="translate(-184.119 -421.889)" fill="#eff1f7"/>
        <path id="Trazado_258650" data-name="Trazado 258650" d="M373.479,791.978l-7.058-3.93c-.51-.284-.487-.789.053-1.128l5.386-3.382a2.062,2.062,0,0,1,1.9-.1l7.058,3.93c.51.285.487.789-.052,1.128l-5.386,3.382a2.062,2.062,0,0,1-1.9.1" transform="translate(-201.761 -431.712)" fill="#eff1f7"/>
        <path id="Trazado_258651" data-name="Trazado 258651" d="M250.083,755.694l-7.058-3.93c-.511-.284-.487-.789.052-1.128l5.386-3.382a2.061,2.061,0,0,1,1.9-.1l7.059,3.93c.51.284.487.789-.052,1.128l-5.386,3.382a2.062,2.062,0,0,1-1.9.1" transform="translate(-133.748 -411.713)" fill="#eff1f7"/>
        <path id="Trazado_258652" data-name="Trazado 258652" d="M282.09,773.518l-7.058-3.93c-.51-.284-.487-.789.053-1.128l5.386-3.382a2.062,2.062,0,0,1,1.9-.1l7.058,3.93c.51.285.487.789-.052,1.128l-5.386,3.382a2.063,2.063,0,0,1-1.9.1" transform="translate(-151.389 -421.537)" fill="#eff1f7"/>
        <path id="Trazado_258653" data-name="Trazado 258653" d="M314.1,791.341l-7.058-3.93c-.51-.284-.487-.789.052-1.128l5.386-3.382a2.062,2.062,0,0,1,1.9-.1l7.058,3.93c.51.285.487.789-.052,1.128L316,791.243a2.063,2.063,0,0,1-1.9.1" transform="translate(-169.031 -431.361)" fill="#eff1f7"/>
        <path id="Trazado_258654" data-name="Trazado 258654" d="M346.105,809.165l-7.058-3.93c-.511-.284-.487-.789.052-1.128l5.386-3.382a2.062,2.062,0,0,1,1.9-.1l7.058,3.93c.51.285.487.789-.052,1.128l-5.386,3.382a2.063,2.063,0,0,1-1.9.1" transform="translate(-186.673 -441.185)" fill="#718be0"/>
        <path id="Trazado_258655" data-name="Trazado 258655" d="M222.709,772.881l-7.058-3.93c-.511-.284-.487-.789.052-1.128l5.386-3.381a2.061,2.061,0,0,1,1.9-.1l7.058,3.93c.51.285.487.789-.052,1.128l-5.386,3.382a2.062,2.062,0,0,1-1.9.1" transform="translate(-118.66 -421.186)" fill="#eff1f7"/>
        <path id="Trazado_258656" data-name="Trazado 258656" d="M254.717,790.705l-7.058-3.93c-.511-.284-.487-.789.052-1.128l5.386-3.382a2.062,2.062,0,0,1,1.9-.1l7.058,3.93c.51.284.487.789-.052,1.128l-5.386,3.382a2.063,2.063,0,0,1-1.9.1" transform="translate(-136.302 -431.011)" fill="#eff1f7"/>
        <path id="Trazado_258657" data-name="Trazado 258657" d="M286.724,808.528l-7.058-3.93c-.511-.284-.487-.789.052-1.128l5.386-3.382a2.061,2.061,0,0,1,1.9-.1l7.058,3.93c.51.285.487.789-.052,1.128l-5.386,3.382a2.063,2.063,0,0,1-1.9.1" transform="translate(-153.943 -440.834)" fill="#eff1f7"/>
        <path id="Trazado_258658" data-name="Trazado 258658" d="M318.624,820.076l-6.227-3.468c-.74-.412-.706-1.144.075-1.634l12.584-7.9a2.986,2.986,0,0,1,2.754-.143l6.227,3.468c.74.412.706,1.144-.075,1.634l-12.584,7.9a2.986,2.986,0,0,1-2.754.143" transform="translate(-171.892 -444.613)" fill="#718be0"/>
        <path id="Trazado_258659" data-name="Trazado 258659" d="M374.152,708.847l-4.2-2.334,0-.008L336.9,688.113l-.006.025-12.356-6.873a.809.809,0,0,0-1.208.508l-1.758,7.576a.941.941,0,0,0,.465,1.019l4.7,2.614,0,.008,33.062,18.391.006-.024,11.572,6.437a1.466,1.466,0,0,0,2.189-.921l1.434-6.18a1.705,1.705,0,0,0-.843-1.847" transform="translate(-177.229 -375.436)" fill="#07317d"/>
        <path id="Trazado_258660" data-name="Trazado 258660" d="M700.029,107.58c-7.3-4.39-15.856-1.571-19.1,6.3a18.486,18.486,0,0,0,7.353,22.193c7.305,4.39,15.856,1.571,19.1-6.3a18.487,18.487,0,0,0-7.353-22.194m-9.813,23.8a12.4,12.4,0,0,1-4.931-14.882,8.626,8.626,0,0,1,12.808-4.222,12.4,12.4,0,0,1,4.931,14.882,8.626,8.626,0,0,1-12.808,4.222" transform="translate(-374.625 -58.155)" fill="#8aa3ff"/>
        <path id="Trazado_258661" data-name="Trazado 258661" d="M722.473,141.124a18.265,18.265,0,0,0-.813-15.022l-4.04,2.428a12.236,12.236,0,0,1,.5,9.975,8.558,8.558,0,0,1-10.225,5.317l-.832,5.187c6.295,1.729,12.705-1.316,15.414-7.886" transform="translate(-389.716 -69.505)" fill="#ffab66"/>
        <path id="Trazado_258662" data-name="Trazado 258662" d="M702.213,105.9l1.347,5.27a8.96,8.96,0,0,1,6.954,1.11,11.849,11.849,0,0,1,4.636,5.336l4.279-1.924a17.7,17.7,0,0,0-6.981-8.105,13.379,13.379,0,0,0-10.236-1.688" transform="translate(-387.045 -58.158)" fill="#fff"/>
        <g id="Grupo_877418" data-name="Grupo 877418" transform="translate(347.975 173.775)" style="mix-blend-mode: multiply;isolation: isolate">
          <g id="Grupo_877417" data-name="Grupo 877417">
            <g id="Grupo_877416-2" data-name="Grupo 877416" clip-path="url(#clip-path-3)">
              <path id="Trazado_258663" data-name="Trazado 258663" d="M780.295,559.085,864.1,507.8a70.225,70.225,0,0,0,31.29-42.156l20.488-78.462-90.237,39.16L775.308,561.274Z" transform="translate(-775.308 -387.18)" fill="#d6dae6"/>
            </g>
          </g>
        </g>
        <path id="Trazado_258664" data-name="Trazado 258664" d="M1004.945,335.67l-77.07-43.6c-2.473-1.4-3.825-4.406-3.022-6.716s3.46-3.049,5.933-1.65l77.07,43.6c2.473,1.4,3.825,4.406,3.021,6.716s-3.46,3.049-5.933,1.65" transform="translate(-509.632 -155.979)" fill="#333e69"/>
        <path id="Trazado_258665" data-name="Trazado 258665" d="M855.694,590.045l-55.618-30.079,46.335-34.859,19.451,34.68Z" transform="translate(-440.985 -289.428)" fill="#ebedfa"/>
        <path id="Trazado_258666" data-name="Trazado 258666" d="M822.71,408.908s16.811-54.657,19.069-59.25c3.256-6.624,10.773-34.686,38.081-37.968l61.861,35.074s-21.979,2.293-35.3,37.3c-19.753,51.917-19.242,85.288-31.52,90.267A6.342,6.342,0,0,1,868.2,472.5c-5.266-7.625,12.613-32.868-.963-39.319-9.2-4.371-44.524-24.273-44.524-24.273" transform="translate(-453.46 -171.797)" fill="#fff"/>
        <path id="Trazado_258667" data-name="Trazado 258667" d="M640.623,592.076s12.644,3.1,41.089-67.65c4.721-11.74,13.789-25.421,27.015-24.063a47.334,47.334,0,0,1,22.474,8.626c24.523,17.007,35.073,27.866,35.073,27.866s-13.074-4.269-23.679,20.724c-7.8,18.392-26.287,64.7-44.118,66.7Z" transform="translate(-353.098 -275.738)" fill="#fff"/>
        <line id="Línea_184" data-name="Línea 184" x2="7.86" y2="4.223" transform="translate(343.246 323.928)" fill="none" stroke="#c8cfe6" stroke-linecap="round" stroke-linejoin="round" stroke-width="3.249"/>
        <line id="Línea_185" data-name="Línea 185" x2="15.584" y2="8.849" transform="translate(312.265 305.93)" fill="none" stroke="#c8cfe6" stroke-linecap="round" stroke-linejoin="round" stroke-width="3.249"/>
        <line id="Línea_186" data-name="Línea 186" x2="7.86" y2="4.223" transform="translate(354.823 304.859)" fill="none" stroke="#c8cfe6" stroke-linecap="round" stroke-linejoin="round" stroke-width="3.249"/>
        <line id="Línea_187" data-name="Línea 187" x2="15.584" y2="8.849" transform="translate(323.842 286.861)" fill="none" stroke="#c8cfe6" stroke-linecap="round" stroke-linejoin="round" stroke-width="3.249"/>
        <line id="Línea_188" data-name="Línea 188" x2="7.86" y2="4.223" transform="translate(364.528 284.938)" fill="none" stroke="#c8cfe6" stroke-linecap="round" stroke-linejoin="round" stroke-width="3.249"/>
        <line id="Línea_189" data-name="Línea 189" x2="15.584" y2="8.849" transform="translate(333.547 266.941)" fill="none" stroke="#c8cfe6" stroke-linecap="round" stroke-linejoin="round" stroke-width="3.249"/>
        <line id="Línea_190" data-name="Línea 190" x2="7.86" y2="4.223" transform="translate(376.787 259.57)" fill="none" stroke="#c8cfe6" stroke-linecap="round" stroke-linejoin="round" stroke-width="3.249"/>
        <line id="Línea_191" data-name="Línea 191" x2="15.584" y2="8.849" transform="translate(345.806 241.572)" fill="none" stroke="#c8cfe6" stroke-linecap="round" stroke-linejoin="round" stroke-width="3.249"/>
        <line id="Línea_192" data-name="Línea 192" x2="7.86" y2="4.223" transform="translate(418.33 238.117)" fill="none" stroke="#c8cfe6" stroke-linecap="round" stroke-linejoin="round" stroke-width="3.249"/>
        <line id="Línea_193" data-name="Línea 193" x2="15.584" y2="8.849" transform="translate(387.349 220.12)" fill="none" stroke="#c8cfe6" stroke-linecap="round" stroke-linejoin="round" stroke-width="3.249"/>
        <line id="Línea_194" data-name="Línea 194" x2="7.861" y2="4.223" transform="translate(425.594 212.692)" fill="none" stroke="#c8cfe6" stroke-linecap="round" stroke-linejoin="round" stroke-width="3.249"/>
        <line id="Línea_195" data-name="Línea 195" x2="15.584" y2="8.849" transform="translate(394.613 194.694)" fill="none" stroke="#c8cfe6" stroke-linecap="round" stroke-linejoin="round" stroke-width="3.249"/>
        <line id="Línea_196" data-name="Línea 196" x2="7.86" y2="4.223" transform="translate(436.264 190.445)" fill="none" stroke="#c8cfe6" stroke-linecap="round" stroke-linejoin="round" stroke-width="3.249"/>
        <line id="Línea_197" data-name="Línea 197" x2="15.584" y2="8.849" transform="translate(405.283 172.447)" fill="none" stroke="#c8cfe6" stroke-linecap="round" stroke-linejoin="round" stroke-width="3.249"/>
        <line id="Línea_198" data-name="Línea 198" x2="7.86" y2="4.223" transform="translate(451.474 171.149)" fill="none" stroke="#c8cfe6" stroke-linecap="round" stroke-linejoin="round" stroke-width="3.249"/>
        <line id="Línea_199" data-name="Línea 199" x2="15.584" y2="8.849" transform="translate(420.493 153.151)" fill="none" stroke="#c8cfe6" stroke-linecap="round" stroke-linejoin="round" stroke-width="3.249"/>
        <path id="Trazado_258668" data-name="Trazado 258668" d="M878.926,560.594s5.363-17.622-6.976-24.945l-43.676-25.055" transform="translate(-456.527 -281.429)" fill="none" stroke="#c8cfe6" stroke-linecap="round" stroke-linejoin="round" stroke-width="3.249"/>
        <path id="Trazado_258669" data-name="Trazado 258669" d="M780.713,150.984c6.773,5.666,8.741,16.076,4.395,23.252s-13.36,8.4-20.133,2.733-8.741-16.076-4.395-23.251,13.36-8.4,20.133-2.733" transform="translate(-417.943 -81.255)" fill="#ffab66"/>
        <path id="Trazado_258670" data-name="Trazado 258670" d="M788.422,177.78l-8.572,7.55-3.8-7.55" transform="translate(-427.742 -97.989)" fill="none" stroke="#fff" stroke-linecap="round" stroke-linejoin="round" stroke-width="3.079"/>
        <path id="Trazado_258671" data-name="Trazado 258671" d="M209.586,465.825l38.9-43.885,4.623-3.5a82.073,82.073,0,0,1,16.557-9.748c5.021-2.2,10.319-4.135,13.8-4.663l49.9-11.533s-23.84,23.453-41.124,53.249c-1.02,1.759,2,4.781.954,6.2l3.817,4.453-28.158,27.7c-3.955,4.376-17.631,10.08-23.357,11.5l-4.483,1.3c-23.871,14.752-31.432-31.083-31.432-31.083" transform="translate(-115.519 -216.336)" fill="#eb966c"/>
        <path id="Trazado_258672" data-name="Trazado 258672" d="M477.215,320.786a11.638,11.638,0,0,0-.024-6.7l.037-.017a7.442,7.442,0,0,0-3.169-4.4l-50.826-29.277a4.35,4.35,0,0,0-3.907-.289l-3,1.208L381.386,398.3a.341.341,0,0,0-.02.16c-1.273,4.315.143,9.214,3.176,10.961l51.894,30.556,2.261-1.3a7.661,7.661,0,0,0,4.7-5.174Z" transform="translate(-209.943 -154.201)" fill="#212945"/>
        <path id="Trazado_258673" data-name="Trazado 258673" d="M428.644,441.423l-50.679-29.282c-3.045-1.754-4.312-6.688-3.014-11.015l33.983-113.25c1.3-4.327,4.743-6.411,7.788-4.656L467.367,312.5c3.045,1.754,4.279,6.689,2.981,11.016l-33.983,113.25c-1.3,4.327-4.676,6.408-7.721,4.654" transform="translate(-206.386 -155.762)" fill="#333e69"/>
        <path id="Trazado_258674" data-name="Trazado 258674" d="M470.943,323.717l-51.706-29.646c-1.108-.638-3,.268-3.413,1.632L380.955,411.268a1.231,1.231,0,0,0,.524,1.5l51.706,29.646c1.108.638,3-.268,3.413-1.632l2.532-8.438a2.2,2.2,0,0,0,.328-.647l3.126-10.419a2.089,2.089,0,0,0,.184-.422l28.7-95.639a1.231,1.231,0,0,0-.524-1.5" transform="translate(-209.936 -161.971)" fill="#6572a3"/>
        <path id="Trazado_258675" data-name="Trazado 258675" d="M472.837,347.295l-42.946-24.624a2.206,2.206,0,0,0-2.835,1.355l-28.962,95.987a1.022,1.022,0,0,0,.435,1.247l42.946,24.624a2.206,2.206,0,0,0,2.835-1.355l2.1-7.009a1.823,1.823,0,0,0,.272-.538l2.6-8.654a1.7,1.7,0,0,0,.153-.351l23.837-79.436a1.023,1.023,0,0,0-.435-1.247" transform="translate(-219.389 -177.754)" fill="#fff"/>
        <path id="Trazado_258676" data-name="Trazado 258676" d="M488.124,397.049l-31.392-17.387,6.878-22.794L495,374.255Z" transform="translate(-251.741 -196.698)" fill="#5b78e3"/>
        <path id="Trazado_258677" data-name="Trazado 258677" d="M480.483,380.038l-2.608-1.444.327-1.083,6.323,3.5-.327,1.083-2.608-1.444-2.736,9.068-1.106-.613Z" transform="translate(-263.324 -208.076)" fill="#fff"/>
        <path id="Trazado_258678" data-name="Trazado 258678" d="M491.744,388.774l1.238.686-.139,11.77-1.172-.649.117-3.547-3.148-1.744-1.763,2.635-1.12-.62Zm-2.514,5.633,2.595,1.437.059-1.774c.025-1.3.084-2.572.162-3.9l-.053-.029c-.618,1.031-1.231,1.991-1.888,2.946Z" transform="translate(-267.739 -214.284)" fill="#fff"/>
        <path id="Trazado_258679" data-name="Trazado 258679" d="M506.288,400.682l-.865-6.2,1.212.671.388,3.249c.084.588.142,1.108.228,1.842l.053.029c.415-.457.712-.78,1.062-1.127l1.93-1.965,1.159.642L507.6,401.48l.952,6.577-1.211-.671-.438-3.439c-.074-.619-.158-1.261-.247-2.034l-.053-.029c-.437.481-.815.867-1.175,1.245l-2.078,2.046-1.159-.642Z" transform="translate(-276.796 -217.428)" fill="#fff"/>
        <path id="Trazado_258680" data-name="Trazado 258680" d="M582.366,490.587c-.65-6.979-11.387-43.674-13.316-48.446s-6.82-1.346-6.224,2.517a3.754,3.754,0,0,0-4.979,2.014c-.316.592-6.625,6.3-.791,21.321,0,0,1.26,14.457,2.014,16.324,0,0-2.183,16.091-1.132,19.287,0,0-4.536,9.518-6.775,13.745l24.876,30.44,4.972-14.506a33.555,33.555,0,0,0,1.813-10.781c.028-9.137.016-26.813-.459-31.916" transform="translate(-303.79 -242.414)" fill="#eb966c"/>
        <path id="Trazado_258681" data-name="Trazado 258681" d="M582.506,456.278s9.069,38.4,9.007,39.054.027,34.129-1.94,37.551" transform="translate(-321.065 -251.491)" fill="none" stroke="#b86237" stroke-linecap="round" stroke-linejoin="round" stroke-width="2.8"/>
        <path id="Trazado_258682" data-name="Trazado 258682" d="M505.882,722.469c-.381,1.954,11.219,49.8,11.219,49.8l53.886.647-27.572-64.582Z" transform="translate(-278.826 -390.42)" fill="#eb966c"/>
        <path id="Trazado_258683" data-name="Trazado 258683" d="M477.728,455.4l-30.522-16.9.913-2.655,30.522,16.9Z" transform="translate(-246.49 -240.232)" fill="#dfe8f5"/>
        <path id="Trazado_258684" data-name="Trazado 258684" d="M464.735,488.475l-30.522-16.9.913-2.655,30.522,16.9Z" transform="translate(-239.329 -258.461)" fill="#dfe8f5"/>
        <path id="Trazado_258685" data-name="Trazado 258685" d="M451.742,521.548l-30.522-16.9.913-2.655,30.522,16.9Z" transform="translate(-232.167 -276.69)" fill="#dfe8f5"/>
        <path id="Trazado_258686" data-name="Trazado 258686" d="M514.867,559.925c-.572,1.06-5.836,10.778-6,10.933-3.8,3.595-10.89,2.08-10.89,2.08s-2.654-1.417-4.056-8.525c-.823-4.175-.641-11.419-.744-14.326-.5-14.034-4.034-16.548-8-16.422-1.895.061-4.475.512-5.043,2.321-1.456,4.639-3.48,15.936-2.771,20.983.929,6.612-.837,22.233-.837,22.233s-2.029,28.429,6.63,43.435c5.454,9.451,20.039,29.582,20.039,29.582l20.594-21.753,10.87-30.919Z" transform="translate(-262.54 -294.142)" fill="#eb966c"/>
        <path id="Trazado_258687" data-name="Trazado 258687" d="M483.973,547.506a2.419,2.419,0,0,0,4.695-.677l.384-6.822a2.417,2.417,0,0,0-4.026-1.938" transform="translate(-266.756 -296.232)" fill="none" stroke="#b86237" stroke-linecap="round" stroke-linejoin="round" stroke-width="2.8"/>
        <line id="Línea_200" data-name="Línea 200" x2="2.532" y2="4.546" transform="translate(246.327 276.715)" fill="none" stroke="#b86237" stroke-linecap="round" stroke-linejoin="round" stroke-width="2.8"/>
        <path id="Trazado_258688" data-name="Trazado 258688" d="M551.533,757.746l17.891,40.248-60.993.079-9.343-31.054c13.326-10.009,25.883-5.287,52.444-9.274" transform="translate(-275.087 -417.654)" fill="#fff"/>
        <path id="Trazado_258689" data-name="Trazado 258689" d="M565.453,789.523l27.619,60.5H515.421L502.9,802.141c13.2-15.666,42.836-14.738,62.557-12.617" transform="translate(-277.186 -434.523)" fill="#526ccc"/>
        <path id="Trazado_258690" data-name="Trazado 258690" d="M622.335,789.578l27.383,60.5H631.725L606.1,788.452c5.757.141,11.308.6,16.238,1.126" transform="translate(-334.068 -434.578)" fill="#455aab"/>
        <path id="Trazado_258691" data-name="Trazado 258691" d="M170.29,584.275c-1.382,1.433-57.149,21.524-57.149,21.524L89.316,563.327l69.417-16.162Z" transform="translate(-49.229 -301.586)" fill="#eb966c"/>
        <path id="Trazado_258692" data-name="Trazado 258692" d="M122.206,557.662,69.611,569.057l35.03,50.027,34.749-15.346c.555-16.657-5.215-22.032-17.184-46.076" transform="translate(-38.368 -307.371)" fill="#fff"/>
        <path id="Trazado_258693" data-name="Trazado 258693" d="M87.144,615.787,0,645.627V572.643l63.7-14.138C82.242,571.35,83.609,596.4,87.144,615.787" transform="translate(0 -307.836)" fill="#526ccc"/>
        <path id="Trazado_258694" data-name="Trazado 258694" d="M87.144,666.372,0,696.44V674.987l84.428-24.7c1.486,5.658,1.832,11.243,2.715,16.09" transform="translate(0 -358.422)" fill="#455aab"/>
        <path id="Trazado_258695" data-name="Trazado 258695" d="M268.744,507.394c.675-.162,6.692-13.722,16.012-23.752,5.389-5.8,19.762-14.785,19.762-14.785l21.441-4.366a3.882,3.882,0,0,1,4.473,3.959c.071,4.137-1.272,9.145-13.28,11.69a35.933,35.933,0,0,0-8.927,2.6c-3.508,1.585-7.057,14.986-9.315,17.2-1.342,1.316-5.492,6.4-13.123,16.721-13.976,18.907-26.252,4.519-26.252,4.519Z" transform="translate(-143.051 -255.977)" fill="#eb966c"/>
        <path id="Trazado_258696" data-name="Trazado 258696" d="M312.253,480.724s11.487-10.085,16.529-11.875l22.6-6.256" transform="translate(-172.107 -254.971)" fill="none" stroke="#b86237" stroke-linecap="round" stroke-linejoin="round" stroke-width="2.8"/>
        <path id="Trazado_258697" data-name="Trazado 258697" d="M299.26,539.6S316.8,528.684,322.4,517.438s4.809-14.293,12.729-16.125" transform="translate(-164.946 -276.313)" fill="none" stroke="#b86237" stroke-linecap="round" stroke-linejoin="round" stroke-width="2.8"/>
        <path id="Trazado_258698" data-name="Trazado 258698" d="M386.11,468.4a2.342,2.342,0,0,0-1,2.409,2.384,2.384,0,0,0,2.852,1.778l6.683-1.421a2.383,2.383,0,0,0,1.882-2.784,2.284,2.284,0,0,0-1.037-1.464" transform="translate(-212.236 -257.355)" fill="none" stroke="#b86237" stroke-linecap="round" stroke-linejoin="round" stroke-width="2.748"/>
        <line id="Línea_201" data-name="Línea 201" x1="18.767" y2="6.998" transform="translate(164.002 196.488)" fill="none" stroke="#b86237" stroke-linecap="round" stroke-linejoin="round" stroke-width="2.8"/>
        <path id="Trazado_258699" data-name="Trazado 258699" d="M856.065,189.762c-7.492-4.018-15.842-.746-18.649,7.309l13.567,7.276Z" transform="translate(-461.566 -103.646)" fill="#fff"/>
        <path id="Trazado_258700" data-name="Trazado 258700" d="M859.042,197.48c-.217-.117-.435-.224-.654-.328L853.1,211.925l-12.7-6.814a18.54,18.54,0,0,0,8.547,21.351c7.444,3.992,15.739.741,18.528-7.262a18.523,18.523,0,0,0-8.428-21.72" transform="translate(-462.769 -108.666)" fill="#8aa3ff"/>
        <g id="Grupo_877421" data-name="Grupo 877421" transform="translate(285.807 84.727)" style="mix-blend-mode: multiply;isolation: isolate">
          <g id="Grupo_877420" data-name="Grupo 877420">
            <g id="Grupo_877419" data-name="Grupo 877419" clip-path="url(#clip-path-4)">
              <path id="Trazado_258701" data-name="Trazado 258701" d="M743.6,234.356l-81.545-44.8a5.184,5.184,0,0,0-7.835,3.194l-17.152,60.1a8.935,8.935,0,0,0,4.135,9.77l81.545,44.8a5.183,5.183,0,0,0,7.835-3.194l17.152-60.1a8.935,8.935,0,0,0-4.135-9.77" transform="translate(-636.794 -188.777)" fill="#d6dae6"/>
            </g>
          </g>
        </g>
        <path id="Trazado_258702" data-name="Trazado 258702" d="M699.992,318.55l-81.545-44.8a8.936,8.936,0,0,1-4.135-9.769l17.152-60.1a5.184,5.184,0,0,1,7.835-3.193l81.545,44.8a8.935,8.935,0,0,1,4.135,9.769l-17.152,60.1a5.184,5.184,0,0,1-7.835,3.193" transform="translate(-338.442 -110.183)" fill="#fff"/>
        <line id="Línea_202" data-name="Línea 202" x2="5.341" y2="2.934" transform="translate(291.515 156.712)" fill="none" stroke="#c8cfe6" stroke-linecap="round" stroke-linejoin="round" stroke-width="2.877"/>
        <line id="Línea_203" data-name="Línea 203" x2="5.341" y2="2.934" transform="translate(306.228 164.794)" fill="none" stroke="#c8cfe6" stroke-linecap="round" stroke-linejoin="round" stroke-width="2.877"/>
        <line id="Línea_204" data-name="Línea 204" x2="5.341" y2="2.934" transform="translate(320.94 172.877)" fill="none" stroke="#c8cfe6" stroke-linecap="round" stroke-linejoin="round" stroke-width="2.877"/>
        <line id="Línea_205" data-name="Línea 205" x2="5.341" y2="2.934" transform="translate(335.652 180.959)" fill="none" stroke="#c8cfe6" stroke-linecap="round" stroke-linejoin="round" stroke-width="2.877"/>
        <line id="Línea_206" data-name="Línea 206" x2="5.341" y2="2.934" transform="translate(350.364 189.041)" fill="none" stroke="#c8cfe6" stroke-linecap="round" stroke-linejoin="round" stroke-width="2.877"/>
        <path id="Trazado_258703" data-name="Trazado 258703" d="M653.463,305.075l-2.955-1.623,7.88-27.612,2.955,1.623Z" transform="translate(-358.546 -152.037)" fill="#5b78e3"/>
        <path id="Trazado_258704" data-name="Trazado 258704" d="M665.363,322.373l-2.955-1.623,5.379-18.85,2.955,1.623Z" transform="translate(-365.105 -166.401)" fill="#dbcbbc"/>
        <path id="Trazado_258705" data-name="Trazado 258705" d="M682.884,349.543l-2.955-1.623,1.3-4.564,2.954,1.623Z" transform="translate(-374.763 -189.251)" fill="#5b78e3"/>
        <path id="Trazado_258706" data-name="Trazado 258706" d="M694.539,336.1l-2.955-1.623,6.144-21.53,2.955,1.623Z" transform="translate(-381.187 -172.493)" fill="#5b78e3"/>
        <path id="Trazado_258707" data-name="Trazado 258707" d="M717.781,340.409l-2.955-1.623,7.88-27.612,2.955,1.623Z" transform="translate(-393.997 -171.513)" fill="#5b78e3"/>
        <path id="Trazado_258708" data-name="Trazado 258708" d="M729.682,356.867l-2.955-1.623L732.3,335.71l2.955,1.623Z" transform="translate(-400.557 -185.036)" fill="#5b78e3"/>
        <path id="Trazado_258709" data-name="Trazado 258709" d="M750.042,380.834l-2.955-1.623,2.6-9.127,2.955,1.623Z" transform="translate(-411.779 -203.983)" fill="#dbcbbc"/>
        <path id="Trazado_258710" data-name="Trazado 258710" d="M761.942,358.645l-2.955-1.623,9.28-32.518,2.955,1.623Z" transform="translate(-418.338 -178.86)" fill="#5b78e3"/>
        <path id="Trazado_258711" data-name="Trazado 258711" d="M782.789,398.823l-2.955-1.623,2.6-9.127,2.955,1.623Z" transform="translate(-429.828 -213.898)" fill="#dbcbbc"/>
        <path id="Trazado_258712" data-name="Trazado 258712" d="M794.689,381.313l-2.955-1.623,8.193-28.709,2.955,1.623Z" transform="translate(-436.387 -193.453)" fill="#5b78e3"/>
        <line id="Línea_207" data-name="Línea 207" x2="76.029" y2="41.768" transform="translate(287.3 149.186)" fill="none" stroke="#2d4973" stroke-linecap="round" stroke-linejoin="round" stroke-width="2.385"/>
        <line id="Línea_208" data-name="Línea 208" x2="41.743" y2="22.932" transform="translate(299.649 102.842)" fill="none" stroke="#c8cfe6" stroke-linecap="round" stroke-linejoin="round" stroke-width="2.877"/>
        <line id="Línea_209" data-name="Línea 209" x2="14.127" y2="7.761" transform="translate(298.052 108.437)" fill="none" stroke="#c8cfe6" stroke-linecap="round" stroke-linejoin="round" stroke-width="2.877"/>
        <path id="Trazado_258713" data-name="Trazado 258713" d="M1061.32,784.244l27.392-6.794,43.82-26.418a3.712,3.712,0,0,0-.2-6.47l-20.894-10.909-51.846,36.931Z" transform="translate(-584.025 -404.374)" fill="#d6dae6"/>
        <path id="Trazado_258714" data-name="Trazado 258714" d="M1150.914,590.671l14.056-8.2-13.964-7.353-14.147,8.174Z" transform="translate(-626.612 -316.995)" fill="#ffab66"/>
        <path id="Trazado_258715" data-name="Trazado 258715" d="M1168.175,599.7l.011,75.912,14.045-8.2V591.505Z" transform="translate(-643.874 -326.025)" fill="#e0853a"/>
        <path id="Trazado_258716" data-name="Trazado 258716" d="M1150.914,600.71l-14.056-7.375v75.912l14.066,7.375Z" transform="translate(-626.612 -327.034)" fill="#f29950"/>
        <path id="Trazado_258717" data-name="Trazado 258717" d="M1099.69,669.938l13.955-8.217-13.92-7.33-14.008,8.195Z" transform="translate(-598.424 -360.686)" fill="#6b83de"/>
        <path id="Trazado_258718" data-name="Trazado 258718" d="M1116.849,678.972v54.6l13.882-8.191v-54.6Z" transform="translate(-615.583 -369.72)" fill="#455aab"/>
        <path id="Trazado_258719" data-name="Trazado 258719" d="M1085.918,672.589v54.6l13.882,7.379v-54.6Z" transform="translate(-598.535 -370.717)" fill="#526ccc"/>
        <path id="Trazado_258720" data-name="Trazado 258720" d="M1046.223,757.524l14.008-8.194L1046.31,742l-14.146,8.182Z" transform="translate(-568.907 -408.974)" fill="#d6e5fc"/>
        <path id="Trazado_258721" data-name="Trazado 258721" d="M1032.165,760.231v30.852l14.3,7.836V767.6Z" transform="translate(-568.907 -419.023)" fill="#b8cff2"/>
        <path id="Trazado_258722" data-name="Trazado 258722" d="M1063.441,766.526v31.321l14.008-8.195V758.332Z" transform="translate(-586.146 -417.976)" fill="#9fb7db"/>
        <path id="Trazado_258723" data-name="Trazado 258723" d="M698.477,720.785l-57.854-32.2s6.758-.613,14.216-13.219" transform="translate(-353.098 -372.248)" fill="none" stroke="#bac1d6" stroke-linecap="round" stroke-linejoin="round" stroke-width="3.249"/>
        <circle id="Elipse_4864" data-name="Elipse 4864" cx="3.784" cy="3.784" r="3.784" transform="translate(547.069 198.165) rotate(-5.655)" fill="none" stroke="#2d4e73" stroke-linecap="round" stroke-miterlimit="10" stroke-width="2"/>
        <circle id="Elipse_4865" data-name="Elipse 4865" cx="3.784" cy="3.784" r="3.784" transform="translate(407.987 378.17)" fill="none" stroke="#2d4e73" stroke-linecap="round" stroke-miterlimit="10" stroke-width="2"/>
        <circle id="Elipse_4866" data-name="Elipse 4866" cx="3.784" cy="3.784" r="3.784" transform="translate(450.297 52.383) rotate(-76.718)" fill="none" stroke="#2d4e73" stroke-linecap="round" stroke-miterlimit="10" stroke-width="2"/>
        <circle id="Elipse_4867" data-name="Elipse 4867" cx="3.784" cy="3.784" r="3.784" transform="translate(145.033 156.949) rotate(-79.099)" fill="none" stroke="#2d4e73" stroke-linecap="round" stroke-miterlimit="10" stroke-width="2"/>
      </g>
    </g>
  </g>
</svg>
