<svg xmlns="http://www.w3.org/2000/svg" width="402.363" height="370.444" viewBox="0 0 402.363 370.444">
  <g id="Grupo_1072269" data-name="Grupo 1072269" transform="translate(2732.114 5518.444)">
    <g id="Grupo_1072242" data-name="Grupo 1072242" transform="translate(3622.249 5429.556)">
      <g id="Grupo_1072051" data-name="Grupo 1072051" transform="translate(-6352 -10948)">
        <rect id="Rect치ngulo_377635" data-name="Rect치ngulo 377635" width="400" height="370.444" fill="#fff"/>
      </g>
    </g>
    <g id="Grupo_1072226" data-name="Grupo 1072226" transform="translate(-2607.967 -5423.091)">
      <rect id="Rect치ngulo_377663" data-name="Rect치ngulo 377663" width="154.069" height="173.271" transform="translate(0 0.5)" fill="#e1fbff"/>
      <g id="Grupo_1072225" data-name="Grupo 1072225" transform="translate(0)">
        <g id="Grupo_871603" data-name="Grupo 871603">
          <g id="Grupo_870556" data-name="Grupo 870556">
            <g id="Grupo_870549" data-name="Grupo 870549" transform="translate(28.705 30.636) rotate(-180)">
              <path id="Trazado_213855" data-name="Trazado 213855" d="M0,0,3.93,3.368V27.361H0Z" transform="translate(24.775 0)" fill="#3ae3fe"/>
              <path id="Trazado_213856" data-name="Trazado 213856" d="M0,28.7l3.93-3.588V0H0Z" transform="translate(28.705 26.706) rotate(90)" fill="#3ae3fe"/>
            </g>
          </g>
        </g>
      </g>
      <g id="Grupo_1072224" data-name="Grupo 1072224" transform="translate(154.069 173.59) rotate(180)">
        <g id="Grupo_871603-2" data-name="Grupo 871603" transform="translate(0 0)">
          <g id="Grupo_870556-2" data-name="Grupo 870556" transform="translate(0 0)">
            <g id="Grupo_870549-2" data-name="Grupo 870549" transform="translate(28.705 30.636) rotate(-180)">
              <path id="Trazado_213855-2" data-name="Trazado 213855" d="M0,0,3.93,3.368V27.361H0Z" transform="translate(24.775 0)" fill="#3ae3fe"/>
              <path id="Trazado_213856-2" data-name="Trazado 213856" d="M0,28.7l3.93-3.588V0H0Z" transform="translate(28.705 26.706) rotate(90)" fill="#3ae3fe"/>
            </g>
          </g>
        </g>
      </g>
    </g>
    <path id="Trazado_609596" data-name="Trazado 609596" d="M28.936,6.339h-3.92V17H22.379V6.339H18.512V4.2H28.936ZM34.306,17a2.821,2.821,0,0,1-.255-.853,3.073,3.073,0,0,1-2.4,1.028,3.376,3.376,0,0,1-2.316-.809,2.6,2.6,0,0,1-.918-2.039,2.687,2.687,0,0,1,1.121-2.32,5.529,5.529,0,0,1,3.239-.817h1.169v-.545a1.567,1.567,0,0,0-.338-1.055,1.331,1.331,0,0,0-1.068-.4,1.513,1.513,0,0,0-1.006.308,1.045,1.045,0,0,0-.365.844h-2.54a2.551,2.551,0,0,1,.51-1.529,3.37,3.37,0,0,1,1.441-1.1,5.253,5.253,0,0,1,2.092-.4,4.15,4.15,0,0,1,2.791.883,3.09,3.09,0,0,1,1.033,2.483V14.8a4.546,4.546,0,0,0,.378,2.048V17Zm-2.1-1.767a2.188,2.188,0,0,0,1.037-.25,1.645,1.645,0,0,0,.7-.672V12.676H33q-1.907,0-2.03,1.318l-.009.149a1.017,1.017,0,0,0,.334.782A1.3,1.3,0,0,0,32.205,15.233ZM43.789,9.872a6.9,6.9,0,0,0-.914-.07,1.86,1.86,0,0,0-1.89.976V17h-2.54V7.49h2.4l.07,1.134a2.354,2.354,0,0,1,2.118-1.31,2.662,2.662,0,0,1,.791.114ZM47.691,17H45.143V7.49h2.549Zm-2.7-11.971a1.251,1.251,0,0,1,.382-.94,1.648,1.648,0,0,1,2.079,0,1.244,1.244,0,0,1,.387.94,1.247,1.247,0,0,1-.391.949,1.629,1.629,0,0,1-2.065,0A1.247,1.247,0,0,1,44.993,5.029ZM50.478,17V9.354H49.063V7.49h1.415V6.682A3.283,3.283,0,0,1,51.4,4.2a3.557,3.557,0,0,1,2.571-.883,5.938,5.938,0,0,1,1.292.176L55.232,5.46a3.238,3.238,0,0,0-.773-.079q-1.433,0-1.433,1.345V7.49h1.89V9.354h-1.89V17Zm11.268,0a2.821,2.821,0,0,1-.255-.853,3.073,3.073,0,0,1-2.4,1.028,3.376,3.376,0,0,1-2.316-.809,2.6,2.6,0,0,1-.918-2.039,2.687,2.687,0,0,1,1.121-2.32,5.529,5.529,0,0,1,3.239-.817h1.169v-.545a1.567,1.567,0,0,0-.338-1.055,1.331,1.331,0,0,0-1.068-.4,1.513,1.513,0,0,0-1.006.308,1.045,1.045,0,0,0-.365.844h-2.54a2.551,2.551,0,0,1,.51-1.529,3.37,3.37,0,0,1,1.441-1.1,5.253,5.253,0,0,1,2.092-.4A4.15,4.15,0,0,1,62.9,8.2a3.09,3.09,0,0,1,1.033,2.483V14.8a4.546,4.546,0,0,0,.378,2.048V17Zm-2.1-1.767a2.188,2.188,0,0,0,1.037-.25,1.645,1.645,0,0,0,.7-.672V12.676h-.949q-1.907,0-2.03,1.318l-.009.149a1.017,1.017,0,0,0,.334.782A1.3,1.3,0,0,0,59.645,15.233ZM7.42,42H4.871V32.49H7.42Zm-2.7-11.971a1.251,1.251,0,0,1,.382-.94,1.436,1.436,0,0,1,1.042-.369,1.44,1.44,0,0,1,1.037.369,1.342,1.342,0,0,1,0,1.89,1.443,1.443,0,0,1-1.033.369,1.443,1.443,0,0,1-1.033-.369A1.247,1.247,0,0,1,4.722,30.029Zm7.172,2.461.079,1.063a3.342,3.342,0,0,1,2.733-1.239,2.536,2.536,0,0,1,2.522,1.45,3.265,3.265,0,0,1,2.856-1.45,2.836,2.836,0,0,1,2.3.9,4.141,4.141,0,0,1,.756,2.711V42H20.595V35.936a1.811,1.811,0,0,0-.316-1.182,1.4,1.4,0,0,0-1.116-.374,1.585,1.585,0,0,0-1.582,1.09L17.589,42h-2.54V35.944a1.789,1.789,0,0,0-.325-1.2,1.416,1.416,0,0,0-1.107-.369,1.646,1.646,0,0,0-1.564.9V42H9.512V32.49Zm21.762,4.843a5.7,5.7,0,0,1-1,3.52,3.2,3.2,0,0,1-2.694,1.323,2.963,2.963,0,0,1-2.329-1v4.482h-2.54V32.49H27.45l.088.932a2.985,2.985,0,0,1,2.408-1.107,3.22,3.22,0,0,1,2.733,1.3,5.858,5.858,0,0,1,.976,3.586Zm-2.54-.185a3.743,3.743,0,0,0-.47-2.048,1.532,1.532,0,0,0-1.367-.721,1.663,1.663,0,0,0-1.644.914v3.894a1.692,1.692,0,0,0,1.661.94Q31.115,40.128,31.115,37.148Zm9.809,3.885a3.185,3.185,0,0,1-2.6,1.143,3,3,0,0,1-2.333-.879,3.752,3.752,0,0,1-.822-2.575V32.49h2.54v6.151q0,1.487,1.354,1.487a1.834,1.834,0,0,0,1.775-.9V32.49h2.549V42H40.994Zm8.754,1.143a4.668,4.668,0,0,1-3.406-1.283,4.561,4.561,0,0,1-1.314-3.419v-.246a5.745,5.745,0,0,1,.554-2.562,4.064,4.064,0,0,1,1.569-1.74,4.4,4.4,0,0,1,2.316-.611,3.947,3.947,0,0,1,3.072,1.23,5,5,0,0,1,1.121,3.489v1.037H47.533a2.36,2.36,0,0,0,.743,1.494,2.245,2.245,0,0,0,1.569.563,2.742,2.742,0,0,0,2.294-1.063l1.248,1.4a3.813,3.813,0,0,1-1.547,1.261A5.075,5.075,0,0,1,49.678,42.176Zm-.29-7.813a1.587,1.587,0,0,0-1.226.512,2.651,2.651,0,0,0-.6,1.466h3.533v-.2a1.891,1.891,0,0,0-.457-1.311A1.638,1.638,0,0,0,49.388,34.362Zm10.793,5.01a.818.818,0,0,0-.461-.734,5.241,5.241,0,0,0-1.481-.479q-3.393-.712-3.393-2.883a2.613,2.613,0,0,1,1.05-2.114,4.237,4.237,0,0,1,2.747-.848,4.56,4.56,0,0,1,2.9.853,2.687,2.687,0,0,1,1.085,2.215h-2.54a1.229,1.229,0,0,0-.352-.9,1.488,1.488,0,0,0-1.1-.356,1.52,1.52,0,0,0-.993.29.916.916,0,0,0-.352.738.783.783,0,0,0,.4.681,4.114,4.114,0,0,0,1.349.448,11.019,11.019,0,0,1,1.6.426,2.628,2.628,0,0,1,2.013,2.558,2.481,2.481,0,0,1-1.116,2.1,4.815,4.815,0,0,1-2.883.8,5.029,5.029,0,0,1-2.123-.426,3.561,3.561,0,0,1-1.455-1.169,2.716,2.716,0,0,1-.527-1.6h2.408a1.326,1.326,0,0,0,.5,1.037,1.987,1.987,0,0,0,1.248.36,1.839,1.839,0,0,0,1.1-.277A.861.861,0,0,0,60.181,39.372Zm7.146-9.22V32.49h1.626v1.863H67.326V39.1a1.133,1.133,0,0,0,.2.756,1.015,1.015,0,0,0,.773.229,4.051,4.051,0,0,0,.747-.062v1.925a5.229,5.229,0,0,1-1.538.229,2.425,2.425,0,0,1-2.725-2.7V34.354H63.4V32.49h1.389V30.152Zm2.382,7a5.64,5.64,0,0,1,.545-2.522,3.989,3.989,0,0,1,1.569-1.714,4.577,4.577,0,0,1,2.377-.606,4.33,4.33,0,0,1,3.142,1.178,4.727,4.727,0,0,1,1.358,3.2l.018.65A4.97,4.97,0,0,1,77.5,40.853a4.735,4.735,0,0,1-6.561,0,5.058,5.058,0,0,1-1.226-3.586Zm2.54.18a3.555,3.555,0,0,0,.51,2.073,1.831,1.831,0,0,0,2.9.009,3.89,3.89,0,0,0,.519-2.267,3.519,3.519,0,0,0-.519-2.06,1.686,1.686,0,0,0-1.459-.731,1.658,1.658,0,0,0-1.441.726A3.955,3.955,0,0,0,72.248,37.338ZM8.967,62.175a5.731,5.731,0,0,1,1-3.542,3.237,3.237,0,0,1,2.729-1.318,2.913,2.913,0,0,1,2.294,1.037V53.5h2.549V67H15.242l-.123-1.011a2.989,2.989,0,0,1-2.443,1.187,3.228,3.228,0,0,1-2.694-1.323A5.916,5.916,0,0,1,8.967,62.175Zm2.54.189a3.754,3.754,0,0,0,.466,2.051,1.517,1.517,0,0,0,1.354.713,1.7,1.7,0,0,0,1.661-.995V60.375a1.675,1.675,0,0,0-1.644-.995Q11.507,59.38,11.507,62.364Zm12.375,4.812a4.668,4.668,0,0,1-3.406-1.283,4.561,4.561,0,0,1-1.314-3.419v-.246a5.745,5.745,0,0,1,.554-2.562,4.064,4.064,0,0,1,1.569-1.74,4.4,4.4,0,0,1,2.316-.611,3.947,3.947,0,0,1,3.072,1.23,5,5,0,0,1,1.121,3.489v1.037H21.737a2.36,2.36,0,0,0,.743,1.494,2.245,2.245,0,0,0,1.569.563,2.742,2.742,0,0,0,2.294-1.063l1.248,1.4a3.813,3.813,0,0,1-1.547,1.261A5.075,5.075,0,0,1,23.882,67.176Zm-.29-7.813a1.587,1.587,0,0,0-1.226.512,2.651,2.651,0,0,0-.6,1.466H25.3v-.2a1.891,1.891,0,0,0-.457-1.311A1.638,1.638,0,0,0,23.592,59.362Zm15.469.51a6.9,6.9,0,0,0-.914-.07,1.86,1.86,0,0,0-1.89.976V67h-2.54V57.49h2.4l.07,1.134a2.354,2.354,0,0,1,2.118-1.31,2.662,2.662,0,0,1,.791.114Zm5.432,7.3a4.668,4.668,0,0,1-3.406-1.283,4.561,4.561,0,0,1-1.314-3.419v-.246a5.745,5.745,0,0,1,.554-2.562,4.064,4.064,0,0,1,1.569-1.74,4.4,4.4,0,0,1,2.316-.611,3.947,3.947,0,0,1,3.072,1.23A5,5,0,0,1,48.4,62.034v1.037H42.348a2.36,2.36,0,0,0,.743,1.494,2.245,2.245,0,0,0,1.569.563,2.742,2.742,0,0,0,2.294-1.063l1.248,1.4a3.813,3.813,0,0,1-1.547,1.261A5.075,5.075,0,0,1,44.492,67.176Zm-.29-7.813a1.587,1.587,0,0,0-1.226.512,2.651,2.651,0,0,0-.6,1.466h3.533v-.2a1.891,1.891,0,0,0-.457-1.311A1.638,1.638,0,0,0,44.2,59.362Zm7.98-1.872.079,1.1A3.32,3.32,0,0,1,55,57.314a2.759,2.759,0,0,1,2.25.888A4.142,4.142,0,0,1,58,60.856V67h-2.54V60.918a1.648,1.648,0,0,0-.352-1.173,1.574,1.574,0,0,0-1.169-.365,1.747,1.747,0,0,0-1.608.914V67h-2.54V57.49Zm10.784-2.338V57.49h1.626v1.863H62.967V64.1a1.133,1.133,0,0,0,.2.756,1.015,1.015,0,0,0,.773.229,4.051,4.051,0,0,0,.747-.062v1.925a5.229,5.229,0,0,1-1.538.229,2.425,2.425,0,0,1-2.725-2.7V59.354H59.038V57.49h1.389V55.152ZM71.519,67a2.821,2.821,0,0,1-.255-.853,3.073,3.073,0,0,1-2.4,1.028,3.376,3.376,0,0,1-2.316-.809,2.6,2.6,0,0,1-.918-2.039,2.687,2.687,0,0,1,1.121-2.32,5.529,5.529,0,0,1,3.239-.817h1.169v-.545a1.567,1.567,0,0,0-.338-1.055,1.331,1.331,0,0,0-1.068-.4,1.513,1.513,0,0,0-1.006.308,1.045,1.045,0,0,0-.365.844h-2.54a2.551,2.551,0,0,1,.51-1.529,3.37,3.37,0,0,1,1.441-1.1,5.253,5.253,0,0,1,2.092-.4,4.15,4.15,0,0,1,2.791.883,3.09,3.09,0,0,1,1.033,2.483V64.8a4.546,4.546,0,0,0,.378,2.048V67Zm-2.1-1.767a2.188,2.188,0,0,0,1.037-.25,1.645,1.645,0,0,0,.7-.672V62.676h-.949q-1.907,0-2.03,1.318l-.009.149a1.017,1.017,0,0,0,.334.782A1.3,1.3,0,0,0,69.418,65.233Zm-55.771,22.1a5.7,5.7,0,0,1-1,3.52,3.2,3.2,0,0,1-2.694,1.323,2.963,2.963,0,0,1-2.329-1v4.482H5.086V82.49H7.442l.088.932a2.985,2.985,0,0,1,2.408-1.107,3.22,3.22,0,0,1,2.733,1.3,5.858,5.858,0,0,1,.976,3.586Zm-2.54-.185a3.743,3.743,0,0,0-.47-2.048A1.532,1.532,0,0,0,9.27,84.38a1.663,1.663,0,0,0-1.644.914v3.894a1.692,1.692,0,0,0,1.661.94Q11.107,90.128,11.107,87.148Zm8.49,5.027a4.668,4.668,0,0,1-3.406-1.283,4.561,4.561,0,0,1-1.314-3.419v-.246a5.745,5.745,0,0,1,.554-2.562A4.064,4.064,0,0,1,17,82.925a4.4,4.4,0,0,1,2.316-.611,3.947,3.947,0,0,1,3.072,1.23,5,5,0,0,1,1.121,3.489v1.037H17.453a2.36,2.36,0,0,0,.743,1.494,2.245,2.245,0,0,0,1.569.563,2.742,2.742,0,0,0,2.294-1.063l1.248,1.4a3.813,3.813,0,0,1-1.547,1.261A5.075,5.075,0,0,1,19.6,92.176Zm-.29-7.813a1.587,1.587,0,0,0-1.226.512,2.651,2.651,0,0,0-.6,1.466h3.533v-.2a1.891,1.891,0,0,0-.457-1.311A1.638,1.638,0,0,0,19.307,84.362Zm10.986.51a6.9,6.9,0,0,0-.914-.07,1.86,1.86,0,0,0-1.89.976V92H24.95V82.49h2.4l.07,1.134a2.354,2.354,0,0,1,2.118-1.31,2.662,2.662,0,0,1,.791.114Zm6.372,4.5a.818.818,0,0,0-.461-.734,5.241,5.241,0,0,0-1.481-.479q-3.393-.712-3.393-2.883a2.613,2.613,0,0,1,1.05-2.114,4.237,4.237,0,0,1,2.747-.848,4.56,4.56,0,0,1,2.9.853,2.687,2.687,0,0,1,1.085,2.215h-2.54a1.229,1.229,0,0,0-.352-.9,1.488,1.488,0,0,0-1.1-.356,1.52,1.52,0,0,0-.993.29.916.916,0,0,0-.352.738.783.783,0,0,0,.4.681,4.114,4.114,0,0,0,1.349.448,11.019,11.019,0,0,1,1.6.426,2.628,2.628,0,0,1,2.013,2.558,2.481,2.481,0,0,1-1.116,2.1,4.815,4.815,0,0,1-2.883.8,5.029,5.029,0,0,1-2.123-.426,3.561,3.561,0,0,1-1.455-1.169,2.716,2.716,0,0,1-.527-1.6H33.44a1.326,1.326,0,0,0,.5,1.037,1.987,1.987,0,0,0,1.248.36,1.839,1.839,0,0,0,1.1-.277A.861.861,0,0,0,36.666,89.372Zm3.709-2.215a5.64,5.64,0,0,1,.545-2.522,3.989,3.989,0,0,1,1.569-1.714,4.577,4.577,0,0,1,2.377-.606,4.33,4.33,0,0,1,3.142,1.178,4.727,4.727,0,0,1,1.358,3.2l.018.65a4.97,4.97,0,0,1-1.222,3.511,4.735,4.735,0,0,1-6.561,0,5.058,5.058,0,0,1-1.226-3.586Zm2.54.18a3.555,3.555,0,0,0,.51,2.073,1.831,1.831,0,0,0,2.9.009,3.89,3.89,0,0,0,.519-2.267,3.519,3.519,0,0,0-.519-2.06,1.686,1.686,0,0,0-1.459-.731,1.658,1.658,0,0,0-1.441.726A3.955,3.955,0,0,0,42.915,87.338ZM53.286,82.49l.079,1.1A3.32,3.32,0,0,1,56.1,82.314a2.759,2.759,0,0,1,2.25.888,4.142,4.142,0,0,1,.756,2.654V92h-2.54V85.918a1.648,1.648,0,0,0-.352-1.173,1.574,1.574,0,0,0-1.169-.365,1.747,1.747,0,0,0-1.608.914V92H50.9V82.49ZM66.54,92a2.821,2.821,0,0,1-.255-.853,3.073,3.073,0,0,1-2.4,1.028,3.376,3.376,0,0,1-2.316-.809,2.6,2.6,0,0,1-.918-2.039,2.687,2.687,0,0,1,1.121-2.32,5.529,5.529,0,0,1,3.239-.817h1.169v-.545a1.567,1.567,0,0,0-.338-1.055,1.331,1.331,0,0,0-1.068-.4,1.513,1.513,0,0,0-1.006.308,1.045,1.045,0,0,0-.365.844h-2.54a2.551,2.551,0,0,1,.51-1.529,3.37,3.37,0,0,1,1.441-1.1,5.253,5.253,0,0,1,2.092-.4A4.15,4.15,0,0,1,67.7,83.2a3.09,3.09,0,0,1,1.033,2.483V89.8a4.546,4.546,0,0,0,.378,2.048V92Zm-2.1-1.767a2.188,2.188,0,0,0,1.037-.25,1.645,1.645,0,0,0,.7-.672V87.676H65.23q-1.907,0-2.03,1.318l-.009.149a1.017,1.017,0,0,0,.334.782A1.3,1.3,0,0,0,64.439,90.233Zm11.391-.861a.818.818,0,0,0-.461-.734,5.241,5.241,0,0,0-1.481-.479q-3.393-.712-3.393-2.883a2.613,2.613,0,0,1,1.05-2.114,4.237,4.237,0,0,1,2.747-.848,4.56,4.56,0,0,1,2.9.853,2.687,2.687,0,0,1,1.085,2.215h-2.54a1.229,1.229,0,0,0-.352-.9,1.488,1.488,0,0,0-1.1-.356,1.52,1.52,0,0,0-.993.29.916.916,0,0,0-.352.738.783.783,0,0,0,.4.681,4.114,4.114,0,0,0,1.349.448,11.019,11.019,0,0,1,1.6.426A2.628,2.628,0,0,1,78.3,89.267a2.481,2.481,0,0,1-1.116,2.1,4.815,4.815,0,0,1-2.883.8,5.029,5.029,0,0,1-2.123-.426,3.561,3.561,0,0,1-1.455-1.169,2.716,2.716,0,0,1-.527-1.6H72.6a1.326,1.326,0,0,0,.5,1.037,1.987,1.987,0,0,0,1.248.36,1.839,1.839,0,0,0,1.1-.277A.861.861,0,0,0,75.83,89.372ZM10.474,107.49v10.028a3.4,3.4,0,0,1-.835,2.448,3.174,3.174,0,0,1-2.408.875,5.165,5.165,0,0,1-1.257-.149v-2.013a4.768,4.768,0,0,0,.8.079q1.151,0,1.151-1.222V107.49Zm-2.751-2.461a1.251,1.251,0,0,1,.382-.94,1.436,1.436,0,0,1,1.042-.369,1.436,1.436,0,0,1,1.042.369,1.348,1.348,0,0,1-.009,1.89,1.443,1.443,0,0,1-1.033.369,1.443,1.443,0,0,1-1.033-.369A1.247,1.247,0,0,1,7.723,105.029Zm10.433,11a3.185,3.185,0,0,1-2.6,1.143,3,3,0,0,1-2.333-.879,3.752,3.752,0,0,1-.822-2.575V107.49h2.54v6.151q0,1.487,1.354,1.487a1.834,1.834,0,0,0,1.775-.9v-6.74h2.549V117H18.226Zm9.721-6.161a6.9,6.9,0,0,0-.914-.07,1.86,1.86,0,0,0-1.89.976V117h-2.54v-9.51h2.4l.07,1.134a2.354,2.354,0,0,1,2.118-1.31,2.662,2.662,0,0,1,.791.114ZM31.84,117H29.3v-9.51h2.54Zm-.747-13.368h2.769l-2.435,2.725H29.362Zm2.54,8.543a5.731,5.731,0,0,1,1-3.542,3.237,3.237,0,0,1,2.729-1.318,2.913,2.913,0,0,1,2.294,1.037V103.5H42.2V117H39.909l-.123-1.011a2.989,2.989,0,0,1-2.443,1.187,3.228,3.228,0,0,1-2.694-1.323A5.916,5.916,0,0,1,33.633,112.175Zm2.54.189a3.754,3.754,0,0,0,.466,2.051,1.517,1.517,0,0,0,1.354.713,1.7,1.7,0,0,0,1.661-.995v-3.759a1.675,1.675,0,0,0-1.644-.995Q36.173,109.38,36.173,112.364ZM46.852,117H44.3v-9.51h2.549Zm-2.7-11.971a1.251,1.251,0,0,1,.382-.94,1.648,1.648,0,0,1,2.079,0,1.342,1.342,0,0,1,0,1.89,1.629,1.629,0,0,1-2.065,0A1.247,1.247,0,0,1,44.154,105.029Zm8.745,10.1a1.666,1.666,0,0,0,1.143-.387,1.355,1.355,0,0,0,.457-1.028H56.88a3.258,3.258,0,0,1-.527,1.771,3.48,3.48,0,0,1-1.419,1.248,4.442,4.442,0,0,1-1.991.444,4.129,4.129,0,0,1-3.217-1.3,5.13,5.13,0,0,1-1.178-3.582v-.167a5.071,5.071,0,0,1,1.169-3.507,4.08,4.08,0,0,1,3.208-1.31,4,4,0,0,1,2.861,1.015,3.594,3.594,0,0,1,1.094,2.7H54.5a1.745,1.745,0,0,0-.457-1.206,1.7,1.7,0,0,0-2.5.183,3.749,3.749,0,0,0-.453,2.1v.264a3.8,3.8,0,0,0,.448,2.113A1.549,1.549,0,0,0,52.9,115.128ZM63.841,117a2.821,2.821,0,0,1-.255-.853,3.073,3.073,0,0,1-2.4,1.028,3.376,3.376,0,0,1-2.316-.809,2.6,2.6,0,0,1-.918-2.039,2.687,2.687,0,0,1,1.121-2.32,5.529,5.529,0,0,1,3.239-.817h1.169v-.545a1.567,1.567,0,0,0-.338-1.055,1.331,1.331,0,0,0-1.068-.4,1.513,1.513,0,0,0-1.006.308,1.045,1.045,0,0,0-.365.844h-2.54a2.551,2.551,0,0,1,.51-1.529,3.37,3.37,0,0,1,1.441-1.1,5.253,5.253,0,0,1,2.092-.4A4.15,4.15,0,0,1,65,108.2a3.09,3.09,0,0,1,1.033,2.483V114.8a4.546,4.546,0,0,0,.378,2.048V117Zm-2.1-1.767a2.188,2.188,0,0,0,1.037-.25,1.645,1.645,0,0,0,.7-.672v-1.635h-.949q-1.907,0-2.03,1.318l-.009.149a1.017,1.017,0,0,0,.334.782A1.3,1.3,0,0,0,61.741,115.233Zm11.391-.861a.818.818,0,0,0-.461-.734,5.241,5.241,0,0,0-1.481-.479q-3.393-.712-3.393-2.883a2.613,2.613,0,0,1,1.05-2.114,4.237,4.237,0,0,1,2.747-.848,4.56,4.56,0,0,1,2.9.853,2.687,2.687,0,0,1,1.085,2.215h-2.54a1.229,1.229,0,0,0-.352-.9,1.488,1.488,0,0,0-1.1-.356,1.52,1.52,0,0,0-.993.29.916.916,0,0,0-.352.738.783.783,0,0,0,.4.681,4.114,4.114,0,0,0,1.349.448,11.019,11.019,0,0,1,1.6.426,2.628,2.628,0,0,1,2.013,2.558,2.481,2.481,0,0,1-1.116,2.1,4.815,4.815,0,0,1-2.883.8,5.029,5.029,0,0,1-2.123-.426,3.561,3.561,0,0,1-1.455-1.169,2.716,2.716,0,0,1-.527-1.6h2.408a1.326,1.326,0,0,0,.5,1.037,1.987,1.987,0,0,0,1.248.36,1.839,1.839,0,0,0,1.1-.277A.861.861,0,0,0,73.131,114.372Z" transform="translate(-2572.364 -5405.955)" fill="#12263f"/>
    <path id="Trazado_609597" data-name="Trazado 609597" d="M0,0H53V24a5,5,0,0,1-5,5H5a5,5,0,0,1-5-5Z" transform="translate(-2421.751 -5320.06)" fill="#03386e"/>
    <path id="Trazado_609598" data-name="Trazado 609598" d="M0,0H53V24a5,5,0,0,1-5,5H5a5,5,0,0,1-5-5Z" transform="translate(-2692.114 -5320.06)" fill="#03386e"/>
    <path id="Trazado_609599" data-name="Trazado 609599" d="M0,0H53V24a5,5,0,0,1-5,5H5a5,5,0,0,1-5-5Z" transform="translate(-2504.177 -5195.06) rotate(180)" fill="#03386e"/>
    <path id="Trazado_609600" data-name="Trazado 609600" d="M0,0H132V33H0Z" transform="translate(-2461.751 -5353.06)" fill="#e1efe3"/>
    <path id="Trazado_609601" data-name="Trazado 609601" d="M0,0H132V33H0Z" transform="translate(-2732.114 -5353.06)" fill="#e1efe3"/>
    <path id="Trazado_609602" data-name="Trazado 609602" d="M5.716,9.036H6.945a2.2,2.2,0,0,0,1.473-.481,1.718,1.718,0,0,0,.544-1.37A1.872,1.872,0,0,0,8.51,5.844a1.821,1.821,0,0,0-1.382-.477,1.926,1.926,0,0,0-1.336.469A1.567,1.567,0,0,0,5.268,7.06H3.251a3.053,3.053,0,0,1,.494-1.693A3.318,3.318,0,0,1,5.123,4.176,4.489,4.489,0,0,1,7.1,3.748a4.157,4.157,0,0,1,2.843.909,3.19,3.19,0,0,1,1.033,2.528,2.568,2.568,0,0,1-.519,1.531A3.253,3.253,0,0,1,9.12,9.8a2.965,2.965,0,0,1,1.515,1.071,2.932,2.932,0,0,1,.519,1.743,3.246,3.246,0,0,1-1.116,2.59,4.335,4.335,0,0,1-2.934.963,4.3,4.3,0,0,1-2.855-.93,3.062,3.062,0,0,1-1.112-2.474H5.152a1.687,1.687,0,0,0,.535,1.295,2.03,2.03,0,0,0,1.44.5,2.094,2.094,0,0,0,1.478-.5,1.868,1.868,0,0,0,.54-1.444,1.887,1.887,0,0,0-.564-1.469A2.413,2.413,0,0,0,6.9,10.629H5.716ZM21.172,16H13.046V14.614l4.026-4.391A10.025,10.025,0,0,0,18.313,8.6a2.629,2.629,0,0,0,.369-1.307A1.986,1.986,0,0,0,18.2,5.9a1.684,1.684,0,0,0-1.307-.531,1.942,1.942,0,0,0-1.519.6,2.35,2.35,0,0,0-.54,1.635H12.813a3.953,3.953,0,0,1,.5-1.988,3.458,3.458,0,0,1,1.436-1.374,4.571,4.571,0,0,1,2.154-.49,4.088,4.088,0,0,1,2.777.884A3.069,3.069,0,0,1,20.7,7.077a4.148,4.148,0,0,1-.51,1.9,10.785,10.785,0,0,1-1.673,2.254L15.561,14.39h5.611Zm5.686-9.762a2.426,2.426,0,0,1,.706-1.8,2.81,2.81,0,0,1,3.715,0,2.486,2.486,0,0,1,.7,1.839v.6a2.409,2.409,0,0,1-.7,1.785,2.505,2.505,0,0,1-1.847.7,2.585,2.585,0,0,1-1.847-.685,2.417,2.417,0,0,1-.726-1.847Zm1.411.636a1.331,1.331,0,0,0,.32.928,1.081,1.081,0,0,0,.843.354,1.059,1.059,0,0,0,.83-.354,1.392,1.392,0,0,0,.315-.961V6.233a1.347,1.347,0,0,0-.32-.932,1.075,1.075,0,0,0-.843-.358,1.045,1.045,0,0,0-.834.362,1.41,1.41,0,0,0-.311.953Zm4.4,6.163a2.376,2.376,0,0,1,.722-1.8,2.814,2.814,0,0,1,3.69,0,2.456,2.456,0,0,1,.718,1.859v.589a2.428,2.428,0,0,1-.693,1.781,2.491,2.491,0,0,1-1.855.7,2.564,2.564,0,0,1-1.872-.693,2.443,2.443,0,0,1-.71-1.83Zm1.411.639a1.324,1.324,0,0,0,.328.926,1.087,1.087,0,0,0,.843.361,1.053,1.053,0,0,0,.834-.344,1.416,1.416,0,0,0,.3-.967v-.623a1.312,1.312,0,0,0-.324-.93,1.167,1.167,0,0,0-1.664,0,1.371,1.371,0,0,0-.32.963ZM29.847,15.1l-1.038-.6,5.9-9.446,1.038.6Z" transform="translate(-2415.751 -5314.06)" fill="#fff"/>
    <path id="Trazado_609603" data-name="Trazado 609603" d="M5.716,9.036H6.945a2.2,2.2,0,0,0,1.473-.481,1.718,1.718,0,0,0,.544-1.37A1.872,1.872,0,0,0,8.51,5.844a1.821,1.821,0,0,0-1.382-.477,1.926,1.926,0,0,0-1.336.469A1.567,1.567,0,0,0,5.268,7.06H3.251a3.053,3.053,0,0,1,.494-1.693A3.318,3.318,0,0,1,5.123,4.176,4.489,4.489,0,0,1,7.1,3.748a4.157,4.157,0,0,1,2.843.909,3.19,3.19,0,0,1,1.033,2.528,2.568,2.568,0,0,1-.519,1.531A3.253,3.253,0,0,1,9.12,9.8a2.965,2.965,0,0,1,1.515,1.071,2.932,2.932,0,0,1,.519,1.743,3.246,3.246,0,0,1-1.116,2.59,4.335,4.335,0,0,1-2.934.963,4.3,4.3,0,0,1-2.855-.93,3.062,3.062,0,0,1-1.112-2.474H5.152a1.687,1.687,0,0,0,.535,1.295,2.03,2.03,0,0,0,1.44.5,2.094,2.094,0,0,0,1.478-.5,1.868,1.868,0,0,0,.54-1.444,1.887,1.887,0,0,0-.564-1.469A2.413,2.413,0,0,0,6.9,10.629H5.716Zm7.869.971.656-6.093h6.491V5.657H15.918l-.332,2.889a3.732,3.732,0,0,1,1.893-.481,3.367,3.367,0,0,1,2.685,1.1,4.375,4.375,0,0,1,.959,2.972,4.027,4.027,0,0,1-1.062,2.934,3.878,3.878,0,0,1-2.914,1.092,4.061,4.061,0,0,1-2.752-.942,3.406,3.406,0,0,1-1.183-2.486h1.951a2.13,2.13,0,0,0,.631,1.349,1.919,1.919,0,0,0,1.345.469,1.734,1.734,0,0,0,1.448-.664,2.866,2.866,0,0,0,.519-1.81,2.533,2.533,0,0,0-.573-1.747,2,2,0,0,0-1.577-.643,2.624,2.624,0,0,0-.93.145,2.633,2.633,0,0,0-.83.569ZM26.858,6.238a2.426,2.426,0,0,1,.706-1.8,2.81,2.81,0,0,1,3.715,0,2.486,2.486,0,0,1,.7,1.839v.6a2.409,2.409,0,0,1-.7,1.785,2.505,2.505,0,0,1-1.847.7,2.585,2.585,0,0,1-1.847-.685,2.417,2.417,0,0,1-.726-1.847Zm1.411.636a1.331,1.331,0,0,0,.32.928,1.081,1.081,0,0,0,.843.354,1.059,1.059,0,0,0,.83-.354,1.392,1.392,0,0,0,.315-.961V6.233a1.347,1.347,0,0,0-.32-.932,1.075,1.075,0,0,0-.843-.358,1.045,1.045,0,0,0-.834.362,1.41,1.41,0,0,0-.311.953Zm4.4,6.163a2.376,2.376,0,0,1,.722-1.8,2.814,2.814,0,0,1,3.69,0,2.456,2.456,0,0,1,.718,1.859v.589a2.428,2.428,0,0,1-.693,1.781,2.491,2.491,0,0,1-1.855.7,2.564,2.564,0,0,1-1.872-.693,2.443,2.443,0,0,1-.71-1.83Zm1.411.639a1.324,1.324,0,0,0,.328.926,1.087,1.087,0,0,0,.843.361,1.053,1.053,0,0,0,.834-.344,1.416,1.416,0,0,0,.3-.967v-.623a1.312,1.312,0,0,0-.324-.93,1.167,1.167,0,0,0-1.664,0,1.371,1.371,0,0,0-.32.963ZM29.847,15.1l-1.038-.6,5.9-9.446,1.038.6Z" transform="translate(-2686.114 -5314.06)" fill="#fff"/>
    <path id="Trazado_609604" data-name="Trazado 609604" d="M5.716,9.036H6.945a2.2,2.2,0,0,0,1.473-.481,1.718,1.718,0,0,0,.544-1.37A1.872,1.872,0,0,0,8.51,5.844a1.821,1.821,0,0,0-1.382-.477,1.926,1.926,0,0,0-1.336.469A1.567,1.567,0,0,0,5.268,7.06H3.251a3.053,3.053,0,0,1,.494-1.693A3.318,3.318,0,0,1,5.123,4.176,4.489,4.489,0,0,1,7.1,3.748a4.157,4.157,0,0,1,2.843.909,3.19,3.19,0,0,1,1.033,2.528,2.568,2.568,0,0,1-.519,1.531A3.253,3.253,0,0,1,9.12,9.8a2.965,2.965,0,0,1,1.515,1.071,2.932,2.932,0,0,1,.519,1.743,3.246,3.246,0,0,1-1.116,2.59,4.335,4.335,0,0,1-2.934.963,4.3,4.3,0,0,1-2.855-.93,3.062,3.062,0,0,1-1.112-2.474H5.152a1.687,1.687,0,0,0,.535,1.295,2.03,2.03,0,0,0,1.44.5,2.094,2.094,0,0,0,1.478-.5,1.868,1.868,0,0,0,.54-1.444,1.887,1.887,0,0,0-.564-1.469A2.413,2.413,0,0,0,6.9,10.629H5.716ZM18.508,16H16.5V6.291L13.536,7.3V5.607L18.25,3.873h.257Zm8.351-9.762a2.426,2.426,0,0,1,.706-1.8,2.81,2.81,0,0,1,3.715,0,2.486,2.486,0,0,1,.7,1.839v.6a2.409,2.409,0,0,1-.7,1.785,2.505,2.505,0,0,1-1.847.7,2.585,2.585,0,0,1-1.847-.685,2.417,2.417,0,0,1-.726-1.847Zm1.411.636a1.331,1.331,0,0,0,.32.928,1.081,1.081,0,0,0,.843.354,1.059,1.059,0,0,0,.83-.354,1.392,1.392,0,0,0,.315-.961V6.233a1.347,1.347,0,0,0-.32-.932,1.075,1.075,0,0,0-.843-.358,1.045,1.045,0,0,0-.834.362,1.41,1.41,0,0,0-.311.953Zm4.4,6.163a2.376,2.376,0,0,1,.722-1.8,2.814,2.814,0,0,1,3.69,0,2.456,2.456,0,0,1,.718,1.859v.589a2.428,2.428,0,0,1-.693,1.781,2.491,2.491,0,0,1-1.855.7,2.564,2.564,0,0,1-1.872-.693,2.443,2.443,0,0,1-.71-1.83Zm1.411.639a1.324,1.324,0,0,0,.328.926,1.087,1.087,0,0,0,.843.361,1.053,1.053,0,0,0,.834-.344,1.416,1.416,0,0,0,.3-.967v-.623a1.312,1.312,0,0,0-.324-.93,1.167,1.167,0,0,0-1.664,0,1.371,1.371,0,0,0-.32.963ZM29.847,15.1l-1.038-.6,5.9-9.446,1.038.6Z" transform="translate(-2551.173 -5221.06)" fill="#fff"/>
    <path id="Trazado_609605" data-name="Trazado 609605" d="M20.028,13.186H15.347L14.367,16H12.184L16.75,3.914h1.884L23.208,16H21.016Zm-4.092-1.693h3.5L17.688,6.479Zm9.919-4.474.058,1.038a3.229,3.229,0,0,1,2.615-1.2q2.806,0,2.855,3.212V16H29.367V10.181A1.85,1.85,0,0,0,29,8.915,1.554,1.554,0,0,0,27.79,8.5a1.944,1.944,0,0,0-1.818,1.1V16H23.955V7.019Zm4.9-3.586a2.231,2.231,0,0,1-.527,1.519,1.681,1.681,0,0,1-1.324.606,1.972,1.972,0,0,1-.56-.071,3.564,3.564,0,0,1-.672-.32,3.323,3.323,0,0,0-.614-.3,1.465,1.465,0,0,0-.394-.05.7.7,0,0,0-.535.237.872.872,0,0,0-.22.618l-1.237-.066A2.3,2.3,0,0,1,25.2,4.072a1.654,1.654,0,0,1,1.316-.623,2.449,2.449,0,0,1,1.141.374,2.413,2.413,0,0,0,1.1.374.717.717,0,0,0,.54-.237.874.874,0,0,0,.224-.627Zm2.308,7.994a5.3,5.3,0,0,1,.523-2.378,3.819,3.819,0,0,1,1.469-1.627,4.14,4.14,0,0,1,2.175-.569,3.923,3.923,0,0,1,2.951,1.17,4.6,4.6,0,0,1,1.224,3.1l.008.473a5.343,5.343,0,0,1-.51,2.374,3.773,3.773,0,0,1-1.461,1.619,4.17,4.17,0,0,1-2.2.573A3.9,3.9,0,0,1,34.2,14.9a4.848,4.848,0,0,1-1.141-3.374Zm2.017.174a3.619,3.619,0,0,0,.573,2.171,1.862,1.862,0,0,0,1.594.784,1.842,1.842,0,0,0,1.59-.8,4,4,0,0,0,.569-2.333,3.572,3.572,0,0,0-.585-2.158,1.973,1.973,0,0,0-3.158-.012A3.922,3.922,0,0,0,35.078,11.6ZM55.348,16H47.222V14.614l4.026-4.391A10.025,10.025,0,0,0,52.489,8.6a2.629,2.629,0,0,0,.369-1.307A1.986,1.986,0,0,0,52.372,5.9a1.684,1.684,0,0,0-1.307-.531,1.942,1.942,0,0,0-1.519.6,2.35,2.35,0,0,0-.54,1.635H46.989a3.953,3.953,0,0,1,.5-1.988,3.458,3.458,0,0,1,1.436-1.374,4.571,4.571,0,0,1,2.154-.49,4.088,4.088,0,0,1,2.777.884,3.069,3.069,0,0,1,1.017,2.445,4.148,4.148,0,0,1-.51,1.9,10.785,10.785,0,0,1-1.673,2.254L49.737,14.39h5.611Zm9.413-5.088a6.591,6.591,0,0,1-.975,3.93,3.445,3.445,0,0,1-2.968,1.324,3.49,3.49,0,0,1-2.951-1.291,6.311,6.311,0,0,1-1.017-3.823V8.961a6.492,6.492,0,0,1,.975-3.91,4.066,4.066,0,0,1,5.935-.033,6.294,6.294,0,0,1,1,3.8ZM62.744,8.654a5.114,5.114,0,0,0-.465-2.494,1.777,1.777,0,0,0-2.93-.042,4.726,4.726,0,0,0-.49,2.345V11.2a5.246,5.246,0,0,0,.473,2.523,1.589,1.589,0,0,0,1.486.83,1.561,1.561,0,0,0,1.436-.768,4.936,4.936,0,0,0,.49-2.4ZM74.672,16H66.546V14.614l4.026-4.391A10.025,10.025,0,0,0,71.813,8.6a2.629,2.629,0,0,0,.369-1.307A1.986,1.986,0,0,0,71.7,5.9a1.684,1.684,0,0,0-1.307-.531,1.942,1.942,0,0,0-1.519.6,2.35,2.35,0,0,0-.54,1.635H66.313a3.953,3.953,0,0,1,.5-1.988,3.458,3.458,0,0,1,1.436-1.374,4.571,4.571,0,0,1,2.154-.49,4.088,4.088,0,0,1,2.777.884A3.069,3.069,0,0,1,74.2,7.077a4.148,4.148,0,0,1-.51,1.9,10.785,10.785,0,0,1-1.673,2.254L69.061,14.39h5.611Zm9.413-5.088a6.591,6.591,0,0,1-.975,3.93,3.445,3.445,0,0,1-2.968,1.324,3.49,3.49,0,0,1-2.951-1.291,6.312,6.312,0,0,1-1.017-3.823V8.961a6.492,6.492,0,0,1,.975-3.91,4.066,4.066,0,0,1,5.935-.033,6.294,6.294,0,0,1,1,3.8ZM82.068,8.654A5.114,5.114,0,0,0,81.6,6.159a1.777,1.777,0,0,0-2.93-.042,4.726,4.726,0,0,0-.49,2.345V11.2a5.246,5.246,0,0,0,.473,2.523,1.589,1.589,0,0,0,1.486.83,1.561,1.561,0,0,0,1.436-.768,4.936,4.936,0,0,0,.49-2.4Z" transform="translate(-2443.751 -5346.06)" fill="#12263f"/>
    <path id="Trazado_609606" data-name="Trazado 609606" d="M20.028,13.186H15.347L14.367,16H12.184L16.75,3.914h1.884L23.208,16H21.016Zm-4.092-1.693h3.5L17.688,6.479Zm9.919-4.474.058,1.038a3.229,3.229,0,0,1,2.615-1.2q2.806,0,2.855,3.212V16H29.367V10.181A1.85,1.85,0,0,0,29,8.915,1.554,1.554,0,0,0,27.79,8.5a1.944,1.944,0,0,0-1.818,1.1V16H23.955V7.019Zm4.9-3.586a2.231,2.231,0,0,1-.527,1.519,1.681,1.681,0,0,1-1.324.606,1.972,1.972,0,0,1-.56-.071,3.564,3.564,0,0,1-.672-.32,3.323,3.323,0,0,0-.614-.3,1.465,1.465,0,0,0-.394-.05.7.7,0,0,0-.535.237.872.872,0,0,0-.22.618l-1.237-.066A2.3,2.3,0,0,1,25.2,4.072a1.654,1.654,0,0,1,1.316-.623,2.449,2.449,0,0,1,1.141.374,2.413,2.413,0,0,0,1.1.374.717.717,0,0,0,.54-.237.874.874,0,0,0,.224-.627Zm2.308,7.994a5.3,5.3,0,0,1,.523-2.378,3.819,3.819,0,0,1,1.469-1.627,4.14,4.14,0,0,1,2.175-.569,3.923,3.923,0,0,1,2.951,1.17,4.6,4.6,0,0,1,1.224,3.1l.008.473a5.343,5.343,0,0,1-.51,2.374,3.773,3.773,0,0,1-1.461,1.619,4.17,4.17,0,0,1-2.2.573A3.9,3.9,0,0,1,34.2,14.9a4.848,4.848,0,0,1-1.141-3.374Zm2.017.174a3.619,3.619,0,0,0,.573,2.171,1.862,1.862,0,0,0,1.594.784,1.842,1.842,0,0,0,1.59-.8,4,4,0,0,0,.569-2.333,3.572,3.572,0,0,0-.585-2.158,1.973,1.973,0,0,0-3.158-.012A3.922,3.922,0,0,0,35.078,11.6ZM55.348,16H47.222V14.614l4.026-4.391A10.025,10.025,0,0,0,52.489,8.6a2.629,2.629,0,0,0,.369-1.307A1.986,1.986,0,0,0,52.372,5.9a1.684,1.684,0,0,0-1.307-.531,1.942,1.942,0,0,0-1.519.6,2.35,2.35,0,0,0-.54,1.635H46.989a3.953,3.953,0,0,1,.5-1.988,3.458,3.458,0,0,1,1.436-1.374,4.571,4.571,0,0,1,2.154-.49,4.088,4.088,0,0,1,2.777.884,3.069,3.069,0,0,1,1.017,2.445,4.148,4.148,0,0,1-.51,1.9,10.785,10.785,0,0,1-1.673,2.254L49.737,14.39h5.611Zm9.413-5.088a6.591,6.591,0,0,1-.975,3.93,3.445,3.445,0,0,1-2.968,1.324,3.49,3.49,0,0,1-2.951-1.291,6.311,6.311,0,0,1-1.017-3.823V8.961a6.492,6.492,0,0,1,.975-3.91,4.066,4.066,0,0,1,5.935-.033,6.294,6.294,0,0,1,1,3.8ZM62.744,8.654a5.114,5.114,0,0,0-.465-2.494,1.777,1.777,0,0,0-2.93-.042,4.726,4.726,0,0,0-.49,2.345V11.2a5.246,5.246,0,0,0,.473,2.523,1.589,1.589,0,0,0,1.486.83,1.561,1.561,0,0,0,1.436-.768,4.936,4.936,0,0,0,.49-2.4ZM74.672,16H66.546V14.614l4.026-4.391A10.025,10.025,0,0,0,71.813,8.6a2.629,2.629,0,0,0,.369-1.307A1.986,1.986,0,0,0,71.7,5.9a1.684,1.684,0,0,0-1.307-.531,1.942,1.942,0,0,0-1.519.6,2.35,2.35,0,0,0-.54,1.635H66.313a3.953,3.953,0,0,1,.5-1.988,3.458,3.458,0,0,1,1.436-1.374,4.571,4.571,0,0,1,2.154-.49,4.088,4.088,0,0,1,2.777.884A3.069,3.069,0,0,1,74.2,7.077a4.148,4.148,0,0,1-.51,1.9,10.785,10.785,0,0,1-1.673,2.254L69.061,14.39h5.611Zm9.662,0H76.208V14.614l4.026-4.391A10.025,10.025,0,0,0,81.475,8.6a2.629,2.629,0,0,0,.369-1.307A1.986,1.986,0,0,0,81.359,5.9a1.684,1.684,0,0,0-1.307-.531,1.942,1.942,0,0,0-1.519.6,2.35,2.35,0,0,0-.54,1.635H75.976a3.953,3.953,0,0,1,.5-1.988,3.458,3.458,0,0,1,1.436-1.374,4.571,4.571,0,0,1,2.154-.49,4.088,4.088,0,0,1,2.777.884,3.069,3.069,0,0,1,1.017,2.445,4.148,4.148,0,0,1-.51,1.9,10.785,10.785,0,0,1-1.673,2.254L78.723,14.39h5.611Z" transform="translate(-2714.114 -5346.06)" fill="#12263f"/>
    <path id="Trazado_609531" data-name="Trazado 609531" d="M-1595-5657h-236.788v134.531" transform="translate(-834.114 169.408)" fill="none" stroke="#18b8c4" stroke-width="2"/>
    <path id="Trazado_609533" data-name="Trazado 609533" d="M236.788,0H0V114" transform="translate(-2395.962 -5177.06) rotate(180)" fill="none" stroke="#18b8c4" stroke-width="2"/>
    <path id="Trazado_609532" data-name="Trazado 609532" d="M-1831.788-5657H-1595v134.531" transform="translate(-800.963 169.408)" fill="none" stroke="#18b8c4" stroke-width="2"/>
    <path id="Trazado_609534" data-name="Trazado 609534" d="M0,0H236.788V114" transform="translate(-2429.114 -5177.06) rotate(180)" fill="none" stroke="#18b8c4" stroke-width="2"/>
    <path id="Trazado_609607" data-name="Trazado 609607" d="M0,0H53V24a5,5,0,0,1-5,5H5a5,5,0,0,1-5-5Z" transform="translate(-2557.177 -5471.591)" fill="#03386e"/>
    <path id="Trazado_609608" data-name="Trazado 609608" d="M0,0H132V33H0Z" transform="translate(-2596.932 -5504.591)" fill="#e1efe3"/>
    <path id="Trazado_609609" data-name="Trazado 609609" d="M5.716,9.036H6.945a2.2,2.2,0,0,0,1.473-.481,1.718,1.718,0,0,0,.544-1.37A1.872,1.872,0,0,0,8.51,5.844a1.821,1.821,0,0,0-1.382-.477,1.926,1.926,0,0,0-1.336.469A1.567,1.567,0,0,0,5.268,7.06H3.251a3.053,3.053,0,0,1,.494-1.693A3.318,3.318,0,0,1,5.123,4.176,4.489,4.489,0,0,1,7.1,3.748a4.157,4.157,0,0,1,2.843.909,3.19,3.19,0,0,1,1.033,2.528,2.568,2.568,0,0,1-.519,1.531A3.253,3.253,0,0,1,9.12,9.8a2.965,2.965,0,0,1,1.515,1.071,2.932,2.932,0,0,1,.519,1.743,3.246,3.246,0,0,1-1.116,2.59,4.335,4.335,0,0,1-2.934.963,4.3,4.3,0,0,1-2.855-.93,3.062,3.062,0,0,1-1.112-2.474H5.152a1.687,1.687,0,0,0,.535,1.295,2.03,2.03,0,0,0,1.44.5,2.094,2.094,0,0,0,1.478-.5,1.868,1.868,0,0,0,.54-1.444,1.887,1.887,0,0,0-.564-1.469A2.413,2.413,0,0,0,6.9,10.629H5.716Zm9.662,0h1.229a2.2,2.2,0,0,0,1.473-.481,1.718,1.718,0,0,0,.544-1.37,1.872,1.872,0,0,0-.452-1.341,1.821,1.821,0,0,0-1.382-.477,1.926,1.926,0,0,0-1.336.469A1.567,1.567,0,0,0,14.93,7.06H12.913a3.053,3.053,0,0,1,.494-1.693,3.318,3.318,0,0,1,1.378-1.191,4.489,4.489,0,0,1,1.98-.427,4.157,4.157,0,0,1,2.843.909,3.19,3.19,0,0,1,1.033,2.528,2.568,2.568,0,0,1-.519,1.531A3.253,3.253,0,0,1,18.782,9.8,2.965,2.965,0,0,1,20.3,10.87a2.932,2.932,0,0,1,.519,1.743A3.246,3.246,0,0,1,19.7,15.2a4.335,4.335,0,0,1-2.934.963,4.3,4.3,0,0,1-2.855-.93A3.062,3.062,0,0,1,12.8,12.763h2.017a1.687,1.687,0,0,0,.535,1.295,2.03,2.03,0,0,0,1.44.5,2.094,2.094,0,0,0,1.478-.5,1.868,1.868,0,0,0,.54-1.444,1.887,1.887,0,0,0-.564-1.469,2.413,2.413,0,0,0-1.677-.515H15.378Zm11.48-2.8a2.426,2.426,0,0,1,.706-1.8,2.81,2.81,0,0,1,3.715,0,2.486,2.486,0,0,1,.7,1.839v.6a2.409,2.409,0,0,1-.7,1.785,2.505,2.505,0,0,1-1.847.7,2.585,2.585,0,0,1-1.847-.685,2.417,2.417,0,0,1-.726-1.847Zm1.411.636a1.331,1.331,0,0,0,.32.928,1.081,1.081,0,0,0,.843.354,1.059,1.059,0,0,0,.83-.354,1.392,1.392,0,0,0,.315-.961V6.233a1.347,1.347,0,0,0-.32-.932,1.075,1.075,0,0,0-.843-.358,1.045,1.045,0,0,0-.834.362,1.41,1.41,0,0,0-.311.953Zm4.4,6.163a2.376,2.376,0,0,1,.722-1.8,2.814,2.814,0,0,1,3.69,0,2.456,2.456,0,0,1,.718,1.859v.589a2.428,2.428,0,0,1-.693,1.781,2.491,2.491,0,0,1-1.855.7,2.564,2.564,0,0,1-1.872-.693,2.443,2.443,0,0,1-.71-1.83Zm1.411.639a1.324,1.324,0,0,0,.328.926,1.087,1.087,0,0,0,.843.361,1.053,1.053,0,0,0,.834-.344,1.416,1.416,0,0,0,.3-.967v-.623a1.312,1.312,0,0,0-.324-.93,1.167,1.167,0,0,0-1.664,0,1.371,1.371,0,0,0-.32.963ZM29.847,15.1l-1.038-.6,5.9-9.446,1.038.6Z" transform="translate(-2551.173 -5465.591)" fill="#fff"/>
    <path id="Trazado_609610" data-name="Trazado 609610" d="M11.528,13.186H6.847L5.867,16H3.684L8.25,3.914h1.884L14.708,16H12.516ZM7.436,11.493h3.5L9.188,6.479Zm9.919-4.474.058,1.038a3.229,3.229,0,0,1,2.615-1.2q2.806,0,2.855,3.212V16H20.867V10.181A1.85,1.85,0,0,0,20.5,8.915,1.554,1.554,0,0,0,19.29,8.5a1.944,1.944,0,0,0-1.818,1.1V16H15.455V7.019Zm4.9-3.586a2.231,2.231,0,0,1-.527,1.519,1.681,1.681,0,0,1-1.324.606,1.972,1.972,0,0,1-.56-.071,3.564,3.564,0,0,1-.672-.32,3.323,3.323,0,0,0-.614-.3,1.465,1.465,0,0,0-.394-.05.7.7,0,0,0-.535.237.872.872,0,0,0-.22.618l-1.237-.066A2.3,2.3,0,0,1,16.7,4.072a1.654,1.654,0,0,1,1.316-.623,2.449,2.449,0,0,1,1.141.374,2.413,2.413,0,0,0,1.1.374.717.717,0,0,0,.54-.237.874.874,0,0,0,.224-.627Zm2.308,7.994a5.3,5.3,0,0,1,.523-2.378,3.819,3.819,0,0,1,1.469-1.627,4.14,4.14,0,0,1,2.175-.569,3.923,3.923,0,0,1,2.951,1.17,4.6,4.6,0,0,1,1.224,3.1l.008.473a5.343,5.343,0,0,1-.51,2.374,3.773,3.773,0,0,1-1.461,1.619,4.17,4.17,0,0,1-2.2.573A3.9,3.9,0,0,1,25.7,14.9a4.848,4.848,0,0,1-1.141-3.374Zm2.017.174a3.619,3.619,0,0,0,.573,2.171,1.862,1.862,0,0,0,1.594.784,1.842,1.842,0,0,0,1.59-.8,4,4,0,0,0,.569-2.333,3.572,3.572,0,0,0-.585-2.158,1.973,1.973,0,0,0-3.158-.012A3.922,3.922,0,0,0,26.578,11.6ZM46.848,16H38.722V14.614l4.026-4.391A10.025,10.025,0,0,0,43.989,8.6a2.629,2.629,0,0,0,.369-1.307A1.986,1.986,0,0,0,43.872,5.9a1.684,1.684,0,0,0-1.307-.531,1.942,1.942,0,0,0-1.519.6,2.35,2.35,0,0,0-.54,1.635H38.489a3.953,3.953,0,0,1,.5-1.988,3.458,3.458,0,0,1,1.436-1.374,4.571,4.571,0,0,1,2.154-.49,4.088,4.088,0,0,1,2.777.884,3.069,3.069,0,0,1,1.017,2.445,4.148,4.148,0,0,1-.51,1.9,10.785,10.785,0,0,1-1.673,2.254L41.237,14.39h5.611Zm9.413-5.088a6.591,6.591,0,0,1-.975,3.93,3.445,3.445,0,0,1-2.968,1.324,3.49,3.49,0,0,1-2.951-1.291,6.311,6.311,0,0,1-1.017-3.823V8.961a6.492,6.492,0,0,1,.975-3.91,4.066,4.066,0,0,1,5.935-.033,6.294,6.294,0,0,1,1,3.8ZM54.244,8.654a5.114,5.114,0,0,0-.465-2.494,1.777,1.777,0,0,0-2.93-.042,4.726,4.726,0,0,0-.49,2.345V11.2a5.246,5.246,0,0,0,.473,2.523,1.589,1.589,0,0,0,1.486.83,1.561,1.561,0,0,0,1.436-.768,4.936,4.936,0,0,0,.49-2.4ZM63.508,16H61.5V6.291L58.536,7.3V5.607L63.25,3.873h.257Zm9.919-5.055a3.3,3.3,0,0,1-4.906-.046,4.384,4.384,0,0,1-.946-2.934A4.811,4.811,0,0,1,68.057,5.8a3.59,3.59,0,0,1,1.37-1.511,3.886,3.886,0,0,1,2.059-.54,3.491,3.491,0,0,1,2.9,1.361,5.734,5.734,0,0,1,1.071,3.644v.564a7.447,7.447,0,0,1-1.478,4.989,5.562,5.562,0,0,1-4.408,1.743h-.241V14.381h.291a4.13,4.13,0,0,0,2.739-.859A3.581,3.581,0,0,0,73.427,10.945Zm-1.942-.506a2.036,2.036,0,0,0,1.137-.349,2.3,2.3,0,0,0,.822-.963V8.338a3.786,3.786,0,0,0-.548-2.15,1.65,1.65,0,0,0-1.419-.813,1.631,1.631,0,0,0-1.39.718,3.018,3.018,0,0,0-.519,1.814,2.981,2.981,0,0,0,.523,1.834A1.657,1.657,0,0,0,71.485,10.438Z" transform="translate(-2570.932 -5497.591)" fill="#12263f"/>
    <path id="Trazado_609611" data-name="Trazado 609611" d="M0,0H132V33H0Z" transform="translate(-2596.932 -5195.06)" fill="#e1efe3"/>
    <path id="Trazado_609612" data-name="Trazado 609612" d="M11.528,13.186H6.847L5.867,16H3.684L8.25,3.914h1.884L14.708,16H12.516ZM7.436,11.493h3.5L9.188,6.479Zm9.919-4.474.058,1.038a3.229,3.229,0,0,1,2.615-1.2q2.806,0,2.855,3.212V16H20.867V10.181A1.85,1.85,0,0,0,20.5,8.915,1.554,1.554,0,0,0,19.29,8.5a1.944,1.944,0,0,0-1.818,1.1V16H15.455V7.019Zm4.9-3.586a2.231,2.231,0,0,1-.527,1.519,1.681,1.681,0,0,1-1.324.606,1.972,1.972,0,0,1-.56-.071,3.564,3.564,0,0,1-.672-.32,3.323,3.323,0,0,0-.614-.3,1.465,1.465,0,0,0-.394-.05.7.7,0,0,0-.535.237.872.872,0,0,0-.22.618l-1.237-.066A2.3,2.3,0,0,1,16.7,4.072a1.654,1.654,0,0,1,1.316-.623,2.449,2.449,0,0,1,1.141.374,2.413,2.413,0,0,0,1.1.374.717.717,0,0,0,.54-.237.874.874,0,0,0,.224-.627Zm2.308,7.994a5.3,5.3,0,0,1,.523-2.378,3.819,3.819,0,0,1,1.469-1.627,4.14,4.14,0,0,1,2.175-.569,3.923,3.923,0,0,1,2.951,1.17,4.6,4.6,0,0,1,1.224,3.1l.008.473a5.343,5.343,0,0,1-.51,2.374,3.773,3.773,0,0,1-1.461,1.619,4.17,4.17,0,0,1-2.2.573A3.9,3.9,0,0,1,25.7,14.9a4.848,4.848,0,0,1-1.141-3.374Zm2.017.174a3.619,3.619,0,0,0,.573,2.171,1.862,1.862,0,0,0,1.594.784,1.842,1.842,0,0,0,1.59-.8,4,4,0,0,0,.569-2.333,3.572,3.572,0,0,0-.585-2.158,1.973,1.973,0,0,0-3.158-.012A3.922,3.922,0,0,0,26.578,11.6ZM46.848,16H38.722V14.614l4.026-4.391A10.025,10.025,0,0,0,43.989,8.6a2.629,2.629,0,0,0,.369-1.307A1.986,1.986,0,0,0,43.872,5.9a1.684,1.684,0,0,0-1.307-.531,1.942,1.942,0,0,0-1.519.6,2.35,2.35,0,0,0-.54,1.635H38.489a3.953,3.953,0,0,1,.5-1.988,3.458,3.458,0,0,1,1.436-1.374,4.571,4.571,0,0,1,2.154-.49,4.088,4.088,0,0,1,2.777.884,3.069,3.069,0,0,1,1.017,2.445,4.148,4.148,0,0,1-.51,1.9,10.785,10.785,0,0,1-1.673,2.254L41.237,14.39h5.611Zm9.413-5.088a6.591,6.591,0,0,1-.975,3.93,3.445,3.445,0,0,1-2.968,1.324,3.49,3.49,0,0,1-2.951-1.291,6.311,6.311,0,0,1-1.017-3.823V8.961a6.492,6.492,0,0,1,.975-3.91,4.066,4.066,0,0,1,5.935-.033,6.294,6.294,0,0,1,1,3.8ZM54.244,8.654a5.114,5.114,0,0,0-.465-2.494,1.777,1.777,0,0,0-2.93-.042,4.726,4.726,0,0,0-.49,2.345V11.2a5.246,5.246,0,0,0,.473,2.523,1.589,1.589,0,0,0,1.486.83,1.561,1.561,0,0,0,1.436-.768,4.936,4.936,0,0,0,.49-2.4ZM66.172,16H58.046V14.614l4.026-4.391A10.025,10.025,0,0,0,63.313,8.6a2.629,2.629,0,0,0,.369-1.307A1.986,1.986,0,0,0,63.2,5.9a1.684,1.684,0,0,0-1.307-.531,1.942,1.942,0,0,0-1.519.6,2.35,2.35,0,0,0-.54,1.635H57.813a3.953,3.953,0,0,1,.5-1.988,3.458,3.458,0,0,1,1.436-1.374,4.571,4.571,0,0,1,2.154-.49,4.088,4.088,0,0,1,2.777.884A3.069,3.069,0,0,1,65.7,7.077a4.148,4.148,0,0,1-.51,1.9,10.785,10.785,0,0,1-1.673,2.254L60.561,14.39h5.611Zm7,0H71.161V6.291L68.2,7.3V5.607l4.715-1.735h.257Z" transform="translate(-2570.932 -5188.06)" fill="#12263f"/>
  </g>
</svg>
