<svg id="Grupo_872739" data-name="Grupo 872739" xmlns="http://www.w3.org/2000/svg" xmlns:xlink="http://www.w3.org/1999/xlink" width="83.634" height="83.63" viewBox="0 0 83.634 83.63">
  <defs>
    <clipPath id="clip-path">
      <rect id="Rectángulo_292195" data-name="Rectángulo 292195" width="83.634" height="83.63" fill="#359547"/>
    </clipPath>
  </defs>
  <g id="Grupo_872738" data-name="Grupo 872738" clip-path="url(#clip-path)">
    <path id="Trazado_255982" data-name="Trazado 255982" d="M128.574,105.512a7.87,7.87,0,0,0-1.976-2.865q-3.412-3.4-6.813-6.813c-.841-.843-.849-.919-.374-1.986,2.339-5.256,2.474-10.558-.2-15.677a17.144,17.144,0,0,0-14.082-9.589c-.19-.02-.378-.047-.567-.074-1.617-.229-1.617-.229-1.618-1.909,0-2.2.008-4.409,0-6.614-.008-1.638-.526-2.161-2.15-2.167-2.586-.01-5.171,0-7.756,0-1.229,0-1.354-.129-1.359-1.359-.008-2.4,0-4.79-.005-7.186-.005-1.373-.486-1.887-1.863-1.9q-4.98-.037-9.961,0c-1.556.013-2.071.573-2.076,2.164-.009,2.613,0,5.226,0,7.839,0,1.33-.094,1.418-1.454,1.42q-3.592.006-7.185,0a8.751,8.751,0,0,0-.9.021,1.482,1.482,0,0,0-1.563,1.692c-.018,2.232-.008,4.464-.005,6.7,0,2.154.083,2.047-2.054,2.046-1.823,0-3.647-.009-5.47,0-1.576.011-2.1.537-2.109,2.124-.012,2.422-.005,4.845,0,7.268,0,1.806.413,2.224,2.2,2.225q12.737,0,25.473,0c.919,0,1.358,0,1.521.245h.015l0,.017c.137.229.051.657-.115,1.468A17.7,17.7,0,0,0,96.49,102.456a17.311,17.311,0,0,0,14.637-.349c1.1-.521,1.181-.525,2.051.343,2.544,2.536,5.064,5.1,7.628,7.614a4.6,4.6,0,0,0,6.82-.253,5.12,5.12,0,0,0,.754-1.253c.131-.278.178-.654.609-.664v-1.96c-.3.018-.345-.229-.414-.421M65.8,77.858c-.9-.034-1.8-.01-2.693-.01-.816,0-1.633-.022-2.448.009-.433.017-.618-.066-.607-.562.035-1.468.028-2.939,0-4.408-.008-.445.093-.609.575-.6,1.714.03,3.428.033,5.142,0,.528-.011.634.173.624.655q-.042,2.163,0,4.326c.009.467-.132.61-.6.592m11.755-.6c0,.437-.08.607-.567.6q-3.387-.04-6.774,0c-.483.006-.575-.157-.572-.6.02-2.476.01-4.952.01-7.428,0-2.422.016-4.843-.012-7.264-.006-.543.1-.749.7-.738,2.176.038,4.352.03,6.528,0,.5-.006.694.088.692.652q-.036,7.387,0,14.774m9.461.6c-1.849-.021-3.7-.029-5.549,0-.527.009-.674-.126-.671-.665.023-4.353.013-8.705.013-13.058,0-4.325.012-8.651-.015-12.976,0-.6.121-.779.749-.766q3.222.066,6.446,0c.65-.014.745.21.742.787-.021,5.141-.014,10.283-.009,15.425a6.013,6.013,0,0,0,.089,1.134,1.589,1.589,0,0,0,1.575,1.271,1.527,1.527,0,0,0,1.522-1.326c.086-1.109.065-2.226.076-3.341.01-.979.019-1.959-.006-2.938-.011-.426.127-.556.556-.553q3.427.029,6.854,0c.458,0,.53.17.527.57-.016,2.2-.019,4.407,0,6.611,0,.445-.152.589-.572.694a17.764,17.764,0,0,0-11.5,8.662.82.82,0,0,1-.832.468m16.464,23.008a14.69,14.69,0,1,1,14.667-14.707,14.709,14.709,0,0,1-14.667,14.707m21.768,7.07a1.682,1.682,0,0,1-2.472-.141c-2.615-2.581-5.208-5.184-7.825-7.795.694-.7,1.372-1.361,2.021-2.049.233-.247.37-.207.586.01,2.535,2.546,5.09,5.073,7.612,7.633a1.59,1.59,0,0,1,.078,2.342" transform="translate(-45.355 -37.659)" fill="#359547"/>
    <path id="Trazado_255983" data-name="Trazado 255983" d="M239.089,239.834a5.116,5.116,0,0,1-.754,1.253,4.6,4.6,0,0,1-6.82.253c-2.564-2.517-5.084-5.078-7.628-7.614-.87-.868-.949-.864-2.051-.343a17.312,17.312,0,0,1-14.637.349,17.7,17.7,0,0,1-10.367-19.856c.166-.811.252-1.239.115-1.468a17.7,17.7,0,0,0-.532,7.568c1.155,6.788,4.887,11.581,11.262,14.162a17.163,17.163,0,0,0,14.589-.712.824.824,0,0,1,1.162.191c1.414,1.471,2.87,2.9,4.321,4.339,1.334,1.321,2.616,2.7,4.039,3.922a4.792,4.792,0,0,0,6.676-.561,13.835,13.835,0,0,0,1.235-2.146c-.431.01-.478.387-.609.664" transform="translate(-156.065 -168.935)" fill="#359547"/>
    <path id="Trazado_255984" data-name="Trazado 255984" d="M119.012,94.929a1.322,1.322,0,0,1-.318-1.836,17.035,17.035,0,0,0,.169-15.115c-3.108-6.588-8.449-10.085-15.732-10.522-.781-.047-.889-.3-.879-.982.038-2.5.017-5.008.014-7.512,0-1.566-.6-2.171-2.167-2.173-2.749,0-5.5-.027-8.246.017-.675.011-.794-.211-.786-.822.032-2.5.019-5.008.011-7.512,0-1.535-.595-2.131-2.106-2.133q-5.1-.008-10.206,0c-1.521,0-2.123.607-2.125,2.128,0,2.858-.024,5.716.016,8.574.009.631-.173.75-.764.743-2.748-.033-5.5-.017-8.246-.014-1.585,0-2.163.573-2.166,2.151-.005,2.531-.019,5.063.012,7.594.007.569-.143.732-.718.723-2.258-.034-4.517-.018-6.776-.012-1.522,0-2.1.6-2.106,2.138q0,3.838,0,7.676c0,1.775.5,2.27,2.287,2.27H85.325c-.163-.242-.6-.245-1.521-.245q-12.737,0-25.473,0c-1.79,0-2.2-.419-2.2-2.225,0-2.422-.009-4.845,0-7.267.008-1.587.533-2.113,2.109-2.124,1.823-.012,3.647,0,5.47,0,2.138,0,2.056.108,2.054-2.046,0-2.232-.013-4.464.005-6.7a1.482,1.482,0,0,1,1.563-1.692,8.754,8.754,0,0,1,.9-.021q3.592,0,7.185,0c1.36,0,1.451-.09,1.454-1.42.005-2.613-.005-5.226,0-7.839.006-1.591.521-2.151,2.077-2.164q4.98-.041,9.961,0c1.377.01,1.858.525,1.863,1.9.009,2.4,0,4.79.005,7.186,0,1.23.13,1.356,1.359,1.359,2.585.007,5.171,0,7.756,0,1.623.006,2.142.529,2.15,2.167.011,2.2,0,4.409,0,6.614,0,1.681,0,1.68,1.618,1.909.188.027.377.053.566.074a17.144,17.144,0,0,1,14.083,9.589c2.67,5.119,2.536,10.421.2,15.677-.475,1.067-.466,1.143.375,1.986q3.4,3.412,6.812,6.813a7.868,7.868,0,0,1,1.976,2.865c.07.192.117.439.415.421a7.409,7.409,0,0,0-2.007-3.177c-2.37-2.326-4.678-4.714-7.067-7.02" transform="translate(-44.452 -36.852)" fill="#359547"/>
    <path id="Trazado_255985" data-name="Trazado 255985" d="M66.694,84.113A4.79,4.79,0,0,0,70,79.517c.049-2.2.019-4.41.008-6.615a3.022,3.022,0,0,0-.039-.488,1.445,1.445,0,0,0-1.393-1.344,1.3,1.3,0,0,0-1.28,1.421c-.072,1.931-.022,3.865-.027,5.8-.006,2.79-.509,3.3-3.275,3.3H7.327c-2.774,0-3.3-.521-3.3-3.282q0-35.525,0-71.049c0-2.771.52-3.291,3.289-3.291H63.986c2.769,0,3.282.516,3.282,3.3q0,6.084,0,12.168a4.331,4.331,0,0,0,.068,1.138,1.249,1.249,0,0,0,1.236,1,1.179,1.179,0,0,0,1.258-.834,3.513,3.513,0,0,0,.182-1.286c0-4.383.017-8.765,0-13.148a4.782,4.782,0,0,0-5.081-5.072q-29.273-.017-58.546,0a4.713,4.713,0,0,0-5.1,5.1q-.007,36.423-.009,72.846a4.857,4.857,0,0,0,3.041,4.857c.26.116.6.173.626.564h.49c.2-.276.5-.159.756-.159q29.337-.007,58.675,0c.281,0,.6-.131.839.157h.327c.041-.407.407-.388.666-.486" transform="translate(-1.015 -0.97)" fill="#359547"/>
    <path id="Trazado_255986" data-name="Trazado 255986" d="M65.1,83.509A4.794,4.794,0,0,0,69.235,78.7c.058-2.367.015-4.737.014-7.105a1.828,1.828,0,0,0-.255-1.015,1.531,1.531,0,0,0-1.738-.757,1.585,1.585,0,0,0-1.265,1.674c-.019,2.2-.006,4.41-.008,6.615,0,1.7-.552,2.248-2.255,2.248H5.505c-1.7,0-2.23-.543-2.23-2.263q0-36.3,0-72.6c0-1.661.553-2.225,2.186-2.225q29.152,0,58.3,0c1.643,0,2.216.57,2.217,2.2q0,6.615,0,13.23a5.831,5.831,0,0,0,.034.9,1.569,1.569,0,0,0,1.5,1.359,1.53,1.53,0,0,0,1.623-1.191,3.161,3.161,0,0,0,.1-.8q.009-6.9,0-13.8a5.668,5.668,0,0,0-.225-1.611A4.955,4.955,0,0,0,63.87,0Q34.759,0,5.648,0C1.955,0,.008,1.942.008,5.625V73.819c0,1.606-.021,3.213.006,4.818a4.784,4.784,0,0,0,2.27,4.183,15.644,15.644,0,0,0,1.644.81c-.025-.391-.366-.448-.626-.564A4.856,4.856,0,0,1,.262,78.209Q.277,41.786.27,5.363a4.714,4.714,0,0,1,5.1-5.1Q34.641.24,63.914.259a4.782,4.782,0,0,1,5.081,5.072c.022,4.383.008,8.765,0,13.148a3.512,3.512,0,0,1-.182,1.286,1.179,1.179,0,0,1-1.258.834,1.249,1.249,0,0,1-1.236-1,4.332,4.332,0,0,1-.068-1.138q0-6.084,0-12.168c0-2.779-.514-3.3-3.282-3.3H6.3c-2.769,0-3.289.521-3.289,3.291q0,35.525,0,71.049c0,2.762.523,3.282,3.3,3.282H62.981c2.766,0,3.269-.512,3.275-3.3,0-1.933-.046-3.866.026-5.8a1.3,1.3,0,0,1,1.28-1.421,1.445,1.445,0,0,1,1.393,1.344,3,3,0,0,1,.039.488c.01,2.2.041,4.411-.008,6.615a4.79,4.79,0,0,1-3.306,4.6c-.258.1-.624.079-.666.486.029-.042.051-.113.087-.121" transform="translate(0 -0.001)" fill="#359547"/>
    <path id="Trazado_255987" data-name="Trazado 255987" d="M80.974,408.147q-29.255-.006-58.51,0a1.669,1.669,0,0,0-.88.08h60.27a1.669,1.669,0,0,0-.88-.08" transform="translate(-17.166 -324.598)" fill="#359547"/>
    <path id="Trazado_255988" data-name="Trazado 255988" d="M81.015,407.731q-29.338-.01-58.675,0c-.256,0-.552-.117-.756.159a1.667,1.667,0,0,1,.88-.08q29.255-.006,58.51,0a1.667,1.667,0,0,1,.88.08c-.234-.288-.558-.157-.839-.157" transform="translate(-17.166 -324.259)" fill="#359547"/>
    <path id="Trazado_255989" data-name="Trazado 255989" d="M89.321,349.527H45.492c-1.54,0-2.347.576-2.325,1.657.022,1.052.817,1.61,2.3,1.61H89.3c1.532,0,2.353-.588,2.327-1.666-.026-1.058-.805-1.6-2.3-1.6" transform="translate(-34.332 -277.991)" fill="#359547"/>
    <path id="Trazado_255990" data-name="Trazado 255990" d="M48.9,256.409a1.966,1.966,0,0,1-2.521-1.724,1.592,1.592,0,0,0-1.779-1.41,1.629,1.629,0,0,0-1.453,1.759,4.847,4.847,0,0,0,2.989,4.225,1.03,1.03,0,0,1,.7.775A1.454,1.454,0,0,0,48.4,261.2a1.438,1.438,0,0,0,1.489-1.145,1.044,1.044,0,0,1,.691-.787,4.814,4.814,0,0,0,3-4.623,4.985,4.985,0,0,0-3.643-4.428c-.685-.2-1.4-.182-2.089-.327a1.778,1.778,0,0,1-1.426-1.481,1.69,1.69,0,0,1,1.22-1.564,2,2,0,0,1,2.711,1.56,1.552,1.552,0,0,0,1.91,1.5,1.665,1.665,0,0,0,1.3-2.028,4.831,4.831,0,0,0-3.008-3.96,1.026,1.026,0,0,1-.684-.7,1.579,1.579,0,0,0-3-.015,1,1,0,0,1-.67.712,4.832,4.832,0,0,0-3.039,4.682,4.915,4.915,0,0,0,3.674,4.39c.676.183,1.392.215,2.083.349a1.728,1.728,0,0,1,1.4,1.5,1.758,1.758,0,0,1-1.412,1.581" transform="translate(-34.316 -192.563)" fill="#359547"/>
    <path id="Trazado_255991" data-name="Trazado 255991" d="M113.685,263.407q4.766.018,9.532,0c1.169,0,1.942-.677,1.937-1.639s-.771-1.616-1.948-1.622c-1.575-.009-3.15,0-4.725,0-1.6,0-3.2-.008-4.807,0a1.649,1.649,0,1,0,.01,3.26" transform="translate(-88.904 -206.899)" fill="#359547"/>
    <path id="Trazado_255992" data-name="Trazado 255992" d="M113.659,308.1q4.807.021,9.613,0a1.7,1.7,0,0,0,1.882-1.614c.015-.971-.749-1.638-1.922-1.646-1.575-.01-3.15,0-4.725,0-1.6,0-3.2-.007-4.807,0-1.178.007-1.932.665-1.918,1.646a1.687,1.687,0,0,0,1.877,1.614" transform="translate(-88.904 -242.448)" fill="#359547"/>
    <path id="Trazado_255993" data-name="Trazado 255993" d="M324.09,121.4a1.624,1.624,0,0,0-.031-3.247,1.624,1.624,0,1,0,.031,3.247" transform="translate(-256.448 -93.972)" fill="#359547"/>
    <path id="Trazado_255994" data-name="Trazado 255994" d="M192.188,308.126a1.627,1.627,0,1,0-.016-3.254,1.628,1.628,0,0,0,.016,3.254" transform="translate(-151.59 -242.474)" fill="#359547"/>
    <path id="Trazado_255995" data-name="Trazado 255995" d="M241.968,187.358a4.929,4.929,0,0,0-4.95-4.894,4.883,4.883,0,0,0,.052,9.765,4.942,4.942,0,0,0,4.9-4.871m-6.508-.082a1.587,1.587,0,0,1,1.655-1.533,1.6,1.6,0,0,1-.055,3.209,1.6,1.6,0,0,1-1.6-1.676" transform="translate(-184.665 -145.12)" fill="#359547"/>
    <path id="Trazado_255996" data-name="Trazado 255996" d="M292.785,243.973a4.885,4.885,0,0,0,.022,9.77,4.885,4.885,0,1,0-.022-9.77m-.014,6.488a1.612,1.612,0,0,1-1.56-1.636,1.593,1.593,0,0,1,1.614-1.576,1.607,1.607,0,1,1-.054,3.212" transform="translate(-229.007 -194.04)" fill="#359547"/>
    <path id="Trazado_255997" data-name="Trazado 255997" d="M261.836,197.483a1.613,1.613,0,0,0-3-1.153q-4.323,7.644-8.631,15.3a1.636,1.636,0,0,0-.2,1.4,1.589,1.589,0,0,0,1.359,1.136,1.77,1.77,0,0,0,1.795-1.14q4.166-7.405,8.344-14.8a3.966,3.966,0,0,0,.332-.737" transform="translate(-198.771 -155.409)" fill="#359547"/>
  </g>
</svg>
