<svg id="Grupo_872688" data-name="Grupo 872688" xmlns="http://www.w3.org/2000/svg" xmlns:xlink="http://www.w3.org/1999/xlink" width="76.064" height="72.49" viewBox="0 0 76.064 72.49">
  <defs>
    <clipPath id="clip-path">
      <rect id="Rectángulo_291647" data-name="Rectángulo 291647" width="76.064" height="72.49" fill="none"/>
    </clipPath>
    <clipPath id="clip-path-3">
      <rect id="Rectángulo_291639" data-name="Rectángulo 291639" width="51.484" height="66.002" fill="none"/>
    </clipPath>
    <clipPath id="clip-path-5">
      <rect id="Rectángulo_291642" data-name="Rectángulo 291642" width="56.013" height="68.02" fill="none"/>
    </clipPath>
    <clipPath id="clip-path-6">
      <rect id="Rectángulo_291644" data-name="Rectángulo 291644" width="47.882" height="62.476" fill="none"/>
    </clipPath>
  </defs>
  <g id="Grupo_872702" data-name="Grupo 872702" clip-path="url(#clip-path)">
    <g id="Grupo_872693" data-name="Grupo 872693" transform="translate(0 0)">
      <g id="Grupo_872692" data-name="Grupo 872692" clip-path="url(#clip-path)">
        <g id="Grupo_872691" data-name="Grupo 872691" transform="translate(24.58 6.488)" style="mix-blend-mode: multiply;isolation: isolate">
          <g id="Grupo_872690" data-name="Grupo 872690">
            <g id="Grupo_872689" data-name="Grupo 872689" clip-path="url(#clip-path-3)">
              <path id="Trazado_255882" data-name="Trazado 255882" d="M432.057,103.19l-4.838,63.261-46.646-6.672,5.938-59.33Z" transform="translate(-380.573 -100.449)" fill="#ccc"/>
            </g>
          </g>
        </g>
      </g>
    </g>
    <rect id="Rectángulo_291641" data-name="Rectángulo 291641" width="61.62" height="47.078" transform="matrix(0.1, -0.995, 0.995, 0.1, 23.083, 65.854)" fill="#fafafa"/>
    <g id="Grupo_872701" data-name="Grupo 872701" transform="translate(0 0)">
      <g id="Grupo_872700" data-name="Grupo 872700" clip-path="url(#clip-path)">
        <path id="Trazado_255883" data-name="Trazado 255883" d="M872.42,858.976a5.633,5.633,0,0,0-1.072-.336c-.121-.024-.242-.046-.362-.063a5.633,5.633,0,0,0-2.882.359,5.616,5.616,0,0,0-3.073,3.008,5.631,5.631,0,1,0,7.389-2.968m-4.176,9.781a5.006,5.006,0,0,1,2.413-9.588h0c.152.014.3.034.453.062a5,5,0,1,1-2.867,9.526" transform="translate(-808.738 -803.075)" fill="#d5f0f3"/>
        <path id="Trazado_255884" data-name="Trazado 255884" d="M895.931,884.662a3.931,3.931,0,0,0-1.552-.318h0a3.969,3.969,0,0,0-3.646,2.407c-.023.054-.045.108-.065.163a3.962,3.962,0,1,0,5.265-2.251m-2.866,6.713a3.335,3.335,0,0,1,.356-6.265h0a3.336,3.336,0,1,1-.357,6.264" transform="translate(-832.905 -827.228)" fill="#d5f0f3"/>
        <path id="Trazado_255885" data-name="Trazado 255885" d="M919.382,928.1l-.132-.56c0-.006-.043-.184-.748-3.226l.737-.171.617,2.662,3.239-2.408.451.607Z" transform="translate(-859.179 -864.458)" fill="#c4d72f"/>
        <path id="Trazado_255886" data-name="Trazado 255886" d="M520.722,273.685l-.286-.482c0-.005-.094-.158-1.636-2.781l.635-.374,1.349,2.3,2.31-3.183.6.433Z" transform="translate(-485.293 -251.776)" fill="#c4d72f"/>
        <path id="Trazado_255887" data-name="Trazado 255887" d="M489.9,239.572l-7.647-.765a.5.5,0,0,1-.443-.542l.765-7.647a.5.5,0,0,1,.542-.443l7.647.765a.5.5,0,0,1,.443.542l-.765,7.647a.5.5,0,0,1-.542.443m-7.024-1.727,6.6.661.661-6.6-6.6-.661Z" transform="translate(-450.691 -215.307)" fill="#b7cfd9"/>
        <path id="Trazado_255888" data-name="Trazado 255888" d="M495.257,528.122l-.286-.482-1.636-2.781.635-.374,1.35,2.3,2.31-3.183.6.433Z" transform="translate(-461.472 -489.78)" fill="#c4d72f"/>
        <path id="Trazado_255889" data-name="Trazado 255889" d="M464.429,493.983l-7.687-.769a.475.475,0,0,1-.425-.52l.769-7.687a.475.475,0,0,1,.52-.425l7.687.769a.475.475,0,0,1,.425.52l-.769,7.687a.475.475,0,0,1-.52.425m-7.044-1.729,6.6.661.661-6.6-6.6-.661Z" transform="translate(-426.843 -453.282)" fill="#b7cfd9"/>
        <path id="Trazado_255890" data-name="Trazado 255890" d="M469.791,782.558l-.286-.482c0-.005-.094-.158-1.636-2.781l.635-.374,1.35,2.3,2.31-3.183.6.433Z" transform="translate(-437.651 -727.783)" fill="#c4d72f"/>
        <path id="Trazado_255891" data-name="Trazado 255891" d="M438.967,748.428l-7.672-.768a.482.482,0,0,1-.432-.528l.768-7.672a.482.482,0,0,1,.528-.432l7.672.768a.482.482,0,0,1,.432.528L439.495,748a.482.482,0,0,1-.528.432M431.93,746.7l6.6.661.661-6.6-6.6-.661Z" transform="translate(-403.033 -691.295)" fill="#b7cfd9"/>
        <path id="Trazado_255892" data-name="Trazado 255892" d="M641.281,172.111,618.176,169.8a.623.623,0,1,1,.124-1.241l23.105,2.313a.623.623,0,0,1-.124,1.241" transform="translate(-577.725 -157.668)" fill="#b7cfd9"/>
        <path id="Trazado_255893" data-name="Trazado 255893" d="M716.924,253.914l-25.043-2.506a.623.623,0,0,1,.124-1.241l25.043,2.506a.623.623,0,0,1-.124,1.241" transform="translate(-646.669 -234.006)" fill="#b7cfd9"/>
        <path id="Trazado_255894" data-name="Trazado 255894" d="M709.993,323.168l-25.043-2.506a.623.623,0,1,1,.124-1.241l25.043,2.506a.623.623,0,0,1-.124,1.241" transform="translate(-640.186 -298.787)" fill="#b7cfd9"/>
        <path id="Trazado_255895" data-name="Trazado 255895" d="M691.459,508.35l-25.043-2.506a.623.623,0,0,1,.124-1.241l25.043,2.506a.623.623,0,1,1-.124,1.241" transform="translate(-622.849 -472.009)" fill="#b7cfd9"/>
        <path id="Trazado_255896" data-name="Trazado 255896" d="M684.528,577.6,659.485,575.1a.623.623,0,0,1,.124-1.241l25.043,2.506a.623.623,0,1,1-.124,1.241" transform="translate(-616.366 -536.79)" fill="#b7cfd9"/>
        <path id="Trazado_255897" data-name="Trazado 255897" d="M669.2,646.017l-16.646-1.666a.623.623,0,1,1,.124-1.241l16.646,1.666a.623.623,0,0,1-.124,1.241" transform="translate(-609.882 -601.571)" fill="#b7cfd9"/>
        <path id="Trazado_255898" data-name="Trazado 255898" d="M665.994,762.786l-25.043-2.506a.623.623,0,0,1,.124-1.241l25.043,2.506a.623.623,0,0,1-.124,1.241" transform="translate(-599.029 -710.012)" fill="#b7cfd9"/>
        <path id="Trazado_255899" data-name="Trazado 255899" d="M647.437,830.876l-13.417-1.343a.623.623,0,0,1,.124-1.241l13.417,1.343a.623.623,0,1,1-.124,1.241" transform="translate(-592.546 -774.793)" fill="#b7cfd9"/>
        <g id="Grupo_872696" data-name="Grupo 872696" transform="translate(0.649 1.298)" style="mix-blend-mode: multiply;isolation: isolate">
          <g id="Grupo_872695" data-name="Grupo 872695">
            <g id="Grupo_872694" data-name="Grupo 872694" clip-path="url(#clip-path-5)">
              <path id="Trazado_255900" data-name="Trazado 255900" d="M56.475,20.1l9.589,59.465L36.6,84.53l5.021.249L20.194,88.123l-10.143-60.2Z" transform="translate(-10.051 -20.103)" fill="#ccc"/>
            </g>
          </g>
        </g>
        <rect id="Rectángulo_291643" data-name="Rectángulo 291643" width="47.078" height="61.62" transform="matrix(0.986, -0.166, 0.166, 0.986, 0, 7.822)" fill="#f2f2f2"/>
        <path id="Trazado_255901" data-name="Trazado 255901" d="M631.6,746.844a5.634,5.634,0,0,0-1.122-.042c-.123.008-.246.02-.366.035a5.632,5.632,0,0,0-2.686,1.106,5.616,5.616,0,0,0-2.172,3.711,5.631,5.631,0,1,0,6.346-4.81m-1.45,10.536a5.006,5.006,0,0,1-.2-9.885h0c.15-.027.3-.047.453-.06a5,5,0,1,1-.255,9.945" transform="translate(-584.826 -698.559)" fill="#d5f0f3"/>
        <path id="Trazado_255902" data-name="Trazado 255902" d="M655.545,772.659a3.934,3.934,0,0,0-1.581.1h0a3.969,3.969,0,0,0-2.883,3.283c-.008.058-.015.116-.02.174a3.962,3.962,0,1,0,4.485-3.559m-1,7.231a3.335,3.335,0,0,1-1.308-6.137h0a3.336,3.336,0,1,1,1.307,6.137" transform="translate(-608.994 -722.721)" fill="#d5f0f3"/>
        <path id="Trazado_255903" data-name="Trazado 255903" d="M677.173,811.549l-.275-.506c0-.005-.09-.166-1.572-2.914l.666-.359,1.3,2.4,2.49-3.176.6.467Z" transform="translate(-631.709 -754.878)" fill="#8cc34b"/>
        <path id="Trazado_255904" data-name="Trazado 255904" d="M124.309,282.919l-.4-.39-2.311-2.252.514-.528,1.907,1.858,1.389-3.679.69.26Z" transform="translate(-113.742 -259.978)" fill="#c4d72f"/>
        <path id="Trazado_255905" data-name="Trazado 255905" d="M93.1,250.967l-7.578,1.277a.5.5,0,0,1-.57-.406l-1.277-7.578a.5.5,0,0,1,.406-.57l7.578-1.277a.5.5,0,0,1,.57.406l1.277,7.578a.5.5,0,0,1-.406.57m-7.231.185,6.545-1.1-1.1-6.545-6.545,1.1Z" transform="translate(-78.265 -226.75)" fill="#b7cfd9"/>
        <path id="Trazado_255906" data-name="Trazado 255906" d="M166.795,535.072l-.4-.39-2.311-2.252.515-.528,1.907,1.858,1.389-3.679.69.26Z" transform="translate(-153.484 -495.845)" fill="#c4d72f"/>
        <path id="Trazado_255907" data-name="Trazado 255907" d="M135.564,503.073l-7.618,1.284a.475.475,0,0,1-.547-.389l-1.284-7.618a.475.475,0,0,1,.389-.547l7.618-1.284a.475.475,0,0,1,.547.389l1.284,7.618a.475.475,0,0,1-.389.547m-7.251.189,6.545-1.1-1.1-6.545-6.545,1.1Z" transform="translate(-117.964 -462.573)" fill="#b7cfd9"/>
        <path id="Trazado_255908" data-name="Trazado 255908" d="M209.282,787.225l-.4-.39-2.311-2.252.515-.528,1.907,1.858,1.389-3.679.69.26Z" transform="translate(-193.227 -731.713)" fill="#c4d72f"/>
        <path id="Trazado_255909" data-name="Trazado 255909" d="M178.06,755.243l-7.6,1.281a.482.482,0,0,1-.556-.4l-1.281-7.6a.482.482,0,0,1,.4-.556l7.6-1.281a.482.482,0,0,1,.556.4l1.281,7.6a.482.482,0,0,1-.4.556m-7.243.187,6.545-1.1-1.1-6.545-6.545,1.1Z" transform="translate(-157.723 -698.457)" fill="#b7cfd9"/>
        <path id="Trazado_255910" data-name="Trazado 255910" d="M211.084,110.977l-22.9,3.858a.623.623,0,1,1-.207-1.229l22.9-3.858a.623.623,0,1,1,.207,1.23" transform="translate(-175.351 -102.651)" fill="#b7cfd9"/>
        <path id="Trazado_255911" data-name="Trazado 255911" d="M305.61,165.268l-24.818,4.182a.623.623,0,1,1-.207-1.229l24.818-4.182a.623.623,0,0,1,.207,1.23" transform="translate(-261.976 -153.435)" fill="#b7cfd9"/>
        <path id="Trazado_255912" data-name="Trazado 255912" d="M317.174,233.9l-24.818,4.182a.623.623,0,1,1-.207-1.23l24.818-4.182a.623.623,0,1,1,.207,1.23" transform="translate(-272.793 -217.636)" fill="#b7cfd9"/>
        <path id="Trazado_255913" data-name="Trazado 255913" d="M348.1,417.421,323.278,421.6a.623.623,0,1,1-.207-1.229l24.818-4.182a.623.623,0,1,1,.207,1.229" transform="translate(-301.719 -389.303)" fill="#b7cfd9"/>
        <path id="Trazado_255914" data-name="Trazado 255914" d="M359.661,486.053l-24.818,4.182a.623.623,0,1,1-.207-1.229l24.818-4.182a.623.623,0,1,1,.207,1.23" transform="translate(-312.536 -453.502)" fill="#b7cfd9"/>
        <path id="Trazado_255915" data-name="Trazado 255915" d="M362.9,576.395l-16.5,2.78a.623.623,0,1,1-.207-1.229l16.5-2.78a.623.623,0,1,1,.207,1.23" transform="translate(-323.353 -538.009)" fill="#b7cfd9"/>
        <path id="Trazado_255916" data-name="Trazado 255916" d="M390.583,669.574l-24.818,4.182a.623.623,0,1,1-.207-1.23l24.818-4.182a.623.623,0,0,1,.207,1.23" transform="translate(-341.461 -625.17)" fill="#b7cfd9"/>
        <path id="Trazado_255917" data-name="Trazado 255917" d="M390.626,768.265l-13.3,2.24a.623.623,0,0,1-.207-1.23l13.3-2.24a.623.623,0,1,1,.207,1.23" transform="translate(-352.279 -717.487)" fill="#b7cfd9"/>
        <g id="Grupo_872699" data-name="Grupo 872699" transform="translate(15.815 3.977)" style="mix-blend-mode: multiply;isolation: isolate">
          <g id="Grupo_872698" data-name="Grupo 872698">
            <g id="Grupo_872697" data-name="Grupo 872697" clip-path="url(#clip-path-6)">
              <path id="Trazado_255918" data-name="Trazado 255918" d="M291.939,61.579l.8,61.759-21.834.717-26.048-1.293V61.579Z" transform="translate(-244.861 -61.579)" fill="#ccc"/>
            </g>
          </g>
        </g>
        <rect id="Rectángulo_291645" data-name="Rectángulo 291645" width="47.078" height="61.62" transform="translate(15.815 3.328)" fill="#fff"/>
        <path id="Trazado_255919" data-name="Trazado 255919" d="M336.89,535.381l-.254-.345-1.457-1.993.455-.333,1.2,1.644,1.516-2.6.487.284Z" transform="translate(-313.53 -497.411)" fill="#c4d72f"/>
        <path id="Trazado_255920" data-name="Trazado 255920" d="M318.408,515.08H312.5a.363.363,0,0,1-.363-.363v-5.91a.363.363,0,0,1,.363-.363h5.91a.363.363,0,0,1,.363.363v5.91a.363.363,0,0,1-.363.363m-5.494-.78h5.078v-5.078h-5.078Z" transform="translate(-291.974 -475.605)" fill="#b7cfd9"/>
        <path id="Trazado_255921" data-name="Trazado 255921" d="M521.008,516.621H495.839a.623.623,0,1,1,0-1.247h25.168a.623.623,0,1,1,0,1.247" transform="translate(-463.232 -482.088)" fill="#b7cfd9"/>
        <path id="Trazado_255922" data-name="Trazado 255922" d="M516.188,586.221H495.839a.623.623,0,1,1,0-1.247h20.348a.623.623,0,0,1,0,1.247" transform="translate(-463.232 -547.193)" fill="#b7cfd9"/>
        <path id="Trazado_255923" data-name="Trazado 255923" d="M349.837,375.637h-37.08a.623.623,0,1,1,0-1.247h37.08a.623.623,0,1,1,0,1.247" transform="translate(-291.974 -350.21)" fill="#b7cfd9"/>
        <path id="Trazado_255924" data-name="Trazado 255924" d="M349.837,445.237h-37.08a.623.623,0,1,1,0-1.247h37.08a.623.623,0,1,1,0,1.247" transform="translate(-291.974 -415.314)" fill="#b7cfd9"/>
        <path id="Trazado_255925" data-name="Trazado 255925" d="M650.287,246.727H633.951a.623.623,0,1,1,0-1.247h16.335a.623.623,0,1,1,0,1.247" transform="translate(-592.424 -229.625)" fill="#b7cfd9"/>
        <path id="Trazado_255926" data-name="Trazado 255926" d="M650.287,311.182H633.951a.623.623,0,0,1,0-1.247h16.335a.623.623,0,0,1,0,1.247" transform="translate(-592.424 -289.918)" fill="#b7cfd9"/>
        <path id="Trazado_255927" data-name="Trazado 255927" d="M650.287,117.817H633.951a.623.623,0,0,1,0-1.247h16.335a.623.623,0,0,1,0,1.247" transform="translate(-592.424 -109.041)" fill="#b7cfd9"/>
        <path id="Trazado_255928" data-name="Trazado 255928" d="M650.287,182.272H633.951a.623.623,0,0,1,0-1.247h16.335a.623.623,0,0,1,0,1.247" transform="translate(-592.424 -169.333)" fill="#b7cfd9"/>
        <path id="Trazado_255929" data-name="Trazado 255929" d="M336.89,683.3l-.254-.346-1.457-1.993.455-.333,1.2,1.645,1.516-2.6.487.284Z" transform="translate(-313.53 -635.773)" fill="#c4d72f"/>
        <path id="Trazado_255930" data-name="Trazado 255930" d="M318.4,662.994h-5.9a.369.369,0,0,1-.369-.369v-5.9a.369.369,0,0,1,.369-.369h5.9a.369.369,0,0,1,.369.369v5.9a.369.369,0,0,1-.369.369m-5.489-.78h5.078v-5.078h-5.078Z" transform="translate(-291.974 -613.965)" fill="#b7cfd9"/>
        <path id="Trazado_255931" data-name="Trazado 255931" d="M523.309,664.535H498.14a.623.623,0,1,1,0-1.247h25.168a.623.623,0,1,1,0,1.247" transform="translate(-465.384 -620.449)" fill="#b7cfd9"/>
        <path id="Trazado_255932" data-name="Trazado 255932" d="M517.8,734.135H498.14a.623.623,0,0,1-.623-.623h0a.623.623,0,0,1,.623-.623H517.8a.623.623,0,0,1,.623.623h0a.623.623,0,0,1-.623.623" transform="translate(-465.384 -685.554)" fill="#b7cfd9"/>
        <path id="Trazado_255933" data-name="Trazado 255933" d="M507.3,803.735h-9.156a.623.623,0,0,1,0-1.247H507.3a.623.623,0,1,1,0,1.247" transform="translate(-465.385 -750.658)" fill="#b7cfd9"/>
        <path id="Trazado_255934" data-name="Trazado 255934" d="M721.518,799.8a5.633,5.633,0,0,0-1.1-.228c-.123-.012-.246-.021-.366-.026a5.634,5.634,0,0,0-2.832.644,5.616,5.616,0,0,0-2.758,3.3,5.631,5.631,0,1,0,7.057-3.689m-3.181,10.149a5.006,5.006,0,0,1,1.446-9.781h0c.152,0,.3,0,.457.016a5,5,0,1,1-1.9,9.764" transform="translate(-668.075 -747.902)" fill="#d5f0f3"/>
        <path id="Trazado_255935" data-name="Trazado 255935" d="M745.189,825.553a3.931,3.931,0,0,0-1.576-.162h0a3.969,3.969,0,0,0-3.389,2.758c-.017.056-.034.112-.048.168a3.962,3.962,0,1,0,5.014-2.764m-2.183,6.965a3.335,3.335,0,0,1-.27-6.269h0a3.336,3.336,0,1,1,.269,6.269" transform="translate(-692.245 -772.064)" fill="#d5f0f3"/>
        <path id="Trazado_255936" data-name="Trazado 255936" d="M767.671,869.474l-.187-.544c0-.006-.061-.178-1.066-3.135l.716-.243.879,2.587L771,865.42l.51.559Z" transform="translate(-716.918 -809.526)" fill="#c4d72f"/>
        <path id="Trazado_255937" data-name="Trazado 255937" d="M315.982,246.609h-3.774a.074.074,0,0,1-.074-.074v-5.557a.074.074,0,0,1,.074-.074h3.774a.074.074,0,0,1,.074.074v5.557a.074.074,0,0,1-.074.074" transform="translate(-291.974 -225.345)" fill="#a3bbc5"/>
        <path id="Trazado_255938" data-name="Trazado 255938" d="M387.754,221.326H383.98a.074.074,0,0,1-.074-.074v-7.3a.074.074,0,0,1,.074-.074h3.774a.074.074,0,0,1,.074.074v7.3a.074.074,0,0,1-.074.074" transform="translate(-359.111 -200.062)" fill="#c4d72f"/>
        <path id="Trazado_255939" data-name="Trazado 255939" d="M459.525,180.872h-3.774a.074.074,0,0,1-.074-.074V170.7a.074.074,0,0,1,.074-.074h3.774a.074.074,0,0,1,.074.074v10.1a.074.074,0,0,1-.074.074" transform="translate(-426.247 -159.608)" fill="#ffb60f"/>
        <path id="Trazado_255940" data-name="Trazado 255940" d="M531.3,130.3h-3.774a.074.074,0,0,1-.074-.074V116.643a.074.074,0,0,1,.074-.074H531.3a.074.074,0,0,1,.074.074V130.23a.074.074,0,0,1-.074.074" transform="translate(-493.381 -109.04)" fill="#ff1c47"/>
      </g>
    </g>
  </g>
</svg>
