<svg xmlns="http://www.w3.org/2000/svg" xmlns:xlink="http://www.w3.org/1999/xlink" width="226.833" height="255.61" viewBox="0 0 226.833 255.61">
  <defs>
    <clipPath id="clip-path">
      <rect id="Rectángulo_293744" data-name="Rectángulo 293744" width="226.833" height="255.61" fill="none"/>
    </clipPath>
    <clipPath id="clip-path-3">
      <rect id="Rectángulo_293735" data-name="Rectángulo 293735" width="142.298" height="82.314" fill="none"/>
    </clipPath>
    <clipPath id="clip-path-4">
      <rect id="Rectángulo_293736" data-name="Rectángulo 293736" width="61.394" height="41.914" fill="none"/>
    </clipPath>
    <clipPath id="clip-path-6">
      <rect id="Rectángulo_293738" data-name="Rectángulo 293738" width="10.524" height="11.742" fill="none"/>
    </clipPath>
    <clipPath id="clip-path-7">
      <rect id="Rectángulo_293739" data-name="Rectángulo 293739" width="28.822" height="11.157" fill="none"/>
    </clipPath>
    <clipPath id="clip-path-8">
      <rect id="Rectángulo_293740" data-name="Rectángulo 293740" width="16.307" height="100.68" fill="none"/>
    </clipPath>
    <clipPath id="clip-path-9">
      <rect id="Rectángulo_293741" data-name="Rectángulo 293741" width="38.303" height="40.974" fill="none"/>
    </clipPath>
    <clipPath id="clip-path-10">
      <rect id="Rectángulo_293742" data-name="Rectángulo 293742" width="12.371" height="13.386" fill="none"/>
    </clipPath>
  </defs>
  <g id="Grupo_877491" data-name="Grupo 877491" transform="translate(0 0)">
    <g id="Grupo_877489" data-name="Grupo 877489" transform="translate(0 0)" clip-path="url(#clip-path)">
      <g id="Grupo_877471" data-name="Grupo 877471">
        <g id="Grupo_877470" data-name="Grupo 877470" clip-path="url(#clip-path)">
          <g id="Grupo_877466" data-name="Grupo 877466" transform="translate(0 169.497)" opacity="0.5" style="mix-blend-mode: multiply;isolation: isolate">
            <g id="Grupo_877465" data-name="Grupo 877465">
              <g id="Grupo_877464" data-name="Grupo 877464" clip-path="url(#clip-path-3)">
                <path id="Trazado_258730" data-name="Trazado 258730" d="M66.637,158.218l99.944,57.706,42.353-24.617-66.07-38.139L108.982,133.61l-5.631,3.277-4.875,2.829-3.818,2.22Z" transform="translate(-66.637 -133.61)" fill="#8196b3"/>
              </g>
            </g>
          </g>
          <g id="Grupo_877469" data-name="Grupo 877469" transform="translate(165.439 213.696)" opacity="0.5" style="mix-blend-mode: multiply;isolation: isolate">
            <g id="Grupo_877468" data-name="Grupo 877468" transform="translate(0)">
              <g id="Grupo_877467" data-name="Grupo 877467" clip-path="url(#clip-path-4)">
                <path id="Trazado_258731" data-name="Trazado 258731" d="M3.415,186.35,28.934,206.5c5.814,4.591,17.028,5.171,25.048,1.294s9.81-10.741,4-15.332L32.46,172.312c-5.814-4.591-17.028-5.171-25.048-1.294s-9.81,10.741-4,15.332" transform="translate(0 -168.45)" fill="#8196b3"/>
              </g>
            </g>
          </g>
        </g>
      </g>
      <path id="Trazado_258732" data-name="Trazado 258732" d="M71.846,190.471,110.1,168.242l-.028,9.843L71.818,200.314Z" transform="translate(25.627 45.19)" fill="#9aa651"/>
      <path id="Trazado_258733" data-name="Trazado 258733" d="M71.819,149.387l38.251-22.228,90.272,52.118-38.251,22.23Z" transform="translate(-64.618 34.155)" fill="#b8ca62"/>
      <path id="Trazado_258734" data-name="Trazado 258734" d="M81.3,147.894l26.23-15.242,78.231,45.167-26.228,15.242Z" transform="translate(-62.07 35.63)" fill="#a2d96a"/>
      <path id="Trazado_258735" data-name="Trazado 258735" d="M192.272,196.8l-.028,9.843L101.97,154.523,102,144.68Z" transform="translate(-94.798 38.861)" fill="#747d3d"/>
      <g id="Grupo_877488" data-name="Grupo 877488">
        <g id="Grupo_877487" data-name="Grupo 877487" clip-path="url(#clip-path)">
          <path id="Trazado_258736" data-name="Trazado 258736" d="M146.01,147.86c6.382,3.684,4.009,11.029-5.3,16.4s-22.03,6.745-28.413,3.061-4.009-11.029,5.3-16.4,22.03-6.746,28.413-3.061" transform="translate(-60.673 39.159)" fill="#b8ca62"/>
          <path id="Trazado_258737" data-name="Trazado 258737" d="M158.927,152.644l-38.256,22.225-12.567-7.25-1.814-1.049c-.009,0-3.648-2.107-3.648-2.107L140.9,142.23l3.649,2.106,1.814,1.049Z" transform="translate(-62.306 38.203)" fill="#f3f2f2"/>
          <path id="Trazado_258738" data-name="Trazado 258738" d="M150.854,170.161l-.028,9.849-12.539-7.241-1.823-1.058L132.8,169.6l.027-9.839,3.64,2.106c.009,0,1.823,1.049,1.823,1.049Z" transform="translate(-92.488 42.91)" fill="#eedfcf"/>
          <path id="Trazado_258739" data-name="Trazado 258739" d="M153.509,144.43l-38.256,22.233v9.858l-1.824-1.058v-9.849c.01,0,38.265-22.232,38.265-22.232Z" transform="translate(-70.572 38.512)" fill="#ea6c78"/>
          <path id="Trazado_258740" data-name="Trazado 258740" d="M145.409,161.956v9.858l-1.824-1.058v-9.849c.01,0,1.824,1.049,1.824,1.049" transform="translate(-100.728 43.219)" fill="#bf343b"/>
          <path id="Trazado_258741" data-name="Trazado 258741" d="M144.9,149.4l-38.256,22.233v9.857l-1.824-1.057v-9.849c.01,0,38.266-22.233,38.266-22.233Z" transform="translate(-51.037 39.847)" fill="#ea6c78"/>
          <path id="Trazado_258742" data-name="Trazado 258742" d="M136.8,166.928v9.858l-1.824-1.058v-9.849c.01,0,1.824,1.049,1.824,1.049" transform="translate(-81.191 44.555)" fill="#bf343b"/>
          <path id="Trazado_258743" data-name="Trazado 258743" d="M107.673,161.5c2.139,1.234,2.139,3.236,0,4.471a8.554,8.554,0,0,1-7.745,0c-2.139-1.234-2.139-3.236,0-4.471a8.562,8.562,0,0,1,7.745,0" transform="translate(-7.179 43.13)" fill="#b8ca62"/>
          <path id="Trazado_258744" data-name="Trazado 258744" d="M144.946,143.156c2.139,1.234,2.139,3.236,0,4.472a8.562,8.562,0,0,1-7.745,0c-2.139-1.236-2.139-3.237,0-4.472a8.562,8.562,0,0,1,7.745,0" transform="translate(-91.736 38.203)" fill="#b8ca62"/>
          <path id="Trazado_258745" data-name="Trazado 258745" d="M99.3,163.082l18.6,10.737,2.887-1.667-18.6-10.737Z" transform="translate(-19.928 43.356)" fill="#b8ca62"/>
          <path id="Trazado_258746" data-name="Trazado 258746" d="M104.818,165.418l14.66,8.464,2.276-1.314-14.66-8.464Z" transform="translate(-27.893 44.078)" fill="#b8ca62"/>
          <path id="Trazado_258747" data-name="Trazado 258747" d="M69.976,182.66l38.251-22.228-.028,9.843L69.948,192.5Z" transform="translate(29.871 43.092)" fill="#9aa651"/>
          <path id="Trazado_258748" data-name="Trazado 258748" d="M69.948,141.577,108.2,119.348l90.272,52.119L160.22,193.7Z" transform="translate(-60.374 32.057)" fill="#b8ca62"/>
          <path id="Trazado_258749" data-name="Trazado 258749" d="M79.431,140.084l26.23-15.242,78.232,45.166-26.23,15.243Z" transform="translate(-57.825 33.532)" fill="#a2d96a"/>
          <path id="Trazado_258750" data-name="Trazado 258750" d="M190.4,188.989l-.028,9.843L100.1,146.714l.029-9.844Z" transform="translate(-90.554 36.763)" fill="#747d3d"/>
          <path id="Trazado_258751" data-name="Trazado 258751" d="M144.139,140.05c6.382,3.685,4.009,11.029-5.3,16.4s-22.03,6.745-28.413,3.061-4.009-11.029,5.3-16.4,22.03-6.745,28.413-3.061" transform="translate(-56.428 37.062)" fill="#b8ca62"/>
          <path id="Trazado_258752" data-name="Trazado 258752" d="M157.056,144.834,118.8,167.057l-12.567-7.25-1.814-1.048c-.009,0-3.648-2.107-3.648-2.107l38.256-22.232,3.648,2.106,1.814,1.049Z" transform="translate(-58.061 36.105)" fill="#f3f2f2"/>
          <path id="Trazado_258753" data-name="Trazado 258753" d="M148.983,162.351l-.027,9.849-12.54-7.241-1.824-1.058-3.665-2.116.027-9.839,3.638,2.106c.01,0,1.824,1.049,1.824,1.049Z" transform="translate(-88.244 40.812)" fill="#eedfcf"/>
          <path id="Trazado_258754" data-name="Trazado 258754" d="M151.638,136.62l-38.256,22.233v9.858l-1.824-1.058V157.8c.009,0,38.265-22.233,38.265-22.233Z" transform="translate(-66.327 36.414)" fill="#ea6c78"/>
          <path id="Trazado_258755" data-name="Trazado 258755" d="M143.538,154.146V164l-1.824-1.058V153.1c.01,0,1.824,1.049,1.824,1.049" transform="translate(-96.483 41.122)" fill="#bf343b"/>
          <path id="Trazado_258756" data-name="Trazado 258756" d="M143.027,141.592l-38.256,22.233v9.858l-1.824-1.058v-9.849c.009,0,38.266-22.233,38.266-22.233Z" transform="translate(-46.793 37.75)" fill="#ea6c78"/>
          <path id="Trazado_258757" data-name="Trazado 258757" d="M134.926,159.118v9.858l-1.824-1.058v-9.849c.009,0,1.824,1.049,1.824,1.049" transform="translate(-76.946 42.457)" fill="#bf343b"/>
          <path id="Trazado_258758" data-name="Trazado 258758" d="M105.8,153.692c2.139,1.234,2.139,3.236,0,4.472a8.562,8.562,0,0,1-7.745,0c-2.139-1.236-2.139-3.237,0-4.472a8.562,8.562,0,0,1,7.745,0" transform="translate(-2.934 41.033)" fill="#b8ca62"/>
          <path id="Trazado_258759" data-name="Trazado 258759" d="M143.075,135.346c2.139,1.234,2.139,3.236,0,4.472a8.562,8.562,0,0,1-7.745,0c-2.139-1.236-2.139-3.237,0-4.472a8.562,8.562,0,0,1,7.745,0" transform="translate(-87.492 36.105)" fill="#b8ca62"/>
          <path id="Trazado_258760" data-name="Trazado 258760" d="M97.431,155.272l18.6,10.737,2.887-1.667-18.6-10.737Z" transform="translate(-15.684 41.258)" fill="#b8ca62"/>
          <path id="Trazado_258761" data-name="Trazado 258761" d="M102.947,157.608l14.66,8.464,2.276-1.314-14.66-8.464Z" transform="translate(-23.648 41.98)" fill="#b8ca62"/>
          <path id="Trazado_258762" data-name="Trazado 258762" d="M71.846,172.572,110.1,150.344l-.028,9.843L71.818,182.415Z" transform="translate(25.627 40.382)" fill="#9aa651"/>
          <path id="Trazado_258763" data-name="Trazado 258763" d="M71.816,131.489l90.27,52.12,38.253-22.235-59.675-34.446-30.6-17.665-5.086,2.958-4.4,2.556-3.449,2Z" transform="translate(-64.611 29.348)" fill="#b8ca62"/>
          <path id="Trazado_258764" data-name="Trazado 258764" d="M81.3,130l26.23-15.242,78.231,45.166-26.228,15.245Z" transform="translate(-62.07 30.823)" fill="#eaf6a8"/>
          <path id="Trazado_258765" data-name="Trazado 258765" d="M192.272,178.9l-.028,9.843L101.97,136.625l.029-9.843Z" transform="translate(-94.798 34.053)" fill="#747d3d"/>
          <path id="Trazado_258766" data-name="Trazado 258766" d="M146.01,129.962c6.382,3.685,4.009,11.029-5.3,16.4s-22.03,6.745-28.413,3.061-4.009-11.029,5.3-16.4,22.03-6.745,28.413-3.061" transform="translate(-60.673 34.352)" fill="#b8ca62"/>
          <path id="Trazado_258767" data-name="Trazado 258767" d="M158.927,134.746l-38.256,22.223-12.567-7.25-1.814-1.048c-.009,0-3.648-2.107-3.648-2.107L140.9,124.332l3.649,2.106,1.814,1.049Z" transform="translate(-62.306 33.395)" fill="#f3f2f2"/>
          <path id="Trazado_258768" data-name="Trazado 258768" d="M150.854,152.262l-.028,9.849-12.539-7.241-1.823-1.058L132.8,151.7l.027-9.839,3.64,2.106c.009,0,1.823,1.049,1.823,1.049Z" transform="translate(-92.488 38.102)" fill="#eedfcf"/>
          <path id="Trazado_258769" data-name="Trazado 258769" d="M153.509,126.532l-38.256,22.233v9.857l-1.824-1.057v-9.849c.01,0,38.265-22.233,38.265-22.233Z" transform="translate(-70.572 33.704)" fill="#ea6c78"/>
          <path id="Trazado_258770" data-name="Trazado 258770" d="M145.409,144.057v9.858l-1.824-1.058v-9.849c.01,0,1.824,1.049,1.824,1.049" transform="translate(-100.728 38.412)" fill="#bf343b"/>
          <path id="Trazado_258771" data-name="Trazado 258771" d="M144.9,131.5l-38.256,22.233v9.857l-1.824-1.057v-9.849c.01,0,38.266-22.233,38.266-22.233Z" transform="translate(-51.037 35.04)" fill="#ea6c78"/>
          <path id="Trazado_258772" data-name="Trazado 258772" d="M136.8,149.029v9.858l-1.824-1.058V147.98c.01,0,1.824,1.049,1.824,1.049" transform="translate(-81.191 39.747)" fill="#bf343b"/>
          <path id="Trazado_258773" data-name="Trazado 258773" d="M107.673,143.6c2.139,1.234,2.139,3.236,0,4.472a8.562,8.562,0,0,1-7.745,0c-2.139-1.236-2.139-3.237,0-4.472a8.562,8.562,0,0,1,7.745,0" transform="translate(-7.179 38.323)" fill="#b8ca62"/>
          <path id="Trazado_258774" data-name="Trazado 258774" d="M144.946,125.258c2.139,1.234,2.139,3.236,0,4.471a8.554,8.554,0,0,1-7.745,0c-2.139-1.234-2.139-3.236,0-4.471a8.562,8.562,0,0,1,7.745,0" transform="translate(-91.736 33.395)" fill="#b8ca62"/>
          <path id="Trazado_258775" data-name="Trazado 258775" d="M99.3,145.184l18.6,10.737,2.887-1.667-18.6-10.737Z" transform="translate(-19.928 38.548)" fill="#b8ca62"/>
          <path id="Trazado_258776" data-name="Trazado 258776" d="M104.818,147.52l14.66,8.464,2.276-1.314-14.66-8.464Z" transform="translate(-27.893 39.271)" fill="#b8ca62"/>
          <path id="Trazado_258777" data-name="Trazado 258777" d="M71.846,163.108,110.1,140.88l-.028,9.843L71.818,172.951Z" transform="translate(25.627 37.84)" fill="#9aa651"/>
          <path id="Trazado_258778" data-name="Trazado 258778" d="M71.819,122.024,110.07,99.8l90.272,52.119-38.251,22.228Z" transform="translate(-64.618 26.805)" fill="#b8ca62"/>
          <path id="Trazado_258779" data-name="Trazado 258779" d="M81.3,120.532l26.23-15.242,78.231,45.167L159.534,165.7Z" transform="translate(-62.07 28.281)" fill="#a2d96a"/>
          <path id="Trazado_258780" data-name="Trazado 258780" d="M192.272,169.437l-.028,9.843L101.97,127.162l.029-9.844Z" transform="translate(-94.798 31.511)" fill="#747d3d"/>
          <path id="Trazado_258781" data-name="Trazado 258781" d="M146.01,120.5c6.382,3.684,4.009,11.029-5.3,16.4s-22.03,6.745-28.413,3.061-4.009-11.029,5.3-16.4,22.03-6.746,28.413-3.061" transform="translate(-60.673 31.81)" fill="#b8ca62"/>
          <path id="Trazado_258782" data-name="Trazado 258782" d="M158.927,125.282l-38.256,22.225-12.567-7.25-1.814-1.049c-.009,0-3.648-2.107-3.648-2.107L140.9,114.868l3.649,2.106,1.814,1.049Z" transform="translate(-62.306 30.853)" fill="#f3f2f2"/>
          <path id="Trazado_258783" data-name="Trazado 258783" d="M150.854,142.8l-.028,9.849-12.539-7.241-1.823-1.058-3.666-2.116.027-9.839,3.64,2.106c.009,0,1.823,1.049,1.823,1.049Z" transform="translate(-92.488 35.561)" fill="#eedfcf"/>
          <path id="Trazado_258784" data-name="Trazado 258784" d="M153.509,117.067,115.253,139.3v9.858l-1.824-1.058v-9.849c.01,0,38.265-22.232,38.265-22.232Z" transform="translate(-70.572 31.162)" fill="#ea6c78"/>
          <path id="Trazado_258785" data-name="Trazado 258785" d="M145.409,134.593v9.858l-1.824-1.058v-9.849c.01,0,1.824,1.049,1.824,1.049" transform="translate(-100.728 35.87)" fill="#bf343b"/>
          <path id="Trazado_258786" data-name="Trazado 258786" d="M144.9,122.039l-38.256,22.233v9.858l-1.824-1.058v-9.849c.01,0,38.266-22.233,38.266-22.233Z" transform="translate(-51.037 32.498)" fill="#ea6c78"/>
          <path id="Trazado_258787" data-name="Trazado 258787" d="M136.8,139.565v9.858l-1.824-1.058v-9.849c.01,0,1.824,1.049,1.824,1.049" transform="translate(-81.191 37.205)" fill="#bf343b"/>
          <path id="Trazado_258788" data-name="Trazado 258788" d="M107.673,134.14c2.139,1.234,2.139,3.236,0,4.471a8.554,8.554,0,0,1-7.745,0c-2.139-1.234-2.139-3.236,0-4.471a8.554,8.554,0,0,1,7.745,0" transform="translate(-7.179 35.781)" fill="#b8ca62"/>
          <path id="Trazado_258789" data-name="Trazado 258789" d="M144.946,115.793c2.139,1.234,2.139,3.236,0,4.472a8.562,8.562,0,0,1-7.745,0c-2.139-1.236-2.139-3.237,0-4.472a8.562,8.562,0,0,1,7.745,0" transform="translate(-91.736 30.853)" fill="#b8ca62"/>
          <path id="Trazado_258790" data-name="Trazado 258790" d="M99.3,135.72l18.6,10.737,2.887-1.667-18.6-10.737Z" transform="translate(-19.928 36.006)" fill="#b8ca62"/>
          <path id="Trazado_258791" data-name="Trazado 258791" d="M104.818,138.055l14.66,8.464,2.276-1.314-14.66-8.464Z" transform="translate(-27.893 36.728)" fill="#b8ca62"/>
          <path id="Trazado_258792" data-name="Trazado 258792" d="M69.976,155.3l38.251-22.228-.028,9.843L69.948,165.141Z" transform="translate(29.871 35.742)" fill="#9aa651"/>
          <path id="Trazado_258793" data-name="Trazado 258793" d="M69.948,114.214,108.2,91.986,198.471,144.1l-38.251,22.23Z" transform="translate(-60.374 24.707)" fill="#b8ca62"/>
          <path id="Trazado_258794" data-name="Trazado 258794" d="M79.431,112.722l26.23-15.242,78.232,45.166-26.23,15.243Z" transform="translate(-57.825 26.183)" fill="#a2d96a"/>
          <path id="Trazado_258795" data-name="Trazado 258795" d="M190.4,161.627l-.028,9.843L100.1,119.352l.029-9.844Z" transform="translate(-90.554 29.413)" fill="#747d3d"/>
          <path id="Trazado_258796" data-name="Trazado 258796" d="M144.139,112.687c6.382,3.685,4.009,11.029-5.3,16.4s-22.03,6.745-28.413,3.061-4.009-11.029,5.3-16.4,22.03-6.745,28.413-3.061" transform="translate(-56.428 29.712)" fill="#b8ca62"/>
          <path id="Trazado_258797" data-name="Trazado 258797" d="M157.056,117.472,118.8,139.7l-12.567-7.25-1.814-1.048c-.009,0-3.648-2.107-3.648-2.107l38.256-22.232,3.648,2.106,1.814,1.049Z" transform="translate(-58.061 28.756)" fill="#f3f2f2"/>
          <path id="Trazado_258798" data-name="Trazado 258798" d="M148.983,134.988l-.027,9.849-12.54-7.241-1.824-1.058-3.665-2.116.027-9.839,3.638,2.106c.01,0,1.824,1.049,1.824,1.049Z" transform="translate(-88.244 33.463)" fill="#eedfcf"/>
          <path id="Trazado_258799" data-name="Trazado 258799" d="M151.638,109.257l-38.256,22.233v9.857l-1.824-1.057v-9.849c.009,0,38.265-22.233,38.265-22.233Z" transform="translate(-66.327 29.064)" fill="#ea6c78"/>
          <path id="Trazado_258800" data-name="Trazado 258800" d="M143.538,126.783v9.858l-1.824-1.058v-9.849c.01,0,1.824,1.049,1.824,1.049" transform="translate(-96.483 33.772)" fill="#bf343b"/>
          <path id="Trazado_258801" data-name="Trazado 258801" d="M143.027,114.229l-38.256,22.233v9.858l-1.824-1.058v-9.849c.009,0,38.266-22.233,38.266-22.233Z" transform="translate(-46.793 30.4)" fill="#ea6c78"/>
          <path id="Trazado_258802" data-name="Trazado 258802" d="M134.926,131.755v9.858l-1.824-1.058v-9.849c.009,0,1.824,1.049,1.824,1.049" transform="translate(-76.946 35.107)" fill="#bf343b"/>
          <path id="Trazado_258803" data-name="Trazado 258803" d="M105.8,126.33c2.139,1.234,2.139,3.236,0,4.472a8.562,8.562,0,0,1-7.745,0c-2.139-1.236-2.139-3.237,0-4.472a8.562,8.562,0,0,1,7.745,0" transform="translate(-2.934 33.683)" fill="#b8ca62"/>
          <path id="Trazado_258804" data-name="Trazado 258804" d="M143.075,107.983c2.139,1.234,2.139,3.236,0,4.472a8.562,8.562,0,0,1-7.745,0c-2.139-1.236-2.139-3.237,0-4.472a8.562,8.562,0,0,1,7.745,0" transform="translate(-87.492 28.755)" fill="#b8ca62"/>
          <path id="Trazado_258805" data-name="Trazado 258805" d="M97.431,127.909l18.6,10.737,2.887-1.667-18.6-10.737Z" transform="translate(-15.684 33.909)" fill="#b8ca62"/>
          <path id="Trazado_258806" data-name="Trazado 258806" d="M102.947,130.245l14.66,8.464,2.276-1.314-14.66-8.464Z" transform="translate(-23.648 34.631)" fill="#b8ca62"/>
          <path id="Trazado_258807" data-name="Trazado 258807" d="M71.846,145.21,110.1,122.981l-.028,9.843L71.818,155.053Z" transform="translate(25.627 33.033)" fill="#9aa651"/>
          <path id="Trazado_258808" data-name="Trazado 258808" d="M71.816,104.126l90.27,52.12,38.253-22.235L140.664,99.566,110.062,81.9l-5.086,2.958-4.4,2.556-3.449,2Z" transform="translate(-64.611 21.998)" fill="#b8ca62"/>
          <path id="Trazado_258809" data-name="Trazado 258809" d="M81.3,102.633l26.23-15.242,78.231,45.166L159.534,147.8Z" transform="translate(-62.07 23.473)" fill="#eaf6a8"/>
          <path id="Trazado_258810" data-name="Trazado 258810" d="M192.272,151.538l-.028,9.843L101.97,109.264,102,99.419Z" transform="translate(-94.798 26.704)" fill="#747d3d"/>
          <path id="Trazado_258811" data-name="Trazado 258811" d="M146.01,102.6c6.382,3.685,4.009,11.029-5.3,16.4s-22.03,6.745-28.413,3.061-4.009-11.029,5.3-16.4,22.03-6.745,28.413-3.061" transform="translate(-60.673 27.002)" fill="#b8ca62"/>
          <path id="Trazado_258812" data-name="Trazado 258812" d="M158.927,107.383l-38.256,22.225-12.567-7.25-1.814-1.049c-.009,0-3.648-2.107-3.648-2.107L140.9,96.969l3.649,2.106,1.814,1.049Z" transform="translate(-62.306 26.046)" fill="#f3f2f2"/>
          <path id="Trazado_258813" data-name="Trazado 258813" d="M150.854,124.9l-.028,9.849-12.539-7.241-1.823-1.058-3.666-2.116.027-9.839,3.64,2.106c.009,0,1.823,1.049,1.823,1.049Z" transform="translate(-92.488 30.753)" fill="#eedfcf"/>
          <path id="Trazado_258814" data-name="Trazado 258814" d="M153.509,99.169,115.253,121.4v9.857l-1.824-1.057v-9.849c.01,0,38.265-22.233,38.265-22.233Z" transform="translate(-70.572 26.355)" fill="#ea6c78"/>
          <path id="Trazado_258815" data-name="Trazado 258815" d="M145.409,116.7v9.858l-1.824-1.058v-9.849c.01,0,1.824,1.049,1.824,1.049" transform="translate(-100.728 31.062)" fill="#bf343b"/>
          <path id="Trazado_258816" data-name="Trazado 258816" d="M144.9,104.141l-38.256,22.233v9.857l-1.824-1.057v-9.849c.01,0,38.266-22.233,38.266-22.233Z" transform="translate(-51.037 27.69)" fill="#ea6c78"/>
          <path id="Trazado_258817" data-name="Trazado 258817" d="M136.8,121.667v9.858l-1.824-1.058v-9.849c.01,0,1.824,1.049,1.824,1.049" transform="translate(-81.191 32.398)" fill="#bf343b"/>
          <path id="Trazado_258818" data-name="Trazado 258818" d="M107.673,116.241c2.139,1.234,2.139,3.236,0,4.472a8.562,8.562,0,0,1-7.745,0c-2.139-1.236-2.139-3.237,0-4.472a8.562,8.562,0,0,1,7.745,0" transform="translate(-7.179 30.973)" fill="#b8ca62"/>
          <path id="Trazado_258819" data-name="Trazado 258819" d="M144.946,97.9c2.139,1.234,2.139,3.236,0,4.472a8.562,8.562,0,0,1-7.745,0c-2.139-1.236-2.139-3.237,0-4.472a8.562,8.562,0,0,1,7.745,0" transform="translate(-91.736 26.046)" fill="#b8ca62"/>
          <path id="Trazado_258820" data-name="Trazado 258820" d="M99.3,117.821l18.6,10.737,2.887-1.667-18.6-10.737Z" transform="translate(-19.928 31.199)" fill="#b8ca62"/>
          <path id="Trazado_258821" data-name="Trazado 258821" d="M104.818,120.157l14.66,8.464,2.276-1.314-14.66-8.464Z" transform="translate(-27.893 31.921)" fill="#b8ca62"/>
          <path id="Trazado_258822" data-name="Trazado 258822" d="M71.846,135.919,110.1,113.69l-.028,9.843L71.818,145.762Z" transform="translate(25.627 30.537)" fill="#9aa651"/>
          <path id="Trazado_258823" data-name="Trazado 258823" d="M71.819,94.835,110.07,72.606l90.272,52.119-38.251,22.228Z" transform="translate(-64.618 19.502)" fill="#b8ca62"/>
          <path id="Trazado_258824" data-name="Trazado 258824" d="M81.3,93.342,107.532,78.1l78.231,45.167L159.534,138.51Z" transform="translate(-62.07 20.977)" fill="#a2d96a"/>
          <path id="Trazado_258825" data-name="Trazado 258825" d="M192.272,142.247l-.028,9.843L101.97,99.972,102,90.128Z" transform="translate(-94.798 24.208)" fill="#747d3d"/>
          <path id="Trazado_258826" data-name="Trazado 258826" d="M146.01,93.308c6.382,3.685,4.009,11.029-5.3,16.4s-22.03,6.745-28.413,3.061-4.009-11.029,5.3-16.4,22.03-6.745,28.413-3.061" transform="translate(-60.673 24.507)" fill="#b8ca62"/>
          <path id="Trazado_258827" data-name="Trazado 258827" d="M158.927,98.092l-38.256,22.225-12.567-7.25-1.814-1.049c-.009,0-3.648-2.107-3.648-2.107L140.9,87.678l3.649,2.106,1.814,1.049Z" transform="translate(-62.306 23.55)" fill="#f3f2f2"/>
          <path id="Trazado_258828" data-name="Trazado 258828" d="M150.854,115.609l-.028,9.849-12.539-7.241-1.823-1.058-3.666-2.116.027-9.839,3.64,2.106c.009,0,1.823,1.049,1.823,1.049Z" transform="translate(-92.488 28.258)" fill="#eedfcf"/>
          <path id="Trazado_258829" data-name="Trazado 258829" d="M153.509,89.878l-38.256,22.233v9.857l-1.824-1.057v-9.849c.01,0,38.265-22.232,38.265-22.232Z" transform="translate(-70.572 23.86)" fill="#ea6c78"/>
          <path id="Trazado_258830" data-name="Trazado 258830" d="M145.409,107.4v9.858l-1.824-1.058v-9.849c.01,0,1.824,1.049,1.824,1.049" transform="translate(-100.728 28.566)" fill="#bf343b"/>
          <path id="Trazado_258831" data-name="Trazado 258831" d="M144.9,94.85l-38.256,22.233v9.857l-1.824-1.057v-9.849c.01,0,38.266-22.233,38.266-22.233Z" transform="translate(-51.037 25.195)" fill="#ea6c78"/>
          <path id="Trazado_258832" data-name="Trazado 258832" d="M136.8,112.376v9.858l-1.824-1.058v-9.849c.01,0,1.824,1.049,1.824,1.049" transform="translate(-81.191 29.902)" fill="#bf343b"/>
          <path id="Trazado_258833" data-name="Trazado 258833" d="M107.673,106.95c2.139,1.234,2.139,3.236,0,4.472a8.562,8.562,0,0,1-7.745,0c-2.139-1.236-2.139-3.237,0-4.472a8.562,8.562,0,0,1,7.745,0" transform="translate(-7.179 28.478)" fill="#b8ca62"/>
          <path id="Trazado_258834" data-name="Trazado 258834" d="M144.946,88.6c2.139,1.234,2.139,3.236,0,4.472a8.562,8.562,0,0,1-7.745,0c-2.139-1.236-2.139-3.237,0-4.472a8.562,8.562,0,0,1,7.745,0" transform="translate(-91.736 23.55)" fill="#b8ca62"/>
          <path id="Trazado_258835" data-name="Trazado 258835" d="M99.3,108.53l18.6,10.737,2.887-1.668-18.6-10.736Z" transform="translate(-19.928 28.703)" fill="#b8ca62"/>
          <path id="Trazado_258836" data-name="Trazado 258836" d="M104.818,110.866l14.66,8.464,2.276-1.314-14.66-8.464Z" transform="translate(-27.893 29.425)" fill="#b8ca62"/>
          <path id="Trazado_258837" data-name="Trazado 258837" d="M69.976,128.108l38.251-22.228-.028,9.843L69.948,137.951Z" transform="translate(29.871 28.439)" fill="#9aa651"/>
          <path id="Trazado_258838" data-name="Trazado 258838" d="M69.948,87.024,108.2,64.8l90.272,52.119L160.22,139.144Z" transform="translate(-60.374 17.404)" fill="#b8ca62"/>
          <path id="Trazado_258839" data-name="Trazado 258839" d="M79.431,85.532,105.66,70.29l78.232,45.166L157.663,130.7Z" transform="translate(-57.825 18.88)" fill="#a2d96a"/>
          <path id="Trazado_258840" data-name="Trazado 258840" d="M190.4,134.437l-.028,9.843L100.1,92.162l.029-9.844Z" transform="translate(-90.554 22.11)" fill="#747d3d"/>
          <path id="Trazado_258841" data-name="Trazado 258841" d="M144.139,85.5c6.382,3.684,4.009,11.029-5.3,16.4s-22.03,6.745-28.413,3.061-4.009-11.029,5.3-16.4,22.03-6.745,28.413-3.061" transform="translate(-56.428 22.409)" fill="#b8ca62"/>
          <path id="Trazado_258842" data-name="Trazado 258842" d="M157.056,90.282,118.8,112.505l-12.567-7.25-1.814-1.048c-.009,0-3.648-2.107-3.648-2.107l38.256-22.232,3.648,2.106,1.814,1.049Z" transform="translate(-58.061 21.452)" fill="#f3f2f2"/>
          <path id="Trazado_258843" data-name="Trazado 258843" d="M148.983,107.8l-.027,9.849-12.54-7.241-1.824-1.058-3.665-2.116.027-9.839,3.638,2.106c.01,0,1.824,1.049,1.824,1.049Z" transform="translate(-88.244 26.16)" fill="#eedfcf"/>
          <path id="Trazado_258844" data-name="Trazado 258844" d="M151.638,82.068,113.382,104.3v9.857l-1.824-1.058v-9.848c.009,0,38.265-22.233,38.265-22.233Z" transform="translate(-66.327 21.762)" fill="#ea6c78"/>
          <path id="Trazado_258845" data-name="Trazado 258845" d="M143.538,99.593v9.858l-1.824-1.058V98.544c.01,0,1.824,1.049,1.824,1.049" transform="translate(-96.483 26.469)" fill="#bf343b"/>
          <path id="Trazado_258846" data-name="Trazado 258846" d="M143.027,87.04l-38.256,22.233v9.858l-1.824-1.058v-9.849c.009,0,38.266-22.232,38.266-22.232Z" transform="translate(-46.793 23.097)" fill="#ea6c78"/>
          <path id="Trazado_258847" data-name="Trazado 258847" d="M134.926,104.566v9.858l-1.824-1.058v-9.849c.009,0,1.824,1.049,1.824,1.049" transform="translate(-76.946 27.804)" fill="#bf343b"/>
          <path id="Trazado_258848" data-name="Trazado 258848" d="M105.8,99.14c2.139,1.236,2.139,3.236,0,4.472a8.562,8.562,0,0,1-7.745,0c-2.139-1.236-2.139-3.236,0-4.472a8.562,8.562,0,0,1,7.745,0" transform="translate(-2.934 26.38)" fill="#b8ca62"/>
          <path id="Trazado_258849" data-name="Trazado 258849" d="M143.075,80.794c2.139,1.234,2.139,3.236,0,4.472a8.562,8.562,0,0,1-7.745,0c-2.139-1.236-2.139-3.237,0-4.472a8.562,8.562,0,0,1,7.745,0" transform="translate(-87.492 21.452)" fill="#b8ca62"/>
          <path id="Trazado_258850" data-name="Trazado 258850" d="M97.431,100.72l18.6,10.737,2.887-1.667-18.6-10.737Z" transform="translate(-15.684 26.605)" fill="#b8ca62"/>
          <path id="Trazado_258851" data-name="Trazado 258851" d="M102.947,103.056l14.66,8.464,2.276-1.314-14.66-8.464Z" transform="translate(-23.648 27.328)" fill="#b8ca62"/>
          <path id="Trazado_258852" data-name="Trazado 258852" d="M71.846,118.02,110.1,95.792l-.028,9.843L71.818,127.863Z" transform="translate(25.627 25.729)" fill="#9aa651"/>
          <path id="Trazado_258853" data-name="Trazado 258853" d="M71.816,76.937l90.27,52.12,38.253-22.235L140.664,72.376l-30.6-17.665-5.086,2.958-4.4,2.556-3.449,2Z" transform="translate(-64.611 14.695)" fill="#b8ca62"/>
          <path id="Trazado_258854" data-name="Trazado 258854" d="M81.3,75.444,107.532,60.2l78.231,45.166-26.228,15.245Z" transform="translate(-62.07 16.17)" fill="#eaf6a8"/>
          <path id="Trazado_258855" data-name="Trazado 258855" d="M192.272,124.349l-.028,9.843L101.97,82.074,102,72.23Z" transform="translate(-94.798 19.401)" fill="#747d3d"/>
          <path id="Trazado_258856" data-name="Trazado 258856" d="M146.01,75.409c6.382,3.685,4.009,11.029-5.3,16.4s-22.03,6.745-28.413,3.061-4.009-11.029,5.3-16.4,22.03-6.746,28.413-3.061" transform="translate(-60.673 19.699)" fill="#b8ca62"/>
          <path id="Trazado_258857" data-name="Trazado 258857" d="M158.927,80.194l-38.256,22.223L108.1,95.167l-1.814-1.048c-.009,0-3.648-2.107-3.648-2.107L140.9,69.78l3.649,2.106,1.814,1.049Z" transform="translate(-62.306 18.743)" fill="#f3f2f2"/>
          <path id="Trazado_258858" data-name="Trazado 258858" d="M150.854,97.71l-.028,9.849-12.539-7.241-1.823-1.058L132.8,97.146l.027-9.841,3.64,2.106c.009,0,1.823,1.049,1.823,1.049Z" transform="translate(-92.488 23.45)" fill="#eedfcf"/>
          <path id="Trazado_258859" data-name="Trazado 258859" d="M153.509,71.979,115.253,94.213v9.857l-1.824-1.057V93.163c.01,0,38.265-22.233,38.265-22.233Z" transform="translate(-70.572 19.052)" fill="#ea6c78"/>
          <path id="Trazado_258860" data-name="Trazado 258860" d="M145.409,89.505v9.858l-1.824-1.058V88.456c.01,0,1.824,1.049,1.824,1.049" transform="translate(-100.728 23.759)" fill="#bf343b"/>
          <path id="Trazado_258861" data-name="Trazado 258861" d="M144.9,76.952,106.642,99.186v9.858l-1.824-1.058V98.136c.01,0,38.266-22.233,38.266-22.233Z" transform="translate(-51.037 20.387)" fill="#ea6c78"/>
          <path id="Trazado_258862" data-name="Trazado 258862" d="M136.8,94.477v9.858l-1.824-1.058V93.428c.01,0,1.824,1.049,1.824,1.049" transform="translate(-81.191 25.095)" fill="#bf343b"/>
          <path id="Trazado_258863" data-name="Trazado 258863" d="M107.673,89.052c2.139,1.234,2.139,3.236,0,4.472a8.562,8.562,0,0,1-7.745,0c-2.139-1.236-2.139-3.237,0-4.472a8.562,8.562,0,0,1,7.745,0" transform="translate(-7.179 23.671)" fill="#b8ca62"/>
          <path id="Trazado_258864" data-name="Trazado 258864" d="M144.946,70.706c2.139,1.234,2.139,3.236,0,4.472a8.562,8.562,0,0,1-7.745,0c-2.139-1.236-2.139-3.237,0-4.472a8.562,8.562,0,0,1,7.745,0" transform="translate(-91.736 18.743)" fill="#b8ca62"/>
          <path id="Trazado_258865" data-name="Trazado 258865" d="M99.3,90.632l18.6,10.737,2.887-1.667-18.6-10.737Z" transform="translate(-19.928 23.896)" fill="#b8ca62"/>
          <path id="Trazado_258866" data-name="Trazado 258866" d="M104.818,92.968l14.66,8.464,2.276-1.314-14.66-8.464Z" transform="translate(-27.893 24.618)" fill="#b8ca62"/>
          <path id="Trazado_258867" data-name="Trazado 258867" d="M71.846,108.27,110.1,86.041l-.028,9.843L71.818,118.113Z" transform="translate(25.627 23.111)" fill="#9aa651"/>
          <path id="Trazado_258868" data-name="Trazado 258868" d="M71.819,67.186,110.07,44.958l90.272,52.119L162.091,119.3Z" transform="translate(-64.618 12.076)" fill="#b8ca62"/>
          <path id="Trazado_258869" data-name="Trazado 258869" d="M81.3,65.693l26.23-15.242,78.231,45.167-26.228,15.243Z" transform="translate(-62.07 13.551)" fill="#a2d96a"/>
          <path id="Trazado_258870" data-name="Trazado 258870" d="M192.272,114.6l-.028,9.843L101.97,72.324,102,62.479Z" transform="translate(-94.798 16.782)" fill="#747d3d"/>
          <path id="Trazado_258871" data-name="Trazado 258871" d="M146.01,65.659c6.382,3.684,4.009,11.029-5.3,16.4s-22.03,6.745-28.413,3.061-4.009-11.029,5.3-16.4,22.03-6.746,28.413-3.061" transform="translate(-60.673 17.08)" fill="#b8ca62"/>
          <path id="Trazado_258872" data-name="Trazado 258872" d="M158.927,70.443,120.671,92.668,108.1,85.417l-1.814-1.049c-.009,0-3.648-2.107-3.648-2.107L140.9,60.029l3.649,2.106,1.814,1.049Z" transform="translate(-62.306 16.124)" fill="#f3f2f2"/>
          <path id="Trazado_258873" data-name="Trazado 258873" d="M150.854,87.96l-.028,9.849-12.539-7.241-1.823-1.058L132.8,87.394l.027-9.839,3.64,2.106c.009,0,1.823,1.049,1.823,1.049Z" transform="translate(-92.488 20.831)" fill="#eedfcf"/>
          <path id="Trazado_258874" data-name="Trazado 258874" d="M153.509,62.229,115.253,84.463V94.32l-1.824-1.057V83.413c.01,0,38.265-22.233,38.265-22.233Z" transform="translate(-70.572 16.433)" fill="#ea6c78"/>
          <path id="Trazado_258875" data-name="Trazado 258875" d="M145.409,79.755v9.858l-1.824-1.058V78.706c.01,0,1.824,1.049,1.824,1.049" transform="translate(-100.728 21.14)" fill="#bf343b"/>
          <path id="Trazado_258876" data-name="Trazado 258876" d="M144.9,67.2,106.642,89.435v9.858l-1.824-1.058V88.385c.01,0,38.266-22.233,38.266-22.233Z" transform="translate(-51.037 17.768)" fill="#ea6c78"/>
          <path id="Trazado_258877" data-name="Trazado 258877" d="M136.8,84.727v9.858l-1.824-1.058V83.678c.01,0,1.824,1.049,1.824,1.049" transform="translate(-81.191 22.476)" fill="#bf343b"/>
          <path id="Trazado_258878" data-name="Trazado 258878" d="M107.673,79.3c2.139,1.234,2.139,3.236,0,4.472a8.562,8.562,0,0,1-7.745,0c-2.139-1.236-2.139-3.237,0-4.472a8.562,8.562,0,0,1,7.745,0" transform="translate(-7.179 21.051)" fill="#b8ca62"/>
          <path id="Trazado_258879" data-name="Trazado 258879" d="M144.946,60.955c2.139,1.234,2.139,3.236,0,4.472a8.562,8.562,0,0,1-7.745,0c-2.139-1.236-2.139-3.237,0-4.472a8.562,8.562,0,0,1,7.745,0" transform="translate(-91.736 16.124)" fill="#b8ca62"/>
          <path id="Trazado_258880" data-name="Trazado 258880" d="M99.3,80.881l18.6,10.737,2.887-1.667-18.6-10.737Z" transform="translate(-19.928 21.277)" fill="#b8ca62"/>
          <path id="Trazado_258881" data-name="Trazado 258881" d="M104.818,83.217l14.66,8.464,2.276-1.314L107.094,81.9Z" transform="translate(-27.893 21.999)" fill="#b8ca62"/>
          <path id="Trazado_258882" data-name="Trazado 258882" d="M69.976,100.459l38.251-22.228-.028,9.843L69.948,110.3Z" transform="translate(29.871 21.013)" fill="#9aa651"/>
          <path id="Trazado_258883" data-name="Trazado 258883" d="M69.948,59.376,108.2,37.147l90.272,52.119L160.22,111.495Z" transform="translate(-60.374 9.978)" fill="#b8ca62"/>
          <path id="Trazado_258884" data-name="Trazado 258884" d="M79.431,57.883l26.23-15.242,78.232,45.166-26.23,15.243Z" transform="translate(-57.825 11.453)" fill="#a2d96a"/>
          <path id="Trazado_258885" data-name="Trazado 258885" d="M190.4,106.788l-.028,9.843L100.1,64.513l.029-9.844Z" transform="translate(-90.554 14.684)" fill="#747d3d"/>
          <path id="Trazado_258886" data-name="Trazado 258886" d="M144.139,57.849c6.382,3.685,4.009,11.029-5.3,16.4S116.807,81,110.425,77.314s-4.009-11.029,5.3-16.4,22.03-6.745,28.413-3.061" transform="translate(-56.428 14.983)" fill="#b8ca62"/>
          <path id="Trazado_258887" data-name="Trazado 258887" d="M157.056,62.633,118.8,84.856l-12.567-7.249-1.814-1.049c-.009,0-3.648-2.107-3.648-2.107l38.256-22.232,3.648,2.106,1.814,1.049Z" transform="translate(-58.061 14.026)" fill="#f3f2f2"/>
          <path id="Trazado_258888" data-name="Trazado 258888" d="M148.983,80.15,148.956,90l-12.54-7.241L134.592,81.7l-3.665-2.116.027-9.839,3.638,2.106c.01,0,1.824,1.049,1.824,1.049Z" transform="translate(-88.244 18.733)" fill="#eedfcf"/>
          <path id="Trazado_258889" data-name="Trazado 258889" d="M151.638,54.419,113.382,76.653V86.51l-1.824-1.057V75.6c.009,0,38.265-22.233,38.265-22.233Z" transform="translate(-66.327 14.335)" fill="#ea6c78"/>
          <path id="Trazado_258890" data-name="Trazado 258890" d="M143.538,71.945V81.8l-1.824-1.058V70.9c.01,0,1.824,1.049,1.824,1.049" transform="translate(-96.483 19.043)" fill="#bf343b"/>
          <path id="Trazado_258891" data-name="Trazado 258891" d="M143.027,59.391,104.771,81.624v9.858l-1.824-1.058V80.575c.009,0,38.266-22.232,38.266-22.232Z" transform="translate(-46.793 15.671)" fill="#ea6c78"/>
          <path id="Trazado_258892" data-name="Trazado 258892" d="M134.926,76.917v9.858L133.1,85.717V75.868c.009,0,1.824,1.049,1.824,1.049" transform="translate(-76.946 20.378)" fill="#bf343b"/>
          <path id="Trazado_258893" data-name="Trazado 258893" d="M105.8,71.491c2.139,1.234,2.139,3.236,0,4.472a8.562,8.562,0,0,1-7.745,0c-2.139-1.236-2.139-3.237,0-4.472a8.562,8.562,0,0,1,7.745,0" transform="translate(-2.934 18.954)" fill="#b8ca62"/>
          <path id="Trazado_258894" data-name="Trazado 258894" d="M143.075,53.145c2.139,1.234,2.139,3.236,0,4.472a8.562,8.562,0,0,1-7.745,0c-2.139-1.236-2.139-3.237,0-4.472a8.562,8.562,0,0,1,7.745,0" transform="translate(-87.492 14.026)" fill="#b8ca62"/>
          <path id="Trazado_258895" data-name="Trazado 258895" d="M97.431,73.071l18.6,10.737,2.887-1.667L100.318,71.4Z" transform="translate(-15.684 19.179)" fill="#b8ca62"/>
          <path id="Trazado_258896" data-name="Trazado 258896" d="M102.947,75.407l14.66,8.464,2.276-1.314-14.66-8.464Z" transform="translate(-23.648 19.901)" fill="#b8ca62"/>
          <path id="Trazado_258897" data-name="Trazado 258897" d="M71.846,90.371,110.1,68.143l-.028,9.843L71.818,100.214Z" transform="translate(25.627 18.303)" fill="#9aa651"/>
          <path id="Trazado_258898" data-name="Trazado 258898" d="M71.816,49.288l90.27,52.12,38.253-22.235L140.664,44.727l-30.6-17.665-5.086,2.958-4.4,2.556-3.449,2Z" transform="translate(-64.611 7.269)" fill="#b8ca62"/>
          <path id="Trazado_258899" data-name="Trazado 258899" d="M81.3,47.8l26.23-15.243,78.231,45.167L159.534,92.962Z" transform="translate(-62.07 8.743)" fill="#eaf6a8"/>
          <path id="Trazado_258900" data-name="Trazado 258900" d="M192.272,96.7l-.028,9.843L101.97,54.425,102,44.581Z" transform="translate(-94.798 11.974)" fill="#747d3d"/>
          <path id="Trazado_258901" data-name="Trazado 258901" d="M146.01,47.761c6.382,3.684,4.009,11.029-5.3,16.4s-22.03,6.745-28.413,3.061-4.009-11.029,5.3-16.4,22.03-6.746,28.413-3.061" transform="translate(-60.673 12.273)" fill="#b8ca62"/>
          <path id="Trazado_258902" data-name="Trazado 258902" d="M158.927,52.545,120.671,74.768,108.1,67.518,106.29,66.47c-.009,0-3.648-2.107-3.648-2.107L140.9,42.131l3.649,2.106,1.814,1.049Z" transform="translate(-62.306 11.316)" fill="#f3f2f2"/>
          <path id="Trazado_258903" data-name="Trazado 258903" d="M150.854,70.061l-.028,9.849-12.539-7.241-1.823-1.058L132.8,69.5l.027-9.839,3.64,2.106c.009,0,1.823,1.049,1.823,1.049Z" transform="translate(-92.488 16.023)" fill="#eedfcf"/>
          <path id="Trazado_258904" data-name="Trazado 258904" d="M153.509,44.331,115.253,66.565v9.858l-1.824-1.058V65.515c.01,0,38.265-22.233,38.265-22.233Z" transform="translate(-70.572 11.625)" fill="#ea6c78"/>
          <path id="Trazado_258905" data-name="Trazado 258905" d="M145.409,61.856v9.858l-1.824-1.058V60.807c.01,0,1.824,1.049,1.824,1.049" transform="translate(-100.728 16.333)" fill="#bf343b"/>
          <path id="Trazado_258906" data-name="Trazado 258906" d="M144.9,49.3,106.642,71.537v9.857l-1.824-1.057V70.487c.01,0,38.266-22.233,38.266-22.233Z" transform="translate(-51.037 12.961)" fill="#ea6c78"/>
          <path id="Trazado_258907" data-name="Trazado 258907" d="M136.8,66.828v9.858l-1.824-1.058V65.779c.01,0,1.824,1.049,1.824,1.049" transform="translate(-81.191 17.668)" fill="#bf343b"/>
          <path id="Trazado_258908" data-name="Trazado 258908" d="M107.673,61.4c2.139,1.234,2.139,3.236,0,4.471a8.554,8.554,0,0,1-7.745,0c-2.139-1.234-2.139-3.236,0-4.471a8.554,8.554,0,0,1,7.745,0" transform="translate(-7.179 16.244)" fill="#b8ca62"/>
          <path id="Trazado_258909" data-name="Trazado 258909" d="M144.946,43.057c2.139,1.234,2.139,3.236,0,4.472a8.562,8.562,0,0,1-7.745,0c-2.139-1.236-2.139-3.237,0-4.472a8.562,8.562,0,0,1,7.745,0" transform="translate(-91.736 11.316)" fill="#b8ca62"/>
          <path id="Trazado_258910" data-name="Trazado 258910" d="M99.3,62.983,117.9,73.72l2.887-1.667-18.6-10.737Z" transform="translate(-19.928 16.469)" fill="#b8ca62"/>
          <path id="Trazado_258911" data-name="Trazado 258911" d="M104.818,65.319l14.66,8.464,2.276-1.314L107.094,64Z" transform="translate(-27.893 17.191)" fill="#b8ca62"/>
          <path id="Trazado_258912" data-name="Trazado 258912" d="M71.846,81.208,110.1,58.98l-.028,9.843L71.818,91.051Z" transform="translate(25.627 15.842)" fill="#9aa651"/>
          <path id="Trazado_258913" data-name="Trazado 258913" d="M71.819,40.124,110.07,17.9l90.272,52.119L162.091,92.243Z" transform="translate(-64.618 4.807)" fill="#b8ca62"/>
          <path id="Trazado_258914" data-name="Trazado 258914" d="M81.3,38.632l26.23-15.242,78.231,45.167L159.534,83.8Z" transform="translate(-62.07 6.282)" fill="#a2d96a"/>
          <path id="Trazado_258915" data-name="Trazado 258915" d="M192.272,87.537l-.028,9.843L101.97,45.262,102,35.418Z" transform="translate(-94.798 9.513)" fill="#747d3d"/>
          <path id="Trazado_258916" data-name="Trazado 258916" d="M146.01,38.6c6.382,3.684,4.009,11.029-5.3,16.4s-22.03,6.745-28.413,3.061-4.009-11.029,5.3-16.4,22.03-6.746,28.413-3.061" transform="translate(-60.673 9.811)" fill="#b8ca62"/>
          <path id="Trazado_258917" data-name="Trazado 258917" d="M158.927,43.382,120.671,65.607,108.1,58.356l-1.814-1.049c-.009,0-3.648-2.107-3.648-2.107L140.9,32.968l3.649,2.106,1.814,1.049Z" transform="translate(-62.306 8.855)" fill="#f3f2f2"/>
          <path id="Trazado_258918" data-name="Trazado 258918" d="M150.854,60.9l-.028,9.849-12.539-7.241-1.823-1.058L132.8,60.332l.027-9.839,3.64,2.106c.009,0,1.823,1.049,1.823,1.049Z" transform="translate(-92.488 13.562)" fill="#eedfcf"/>
          <path id="Trazado_258919" data-name="Trazado 258919" d="M153.509,35.167,115.253,57.4v9.858L113.429,66.2V56.351c.01,0,38.265-22.232,38.265-22.232Z" transform="translate(-70.572 9.164)" fill="#ea6c78"/>
          <path id="Trazado_258920" data-name="Trazado 258920" d="M145.409,52.693v9.858l-1.824-1.058V51.644c.01,0,1.824,1.049,1.824,1.049" transform="translate(-100.728 13.871)" fill="#bf343b"/>
          <path id="Trazado_258921" data-name="Trazado 258921" d="M144.9,40.139,106.642,62.373V72.23l-1.824-1.057V61.323c.01,0,38.266-22.233,38.266-22.233Z" transform="translate(-51.037 10.5)" fill="#ea6c78"/>
          <path id="Trazado_258922" data-name="Trazado 258922" d="M136.8,57.665v9.858l-1.824-1.058V56.616c.01,0,1.824,1.049,1.824,1.049" transform="translate(-81.191 15.207)" fill="#bf343b"/>
          <path id="Trazado_258923" data-name="Trazado 258923" d="M107.673,52.24c2.139,1.234,2.139,3.236,0,4.472a8.562,8.562,0,0,1-7.745,0c-2.139-1.236-2.139-3.237,0-4.472a8.562,8.562,0,0,1,7.745,0" transform="translate(-7.179 13.783)" fill="#b8ca62"/>
          <path id="Trazado_258924" data-name="Trazado 258924" d="M144.946,33.893c2.139,1.234,2.139,3.236,0,4.472a8.562,8.562,0,0,1-7.745,0c-2.139-1.236-2.139-3.237,0-4.472a8.562,8.562,0,0,1,7.745,0" transform="translate(-91.736 8.855)" fill="#b8ca62"/>
          <path id="Trazado_258925" data-name="Trazado 258925" d="M99.3,53.82l18.6,10.737,2.887-1.667-18.6-10.737Z" transform="translate(-19.928 14.008)" fill="#b8ca62"/>
          <path id="Trazado_258926" data-name="Trazado 258926" d="M104.818,56.155l14.66,8.464,2.276-1.314-14.66-8.464Z" transform="translate(-27.893 14.73)" fill="#b8ca62"/>
          <path id="Trazado_258927" data-name="Trazado 258927" d="M69.976,73.4l38.251-22.228-.028,9.843L69.948,83.241Z" transform="translate(29.871 13.744)" fill="#9aa651"/>
          <path id="Trazado_258928" data-name="Trazado 258928" d="M69.948,32.314,108.2,10.086,198.471,62.2,160.22,84.433Z" transform="translate(-60.374 2.709)" fill="#b8ca62"/>
          <path id="Trazado_258929" data-name="Trazado 258929" d="M79.431,30.822l26.23-15.242,78.232,45.166-26.23,15.243Z" transform="translate(-57.825 4.185)" fill="#a2d96a"/>
          <path id="Trazado_258930" data-name="Trazado 258930" d="M190.4,79.727l-.028,9.843L100.1,37.452l.029-9.844Z" transform="translate(-90.554 7.415)" fill="#747d3d"/>
          <path id="Trazado_258931" data-name="Trazado 258931" d="M144.139,30.787c6.382,3.685,4.009,11.029-5.3,16.4s-22.03,6.745-28.413,3.061-4.009-11.029,5.3-16.4,22.03-6.745,28.413-3.061" transform="translate(-56.428 7.714)" fill="#b8ca62"/>
          <path id="Trazado_258932" data-name="Trazado 258932" d="M157.056,35.572,118.8,57.8l-12.567-7.25L104.419,49.5c-.009,0-3.648-2.107-3.648-2.107l38.256-22.232,3.648,2.106,1.814,1.049Z" transform="translate(-58.061 6.757)" fill="#f3f2f2"/>
          <path id="Trazado_258933" data-name="Trazado 258933" d="M148.983,53.088l-.027,9.849L136.416,55.7l-1.824-1.058-3.665-2.116.027-9.839,3.638,2.106c.01,0,1.824,1.049,1.824,1.049Z" transform="translate(-88.244 11.465)" fill="#eedfcf"/>
          <path id="Trazado_258934" data-name="Trazado 258934" d="M151.638,27.357,113.382,49.591v9.857l-1.824-1.057V48.541c.009,0,38.265-22.233,38.265-22.233Z" transform="translate(-66.327 7.066)" fill="#ea6c78"/>
          <path id="Trazado_258935" data-name="Trazado 258935" d="M143.538,44.883v9.858l-1.824-1.058V43.834c.01,0,1.824,1.049,1.824,1.049" transform="translate(-96.483 11.774)" fill="#bf343b"/>
          <path id="Trazado_258936" data-name="Trazado 258936" d="M143.027,32.329,104.771,54.563v9.858l-1.824-1.058V53.513c.009,0,38.266-22.233,38.266-22.233Z" transform="translate(-46.793 8.402)" fill="#ea6c78"/>
          <path id="Trazado_258937" data-name="Trazado 258937" d="M134.926,49.855v9.858L133.1,58.655V48.806c.009,0,1.824,1.049,1.824,1.049" transform="translate(-76.946 13.109)" fill="#bf343b"/>
          <path id="Trazado_258938" data-name="Trazado 258938" d="M105.8,44.43c2.139,1.234,2.139,3.236,0,4.472a8.562,8.562,0,0,1-7.745,0c-2.139-1.236-2.139-3.237,0-4.472a8.562,8.562,0,0,1,7.745,0" transform="translate(-2.934 11.685)" fill="#b8ca62"/>
          <path id="Trazado_258939" data-name="Trazado 258939" d="M143.075,26.083c2.139,1.234,2.139,3.236,0,4.472a8.562,8.562,0,0,1-7.745,0c-2.139-1.236-2.139-3.237,0-4.472a8.554,8.554,0,0,1,7.745,0" transform="translate(-87.492 6.757)" fill="#b8ca62"/>
          <path id="Trazado_258940" data-name="Trazado 258940" d="M97.431,46.009l18.6,10.737,2.887-1.667-18.6-10.737Z" transform="translate(-15.684 11.91)" fill="#b8ca62"/>
          <path id="Trazado_258941" data-name="Trazado 258941" d="M102.947,48.345l14.66,8.464,2.276-1.314-14.66-8.464Z" transform="translate(-23.648 12.632)" fill="#b8ca62"/>
          <path id="Trazado_258942" data-name="Trazado 258942" d="M71.846,63.31,110.1,41.081l-.028,9.843L71.818,73.153Z" transform="translate(25.627 11.034)" fill="#9aa651"/>
          <path id="Trazado_258943" data-name="Trazado 258943" d="M71.816,22.226l90.27,52.12,38.253-22.235L140.664,17.666,110.062,0l-5.086,2.958-4.4,2.556-3.449,2Z" transform="translate(-64.611 0)" fill="#b8ca62"/>
          <path id="Trazado_258944" data-name="Trazado 258944" d="M81.3,20.733l26.23-15.242,78.231,45.166L159.534,65.9Z" transform="translate(-62.07 1.475)" fill="#eaf6a8"/>
          <path id="Trazado_258945" data-name="Trazado 258945" d="M192.272,69.638l-.028,9.843L101.97,27.364,102,17.519Z" transform="translate(-94.798 4.706)" fill="#747d3d"/>
          <path id="Trazado_258946" data-name="Trazado 258946" d="M146.01,20.7c6.382,3.684,4.009,11.029-5.3,16.4s-22.03,6.745-28.413,3.061-4.009-11.029,5.3-16.4,22.03-6.745,28.413-3.061" transform="translate(-60.673 5.004)" fill="#b8ca62"/>
          <path id="Trazado_258947" data-name="Trazado 258947" d="M158.927,25.483,120.671,47.708,108.1,40.457l-1.814-1.049c-.009,0-3.648-2.107-3.648-2.107L140.9,15.069l3.649,2.106,1.814,1.049Z" transform="translate(-62.306 4.048)" fill="#f3f2f2"/>
          <path id="Trazado_258948" data-name="Trazado 258948" d="M150.854,43l-.028,9.849-12.539-7.241-1.823-1.058L132.8,42.434l.027-9.839,3.64,2.106c.009,0,1.823,1.049,1.823,1.049Z" transform="translate(-92.488 8.755)" fill="#eedfcf"/>
          <path id="Trazado_258949" data-name="Trazado 258949" d="M153.509,17.269,115.253,39.5V49.36L113.429,48.3V38.453c.01,0,38.265-22.233,38.265-22.233Z" transform="translate(-70.572 4.357)" fill="#ea6c78"/>
          <path id="Trazado_258950" data-name="Trazado 258950" d="M145.409,34.8v9.858L143.585,43.6V33.746c.01,0,1.824,1.049,1.824,1.049" transform="translate(-100.728 9.064)" fill="#bf343b"/>
          <path id="Trazado_258951" data-name="Trazado 258951" d="M144.9,22.241,106.642,44.475v9.857l-1.824-1.057V43.425c.01,0,38.266-22.233,38.266-22.233Z" transform="translate(-51.037 5.692)" fill="#ea6c78"/>
          <path id="Trazado_258952" data-name="Trazado 258952" d="M136.8,39.767v9.858l-1.824-1.058V38.718c.01,0,1.824,1.049,1.824,1.049" transform="translate(-81.191 10.4)" fill="#bf343b"/>
          <path id="Trazado_258953" data-name="Trazado 258953" d="M107.673,34.341c2.139,1.234,2.139,3.236,0,4.472a8.562,8.562,0,0,1-7.745,0c-2.139-1.236-2.139-3.237,0-4.472a8.562,8.562,0,0,1,7.745,0" transform="translate(-7.179 8.975)" fill="#b8ca62"/>
          <path id="Trazado_258954" data-name="Trazado 258954" d="M144.946,16c2.139,1.234,2.139,3.236,0,4.472a8.562,8.562,0,0,1-7.745,0c-2.139-1.236-2.139-3.237,0-4.472a8.562,8.562,0,0,1,7.745,0" transform="translate(-91.736 4.048)" fill="#b8ca62"/>
          <path id="Trazado_258955" data-name="Trazado 258955" d="M99.3,35.921l18.6,10.737,2.887-1.667-18.6-10.737Z" transform="translate(-19.928 9.201)" fill="#b8ca62"/>
          <path id="Trazado_258956" data-name="Trazado 258956" d="M104.818,38.257l14.66,8.464,2.276-1.314-14.66-8.464Z" transform="translate(-27.893 9.923)" fill="#b8ca62"/>
          <path id="Trazado_258957" data-name="Trazado 258957" d="M31.509,83.6c.025.013.038.025.063.038,8.626,4.212,28.759-7.193,28.759-7.193L66.281,61.7c-2.994-1.9-6.609-.748-10.415,1.319L37.712,71.9l-1.878-7.269a61.533,61.533,0,0,1-6.406,2.347c-.977,4.757-2.563,14.183,2.081,16.619" transform="translate(124.578 16.313)" fill="#419e83"/>
          <path id="Trazado_258958" data-name="Trazado 258958" d="M64.4,64.832l-.246-3.08-.5-1.22-1.13-1.579L59.838,56.2l-2.958.7-3.61,2.629-1.053,1.983,1.418,1.941L55.116,66.3,57.44,68.73l2.971.951c1.045.556,3.971-1.375,3.994-4.85" transform="translate(96.187 15.095)" fill="#ffb2a3"/>
          <g id="Grupo_877474" data-name="Grupo 877474" transform="translate(149.821 73.094)" opacity="0.5" style="mix-blend-mode: multiply;isolation: isolate">
            <g id="Grupo_877473" data-name="Grupo 877473" transform="translate(0)">
              <g id="Grupo_877472" data-name="Grupo 877472" clip-path="url(#clip-path-6)">
                <path id="Trazado_258959" data-name="Trazado 258959" d="M62.411,64.2l.524-2.832-.854-1.015-1.222.222-2.051-2.96-1.716.563L53.777,61l-1.329.743-.037,1.326,1.482,2.847,2.324,2.432,2.971.951c1.047.556,4.255-2.952,3.224-5.1" transform="translate(-52.412 -57.618)" fill="#ffb294"/>
              </g>
            </g>
          </g>
          <path id="Trazado_258960" data-name="Trazado 258960" d="M53.973,68.631c-1.458.313-2.248-2.91-1.313-4.707L53.9,62.366l-.341-2.088c-.162-.984-.19-2.278.755-2.59.6-.2.793.575.793.575l.34,1.532.832,1.7-.213,4.529a7.478,7.478,0,0,1-2.094,2.61" transform="translate(104.26 15.486)" fill="#ffb2a3"/>
          <path id="Trazado_258961" data-name="Trazado 258961" d="M63.479,57.618l-1.943.029a11.133,11.133,0,0,1,.888,2.663c-.109.411-1.375,1.165-1.375,1.165a2.138,2.138,0,0,1-.174,1.1,1.86,1.86,0,0,1-1.163.7,2.526,2.526,0,0,1-1.109-.217s-1.191.911-1.829.746-.853-1.459-.853-1.459l-.256-1.219,2.724-2.5Z" transform="translate(92.739 15.476)" fill="#ffb2a3"/>
          <path id="Trazado_258962" data-name="Trazado 258962" d="M63.672,59.321l-.8-1.38-2.4-3.721L56.76,51.943c-1.222-.814-2.734.316-1.186,1.61l2.946,2.259,1.393,2.832,1.208,1.129Z" transform="translate(93.493 13.878)" fill="#ffb2a3"/>
          <g id="Grupo_877477" data-name="Grupo 877477" transform="translate(156.087 89.723)" style="mix-blend-mode: multiply;isolation: isolate">
            <g id="Grupo_877476" data-name="Grupo 877476" transform="translate(0)">
              <g id="Grupo_877475" data-name="Grupo 877475" clip-path="url(#clip-path-7)">
                <path id="Trazado_258963" data-name="Trazado 258963" d="M33.047,80.913c.025.013.038.025.063.038,8.626,4.212,28.759-7.193,28.759-7.193l-2.639-3.032A46.942,46.942,0,0,1,33.047,80.913" transform="translate(-33.047 -70.726)" fill="#e3ccb3"/>
              </g>
            </g>
          </g>
          <path id="Trazado_258964" data-name="Trazado 258964" d="M21.843,184.814c.927,3.111,1.114,4.014.724,6.32a34.607,34.607,0,0,0-1.368,3.454c-.57,2.083-.483,5.562-3.443,7.643-3.527,2.917-10.344,3.051-12.489-.06a16.831,16.831,0,0,1,2.748-7.577l3.462-6.741-.221-6.315,9.943-2.286Z" transform="translate(197.39 48.147)" fill="#282752"/>
          <path id="Trazado_258965" data-name="Trazado 258965" d="M49.338,172.225c.884,1.265.833,4.152.567,7.412-.9,3.282-3.879,2.971-6.432,3.342-4.929.714-7.438,4.54-13.979,4.41-3.887-.079-6.465-1-7.237-3.593-.1-1.191.581-2.385,1.98-3.584,9-4.03,9-4.033,9.211-4.175a46.57,46.57,0,0,0,4.36-3.461c.082-.32,1.661-7.452,1.661-7.452l9.6.176Z" transform="translate(148.534 44.352)" fill="#282752"/>
          <path id="Trazado_258966" data-name="Trazado 258966" d="M42.989,103.422l-7.756,44.532C36.4,161.516,40.878,174.895,39.678,188c-.946,5.433-11.667,4.618-13.715.617.7-10.187-5.007-25.286-7.155-41.994-.471-16.531-.283-33.541,2.936-46.655Z" transform="translate(160.227 26.85)" fill="#1f387d"/>
          <path id="Trazado_258967" data-name="Trazado 258967" d="M44.646,202.506a3.56,3.56,0,0,1-1.417,2.89,5.7,5.7,0,0,1-1.275.714c-3.359,1.4-8.859.506-10.692-1.913-1.063-10.14-5.595-25.5-10.562-41.54-1.6-11.112-3.3-23.472-3.618-33.306-.109-3.012-13.309-6.722-11.973-25.527l23.231,9.535,12.968-7.929-1.54,16.177-.927,41.833c3.47,13.125,5.732,26.162,5.806,39.065" transform="translate(175.826 27.887)" fill="#34559c"/>
          <g id="Grupo_877480" data-name="Grupo 877480" transform="translate(204.165 133.317)" opacity="0.5" style="mix-blend-mode: multiply;isolation: isolate">
            <g id="Grupo_877479" data-name="Grupo 877479" transform="translate(0)">
              <g id="Grupo_877478" data-name="Grupo 877478" clip-path="url(#clip-path-8)">
                <path id="Trazado_258968" data-name="Trazado 258968" d="M21.321,202.166a3.559,3.559,0,0,1-1.417,2.89,5.7,5.7,0,0,1-1.275.714c1.049-17.271-1.349-31.792-8.947-43.032,1.267-14.1,2.106-24.835-.613-36.06-1.819-7.494-3.421-10.056-4.054-13.659l12.968-7.929-1.54,16.177L15.514,163.1c3.47,13.125,5.732,26.162,5.806,39.065" transform="translate(-5.014 -105.09)" fill="#25435c"/>
              </g>
            </g>
          </g>
          <path id="Trazado_258969" data-name="Trazado 258969" d="M2.8,121.581a28.793,28.793,0,0,0,5,5.81,21.453,21.453,0,0,0,10.009,5.125,27.666,27.666,0,0,0,11.582.013,23.164,23.164,0,0,0,8.322-3.6,6.921,6.921,0,0,0,2.918-5.836c-.178-8.335,4.228-16.775,5.471-25.579.228-1.5.393-2.892.52-4.148a.351.351,0,0,1,.013-.114l.33-11.392C44.187,78.09,33.286,67.539,24.3,65.7c-4.148-2.106-8.03-4.085-12.229-4.833C6.924,62.807,5.047,68.211,3.5,76.647c-1.535,10.009,2.03,27.2-1.243,42a3.793,3.793,0,0,0,.545,2.93" transform="translate(177.123 16.348)" fill="#419e83"/>
          <g id="Grupo_877483" data-name="Grupo 877483" transform="translate(184.923 108.507)" style="mix-blend-mode: multiply;isolation: isolate">
            <g id="Grupo_877482" data-name="Grupo 877482" transform="translate(0)">
              <g id="Grupo_877481" data-name="Grupo 877481" clip-path="url(#clip-path-9)">
                <path id="Trazado_258970" data-name="Trazado 258970" d="M2.844,120.766a21.453,21.453,0,0,0,10.009,5.125,27.666,27.666,0,0,0,11.582.013,23.165,23.165,0,0,0,8.322-3.6,6.922,6.922,0,0,0,2.918-5.836c-.178-8.335,4.228-16.775,5.471-25.579l-9.61-5.353-3.81,13.191-18.633,13Z" transform="translate(-2.844 -85.533)" fill="#e3ccb3"/>
              </g>
            </g>
          </g>
          <path id="Trazado_258971" data-name="Trazado 258971" d="M31.836,70.894l-2.379,6.079L27.29,79.615c-1.248,5.633-1.971,17.064-1.9,24.579l-3.6,2.537-1.162-4.7c1.057-8.035,3.382-19.136,5.074-23.205l-.053-5.5,2.273-3.437Z" transform="translate(168.826 18.772)" fill="#ea6c78"/>
          <path id="Trazado_258972" data-name="Trazado 258972" d="M26.994,64.321a7.229,7.229,0,0,1,4.6,6.184c.5,5.116-8.3,9.778-12,10.413l-1.737-5.795-5.347,1.355c-.264-5.392,1.744-16.121,14.484-12.157" transform="translate(179.376 17.046)" fill="#3a7e5c"/>
          <path id="Trazado_258973" data-name="Trazado 258973" d="M14.492,75.744c5.933,2.574,12.536-3.164,12.342-7.388a30.584,30.584,0,0,1,.993-7.943l-12.269,1.47s-.8-.14-1.067,1.43c-.471,2.8-2.612,11.3,0,12.431" transform="translate(182.236 16.227)" fill="#ffb2a3"/>
          <g id="Grupo_877486" data-name="Grupo 877486" transform="translate(195.417 78.803)" opacity="0.5" style="mix-blend-mode: multiply;isolation: isolate">
            <g id="Grupo_877485" data-name="Grupo 877485" transform="translate(0)">
              <g id="Grupo_877484" data-name="Grupo 877484" clip-path="url(#clip-path-10)">
                <path id="Trazado_258974" data-name="Trazado 258974" d="M16.829,75.484c5.639.578,10.555-11.211,10.555-11.211L16,62.118c-1.342,7.962-1.546,13.122.827,13.366" transform="translate(-15.012 -62.118)" fill="#ffa89f"/>
              </g>
            </g>
          </g>
          <path id="Trazado_258975" data-name="Trazado 258975" d="M25.823,65.745s-1.924,4.994-4.506,6.937a14.037,14.037,0,0,1-7.8,2.5c-1.409-.1-2.5-.358-3.274-1.536s-.128-11.055-.128-11.055a29.627,29.627,0,0,1,1.407-6.973c1.045-3.026,4.143-9.635,13.045-7.279a8.794,8.794,0,0,1,6.7,8.569c.076,3.112-3.042,8.25-3.042,8.25Z" transform="translate(183.055 12.85)" fill="#ffb2a3"/>
          <path id="Trazado_258976" data-name="Trazado 258976" d="M27.189,65.792l-4.582,1.765L22.6,64.945a2.108,2.108,0,0,0-1.983-2.4,16.374,16.374,0,0,1-8.086-2.462c-2.708-1.771-2.971-3.765-2.971-3.765-.766-5.761,7.121-9.166,12.642-8.3,6.7,1.055,8.873,5.909,8.392,9.9-.438,3.627-3.4,7.87-3.4,7.87" transform="translate(184.115 12.862)" fill="#282752"/>
          <path id="Trazado_258977" data-name="Trazado 258977" d="M13.736,59.189a1.5,1.5,0,0,1,1.782.5,1.436,1.436,0,0,1,.091,1.095,3.7,3.7,0,0,1-.5,1,18.531,18.531,0,0,1-1.156,1.581,2.089,2.089,0,0,1-1.267.894c-.54.06-1.217.344-1.444-.15a4.445,4.445,0,0,1,2.5-4.921" transform="translate(197.035 15.871)" fill="#ffb2a3"/>
          <path id="Trazado_258978" data-name="Trazado 258978" d="M32.808,77.024c3.114,1.744.982,15.087,2.511,29.683.159,8.8-21.193,12.568-32.984,14.827-1.89-.008-1.708-6.2-1.427-8.246,8.464-3.858,16.333-6.977,21.963-11.259-.647-4.693-.619-5-1.269-10.945C19.7,83,28.028,72.347,32.808,77.024" transform="translate(190.583 20.381)" fill="#419e83"/>
          <path id="Trazado_258979" data-name="Trazado 258979" d="M31.509,95.806l9.007,27.786,19.151,1.694-.912-3.406-2.381-8.9-.206-.8-1.024-3.816L52.111,97.053Z" transform="translate(127.195 25.733)" fill="#fff"/>
          <path id="Trazado_258980" data-name="Trazado 258980" d="M26.1,107.006l.462,1.766-.395.3,1.913,7.145c.119-.03.254-.075.373-.105l5.307-3.093,3.1-1.014c1.884-.389.839-6.3-1.03-6.106l-.751.213a52.38,52.38,0,0,0-6.292-1.7l-3.171.773Z" transform="translate(156.502 28.045)" fill="#ffb2a3"/>
          <path id="Trazado_258981" data-name="Trazado 258981" d="M34.128,113.02l2,.6,1.12,1.121,1.181.793,1.525.657a21.686,21.686,0,0,0,6.249-.957l-1.914-7.145L39.554,111.7l-4.873-.329c-1.734.015-1.719,1.285-.553,1.644" transform="translate(138.372 29.032)" fill="#ffb2a3"/>
        </g>
      </g>
    </g>
  </g>
</svg>
