<svg id="Grupo_877514" data-name="Grupo 877514" xmlns="http://www.w3.org/2000/svg" xmlns:xlink="http://www.w3.org/1999/xlink" width="235.651" height="271.48" viewBox="0 0 235.651 271.48">
  <defs>
    <clipPath id="clip-path">
      <rect id="Rectángulo_293774" data-name="Rectángulo 293774" width="235.651" height="271.481" fill="none"/>
    </clipPath>
    <clipPath id="clip-path-3">
      <rect id="Rectángulo_293765" data-name="Rectángulo 293765" width="138.089" height="162.888" fill="none"/>
    </clipPath>
    <clipPath id="clip-path-5">
      <rect id="Rectángulo_293753" data-name="Rectángulo 293753" width="24.224" height="28.688" fill="none"/>
    </clipPath>
    <clipPath id="clip-path-7">
      <rect id="Rectángulo_293755" data-name="Rectángulo 293755" width="14.338" height="7.927" fill="none"/>
    </clipPath>
    <clipPath id="clip-path-8">
      <rect id="Rectángulo_293756" data-name="Rectángulo 293756" width="28.54" height="38.988" fill="none"/>
    </clipPath>
    <clipPath id="clip-path-9">
      <rect id="Rectángulo_293757" data-name="Rectángulo 293757" width="32.948" height="44.178" fill="none"/>
    </clipPath>
    <clipPath id="clip-path-10">
      <rect id="Rectángulo_293758" data-name="Rectángulo 293758" width="39.751" height="29.646" fill="none"/>
    </clipPath>
    <clipPath id="clip-path-11">
      <rect id="Rectángulo_293759" data-name="Rectángulo 293759" width="40.793" height="25.484" fill="none"/>
    </clipPath>
    <clipPath id="clip-path-12">
      <rect id="Rectángulo_293760" data-name="Rectángulo 293760" width="39.812" height="38.528" fill="none"/>
    </clipPath>
    <clipPath id="clip-path-13">
      <rect id="Rectángulo_293761" data-name="Rectángulo 293761" width="13.447" height="9.243" fill="none"/>
    </clipPath>
    <clipPath id="clip-path-14">
      <rect id="Rectángulo_293762" data-name="Rectángulo 293762" width="122.752" height="143.395" fill="none"/>
    </clipPath>
    <clipPath id="clip-path-15">
      <rect id="Rectángulo_293763" data-name="Rectángulo 293763" width="22.067" height="26.397" fill="none"/>
    </clipPath>
    <clipPath id="clip-path-16">
      <rect id="Rectángulo_293766" data-name="Rectángulo 293766" width="8.874" height="18.724" fill="none"/>
    </clipPath>
    <clipPath id="clip-path-17">
      <rect id="Rectángulo_293767" data-name="Rectángulo 293767" width="8.903" height="6.6" fill="none"/>
    </clipPath>
    <clipPath id="clip-path-18">
      <rect id="Rectángulo_293768" data-name="Rectángulo 293768" width="24.222" height="81.746" fill="none"/>
    </clipPath>
    <clipPath id="clip-path-19">
      <rect id="Rectángulo_293769" data-name="Rectángulo 293769" width="35.317" height="72.207" fill="none"/>
    </clipPath>
    <clipPath id="clip-path-20">
      <rect id="Rectángulo_293770" data-name="Rectángulo 293770" width="13.869" height="35.374" fill="none"/>
    </clipPath>
    <clipPath id="clip-path-21">
      <rect id="Rectángulo_293771" data-name="Rectángulo 293771" width="9.97" height="12.073" fill="none"/>
    </clipPath>
    <clipPath id="clip-path-22">
      <rect id="Rectángulo_293772" data-name="Rectángulo 293772" width="136.24" height="89.569" fill="none"/>
    </clipPath>
  </defs>
  <g id="Grupo_877576" data-name="Grupo 877576" clip-path="url(#clip-path)">
    <path id="Trazado_259078" data-name="Trazado 259078" d="M180.046,149.187l.065,23.1L165.023,181l-.065-23.1Z" transform="translate(34.256 30.981)" fill="#de8d1d"/>
    <path id="Trazado_259079" data-name="Trazado 259079" d="M105.186,166.9l.065,23.1-20.583-3.076-.066-23.1Z" transform="translate(17.569 34.022)" fill="#de8d1d"/>
    <g id="Grupo_877575" data-name="Grupo 877575">
      <g id="Grupo_877574" data-name="Grupo 877574" clip-path="url(#clip-path)">
        <path id="Trazado_259080" data-name="Trazado 259080" d="M178.106,157.618l.065,23.1c-18.311-9.719-46.911-9.438-64.739.856-5.436,3.139-9.469,6.986-11.72,11.191l-.065-23.1c2.25-4.2,6.283-8.053,11.72-11.191,17.829-10.293,46.429-10.576,64.739-.856" transform="translate(21.108 31.261)" fill="#de8d1d"/>
        <path id="Trazado_259081" data-name="Trazado 259081" d="M181.645,159.734c-18.311-9.719-46.911-9.437-64.739.856-5.437,3.139-9.471,6.988-11.72,11.191L84.6,168.706c3.237-6.335,9.193-12.126,17.324-16.822,26.141-15.092,68.221-15.38,94.808-.861Z" transform="translate(17.569 29.145)" fill="#ffc966"/>
        <path id="Trazado_259082" data-name="Trazado 259082" d="M181.645,159.734c-18.311-9.719-46.911-9.437-64.739.856-5.437,3.139-9.471,6.988-11.72,11.191L84.6,168.706c3.237-6.335,9.193-12.126,17.324-16.822,26.141-15.092,68.221-15.38,94.808-.861Z" transform="translate(17.569 29.145)" fill="#f5c075"/>
        <path id="Trazado_259083" data-name="Trazado 259083" d="M112.018,57.712v92.4l-16.789-9.693v-92.4Z" transform="translate(19.776 9.972)" fill="#bf343b"/>
        <path id="Trazado_259084" data-name="Trazado 259084" d="M128.807,49.686l-16.789,9.693L95.229,49.686l16.789-9.693Z" transform="translate(19.776 8.305)" fill="#ff8793"/>
        <path id="Trazado_259085" data-name="Trazado 259085" d="M109.131,57.712v92.4l16.789-9.693v-92.4Z" transform="translate(22.663 9.972)" fill="#ea6c78"/>
        <path id="Trazado_259086" data-name="Trazado 259086" d="M94.2,78.581V158.2L77.415,148.51V68.888Z" transform="translate(16.077 14.306)" fill="#1f387d"/>
        <path id="Trazado_259087" data-name="Trazado 259087" d="M110.993,70.554,94.2,80.247,77.415,70.554,94.2,60.862Z" transform="translate(16.077 12.639)" fill="#4977db"/>
        <path id="Trazado_259088" data-name="Trazado 259088" d="M91.317,78.581V158.2l16.789-9.693V68.888Z" transform="translate(18.963 14.306)" fill="#34559c"/>
        <path id="Trazado_259089" data-name="Trazado 259089" d="M76.39,103.87v61.5L59.6,155.679v-61.5Z" transform="translate(12.377 19.557)" fill="#bf343b"/>
        <path id="Trazado_259090" data-name="Trazado 259090" d="M93.179,95.844,76.39,105.536,59.6,95.844,76.39,86.151Z" transform="translate(12.377 17.891)" fill="#ff8793"/>
        <path id="Trazado_259091" data-name="Trazado 259091" d="M73.5,103.87v61.5l16.789-9.693v-61.5Z" transform="translate(15.264 19.557)" fill="#ea6c78"/>
        <path id="Trazado_259092" data-name="Trazado 259092" d="M58.516,121.435v52.59l-16.789-9.693v-52.59Z" transform="translate(8.665 23.205)" fill="#1f387d"/>
        <path id="Trazado_259093" data-name="Trazado 259093" d="M75.3,113.409,58.516,123.1l-16.789-9.693,16.789-9.693Z" transform="translate(8.665 21.538)" fill="#4977db"/>
        <path id="Trazado_259094" data-name="Trazado 259094" d="M55.629,121.435v52.59l16.789-9.693v-52.59Z" transform="translate(11.552 23.205)" fill="#34559c"/>
        <path id="Trazado_259095" data-name="Trazado 259095" d="M40.641,136.524v46.67L23.852,173.5v-46.67Z" transform="translate(4.953 26.339)" fill="#bf343b"/>
        <path id="Trazado_259096" data-name="Trazado 259096" d="M57.43,128.5l-16.789,9.693L23.852,128.5l16.789-9.693Z" transform="translate(4.953 24.672)" fill="#ff8793"/>
        <path id="Trazado_259097" data-name="Trazado 259097" d="M37.754,136.524v46.67L54.543,173.5v-46.67Z" transform="translate(7.84 26.339)" fill="#ea6c78"/>
        <path id="Trazado_259098" data-name="Trazado 259098" d="M22.767,156.2v35.211L5.978,181.718V146.507Z" transform="translate(1.241 30.425)" fill="#1f387d"/>
        <path id="Trazado_259099" data-name="Trazado 259099" d="M39.556,148.174l-16.789,9.693L5.978,148.174l16.789-9.693Z" transform="translate(1.241 28.758)" fill="#4977db"/>
        <path id="Trazado_259100" data-name="Trazado 259100" d="M19.88,156.2v35.211l16.789-9.693V146.507Z" transform="translate(4.128 30.425)" fill="#34559c"/>
        <g id="Grupo_877552" data-name="Grupo 877552">
          <g id="Grupo_877551" data-name="Grupo 877551">
            <g id="Grupo_877550" data-name="Grupo 877550" clip-path="url(#clip-path-3)">
              <g id="Grupo_877549" data-name="Grupo 877549" style="isolation: isolate">
                <g id="Grupo_877548" data-name="Grupo 877548">
                  <g id="Grupo_877547" data-name="Grupo 877547" clip-path="url(#clip-path-3)">
                    <g id="Grupo_877516" data-name="Grupo 877516" transform="translate(113.866)">
                      <g id="Grupo_877515" data-name="Grupo 877515">
                        <g id="Grupo_877514-2" data-name="Grupo 877514" clip-path="url(#clip-path-5)">
                          <path id="Trazado_259101" data-name="Trazado 259101" d="M118.509,28.689,96.441,15.826l-2.156-2.291L115.212,0l2.156,2.291Z" transform="translate(-94.286 0)" fill="#bf343b"/>
                        </g>
                      </g>
                    </g>
                    <g id="Grupo_877519" data-name="Grupo 877519" transform="translate(113.866)">
                      <g id="Grupo_877518" data-name="Grupo 877518">
                        <g id="Grupo_877517" data-name="Grupo 877517" clip-path="url(#clip-path-5)">
                          <path id="Trazado_259102" data-name="Trazado 259102" d="M118.509,28.689,96.441,15.826l-2.156-2.291L115.212,0l2.156,2.291Z" transform="translate(-94.286 0)" fill="#961f24"/>
                        </g>
                      </g>
                    </g>
                    <g id="Grupo_877522" data-name="Grupo 877522" transform="translate(120.653 12.381)">
                      <g id="Grupo_877521" data-name="Grupo 877521">
                        <g id="Grupo_877520" data-name="Grupo 877520" clip-path="url(#clip-path-7)">
                          <path id="Trazado_259103" data-name="Trazado 259103" d="M112.144,17.364,99.905,10.252l2.1.815,12.238,7.112Z" transform="translate(-99.906 -10.252)" fill="#bf343b"/>
                        </g>
                      </g>
                    </g>
                    <g id="Grupo_877525" data-name="Grupo 877525" transform="translate(104.351 12.381)">
                      <g id="Grupo_877524" data-name="Grupo 877524">
                        <g id="Grupo_877523" data-name="Grupo 877523" clip-path="url(#clip-path-8)">
                          <path id="Trazado_259104" data-name="Trazado 259104" d="M98.646,49.24,86.407,42.128l16.3-31.876,12.238,7.112Z" transform="translate(-86.408 -10.252)" fill="#ea6c78"/>
                        </g>
                      </g>
                    </g>
                    <g id="Grupo_877528" data-name="Grupo 877528" transform="translate(56.129 66.791)">
                      <g id="Grupo_877527" data-name="Grupo 877527">
                        <g id="Grupo_877526" data-name="Grupo 877526" clip-path="url(#clip-path-9)">
                          <path id="Trazado_259105" data-name="Trazado 259105" d="M58.715,99.484,46.477,92.372l20.71-37.066,12.238,7.112Z" transform="translate(-46.477 -55.306)" fill="#ea6c78"/>
                        </g>
                      </g>
                    </g>
                    <g id="Grupo_877531" data-name="Grupo 877531" transform="translate(76.839 44.257)">
                      <g id="Grupo_877530" data-name="Grupo 877530">
                        <g id="Grupo_877529" data-name="Grupo 877529" clip-path="url(#clip-path-10)">
                          <path id="Trazado_259106" data-name="Trazado 259106" d="M75.864,66.293,63.626,59.181,91.139,36.647l12.238,7.112Z" transform="translate(-63.626 -36.647)" fill="#ff8793"/>
                        </g>
                      </g>
                    </g>
                    <g id="Grupo_877534" data-name="Grupo 877534" transform="translate(27.574 103.857)">
                      <g id="Grupo_877533" data-name="Grupo 877533">
                        <g id="Grupo_877532" data-name="Grupo 877532" clip-path="url(#clip-path-11)">
                          <path id="Trazado_259107" data-name="Trazado 259107" d="M35.071,111.482,22.832,104.37,51.387,86,63.626,93.11Z" transform="translate(-22.832 -85.998)" fill="#ff8793"/>
                        </g>
                      </g>
                    </g>
                    <g id="Grupo_877537" data-name="Grupo 877537" transform="translate(0 122.229)">
                      <g id="Grupo_877536" data-name="Grupo 877536">
                        <g id="Grupo_877535" data-name="Grupo 877535" clip-path="url(#clip-path-12)">
                          <path id="Trazado_259108" data-name="Trazado 259108" d="M12.238,139.739,0,132.627l27.575-31.416,12.237,7.112Z" transform="translate(0 -101.211)" fill="#ea6c78"/>
                        </g>
                      </g>
                    </g>
                    <g id="Grupo_877540" data-name="Grupo 877540" transform="translate(0 153.645)">
                      <g id="Grupo_877539" data-name="Grupo 877539">
                        <g id="Grupo_877538" data-name="Grupo 877538" clip-path="url(#clip-path-13)">
                          <path id="Trazado_259109" data-name="Trazado 259109" d="M13.447,136.467,1.209,129.355,0,127.225l12.238,7.112Z" transform="translate(0 -127.225)" fill="#bf343b"/>
                        </g>
                      </g>
                    </g>
                    <g id="Grupo_877543" data-name="Grupo 877543" transform="translate(12.238 19.493)">
                      <g id="Grupo_877542" data-name="Grupo 877542">
                        <g id="Grupo_877541" data-name="Grupo 877541" clip-path="url(#clip-path-14)">
                          <path id="Trazado_259110" data-name="Trazado 259110" d="M130.787,16.141l2.1.815-16.9,33.053L88.378,72.617,67.5,109.97,38.424,128.68,11.342,159.535l-1.209-2.13,27.575-31.416,28.554-18.372,20.71-37.066,27.513-22.534Z" transform="translate(-10.134 -16.141)" fill="#bf343b"/>
                        </g>
                      </g>
                    </g>
                    <g id="Grupo_877546" data-name="Grupo 877546" transform="translate(113.866)">
                      <g id="Grupo_877545" data-name="Grupo 877545">
                        <g id="Grupo_877544" data-name="Grupo 877544" clip-path="url(#clip-path-15)">
                          <path id="Trazado_259111" data-name="Trazado 259111" d="M116.353,26.4,94.285,13.535,115.212,0Z" transform="translate(-94.286 0)" fill="#ea6c78"/>
                        </g>
                      </g>
                    </g>
                  </g>
                </g>
              </g>
            </g>
          </g>
        </g>
        <path id="Trazado_259112" data-name="Trazado 259112" d="M170.27,96.191l-.818,10.452a8.147,8.147,0,0,1-3.036,5.881c-2.581,1.948-6.227,1.895-8.873,1.984a14.647,14.647,0,0,0-1.985.159l-.8-11.905,4.685-22.806c8.119-.263,10.754,6.791,10.832,16.233" transform="translate(32.137 16.603)" fill="#419e83"/>
        <g id="Grupo_877555" data-name="Grupo 877555" transform="translate(189.681 112.388)" style="mix-blend-mode: multiply;isolation: isolate">
          <g id="Grupo_877554" data-name="Grupo 877554">
            <g id="Grupo_877553" data-name="Grupo 877553" clip-path="url(#clip-path-16)">
              <path id="Trazado_259113" data-name="Trazado 259113" d="M165.938,109.8c-2.582,1.948-6.227,1.895-8.873,1.984v-6.733l8.495-11.991Z" transform="translate(-157.064 -93.062)" fill="#e3ccb3"/>
            </g>
          </g>
        </g>
        <path id="Trazado_259114" data-name="Trazado 259114" d="M146.777,84.724l-1.459-1.577.563,2.309a.523.523,0,0,1-.135.662.674.674,0,0,1-.9-.051.767.767,0,0,1-.18-.243l-.909-1.857-1.146,1.7-1.057,1.548a14.2,14.2,0,0,1-5.416,4.4L134.18,94.26l-1.961.4.112-5.459,5.3-7.017,1.315-1.144,1.464-1.286,3.084-.235,2.563,1.828,1.675,2.6c.426.854-.42,1.372-.95.78" transform="translate(27.457 16.513)" fill="#ffb2a3"/>
        <g id="Grupo_877558" data-name="Grupo 877558" transform="translate(166.399 96.031)" opacity="0.5" style="mix-blend-mode: multiply;isolation: isolate">
          <g id="Grupo_877557" data-name="Grupo 877557">
            <g id="Grupo_877556" data-name="Grupo 877556" clip-path="url(#clip-path-17)">
              <path id="Trazado_259115" data-name="Trazado 259115" d="M145.621,84.724l-1.459-1.577.563,2.309a.523.523,0,0,1-.135.662l-.9-.051a.766.766,0,0,1-.18-.243l-.909-1.857-1.146,1.7-3.425-2.119-.248-2.5,1.464-1.286,3.084-.235,2.563,1.828,1.675,2.6c.426.854-.42,1.372-.95.78" transform="translate(-137.786 -79.518)" fill="#ffb294"/>
            </g>
          </g>
        </g>
        <path id="Trazado_259116" data-name="Trazado 259116" d="M144.5,178.991c-4.849,1.008-5.629,4.785-3.78,8.065l5.46,7.729c2.049,3.56,4.8,5.233,8.4,4.63,3.234-1.334,3.671-3.465,2.773-5.974l-.18-5.362-3.264-9.927Z" transform="translate(29.032 36.996)" fill="#282752"/>
        <path id="Trazado_259117" data-name="Trazado 259117" d="M158.755,200.952c-1.512,5.141-9.691,4.956-10.347-1.919l-2.825-19.218c0-.014-1.507-8.344-1.507-8.344l-5.489-18.912-1.19-4.949,3.878-23.888,20.343-.936s-4.209,41.965-4.223,43.606a160.891,160.891,0,0,1,1.36,34.559" transform="translate(28.533 25.499)" fill="#34559c"/>
        <g id="Grupo_877561" data-name="Grupo 877561" transform="translate(165.928 148.286)" opacity="0.5" style="mix-blend-mode: multiply;isolation: isolate">
          <g id="Grupo_877560" data-name="Grupo 877560">
            <g id="Grupo_877559" data-name="Grupo 877559" clip-path="url(#clip-path-18)">
              <path id="Trazado_259118" data-name="Trazado 259118" d="M158.755,200.952c-1.512,5.141-9.691,4.956-10.347-1.919l-2.825-19.218c0-.014-1.507-8.344-1.507-8.344l-5.489-18.912-1.19-4.949,3.878-23.888,20.343-.936s-4.209,41.965-4.223,43.606a160.891,160.891,0,0,1,1.36,34.559" transform="translate(-137.396 -122.787)" fill="#25435c"/>
            </g>
          </g>
        </g>
        <path id="Trazado_259119" data-name="Trazado 259119" d="M148.724,195.319c1.965,3.31,1.062,8.835-.1,11.339-3.424,1.287-6.29,1.543-8.282.179-6.472-.388-10.09.477-13.42-.469-3.541-1.007-5.955-2.071-7.766-5.608a3.826,3.826,0,0,1,3.146-4.976c5.375-.22,10.2-.661,12.834-1.979l4.59-8.388,8.335,6.571Z" transform="translate(24.7 38.505)" fill="#282752"/>
        <path id="Trazado_259120" data-name="Trazado 259120" d="M146.3,148.745c-.226,2-2.825,18.663-2.763,19.844,4.427,13.65,2.825,28.759,3.976,41.506-3.862,2.9-13.158,3.42-14.051-1.757L131.4,192.583c-.01-.1-.041-.319-.041-.319l-.071-.565-.791-6.122-2.373-15.006c-1.694-12.839.985-37.346,1.7-47.884l20.048-2.362a.641.641,0,0,0,.021.277.943.943,0,0,0,.041.155c.8,2.64,12.8,3.646,12.932,6.419.257,5.68-1.078,15.438-16.434,21.518-.041.021-.082.031-.123.052" transform="translate(26.491 24.987)" fill="#34559c"/>
        <g id="Grupo_877564" data-name="Grupo 877564" transform="translate(154.058 145.311)" opacity="0.5" style="mix-blend-mode: multiply;isolation: isolate">
          <g id="Grupo_877563" data-name="Grupo 877563">
            <g id="Grupo_877562" data-name="Grupo 877562" clip-path="url(#clip-path-19)">
              <path id="Trazado_259121" data-name="Trazado 259121" d="M146.423,148.693c-.072,0-.114.021-.123.052-5.741,2.084-10.734,4.857-13.014,10.044-1.735,27.97-2.147,27.97-1.89,33.742-.01-.052-.041-.268-.041-.268l-.071-.564-.791-6.122-2.373-15.006c-1.694-12.84.985-37.347,1.694-47.885l20.05-2.362a.646.646,0,0,0,.021.278.9.9,0,0,0,.041.153c.8,2.64,12.8,3.646,12.932,6.42.257,5.68-1.078,15.438-16.434,21.518" transform="translate(-127.567 -120.324)" fill="#25435c"/>
            </g>
          </g>
        </g>
        <path id="Trazado_259122" data-name="Trazado 259122" d="M144.217,93.9l.633-15.128,9.653-4.42L156.943,86.7Z" transform="translate(29.949 15.44)" fill="#ffb2a3"/>
        <path id="Trazado_259123" data-name="Trazado 259123" d="M163.718,120.025c-.31,1.606.092,4.561.606,7.25a9.624,9.624,0,0,1-4.665,10.169c-7.443,4.253-17.295,6.3-24.106,3.215a12.517,12.517,0,0,1-4.722-3.642,9.593,9.593,0,0,1-2-6.162,86.645,86.645,0,0,1,4.157-25.57,28.3,28.3,0,0,1,4.988-9.414L152.3,86.308c5.05-3.123,7.06-4.992,11.735-6.341,7-.572,9.478,10.848,6.306,20.5,0,0-5.957,16.14-6.62,19.557" transform="translate(26.753 16.602)" fill="#419e83"/>
        <path id="Trazado_259124" data-name="Trazado 259124" d="M146.857,87.5l-2.525-1.093A6.453,6.453,0,0,1,140.7,82.3c-.97-3.316-2.037-8.722-.254-12.649,2.751-6.058,6.492-7.409,12.446-5.255s8.192,6.647,6.364,13.235-3.5,5.678-3.5,5.678Z" transform="translate(28.966 13.173)" fill="#ffb2a3"/>
        <path id="Trazado_259125" data-name="Trazado 259125" d="M139.969,71.823l3.036,4.212.983,3.494L145,80.988l.455,2.133a3.552,3.552,0,0,0,3.607,2.805,14.065,14.065,0,0,0,7.855-2.726s2.378-1.548,3.326-7.567-2.489-9.481-4.1-10.376-10.188-5.043-14.761-1.081c-5.07,4.391-1.406,7.647-1.406,7.647" transform="translate(28.801 12.977)" fill="#282752"/>
        <path id="Trazado_259126" data-name="Trazado 259126" d="M143.949,74.537a1.125,1.125,0,0,1,.8.463,2.585,2.585,0,0,1,.394.861,7.5,7.5,0,0,1,.138,3.621,2.333,2.333,0,0,1-.335.883.9.9,0,0,1-1.563.011,2.582,2.582,0,0,1-.365-.839c-.289-1-1.285-5.113.931-5" transform="translate(29.601 15.478)" fill="#ffb2a3"/>
        <g id="Grupo_877567" data-name="Grupo 877567" transform="translate(155.58 121.886)" style="mix-blend-mode: multiply;isolation: isolate">
          <g id="Grupo_877566" data-name="Grupo 877566">
            <g id="Grupo_877565" data-name="Grupo 877565" clip-path="url(#clip-path-20)">
              <path id="Trazado_259127" data-name="Trazado 259127" d="M142.7,101.691c-5.835,7.547-8.356,18.924-7.143,34.61a12.531,12.531,0,0,1-4.671-3.58,9.724,9.724,0,0,1-2.052-6.306,86.7,86.7,0,0,1,4.154-25.489Z" transform="translate(-128.827 -100.927)" fill="#e3ccb3"/>
            </g>
          </g>
        </g>
        <path id="Trazado_259128" data-name="Trazado 259128" d="M139.59,94.36l-6.41,6.1,5.284-10.44c.045-2.08-2.974-3.523-3.81-2.414,0,0-14.38,12.534-13.584,21.674.742,8.52,5.813,7.248,11.324,4.1l11.553-6.5c6.526-4.381,5.124-17.629-4.356-12.52" transform="translate(25.135 18.112)" fill="#419e83"/>
        <g id="Grupo_877570" data-name="Grupo 877570" transform="translate(152.544 110.27)" style="mix-blend-mode: multiply;isolation: isolate">
          <g id="Grupo_877569" data-name="Grupo 877569">
            <g id="Grupo_877568" data-name="Grupo 877568" clip-path="url(#clip-path-21)">
              <path id="Trazado_259129" data-name="Trazado 259129" d="M132.084,99.607l-5.771,3.775,9.972-12.074Z" transform="translate(-126.313 -91.308)" fill="#e3ccb3"/>
            </g>
          </g>
        </g>
        <path id="Trazado_259130" data-name="Trazado 259130" d="M144.7,86.844l-1.624,3.493a21.79,21.79,0,0,0,13.238-4.464c2.95-2.25.687-4.471.687-4.471l-.741-.705c-.785,2.167-6.915,5.456-11.56,6.147" transform="translate(29.711 16.758)" fill="#3a7e5c"/>
        <g id="Grupo_877573" data-name="Grupo 877573" transform="translate(99.411 181.912)" style="isolation: isolate">
          <g id="Grupo_877572" data-name="Grupo 877572">
            <g id="Grupo_877571" data-name="Grupo 877571" clip-path="url(#clip-path-22)">
              <path id="Trazado_259131" data-name="Trazado 259131" d="M99.97,197.135l-.065-23.1a16.246,16.246,0,0,1,1.025-5.689l.065,23.1a16.252,16.252,0,0,0-1.025,5.691" transform="translate(-78.664 -146.952)" fill="#bf343b"/>
              <path id="Trazado_259132" data-name="Trazado 259132" d="M179.575,176.015l.065,23.1c-.018-6.524-4.06-13.038-12.132-18.169l-.065-23.1c8.072,5.131,12.114,11.646,12.132,18.171" transform="translate(-64.639 -149.133)" fill="#1f387d"/>
              <path id="Trazado_259133" data-name="Trazado 259133" d="M198.528,172.838l.065,23.1c.029,10.169-6.669,20.353-20.079,28.1l-.065-23.1c13.41-7.742,20.108-17.927,20.079-28.1" transform="translate(-62.353 -146.02)" fill="#1f387d"/>
              <path id="Trazado_259134" data-name="Trazado 259134" d="M133.529,195.258l.065,23.1-2.061,12.266-.065-23.1Z" transform="translate(-72.109 -141.364)" fill="#bf343b"/>
              <path id="Trazado_259135" data-name="Trazado 259135" d="M141.675,213.642c-14.942-1.087-28.931-5.055-39.589-11.249-16.418-9.541-23.238-23.459-18.079-36.587l20.575,3.07c-3.287,8.936,1.438,18.336,12.581,24.811,7.181,4.174,16.543,6.879,26.572,7.688Z" transform="translate(-82.316 -147.48)" fill="#ea6c78"/>
              <path id="Trazado_259136" data-name="Trazado 259136" d="M82.382,196.186l-.065-23.1c.029,10.292,6.992,20.367,19.769,27.792,10.658,6.194,24.646,10.164,39.589,11.249l.065,23.1c-14.942-1.087-28.931-5.055-39.588-11.249-12.777-7.425-19.741-17.5-19.769-27.792" transform="translate(-82.316 -145.968)" fill="#bf343b"/>
              <path id="Trazado_259137" data-name="Trazado 259137" d="M187.477,196.1l.065,23.1c-13.939,8.047-32.968,12.194-52.5,11.478l-.065-23.1c19.533.715,38.562-3.431,52.5-11.479" transform="translate(-71.381 -141.189)" fill="#1f387d"/>
              <path id="Trazado_259138" data-name="Trazado 259138" d="M187.477,205.545c-13.939,8.048-32.968,12.194-52.5,11.479l2.052-12.263c13.215.377,26.043-2.47,35.478-7.916,17.829-10.294,18.408-26.869,1.681-37.5l15.087-8.711c24.977,15.448,24.344,39.822-1.8,54.914" transform="translate(-71.381 -150.631)" fill="#34559c"/>
              <path id="Trazado_259139" data-name="Trazado 259139" d="M187.477,205.545c-13.939,8.048-32.968,12.194-52.5,11.479l2.052-12.263c13.215.377,26.043-2.47,35.478-7.916,17.829-10.294,18.408-26.869,1.681-37.5l15.087-8.711c24.977,15.448,24.344,39.822-1.8,54.914" transform="translate(-71.381 -150.631)" fill="#34559c"/>
            </g>
          </g>
        </g>
      </g>
    </g>
  </g>
</svg>
