<svg xmlns="http://www.w3.org/2000/svg" width="820" height="308.952" viewBox="0 0 820 308.952">
  <g id="Grupo_877629" data-name="Grupo 877629" transform="translate(-390 -1437)">
    <g id="Grupo_872767" data-name="Grupo 872767" transform="translate(1314.707 -305.666) rotate(45)">
      <g id="Grupo_871598" data-name="Grupo 871598" transform="translate(1041.146 1590.455) rotate(180)">
        <path id="Trazado_213857" data-name="Trazado 213857" d="M15.039,0,12.184,2.854,20.6,11.266l-8.411,8.411,2.855,2.854L26.3,11.266Z" transform="translate(-5.158)" fill="#18b8c4"/>
        <path id="Trazado_213858" data-name="Trazado 213858" d="M0,9.774l4.421,4.421L0,18.615l2.854,2.854,7.276-7.275L2.854,6.92Z" transform="translate(0 -2.929)" fill="#18b8c4"/>
      </g>
      <g id="Grupo_872766" data-name="Grupo 872766" transform="translate(1130 1567.924)">
        <path id="Trazado_213857-2" data-name="Trazado 213857" d="M2.855,22.531,0,19.677l8.411-8.412L0,2.854,2.855,0,14.12,11.266Z" transform="translate(7.026 0)" fill="#18b8c4"/>
        <path id="Trazado_213858-2" data-name="Trazado 213858" d="M0,11.7,4.421,7.275,0,2.854,2.854,0,10.13,7.275,2.854,14.55Z" transform="translate(0 3.991)" fill="#18b8c4"/>
      </g>
      <path id="Trazado_217429" data-name="Trazado 217429" d="M-7416.84-5225h100.69" transform="translate(8451.732 6804.189)" fill="none" stroke="#18b8c4" stroke-width="2"/>
    </g>
    <g id="Grupo_872768" data-name="Grupo 872768" transform="translate(688.667 1540.204) rotate(135)">
      <g id="Grupo_871598-2" data-name="Grupo 871598" transform="translate(21.147 22.531) rotate(180)">
        <path id="Trazado_213857-3" data-name="Trazado 213857" d="M2.855,22.531,0,19.677l8.411-8.412L0,2.854,2.855,0,14.12,11.266Z" transform="translate(7.026 0)" fill="#18b8c4"/>
        <path id="Trazado_213858-3" data-name="Trazado 213858" d="M0,11.7,4.421,7.275,0,2.854,2.854,0,10.13,7.275,2.854,14.55Z" transform="translate(0 3.991)" fill="#18b8c4"/>
      </g>
      <g id="Grupo_872766-2" data-name="Grupo 872766" transform="translate(110 0)">
        <path id="Trazado_213857-4" data-name="Trazado 213857" d="M2.855,0,0,2.854l8.411,8.412L0,19.677l2.855,2.854L14.12,11.266Z" transform="translate(7.026)" fill="#18b8c4"/>
        <path id="Trazado_213858-4" data-name="Trazado 213858" d="M0,2.854,4.421,7.275,0,11.7,2.854,14.55,10.13,7.275,2.854,0Z" transform="translate(0 3.99)" fill="#18b8c4"/>
      </g>
      <path id="Trazado_217429-2" data-name="Trazado 217429" d="M0,0H100.69" transform="translate(14.892 11.266)" fill="none" stroke="#18b8c4" stroke-width="2"/>
    </g>
    <g id="Grupo_872769" data-name="Grupo 872769" transform="translate(865.574 1716.212) rotate(180)">
      <g id="Grupo_871598-3" data-name="Grupo 871598" transform="translate(21.147 22.531) rotate(180)">
        <path id="Trazado_213857-5" data-name="Trazado 213857" d="M2.855,22.531,0,19.677l8.411-8.412L0,2.854,2.855,0,14.12,11.266Z" transform="translate(7.026 0)" fill="#18b8c4"/>
        <path id="Trazado_213858-5" data-name="Trazado 213858" d="M0,11.7,4.421,7.275,0,2.854,2.854,0,10.13,7.275,2.854,14.55Z" transform="translate(0 3.991)" fill="#18b8c4"/>
      </g>
      <g id="Grupo_872766-3" data-name="Grupo 872766" transform="translate(110 0)">
        <path id="Trazado_213857-6" data-name="Trazado 213857" d="M2.855,0,0,2.854l8.411,8.412L0,19.677l2.855,2.854L14.12,11.266Z" transform="translate(7.026)" fill="#18b8c4"/>
        <path id="Trazado_213858-6" data-name="Trazado 213858" d="M0,2.854,4.421,7.275,0,11.7,2.854,14.55,10.13,7.275,2.854,0Z" transform="translate(0 3.99)" fill="#18b8c4"/>
      </g>
      <path id="Trazado_217429-3" data-name="Trazado 217429" d="M0,0H100.69" transform="translate(14.892 11.266)" fill="none" stroke="#18b8c4" stroke-width="2"/>
    </g>
    <g id="Grupo_872764" data-name="Grupo 872764" transform="translate(0 92.939)">
      <g id="Grupo_872760" data-name="Grupo 872760" transform="translate(915 1571)">
        <path id="Sustracción_4" data-name="Sustracción 4" d="M261.713,81.99H0V0H3.2c.027,2.571.1,4.374.1,4.39H32.787L34.61,0H291.543V68.648H266.292l-4.579,13.341Z" transform="translate(3.457 0.023)" fill="#e1efe3"/>
        <path id="Trazado_213850" data-name="Trazado 213850" d="M-.832,1.311H26.013V9.783H-4Z" transform="translate(268.7 72.23)" fill="#359547" opacity="0.5"/>
        <path id="Trazado_213855" data-name="Trazado 213855" d="M0,0,3.93,5.24V42.573H0Z" transform="translate(3.93 45.848) rotate(-180)" fill="#359547"/>
        <path id="Trazado_213856" data-name="Trazado 213856" d="M0,41.918l3.93-5.24V0H0Z" transform="translate(0 3.93) rotate(-90)" fill="#359547"/>
      </g>
      <path id="Trazado_263321" data-name="Trazado 263321" d="M19.879,14.667a4.673,4.673,0,0,1-.721,2.36,4.35,4.35,0,0,1-1.85,1.586,6.3,6.3,0,0,1-2.72.563,5.025,5.025,0,0,1-3.973-1.644,6.786,6.786,0,0,1-1.45-4.641v-.633A7.746,7.746,0,0,1,9.82,8.967a4.961,4.961,0,0,1,1.885-2.18,5.26,5.26,0,0,1,2.848-.769A5.516,5.516,0,0,1,18.3,7.245a4.844,4.844,0,0,1,1.608,3.379H16.83a2.292,2.292,0,0,0-.589-1.679,2.422,2.422,0,0,0-1.687-.51,1.843,1.843,0,0,0-1.687.861,5.536,5.536,0,0,0-.562,2.751v.905a6.126,6.126,0,0,0,.514,2.927,1.882,1.882,0,0,0,1.771.879,2.369,2.369,0,0,0,1.626-.5,2.126,2.126,0,0,0,.6-1.591Zm.949-.51a5.613,5.613,0,0,1,.554-2.536,3.96,3.96,0,0,1,1.591-1.709,4.791,4.791,0,0,1,2.435-.6,4.373,4.373,0,0,1,3.366,1.323,5.076,5.076,0,0,1,1.23,3.6v.105a4.925,4.925,0,0,1-1.235,3.529,4.384,4.384,0,0,1-3.344,1.305,4.434,4.434,0,0,1-3.261-1.217,4.761,4.761,0,0,1-1.327-3.3Zm2.962.185a3.538,3.538,0,0,0,.413,1.934,1.376,1.376,0,0,0,1.222.615q1.582,0,1.617-2.435v-.3q0-2.558-1.635-2.558-1.485,0-1.608,2.206ZM34.03,9.49l.1,1.116a3.225,3.225,0,0,1,2.716-1.292,2.713,2.713,0,0,1,2.219.888,4.226,4.226,0,0,1,.76,2.672V19H36.851V13a1.6,1.6,0,0,0-.29-1.059,1.342,1.342,0,0,0-1.055-.338,1.413,1.413,0,0,0-1.292.686V19H31.252V9.49ZM44.911,7.126V9.49h1.564v2.057H44.911V15.9a1.111,1.111,0,0,0,.193.747,1.037,1.037,0,0,0,.765.211,4.345,4.345,0,0,0,.738-.053v2.118a5.466,5.466,0,0,1-1.67.255,3.1,3.1,0,0,1-2.259-.721,2.954,2.954,0,0,1-.729-2.188v-4.72H40.736V9.49h1.213V7.126Zm8.481,5.045-.976-.07a1.752,1.752,0,0,0-1.793.879V19H47.662V9.49h2.777l.1,1.222a2.294,2.294,0,0,1,2.083-1.4,2.888,2.888,0,0,1,.826.105ZM57.584,19H54.614V9.49h2.971ZM54.438,7.038A1.322,1.322,0,0,1,54.9,6a1.943,1.943,0,0,1,2.373,0,1.322,1.322,0,0,1,.457,1.037,1.322,1.322,0,0,1-.457,1.037,1.943,1.943,0,0,1-2.373,0A1.322,1.322,0,0,1,54.438,7.038Zm13.8,7.286a5.8,5.8,0,0,1-.967,3.595,3.238,3.238,0,0,1-2.725,1.257,2.81,2.81,0,0,1-2.338-1.151L62.084,19H59.43V5.5h2.962v4.755a2.711,2.711,0,0,1,2.136-.94,3.239,3.239,0,0,1,2.742,1.274,5.826,5.826,0,0,1,.967,3.586Zm-2.971-.189a3.866,3.866,0,0,0-.365-1.952,1.229,1.229,0,0,0-1.121-.584,1.418,1.418,0,0,0-1.389.763v3.773a1.426,1.426,0,0,0,1.406.755,1.258,1.258,0,0,0,1.327-1.018A7.309,7.309,0,0,0,65.266,14.135Zm9.94,3.836a3.054,3.054,0,0,1-2.54,1.2,3,3,0,0,1-2.369-.91,3.826,3.826,0,0,1-.8-2.615V9.49h2.962v6.179a1.065,1.065,0,0,0,1.187,1.222,1.548,1.548,0,0,0,1.45-.729V9.49h2.979V19H75.294Zm8.508-1.081a1.317,1.317,0,0,0,.967-.338,1.241,1.241,0,0,0,.334-.945h2.777a3.288,3.288,0,0,1-1.121,2.566,4.168,4.168,0,0,1-2.887,1,4.22,4.22,0,0,1-3.27-1.3,5.125,5.125,0,0,1-1.2-3.6v-.123a5.792,5.792,0,0,1,.532-2.544,3.872,3.872,0,0,1,1.534-1.7,4.573,4.573,0,0,1,2.373-.593A4.116,4.116,0,0,1,86.7,10.343a3.647,3.647,0,0,1,1.09,2.786H85.015A1.626,1.626,0,0,0,84.655,12a1.244,1.244,0,0,0-.967-.4q-1.151,0-1.345,1.468a10.357,10.357,0,0,0-.062,1.283,4.068,4.068,0,0,0,.343,1.986A1.187,1.187,0,0,0,83.714,16.891ZM92.169,19H89.2V9.49h2.971ZM89.023,7.038A1.322,1.322,0,0,1,89.48,6a1.943,1.943,0,0,1,2.373,0,1.322,1.322,0,0,1,.457,1.037,1.322,1.322,0,0,1-.457,1.037,1.943,1.943,0,0,1-2.373,0A1.322,1.322,0,0,1,89.023,7.038Zm4.6,7.119a5.613,5.613,0,0,1,.554-2.536,3.96,3.96,0,0,1,1.591-1.709,4.791,4.791,0,0,1,2.435-.6,4.373,4.373,0,0,1,3.366,1.323,5.076,5.076,0,0,1,1.23,3.6v.105a4.925,4.925,0,0,1-1.235,3.529,4.384,4.384,0,0,1-3.344,1.305,4.434,4.434,0,0,1-3.261-1.217,4.761,4.761,0,0,1-1.327-3.3Zm2.962.185a3.538,3.538,0,0,0,.413,1.934,1.376,1.376,0,0,0,1.222.615q1.582,0,1.617-2.435v-.3q0-2.558-1.635-2.558-1.485,0-1.608,2.206ZM106.821,9.49l.1,1.116a3.225,3.225,0,0,1,2.716-1.292,2.713,2.713,0,0,1,2.219.888,4.226,4.226,0,0,1,.76,2.672V19h-2.971V13a1.6,1.6,0,0,0-.29-1.059A1.342,1.342,0,0,0,108.3,11.6a1.413,1.413,0,0,0-1.292.686V19h-2.962V9.49Zm12.032,9.686a4.889,4.889,0,0,1-3.542-1.305,4.507,4.507,0,0,1-1.354-3.4v-.246a5.84,5.84,0,0,1,.541-2.575,3.955,3.955,0,0,1,1.578-1.727,4.763,4.763,0,0,1,2.461-.611,4.117,4.117,0,0,1,3.164,1.244,4.887,4.887,0,0,1,1.16,3.467v1.151h-5.889a2.135,2.135,0,0,0,.694,1.257,2.066,2.066,0,0,0,1.389.457,2.662,2.662,0,0,0,2.2-.984l1.354,1.6a3.784,3.784,0,0,1-1.569,1.217A5.3,5.3,0,0,1,118.853,19.176Zm-.334-7.576q-1.3,0-1.547,1.723h2.988v-.229a1.467,1.467,0,0,0-.36-1.1A1.434,1.434,0,0,0,118.519,11.6Zm10.512,4.729a.684.684,0,0,0-.4-.606,6.016,6.016,0,0,0-1.5-.475A6.853,6.853,0,0,1,125.3,14.6a3.062,3.062,0,0,1-1.1-.971,2.319,2.319,0,0,1-.378-1.31,2.628,2.628,0,0,1,1.081-2.158,4.453,4.453,0,0,1,2.83-.848,4.934,4.934,0,0,1,3.023.853,2.666,2.666,0,0,1,1.143,2.241h-2.971q0-1.143-1.2-1.143a1.194,1.194,0,0,0-.782.259.8.8,0,0,0-.316.646.737.737,0,0,0,.387.642,3.654,3.654,0,0,0,1.235.4,10.671,10.671,0,0,1,1.49.378,2.706,2.706,0,0,1,2.145,2.646,2.491,2.491,0,0,1-1.156,2.118,5.068,5.068,0,0,1-2.993.817,5.172,5.172,0,0,1-2.18-.439,3.645,3.645,0,0,1-1.494-1.2,2.707,2.707,0,0,1-.536-1.591H126.3a1.145,1.145,0,0,0,.439.962,1.808,1.808,0,0,0,1.081.3,1.422,1.422,0,0,0,.91-.246A.787.787,0,0,0,129.031,16.328Z" transform="translate(992 1601)" fill="#2b7e3b"/>
    </g>
    <g id="Grupo_872763" data-name="Grupo 872763" transform="translate(-262 -280.584)">
      <g id="Grupo_872761" data-name="Grupo 872761" transform="translate(915 1717.584)">
        <g id="Grupo_871603" data-name="Grupo 871603" transform="translate(0)">
          <g id="Grupo_870556" data-name="Grupo 870556" transform="translate(0)">
            <g id="Grupo_870548" data-name="Grupo 870548" transform="translate(3.457 0.022)">
              <path id="Sustracción_4-2" data-name="Sustracción 4" d="M261.713,81.99H0V0H3.2c.027,2.571.1,4.374.1,4.39H32.787L34.61,0H291.543V68.648H266.292l-4.579,13.341Z" transform="translate(0 0)" fill="#eaeff3"/>
              <path id="Trazado_213850-2" data-name="Trazado 213850" d="M-.832,1.311H26.013V9.783H-4Z" transform="translate(265.243 72.207)" fill="#03386e" opacity="0.5"/>
            </g>
            <g id="Grupo_870549" data-name="Grupo 870549" transform="translate(41.918 45.848) rotate(-180)">
              <path id="Trazado_213855-2" data-name="Trazado 213855" d="M0,0,3.93,5.24V42.573H0Z" transform="translate(37.988 0)" fill="#03386e"/>
              <path id="Trazado_213856-2" data-name="Trazado 213856" d="M0,41.918l3.93-5.24V0H0Z" transform="translate(41.918 41.918) rotate(90)" fill="#03386e"/>
            </g>
          </g>
        </g>
      </g>
      <path id="Trazado_263319" data-name="Trazado 263319" d="M32.013,19H28.937V6.2h3.076ZM36.82,9.49l.1,1.116a3.27,3.27,0,0,1,2.716-1.292,2.407,2.407,0,0,1,2.435,1.433,3.165,3.165,0,0,1,2.795-1.433q2.892,0,2.971,3.5V19H44.862V13a1.813,1.813,0,0,0-.246-1.063,1.048,1.048,0,0,0-.9-.334,1.4,1.4,0,0,0-1.31.782l.009.123V19H39.448V13.015a1.906,1.906,0,0,0-.237-1.081,1.045,1.045,0,0,0-.905-.334,1.42,1.42,0,0,0-1.3.782V19H34.043V9.49Zm21.533,4.825a5.735,5.735,0,0,1-1,3.538,3.2,3.2,0,0,1-2.694,1.323,2.742,2.742,0,0,1-2.153-.958v4.438H49.547V9.49h2.769l.088.879a2.742,2.742,0,0,1,2.241-1.055,3.224,3.224,0,0,1,2.733,1.3,5.805,5.805,0,0,1,.976,3.564Zm-2.962-.185q0-2.531-1.477-2.531a1.394,1.394,0,0,0-1.406.756V16.1a1.439,1.439,0,0,0,1.424.791q1.415,0,1.459-2.443Zm9.932,3.841a3.054,3.054,0,0,1-2.54,1.2,3,3,0,0,1-2.369-.91,3.826,3.826,0,0,1-.8-2.615V9.49h2.962v6.179a1.065,1.065,0,0,0,1.187,1.222,1.548,1.548,0,0,0,1.45-.729V9.49h2.979V19H65.411Zm9.088,1.2a4.889,4.889,0,0,1-3.542-1.305,4.507,4.507,0,0,1-1.354-3.4v-.246a5.84,5.84,0,0,1,.541-2.575,3.955,3.955,0,0,1,1.578-1.727,4.763,4.763,0,0,1,2.461-.611,4.117,4.117,0,0,1,3.164,1.244,4.887,4.887,0,0,1,1.16,3.467v1.151H72.53a2.135,2.135,0,0,0,.694,1.257,2.066,2.066,0,0,0,1.389.457,2.662,2.662,0,0,0,2.2-.984l1.354,1.6A3.784,3.784,0,0,1,76.6,18.723,5.3,5.3,0,0,1,74.411,19.176ZM74.077,11.6q-1.3,0-1.547,1.723h2.988v-.229a1.467,1.467,0,0,0-.36-1.1A1.434,1.434,0,0,0,74.077,11.6Zm10.512,4.729a.684.684,0,0,0-.4-.606,6.016,6.016,0,0,0-1.5-.475,6.853,6.853,0,0,1-1.828-.646,3.062,3.062,0,0,1-1.1-.971,2.319,2.319,0,0,1-.378-1.31,2.628,2.628,0,0,1,1.081-2.158,4.453,4.453,0,0,1,2.83-.848,4.934,4.934,0,0,1,3.023.853,2.666,2.666,0,0,1,1.143,2.241H84.492q0-1.143-1.2-1.143a1.194,1.194,0,0,0-.782.259.8.8,0,0,0-.316.646.737.737,0,0,0,.387.642,3.654,3.654,0,0,0,1.235.4,10.671,10.671,0,0,1,1.49.378,2.706,2.706,0,0,1,2.145,2.646,2.491,2.491,0,0,1-1.156,2.118,5.068,5.068,0,0,1-2.993.817,5.172,5.172,0,0,1-2.18-.439,3.645,3.645,0,0,1-1.494-1.2,2.707,2.707,0,0,1-.536-1.591h2.769a1.145,1.145,0,0,0,.439.962,1.808,1.808,0,0,0,1.081.3,1.422,1.422,0,0,0,.91-.246A.787.787,0,0,0,84.589,16.328Zm7.69-9.2V9.49h1.564v2.057H92.279V15.9a1.111,1.111,0,0,0,.193.747,1.037,1.037,0,0,0,.765.211,4.345,4.345,0,0,0,.738-.053v2.118a5.466,5.466,0,0,1-1.67.255,3.1,3.1,0,0,1-2.259-.721,2.954,2.954,0,0,1-.729-2.188v-4.72H88.1V9.49h1.213V7.126Zm2.092,7.031a5.613,5.613,0,0,1,.554-2.536,3.96,3.96,0,0,1,1.591-1.709,4.791,4.791,0,0,1,2.435-.6,4.373,4.373,0,0,1,3.366,1.323,5.076,5.076,0,0,1,1.23,3.6v.105a4.925,4.925,0,0,1-1.235,3.529,4.384,4.384,0,0,1-3.344,1.305,4.434,4.434,0,0,1-3.261-1.217,4.761,4.761,0,0,1-1.327-3.3Zm2.962.185a3.538,3.538,0,0,0,.413,1.934,1.376,1.376,0,0,0,1.222.615q1.582,0,1.617-2.435v-.3q0-2.558-1.635-2.558-1.485,0-1.608,2.206Zm12.5,1.986a.684.684,0,0,0-.4-.606,6.016,6.016,0,0,0-1.5-.475A6.853,6.853,0,0,1,106.1,14.6a3.062,3.062,0,0,1-1.1-.971,2.319,2.319,0,0,1-.378-1.31,2.628,2.628,0,0,1,1.081-2.158,4.453,4.453,0,0,1,2.83-.848,4.934,4.934,0,0,1,3.023.853,2.666,2.666,0,0,1,1.143,2.241h-2.971q0-1.143-1.2-1.143a1.194,1.194,0,0,0-.782.259.8.8,0,0,0-.316.646.737.737,0,0,0,.387.642,3.654,3.654,0,0,0,1.235.4,10.671,10.671,0,0,1,1.49.378,2.706,2.706,0,0,1,2.145,2.646,2.491,2.491,0,0,1-1.156,2.118,5.068,5.068,0,0,1-2.993.817,5.172,5.172,0,0,1-2.18-.439,3.645,3.645,0,0,1-1.494-1.2,2.707,2.707,0,0,1-.536-1.591H107.1a1.145,1.145,0,0,0,.439.962,1.808,1.808,0,0,0,1.081.3,1.422,1.422,0,0,0,.91-.246A.787.787,0,0,0,109.831,16.328Z" transform="translate(992 1748)" fill="#03386e"/>
    </g>
    <g id="Grupo_872765" data-name="Grupo 872765" transform="translate(-525 -158.818)">
      <g id="Grupo_877628" data-name="Grupo 877628">
        <g id="Grupo_872762" data-name="Grupo 872762" transform="translate(915 1822.758)">
          <g id="Grupo_870556-2" data-name="Grupo 870556" transform="translate(0)">
            <g id="Grupo_870548-2" data-name="Grupo 870548" transform="translate(3.457 0.022)">
              <path id="Sustracción_4-3" data-name="Sustracción 4" d="M261.713,81.99H0V0H3.2c.027,2.571.1,4.374.1,4.39H32.787L34.61,0H291.543V68.648H266.292l-4.579,13.341Z" transform="translate(0 0)" fill="#e1fbff"/>
              <path id="Trazado_213850-3" data-name="Trazado 213850" d="M-.832,1.311H26.013V9.783H-4Z" transform="translate(265.244 72.207)" fill="#3ae3fe" opacity="0.5"/>
            </g>
            <g id="Grupo_870549-2" data-name="Grupo 870549" transform="translate(41.918 45.848) rotate(-180)">
              <path id="Trazado_213855-3" data-name="Trazado 213855" d="M0,0,3.93,5.24V42.573H0Z" transform="translate(37.988 0)" fill="#3ae3fe"/>
              <path id="Trazado_213856-3" data-name="Trazado 213856" d="M0,41.918l3.93-5.24V0H0Z" transform="translate(41.918 41.918) rotate(90)" fill="#3ae3fe"/>
            </g>
          </g>
        </g>
        <path id="Trazado_263322" data-name="Trazado 263322" d="M57.8,8.585H53.963V19H50.878V8.585H47.108V6.2H57.8ZM62.849,19a3.344,3.344,0,0,1-.281-.853,2.754,2.754,0,0,1-2.285,1.028A3.374,3.374,0,0,1,58,18.363a2.588,2.588,0,0,1-.94-2.043A2.66,2.66,0,0,1,58.2,13.981a5.821,5.821,0,0,1,3.322-.791h.914v-.5q0-1.316-1.134-1.316a.927.927,0,0,0-1.055,1.042H57.286a2.655,2.655,0,0,1,1.173-2.239,4.931,4.931,0,0,1,2.993-.86,4.323,4.323,0,0,1,2.874.888,3.086,3.086,0,0,1,1.081,2.435v4.21a4.311,4.311,0,0,0,.4,2V19Zm-1.854-1.934a1.652,1.652,0,0,0,.918-.237,1.487,1.487,0,0,0,.523-.536V14.772h-.861q-1.547,0-1.547,1.389a.848.848,0,0,0,.272.655A.986.986,0,0,0,60.995,17.066Zm11.03-.738a.684.684,0,0,0-.4-.606,6.016,6.016,0,0,0-1.5-.475A6.853,6.853,0,0,1,68.3,14.6a3.062,3.062,0,0,1-1.1-.971,2.319,2.319,0,0,1-.378-1.31A2.628,2.628,0,0,1,67.9,10.163a4.453,4.453,0,0,1,2.83-.848,4.934,4.934,0,0,1,3.023.853A2.666,2.666,0,0,1,74.9,12.408H71.928q0-1.143-1.2-1.143a1.194,1.194,0,0,0-.782.259.8.8,0,0,0-.316.646.737.737,0,0,0,.387.642,3.654,3.654,0,0,0,1.235.4,10.671,10.671,0,0,1,1.49.378,2.706,2.706,0,0,1,2.145,2.646,2.491,2.491,0,0,1-1.156,2.118,5.068,5.068,0,0,1-2.993.817,5.172,5.172,0,0,1-2.18-.439,3.645,3.645,0,0,1-1.494-1.2,2.707,2.707,0,0,1-.536-1.591h2.769a1.145,1.145,0,0,0,.439.962,1.808,1.808,0,0,0,1.081.3,1.422,1.422,0,0,0,.91-.246A.787.787,0,0,0,72.025,16.328ZM81.623,19a3.344,3.344,0,0,1-.281-.853,2.754,2.754,0,0,1-2.285,1.028,3.374,3.374,0,0,1-2.285-.813,2.588,2.588,0,0,1-.94-2.043,2.66,2.66,0,0,1,1.143-2.338A5.821,5.821,0,0,1,80.3,13.19h.914v-.5q0-1.316-1.134-1.316a.927.927,0,0,0-1.055,1.042H76.059a2.655,2.655,0,0,1,1.173-2.239,4.931,4.931,0,0,1,2.993-.86A4.323,4.323,0,0,1,83.1,10.2a3.086,3.086,0,0,1,1.081,2.435v4.21a4.311,4.311,0,0,0,.4,2V19Zm-1.854-1.934a1.652,1.652,0,0,0,.918-.237,1.487,1.487,0,0,0,.523-.536V14.772h-.861q-1.547,0-1.547,1.389a.848.848,0,0,0,.272.655A.986.986,0,0,0,79.768,17.066Zm11.03-.738a.684.684,0,0,0-.4-.606,6.016,6.016,0,0,0-1.5-.475,6.853,6.853,0,0,1-1.828-.646,3.062,3.062,0,0,1-1.1-.971,2.319,2.319,0,0,1-.378-1.31,2.628,2.628,0,0,1,1.081-2.158,4.453,4.453,0,0,1,2.83-.848,4.934,4.934,0,0,1,3.023.853,2.666,2.666,0,0,1,1.143,2.241H90.7q0-1.143-1.2-1.143a1.194,1.194,0,0,0-.782.259.8.8,0,0,0-.316.646.737.737,0,0,0,.387.642,3.654,3.654,0,0,0,1.235.4,10.671,10.671,0,0,1,1.49.378,2.706,2.706,0,0,1,2.145,2.646A2.491,2.491,0,0,1,92.5,18.358a5.068,5.068,0,0,1-2.993.817,5.172,5.172,0,0,1-2.18-.439,3.645,3.645,0,0,1-1.494-1.2A2.707,2.707,0,0,1,85.3,15.95h2.769a1.145,1.145,0,0,0,.439.962,1.808,1.808,0,0,0,1.081.3,1.422,1.422,0,0,0,.91-.246A.787.787,0,0,0,90.8,16.328Z" transform="translate(992 1853)" fill="#145190"/>
      </g>
    </g>
    <g id="Rectángulo_291275" data-name="Rectángulo 291275" transform="translate(725 1565.416)" fill="#fef5e5" stroke="#f3c26b" stroke-width="2">
      <rect width="150" height="75" rx="15" stroke="none"/>
      <rect x="1" y="1" width="148" height="73" rx="14" fill="none"/>
    </g>
    <path id="Trazado_263320" data-name="Trazado 263320" d="M20.323,8.339H16.4V19H13.767V8.339H9.9V6.2H20.323Zm6.24,5.977h-2.1V19H21.826V6.2h4.755a5.375,5.375,0,0,1,3.5,1.011,3.488,3.488,0,0,1,1.23,2.856,3.937,3.937,0,0,1-.567,2.184,3.866,3.866,0,0,1-1.718,1.393l2.769,5.229V19h-2.83Zm-2.1-2.136H26.59a2.178,2.178,0,0,0,1.538-.505,1.806,1.806,0,0,0,.545-1.393,1.933,1.933,0,0,0-.514-1.424,2.137,2.137,0,0,0-1.578-.519H24.463ZM36.117,19H33.48V6.2h2.637Zm2.443,0V6.2h4.482a5.886,5.886,0,0,1,3.533.892,3.05,3.05,0,0,1,1.2,2.615,2.891,2.891,0,0,1-.483,1.657,2.792,2.792,0,0,1-1.345,1.05,2.7,2.7,0,0,1,1.551.993,2.936,2.936,0,0,1,.567,1.828,3.377,3.377,0,0,1-1.178,2.795A5.3,5.3,0,0,1,43.535,19ZM41.2,13.428v3.454h2.259a2.18,2.18,0,0,0,1.455-.444,1.522,1.522,0,0,0,.523-1.226,1.607,1.607,0,0,0-1.819-1.784Zm0-1.863h1.951q2-.035,2-1.591a1.47,1.47,0,0,0-.505-1.252,2.658,2.658,0,0,0-1.6-.382H41.2ZM59.733,6.2v8.429a4.315,4.315,0,0,1-1.314,3.322,5.066,5.066,0,0,1-3.59,1.222,5.123,5.123,0,0,1-3.56-1.187,4.242,4.242,0,0,1-1.345-3.261V6.2h2.637v8.446a2.438,2.438,0,0,0,.6,1.833,2.311,2.311,0,0,0,1.666.576q2.224,0,2.259-2.338V6.2ZM71.528,8.339h-3.92V19H64.972V8.339H61.1V6.2H71.528ZM83.3,12.892a7.725,7.725,0,0,1-.668,3.313,5.03,5.03,0,0,1-1.912,2.2,5.649,5.649,0,0,1-5.691.009,5.08,5.08,0,0,1-1.934-2.184,7.5,7.5,0,0,1-.694-3.265v-.633A7.685,7.685,0,0,1,73.08,9,5.072,5.072,0,0,1,75,6.8a5.64,5.64,0,0,1,5.687,0A5.072,5.072,0,0,1,82.616,9,7.663,7.663,0,0,1,83.3,12.32Zm-2.672-.58A5.385,5.385,0,0,0,79.9,9.253a2.546,2.546,0,0,0-4.1-.013,5.324,5.324,0,0,0-.729,3.028v.624a5.453,5.453,0,0,0,.721,3.041,2.524,2.524,0,0,0,4.113.04,5.421,5.421,0,0,0,.721-3.037Zm11.224,3.331a1.353,1.353,0,0,0-.527-1.147,6.917,6.917,0,0,0-1.9-.844,13.458,13.458,0,0,1-2.171-.875A3.547,3.547,0,0,1,85.072,9.6a3.09,3.09,0,0,1,.584-1.85,3.812,3.812,0,0,1,1.679-1.27,6.318,6.318,0,0,1,2.457-.457,5.751,5.751,0,0,1,2.443.5,3.891,3.891,0,0,1,1.666,1.4,3.668,3.668,0,0,1,.593,2.057H91.857A1.726,1.726,0,0,0,91.3,8.616a2.276,2.276,0,0,0-1.556-.488,2.432,2.432,0,0,0-1.5.409,1.289,1.289,0,0,0-.536,1.077,1.235,1.235,0,0,0,.628,1.046,7.1,7.1,0,0,0,1.85.791,7.994,7.994,0,0,1,3.278,1.679,3.343,3.343,0,0,1,1.028,2.5,3.08,3.08,0,0,1-1.257,2.606,5.5,5.5,0,0,1-3.384.945,6.534,6.534,0,0,1-2.689-.541,4.256,4.256,0,0,1-1.85-1.481,3.793,3.793,0,0,1-.637-2.18h2.646q0,2.118,2.531,2.118a2.462,2.462,0,0,0,1.468-.382A1.244,1.244,0,0,0,91.849,15.643Zm16.611-2.188H103.4v3.428h5.941V19h-8.578V6.2h8.561V8.339H103.4v3.05h5.063ZM121.292,19h-2.637l-5.133-8.42V19h-2.637V6.2h2.637l5.142,8.438V6.2h2.628ZM31.973,39.737a4.528,4.528,0,0,1-1.525,3.252,5.355,5.355,0,0,1-3.625,1.187,4.816,4.816,0,0,1-3.872-1.657,6.793,6.793,0,0,1-1.411-4.548v-.782a7.671,7.671,0,0,1,.65-3.252,4.874,4.874,0,0,1,1.859-2.158,5.207,5.207,0,0,1,2.808-.751,5.217,5.217,0,0,1,3.568,1.187,4.866,4.866,0,0,1,1.564,3.331H29.354a2.673,2.673,0,0,0-.69-1.8,2.555,2.555,0,0,0-1.806-.558,2.24,2.24,0,0,0-1.973.945,5.3,5.3,0,0,0-.672,2.931v.967a5.667,5.667,0,0,0,.628,3.032,2.2,2.2,0,0,0,1.982.958,2.6,2.6,0,0,0,1.824-.558,2.521,2.521,0,0,0,.69-1.727Zm12.243-1.846a7.725,7.725,0,0,1-.668,3.313,5.03,5.03,0,0,1-1.912,2.2,5.649,5.649,0,0,1-5.691.009,5.08,5.08,0,0,1-1.934-2.184,7.5,7.5,0,0,1-.694-3.265v-.633A7.685,7.685,0,0,1,34,34,5.072,5.072,0,0,1,35.924,31.8a5.64,5.64,0,0,1,5.687,0A5.072,5.072,0,0,1,43.535,34a7.663,7.663,0,0,1,.681,3.318Zm-2.672-.58a5.385,5.385,0,0,0-.721-3.059,2.546,2.546,0,0,0-4.1-.013,5.324,5.324,0,0,0-.729,3.028v.624a5.453,5.453,0,0,0,.721,3.041,2.524,2.524,0,0,0,4.113.04,5.421,5.421,0,0,0,.721-3.037Zm7.225,4.57h5.6V44H46.132V31.2h2.637Zm17.06-3.99a7.725,7.725,0,0,1-.668,3.313,5.03,5.03,0,0,1-1.912,2.2,5.649,5.649,0,0,1-5.691.009,5.08,5.08,0,0,1-1.934-2.184,7.5,7.5,0,0,1-.694-3.265v-.633A7.685,7.685,0,0,1,55.611,34,5.072,5.072,0,0,1,57.536,31.8a5.64,5.64,0,0,1,5.687,0A5.072,5.072,0,0,1,65.147,34a7.663,7.663,0,0,1,.681,3.318Zm-2.672-.58a5.385,5.385,0,0,0-.721-3.059,2.546,2.546,0,0,0-4.1-.013,5.324,5.324,0,0,0-.729,3.028v.624a5.453,5.453,0,0,0,.721,3.041,2.524,2.524,0,0,0,4.113.04,5.421,5.421,0,0,0,.721-3.037ZM71.19,31.2l3.287,9.281,3.27-9.281h3.463V44H78.564V40.5l.264-6.038L75.374,44H73.563l-3.445-9.527.264,6.029V44H67.745V31.2ZM83.512,44V31.2h4.482a5.886,5.886,0,0,1,3.533.892,3.05,3.05,0,0,1,1.2,2.615,2.891,2.891,0,0,1-.483,1.657,2.792,2.792,0,0,1-1.345,1.05,2.7,2.7,0,0,1,1.551.993,2.936,2.936,0,0,1,.567,1.828,3.377,3.377,0,0,1-1.178,2.795A5.3,5.3,0,0,1,88.487,44Zm2.637-5.572v3.454h2.259a2.18,2.18,0,0,0,1.455-.444,1.522,1.522,0,0,0,.523-1.226,1.607,1.607,0,0,0-1.819-1.784Zm0-1.863H88.1q2-.035,2-1.591a1.47,1.47,0,0,0-.505-1.252,2.658,2.658,0,0,0-1.6-.382H86.149ZM97.8,44H95.167V31.2H97.8Zm9.668-2.637h-4.623L101.969,44h-2.8l4.764-12.8h2.443l4.79,12.8h-2.8Zm-3.911-2.136h3.2l-1.608-4.79Z" transform="translate(734 1580.416)" fill="#12263f"/>
  </g>
</svg>
