<svg xmlns="http://www.w3.org/2000/svg" width="820" height="291" viewBox="0 0 820 291">
  <g id="Grupo_1072263" data-name="Grupo 1072263" transform="translate(-390 -5624)">
    <g id="Grupo_1072223" data-name="Grupo 1072223">
      <path id="Trazado_609648" data-name="Trazado 609648" d="M0,0H820V291H0Z" transform="translate(390 5624)" fill="#f9fcf9"/>
      <path id="Trazado_609649" data-name="Trazado 609649" d="M0,0H400V64H0Z" transform="translate(600 5649)" fill="#dbe5f3"/>
      <path id="Trazado_609650" data-name="Trazado 609650" d="M0,0H315V90.939H0Z" transform="translate(423.5 5787.53)" fill="#e1fbff"/>
      <path id="Trazado_609530" data-name="Trazado 609530" d="M0,0H315V90.939H0Z" transform="translate(858.5 5787.53)" fill="#e1efe3"/>
      <path id="Trazado_609651" data-name="Trazado 609651" d="M18.919,16H16.014V3.914h2.905ZM23.46,7.019l.091,1.054a3.088,3.088,0,0,1,2.565-1.22,2.273,2.273,0,0,1,2.3,1.353,2.989,2.989,0,0,1,2.64-1.353q2.731,0,2.806,3.3V16H31.055V10.331a1.712,1.712,0,0,0-.232-1,.989.989,0,0,0-.847-.315,1.325,1.325,0,0,0-1.237.739l.008.116V16H25.942V10.347a1.8,1.8,0,0,0-.224-1.021.987.987,0,0,0-.855-.315,1.342,1.342,0,0,0-1.229.739V16h-2.8V7.019ZM43.8,11.576a5.416,5.416,0,0,1-.942,3.341,3.021,3.021,0,0,1-2.544,1.249,2.589,2.589,0,0,1-2.034-.9v4.192h-2.8V7.019h2.615l.083.83a2.589,2.589,0,0,1,2.117-1,3.045,3.045,0,0,1,2.582,1.224,5.483,5.483,0,0,1,.921,3.366ZM41,11.4Q41,9.011,39.6,9.011a1.316,1.316,0,0,0-1.328.714v3.536a1.359,1.359,0,0,0,1.345.747q1.336,0,1.378-2.308Zm9.38,3.627a2.884,2.884,0,0,1-2.4,1.137,2.829,2.829,0,0,1-2.237-.859,3.613,3.613,0,0,1-.76-2.469V7.019h2.8v5.835A1,1,0,0,0,48.9,14.008a1.462,1.462,0,0,0,1.37-.689v-6.3h2.814V16H50.462Zm8.583,1.137a4.617,4.617,0,0,1-3.345-1.233,4.257,4.257,0,0,1-1.278-3.208v-.232a5.516,5.516,0,0,1,.51-2.432,3.735,3.735,0,0,1,1.49-1.631,4.5,4.5,0,0,1,2.324-.577,3.888,3.888,0,0,1,2.988,1.175,4.616,4.616,0,0,1,1.1,3.275v1.087H57.186a2.016,2.016,0,0,0,.656,1.187,1.951,1.951,0,0,0,1.312.432,2.514,2.514,0,0,0,2.075-.93l1.278,1.511a3.573,3.573,0,0,1-1.482,1.15A5.007,5.007,0,0,1,58.962,16.166Zm-.315-7.155q-1.229,0-1.461,1.627h2.822v-.216a1.386,1.386,0,0,0-.34-1.042A1.354,1.354,0,0,0,58.647,9.011Zm9.928,4.466A.646.646,0,0,0,68.2,12.9a5.682,5.682,0,0,0-1.419-.448,6.473,6.473,0,0,1-1.727-.61,2.892,2.892,0,0,1-1.038-.917,2.19,2.19,0,0,1-.357-1.237,2.482,2.482,0,0,1,1.021-2.038,4.206,4.206,0,0,1,2.673-.8,4.66,4.66,0,0,1,2.855.805,2.518,2.518,0,0,1,1.079,2.117H68.483q0-1.079-1.137-1.079a1.127,1.127,0,0,0-.739.245.758.758,0,0,0-.3.61.7.7,0,0,0,.365.606,3.451,3.451,0,0,0,1.166.382,10.078,10.078,0,0,1,1.407.357,2.556,2.556,0,0,1,2.025,2.5,2.352,2.352,0,0,1-1.092,2,4.787,4.787,0,0,1-2.826.772,4.885,4.885,0,0,1-2.059-.415,3.442,3.442,0,0,1-1.411-1.129,2.556,2.556,0,0,1-.506-1.5h2.615a1.081,1.081,0,0,0,.415.909,1.707,1.707,0,0,0,1.021.286,1.343,1.343,0,0,0,.859-.232A.743.743,0,0,0,68.575,13.477Zm7.263-8.691V7.019h1.478V8.961H75.838V13.07a1.049,1.049,0,0,0,.183.706.98.98,0,0,0,.722.2,4.1,4.1,0,0,0,.7-.05v2a5.163,5.163,0,0,1-1.577.241,2.93,2.93,0,0,1-2.133-.681,2.79,2.79,0,0,1-.689-2.067V8.961H71.9V7.019h1.146V4.786Zm1.976,6.641a5.3,5.3,0,0,1,.523-2.395,3.74,3.74,0,0,1,1.5-1.615,4.525,4.525,0,0,1,2.3-.564A4.13,4.13,0,0,1,85.317,8.1a4.794,4.794,0,0,1,1.162,3.4v.1a4.651,4.651,0,0,1-1.166,3.333,4.141,4.141,0,0,1-3.158,1.233,4.188,4.188,0,0,1-3.08-1.15A4.5,4.5,0,0,1,77.822,11.9Zm2.8.174A3.342,3.342,0,0,0,81,13.427a1.3,1.3,0,0,0,1.154.581q1.494,0,1.527-2.3v-.282q0-2.416-1.544-2.416-1.4,0-1.519,2.083ZM97,16a3.159,3.159,0,0,1-.266-.805,2.6,2.6,0,0,1-2.158.971,3.187,3.187,0,0,1-2.158-.768,2.444,2.444,0,0,1-.888-1.93,2.512,2.512,0,0,1,1.079-2.208,5.5,5.5,0,0,1,3.138-.747h.863v-.475q0-1.243-1.071-1.243a.875.875,0,0,0-1,.984h-2.8a2.508,2.508,0,0,1,1.108-2.114,4.657,4.657,0,0,1,2.826-.813,4.083,4.083,0,0,1,2.714.838,2.915,2.915,0,0,1,1.021,2.3v3.976a4.072,4.072,0,0,0,.382,1.893V16Zm-1.751-1.826a1.56,1.56,0,0,0,.867-.224,1.4,1.4,0,0,0,.494-.506V12.007H95.8q-1.461,0-1.461,1.312a.8.8,0,0,0,.257.618A.931.931,0,0,0,95.253,14.174ZM108.153,16h-2.806V3.25h2.806Zm6.782,0a3.159,3.159,0,0,1-.266-.805,2.6,2.6,0,0,1-2.158.971,3.187,3.187,0,0,1-2.158-.768,2.444,2.444,0,0,1-.888-1.93,2.512,2.512,0,0,1,1.079-2.208,5.5,5.5,0,0,1,3.138-.747h.863v-.475q0-1.243-1.071-1.243a.875.875,0,0,0-1,.984h-2.8a2.508,2.508,0,0,1,1.108-2.114,4.657,4.657,0,0,1,2.826-.813,4.083,4.083,0,0,1,2.714.838,2.915,2.915,0,0,1,1.021,2.3v3.976a4.072,4.072,0,0,0,.382,1.893V16Zm-1.751-1.826a1.56,1.56,0,0,0,.867-.224,1.4,1.4,0,0,0,.494-.506V12.007h-.813q-1.461,0-1.461,1.312a.8.8,0,0,0,.257.618A.931.931,0,0,0,113.183,14.174Zm10.417-.7a.646.646,0,0,0-.374-.573,5.682,5.682,0,0,0-1.419-.448,6.473,6.473,0,0,1-1.727-.61,2.892,2.892,0,0,1-1.038-.917,2.19,2.19,0,0,1-.357-1.237,2.482,2.482,0,0,1,1.021-2.038,4.206,4.206,0,0,1,2.673-.8,4.66,4.66,0,0,1,2.855.805,2.518,2.518,0,0,1,1.079,2.117h-2.806q0-1.079-1.137-1.079a1.127,1.127,0,0,0-.739.245.758.758,0,0,0-.3.61.7.7,0,0,0,.365.606,3.451,3.451,0,0,0,1.166.382,10.078,10.078,0,0,1,1.407.357,2.556,2.556,0,0,1,2.025,2.5,2.352,2.352,0,0,1-1.092,2,4.787,4.787,0,0,1-2.826.772,4.885,4.885,0,0,1-2.059-.415,3.442,3.442,0,0,1-1.411-1.129,2.556,2.556,0,0,1-.506-1.5h2.615a1.081,1.081,0,0,0,.415.909,1.707,1.707,0,0,0,1.021.286,1.343,1.343,0,0,0,.859-.232A.743.743,0,0,0,123.6,13.477Zm18.262,1.029a4.685,4.685,0,0,1-1.967,1.2,8.485,8.485,0,0,1-2.839.457,5.062,5.062,0,0,1-3.793-1.453,5.88,5.88,0,0,1-1.519-4.042l-.008-1.046a7.213,7.213,0,0,1,.631-3.117,4.685,4.685,0,0,1,1.805-2.05,5.107,5.107,0,0,1,2.719-.718A5.354,5.354,0,0,1,140.4,4.773a4.379,4.379,0,0,1,1.457,3.084h-2.806a2.291,2.291,0,0,0-.647-1.444,2.089,2.089,0,0,0-1.411-.432,1.9,1.9,0,0,0-1.693.93,4.964,4.964,0,0,0-.606,2.656v.73a4.859,4.859,0,0,0,.618,2.719,2.187,2.187,0,0,0,1.947.909,2.448,2.448,0,0,0,1.693-.506V11.542h-2.025v-2h4.939ZM148.486,16a3.158,3.158,0,0,1-.266-.805,2.6,2.6,0,0,1-2.158.971A3.187,3.187,0,0,1,143.9,15.4a2.444,2.444,0,0,1-.888-1.93A2.512,2.512,0,0,1,144.1,11.26a5.5,5.5,0,0,1,3.138-.747h.863v-.475q0-1.243-1.071-1.243a.875.875,0,0,0-1,.984h-2.8a2.508,2.508,0,0,1,1.108-2.114,4.657,4.657,0,0,1,2.826-.813,4.083,4.083,0,0,1,2.714.838,2.915,2.915,0,0,1,1.021,2.3v3.976a4.072,4.072,0,0,0,.382,1.893V16Zm-1.751-1.826a1.56,1.56,0,0,0,.867-.224,1.4,1.4,0,0,0,.494-.506V12.007h-.813q-1.461,0-1.461,1.312a.8.8,0,0,0,.257.618A.931.931,0,0,0,146.735,14.174Zm8.284-7.155.091,1.054a3.046,3.046,0,0,1,2.565-1.22,2.562,2.562,0,0,1,2.1.838,3.991,3.991,0,0,1,.718,2.523V16h-2.806V10.331a1.516,1.516,0,0,0-.274-1,1.267,1.267,0,0,0-1-.32,1.334,1.334,0,0,0-1.22.647V16h-2.8V7.019ZM167.1,16a3.158,3.158,0,0,1-.266-.805,2.6,2.6,0,0,1-2.158.971,3.187,3.187,0,0,1-2.158-.768,2.444,2.444,0,0,1-.888-1.93,2.512,2.512,0,0,1,1.079-2.208,5.5,5.5,0,0,1,3.138-.747h.863v-.475q0-1.243-1.071-1.243a.875.875,0,0,0-1,.984h-2.8a2.508,2.508,0,0,1,1.108-2.114,4.657,4.657,0,0,1,2.826-.813,4.083,4.083,0,0,1,2.714.838,2.915,2.915,0,0,1,1.021,2.3v3.976a4.072,4.072,0,0,0,.382,1.893V16Zm-1.751-1.826a1.56,1.56,0,0,0,.867-.224,1.4,1.4,0,0,0,.494-.506V12.007h-.813q-1.461,0-1.461,1.312a.8.8,0,0,0,.257.618A.931.931,0,0,0,165.345,14.174Zm8.284-7.155.091,1.054a3.046,3.046,0,0,1,2.565-1.22,2.562,2.562,0,0,1,2.1.838,3.991,3.991,0,0,1,.718,2.523V16h-2.806V10.331a1.516,1.516,0,0,0-.274-1,1.267,1.267,0,0,0-1-.32,1.334,1.334,0,0,0-1.22.647V16h-2.8V7.019Zm10.816,6.989a1.244,1.244,0,0,0,.913-.32,1.172,1.172,0,0,0,.315-.892H188.3a3.105,3.105,0,0,1-1.058,2.424,3.937,3.937,0,0,1-2.727.946,3.986,3.986,0,0,1-3.088-1.229,4.84,4.84,0,0,1-1.129-3.4v-.116a5.471,5.471,0,0,1,.5-2.4,3.656,3.656,0,0,1,1.448-1.6,4.319,4.319,0,0,1,2.241-.56,3.887,3.887,0,0,1,2.781.971,3.445,3.445,0,0,1,1.029,2.631h-2.623a1.536,1.536,0,0,0-.34-1.071,1.175,1.175,0,0,0-.913-.374q-1.087,0-1.27,1.386a9.781,9.781,0,0,0-.058,1.212,3.842,3.842,0,0,0,.324,1.876A1.121,1.121,0,0,0,184.445,14.008ZM192.431,16h-2.806V7.019h2.806ZM189.459,4.7a1.249,1.249,0,0,1,.432-.979,1.835,1.835,0,0,1,2.241,0,1.249,1.249,0,0,1,.432.979,1.249,1.249,0,0,1-.432.979,1.835,1.835,0,0,1-2.241,0A1.249,1.249,0,0,1,189.459,4.7ZM199.212,16a3.158,3.158,0,0,1-.266-.805,2.6,2.6,0,0,1-2.158.971,3.187,3.187,0,0,1-2.158-.768,2.444,2.444,0,0,1-.888-1.93,2.512,2.512,0,0,1,1.079-2.208,5.5,5.5,0,0,1,3.138-.747h.863v-.475q0-1.243-1.071-1.243a.875.875,0,0,0-1,.984h-2.8a2.508,2.508,0,0,1,1.108-2.114,4.657,4.657,0,0,1,2.826-.813,4.083,4.083,0,0,1,2.714.838,2.915,2.915,0,0,1,1.021,2.3v3.976a4.072,4.072,0,0,0,.382,1.893V16Zm-1.751-1.826a1.56,1.56,0,0,0,.867-.224,1.4,1.4,0,0,0,.494-.506V12.007h-.813q-1.461,0-1.461,1.312a.8.8,0,0,0,.257.618A.931.931,0,0,0,197.461,14.174Zm10.417-.7a.646.646,0,0,0-.374-.573,5.682,5.682,0,0,0-1.419-.448,6.473,6.473,0,0,1-1.727-.61,2.892,2.892,0,0,1-1.038-.917,2.19,2.19,0,0,1-.357-1.237,2.482,2.482,0,0,1,1.021-2.038,4.206,4.206,0,0,1,2.673-.8,4.66,4.66,0,0,1,2.855.805,2.518,2.518,0,0,1,1.079,2.117h-2.806q0-1.079-1.137-1.079a1.127,1.127,0,0,0-.739.245.758.758,0,0,0-.3.61.7.7,0,0,0,.365.606,3.451,3.451,0,0,0,1.166.382,10.079,10.079,0,0,1,1.407.357,2.556,2.556,0,0,1,2.025,2.5,2.352,2.352,0,0,1-1.092,2,4.787,4.787,0,0,1-2.826.772,4.885,4.885,0,0,1-2.059-.415,3.442,3.442,0,0,1-1.411-1.129,2.556,2.556,0,0,1-.506-1.5H205.3a1.081,1.081,0,0,0,.415.909,1.707,1.707,0,0,0,1.021.286,1.343,1.343,0,0,0,.859-.232A.743.743,0,0,0,207.878,13.477Zm18.6-3.271a7.127,7.127,0,0,1-.656,3.129,4.847,4.847,0,0,1-1.864,2.1,5.189,5.189,0,0,1-2.752.735,5.262,5.262,0,0,1-2.739-.71,4.838,4.838,0,0,1-1.864-2.03,6.922,6.922,0,0,1-.7-3.03V9.716a7.159,7.159,0,0,1,.652-3.134,4.835,4.835,0,0,1,1.868-2.1,5.529,5.529,0,0,1,5.508-.008A4.922,4.922,0,0,1,225.8,6.558a6.953,6.953,0,0,1,.677,3.092ZM223.517,9.7a5.082,5.082,0,0,0-.6-2.735,1.93,1.93,0,0,0-1.722-.934q-2.191,0-2.316,3.287l-.008.888a5.227,5.227,0,0,0,.589,2.731,1.927,1.927,0,0,0,1.751.955,1.9,1.9,0,0,0,1.7-.938,5.084,5.084,0,0,0,.606-2.7Zm8.135,4.308a1.244,1.244,0,0,0,.913-.32,1.172,1.172,0,0,0,.315-.892H235.5a3.105,3.105,0,0,1-1.058,2.424,3.937,3.937,0,0,1-2.727.946,3.986,3.986,0,0,1-3.088-1.229,4.84,4.84,0,0,1-1.129-3.4v-.116a5.471,5.471,0,0,1,.5-2.4,3.656,3.656,0,0,1,1.448-1.6,4.319,4.319,0,0,1,2.241-.56,3.887,3.887,0,0,1,2.781.971,3.445,3.445,0,0,1,1.029,2.631H232.88a1.536,1.536,0,0,0-.34-1.071,1.175,1.175,0,0,0-.913-.374q-1.087,0-1.27,1.386a9.781,9.781,0,0,0-.058,1.212,3.842,3.842,0,0,0,.324,1.876A1.121,1.121,0,0,0,231.652,14.008ZM241.746,16a3.158,3.158,0,0,1-.266-.805,2.6,2.6,0,0,1-2.158.971,3.187,3.187,0,0,1-2.158-.768,2.444,2.444,0,0,1-.888-1.93,2.512,2.512,0,0,1,1.079-2.208,5.5,5.5,0,0,1,3.138-.747h.863v-.475q0-1.243-1.071-1.243a.875.875,0,0,0-1,.984h-2.8A2.508,2.508,0,0,1,237.6,7.665a4.657,4.657,0,0,1,2.826-.813,4.083,4.083,0,0,1,2.714.838,2.915,2.915,0,0,1,1.021,2.3v3.976a4.072,4.072,0,0,0,.382,1.893V16Zm-1.751-1.826a1.56,1.56,0,0,0,.867-.224,1.4,1.4,0,0,0,.494-.506V12.007h-.813q-1.461,0-1.461,1.312a.8.8,0,0,0,.257.618A.931.931,0,0,0,239.994,14.174Zm10.417-.7a.646.646,0,0,0-.374-.573,5.682,5.682,0,0,0-1.419-.448,6.473,6.473,0,0,1-1.727-.61,2.892,2.892,0,0,1-1.038-.917,2.19,2.19,0,0,1-.357-1.237,2.482,2.482,0,0,1,1.021-2.038,4.206,4.206,0,0,1,2.673-.8,4.66,4.66,0,0,1,2.855.805,2.518,2.518,0,0,1,1.079,2.117H250.32q0-1.079-1.137-1.079a1.127,1.127,0,0,0-.739.245.758.758,0,0,0-.3.61.7.7,0,0,0,.365.606,3.451,3.451,0,0,0,1.166.382,10.079,10.079,0,0,1,1.407.357,2.556,2.556,0,0,1,2.025,2.5,2.352,2.352,0,0,1-1.092,2,4.787,4.787,0,0,1-2.826.772,4.885,4.885,0,0,1-2.059-.415,3.442,3.442,0,0,1-1.411-1.129,2.556,2.556,0,0,1-.506-1.5h2.615a1.081,1.081,0,0,0,.415.909,1.707,1.707,0,0,0,1.021.286,1.343,1.343,0,0,0,.859-.232A.743.743,0,0,0,250.412,13.477ZM257.368,16h-2.806V7.019h2.806ZM254.4,4.7a1.249,1.249,0,0,1,.432-.979,1.835,1.835,0,0,1,2.241,0,1.249,1.249,0,0,1,.432.979,1.249,1.249,0,0,1-.432.979,1.835,1.835,0,0,1-2.241,0A1.249,1.249,0,0,1,254.4,4.7Zm4.341,6.724a5.3,5.3,0,0,1,.523-2.395,3.74,3.74,0,0,1,1.5-1.615,4.525,4.525,0,0,1,2.3-.564A4.13,4.13,0,0,1,266.241,8.1a4.794,4.794,0,0,1,1.162,3.4v.1a4.651,4.651,0,0,1-1.166,3.333,4.141,4.141,0,0,1-3.158,1.233,4.188,4.188,0,0,1-3.08-1.15,4.5,4.5,0,0,1-1.253-3.117Zm2.8.174a3.342,3.342,0,0,0,.39,1.826,1.3,1.3,0,0,0,1.154.581q1.494,0,1.527-2.3v-.282q0-2.416-1.544-2.416-1.4,0-1.519,2.083Zm9.67-4.582.091,1.054a3.046,3.046,0,0,1,2.565-1.22,2.562,2.562,0,0,1,2.1.838,3.991,3.991,0,0,1,.718,2.523V16H273.87V10.331a1.516,1.516,0,0,0-.274-1,1.267,1.267,0,0,0-1-.32,1.334,1.334,0,0,0-1.22.647V16h-2.8V7.019ZM283.283,16a3.159,3.159,0,0,1-.266-.805,2.6,2.6,0,0,1-2.158.971A3.187,3.187,0,0,1,278.7,15.4a2.444,2.444,0,0,1-.888-1.93,2.512,2.512,0,0,1,1.079-2.208,5.5,5.5,0,0,1,3.138-.747h.863v-.475q0-1.243-1.071-1.243a.875.875,0,0,0-1,.984h-2.8a2.508,2.508,0,0,1,1.108-2.114,4.657,4.657,0,0,1,2.826-.813,4.083,4.083,0,0,1,2.714.838,2.915,2.915,0,0,1,1.021,2.3v3.976a4.072,4.072,0,0,0,.382,1.893V16Zm-1.751-1.826a1.56,1.56,0,0,0,.867-.224,1.4,1.4,0,0,0,.494-.506V12.007h-.813q-1.461,0-1.461,1.312a.8.8,0,0,0,.257.618A.931.931,0,0,0,281.531,14.174ZM290.2,16h-2.806V3.25H290.2Zm6.068.166a4.617,4.617,0,0,1-3.345-1.233,4.257,4.257,0,0,1-1.278-3.208v-.232a5.516,5.516,0,0,1,.51-2.432,3.735,3.735,0,0,1,1.49-1.631,4.5,4.5,0,0,1,2.324-.577,3.888,3.888,0,0,1,2.988,1.175,4.616,4.616,0,0,1,1.1,3.275v1.087h-5.562a2.016,2.016,0,0,0,.656,1.187,1.951,1.951,0,0,0,1.312.432,2.514,2.514,0,0,0,2.075-.93l1.278,1.511a3.573,3.573,0,0,1-1.482,1.15A5.007,5.007,0,0,1,296.265,16.166Zm-.315-7.155q-1.229,0-1.461,1.627h2.822v-.216a1.386,1.386,0,0,0-.34-1.042A1.354,1.354,0,0,0,295.95,9.011Zm9.928,4.466a.646.646,0,0,0-.374-.573,5.682,5.682,0,0,0-1.419-.448,6.472,6.472,0,0,1-1.727-.61,2.892,2.892,0,0,1-1.038-.917,2.19,2.19,0,0,1-.357-1.237,2.482,2.482,0,0,1,1.021-2.038,4.206,4.206,0,0,1,2.673-.8,4.66,4.66,0,0,1,2.855.805,2.518,2.518,0,0,1,1.079,2.117h-2.806q0-1.079-1.137-1.079a1.127,1.127,0,0,0-.739.245.758.758,0,0,0-.3.61.7.7,0,0,0,.365.606,3.451,3.451,0,0,0,1.166.382,10.078,10.078,0,0,1,1.407.357,2.556,2.556,0,0,1,2.025,2.5,2.352,2.352,0,0,1-1.092,2,4.787,4.787,0,0,1-2.826.772,4.885,4.885,0,0,1-2.059-.415,3.442,3.442,0,0,1-1.411-1.129,2.556,2.556,0,0,1-.506-1.5H303.3a1.081,1.081,0,0,0,.415.909,1.707,1.707,0,0,0,1.021.286,1.343,1.343,0,0,0,.859-.232A.743.743,0,0,0,305.877,13.477Z" transform="translate(638 5671)" fill="#12263f"/>
      <g id="Grupo_872761" data-name="Grupo 872761" transform="translate(600 5649)">
        <g id="Grupo_871603" data-name="Grupo 871603" transform="translate(0)">
          <g id="Grupo_870556" data-name="Grupo 870556" transform="translate(0)">
            <g id="Grupo_870549" data-name="Grupo 870549" transform="translate(28.705 30.636) rotate(-180)">
              <path id="Trazado_213855" data-name="Trazado 213855" d="M0,0,3.93,3.368V27.361H0Z" transform="translate(24.775 0)" fill="#03386e"/>
              <path id="Trazado_213856" data-name="Trazado 213856" d="M0,28.7l3.93-3.588V0H0Z" transform="translate(28.705 26.706) rotate(90)" fill="#03386e"/>
            </g>
          </g>
        </g>
      </g>
      <g id="Grupo_1072218" data-name="Grupo 1072218" transform="translate(423.5 5787.03)">
        <g id="Grupo_871603-2" data-name="Grupo 871603" transform="translate(0)">
          <g id="Grupo_870556-2" data-name="Grupo 870556">
            <g id="Grupo_870549-2" data-name="Grupo 870549" transform="translate(28.705 30.636) rotate(-180)">
              <path id="Trazado_213855-2" data-name="Trazado 213855" d="M0,0,3.93,3.368V27.361H0Z" transform="translate(24.775 0)" fill="#3ae3fe"/>
              <path id="Trazado_213856-2" data-name="Trazado 213856" d="M0,28.7l3.93-3.588V0H0Z" transform="translate(28.705 26.706) rotate(90)" fill="#3ae3fe"/>
            </g>
          </g>
        </g>
      </g>
      <g id="Grupo_1072221" data-name="Grupo 1072221" transform="translate(858.5 5787.03)">
        <g id="Grupo_871603-3" data-name="Grupo 871603" transform="translate(0)">
          <g id="Grupo_870556-3" data-name="Grupo 870556">
            <g id="Grupo_870549-3" data-name="Grupo 870549" transform="translate(28.705 30.636) rotate(-180)">
              <path id="Trazado_213855-3" data-name="Trazado 213855" d="M0,0,3.93,3.368V27.361H0Z" transform="translate(24.775 0)" fill="#0c5e46"/>
              <path id="Trazado_213856-3" data-name="Trazado 213856" d="M0,28.7l3.93-3.588V0H0Z" transform="translate(28.705 26.706) rotate(90)" fill="#0c5e46"/>
            </g>
          </g>
        </g>
      </g>
      <g id="Grupo_1072217" data-name="Grupo 1072217" transform="translate(1000 5712.849) rotate(180)">
        <g id="Grupo_871603-4" data-name="Grupo 871603" transform="translate(0)">
          <g id="Grupo_870556-4" data-name="Grupo 870556" transform="translate(0)">
            <g id="Grupo_870549-4" data-name="Grupo 870549" transform="translate(28.705 30.636) rotate(-180)">
              <path id="Trazado_213855-4" data-name="Trazado 213855" d="M0,0,3.93,3.368V27.361H0Z" transform="translate(24.775 0)" fill="#03386e"/>
              <path id="Trazado_213856-4" data-name="Trazado 213856" d="M0,28.7l3.93-3.588V0H0Z" transform="translate(28.705 26.706) rotate(90)" fill="#03386e"/>
            </g>
          </g>
        </g>
      </g>
      <g id="Grupo_1072219" data-name="Grupo 1072219" transform="translate(738.5 5878.288) rotate(180)">
        <g id="Grupo_871603-5" data-name="Grupo 871603" transform="translate(0 0)">
          <g id="Grupo_870556-5" data-name="Grupo 870556" transform="translate(0 0)">
            <g id="Grupo_870549-5" data-name="Grupo 870549" transform="translate(28.705 30.636) rotate(-180)">
              <path id="Trazado_213855-5" data-name="Trazado 213855" d="M0,0,3.93,3.368V27.361H0Z" transform="translate(24.775 0)" fill="#3ae3fe"/>
              <path id="Trazado_213856-5" data-name="Trazado 213856" d="M0,28.7l3.93-3.588V0H0Z" transform="translate(28.705 26.706) rotate(90)" fill="#3ae3fe"/>
            </g>
          </g>
        </g>
      </g>
      <g id="Grupo_1072220" data-name="Grupo 1072220" transform="translate(1173.5 5878.288) rotate(180)">
        <g id="Grupo_871603-6" data-name="Grupo 871603" transform="translate(0 0)">
          <g id="Grupo_870556-6" data-name="Grupo 870556" transform="translate(0 0)">
            <g id="Grupo_870549-6" data-name="Grupo 870549" transform="translate(28.705 30.636) rotate(-180)">
              <path id="Trazado_213855-6" data-name="Trazado 213855" d="M0,0,3.93,3.368V27.361H0Z" transform="translate(24.775 0)" fill="#0c5e46"/>
              <path id="Trazado_213856-6" data-name="Trazado 213856" d="M0,28.7l3.93-3.588V0H0Z" transform="translate(28.705 26.706) rotate(90)" fill="#0c5e46"/>
            </g>
          </g>
        </g>
      </g>
      <path id="Trazado_609652" data-name="Trazado 609652" d="M6.4,11.518V16H4.3V3.914H8.925a4.675,4.675,0,0,1,3.217,1.055,3.549,3.549,0,0,1,1.191,2.792,3.431,3.431,0,0,1-1.166,2.767,4.9,4.9,0,0,1-3.266.989Zm0-1.693H8.925a2.485,2.485,0,0,0,1.71-.527,1.937,1.937,0,0,0,.589-1.523,2.09,2.09,0,0,0-.6-1.565,2.3,2.3,0,0,0-1.644-.6H6.4ZM18.82,16.166a4.173,4.173,0,0,1-3.109-1.208,4.381,4.381,0,0,1-1.191-3.217v-.249a5.389,5.389,0,0,1,.519-2.4A3.949,3.949,0,0,1,16.5,7.442a3.851,3.851,0,0,1,2.092-.589,3.525,3.525,0,0,1,2.835,1.17,4.949,4.949,0,0,1,1,3.312v.813H16.553a2.7,2.7,0,0,0,.743,1.76,2.23,2.23,0,0,0,1.639.647,2.731,2.731,0,0,0,2.258-1.121l1.087,1.038a3.631,3.631,0,0,1-1.44,1.249A4.509,4.509,0,0,1,18.82,16.166Zm-.241-7.695a1.7,1.7,0,0,0-1.341.581,3.012,3.012,0,0,0-.652,1.619H20.43v-.149a2.452,2.452,0,0,0-.54-1.531A1.686,1.686,0,0,0,18.579,8.471Zm10.11.39a4.991,4.991,0,0,0-.822-.066A1.85,1.85,0,0,0,26,9.857V16H23.983V7.019h1.926l.05,1a2.273,2.273,0,0,1,2.025-1.17,1.888,1.888,0,0,1,.714.116ZM35,13.56a.914.914,0,0,0-.444-.822,4.723,4.723,0,0,0-1.473-.5,7.574,7.574,0,0,1-1.718-.548,2.293,2.293,0,0,1-1.511-2.117,2.391,2.391,0,0,1,.979-1.942,3.872,3.872,0,0,1,2.49-.78,4.029,4.029,0,0,1,2.6.8,2.529,2.529,0,0,1,.992,2.067H34.9a1.243,1.243,0,0,0-.432-.967,1.654,1.654,0,0,0-1.146-.386,1.787,1.787,0,0,0-1.083.307.968.968,0,0,0-.419.822.818.818,0,0,0,.39.722,5.365,5.365,0,0,0,1.577.519,7.466,7.466,0,0,1,1.864.623,2.639,2.639,0,0,1,1,.867,2.212,2.212,0,0,1,.328,1.229,2.34,2.34,0,0,1-1,1.963,4.283,4.283,0,0,1-2.631.751,4.644,4.644,0,0,1-1.967-.4,3.238,3.238,0,0,1-1.345-1.1,2.594,2.594,0,0,1-.481-1.5h1.959a1.421,1.421,0,0,0,.54,1.1,2.1,2.1,0,0,0,1.32.386,2.04,2.04,0,0,0,1.212-.3A.938.938,0,0,0,35,13.56Zm3.362-2.133a5.3,5.3,0,0,1,.523-2.378,3.819,3.819,0,0,1,1.469-1.627,4.14,4.14,0,0,1,2.175-.569,3.923,3.923,0,0,1,2.951,1.17,4.6,4.6,0,0,1,1.224,3.1l.008.473a5.343,5.343,0,0,1-.51,2.374,3.773,3.773,0,0,1-1.461,1.619,4.17,4.17,0,0,1-2.2.573A3.9,3.9,0,0,1,39.5,14.9a4.848,4.848,0,0,1-1.141-3.374Zm2.017.174a3.619,3.619,0,0,0,.573,2.171,1.862,1.862,0,0,0,1.594.784,1.842,1.842,0,0,0,1.59-.8,4,4,0,0,0,.569-2.333,3.572,3.572,0,0,0-.585-2.158,1.973,1.973,0,0,0-3.158-.012A3.922,3.922,0,0,0,40.377,11.6Zm9.911-4.582.058,1.038a3.229,3.229,0,0,1,2.615-1.2q2.806,0,2.855,3.212V16H53.8V10.181a1.85,1.85,0,0,0-.369-1.266A1.554,1.554,0,0,0,52.222,8.5a1.944,1.944,0,0,0-1.818,1.1V16H48.387V7.019ZM63.237,16A3.113,3.113,0,0,1,63,15.162a3.393,3.393,0,0,1-4.565.232,2.47,2.47,0,0,1-.855-1.909,2.55,2.55,0,0,1,1.067-2.2,5.169,5.169,0,0,1,3.051-.768h1.237V9.924a1.573,1.573,0,0,0-.39-1.116,1.547,1.547,0,0,0-1.187-.419,1.777,1.777,0,0,0-1.129.344,1.066,1.066,0,0,0-.44.876H57.775a2.239,2.239,0,0,1,.49-1.382A3.263,3.263,0,0,1,59.6,7.218a4.68,4.68,0,0,1,1.88-.365,3.769,3.769,0,0,1,2.515.793,2.827,2.827,0,0,1,.963,2.229v4.051a4.591,4.591,0,0,0,.34,1.934V16Zm-2.216-1.453a2.294,2.294,0,0,0,1.125-.291,1.941,1.941,0,0,0,.793-.78V11.783H61.851a2.973,2.973,0,0,0-1.685.39,1.264,1.264,0,0,0-.564,1.1,1.179,1.179,0,0,0,.386.926A1.5,1.5,0,0,0,61.021,14.547ZM72.1,13.56a.914.914,0,0,0-.444-.822,4.723,4.723,0,0,0-1.473-.5,7.574,7.574,0,0,1-1.718-.548,2.293,2.293,0,0,1-1.511-2.117,2.391,2.391,0,0,1,.979-1.942,3.872,3.872,0,0,1,2.49-.78,4.029,4.029,0,0,1,2.6.8,2.529,2.529,0,0,1,.992,2.067H72a1.243,1.243,0,0,0-.432-.967,1.654,1.654,0,0,0-1.146-.386,1.787,1.787,0,0,0-1.083.307.968.968,0,0,0-.419.822.818.818,0,0,0,.39.722,5.365,5.365,0,0,0,1.577.519,7.466,7.466,0,0,1,1.864.623,2.639,2.639,0,0,1,1,.867,2.212,2.212,0,0,1,.328,1.229,2.34,2.34,0,0,1-1,1.963,4.283,4.283,0,0,1-2.631.751,4.644,4.644,0,0,1-1.967-.4,3.238,3.238,0,0,1-1.345-1.1,2.594,2.594,0,0,1-.481-1.5h1.959a1.421,1.421,0,0,0,.54,1.1,2.1,2.1,0,0,0,1.32.386,2.04,2.04,0,0,0,1.212-.3A.938.938,0,0,0,72.1,13.56Zm9.845-6.541.058,1.038a3.229,3.229,0,0,1,2.615-1.2q2.806,0,2.855,3.212V16H85.458V10.181a1.85,1.85,0,0,0-.369-1.266A1.554,1.554,0,0,0,83.881,8.5a1.944,1.944,0,0,0-1.818,1.1V16H80.046V7.019ZM94.9,16a3.113,3.113,0,0,1-.232-.838,3.393,3.393,0,0,1-4.565.232,2.47,2.47,0,0,1-.855-1.909,2.55,2.55,0,0,1,1.067-2.2,5.169,5.169,0,0,1,3.051-.768H94.6V9.924a1.573,1.573,0,0,0-.39-1.116,1.547,1.547,0,0,0-1.187-.419,1.777,1.777,0,0,0-1.129.344,1.066,1.066,0,0,0-.44.876H89.434a2.239,2.239,0,0,1,.49-1.382,3.263,3.263,0,0,1,1.332-1.009,4.68,4.68,0,0,1,1.88-.365,3.769,3.769,0,0,1,2.515.793,2.827,2.827,0,0,1,.963,2.229v4.051a4.591,4.591,0,0,0,.34,1.934V16ZM92.68,14.547a2.294,2.294,0,0,0,1.125-.291,1.941,1.941,0,0,0,.793-.78V11.783H93.51a2.973,2.973,0,0,0-1.685.39,1.264,1.264,0,0,0-.564,1.1,1.179,1.179,0,0,0,.386.926A1.5,1.5,0,0,0,92.68,14.547Zm8.575-9.712V7.019h1.585V8.513h-1.585v5.014a1.1,1.1,0,0,0,.2.743.943.943,0,0,0,.726.228,3.107,3.107,0,0,0,.706-.083v1.561a4.968,4.968,0,0,1-1.328.191q-2.324,0-2.324-2.565V8.513H97.76V7.019h1.478V4.835Zm8.566,10.285a3.128,3.128,0,0,1-2.523,1.046,2.788,2.788,0,0,1-2.212-.855,3.637,3.637,0,0,1-.751-2.474V7.019h2.017v5.794q0,1.71,1.419,1.71a1.993,1.993,0,0,0,1.984-1.054V7.019h2.017V16h-1.9Zm8.708-6.259a4.991,4.991,0,0,0-.822-.066,1.85,1.85,0,0,0-1.868,1.063V16h-2.017V7.019h1.926l.05,1a2.273,2.273,0,0,1,2.025-1.17,1.888,1.888,0,0,1,.714.116ZM124.92,16a3.113,3.113,0,0,1-.232-.838,3.393,3.393,0,0,1-4.565.232,2.47,2.47,0,0,1-.855-1.909,2.55,2.55,0,0,1,1.067-2.2,5.169,5.169,0,0,1,3.051-.768h1.237V9.924a1.573,1.573,0,0,0-.39-1.116,1.547,1.547,0,0,0-1.187-.419,1.777,1.777,0,0,0-1.129.344,1.066,1.066,0,0,0-.44.876h-2.017a2.239,2.239,0,0,1,.49-1.382,3.263,3.263,0,0,1,1.332-1.009,4.68,4.68,0,0,1,1.88-.365,3.769,3.769,0,0,1,2.515.793,2.827,2.827,0,0,1,.963,2.229v4.051a4.591,4.591,0,0,0,.34,1.934V16ZM122.7,14.547a2.294,2.294,0,0,0,1.125-.291,1.941,1.941,0,0,0,.793-.78V11.783h-1.087a2.973,2.973,0,0,0-1.685.39,1.264,1.264,0,0,0-.564,1.1,1.179,1.179,0,0,0,.386.926A1.5,1.5,0,0,0,122.7,14.547ZM130.9,16H128.88V3.25H130.9Zm6.151.166a4.173,4.173,0,0,1-3.109-1.208,4.381,4.381,0,0,1-1.191-3.217v-.249a5.389,5.389,0,0,1,.519-2.4,3.949,3.949,0,0,1,1.457-1.648,3.851,3.851,0,0,1,2.092-.589,3.525,3.525,0,0,1,2.835,1.17,4.949,4.949,0,0,1,1,3.312v.813h-5.869a2.7,2.7,0,0,0,.743,1.76,2.23,2.23,0,0,0,1.639.647,2.731,2.731,0,0,0,2.258-1.121l1.087,1.038a3.631,3.631,0,0,1-1.44,1.249A4.509,4.509,0,0,1,137.048,16.166Zm-.241-7.695a1.7,1.7,0,0,0-1.341.581,3.012,3.012,0,0,0-.652,1.619h3.843v-.149a2.452,2.452,0,0,0-.54-1.531A1.686,1.686,0,0,0,136.807,8.471Zm10.442,5.088a.914.914,0,0,0-.444-.822,4.723,4.723,0,0,0-1.473-.5,7.574,7.574,0,0,1-1.718-.548A2.293,2.293,0,0,1,142.1,9.575a2.391,2.391,0,0,1,.979-1.942,3.872,3.872,0,0,1,2.49-.78,4.029,4.029,0,0,1,2.6.8,2.529,2.529,0,0,1,.992,2.067H147.15a1.243,1.243,0,0,0-.432-.967,1.654,1.654,0,0,0-1.146-.386,1.787,1.787,0,0,0-1.083.307.968.968,0,0,0-.419.822.818.818,0,0,0,.39.722,5.365,5.365,0,0,0,1.577.519,7.466,7.466,0,0,1,1.864.623,2.639,2.639,0,0,1,1,.867,2.212,2.212,0,0,1,.328,1.229,2.34,2.34,0,0,1-1,1.963,4.283,4.283,0,0,1-2.631.751,4.644,4.644,0,0,1-1.967-.4,3.238,3.238,0,0,1-1.345-1.1,2.594,2.594,0,0,1-.481-1.5h1.959a1.421,1.421,0,0,0,.54,1.1,2.1,2.1,0,0,0,1.32.386,2.04,2.04,0,0,0,1.212-.3A.938.938,0,0,0,147.249,13.56Zm11.115-.448,1.826-6.093h2.15l-3.569,10.343a2.9,2.9,0,0,1-2.789,2.266,3.6,3.6,0,0,1-.971-.15V17.909l.382.025a1.964,1.964,0,0,0,1.15-.278,1.842,1.842,0,0,0,.61-.933l.291-.771-3.154-8.933h2.175Zm11.472-6.093V16.8a2.955,2.955,0,0,1-.685,2.1,2.625,2.625,0,0,1-2,.726,4.031,4.031,0,0,1-1.071-.141V17.893a3.108,3.108,0,0,0,.714.075q1,0,1.029-1.1V7.019Zm-2.191-2.333a1.07,1.07,0,0,1,.295-.772,1.113,1.113,0,0,1,.843-.307,1.127,1.127,0,0,1,.847.307,1.062,1.062,0,0,1,.3.772,1.038,1.038,0,0,1-.3.76,1.136,1.136,0,0,1-.847.3,1.122,1.122,0,0,1-.843-.3A1.046,1.046,0,0,1,167.644,4.686Zm9.787,10.434a3.128,3.128,0,0,1-2.523,1.046,2.788,2.788,0,0,1-2.212-.855,3.637,3.637,0,0,1-.751-2.474V7.019h2.017v5.794q0,1.71,1.419,1.71a1.993,1.993,0,0,0,1.984-1.054V7.019h2.017V16h-1.9Zm8.708-6.259a4.991,4.991,0,0,0-.822-.066,1.85,1.85,0,0,0-1.868,1.063V16h-2.017V7.019h1.926l.05,1a2.273,2.273,0,0,1,2.025-1.17,1.888,1.888,0,0,1,.714.116ZM189.583,16h-2.017V7.019h2.017ZM189.2,3.308h2.3l-2.3,2.515-1.619,0Zm2.3,8.135a5.34,5.34,0,0,1,.963-3.333,3.085,3.085,0,0,1,2.582-1.258,2.931,2.931,0,0,1,2.308,1V3.25h2.017V16h-1.826l-.1-.93a2.973,2.973,0,0,1-2.416,1.1,3.068,3.068,0,0,1-2.552-1.27A5.535,5.535,0,0,1,191.5,11.443Zm2.017.174a3.739,3.739,0,0,0,.527,2.137,1.71,1.71,0,0,0,1.5.768,1.9,1.9,0,0,0,1.81-1.1V9.583A1.876,1.876,0,0,0,195.56,8.5a1.723,1.723,0,0,0-1.511.776A4.163,4.163,0,0,0,193.518,11.617ZM203.62,16H201.6V7.019h2.017ZM201.478,4.686a1.07,1.07,0,0,1,.295-.772,1.113,1.113,0,0,1,.843-.307,1.127,1.127,0,0,1,.847.307,1.062,1.062,0,0,1,.3.772,1.038,1.038,0,0,1-.3.76,1.136,1.136,0,0,1-.847.3,1.122,1.122,0,0,1-.843-.3A1.046,1.046,0,0,1,201.478,4.686Zm8.027,9.87a1.824,1.824,0,0,0,1.253-.44,1.5,1.5,0,0,0,.531-1.087h1.9a2.963,2.963,0,0,1-.523,1.565,3.43,3.43,0,0,1-1.328,1.15,3.958,3.958,0,0,1-1.81.423,3.829,3.829,0,0,1-2.988-1.22,4.84,4.84,0,0,1-1.1-3.37v-.208a4.759,4.759,0,0,1,1.1-3.283,3.8,3.8,0,0,1,2.988-1.233,3.69,3.69,0,0,1,2.611.934,3.345,3.345,0,0,1,1.058,2.453h-1.9a1.847,1.847,0,0,0-.527-1.27,1.7,1.7,0,0,0-1.258-.5,1.775,1.775,0,0,0-1.511.71,3.621,3.621,0,0,0-.54,2.154v.324a3.682,3.682,0,0,0,.527,2.179A1.773,1.773,0,0,0,209.505,14.556ZM220.08,16a3.113,3.113,0,0,1-.232-.838,3.393,3.393,0,0,1-4.565.232,2.47,2.47,0,0,1-.855-1.909,2.55,2.55,0,0,1,1.067-2.2,5.169,5.169,0,0,1,3.051-.768h1.237V9.924a1.573,1.573,0,0,0-.39-1.116,1.547,1.547,0,0,0-1.187-.419,1.777,1.777,0,0,0-1.129.344,1.066,1.066,0,0,0-.44.876h-2.017a2.239,2.239,0,0,1,.49-1.382,3.263,3.263,0,0,1,1.332-1.009,4.68,4.68,0,0,1,1.88-.365,3.769,3.769,0,0,1,2.515.793,2.827,2.827,0,0,1,.963,2.229v4.051a4.591,4.591,0,0,0,.34,1.934V16Zm-2.216-1.453a2.294,2.294,0,0,0,1.125-.291,1.941,1.941,0,0,0,.793-.78V11.783h-1.087a2.973,2.973,0,0,0-1.685.39,1.264,1.264,0,0,0-.564,1.1,1.179,1.179,0,0,0,.386.926A1.5,1.5,0,0,0,217.864,14.547Zm11.082-.988a.914.914,0,0,0-.444-.822,4.723,4.723,0,0,0-1.473-.5,7.574,7.574,0,0,1-1.718-.548A2.293,2.293,0,0,1,223.8,9.575a2.391,2.391,0,0,1,.979-1.942,3.872,3.872,0,0,1,2.49-.78,4.029,4.029,0,0,1,2.6.8,2.529,2.529,0,0,1,.992,2.067h-2.017a1.243,1.243,0,0,0-.432-.967,1.654,1.654,0,0,0-1.146-.386,1.787,1.787,0,0,0-1.083.307.968.968,0,0,0-.419.822.818.818,0,0,0,.39.722,5.365,5.365,0,0,0,1.577.519,7.466,7.466,0,0,1,1.864.623,2.639,2.639,0,0,1,1,.867,2.212,2.212,0,0,1,.328,1.229,2.34,2.34,0,0,1-1,1.963,4.283,4.283,0,0,1-2.631.751,4.644,4.644,0,0,1-1.967-.4,3.238,3.238,0,0,1-1.345-1.1,2.594,2.594,0,0,1-.481-1.5h1.959a1.421,1.421,0,0,0,.54,1.1,2.1,2.1,0,0,0,1.32.386,2.04,2.04,0,0,0,1.212-.3A.938.938,0,0,0,228.946,13.56ZM242.252,16h-2.009V6.291L237.28,7.3V5.607l4.715-1.735h.257Zm12.078-5.088a6.591,6.591,0,0,1-.975,3.93,3.445,3.445,0,0,1-2.968,1.324,3.49,3.49,0,0,1-2.951-1.291,6.311,6.311,0,0,1-1.017-3.823V8.961a6.492,6.492,0,0,1,.975-3.91,4.066,4.066,0,0,1,5.935-.033,6.294,6.294,0,0,1,1,3.8Zm-2.017-2.258a5.114,5.114,0,0,0-.465-2.494,1.777,1.777,0,0,0-2.93-.042,4.726,4.726,0,0,0-.49,2.345V11.2a5.246,5.246,0,0,0,.473,2.523,1.589,1.589,0,0,0,1.486.83,1.561,1.561,0,0,0,1.436-.768,4.936,4.936,0,0,0,.49-2.4Zm7.952-2.416a2.426,2.426,0,0,1,.706-1.8,2.81,2.81,0,0,1,3.715,0,2.486,2.486,0,0,1,.7,1.839v.6a2.409,2.409,0,0,1-.7,1.785,2.505,2.505,0,0,1-1.847.7,2.585,2.585,0,0,1-1.847-.685,2.417,2.417,0,0,1-.726-1.847Zm1.411.636A1.331,1.331,0,0,0,262,7.8a1.081,1.081,0,0,0,.843.354,1.059,1.059,0,0,0,.83-.354,1.392,1.392,0,0,0,.315-.961V6.233a1.347,1.347,0,0,0-.32-.932,1.075,1.075,0,0,0-.843-.358,1.045,1.045,0,0,0-.834.362,1.41,1.41,0,0,0-.311.953Zm4.4,6.163a2.376,2.376,0,0,1,.722-1.8,2.814,2.814,0,0,1,3.69,0,2.456,2.456,0,0,1,.718,1.859v.589a2.428,2.428,0,0,1-.693,1.781,2.491,2.491,0,0,1-1.855.7,2.564,2.564,0,0,1-1.872-.693,2.443,2.443,0,0,1-.71-1.83Zm1.411.639a1.324,1.324,0,0,0,.328.926,1.087,1.087,0,0,0,.843.361,1.053,1.053,0,0,0,.834-.344,1.416,1.416,0,0,0,.3-.967v-.623a1.312,1.312,0,0,0-.324-.93,1.167,1.167,0,0,0-1.664,0,1.371,1.371,0,0,0-.32.963ZM263.253,15.1l-1.038-.6,5.9-9.446,1.038.6ZM64.4,41a3.113,3.113,0,0,1-.232-.838,3.393,3.393,0,0,1-4.565.232,2.47,2.47,0,0,1-.855-1.909,2.55,2.55,0,0,1,1.067-2.2,5.169,5.169,0,0,1,3.051-.768H64.1v-.589a1.573,1.573,0,0,0-.39-1.116,1.547,1.547,0,0,0-1.187-.419,1.777,1.777,0,0,0-1.129.344,1.066,1.066,0,0,0-.44.876H58.937a2.239,2.239,0,0,1,.49-1.382,3.263,3.263,0,0,1,1.332-1.009,4.68,4.68,0,0,1,1.88-.365,3.769,3.769,0,0,1,2.515.793,2.827,2.827,0,0,1,.963,2.229v4.051a4.591,4.591,0,0,0,.34,1.934V41Zm-2.216-1.453a2.294,2.294,0,0,0,1.125-.291,1.941,1.941,0,0,0,.793-.78V36.783H63.013a2.973,2.973,0,0,0-1.685.39,1.264,1.264,0,0,0-.564,1.1,1.179,1.179,0,0,0,.386.926A1.5,1.5,0,0,0,62.183,39.547Zm10.75-5.686a4.992,4.992,0,0,0-.822-.066,1.85,1.85,0,0,0-1.868,1.063V41H68.226V32.019h1.926l.05,1a2.273,2.273,0,0,1,2.025-1.17,1.888,1.888,0,0,1,.714.116Zm4.217-4.026v2.183h1.585v1.494H77.149v5.014a1.1,1.1,0,0,0,.2.743.943.943,0,0,0,.726.228,3.107,3.107,0,0,0,.706-.083v1.561a4.968,4.968,0,0,1-1.328.191q-2.324,0-2.324-2.565V33.513H73.655V32.019h1.478V29.835Zm9.563,4.2H87.94a2.2,2.2,0,0,0,1.473-.481,1.718,1.718,0,0,0,.544-1.37,1.872,1.872,0,0,0-.452-1.341,1.821,1.821,0,0,0-1.382-.477,1.926,1.926,0,0,0-1.336.469,1.567,1.567,0,0,0-.523,1.224H84.246a3.053,3.053,0,0,1,.494-1.693,3.318,3.318,0,0,1,1.378-1.191,4.489,4.489,0,0,1,1.98-.427,4.157,4.157,0,0,1,2.843.909,3.19,3.19,0,0,1,1.033,2.528,2.568,2.568,0,0,1-.519,1.531A3.253,3.253,0,0,1,90.115,34.8,2.965,2.965,0,0,1,91.63,35.87a2.932,2.932,0,0,1,.519,1.743,3.246,3.246,0,0,1-1.116,2.59,4.9,4.9,0,0,1-5.79.033,3.062,3.062,0,0,1-1.112-2.474h2.017a1.687,1.687,0,0,0,.535,1.295,2.03,2.03,0,0,0,1.44.5,2.094,2.094,0,0,0,1.478-.5,1.868,1.868,0,0,0,.54-1.444,1.887,1.887,0,0,0-.564-1.469,2.413,2.413,0,0,0-1.677-.515H86.712ZM99.5,41H97.494V31.291L94.531,32.3V30.607l4.715-1.735H99.5Zm6.533-6.964h1.229a2.2,2.2,0,0,0,1.473-.481,1.718,1.718,0,0,0,.544-1.37,1.872,1.872,0,0,0-.452-1.341,1.821,1.821,0,0,0-1.382-.477,1.926,1.926,0,0,0-1.336.469,1.567,1.567,0,0,0-.523,1.224h-2.017a3.053,3.053,0,0,1,.494-1.693,3.318,3.318,0,0,1,1.378-1.191,4.489,4.489,0,0,1,1.98-.427,4.157,4.157,0,0,1,2.843.909,3.19,3.19,0,0,1,1.033,2.528,2.568,2.568,0,0,1-.519,1.531,3.253,3.253,0,0,1-1.341,1.083,2.965,2.965,0,0,1,1.515,1.071,2.932,2.932,0,0,1,.519,1.743,3.246,3.246,0,0,1-1.116,2.59,4.9,4.9,0,0,1-5.79.033,3.062,3.062,0,0,1-1.112-2.474h2.017a1.687,1.687,0,0,0,.535,1.295,2.03,2.03,0,0,0,1.44.5,2.094,2.094,0,0,0,1.478-.5,1.868,1.868,0,0,0,.54-1.444,1.887,1.887,0,0,0-.564-1.469,2.413,2.413,0,0,0-1.677-.515h-1.187Zm14.833,4.076,1.826-6.093h2.15l-3.569,10.343a2.9,2.9,0,0,1-2.789,2.266,3.6,3.6,0,0,1-.971-.15V42.909l.382.025a1.964,1.964,0,0,0,1.15-.278,1.842,1.842,0,0,0,.61-.933l.291-.771-3.154-8.933h2.175Zm11.571-4.076h1.229a2.2,2.2,0,0,0,1.473-.481,1.718,1.718,0,0,0,.544-1.37,1.872,1.872,0,0,0-.452-1.341,1.821,1.821,0,0,0-1.382-.477,1.926,1.926,0,0,0-1.336.469,1.567,1.567,0,0,0-.523,1.224h-2.017a3.053,3.053,0,0,1,.494-1.693,3.318,3.318,0,0,1,1.378-1.191,4.489,4.489,0,0,1,1.98-.427,4.157,4.157,0,0,1,2.843.909,3.19,3.19,0,0,1,1.033,2.528,2.568,2.568,0,0,1-.519,1.531,3.253,3.253,0,0,1-1.341,1.083,2.965,2.965,0,0,1,1.515,1.071,2.932,2.932,0,0,1,.519,1.743,3.246,3.246,0,0,1-1.116,2.59,4.9,4.9,0,0,1-5.79.033,3.062,3.062,0,0,1-1.112-2.474h2.017a1.687,1.687,0,0,0,.535,1.295,2.03,2.03,0,0,0,1.44.5,2.094,2.094,0,0,0,1.478-.5,1.868,1.868,0,0,0,.54-1.444,1.887,1.887,0,0,0-.564-1.469,2.413,2.413,0,0,0-1.677-.515h-1.187ZM145.232,41h-2.009V31.291L140.26,32.3V30.607l4.715-1.735h.257Zm11.023-4.308h1.5v1.619h-1.5V41h-2.017V38.311h-5.221l-.058-1.229,5.213-8.168h2.083Zm-5.18,0h3.163V31.645l-.149.266Zm12-.249a5.34,5.34,0,0,1,.963-3.333,3.085,3.085,0,0,1,2.582-1.258,2.931,2.931,0,0,1,2.308,1v-4.6h2.017V41h-1.826l-.1-.93a2.973,2.973,0,0,1-2.416,1.1,3.068,3.068,0,0,1-2.552-1.27A5.535,5.535,0,0,1,163.079,36.443Zm2.017.174a3.739,3.739,0,0,0,.527,2.137,1.71,1.71,0,0,0,1.5.768,1.9,1.9,0,0,0,1.81-1.1V34.583a1.876,1.876,0,0,0-1.793-1.079,1.723,1.723,0,0,0-1.511.776A4.163,4.163,0,0,0,165.1,36.617Zm11.912,4.549a4.173,4.173,0,0,1-3.109-1.208,4.381,4.381,0,0,1-1.191-3.217v-.249a5.389,5.389,0,0,1,.519-2.4,3.949,3.949,0,0,1,1.457-1.648,3.851,3.851,0,0,1,2.092-.589,3.525,3.525,0,0,1,2.835,1.17,4.949,4.949,0,0,1,1,3.312v.813h-5.869a2.7,2.7,0,0,0,.743,1.76,2.23,2.23,0,0,0,1.639.647,2.731,2.731,0,0,0,2.258-1.121l1.087,1.038a3.631,3.631,0,0,1-1.44,1.249A4.509,4.509,0,0,1,177.008,41.166Zm-.241-7.695a1.7,1.7,0,0,0-1.341.581,3.012,3.012,0,0,0-.652,1.619h3.843v-.149a2.452,2.452,0,0,0-.54-1.531A1.686,1.686,0,0,0,176.767,33.471ZM184.321,41H182.3V28.25h2.017Zm13.688-5.4h-4.964v3.719h5.8V41h-7.9V28.914h7.844v1.693h-5.744v3.337h4.964Zm3.611,3.271a1.152,1.152,0,0,1,.872.32,1.11,1.11,0,0,1,.307.8,1.071,1.071,0,0,1-.307.784,1.36,1.36,0,0,1-1.727,0,1.053,1.053,0,0,1-.315-.789,1.11,1.11,0,0,1,.307-.8A1.141,1.141,0,0,1,201.619,38.875Zm12.418-8.268h-3.769V41h-2.083V30.607H204.45V28.914h9.587Zm.506,8.268a1.152,1.152,0,0,1,.872.32,1.11,1.11,0,0,1,.307.8,1.071,1.071,0,0,1-.307.784,1.36,1.36,0,0,1-1.727,0,1.053,1.053,0,0,1-.315-.789,1.11,1.11,0,0,1,.307-.8A1.141,1.141,0,0,1,214.544,38.875Z" transform="translate(443.5 5810.53)" fill="#12263f"/>
      <path id="Trazado_609653" data-name="Trazado 609653" d="M21.584,11.352H19.243V16h-2.1V3.914h4.25a4.944,4.944,0,0,1,3.229.939A3.321,3.321,0,0,1,25.759,7.57,3.4,3.4,0,0,1,25.174,9.6a3.724,3.724,0,0,1-1.631,1.259l2.714,5.033V16h-2.25ZM19.243,9.658H21.4a2.4,2.4,0,0,0,1.66-.535,1.867,1.867,0,0,0,.6-1.465,1.988,1.988,0,0,0-.552-1.5,2.345,2.345,0,0,0-1.648-.548H19.243ZM29.7,16H27.685V7.019H29.7ZM27.56,4.686a1.071,1.071,0,0,1,.295-.772,1.113,1.113,0,0,1,.843-.307,1.127,1.127,0,0,1,.847.307,1.062,1.062,0,0,1,.3.772,1.038,1.038,0,0,1-.3.76,1.136,1.136,0,0,1-.847.3,1.122,1.122,0,0,1-.843-.3A1.046,1.046,0,0,1,27.56,4.686ZM32.607,16V8.513h-1.37V7.019h1.37V6.2a3.085,3.085,0,0,1,.83-2.308,3.18,3.18,0,0,1,2.324-.813,4.662,4.662,0,0,1,1.129.149L36.841,4.8a3.973,3.973,0,0,0-.772-.066,1.3,1.3,0,0,0-1.444,1.486v.8H36.45V8.513H34.624V16ZM43.29,16a3.113,3.113,0,0,1-.232-.838,3.393,3.393,0,0,1-4.565.232,2.47,2.47,0,0,1-.855-1.909,2.55,2.55,0,0,1,1.067-2.2,5.169,5.169,0,0,1,3.051-.768h1.237V9.924a1.573,1.573,0,0,0-.39-1.116,1.547,1.547,0,0,0-1.187-.419,1.777,1.777,0,0,0-1.129.344,1.066,1.066,0,0,0-.44.876H37.828a2.239,2.239,0,0,1,.49-1.382A3.263,3.263,0,0,1,39.65,7.218a4.68,4.68,0,0,1,1.88-.365,3.769,3.769,0,0,1,2.515.793,2.827,2.827,0,0,1,.963,2.229v4.051a4.591,4.591,0,0,0,.34,1.934V16Zm-2.216-1.453a2.294,2.294,0,0,0,1.125-.291,1.941,1.941,0,0,0,.793-.78V11.783H41.9a2.973,2.973,0,0,0-1.685.39,1.264,1.264,0,0,0-.564,1.1,1.179,1.179,0,0,0,.386.926A1.5,1.5,0,0,0,41.074,14.547Zm11.082-.988a.914.914,0,0,0-.444-.822,4.723,4.723,0,0,0-1.473-.5,7.574,7.574,0,0,1-1.718-.548,2.293,2.293,0,0,1-1.511-2.117,2.391,2.391,0,0,1,.979-1.942,3.872,3.872,0,0,1,2.49-.78,4.029,4.029,0,0,1,2.6.8,2.529,2.529,0,0,1,.992,2.067H52.056a1.243,1.243,0,0,0-.432-.967,1.654,1.654,0,0,0-1.146-.386A1.787,1.787,0,0,0,49.4,8.67a.968.968,0,0,0-.419.822.818.818,0,0,0,.39.722,5.365,5.365,0,0,0,1.577.519,7.466,7.466,0,0,1,1.864.623,2.639,2.639,0,0,1,1,.867,2.212,2.212,0,0,1,.328,1.229,2.34,2.34,0,0,1-1,1.963,4.283,4.283,0,0,1-2.631.751,4.644,4.644,0,0,1-1.967-.4,3.238,3.238,0,0,1-1.345-1.1,2.594,2.594,0,0,1-.481-1.5h1.959a1.421,1.421,0,0,0,.54,1.1,2.1,2.1,0,0,0,1.32.386,2.04,2.04,0,0,0,1.212-.3A.938.938,0,0,0,52.156,13.56Zm4.026,5.163-1.087-.647a5.865,5.865,0,0,0,.66-1.316,3.926,3.926,0,0,0,.187-1.141V14.049h1.818L57.75,15.5a4.049,4.049,0,0,1-.444,1.764A4.382,4.382,0,0,1,56.181,18.723ZM69.23,16A3.113,3.113,0,0,1,69,15.162a3.393,3.393,0,0,1-4.565.232,2.47,2.47,0,0,1-.855-1.909,2.55,2.55,0,0,1,1.067-2.2,5.169,5.169,0,0,1,3.051-.768h1.237V9.924a1.573,1.573,0,0,0-.39-1.116,1.547,1.547,0,0,0-1.187-.419,1.777,1.777,0,0,0-1.129.344,1.066,1.066,0,0,0-.44.876H63.768a2.239,2.239,0,0,1,.49-1.382A3.263,3.263,0,0,1,65.59,7.218a4.68,4.68,0,0,1,1.88-.365,3.769,3.769,0,0,1,2.515.793,2.827,2.827,0,0,1,.963,2.229v4.051a4.591,4.591,0,0,0,.34,1.934V16Zm-2.216-1.453a2.294,2.294,0,0,0,1.125-.291,1.941,1.941,0,0,0,.793-.78V11.783H67.844a2.973,2.973,0,0,0-1.685.39,1.264,1.264,0,0,0-.564,1.1,1.179,1.179,0,0,0,.386.926A1.5,1.5,0,0,0,67.014,14.547ZM80.926,11.6a5.348,5.348,0,0,1-.946,3.324,3.287,3.287,0,0,1-4.906.27v4.258H73.057V7.019h1.859L75,7.932a2.963,2.963,0,0,1,2.416-1.079,3.062,3.062,0,0,1,2.577,1.224,5.49,5.49,0,0,1,.934,3.4Zm-2.009-.174a3.746,3.746,0,0,0-.535-2.133A1.741,1.741,0,0,0,76.85,8.5a1.856,1.856,0,0,0-1.776,1.021V13.51a1.873,1.873,0,0,0,1.793,1.046,1.739,1.739,0,0,0,1.507-.776A4.124,4.124,0,0,0,78.917,11.426Zm9.156,3.694a3.128,3.128,0,0,1-2.523,1.046,2.788,2.788,0,0,1-2.212-.855,3.637,3.637,0,0,1-.751-2.474V7.019H84.6v5.794q0,1.71,1.419,1.71a1.993,1.993,0,0,0,1.984-1.054V7.019h2.017V16h-1.9Zm7.96,1.046a4.173,4.173,0,0,1-3.109-1.208,4.381,4.381,0,0,1-1.191-3.217v-.249a5.389,5.389,0,0,1,.519-2.4,3.949,3.949,0,0,1,1.457-1.648A3.851,3.851,0,0,1,95.8,6.853a3.525,3.525,0,0,1,2.835,1.17,4.949,4.949,0,0,1,1,3.312v.813H93.767a2.7,2.7,0,0,0,.743,1.76,2.23,2.23,0,0,0,1.639.647,2.731,2.731,0,0,0,2.258-1.121l1.087,1.038a3.631,3.631,0,0,1-1.44,1.249A4.509,4.509,0,0,1,96.033,16.166Zm-.241-7.695a1.7,1.7,0,0,0-1.341.581,3.012,3.012,0,0,0-.652,1.619h3.843v-.149A2.452,2.452,0,0,0,97.1,8.99,1.686,1.686,0,0,0,95.793,8.471Zm10.442,5.088a.914.914,0,0,0-.444-.822,4.723,4.723,0,0,0-1.473-.5,7.574,7.574,0,0,1-1.718-.548,2.293,2.293,0,0,1-1.511-2.117,2.391,2.391,0,0,1,.979-1.942,3.872,3.872,0,0,1,2.49-.78,4.029,4.029,0,0,1,2.6.8,2.529,2.529,0,0,1,.992,2.067h-2.017a1.243,1.243,0,0,0-.432-.967,1.654,1.654,0,0,0-1.146-.386,1.787,1.787,0,0,0-1.083.307.968.968,0,0,0-.419.822.818.818,0,0,0,.39.722,5.365,5.365,0,0,0,1.577.519,7.466,7.466,0,0,1,1.864.623,2.639,2.639,0,0,1,1,.867,2.212,2.212,0,0,1,.328,1.229,2.34,2.34,0,0,1-1,1.963,4.283,4.283,0,0,1-2.631.751,4.644,4.644,0,0,1-1.967-.4,3.238,3.238,0,0,1-1.345-1.1,2.594,2.594,0,0,1-.481-1.5h1.959a1.421,1.421,0,0,0,.54,1.1,2.1,2.1,0,0,0,1.32.386,2.04,2.04,0,0,0,1.212-.3A.938.938,0,0,0,106.235,13.56ZM112.5,4.835V7.019h1.585V8.513H112.5v5.014a1.1,1.1,0,0,0,.2.743.943.943,0,0,0,.726.228,3.107,3.107,0,0,0,.706-.083v1.561a4.968,4.968,0,0,1-1.328.191q-2.324,0-2.324-2.565V8.513h-1.478V7.019h1.478V4.835ZM120.994,16a3.113,3.113,0,0,1-.232-.838,3.393,3.393,0,0,1-4.565.232,2.47,2.47,0,0,1-.855-1.909,2.55,2.55,0,0,1,1.067-2.2,5.169,5.169,0,0,1,3.051-.768H120.7V9.924a1.573,1.573,0,0,0-.39-1.116,1.547,1.547,0,0,0-1.187-.419,1.777,1.777,0,0,0-1.129.344,1.066,1.066,0,0,0-.44.876h-2.017a2.239,2.239,0,0,1,.49-1.382,3.263,3.263,0,0,1,1.332-1.009,4.68,4.68,0,0,1,1.88-.365,3.769,3.769,0,0,1,2.515.793,2.827,2.827,0,0,1,.963,2.229v4.051a4.591,4.591,0,0,0,.34,1.934V16Zm-2.216-1.453a2.294,2.294,0,0,0,1.125-.291,1.941,1.941,0,0,0,.793-.78V11.783h-1.087a2.973,2.973,0,0,0-1.685.39,1.264,1.264,0,0,0-.564,1.1,1.179,1.179,0,0,0,.386.926A1.5,1.5,0,0,0,118.778,14.547Zm11.082-.988a.914.914,0,0,0-.444-.822,4.723,4.723,0,0,0-1.473-.5,7.574,7.574,0,0,1-1.718-.548,2.293,2.293,0,0,1-1.511-2.117,2.391,2.391,0,0,1,.979-1.942,3.872,3.872,0,0,1,2.49-.78,4.029,4.029,0,0,1,2.6.8,2.529,2.529,0,0,1,.992,2.067H129.76a1.243,1.243,0,0,0-.432-.967,1.654,1.654,0,0,0-1.146-.386,1.787,1.787,0,0,0-1.083.307.968.968,0,0,0-.419.822.818.818,0,0,0,.39.722,5.365,5.365,0,0,0,1.577.519,7.466,7.466,0,0,1,1.864.623,2.639,2.639,0,0,1,1,.867,2.212,2.212,0,0,1,.328,1.229,2.34,2.34,0,0,1-1,1.963,4.283,4.283,0,0,1-2.631.751,4.644,4.644,0,0,1-1.967-.4,3.238,3.238,0,0,1-1.345-1.1,2.594,2.594,0,0,1-.481-1.5h1.959a1.421,1.421,0,0,0,.54,1.1,2.1,2.1,0,0,0,1.32.386,2.04,2.04,0,0,0,1.212-.3A.938.938,0,0,0,129.859,13.56Zm11.115-.448L142.8,7.019h2.15l-3.569,10.343a2.9,2.9,0,0,1-2.789,2.266,3.6,3.6,0,0,1-.971-.15V17.909l.382.025a1.964,1.964,0,0,0,1.15-.278,1.842,1.842,0,0,0,.61-.933l.291-.771L136.9,7.019h2.175Zm14.4.448a.914.914,0,0,0-.444-.822,4.723,4.723,0,0,0-1.473-.5,7.574,7.574,0,0,1-1.718-.548,2.293,2.293,0,0,1-1.511-2.117,2.391,2.391,0,0,1,.979-1.942,3.872,3.872,0,0,1,2.49-.78,4.029,4.029,0,0,1,2.6.8,2.529,2.529,0,0,1,.992,2.067h-2.017a1.243,1.243,0,0,0-.432-.967,1.654,1.654,0,0,0-1.146-.386,1.787,1.787,0,0,0-1.083.307.968.968,0,0,0-.419.822.818.818,0,0,0,.39.722,5.365,5.365,0,0,0,1.577.519,7.466,7.466,0,0,1,1.864.623,2.639,2.639,0,0,1,1,.867,2.212,2.212,0,0,1,.328,1.229,2.34,2.34,0,0,1-1,1.963,4.283,4.283,0,0,1-2.631.751,4.644,4.644,0,0,1-1.967-.4,3.238,3.238,0,0,1-1.345-1.1,2.594,2.594,0,0,1-.481-1.5h1.959a1.421,1.421,0,0,0,.54,1.1,2.1,2.1,0,0,0,1.32.386,2.04,2.04,0,0,0,1.212-.3A.938.938,0,0,0,155.376,13.56ZM161.261,16h-2.017V7.019h2.017ZM159.119,4.686a1.07,1.07,0,0,1,.295-.772,1.113,1.113,0,0,1,.843-.307,1.127,1.127,0,0,1,.847.307,1.062,1.062,0,0,1,.3.772,1.038,1.038,0,0,1-.3.76,1.136,1.136,0,0,1-.847.3,1.122,1.122,0,0,1-.843-.3A1.046,1.046,0,0,1,159.119,4.686Zm6.234,2.333.058.938a3.232,3.232,0,0,1,2.59-1.1,2.483,2.483,0,0,1,2.465,1.378,3.186,3.186,0,0,1,2.756-1.378,2.8,2.8,0,0,1,2.212.822,3.618,3.618,0,0,1,.743,2.424V16H174.16V10.156a1.786,1.786,0,0,0-.374-1.253,1.635,1.635,0,0,0-1.237-.4,1.679,1.679,0,0,0-1.125.369,1.948,1.948,0,0,0-.61.967L170.823,16h-2.017V10.09A1.439,1.439,0,0,0,167.188,8.5a1.776,1.776,0,0,0-1.718.988V16h-2.017V7.019ZM180.394,16h-2.017V7.019h2.017ZM178.253,4.686a1.07,1.07,0,0,1,.295-.772,1.113,1.113,0,0,1,.843-.307,1.127,1.127,0,0,1,.847.307,1.062,1.062,0,0,1,.3.772,1.038,1.038,0,0,1-.3.76,1.136,1.136,0,0,1-.847.3,1.122,1.122,0,0,1-.843-.3A1.046,1.046,0,0,1,178.253,4.686ZM184.736,16h-2.017V3.25h2.017Zm7.562,0a3.113,3.113,0,0,1-.232-.838,3.393,3.393,0,0,1-4.565.232,2.47,2.47,0,0,1-.855-1.909,2.55,2.55,0,0,1,1.067-2.2,5.169,5.169,0,0,1,3.051-.768H192V9.924a1.573,1.573,0,0,0-.39-1.116,1.547,1.547,0,0,0-1.187-.419,1.777,1.777,0,0,0-1.129.344,1.066,1.066,0,0,0-.44.876h-2.017a2.239,2.239,0,0,1,.49-1.382,3.263,3.263,0,0,1,1.332-1.009,4.68,4.68,0,0,1,1.88-.365,3.769,3.769,0,0,1,2.515.793,2.827,2.827,0,0,1,.963,2.229v4.051a4.591,4.591,0,0,0,.34,1.934V16Zm-2.216-1.453a2.294,2.294,0,0,0,1.125-.291,1.941,1.941,0,0,0,.793-.78V11.783h-1.087a2.973,2.973,0,0,0-1.685.39,1.264,1.264,0,0,0-.564,1.1,1.179,1.179,0,0,0,.386.926A1.5,1.5,0,0,0,190.081,14.547Zm10.75-5.686a4.991,4.991,0,0,0-.822-.066,1.85,1.85,0,0,0-1.868,1.063V16h-2.017V7.019h1.926l.05,1a2.273,2.273,0,0,1,2.025-1.17,1.888,1.888,0,0,1,.714.116Zm5.072,7.3a4.173,4.173,0,0,1-3.109-1.208,4.381,4.381,0,0,1-1.191-3.217v-.249a5.389,5.389,0,0,1,.519-2.4,3.949,3.949,0,0,1,1.457-1.648,3.851,3.851,0,0,1,2.092-.589,3.525,3.525,0,0,1,2.835,1.17,4.949,4.949,0,0,1,1,3.312v.813h-5.869a2.7,2.7,0,0,0,.743,1.76,2.23,2.23,0,0,0,1.639.647,2.731,2.731,0,0,0,2.258-1.121l1.087,1.038a3.631,3.631,0,0,1-1.44,1.249A4.509,4.509,0,0,1,205.9,16.166Zm-.241-7.695a1.7,1.7,0,0,0-1.341.581,3.012,3.012,0,0,0-.652,1.619h3.843v-.149a2.452,2.452,0,0,0-.54-1.531A1.686,1.686,0,0,0,205.662,8.471ZM216.1,13.56a.914.914,0,0,0-.444-.822,4.723,4.723,0,0,0-1.473-.5,7.574,7.574,0,0,1-1.718-.548,2.293,2.293,0,0,1-1.511-2.117,2.391,2.391,0,0,1,.979-1.942,3.872,3.872,0,0,1,2.49-.78,4.029,4.029,0,0,1,2.6.8,2.529,2.529,0,0,1,.992,2.067H216a1.243,1.243,0,0,0-.432-.967,1.654,1.654,0,0,0-1.146-.386,1.787,1.787,0,0,0-1.083.307.968.968,0,0,0-.419.822.818.818,0,0,0,.39.722,5.365,5.365,0,0,0,1.577.519,7.466,7.466,0,0,1,1.864.623,2.639,2.639,0,0,1,1,.867,2.212,2.212,0,0,1,.328,1.229,2.34,2.34,0,0,1-1,1.963,4.283,4.283,0,0,1-2.631.751,4.644,4.644,0,0,1-1.967-.4,3.238,3.238,0,0,1-1.345-1.1,2.594,2.594,0,0,1-.481-1.5h1.959a1.421,1.421,0,0,0,.54,1.1,2.1,2.1,0,0,0,1.32.386,2.04,2.04,0,0,0,1.212-.3A.938.938,0,0,0,216.1,13.56ZM232.075,16h-8.126V14.614l4.026-4.391A10.026,10.026,0,0,0,229.215,8.6a2.629,2.629,0,0,0,.369-1.307A1.986,1.986,0,0,0,229.1,5.9a1.684,1.684,0,0,0-1.307-.531,1.942,1.942,0,0,0-1.519.6,2.35,2.35,0,0,0-.54,1.635h-2.017a3.953,3.953,0,0,1,.5-1.988,3.458,3.458,0,0,1,1.436-1.374,4.571,4.571,0,0,1,2.154-.49,4.088,4.088,0,0,1,2.777.884A3.069,3.069,0,0,1,231.6,7.077a4.148,4.148,0,0,1-.51,1.9,10.786,10.786,0,0,1-1.673,2.254l-2.955,3.163h5.611Zm9.413-5.088a6.591,6.591,0,0,1-.975,3.93,3.445,3.445,0,0,1-2.968,1.324,3.49,3.49,0,0,1-2.951-1.291,6.311,6.311,0,0,1-1.017-3.823V8.961a6.492,6.492,0,0,1,.975-3.91,4.066,4.066,0,0,1,5.935-.033,6.294,6.294,0,0,1,1,3.8Zm-2.017-2.258a5.114,5.114,0,0,0-.465-2.494,1.777,1.777,0,0,0-2.93-.042,4.726,4.726,0,0,0-.49,2.345V11.2a5.246,5.246,0,0,0,.473,2.523,1.589,1.589,0,0,0,1.486.83,1.561,1.561,0,0,0,1.436-.768,4.936,4.936,0,0,0,.49-2.4Zm7.952-2.416a2.426,2.426,0,0,1,.706-1.8,2.81,2.81,0,0,1,3.715,0,2.486,2.486,0,0,1,.7,1.839v.6a2.409,2.409,0,0,1-.7,1.785,2.505,2.505,0,0,1-1.847.7,2.585,2.585,0,0,1-1.847-.685,2.417,2.417,0,0,1-.726-1.847Zm1.411.636a1.331,1.331,0,0,0,.32.928,1.081,1.081,0,0,0,.843.354,1.059,1.059,0,0,0,.83-.354,1.392,1.392,0,0,0,.315-.961V6.233a1.347,1.347,0,0,0-.32-.932,1.075,1.075,0,0,0-.843-.358,1.045,1.045,0,0,0-.834.362,1.41,1.41,0,0,0-.311.953Zm4.4,6.163a2.376,2.376,0,0,1,.722-1.8,2.814,2.814,0,0,1,3.69,0,2.456,2.456,0,0,1,.718,1.859v.589a2.428,2.428,0,0,1-.693,1.781,2.491,2.491,0,0,1-1.855.7,2.564,2.564,0,0,1-1.872-.693,2.443,2.443,0,0,1-.71-1.83Zm1.411.639a1.324,1.324,0,0,0,.328.926,1.087,1.087,0,0,0,.843.361,1.053,1.053,0,0,0,.834-.344,1.416,1.416,0,0,0,.3-.967v-.623a1.312,1.312,0,0,0-.324-.93,1.167,1.167,0,0,0-1.664,0,1.371,1.371,0,0,0-.32.963ZM250.411,15.1l-1.038-.6,5.9-9.446,1.038.6ZM100.91,41a3.113,3.113,0,0,1-.232-.838,3.393,3.393,0,0,1-4.565.232,2.47,2.47,0,0,1-.855-1.909,2.55,2.55,0,0,1,1.067-2.2,5.169,5.169,0,0,1,3.051-.768h1.237v-.589a1.573,1.573,0,0,0-.39-1.116,1.547,1.547,0,0,0-1.187-.419,1.777,1.777,0,0,0-1.129.344,1.066,1.066,0,0,0-.44.876H95.448a2.239,2.239,0,0,1,.49-1.382,3.263,3.263,0,0,1,1.332-1.009,4.68,4.68,0,0,1,1.88-.365,3.769,3.769,0,0,1,2.515.793,2.827,2.827,0,0,1,.963,2.229v4.051a4.591,4.591,0,0,0,.34,1.934V41Zm-2.216-1.453a2.294,2.294,0,0,0,1.125-.291,1.941,1.941,0,0,0,.793-.78V36.783H99.524a2.973,2.973,0,0,0-1.685.39,1.264,1.264,0,0,0-.564,1.1,1.179,1.179,0,0,0,.386.926A1.5,1.5,0,0,0,98.694,39.547Zm10.75-5.686a4.992,4.992,0,0,0-.822-.066,1.85,1.85,0,0,0-1.868,1.063V41h-2.017V32.019h1.926l.05,1a2.273,2.273,0,0,1,2.025-1.17,1.888,1.888,0,0,1,.714.116Zm4.217-4.026v2.183h1.585v1.494H113.66v5.014a1.1,1.1,0,0,0,.2.743.943.943,0,0,0,.726.228,3.107,3.107,0,0,0,.706-.083v1.561a4.968,4.968,0,0,1-1.328.191q-2.324,0-2.324-2.565V33.513h-1.478V32.019h1.478V29.835Zm9.563,4.2h1.229a2.2,2.2,0,0,0,1.473-.481,1.718,1.718,0,0,0,.544-1.37,1.872,1.872,0,0,0-.452-1.341,1.821,1.821,0,0,0-1.382-.477,1.926,1.926,0,0,0-1.336.469,1.567,1.567,0,0,0-.523,1.224h-2.017a3.053,3.053,0,0,1,.494-1.693,3.318,3.318,0,0,1,1.378-1.191,4.489,4.489,0,0,1,1.98-.427,4.157,4.157,0,0,1,2.843.909,3.19,3.19,0,0,1,1.033,2.528,2.568,2.568,0,0,1-.519,1.531,3.253,3.253,0,0,1-1.341,1.083,2.965,2.965,0,0,1,1.515,1.071,2.932,2.932,0,0,1,.519,1.743,3.246,3.246,0,0,1-1.116,2.59,4.9,4.9,0,0,1-5.79.033,3.062,3.062,0,0,1-1.112-2.474h2.017a1.687,1.687,0,0,0,.535,1.295,2.03,2.03,0,0,0,1.44.5,2.094,2.094,0,0,0,1.478-.5,1.868,1.868,0,0,0,.54-1.444,1.887,1.887,0,0,0-.564-1.469,2.413,2.413,0,0,0-1.677-.515h-1.187ZM136.014,41h-2.009V31.291l-2.963,1.01V30.607l4.715-1.735h.257Zm12.244-10.965L143.427,41H141.31l4.823-10.467h-6.25V28.914h8.375ZM161.5,35.6h-4.964v3.719h5.8V41h-7.9V28.914h7.844v1.693h-5.744v3.337H161.5Zm3.611,3.271a1.152,1.152,0,0,1,.872.32,1.11,1.11,0,0,1,.307.8,1.071,1.071,0,0,1-.307.784,1.36,1.36,0,0,1-1.727,0,1.053,1.053,0,0,1-.315-.789,1.11,1.11,0,0,1,.307-.8A1.141,1.141,0,0,1,165.108,38.875Zm12.418-8.268h-3.769V41h-2.083V30.607h-3.735V28.914h9.587Zm.506,8.268a1.152,1.152,0,0,1,.872.32,1.11,1.11,0,0,1,.307.8,1.071,1.071,0,0,1-.307.784,1.36,1.36,0,0,1-1.727,0,1.053,1.053,0,0,1-.315-.789,1.11,1.11,0,0,1,.307-.8A1.141,1.141,0,0,1,178.033,38.875Z" transform="translate(878.5 5810.53)" fill="#12263f"/>
      <g id="Grupo_877408" data-name="Grupo 877408" transform="translate(590.705 5694.796) rotate(135)">
        <g id="Grupo_871598" data-name="Grupo 871598" transform="translate(21.147 22.531) rotate(180)">
          <path id="Trazado_213857" data-name="Trazado 213857" d="M2.855,22.531,0,19.677l8.411-8.412L0,2.854,2.855,0,14.12,11.266Z" transform="translate(7.026 0)" fill="#18b8c4"/>
          <path id="Trazado_213858" data-name="Trazado 213858" d="M0,11.7,4.421,7.275,0,2.854,2.854,0,10.13,7.275,2.854,14.55Z" transform="translate(0 3.991)" fill="#18b8c4"/>
        </g>
        <g id="Grupo_872766" data-name="Grupo 872766" transform="translate(110 0)">
          <path id="Trazado_213857-2" data-name="Trazado 213857" d="M2.855,0,0,2.854l8.411,8.412L0,19.677l2.855,2.854L14.12,11.266Z" transform="translate(7.026)" fill="#18b8c4"/>
          <path id="Trazado_213858-2" data-name="Trazado 213858" d="M0,2.854,4.421,7.275,0,11.7,2.854,14.55,10.13,7.275,2.854,0Z" transform="translate(0 3.99)" fill="#18b8c4"/>
        </g>
        <path id="Trazado_217429" data-name="Trazado 217429" d="M0,0H100.69" transform="translate(14.892 11.266)" fill="none" stroke="#18b8c4" stroke-width="2"/>
      </g>
      <g id="Grupo_1072222" data-name="Grupo 1072222" transform="translate(1025.228 5678.863) rotate(45)">
        <g id="Grupo_871598-2" data-name="Grupo 871598" transform="translate(21.147 22.531) rotate(180)">
          <path id="Trazado_213857-3" data-name="Trazado 213857" d="M2.855,0,0,2.854l8.411,8.412L0,19.677l2.855,2.854L14.12,11.266Z" transform="translate(7.026 0)" fill="#18b8c4"/>
          <path id="Trazado_213858-3" data-name="Trazado 213858" d="M0,2.854,4.421,7.275,0,11.7,2.854,14.55,10.13,7.275,2.854,0Z" transform="translate(0 3.99)" fill="#18b8c4"/>
        </g>
        <g id="Grupo_872766-2" data-name="Grupo 872766" transform="translate(110 0)">
          <path id="Trazado_213857-4" data-name="Trazado 213857" d="M2.855,22.531,0,19.677l8.411-8.412L0,2.854,2.855,0,14.12,11.266Z" transform="translate(7.026 0)" fill="#18b8c4"/>
          <path id="Trazado_213858-4" data-name="Trazado 213858" d="M0,11.7,4.421,7.275,0,2.854,2.854,0,10.13,7.275,2.854,14.55Z" transform="translate(0 3.991)" fill="#18b8c4"/>
        </g>
        <path id="Trazado_217429-2" data-name="Trazado 217429" d="M0,0H100.69" transform="translate(14.892 11.266)" fill="none" stroke="#18b8c4" stroke-width="2"/>
      </g>
      <g id="Grupo_877409" data-name="Grupo 877409" transform="translate(847.158 5844.062) rotate(180)">
        <g id="Grupo_871598-3" data-name="Grupo 871598" transform="translate(21.147 22.531) rotate(180)">
          <path id="Trazado_213857-5" data-name="Trazado 213857" d="M2.855,22.531,0,19.677l8.411-8.412L0,2.854,2.855,0,14.12,11.266Z" transform="translate(7.026)" fill="#18b8c4"/>
          <path id="Trazado_213858-5" data-name="Trazado 213858" d="M0,11.7,4.421,7.275,0,2.854,2.854,0,10.13,7.275,2.854,14.55Z" transform="translate(0 3.991)" fill="#18b8c4"/>
        </g>
        <g id="Grupo_872766-3" data-name="Grupo 872766" transform="translate(73.169 0)">
          <path id="Trazado_213857-6" data-name="Trazado 213857" d="M2.855,0,0,2.854l8.411,8.412L0,19.677l2.855,2.854L14.12,11.266Z" transform="translate(7.026)" fill="#18b8c4"/>
          <path id="Trazado_213858-6" data-name="Trazado 213858" d="M0,2.854,4.421,7.275,0,11.7,2.854,14.55,10.13,7.275,2.854,0Z" transform="translate(0 3.99)" fill="#18b8c4"/>
        </g>
        <path id="Trazado_217429-3" data-name="Trazado 217429" d="M0,0H63.86" transform="translate(14.892 11.266)" fill="none" stroke="#18b8c4" stroke-width="2"/>
      </g>
    </g>
  </g>
</svg>
