<svg id="Grupo_872743" data-name="Grupo 872743" xmlns="http://www.w3.org/2000/svg" xmlns:xlink="http://www.w3.org/1999/xlink" width="84.097" height="84.119" viewBox="0 0 84.097 84.119">
  <defs>
    <clipPath id="clip-path">
      <rect id="Rectángulo_292196" data-name="Rectángulo 292196" width="84.097" height="84.119" fill="#359547"/>
    </clipPath>
  </defs>
  <g id="Grupo_872742" data-name="Grupo 872742" clip-path="url(#clip-path)">
    <path id="Trazado_255998" data-name="Trazado 255998" d="M42.49,265.631a61.8,61.8,0,0,0,8.16-2.738c4.932-1.723,9.843-3.508,14.763-5.266,1.752-.626,3.518-1.219,5.248-1.9a7.546,7.546,0,0,0,4.985-5.163,6.2,6.2,0,0,0-5.242-7.522,9.53,9.53,0,0,0-3.645.358c-3.579,1.016-7.169,1.994-10.756,2.983-1.178.325-1.238.276-1.81-.771a7.261,7.261,0,0,0-4.011-3.455c-3.73-1.35-7.5-2.582-11.27-3.821a5.387,5.387,0,0,1-2.3-1.472,12.375,12.375,0,0,0-7.182-3.654c-4.758-.778-8.454,1.091-11.414,4.642a3.105,3.105,0,0,1-2.7,1.286c-4.13-.065-8.262-.014-12.394-.033a3.143,3.143,0,0,0-2.688.907c-.054.064-.151.047-.232.03v21.683a1.985,1.985,0,0,0,2.088,1.232c2.951-.031,5.9-.007,8.855-.013,1.568,0,2.135-.543,2.082-2.13-.025-.751.181-.979.935-.935,1.144.068,2.295.028,3.443.015a1.6,1.6,0,0,0,1.832-1.639c.042-.526.286-.472.634-.431a10.664,10.664,0,0,1,4.154,1.4c3.373,1.954,6.806,3.793,10.36,5.4a16.73,16.73,0,0,0,3.811,1.19c.146.028.342-.037.4.182h3.449c-.02-.323.246-.327.443-.366M9.062,259.677c-1.723-.041-3.449-.038-5.172,0-.531.012-.617-.166-.616-.647q.025-8.088,0-16.176c0-.516.147-.64.645-.632,1.724.031,3.449.035,5.172,0,.56-.012.685.174.681.7-.024,2.709-.011,5.419-.011,8.129,0,2.628-.015,5.255.013,7.883.006.553-.111.758-.71.744m6.913-10.271c0,2.19-.014,4.379.011,6.569.005.487-.1.691-.629.649-.733-.057-1.689.233-2.147-.132-.49-.389-.153-1.386-.157-2.116-.017-3.8,0-7.609-.02-11.413,0-.559.124-.8.721-.739.7.073,1.609-.283,2.064.131s.14,1.342.15,2.042c.023,1.669.007,3.339.007,5.008m24.871,13.3a13.129,13.129,0,0,1-6.129-1.539c-2.975-1.436-5.905-2.953-8.747-4.636a13.432,13.432,0,0,0-5.93-1.961c-.716-.051-.807-.333-.794-.952.039-1.942.014-3.886.014-5.829q0-2.955,0-5.911a1.309,1.309,0,0,1,.115-.794c1.551-2.317,3.477-4.264,6.291-4.786a9.285,9.285,0,0,1,9.305,3.353,3.2,3.2,0,0,0,1.5,1.064c4.033,1.351,8.058,2.727,12.086,4.09a5.562,5.562,0,0,1,2.258,1.278,3.2,3.2,0,0,1-3.2,5.4c-2.448-.759-4.886-1.552-7.329-2.327-2.339-.743-4.677-1.491-7.02-2.219a1.644,1.644,0,1,0-.984,3.12q4.906,1.578,9.826,3.115a45.48,45.48,0,0,0,5.479,1.649,6.346,6.346,0,0,0,7.212-4.306,1.227,1.227,0,0,1,.976-.915c4.028-1.1,8.047-2.22,12.071-3.329a5.137,5.137,0,0,1,2.185-.213,3.129,3.129,0,0,1,2.106,4.948,5.016,5.016,0,0,1-2.465,1.827q-12.165,4.364-24.331,8.722a14.462,14.462,0,0,1-4.5,1.147" transform="translate(0 -181.878)" fill="#359547"/>
    <path id="Trazado_255999" data-name="Trazado 255999" d="M70.7,255.219a8.647,8.647,0,0,0,3.892-2.764,6.421,6.421,0,0,0-4.351-10.412,9.944,9.944,0,0,0-3.718.438c-3.729,1.046-7.465,2.068-11.2,3.109-.289.081-.483.164-.639-.216a7.9,7.9,0,0,0-5.3-4.5c-3.7-1.215-7.386-2.5-11.08-3.741a2.8,2.8,0,0,1-1.2-.791,12.661,12.661,0,0,0-11.55-4.117c-3.555.5-6.169,2.637-8.289,5.415a1.259,1.259,0,0,1-1.144.571c-4.6-.019-9.193.009-13.789-.027A2.412,2.412,0,0,0,0,239.292c.081.018.178.034.232-.03a3.143,3.143,0,0,1,2.688-.907c4.131.019,8.263-.032,12.394.033a3.1,3.1,0,0,0,2.7-1.286c2.96-3.551,6.657-5.42,11.414-4.642a12.375,12.375,0,0,1,7.182,3.654,5.39,5.39,0,0,0,2.3,1.472c3.768,1.238,7.539,2.47,11.27,3.821a7.259,7.259,0,0,1,4.011,3.455c.572,1.047.631,1.1,1.81.771,3.587-.989,7.177-1.966,10.756-2.982a9.53,9.53,0,0,1,3.645-.358,6.2,6.2,0,0,1,5.242,7.522,7.545,7.545,0,0,1-4.985,5.163c-1.73.676-3.5,1.27-5.248,1.9-4.92,1.758-9.83,3.543-14.763,5.266a61.774,61.774,0,0,1-8.16,2.739c-.2.039-.463.043-.443.366.988-.344,2.035-.45,3.026-.808q12.8-4.631,25.624-9.218" transform="translate(0 -181.126)" fill="#359547"/>
    <path id="Trazado_256000" data-name="Trazado 256000" d="M99.6,5.6C96.4,5.58,93.2,5.59,89.993,5.59a1.616,1.616,0,0,0-1.531.911,1.774,1.774,0,0,0-.165,1.12c.143.9-.257,1.1-1.08,1.047-1.146-.067-2.3-.037-3.448-.008a1.5,1.5,0,0,0-1.657,1.455c-.025.635-.316.628-.766.575a10.488,10.488,0,0,1-4.074-1.4A103.39,103.39,0,0,0,66.519,3.726a12.818,12.818,0,0,0-8.89-.749c-2.769.815-5.467,1.873-8.179,2.87a.945.945,0,0,1-1.188-.281c-1.505-1.553-3.047-3.07-4.576-4.6C42.4-.315,41.714-.321,40.451.942Q31.768,9.622,23.087,18.3c-1.336,1.336-1.338,1.959-.009,3.288L53.45,51.961c1.151,1.151,1.984,1.152,3.142-.006q7.84-7.839,15.67-15.688a1.562,1.562,0,0,1,1.416-.58,7.039,7.039,0,0,0,2.206-.107,13.345,13.345,0,0,0,8.144-5.4,1.327,1.327,0,0,1,1.2-.613c4.626.022,9.252.013,13.878.012,1.7,0,2.224-.518,2.225-2.187q0-4.887,0-9.773c0-3.395.005-6.789,0-10.184A1.628,1.628,0,0,0,99.6,5.6M41.678,4.344c.324-.331.5-.251.776.036.969,1,1.958,1.978,2.949,2.954.25.246.423.418-.034.639a7.3,7.3,0,0,1-7.1-.254c1.2-1.186,2.323-2.264,3.409-3.375M29.795,23.661c-1.145-1.144-2.278-2.291-3.431-3.418-.231-.225-.231-.349,0-.572,1.148-1.131,2.279-2.279,3.423-3.427a6.867,6.867,0,0,1,.012,7.417M58.4,45.525c-1.024.985-2.027,1.994-3.018,3.013-.267.274-.43.308-.715.014q-1.51-1.563-3.071-3.075c-.294-.287-.212-.425.1-.581a7.814,7.814,0,0,1,3.353-.82,7.723,7.723,0,0,1,3.192.778c.353.176.541.3.156.672m6.164-6.17q-1.556,1.52-3.077,3.076a.494.494,0,0,1-.749.1,10.2,10.2,0,0,0-11.427,0,.5.5,0,0,1-.754-.1q-8-8.021-16.022-16.017c-.3-.3-.243-.484-.048-.808a10.232,10.232,0,0,0,0-11.3c-.232-.384-.216-.572.1-.871,1.007-.966,2-1.949,2.959-2.96.322-.339.53-.286.89-.07a10.275,10.275,0,0,0,11.234.009c.248-.147.446-.391.769-.057,1.043,1.077,2.115,2.126,3.25,3.261a6.211,6.211,0,0,0-4.015,2.351,4.432,4.432,0,0,1-2.392,1.719,9.269,9.269,0,0,0-6.022,10A9.344,9.344,0,0,0,57.318,29.6c.221-.626.423-.784,1.076-.53,1.37.535,2.772.993,4.177,1.432.436.136.55.321.479.751a10.135,10.135,0,0,0,1.6,7.422c.191.292.138.451-.092.676m-13.84-12.91a22.092,22.092,0,0,0,3.013,1.039c.724.2.707.526.482,1.108a6.078,6.078,0,0,1-6.857,3.795,6.151,6.151,0,0,1-4.884-6.35,5.857,5.857,0,0,1,3.194-4.958c.287-.166.528-.351.651.237a7,7,0,0,0,4.4,5.129m18.054,8.691c-.487.509-.952,1.039-1.463,1.6A7.13,7.13,0,0,1,66.2,33.269a14.229,14.229,0,0,0,2.482,1.366c.354.138.331.258.1.5m13.3-8.281a1.064,1.064,0,0,1-.144.626c-1.508,2.236-3.369,4.135-6.072,4.7a9.252,9.252,0,0,1-9.476-3.278,3.4,3.4,0,0,0-1.56-1.113c-4.058-1.364-8.109-2.747-12.165-4.115a5.273,5.273,0,0,1-2.228-1.326,3.186,3.186,0,0,1,3.25-5.3q6.949,2.176,13.889,4.384c.156.049.312.1.469.145a1.654,1.654,0,1,0,.956-3.139c-3.637-1.161-7.279-2.308-10.917-3.465a1.654,1.654,0,0,1-.66-.294c-2-1.979-3.985-3.976-6.035-6.029C53.5,7.872,55.52,7.112,57.55,6.4a10.106,10.106,0,0,1,7.592.323,99.958,99.958,0,0,1,10.534,5.447,13.111,13.111,0,0,0,5.808,1.81c.457.029.6.187.6.645-.016,4.078-.01,8.156-.007,12.234M88.3,25.547c0,.6-.125.832-.76.764-.7-.075-1.63.21-2.05-.146-.438-.371-.121-1.329-.129-2.029-.018-1.666-.006-3.332-.006-5,0-2.158.018-4.316-.012-6.473-.007-.543.087-.814.7-.737.721.091,1.659-.307,2.12.17.421.436.118,1.355.12,2.06.011,3.8-.009,7.593.02,11.39m9.755.165c0,.447-.094.606-.575.6q-2.667-.044-5.335,0c-.469.007-.589-.128-.586-.592.022-2.736.011-5.473.011-8.209,0-2.654.014-5.309-.012-7.963-.005-.52.11-.7.665-.685,1.75.038,3.5.031,5.253,0,.476-.008.58.144.579.6q-.022,8.127,0,16.254" transform="translate(-17.235 0)" fill="#359547"/>
    <path id="Trazado_256001" data-name="Trazado 256001" d="M116.032,287.361A1.6,1.6,0,0,0,114.379,289a1.649,1.649,0,0,0,1.592,1.636,1.694,1.694,0,0,0,1.676-1.657,1.656,1.656,0,0,0-1.615-1.617" transform="translate(-89.269 -224.276)" fill="#359547"/>
    <path id="Trazado_256002" data-name="Trazado 256002" d="M255.413,92.558a1.624,1.624,0,0,0-.04,3.248,1.625,1.625,0,1,0,.04-3.248" transform="translate(-198.072 -72.238)" fill="#359547"/>
  </g>
</svg>
