<svg xmlns="http://www.w3.org/2000/svg" xmlns:xlink="http://www.w3.org/1999/xlink" width="63" height="63.196" viewBox="0 0 63 63.196"><defs><radialGradient id="a" cx="0.741" cy="0.152" r="0.5" gradientUnits="objectBoundingBox"><stop offset="0" stop-color="#fff"/><stop offset="1" stop-color="#e1efe3"/></radialGradient><clipPath id="b"><rect width="35.216" height="35.214" fill="#2b7e3b"/></clipPath></defs><g transform="translate(-301.667 -5845)"><g transform="translate(16.667 -1475)"><circle cx="31.5" cy="31.5" r="31.5" transform="translate(285 7320)" fill="url(#a)"/><path d="M8407.5,11782a31.476,31.476,0,0,1-31.5-31.5,31.842,31.842,0,0,1,.514-5.7,38.533,38.533,0,0,0,51.173,29.878A31.38,31.38,0,0,1,8407.5,11782Z" transform="translate(-8091 -4398.805)" fill="#bce2c1"/></g><g transform="translate(318.667 5859)"><g clip-path="url(#b)"><path d="M33.95,6.449a2.121,2.121,0,0,0-2.425.423c-1.323,1.3-2.631,2.623-3.943,3.938a2.914,2.914,0,0,0-.23.3l-.088-.058V10.71q0-4.987,0-9.974C27.264.2,27.072,0,26.547,0H4.112c-.507,0-.7.2-.7.712,0,.8-.011,1.609.006,2.414,0,.238-.068.29-.294.287-.8-.014-1.609-.007-2.414,0-.507,0-.706.2-.706.71Q0,19.31,0,34.5c0,.51.2.711.705.711H23.141c.513,0,.713-.2.715-.7,0-.793.011-1.586-.005-2.378-.005-.251.037-.344.319-.335.745.024,1.491.008,2.236.008.706,0,.859-.15.859-.843q0-6.673-.006-13.346a.746.746,0,0,1,.241-.585q3.5-3.481,6.983-6.972a2.272,2.272,0,0,0,.73-1.528A2.167,2.167,0,0,0,33.95,6.449M4.536,3.057c.029-.566.014-1.136,0-1.7,0-.165.037-.245.213-.219a1.226,1.226,0,0,0,.177,0q10.4,0,20.8-.007c.311,0,.406.061.4.393q-.021,5.218,0,10.435a.66.66,0,0,1-.218.523c-.674.659-1.335,1.331-2.059,2.057,0-3.487,0-6.882,0-10.276,0-.7-.149-.853-.849-.853q-9.052,0-18.1.007c-.287,0-.384-.053-.368-.358M22.4,34.078H6.672c-1.739,0-3.479-.007-5.218.007-.269,0-.325-.068-.324-.329q.011-14.446,0-28.891c0-.262.057-.328.325-.328q10.471.013,20.942,0c.258,0,.331.05.331.323q-.016,5.271,0,10.541a.588.588,0,0,1-.194.461q-1.339,1.322-2.658,2.662a.7.7,0,0,1-.556.223q-8.111-.008-16.222,0c-.658,0-.822.161-.822.808q0,6.3,0,12.6c0,.623.171.791.8.791H20.788c.627,0,.8-.17.8-.8q0-4.49,0-8.98a.531.531,0,0,1,.3-.551,5.393,5.393,0,0,0,.844-.774c0,4.046,0,8.021.008,12,0,.306-.165.245-.332.245M20.455,31.5c0,.248-.058.309-.308.309q-8.218-.012-16.436,0c-.248,0-.31-.057-.309-.307q.013-5.662,0-11.323c0-.2,0-.31.269-.31q7.419.015,14.838.008c.046,0,.092.006.174.011-.39.914-.775,1.809-1.153,2.708-.065.154-.185.119-.3.119-.734,0-1.467.01-2.2,0-.22,0-.273.054-.273.273,0,.869-.008.869.842.869.3,0,.592,0,.887,0,.277,0,.545-.071.692.329.111.3.453.28.744.154q1.185-.512,2.373-1.018a1.049,1.049,0,0,1,.1-.032c.083.065.046.153.046.227,0,2.662,0,5.324.008,7.987m-.02-9.477c-.509.21-1.013.432-1.519.65-.051.022-.1.065-.188.012l.785-1.843c.345.361.643.674.943.986.072.075.136.13-.021.195m5.445,8.648q-.887-.02-1.774,0c-.2,0-.254-.053-.253-.254q.009-4.773,0-9.545a.36.36,0,0,1,.093-.289c.709-.706,1.414-1.416,2.18-2.186,0,4.072,0,8.046,0,12.019,0,.2-.052.258-.253.254m3.757-17.369q-3.661,3.638-7.3,7.294l-.577.576c-.049.048-.1.094-.143.133-.114-.011-.154-.093-.21-.149-.353-.349-.693-.712-1.059-1.047-.193-.176-.2-.275-.006-.465,1.023-1,2.029-2.018,3.04-3.029q2.4-2.4,4.787-4.795c.178-.179.278-.222.465-.012a13.7,13.7,0,0,0,1,1c.2.183.208.289.006.49m1.8-1.809c-.009.007-.017.016-.026.024-.251.227-.45.646-.74.655-.267.008-.47-.411-.712-.632a1.224,1.224,0,0,1-.1-.1c-.2-.228-.636-.451-.572-.655.1-.31.465-.535.718-.8a1.11,1.11,0,0,1,.1-.078,1.5,1.5,0,0,1,.13.1c.4.4.8.8,1.2,1.2.107.1.13.186,0,.282m2.334-2.338c-.407.412-.823.815-1.224,1.232-.128.133-.2.144-.336,0-.375-.393-.761-.776-1.153-1.153-.123-.119-.122-.192,0-.31.442-.427.864-.874,1.313-1.294a.963.963,0,0,1,1.119-.169.993.993,0,0,1,.6.927,1.016,1.016,0,0,1-.318.763" transform="translate(0 0)" fill="#2b7e3b"/><path d="M66.086,72.354a6.247,6.247,0,1,0-6.222-6.2,6.256,6.256,0,0,0,6.222,6.2m-.012-11.359A5.111,5.111,0,1,1,61,66.082a5.117,5.117,0,0,1,5.074-5.087" transform="translate(-54.184 -54.179)" fill="#2b7e3b"/><path d="M62.22,263.293q-6.8.015-13.6.007c-.818,0-.8,0-.822.82-.006.274.075.324.332.322,2.343-.011,4.686-.006,7.028-.006H61.8c.78,0,.763,0,.787-.784.009-.3-.08-.359-.368-.359" transform="translate(-43.267 -238.309)" fill="#2b7e3b"/><path d="M62.23,287.23q-6.8.016-13.6.008c-.822,0-.809,0-.825.816-.005.265.061.328.327.327,2.343-.012,4.686-.007,7.028-.007H61.8c.784,0,.768,0,.79-.78.009-.3-.068-.364-.363-.363" transform="translate(-43.273 -259.975)" fill="#2b7e3b"/><path d="M72.041,240.506c1.041-.012,2.082-.006,3.123-.006h2.591c.84,0,.829,0,.841-.835,0-.251-.063-.309-.31-.307-1.881.011-3.762.006-5.643.006-.884,0-.875,0-.876.87,0,.221.057.274.274.271" transform="translate(-64.957 -216.646)" fill="#2b7e3b"/><path d="M104.364,85.07a1.038,1.038,0,0,1-1.311-.61c-.13-.508-.418-.511-.8-.479a.632.632,0,0,1-.177,0c-.323-.067-.312.123-.269.343a2.275,2.275,0,0,0,1.457,1.779c.107.043.212.049.229.215.051.506.061.5.59.5a1.42,1.42,0,0,1,.213,0c.249.038.384-.031.328-.313-.048-.247.064-.355.3-.454a2.142,2.142,0,0,0,1.393-2,2.25,2.25,0,0,0-2.272-2.344,1.137,1.137,0,0,1-.18-2.258,1.115,1.115,0,0,1,1.28.858c.051.218.126.3.338.266a1.746,1.746,0,0,1,.248,0h.213c.424,0,.424,0,.333-.427a2.224,2.224,0,0,0-1.45-1.7c-.116-.045-.2-.071-.211-.23-.033-.487-.042-.486-.538-.486a2.575,2.575,0,0,1-.319,0c-.206-.026-.318.028-.274.262.05.266-.049.405-.319.514a2.221,2.221,0,0,0-1.265,2.777,2.266,2.266,0,0,0,2.179,1.561,1.152,1.152,0,0,1,1.1,1.009,1.138,1.138,0,0,1-.823,1.214" transform="translate(-92.128 -70.351)" fill="#2b7e3b"/></g></g></g></svg>