<svg xmlns="http://www.w3.org/2000/svg" xmlns:xlink="http://www.w3.org/1999/xlink" width="63" height="63.196" viewBox="0 0 63 63.196">
  <defs>
    <radialGradient id="radial-gradient" cx="0.741" cy="0.152" r="0.5" gradientUnits="objectBoundingBox">
      <stop offset="0" stop-color="#fff"/>
      <stop offset="1" stop-color="#e1efe3"/>
    </radialGradient>
    <clipPath id="clip-path">
      <rect id="Rect치ngulo_291628" data-name="Rect치ngulo 291628" width="29.823" height="37.265" fill="#2b7e3b"/>
    </clipPath>
  </defs>
  <g id="Grupo_872663" data-name="Grupo 872663" transform="translate(-301.667 -5845)">
    <g id="Grupo_870604" data-name="Grupo 870604" transform="translate(16.667 -1475)">
      <circle id="Elipse_4720" data-name="Elipse 4720" cx="31.5" cy="31.5" r="31.5" transform="translate(285 7320)" fill="url(#radial-gradient)"/>
      <path id="Sustracci칩n_8" data-name="Sustracci칩n 8" d="M8407.5,11782a31.476,31.476,0,0,1-31.5-31.5,31.842,31.842,0,0,1,.514-5.7,38.533,38.533,0,0,0,51.173,29.878A31.38,31.38,0,0,1,8407.5,11782Z" transform="translate(-8091 -4398.805)" fill="#bce2c1"/>
    </g>
    <g id="Grupo_872658" data-name="Grupo 872658" transform="translate(318.451 5857.479)">
      <g id="Grupo_872652" data-name="Grupo 872652" clip-path="url(#clip-path)">
        <path id="Trazado_255698" data-name="Trazado 255698" d="M3.079.267A3.009,3.009,0,0,0,1,3.275Q.989,18.614,1,33.953a3.009,3.009,0,0,0,3.158,3.163q7.342.006,14.685,0c.537,0,.544-.008.546-.549,0-.46-.007-.921,0-1.381s.09-.533.536-.538c.981-.01,1.963,0,2.944,0q2.417,0,4.834,0c.563,0,.625.066.631.627,0,.472,0,.945,0,1.418.005.381.043.415.415.426.569.017.594-.007.6-.577,0-.472-.01-.945,0-1.417.011-.369.086-.438.451-.474.62-.061.776-.221.778-.849q.009-2.163,0-4.325c0-.607-.14-.745-.736-.788-.408-.029-.483-.1-.494-.507a5.089,5.089,0,0,1,.329-2.233,12.183,12.183,0,0,0,.9-4.934c0-.775.016-1.551-.006-2.326a2.079,2.079,0,0,0-1.863-2.114,1.97,1.97,0,0,0-.961.143.513.513,0,0,1-.664-.2,2.033,2.033,0,0,0-2.276-.8c-.376.09-.455.021-.48-.362-.01-.145,0-.291,0-.436q0-5.87,0-11.741A2.919,2.919,0,0,0,22.157.22c-.128-.04-.3-.024-.334-.22H3.426C3.4.2,3.217.214,3.079.267M29.45,30.112c-.013,1.029-.015,2.059,0,3.088,0,.262-.078.318-.326.317-1.768-.01-3.537-.006-5.3-.006-1.744,0-3.488,0-5.232.005-.242,0-.333-.043-.329-.311.017-1.041.015-2.083,0-3.124,0-.243.069-.3.3-.3q5.287.011,10.573,0c.265,0,.317.086.314.33M23.5,19.858c.311-.027.722.1.912-.062s.052-.588.06-.9c.01-.387-.008-.776.006-1.163a.931.931,0,1,1,1.856.035c0,.606.008,1.212,0,1.817,0,.191.027.289.25.271a5,5,0,0,1,.763,0c.2.015.24-.07.234-.249-.011-.339-.016-.679,0-1.017a.939.939,0,0,1,.909-.91.894.894,0,0,1,.935.834c.044,2.357.227,4.75-.786,6.97a5.7,5.7,0,0,0-.427,2.677c.01.291-.055.391-.369.389q-4-.02-8,0c-.261,0-.368-.048-.345-.335a2.737,2.737,0,0,0-1.674-2.864,14.28,14.28,0,0,1-1.507-.868,2.52,2.52,0,0,1,.434-4.448.907.907,0,0,1,.137-.045,1.164,1.164,0,0,1,.137-.015c0,.694.012,1.382-.006,2.068-.007.248.074.31.3.292.3-.023.691.095.877-.055s.06-.566.061-.864q.008-4.852,0-9.7a1.53,1.53,0,0,1,.06-.538.923.923,0,0,1,1.757.024,1.725,1.725,0,0,1,.055.539c0,2.593,0,5.185-.006,7.778,0,.255.035.383.327.34s.692.128.866-.069c.147-.166.051-.551.052-.84,0-.7,0-1.405,0-2.108a.927.927,0,1,1,1.847,0q.013,1.363,0,2.726c0,.212.035.312.274.291m-.27-5.439v.373a2.313,2.313,0,0,0-1.852-.009c0-1.111.009-2.189,0-3.266a2.173,2.173,0,1,0-4.346,0q-.011,3.381,0,6.762c0,.275-.043.406-.351.487a3.748,3.748,0,0,0-.906,6.842c.551.349,1.132.649,1.7.976a1.636,1.636,0,0,1,.8,1.828c-.024.112-.076.134-.171.133-.145,0-.291-.007-.436,0a.612.612,0,0,0-.632.651c-.011.424,0,.848,0,1.272,0,.56,0,.56-.577.56-3.393,0-6.787,0-10.18-.007-.324,0-.431.068-.42.411.027.837.008.838.86.838h9.853c.465,0,.465,0,.465.483,0,.4,0,.8,0,1.2,0,.575.219.82.786.787.384-.022.477.1.462.469-.031.779-.009.78-.8.78H4.245a1.9,1.9,0,0,1-2.115-2.106q0-13.634-.006-27.267c0-.312.05-.428.4-.427q10.162.018,20.324,0c.3,0,.385.067.384.373-.012,2.618-.007,5.235-.007,7.853M4.045,1.241q8.633-.006,17.267,0a1.843,1.843,0,0,1,1.914,1.892c.01.5-.013.994.009,1.49.012.265-.051.345-.332.342-1.563-.016-3.126-.008-4.689-.008H12.688c-3.381,0-6.761-.007-10.142.01-.365,0-.446-.1-.423-.442.031-.458,0-.921.009-1.381a1.862,1.862,0,0,1,1.913-1.9" transform="translate(-0.889)" fill="#2b7e3b"/>
        <path id="Trazado_255699" data-name="Trazado 255699" d="M2.5.055A3.161,3.161,0,0,0,0,3.562Q0,18.629,0,33.695c0,.158,0,.315,0,.473a3.1,3.1,0,0,0,2.6,3.01,10.719,10.719,0,0,0,1.886.049q6.888.008,13.776.009c.268,0,.375-.043.362-.345-.027-.629,0-1.26-.012-1.89,0-.18.031-.254.235-.253q4.108.01,8.215,0c.216,0,.263.073.257.271-.013.424-.007.848,0,1.272,0,.3-.106.721.048.873.2.2.619.037.941.069.217.021.259-.073.255-.269-.011-.593.025-1.189-.014-1.78-.026-.383.1-.458.455-.44.539.028.791-.212.793-.71q.009-2.4,0-4.8a.623.623,0,0,0-.671-.689c-.567-.031-.567-.031-.567-.611,0-.133.01-.267,0-.4a2.541,2.541,0,0,1,.263-1.328,10.342,10.342,0,0,0,.686-2.135,22.015,22.015,0,0,0,.268-5.61,2.111,2.111,0,0,0-3-1.825c-.254.113-.332.047-.463-.157a2.058,2.058,0,0,0-2.374-.871c-.331.109-.357.031-.357-.274q.015-5.688.006-11.377c0-.363,0-.728-.018-1.09A3.081,3.081,0,0,0,21.37.13c-.145-.043-.312-.017-.436-.13.03.2.207.18.334.22a2.919,2.919,0,0,1,2.171,2.954q0,5.87,0,11.741c0,.145-.005.291,0,.436.025.382.1.452.48.362a2.033,2.033,0,0,1,2.276.8.513.513,0,0,0,.664.2,1.97,1.97,0,0,1,.961-.143,2.079,2.079,0,0,1,1.863,2.114c.022.775,0,1.551.006,2.326a12.185,12.185,0,0,1-.9,4.934,5.091,5.091,0,0,0-.33,2.233c.011.407.087.478.494.507.6.043.734.181.736.788q.009,2.163,0,4.325c0,.627-.158.788-.778.849-.365.036-.44.105-.451.474-.014.472,0,.945,0,1.417,0,.569-.027.594-.6.577-.372-.011-.41-.045-.415-.426-.006-.472,0-.945,0-1.418-.005-.561-.067-.625-.631-.627q-2.417-.005-4.834,0c-.981,0-1.963-.007-2.944,0-.447,0-.527.089-.536.538s0,.921,0,1.381c0,.541-.009.549-.546.549q-7.342,0-14.685,0A3.009,3.009,0,0,1,.106,33.953Q.1,18.614.106,3.275A3.009,3.009,0,0,1,2.19.267C2.327.214,2.51.2,2.537,0c-.013.019-.022.049-.04.055" transform="translate(0)" fill="#2b7e3b"/>
        <path id="Trazado_255700" data-name="Trazado 255700" d="M62.222,83.574c-.279.046-.619.018-.68-.268-.092-.437-.369-.347-.642-.35-.157,0-.316.01-.472,0-.187-.015-.226.069-.209.236a1.737,1.737,0,0,0,1.005,1.45c.115.058.227.088.237.27.03.528.043.527.564.527a2.612,2.612,0,0,1,.363,0c.267.038.334-.083.312-.327-.017-.2-.042-.373.227-.492a1.619,1.619,0,0,0,1-1.557,1.679,1.679,0,0,0-.965-1.586c-.385-.2-.776-.392-1.165-.586a.523.523,0,0,1-.329-.585.481.481,0,0,1,.463-.434c.278-.031.61-.025.676.274.086.392.324.335.582.331.182,0,.364-.011.545,0s.219-.077.2-.238a1.743,1.743,0,0,0-.991-1.425c-.2-.1-.276-.2-.242-.407.053-.321-.059-.474-.4-.412a1.236,1.236,0,0,1-.218,0,1.063,1.063,0,0,1-.181,0c-.351-.062-.518.056-.445.433a.291.291,0,0,1-.2.362,1.656,1.656,0,0,0-1.034,1.573A1.71,1.71,0,0,0,61.235,82c.365.188.733.37,1.1.551a.528.528,0,0,1,.344.577.508.508,0,0,1-.458.45" transform="translate(-53.998 -69.931)" fill="#2b7e3b"/>
        <path id="Trazado_255701" data-name="Trazado 255701" d="M29.838,199.043c-.03.256.087.293.309.291,1.246-.009,2.492,0,3.738,0h3.157c.871,0,.86,0,.875-.888,0-.28-.063-.363-.354-.362-2.262.013-4.524.006-6.786.008-.3,0-.706-.1-.872.052-.2.181-.031.594-.067.9" transform="translate(-26.73 -177.605)" fill="#2b7e3b"/>
        <path id="Trazado_255702" data-name="Trazado 255702" d="M30.249,223.421c1.222-.016,2.444-.007,3.666-.007h3.158c.869,0,.858,0,.873-.888,0-.28-.062-.362-.353-.36-2.275.013-4.549.006-6.824.008-.288,0-.664-.092-.838.053s-.023.547-.063.83c-.046.323.1.367.382.363" transform="translate(-26.759 -199.209)" fill="#2b7e3b"/>
        <path id="Trazado_255703" data-name="Trazado 255703" d="M38.14,246.693c.03-.247-.044-.327-.308-.326q-3.74.016-7.481,0c-.21,0-.311.03-.286.271a3.34,3.34,0,0,1,0,.689c-.027.255.084.29.306.289,1.247-.01,2.494,0,3.74,0,1.041,0,2.082,0,3.123,0,.288,0,.673.094.839-.053.2-.174.031-.57.067-.866" transform="translate(-26.956 -220.929)" fill="#2b7e3b"/>
        <path id="Trazado_255704" data-name="Trazado 255704" d="M60.447,175.447c1.233-.012,2.466-.005,3.7-.005.936,0,.924,0,.93-.942,0-.269-.092-.316-.333-.312-.713.014-1.426.005-2.139.005h-1.6c-.92,0-.906,0-.917.923,0,.29.1.333.355.33" transform="translate(-53.887 -156.203)" fill="#2b7e3b"/>
        <path id="Trazado_255705" data-name="Trazado 255705" d="M36.681,175.5c.628,0,.628,0,.628-.626s0-.62-.6-.62c-.646,0-.646,0-.646.645,0,.6,0,.6.616.6" transform="translate(-32.341 -156.258)" fill="#2b7e3b"/>
        <path id="Trazado_255706" data-name="Trazado 255706" d="M108.916,325.8c.606,0,.606,0,.606-.6,0-.64,0-.64-.637-.64-.6,0-.6,0-.6.6,0,.643,0,.643.634.643" transform="translate(-97.102 -291.052)" fill="#2b7e3b"/>
        <path id="Trazado_255707" data-name="Trazado 255707" d="M24.651,300.529c-.621,0-.621,0-.621.623s0,.619.627.619.617,0,.617-.628,0-.615-.622-.615" transform="translate(-21.549 -269.499)" fill="#2b7e3b"/>
        <path id="Trazado_255708" data-name="Trazado 255708" d="M96.859,25.235c.651,0,.651,0,.651-.663,0-.577,0-.577-.594-.577-.647,0-.647,0-.647.665,0,.575,0,.575.59.575" transform="translate(-86.329 -21.517)" fill="#2b7e3b"/>
        <path id="Trazado_255709" data-name="Trazado 255709" d="M120.9,25.236c.628,0,.628,0,.628-.611,0-.629,0-.629-.613-.629s-.627,0-.627.614,0,.626.612.626" transform="translate(-107.869 -21.518)" fill="#2b7e3b"/>
        <path id="Trazado_255710" data-name="Trazado 255710" d="M253.122,300.529c-.619,0-.619,0-.619.618s0,.624.62.624.623,0,.623-.623,0-.62-.625-.62" transform="translate(-226.432 -269.499)" fill="#2b7e3b"/>
      </g>
    </g>
  </g>
</svg>
