<svg xmlns="http://www.w3.org/2000/svg" xmlns:xlink="http://www.w3.org/1999/xlink" width="63" height="63.196" viewBox="0 0 63 63.196"><defs><radialGradient id="a" cx="0.741" cy="0.152" r="0.5" gradientUnits="objectBoundingBox"><stop offset="0" stop-color="#fff"/><stop offset="1" stop-color="#e1efe3"/></radialGradient><clipPath id="b"><rect width="35.63" height="35.613" fill="#2b7e3b"/></clipPath></defs><g transform="translate(-301.667 -6025.5)"><g transform="translate(16.667 -1294.5)"><circle cx="31.5" cy="31.5" r="31.5" transform="translate(285 7320)" fill="url(#a)"/><path d="M8407.5,11782a31.476,31.476,0,0,1-31.5-31.5,31.842,31.842,0,0,1,.514-5.7,38.533,38.533,0,0,0,51.173,29.878A31.38,31.38,0,0,1,8407.5,11782Z" transform="translate(-8091 -4398.805)" fill="#bce2c1"/></g><g transform="translate(315.667 6039.087)"><g transform="translate(0 0.413)" clip-path="url(#b)"><path d="M34.65,3.622a2,2,0,0,0-1.085-.168c-.189.012-.244-.049-.238-.237.013-.49.01-.981,0-1.472A1.72,1.72,0,0,0,31.606,0Q31.032,0,30.457,0a1.72,1.72,0,0,0-1.722,1.741c-.006.467-.017.934.005,1.4.012.256-.064.313-.314.311-1.843-.012-3.687-.006-5.53-.006-3.3,0-6.607,0-9.911.007-.283,0-.361-.072-.347-.35.024-.454.012-.909.005-1.364A1.721,1.721,0,0,0,10.92,0Q10.346,0,9.771,0a1.72,1.72,0,0,0-1.72,1.707c-.008.455-.026.911.007,1.364.024.324-.081.388-.389.383a1.723,1.723,0,0,0-1.918,1.9q0,6.122.005,12.245a.4.4,0,0,1-.289.443A9.185,9.185,0,1,0,17.581,30.178a.429.429,0,0,1,.469-.3c2.633.009,5.267.006,7.9.006h7.72a1.754,1.754,0,0,0,1.958-1.975q0-8.779,0-17.559c0-1.712,0-3.423,0-5.135a1.694,1.694,0,0,0-.977-1.589m-4.767.406c0-.717,0-1.434,0-2.151,0-.519.2-.72.707-.724.323,0,.645-.007.968,0a.573.573,0,0,1,.621.628q.008,2.24,0,4.48a.58.58,0,0,1-.652.634c-.334.005-.669.006-1,0a.58.58,0,0,1-.639-.647c-.006-.741,0-1.482,0-2.222M9.2,1.786a.572.572,0,0,1,.617-.632c.346-.008.693-.007,1.039,0A.581.581,0,0,1,11.5,1.8c.006.741,0,1.482,0,2.222s0,1.458,0,2.186c0,.469-.212.681-.672.687-.334,0-.669.007-1,0a.573.573,0,0,1-.619-.63q-.007-2.24,0-4.48M24.76,28.654a2.783,2.783,0,0,1-1.261.018l3.963-3.3c1.452-1.21,2.907-2.417,4.353-3.634.189-.159.279-.2.446.041.572.839,1.172,1.66,1.769,2.482.115.159.134.226-.081.32-3.066,1.353-6.126,2.72-9.191,4.076m9.713-.471c-.007.352-.262.545-.664.546-1.232,0-2.463,0-3.695,0H27.573l-.01-.064,6.916-3.07c0,.9.011,1.742-.005,2.586m.007-5.709v.44l-1.673-2.343c-.409-.572-.658-.605-1.193-.16l-1.731,1.441c0-.759,0-1.458,0-2.156,0-.24.167-.155.275-.156.958-.005,1.915-.013,2.872,0,.258,0,.312-.07.309-.316-.011-.839,0-.84-.855-.84q-1.508,0-3.016,0c-.537,0-.73.2-.731.737,0,1.137,0,2.274,0,3.411a.52.52,0,0,1-.21.452q-3.356,2.784-6.7,5.579c-.089.074-.164.165-.3.164-1.134,0-2.269,0-3.414,0,.062-.322.11-.616.177-.906.029-.124,0-.17-.123-.185-.273-.032-.545-.074-.816-.119s-.2.191-.223.306a7.511,7.511,0,0,1-1.577,3.526,7.7,7.7,0,0,1-8.28,2.86A7.617,7.617,0,0,1,1.3,27.852a8.03,8.03,0,0,1,15.55-3.883c.087.269.17.319.436.239.814-.245.838-.241.509-1.03A9.1,9.1,0,0,0,10.165,17.3c-.01,0-.019-.013-.078-.057.655,0,1.265,0,1.875,0,.468,0,.682-.213.684-.677q.006-1.616,0-3.232c0-.47-.211-.684-.675-.685q-1.616-.005-3.232,0c-.484,0-.687.212-.688.708,0,1.005,0,2.011,0,3.016,0,.342-.01.677.383.873-.487.1-.944.147-1.385.273-.109.031-.153-.013-.146-.124,0-.072,0-.144,0-.215q0-5.889,0-11.778c0-.657.377-.942,1.032-.8.155.033.114.127.115.211,0,.491,0,.981,0,1.472A1.722,1.722,0,0,0,9.819,8.046c.371,0,.742.007,1.113,0a1.724,1.724,0,0,0,1.713-1.715c.008-.443.021-.887-.005-1.328-.018-.311.054-.413.395-.412,4.871.013,9.743.007,14.614.012.354,0,.827-.155,1.029.065.175.19.045.658.057,1a4.931,4.931,0,0,0,.046,1.036,1.717,1.717,0,0,0,1.652,1.339c.407.009.814.011,1.221,0a1.719,1.719,0,0,0,1.673-1.68c.012-.514.009-1.029,0-1.544,0-.165.035-.22.214-.226.753-.026.939.143.939.9,0,1.484-.009,2.968.007,4.452,0,.311-.056.411-.4.411q-11.652-.017-23.3-.017c-.341,0-.47.051-.45.432.038.723.011.725.723.725q11.508,0,23.017-.007c.309,0,.414.053.412.394-.015,3.531-.009,7.062-.009,10.593M11.5,14.967c0,.287-.01.575,0,.861.009.188-.025.274-.245.268-.61-.016-1.221-.015-1.83,0-.2,0-.232-.072-.23-.246.009-.61.013-1.221,0-1.831,0-.2.072-.232.247-.23.61.009,1.221.013,1.83,0,.2,0,.236.072.23.247-.011.311,0,.622,0,.933" transform="translate(0 0)" fill="#2b7e3b"/><path d="M69.573,204.837c-.406-.139-.512-.331-.453-.7a.236.236,0,0,0,0-.036,1.384,1.384,0,0,1,0-.251c.06-.321-.073-.393-.382-.383-.768.024-.78.008-.763.783.006.29-.035.436-.366.545a2.848,2.848,0,0,0-1.457,4.282,2.877,2.877,0,0,0,2.461,1.3,1.714,1.714,0,0,1,1.655,1.732,1.726,1.726,0,0,1-3.443.153c-.025-.245.116-.589-.07-.708s-.509-.031-.772-.033c-.048,0-.1,0-.143,0-.118-.012-.156.03-.172.157a3.007,3.007,0,0,0,1.517,2.951c.255.141.651.1.761.371a2.152,2.152,0,0,1,.02.887c-.011.2.06.232.241.236.91.019.919.024.906-.888a.35.35,0,0,1,.3-.414,2.85,2.85,0,0,0,1.42-4.452,2.881,2.881,0,0,0-2.357-1.152,1.713,1.713,0,0,1-1.654-1.733,1.726,1.726,0,0,1,3.443-.152c.026.245-.116.589.071.708s.509.031.772.033c.048,0,.1,0,.143,0,.118.012.156-.029.172-.157a2.891,2.891,0,0,0-1.85-3.078" transform="translate(-59.346 -183.936)" fill="#2b7e3b"/><path d="M159.577,136.311c.492,0,.7-.206.7-.691q0-1.613,0-3.227c0-.464-.215-.675-.682-.677q-1.613,0-3.227,0c-.482,0-.684.213-.686.708,0,.526,0,1.052,0,1.578s0,1.076,0,1.613c0,.488.209.694.7.7q1.6,0,3.191,0m-2.667-3.391c.213-.192.727-.061,1.108-.053s.855-.159,1.062.07c.18.2.06.682.05,1.039-.011.39.171.913-.072,1.13-.212.189-.727.039-1.108.039-.365-.018-.855.18-1.062-.055-.18-.2-.06-.683-.05-1.04.011-.39-.171-.912.072-1.131" transform="translate(-140.742 -119.071)" fill="#2b7e3b"/><path d="M232.1,132.335a.57.57,0,0,0-.622-.627q-1.667-.01-3.334,0a.576.576,0,0,0-.637.648q-.007,1.649,0,3.3a.576.576,0,0,0,.639.646q1.649.008,3.3,0a.586.586,0,0,0,.656-.667c0-.55,0-1.1,0-1.649s.006-1.1,0-1.649m-1.348,2.821c-.323-.01-.646,0-.969,0s-.623-.009-.933,0c-.162.007-.2-.052-.2-.2q.011-.951,0-1.9c0-.162.052-.2.2-.2.634.007,1.268.008,1.9,0,.162,0,.2.052.2.2-.007.634-.008,1.268,0,1.9,0,.162-.051.2-.2.2" transform="translate(-205.668 -119.062)" fill="#2b7e3b"/><path d="M303.937,132.358a.578.578,0,0,0-.638-.647q-1.649-.008-3.3,0a.584.584,0,0,0-.657.665q-.006,1.631,0,3.263a.584.584,0,0,0,.656.666q1.631.007,3.263,0c.463,0,.672-.216.676-.684,0-.526,0-1.052,0-1.578,0-.562,0-1.124,0-1.685m-1.366,2.8q-.933-.014-1.866,0c-.176,0-.22-.053-.217-.222q.014-.933,0-1.866c0-.176.053-.22.222-.217q.933.014,1.866,0c.176,0,.225.052.217.222-.013.3,0,.6,0,.9,0,.323-.01.646,0,.969.008.177-.053.22-.222.218" transform="translate(-270.608 -119.065)" fill="#2b7e3b"/><path d="M231.428,191.578c-.538,0-1.076,0-1.613,0s-1.076,0-1.613,0c-.473,0-.689.208-.69.668q-.006,1.631,0,3.263a.584.584,0,0,0,.658.664q1.631.007,3.263,0c.462,0,.672-.217.673-.686q0-1.613,0-3.227a.593.593,0,0,0-.677-.682m-.547,3.391c-.214.192-.728.061-1.108.052s-.855.16-1.061-.07c-.18-.2-.06-.682-.05-1.039.011-.39-.171-.913.072-1.13.213-.189.727-.039,1.108-.039.365.019.855-.179,1.062.056.18.2.06.683.05,1.04-.011.39.171.912-.072,1.131" transform="translate(-205.671 -173.187)" fill="#2b7e3b"/><path d="M165.618,194.087q0-.862,0-1.723c0-.591-.183-.778-.763-.778h-2.37c-.916,0-.907,0-.9.907,0,.218.079.248.268.246.754-.01,1.508.007,2.262-.01.264-.006.368.042.358.34-.025.741-.008,1.484-.008,2.226,0,.915,0,.906.909.894.22,0,.247-.083.244-.27-.01-.61,0-1.221,0-1.831" transform="translate(-146.077 -173.195)" fill="#2b7e3b"/><path d="M179.849,263.177c-.552.057-.552.057-.509.6s.043.545.576.545c.626,0,.626,0,.571-.628-.051-.581-.051-.581-.637-.521" transform="translate(-162.111 -237.893)" fill="#2b7e3b"/><path d="M84.442,107.784c-.578,0-.578,0-.578.572s0,.578.572.578.578,0,.578-.572,0-.578-.571-.578" transform="translate(-75.814 -97.438)" fill="#2b7e3b"/></g></g></g></svg>