<svg id="Grupo_872744" data-name="Grupo 872744" xmlns="http://www.w3.org/2000/svg" xmlns:xlink="http://www.w3.org/1999/xlink" width="84.999" height="84.972" viewBox="0 0 84.999 84.972">
  <defs>
    <clipPath id="clip-path">
      <rect id="Rectángulo_292194" data-name="Rectángulo 292194" width="84.999" height="84.972" fill="#2b7e3b"/>
    </clipPath>
  </defs>
  <g id="Grupo_872735" data-name="Grupo 872735" clip-path="url(#clip-path)">
    <path id="Trazado_255971" data-name="Trazado 255971" d="M74.246,55.164c-1.7-1.7-3.382-3.4-5.095-5.079-.328-.322-.38-.577.017-.792.337-.183.411-1.014,1.1-.411.791.689,1.394.622,2.165-.138,1.2-1.182,2.386-2.378,3.575-3.571,1.026-1.03,1.019-1.611-.032-2.663-2.3-2.3-4.592-4.613-6.914-6.893a1.7,1.7,0,0,1-.543-1.34q.022-12.247.005-24.493A9.561,9.561,0,0,0,58.8.009Q32.888-.013,6.979.008a6.829,6.829,0,0,0-6.972,7c-.013,3.483-.005,6.965,0,10.448,0,1.272.474,1.733,1.769,1.735,2.77,0,5.54.037,8.308-.022.786-.017.9.221.9.937q-.031,28.775-.016,57.551c0,4.437,2.892,7.314,7.348,7.315q7.495,0,14.989,0,16.831,0,33.661,0a6.81,6.81,0,0,0,6.969-5.906,17.82,17.82,0,0,0,.046-3.846,1.27,1.27,0,0,0-1.41-1.205c-1.142-.011-2.285-.024-3.426.007-.467.013-.628-.1-.625-.6.021-4.339.012-8.678.012-13.017l.23-.184a6.151,6.151,0,0,0,.546.734Q74.145,65.806,79,70.644a1.42,1.42,0,0,0,2.356.021c.978-.96,1.942-1.934,2.907-2.906.99-1,.987-1.591-.022-2.6q-4.993-5-9.992-9.993m-63.867-38.7q-3.511-.041-7.023,0c-.469,0-.627-.1-.623-.6.024-3.026-.011-6.052.021-9.077a4.1,4.1,0,0,1,8.206-.021c.033,1.512.006,3.026.007,4.539s-.017,3.026.011,4.538c.009.468-.1.63-.6.624m57.059,21.4c1.849,1.823,3.68,3.665,5.511,5.507a.953.953,0,0,1,.421.722,3.133,3.133,0,0,0-.462.317c-.543.5-1.036,1.369-1.614,1.426-.608.06-1.082-.882-1.6-1.4-1.869-1.844-3.708-3.719-5.584-5.555-.389-.381-.465-.616-.011-1,.586-.491,1.08-1.42,1.678-1.477.627-.06,1.122.918,1.663,1.452M55.772,49.729c-.349-.339-.265-.512.035-.809q3.433-3.4,6.832-6.833c.307-.311.481-.359.81-.021q2.027,2.085,4.11,4.114c.3.3.374.47.031.809-2.313,2.282-4.6,4.589-6.9,6.883-.114.114-.2.29-.452.278-.077-.07-.183-.16-.281-.258-1.392-1.39-2.77-2.793-4.181-4.164m3.573,8.237c-.627.525-1.089,1.559-1.8,1.56-.553,0-1.117-.943-1.659-1.483-1.84-1.832-3.662-3.683-5.519-5.5-.383-.374-.4-.587,0-.933.476-.406.891-.883,1.341-1.321.116-.113.2-.291.454-.283.095.089.22.2.338.318,2.281,2.279,4.554,4.566,6.849,6.832.325.321.344.515-.006.808M21.927,78.244a4.109,4.109,0,0,1-8.214,0c-.01-.285,0-.571,0-.856q0-34.517.012-69.033c0-1.964-.093-3.866-1.423-5.608h.968q22.614,0,45.228,0a6.87,6.87,0,0,1,7.3,7.283q0,11.049.006,22.1c0,.444.026.825-.565.927a1.4,1.4,0,0,0-.608.446q-1.857,1.838-3.7,3.693c-.8.8-.845,1.343-.122,2.223.256.311.194.454-.044.691Q57.271,43.579,53.8,47.07c-.264.265-.409.232-.691,0a1.357,1.357,0,0,0-2.164.108q-1.89,1.865-3.755,3.755a1.387,1.387,0,0,0,0,2.29q4.624,4.642,9.268,9.265a1.371,1.371,0,0,0,2.23,0Q60.611,60.6,62.5,58.674a1.333,1.333,0,0,0,.107-2.1c-.642-.736.253-.81.449-1.164.264-.478.545-.187.783.086a.685.685,0,0,0,.123.119c1.559,1.07,1.932,2.536,1.874,4.4C65.7,64.4,65.776,68.8,65.81,73.2c.005.68-.181.826-.837.825q-20.515-.03-41.031-.015c-1.634,0-2.007.374-2.008,2.011,0,.742.018,1.485-.006,2.227m48.746-1.507c.481,0,.605.126.614.609.056,3.206-1.565,4.882-4.767,4.882H23.311a7.283,7.283,0,0,0,1.357-4.815c-.031-.489.058-.682.627-.681q22.689.027,45.378,0m10.558-9.816c-1.037,1.043-1.025,1.055-2.074.007l-12.9-12.9c-.933-.933-.933-.934.034-1.885.158-.156.323-.306.52-.493.154.14.28.245.4.361q7.025,7.022,14.056,14.036c.376.373.278.553-.037.871" transform="translate(0 0)" fill="#2b7e3b"/>
    <path id="Trazado_255972" data-name="Trazado 255972" d="M96.529,215.91a12.335,12.335,0,1,0-12.4,12.293,12.353,12.353,0,0,0,12.4-12.293M74.6,215.883a9.593,9.593,0,1,1,9.585,9.579,9.624,9.624,0,0,1-9.585-9.579" transform="translate(-55.408 -156.938)" fill="#2b7e3b"/>
    <path id="Trazado_255973" data-name="Trazado 255973" d="M78.633,38.631c7.252-.029,14.5-.018,21.756-.018H121.2c1.8,0,1.756,0,1.82-1.8.028-.785-.2-.961-.967-.96q-21.2.037-42.4.018c-1.887,0-1.849,0-1.9,1.885-.021.72.173.876.88.873" transform="translate(-59.951 -27.645)" fill="#2b7e3b"/>
    <path id="Trazado_255974" data-name="Trazado 255974" d="M100.3,62.554h20.9c1.8,0,1.759,0,1.821-1.8.027-.779-.189-.964-.963-.962q-21.2.038-42.4.019c-1.89,0-1.852,0-1.907,1.883-.021.715.166.879.877.876,7.223-.03,14.447-.018,21.67-.018" transform="translate(-59.952 -46.105)" fill="#2b7e3b"/>
    <path id="Trazado_255975" data-name="Trazado 255975" d="M122.106,83.739q-21.2.037-42.4.019c-1.932,0-1.9,0-1.945,1.929-.016.677.174.83.836.828,7.252-.025,14.5-.016,21.756-.016h20.814c1.843,0,1.8,0,1.862-1.843.026-.761-.182-.918-.925-.916" transform="translate(-59.959 -64.567)" fill="#2b7e3b"/>
    <path id="Trazado_255976" data-name="Trazado 255976" d="M78.678,110.447c7.223-.024,14.447-.015,21.67-.015h20.814c1.819,0,1.783,0,1.836-1.78.022-.741-.131-.984-.943-.982q-21.2.044-42.4.021c-1.906,0-1.853,0-1.929,1.865-.033.816.261.893.951.89" transform="translate(-59.93 -83.019)" fill="#2b7e3b"/>
    <path id="Trazado_255977" data-name="Trazado 255977" d="M122.141,131.626c-7.223.03-14.447.018-21.67.018h-20.9c-1.8,0-1.759,0-1.821,1.8-.027.779.189.964.964.962q21.2-.038,42.4-.019c1.89,0,1.852,0,1.906-1.883.021-.715-.166-.879-.877-.876" transform="translate(-59.947 -101.491)" fill="#2b7e3b"/>
    <path id="Trazado_255978" data-name="Trazado 255978" d="M116.671,155.572q-18.458.037-36.916.018c-1.982,0-1.95,0-1.99,1.969-.013.643.152.791.79.788,6.338-.027,12.677-.016,19.015-.016h18.073c1.889,0,1.851,0,1.906-1.883.021-.716-.167-.877-.878-.875" transform="translate(-59.96 -119.955)" fill="#2b7e3b"/>
    <path id="Trazado_255979" data-name="Trazado 255979" d="M114,179.522c-5.91.027-11.82.016-17.73.016H79.658c-1.888,0-1.849,0-1.9,1.885-.021.719.173.875.88.873q17.087-.037,34.175-.018c1.98,0,1.948,0,1.989-1.971.013-.647-.158-.789-.793-.786" transform="translate(-59.951 -138.421)" fill="#2b7e3b"/>
    <path id="Trazado_255980" data-name="Trazado 255980" d="M191.449,285.7c-.237.52-.01,1.237-.066,1.86-.05.56.157.671.668.617a9.064,9.064,0,0,0,5.2-2.159c.361-.318.519-.332.829.066a5.34,5.34,0,0,0,4.379,2.1c.714.006,1.427,0,2.141,0h1.2c2.105,0,2.087,0,2.06-2.151-.006-.5-.157-.609-.625-.6-1.541.028-3.083.015-4.624.009a2.737,2.737,0,0,1-2.983-2.725,1.383,1.383,0,0,0-1.018-1.329,1.326,1.326,0,0,0-1.546.627c-.179.258-.35.52-.533.775a6.542,6.542,0,0,1-3.421,2.428c-.564.183-1.4-.1-1.658.478" transform="translate(-147.532 -216.919)" fill="#2b7e3b"/>
    <path id="Trazado_255981" data-name="Trazado 255981" d="M109.511,234.341a6.852,6.852,0,1,0-6.861,6.844,6.871,6.871,0,0,0,6.861-6.844m-6.863,4.1a4.11,4.11,0,1,1,4.121-4.059,4.131,4.131,0,0,1-4.121,4.059" transform="translate(-73.872 -175.401)" fill="#2b7e3b"/>
  </g>
</svg>
