<svg xmlns="http://www.w3.org/2000/svg" xmlns:xlink="http://www.w3.org/1999/xlink" width="63" height="63.196" viewBox="0 0 63 63.196"><defs><radialGradient id="a" cx="0.741" cy="0.152" r="0.5" gradientUnits="objectBoundingBox"><stop offset="0" stop-color="#fff"/><stop offset="1" stop-color="#e1efe3"/></radialGradient><clipPath id="b"><rect width="35.509" height="35.494" fill="#2b7e3b"/></clipPath></defs><g transform="translate(-301.667 -5920)"><g transform="translate(16.667 -1400)"><circle cx="31.5" cy="31.5" r="31.5" transform="translate(285 7320)" fill="url(#a)"/><path d="M8407.5,11782a31.476,31.476,0,0,1-31.5-31.5,31.842,31.842,0,0,1,.514-5.7,38.533,38.533,0,0,0,51.173,29.878A31.38,31.38,0,0,1,8407.5,11782Z" transform="translate(-8091 -4398.805)" fill="#bce2c1"/></g><g transform="translate(315.667 5934)"><g transform="translate(0)" clip-path="url(#b)"><path d="M35.436,32.137c.015-.064-.008-.142.073-.178V28.77c-.288-.874-.458-1.778-.674-2.671-.943-3.9-1.869-7.8-2.809-11.7a5.244,5.244,0,0,1-.058-1.206,1.809,1.809,0,0,0-1.962-1.961c-.994,0-1.987-.011-2.98.006-.3.005-.4-.048-.4-.381.02-1.617.013-3.234.008-4.852A2.42,2.42,0,0,0,24.5,3.56a2.5,2.5,0,0,0-1.43.3,2.41,2.41,0,0,0-1.29-1.817,2.324,2.324,0,0,0-2.248.045A2.4,2.4,0,0,0,18.569.46,2.339,2.339,0,0,0,17.113,0a2.46,2.46,0,0,0-2.306,2.082,2.374,2.374,0,0,0-1.74-.23,2.408,2.408,0,0,0-1.813,2.3c-.011.612-.013,1.225,0,1.837a.375.375,0,0,1-.243.4c-.464.23-.921.474-1.375.723a3.482,3.482,0,0,0-1.928,3.1,6.658,6.658,0,0,0,0,.762c.016.213-.047.274-.264.27-.67-.015-1.34-.008-2.01,0A1.749,1.749,0,0,0,3.57,13.1a14.092,14.092,0,0,1-.689,3.829C1.969,20.825,1.024,24.71.086,28.6a6.069,6.069,0,0,0-.067,1.482,8.811,8.811,0,0,0,.1,2.174A4.108,4.108,0,0,0,3.37,35.421c.064.015.142-.008.179.073H4.659a7.687,7.687,0,0,0,1.2-.366,4.213,4.213,0,0,0,2.446-3.8,17.568,17.568,0,0,0-.688-5.286c-.9-3.656-1.766-7.323-2.652-10.983-.051-.212-.024-.282.212-.278q1.143.02,2.287,0c.213,0,.277.058.276.271,0,.727,0,1.455.024,2.182a7,7,0,0,0,3.465,6.021c.057.036.113.075.2.133a2.026,2.026,0,0,0-.768,1.836q.025,4.4,0,8.8a1.358,1.358,0,0,0,.933,1.471H24.555a1.432,1.432,0,0,0,.909-1.529c-.024-2.957-.018-5.914,0-8.871a1.915,1.915,0,0,0-.988-1.836c.044-.129.162-.171.247-.244a5.253,5.253,0,0,0,1.914-4.062c.018-1.293.009-2.587,0-3.881,0-.22.045-.3.281-.292q1.7.02,3.4,0c.251,0,.306.044.242.308Q28.913,21.857,27.3,28.631a3.757,3.757,0,0,0-.066.964,13.583,13.583,0,0,0,.069,2.49,4.08,4.08,0,0,0,3.251,3.333c.063.016.144-.01.174.077H31.9c.258-.071.522-.125.773-.216a4.121,4.121,0,0,0,2.759-3.141M8.95,9.729a2.308,2.308,0,0,1,.8-1.293c.441-.356.987-.518,1.495-.852,0,1.2,0,2.342,0,3.48,0,.136-.045.176-.178.175q-1-.008-2,0c-.125,0-.192-.02-.184-.167A7.279,7.279,0,0,1,8.95,9.729M7.113,29.844a12.45,12.45,0,0,1-.093,2.209A2.951,2.951,0,0,1,1.2,31.53c-.028-.576,0-1.155-.016-1.732-.007-.21.091-.216.247-.216.912,0,1.825,0,2.737,0,.889,0,1.779.006,2.668,0,.208,0,.284.042.271.264M6.955,28.4H5.3c-1.212,0-2.424-.005-3.636,0-.232,0-.3-.047-.244-.288.909-3.757,1.811-7.515,2.74-11.378L6.955,28.4M5.019,13.607c-.233,0-.286-.07-.284-.291.005-.721.171-.9.9-.9,1.766,0,3.532.005,5.3-.006.254,0,.358.052.322.319-.038.282.123.66-.065.825-.159.139-.526.044-.8.045-.8,0-1.593,0-2.389,0-.992,0-1.985-.008-2.978.006M23.97,34.319c-1.974-.01-3.949-.005-5.923-.005-1.94,0-3.88-.009-5.82.009-.332,0-.394-.1-.383-.4.023-.565.013-1.131,0-1.7,0-.191.017-.282.253-.281q5.958.012,11.916,0c.224,0,.265.07.261.275-.013.6-.018,1.2,0,1.8.008.251-.073.3-.309.3m.309-5.526c-.023.565-.013,1.131,0,1.7,0,.194-.023.284-.256.283q-5.956-.011-11.912,0c-.229,0-.264-.083-.26-.281.011-.6.017-1.2,0-1.8-.008-.253.077-.3.31-.3,1.974.009,3.948.005,5.922.005,1.939,0,3.879.009,5.818-.009.33,0,.4.1.385.4m-.341-1.574c-1.964-.007-3.928,0-5.892,0s-3.905-.005-5.857.006c-.27,0-.354-.064-.345-.341.022-.646,0-1.294.008-1.941,0-.47.21-.679.675-.679q5.528,0,11.057,0a.6.6,0,0,1,.686.677c.006.658-.015,1.318.01,1.975.011.289-.111.308-.342.307m1.515-8.438a4.158,4.158,0,0,1-4.309,4.3q-3.068,0-6.135,0a5.9,5.9,0,0,1-6.016-5.158c-.145-.971-.025-1.962-.075-2.943-.012-.23.141-.191.276-.191.832,0,1.664,0,2.5,0,.555,0,.742-.191.742-.753q0-4.853,0-9.705a1.256,1.256,0,0,1,1.143-1.359,1.15,1.15,0,0,1,1.218,1.179c.012,1.109,0,2.218,0,3.327,0,.6,0,1.2,0,1.8,0,.5.208.773.589.778s.594-.259.594-.763q0-3.345,0-6.689a1.366,1.366,0,0,1,.321-.994,1.1,1.1,0,0,1,1.183-.374,1.119,1.119,0,0,1,.849.984,3.269,3.269,0,0,1,.02.449q0,3.258,0,6.516a2.4,2.4,0,0,0,.017.38.578.578,0,0,0,1.13.06,1.629,1.629,0,0,0,.036-.412q0-2.478,0-4.956a1.257,1.257,0,0,1,.3-.9A1.138,1.138,0,0,1,21.1,3.039a1.246,1.246,0,0,1,.81,1.214c.006,1.641,0,3.281,0,4.922,0,.1,0,.208,0,.312a.575.575,0,0,0,.544.565.583.583,0,0,0,.617-.492,2.624,2.624,0,0,0,.016-.449c0-1.028,0-2.057,0-3.085a1.2,1.2,0,0,1,1.147-1.3,1.254,1.254,0,0,1,1.214,1.3c.005,2.184,0,4.367,0,6.551q0,3.1,0,6.2m5.06-5.182c-.6.005-1.2,0-1.8,0s-1.222-.007-1.833,0c-.189,0-.269-.038-.253-.243a3.99,3.99,0,0,0,0-.691c-.022-.23.078-.259.276-.258,1.049.009,2.1,0,3.146.006a.785.785,0,0,1,.726,1.093c-.056.14-.174.084-.266.085m.829,3.242.051.007q1.051,4.374,2.1,8.749c.2.839.406,1.678.606,2.518.034.142.105.291-.165.29-1.777-.008-3.554,0-5.369,0l2.775-11.56M31.2,34.308a2.939,2.939,0,0,1-2.772-2.767c-.027-.565,0-1.132-.02-1.7-.008-.222.065-.267.273-.264.9.011,1.8,0,2.7,0s1.779.009,2.668-.006c.233,0,.292.068.28.289a16.9,16.9,0,0,1-.06,2A2.951,2.951,0,0,1,31.2,34.308" transform="translate(0 0)" fill="#2b7e3b"/><path d="M293.164,340.6c0,.007,0,0,0,0" transform="translate(-266.004 -309.049)" fill="#2b7e3b"/></g></g></g></svg>