<svg xmlns="http://www.w3.org/2000/svg" xmlns:xlink="http://www.w3.org/1999/xlink" width="63" height="63.196" viewBox="0 0 63 63.196"><defs><radialGradient id="a" cx="0.741" cy="0.152" r="0.5" gradientUnits="objectBoundingBox"><stop offset="0" stop-color="#fff"/><stop offset="1" stop-color="#e1efe3"/></radialGradient><clipPath id="b"><rect width="33.09" height="33.023" fill="#359547"/></clipPath></defs><g transform="translate(-301.667 -6025)"><g transform="translate(16.667 -1295)"><circle cx="31.5" cy="31.5" r="31.5" transform="translate(285 7320)" fill="url(#a)"/><path d="M8407.5,11782a31.476,31.476,0,0,1-31.5-31.5,31.842,31.842,0,0,1,.514-5.7,38.533,38.533,0,0,0,51.173,29.878A31.38,31.38,0,0,1,8407.5,11782Z" transform="translate(-8091 -4398.805)" fill="#bce2c1"/></g><g transform="translate(316.667 6040)"><g transform="translate(0)" clip-path="url(#b)"><path d="M32.058,0H6.307C5.615,0,5.264.25,5.263.742s.355.747,1.041.747q12.453,0,24.905-.008c.332,0,.4.087.4.4q-.013,14.628,0,29.256c0,.316-.064.4-.4.4q-14.657-.016-29.313,0c-.354,0-.408-.11-.408-.427Q1.5,16.1,1.494,1.09A4,4,0,0,0,1.484.65.722.722,0,0,0,.728,0,.718.718,0,0,0,.011.65a3.7,3.7,0,0,0-.01.4Q0,16.506,0,31.959c0,.864.2,1.063,1.048,1.063h31c.831,0,1.038-.207,1.038-1.038q0-7.736,0-15.471t0-15.471C33.09.206,32.887,0,32.058,0" transform="translate(-0.001 0)" fill="#359547"/><path d="M40.344,125.782q5.361,5.347,10.721,10.694c.193.192.381.385.64.371a.746.746,0,0,0,.679-1.148,1.623,1.623,0,0,0-.243-.272Q45.873,129.172,39.6,122.92c-.406-.4-.862-.445-1.188-.112s-.273.775.138,1.187q.894.895,1.791,1.787" transform="translate(-34.46 -110.572)" fill="#359547"/><path d="M136.407,51.033,125.192,39.846q-.649-.647-1.3-1.294a.8.8,0,0,0-.579-.273.713.713,0,0,0-.579.265c-.3.349-.24.736.182,1.157l12.515,12.481a2.341,2.341,0,0,0,.215.2.739.739,0,0,0,1-.058.73.73,0,0,0,.062-.968,3.137,3.137,0,0,0-.3-.321" transform="translate(-110.538 -34.527)" fill="#359547"/><path d="M228.319,143.922c-1.578-.015-3.157-.009-4.735-.006-.562,0-.893.277-.9.74s.318.768.872.77q2.882.009,5.763,0a.772.772,0,0,0,.874-.883c0-.952,0-1.905,0-2.858,0-.977,0-1.954,0-2.931a.764.764,0,0,0-.448-.772.746.746,0,0,0-1.048.767c-.008,1.6-.012,3.2.005,4.8,0,.314-.089.376-.386.374" transform="translate(-200.862 -124.395)" fill="#359547"/><path d="M143.822,228.3c-1.6-.014-3.207-.009-4.81-.006-.534,0-.865.282-.875.727s.332.758.879.76c.955,0,1.909,0,2.864,0s1.934,0,2.9,0c.6,0,.865-.263.874-.872.005-.342,0-.684,0-1.026q0-2.309,0-4.618a1.709,1.709,0,0,0-.053-.506.737.737,0,0,0-.825-.463.745.745,0,0,0-.618.79c0,1.625-.009,3.25.005,4.874,0,.276-.067.343-.342.341" transform="translate(-124.6 -200.507)" fill="#359547"/></g></g></g></svg>