<svg xmlns="http://www.w3.org/2000/svg" xmlns:xlink="http://www.w3.org/1999/xlink" width="63" height="63.196" viewBox="0 0 63 63.196">
  <defs>
    <radialGradient id="radial-gradient" cx="0.741" cy="0.152" r="0.5" gradientUnits="objectBoundingBox">
      <stop offset="0" stop-color="#fff"/>
      <stop offset="1" stop-color="#e1efe3"/>
    </radialGradient>
    <clipPath id="clip-path">
      <rect id="Rect치ngulo_291632" data-name="Rect치ngulo 291632" width="36.341" height="36.957" fill="#2b7e3b"/>
    </clipPath>
  </defs>
  <g id="Grupo_872636" data-name="Grupo 872636" transform="translate(-301.667 -5920.098)">
    <g id="Grupo_872613" data-name="Grupo 872613" transform="translate(16.667 -1399.902)">
      <circle id="Elipse_4720" data-name="Elipse 4720" cx="31.5" cy="31.5" r="31.5" transform="translate(285 7320)" fill="url(#radial-gradient)"/>
      <path id="Sustracci칩n_8" data-name="Sustracci칩n 8" d="M8407.5,11782a31.476,31.476,0,0,1-31.5-31.5,31.842,31.842,0,0,1,.514-5.7,38.533,38.533,0,0,0,51.173,29.878A31.38,31.38,0,0,1,8407.5,11782Z" transform="translate(-8091 -4398.805)" fill="#bce2c1"/>
    </g>
    <g id="Grupo_872667" data-name="Grupo 872667" transform="translate(314.667 5933.098)">
      <g id="Grupo_872667-2" data-name="Grupo 872667" clip-path="url(#clip-path)">
        <path id="Trazado_255738" data-name="Trazado 255738" d="M34.914,13.551c-3.5,0-7.006-.005-10.509.008-.324,0-.393-.08-.392-.4.013-3.105.009-6.21.008-9.315a1.852,1.852,0,0,0-1.984-2c-1.86,0-3.721-.013-5.581.01-.374,0-.463-.088-.451-.456A1.235,1.235,0,0,0,14.617,0Q12.058,0,9.5,0C8.451,0,8,.443,8.015,1.5c0,.286-.063.358-.353.356-1.873-.015-3.747-.008-5.62-.008A1.865,1.865,0,0,0,0,3.906Q0,9.642,0,15.377q0,5.755,0,11.51A1.867,1.867,0,0,0,2.076,28.95q7.41,0,14.82-.007c.281,0,.36.056.358.351-.015,2.079-.008,4.157-.008,6.236a1.26,1.26,0,0,0,1.411,1.427H34.94a1.252,1.252,0,0,0,1.4-1.4q0-10.3,0-20.594a1.26,1.26,0,0,0-1.426-1.412M9.235,1.464c-.005-.185.051-.236.236-.236q2.54.01,5.08,0c.184,0,.242.049.236.235-.013.449-.016.9,0,1.347.008.218-.057.278-.275.275-.834-.013-1.668-.005-2.5-.005s-1.668-.007-2.5.005c-.217,0-.284-.055-.276-.275.017-.448.014-.9,0-1.347m8.012,13.45q0,6.215.005,12.43c0,.284-.049.382-.365.382q-7.408-.018-14.816-.008c-.649,0-.839-.194-.84-.851q0-5.753,0-11.507,0-5.715,0-11.43c0-.658.19-.85.84-.85,1.86,0,3.72,0,5.58-.006.233,0,.344.026.4.294a1.185,1.185,0,0,0,1.2.94q2.752.009,5.5,0a1.208,1.208,0,0,0,1.222-.967c.044-.186.082-.27.3-.269,1.937.011,3.874,0,5.811.008a.617.617,0,0,1,.695.685c0,3.181,0,6.363.008,9.544,0,.266-.132.243-.306.242q-1.943,0-3.887,0a1.239,1.239,0,0,0-1.357,1.362M34.762,35.732q-7.968-.015-15.937,0c-.288,0-.355-.067-.354-.354q.015-7.968,0-15.937c0-.288.067-.356.354-.354,2.669.012,5.338.007,8.007.007,2.643,0,5.287.005,7.93-.007.288,0,.355.067.354.354q-.015,7.968,0,15.937c0,.288-.067.354-.354.354m0-17.862c-2.656-.013-5.312-.007-7.968-.007s-5.312-.005-7.968.007c-.286,0-.364-.063-.356-.353.022-.821.015-1.642,0-2.463,0-.217.057-.275.275-.275q8.045.009,16.09,0c.216,0,.279.055.276.274-.013.821-.019,1.643,0,2.463.008.288-.066.356-.354.355" transform="translate(0 0)" fill="#2b7e3b"/>
        <path id="Trazado_255739" data-name="Trazado 255739" d="M92.04,152.127c.346-.013.692,0,1.038,0s.667,0,1,0c.442-.006.726-.257.719-.626a.636.636,0,0,0-.7-.6c-.115,0-.231,0-.346,0-.253-.013-.555.1-.744-.048-.146-.113-.022-.41-.049-.623a.614.614,0,0,0-1.225.028,1.516,1.516,0,0,0,0,.346c.035.248-.059.337-.308.408a2.14,2.14,0,0,0-1.524,2.115,2.163,2.163,0,0,0,1.686,2.031,4.032,4.032,0,0,0,.918.055c.654.008,1.082.38,1.072.941a.947.947,0,0,1-1.066.908c-.667,0-1.333-.008-2,0a.611.611,0,0,0-.618.607.618.618,0,0,0,.609.617,4,4,0,0,0,.768,0c.394-.055.5.09.469.472-.034.479.223.765.606.765s.612-.283.617-.765a.958.958,0,0,0,0-.115c-.028-.253.025-.389.327-.475a2.111,2.111,0,0,0,1.5-2.088,2.163,2.163,0,0,0-1.673-2.041,5.626,5.626,0,0,0-1.071-.059.922.922,0,0,1,0-1.844" transform="translate(-80.641 -134.261)" fill="#2b7e3b"/>
        <path id="Trazado_255740" data-name="Trazado 255740" d="M37.714,67.059c.91,0,1.819,0,2.729,0a.6.6,0,0,0,.611-.432.574.574,0,0,0-.193-.654.786.786,0,0,0-.579-.146q-4,0-7.994,0c-.538,0-1.076-.007-1.614,0a.619.619,0,0,0-.647.578c-.024.378.274.649.732.65q2.4,0,4.8,0h2.152" transform="translate(-26.935 -59.052)" fill="#2b7e3b"/>
        <path id="Trazado_255741" data-name="Trazado 255741" d="M72.565,126.933c.468,0,.761-.254.748-.633s-.294-.6-.746-.6q-2.938,0-5.877,0c-.468,0-.761.253-.748.633s.294.6.746.6c.986,0,1.972,0,2.958,0s1.946,0,2.919,0" transform="translate(-59.157 -112.767)" fill="#2b7e3b"/>
        <path id="Trazado_255742" data-name="Trazado 255742" d="M72.546,95.774q-1.46,0-2.919,0c-.973,0-1.946,0-2.919,0-.476,0-.765.239-.762.619s.291.611.77.612q2.919,0,5.838,0c.476,0,.765-.24.762-.62s-.289-.61-.77-.611" transform="translate(-59.16 -85.918)" fill="#2b7e3b"/>
        <path id="Trazado_255743" data-name="Trazado 255743" d="M31.856,125.652c-.408-.014-.817-.015-1.225,0a.611.611,0,0,0-.6.617.622.622,0,0,0,.616.607c.191.011.383,0,.574,0,.217,0,.435.011.651,0a.612.612,0,0,0-.013-1.224" transform="translate(-26.939 -112.713)" fill="#2b7e3b"/>
        <path id="Trazado_255744" data-name="Trazado 255744" d="M31.907,95.721c-.433-.021-.868-.02-1.3,0a.609.609,0,0,0-.577.6.616.616,0,0,0,.565.616c.215.019.434,0,.65,0s.435.014.65,0a.617.617,0,0,0,.577-.6.606.606,0,0,0-.565-.614" transform="translate(-26.939 -85.858)" fill="#2b7e3b"/>
        <path id="Trazado_255745" data-name="Trazado 255745" d="M290.923,197.52q-1.46-.008-2.92,0a.619.619,0,0,0-.693.684c-.007.487,0,.974,0,1.46s0,.974,0,1.46a.62.62,0,0,0,.675.7q1.479.011,2.959,0a.611.611,0,0,0,.673-.666q.012-1.479,0-2.959a.618.618,0,0,0-.695-.683m-.593,3.017c-.179.157-.581.06-.833.072-.344-.037-.74.117-.9-.068s-.061-.558-.056-.849-.132-.7.054-.886.583-.051.887-.052.688-.129.844.053.061.557.056.849.134.716-.055.882" transform="translate(-257.743 -177.192)" fill="#2b7e3b"/>
        <path id="Trazado_255746" data-name="Trazado 255746" d="M192.192,201.819q1.479.012,2.959,0a.621.621,0,0,0,.686-.693c.007-.474,0-.948,0-1.422,0-.512.007-1.025,0-1.537a.6.6,0,0,0-.644-.655q-1.5-.014-3,0a.609.609,0,0,0-.665.673q-.01,1.479,0,2.959a.61.61,0,0,0,.663.675m.584-2.154c0-.293-.115-.683.03-.854.172-.2.575-.055.878-.065s.682-.1.855.043c.2.174.054.576.065.878s.1.682-.043.855c-.174.2-.576.054-.878.065s-.682.1-.855-.043c-.2-.174-.036-.576-.051-.878" transform="translate(-171.816 -177.184)" fill="#2b7e3b"/>
        <path id="Trazado_255747" data-name="Trazado 255747" d="M240.13,201.834q1.441.007,2.882,0a.627.627,0,0,0,.714-.7q.008-1.46,0-2.92a.62.62,0,0,0-.693-.685c-.474-.006-.948,0-1.422,0-.5,0-1,0-1.5,0a.619.619,0,0,0-.694.683q-.01,1.46,0,2.921a.626.626,0,0,0,.712.7m.578-3.021c.157-.182.553-.054.844-.053s.717-.134.882.053.061.581.076.876c-.015.3.077.686-.073.858s-.554.054-.845.053-.7.132-.887-.052-.049-.583-.054-.887-.092-.676.057-.848" transform="translate(-214.779 -177.197)" fill="#2b7e3b"/>
        <path id="Trazado_255748" data-name="Trazado 255748" d="M195.173,245.4q-1.479-.011-2.959,0a.619.619,0,0,0-.684.694c-.006.487,0,.974,0,1.46s-.007,1,0,1.5a.6.6,0,0,0,.645.654q1.5.014,3,0a.611.611,0,0,0,.664-.675q.011-1.479,0-2.959a.61.61,0,0,0-.665-.673m-1.448,3.073c-.315,0-.735.145-.915-.065-.151-.177-.031-.585-.031-.891-.019-.888-.018-.895.865-.884.315,0,.734-.145.916.065.154.178.047.585.048.891,0,.888,0,.895-.882.884" transform="translate(-171.819 -220.147)" fill="#2b7e3b"/>
        <path id="Trazado_255749" data-name="Trazado 255749" d="M243.06,245.4q-1.479-.011-2.959,0a.619.619,0,0,0-.683.694c-.006.487,0,.974,0,1.46s-.007,1,0,1.5a.6.6,0,0,0,.645.654q1.5.014,3,0a.611.611,0,0,0,.664-.675q.011-1.479,0-2.959a.61.61,0,0,0-.666-.673m-.568,2.156c.01.293.1.683-.044.854-.175.2-.576.054-.879.064s-.683.1-.854-.044c-.2-.175-.054-.576-.064-.879s-.1-.681.044-.854c.175-.206.577-.026.879-.049.293,0,.684-.115.854.03.2.173.054.576.065.878" transform="translate(-214.779 -220.147)" fill="#2b7e3b"/>
        <path id="Trazado_255750" data-name="Trazado 255750" d="M291.614,246.116a.628.628,0,0,0-.711-.706q-1.441-.007-2.882,0a.625.625,0,0,0-.715.7q-.008,1.46,0,2.92a.619.619,0,0,0,.691.687q1.46.009,2.921,0c.468,0,.692-.239.7-.72s0-.948,0-1.422,0-.974,0-1.46m-2.116,2.369c-.315,0-.734.146-.915-.066-.154-.179-.046-.586-.047-.892,0-.886,0-.893.884-.882.315,0,.735-.146.914.066.151.178.031.586.031.892.017.886.017.893-.868.882" transform="translate(-257.738 -220.155)" fill="#2b7e3b"/>
        <path id="Trazado_255751" data-name="Trazado 255751" d="M195.108,293.3c-.474,0-.948,0-1.422,0s-.948,0-1.422,0c-.5,0-.726.228-.728.728q-.006,1.422,0,2.844c0,.505.224.735.718.738q1.441.007,2.882,0a.627.627,0,0,0,.709-.709q.008-1.441,0-2.882c0-.494-.233-.715-.738-.718m-.5,2.157c.01.293.1.681-.044.854-.175.206-.577.026-.879.049-.293,0-.684.115-.854-.03-.2-.173-.054-.576-.065-.878s-.1-.683.044-.854c.175-.2.576-.054.879-.064s.683-.1.854.044c.2.175.054.576.064.879" transform="translate(-171.826 -263.122)" fill="#2b7e3b"/>
        <path id="Trazado_255752" data-name="Trazado 255752" d="M243.722,293.942a.6.6,0,0,0-.645-.654q-1.5-.013-3,0a.609.609,0,0,0-.665.673q-.01,1.479,0,2.959a.61.61,0,0,0,.663.675q1.479.012,2.959,0a.621.621,0,0,0,.685-.693c.007-.487,0-.974,0-1.46s.007-1,0-1.5m-1.233,1.5c.01.293.1.682-.043.855-.174.2-.576.054-.878.065s-.682.1-.855-.043c-.2-.174-.036-.576-.051-.878,0-.293-.115-.683.03-.855.172-.2.575-.054.878-.065s.682-.1.855.043c.2.174.054.576.065.878" transform="translate(-214.775 -263.103)" fill="#2b7e3b"/>
        <path id="Trazado_255753" data-name="Trazado 255753" d="M290.912,293.294q-1.46-.008-2.921,0a.617.617,0,0,0-.686.691q-.009,1.46,0,2.92c0,.469.238.692.72.7s.948,0,1.422,0,.974,0,1.46,0a.628.628,0,0,0,.706-.712q.008-1.441,0-2.882a.626.626,0,0,0-.7-.715m-.589,3.023c-.177.147-.56.058-.852.052s-.72.137-.878-.059-.032-.584-.032-.889-.155-.686.035-.842.56-.058.852-.051.717-.136.879.059.058.584.053.889.13.687-.058.842" transform="translate(-257.738 -263.111)" fill="#2b7e3b"/>
      </g>
    </g>
  </g>
</svg>
