<svg xmlns="http://www.w3.org/2000/svg" xmlns:xlink="http://www.w3.org/1999/xlink" width="63" height="63.196" viewBox="0 0 63 63.196">
  <defs>
    <radialGradient id="radial-gradient" cx="0.741" cy="0.152" r="0.5" gradientUnits="objectBoundingBox">
      <stop offset="0" stop-color="#fff"/>
      <stop offset="1" stop-color="#e1efe3"/>
    </radialGradient>
    <clipPath id="clip-path">
      <rect id="Rect치ngulo_291630" data-name="Rect치ngulo 291630" width="36.509" height="36.523" fill="#2b7e3b"/>
    </clipPath>
  </defs>
  <g id="Grupo_872665" data-name="Grupo 872665" transform="translate(-301.667 -5920)">
    <g id="Grupo_872613" data-name="Grupo 872613" transform="translate(16.667 -1400)">
      <circle id="Elipse_4720" data-name="Elipse 4720" cx="31.5" cy="31.5" r="31.5" transform="translate(285 7320)" fill="url(#radial-gradient)"/>
      <path id="Sustracci칩n_8" data-name="Sustracci칩n 8" d="M8407.5,11782a31.476,31.476,0,0,1-31.5-31.5,31.842,31.842,0,0,1,.514-5.7,38.533,38.533,0,0,0,51.173,29.878A31.38,31.38,0,0,1,8407.5,11782Z" transform="translate(-8091 -4398.805)" fill="#bce2c1"/>
    </g>
    <g id="Grupo_872659" data-name="Grupo 872659" transform="translate(314.667 5933)">
      <g id="Grupo_872656" data-name="Grupo 872656" clip-path="url(#clip-path)">
        <path id="Trazado_255721" data-name="Trazado 255721" d="M34.491,11.95c-.283-.088-.363-.186-.353-.491A6.435,6.435,0,0,0,28.517,4.79c-.244-.034-.257-.142-.257-.336.006-1.362-.009-2.724.012-4.085,0-.32-.092-.369-.385-.368Q21.651.016,15.414.008q-6.182,0-12.363,0A2.938,2.938,0,0,0,0,3.037q0,9.348,0,18.7A2.939,2.939,0,0,0,3,24.74c.859.005,1.717-.01,2.575.008.256.005.325-.056.322-.318-.015-1.374-.007-2.748-.006-4.122,0-.14-.05-.287.2-.283.969.014,1.938.008,2.907,0,.189,0,.232.043.157.236C8.7,21.43,8.705,21.432,7.5,21.814c-.07.022-.138.052-.209.069a.256.256,0,0,0-.226.3q.015,1.969,0,3.938a.266.266,0,0,0,.226.3c.4.119.791.255,1.19.372a.367.367,0,0,1,.26.227c.49,1.134.492,1.133-.075,2.237a1.554,1.554,0,0,1-.106.193c-.111.157-.079.267.06.4q1.389,1.368,2.758,2.759a.286.286,0,0,0,.407.058c.353-.2.713-.377,1.072-.562a.42.42,0,0,1,.34-.043,1.817,1.817,0,0,1,1.548,1.665c0,.059.045.115.055.174.036.2.137.264.351.261,1.141-.014,2.281,0,3.422-.013a.358.358,0,0,1,.426.305,2.872,2.872,0,0,0,2.713,2.051q5.961.018,11.922,0a2.9,2.9,0,0,0,2.87-2.865q.02-9.495,0-18.99a2.878,2.878,0,0,0-2.01-2.708M32.98,18.579c0,.234-.064.28-.286.279-1.68-.01-3.36-.005-5.04-.005-1.656,0-3.311-.006-4.967.007-.26,0-.323-.065-.319-.321.017-.944,0-1.889.012-2.833,0-.125-.1-.309.085-.379s.283.071.394.194a6.225,6.225,0,0,0,3.719,2.057,6.362,6.362,0,0,0,5.89-2.03,1.184,1.184,0,0,0,.12-.139c.078-.113.195-.1.3-.083.153.024.081.157.081.237.006,1.006,0,2.012.01,3.017m-.006-7.361A5.3,5.3,0,1,1,27.687,5.9a5.31,5.31,0,0,1,5.287,5.321M4.717,23.205c0,.269-.04.386-.347.367-.476-.03-.956,0-1.434-.01a1.752,1.752,0,0,1-1.754-1.756q-.009-8.149,0-16.3c0-.046.007-.092.016-.2.973.763,2.088.573,3.166.578.285,0,.358.069.358.357q-.014,8.48,0,16.959m14.13,9.54c0,.191-.048.247-.243.245-.882-.01-1.765-.008-2.648,0-.159,0-.242-.039-.285-.2-.078-.295-.2-.578-.274-.874a.482.482,0,0,0-.395-.4,6.574,6.574,0,0,1-1.72-.715.4.4,0,0,0-.437,0c-.344.184-.716.516-1.041.479-.371-.042-.607-.524-.907-.808-.285-.27-.551-.558-.834-.83-.118-.114-.2-.213-.074-.37a1.591,1.591,0,0,0,.04-2.137.757.757,0,0,1-.145-.373,1.164,1.164,0,0,0-1.162-1.107c-.415-.059-.51-.276-.487-.669.037-.623.016-1.25.006-1.875,0-.2.02-.328.25-.359a1.576,1.576,0,0,0,1.49-1.4,6.42,6.42,0,0,1,.543-1.231c.044-.1.108-.077.171-.078.437,0,.874,0,1.373,0a6.49,6.49,0,0,0,1.246,9.385,6.247,6.247,0,0,0,5.233,1.032c.264-.061.305-.008.3.239-.014.686-.012,1.373,0,2.06m-.278-3.51a5.3,5.3,0,0,1-5-9.047.553.553,0,0,1,.389-.162c1.545.007,3.089.012,4.634,0,.266,0,.257.12.256.306,0,1.422,0,2.844,0,4.267s-.006,2.844.006,4.266a.324.324,0,0,1-.28.373M18.845,14.7c-.01,1.276-.013,2.552.006,3.827,0,.287-.082.333-.345.332q-6.144-.013-12.289,0c-.283,0-.334-.077-.334-.343.009-4.477,0-8.954.014-13.432,0-.311-.077-.382-.379-.374-.833.023-1.668.011-2.5.007a1.767,1.767,0,1,1,.005-3.531q5.905,0,11.811,0,5.942,0,11.884-.008c.3,0,.385.067.378.375-.023.968-.013,1.938,0,2.907,0,.2-.027.3-.264.33a6.436,6.436,0,0,0-5.618,6.6c.008.324-.044.467-.389.577A2.878,2.878,0,0,0,18.845,14.7m16.484.252q0,9.2,0,18.4a1.789,1.789,0,0,1-1.97,1.988H21.989a1.782,1.782,0,0,1-1.968-1.952q0-9.275,0-18.549a1.785,1.785,0,0,1,1.139-1.76c.223-.087.323-.059.393.183.083.289.212.565.323.852-.677.066-.677.066-.677.761,0,1.619.005,3.239-.006,4.858,0,.239.059.3.3.3q6.182-.012,12.364,0c.239,0,.3-.06.3-.3-.011-1.717-.018-3.435,0-5.152,0-.369-.084-.513-.452-.444a1.18,1.18,0,0,1-.239-.008c.132-.347.26-.674.381-1,.071-.194.2-.088.3-.056a1.771,1.771,0,0,1,1.172,1.549c.006.11,0,.221,0,.331" transform="translate(0 -0.001)" fill="#2b7e3b"/>
        <path id="Trazado_255722" data-name="Trazado 255722" d="M83.219,23.947q-5.556.015-11.112,0c-.277,0-.34.066-.338.34q.021,2.613,0,5.226c0,.278.068.34.34.338,1.852-.013,3.7-.007,5.556-.007s3.7-.007,5.556.007c.277,0,.34-.067.338-.34q-.021-2.613,0-5.226c0-.278-.068-.338-.34-.337m-1.137,4.721c-1.484-.006-2.968,0-4.452,0-1.46,0-2.919-.005-4.378.005-.234,0-.308-.05-.3-.3.015-.993.012-1.987,0-2.981,0-.2.048-.266.26-.266q4.452.011,8.9,0c.2,0,.269.046.266.259-.011,1.006-.015,2.012,0,3.017,0,.255-.1.265-.3.265" transform="translate(-64.709 -21.591)" fill="#2b7e3b"/>
        <path id="Trazado_255723" data-name="Trazado 255723" d="M82,95.781c-3.127.013-6.255.008-9.382.008-.851,0-.838,0-.855.846-.006.276.064.341.339.339,1.643-.015,3.287-.007,4.93-.007h4.526c.812,0,.8,0,.819-.809.009-.307-.071-.378-.377-.377" transform="translate(-64.704 -86.359)" fill="#2b7e3b"/>
        <path id="Trazado_255724" data-name="Trazado 255724" d="M72.125,144.879c3.127-.012,6.255-.007,9.382-.007.875,0,.864,0,.876-.861,0-.254-.054-.325-.317-.323-1.656.013-3.311.007-4.967.007H72.61c-.834,0-.821,0-.839.825-.006.281.06.362.354.361" transform="translate(-64.711 -129.553)" fill="#2b7e3b"/>
        <path id="Trazado_255725" data-name="Trazado 255725" d="M82.027,167.632c-3.127.011-6.255.007-9.382.007-.872,0-.861,0-.873.864,0,.258.061.322.32.32,1.656-.013,3.311-.007,4.967-.007h4.489c.831,0,.818,0,.837-.827.007-.287-.069-.359-.357-.358" transform="translate(-64.712 -151.143)" fill="#2b7e3b"/>
        <path id="Trazado_255726" data-name="Trazado 255726" d="M76.79,120.942c.907,0,.9,0,.89-.92,0-.207-.056-.266-.264-.263-.883.011-1.766,0-2.649,0h-2.1c-.895,0-.885,0-.89.883,0,.24.061.3.3.3,1.57-.011,3.139-.006,4.709-.006" transform="translate(-64.719 -107.979)" fill="#2b7e3b"/>
        <path id="Trazado_255727" data-name="Trazado 255727" d="M168.8,120.4c0-.59,0-.59-.588-.59s-.59,0-.59.588,0,.59.588.59.59,0,.59-.588" transform="translate(-151.13 -108.024)" fill="#2b7e3b"/>
        <path id="Trazado_255728" data-name="Trazado 255728" d="M144.852,120.378c0-.57,0-.57-.571-.57-.606,0-.606,0-.606.608,0,.57,0,.57.571.57.606,0,.606,0,.606-.608" transform="translate(-129.542 -108.023)" fill="#2b7e3b"/>
        <path id="Trazado_255729" data-name="Trazado 255729" d="M314.761,267.6c0-1.288-.007-2.576.006-3.864,0-.239-.059-.305-.3-.3q-1.471.022-2.943,0c-.24,0-.3.06-.3.3q.014,3.827,0,7.654c0,.239.058.305.3.3q1.471-.022,2.943,0c.24,0,.3-.06.3-.3-.013-1.263-.006-2.527-.006-3.79m-1.472,2.914c-.883-.006-.883,0-.883-.89v-2.1c0-.883.007-1.766,0-2.649,0-.208.055-.262.263-.264.92-.01.92-.018.92.89,0,1.57-.005,3.14.006,4.71,0,.24-.06.3-.3.3" transform="translate(-280.61 -237.52)" fill="#2b7e3b"/>
        <path id="Trazado_255730" data-name="Trazado 255730" d="M215.688,219.1q1.545-.012,3.09,0c.177,0,.227-.048.225-.225q-.012-1.545,0-3.091c0-.177-.048-.227-.225-.225q-1.545.012-3.09,0c-.177,0-.229.048-.225.225.011.515,0,1.03,0,1.545s.007,1.03,0,1.545c0,.177.048.227.225.225m1.538-2.359c.6,0,.6,0,.6.581,0,.6,0,.6-.618.6-.56,0-.56,0-.56-.581,0-.6,0-.6.581-.6" transform="translate(-194.269 -194.356)" fill="#2b7e3b"/>
        <path id="Trazado_255731" data-name="Trazado 255731" d="M311.479,219.1c.515-.006,1.03,0,1.545,0s1.006-.007,1.508,0c.173,0,.23-.041.228-.222q-.013-1.545,0-3.091c0-.173-.041-.23-.222-.228q-1.545.013-3.09,0c-.172,0-.23.041-.228.222.009,1.03.012,2.061,0,3.091,0,.223.1.228.261.226m1.551-2.358c.549,0,.549,0,.549.555,0,.623,0,.623-.629.623-.549,0-.549,0-.549-.555,0-.623,0-.623.629-.623" transform="translate(-280.605 -194.354)" fill="#2b7e3b"/>
        <path id="Trazado_255732" data-name="Trazado 255732" d="M218.781,263.455q-1.545.012-3.09,0c-.177,0-.227.048-.225.225q.012,1.545,0,3.091c0,.177.048.227.225.225q1.545-.012,3.09,0c.177,0,.229-.048.225-.225-.011-.515,0-1.03,0-1.545s-.007-1.03,0-1.545c0-.177-.049-.227-.225-.225m-1.507,2.359c-.627,0-.627,0-.627-.624,0-.553,0-.553.551-.553.627,0,.627,0,.627.625,0,.553,0,.553-.551.553" transform="translate(-194.272 -237.54)" fill="#2b7e3b"/>
        <path id="Trazado_255733" data-name="Trazado 255733" d="M266.892,263.676c0-.18-.054-.224-.228-.223q-1.545.011-3.09,0c-.18,0-.224.054-.223.228q.011,1.545,0,3.091c0,.18.054.227.228.223.5-.011,1.006,0,1.508,0s1.03,0,1.545,0c.164,0,.265,0,.262-.226-.014-1.03-.01-2.061,0-3.091m-1.749,2.136c-.61,0-.61,0-.61-.6,0-.574,0-.574.567-.574.61,0,.61,0,.61.6,0,.574,0,.574-.567.574" transform="translate(-237.447 -237.538)" fill="#2b7e3b"/>
        <path id="Trazado_255734" data-name="Trazado 255734" d="M218.781,311.35q-1.545.012-3.09,0c-.177,0-.227.048-.225.225q.012,1.545,0,3.091c0,.177.048.227.225.225q1.545-.012,3.09,0c.177,0,.229-.048.225-.225-.011-.515,0-1.03,0-1.545s-.007-1.03,0-1.545c0-.177-.049-.227-.225-.225m-1.526,2.359c-.608,0-.608,0-.608-.607,0-.571,0-.571.57-.571.608,0,.608,0,.608.607,0,.571,0,.571-.57.571" transform="translate(-194.272 -280.724)" fill="#2b7e3b"/>
        <path id="Trazado_255735" data-name="Trazado 255735" d="M266.893,311.572c0-.177-.048-.229-.225-.225-.515.011-1.03,0-1.545,0s-1.03.007-1.545,0c-.177,0-.227.048-.225.225q.012,1.545,0,3.091c0,.177.048.227.225.225q1.545-.012,3.09,0c.177,0,.227-.048.225-.225q-.012-1.545,0-3.091m-1.788,2.134c-.571,0-.571,0-.571-.57,0-.608,0-.608.607-.608.571,0,.571,0,.571.57,0,.608,0,.608-.606.608" transform="translate(-237.448 -280.722)" fill="#2b7e3b"/>
        <path id="Trazado_255736" data-name="Trazado 255736" d="M263.578,219.1c.515-.011,1.03,0,1.545,0s1.03-.007,1.545,0c.177,0,.227-.049.225-.225q-.012-1.545,0-3.091c0-.177-.048-.227-.225-.225q-1.545.012-3.09,0c-.177,0-.226.048-.225.225q.012,1.545,0,3.091c0,.177.048.229.225.225m1.564-2.36c.569,0,.569,0,.569.572,0,.606,0,.606-.608.606-.569,0-.569,0-.569-.571,0-.606,0-.606.608-.606" transform="translate(-237.448 -194.356)" fill="#2b7e3b"/>
        <path id="Trazado_255737" data-name="Trazado 255737" d="M265.257,77.74c-.269.03-.58.01-.645-.283-.078-.353-.29-.307-.526-.3a4.214,4.214,0,0,1-.514,0c-.193-.019-.23.065-.208.232a1.59,1.59,0,0,0,.885,1.31.457.457,0,0,1,.294.5c-.009.964,0,.959.968.909.154-.008.217-.038.209-.2-.013-.281,0-.564-.007-.846a.275.275,0,0,1,.193-.3,1.6,1.6,0,0,0,.982-1.511,1.627,1.627,0,0,0-.966-1.526c-.348-.178-.7-.352-1.048-.526a.5.5,0,0,1-.325-.558.478.478,0,0,1,.449-.418c.268-.029.579-.012.645.282.079.35.288.31.525.3a3.989,3.989,0,0,1,.514,0c.192.019.229-.063.208-.231a1.5,1.5,0,0,0-.729-1.214c-.389-.2-.546-.439-.446-.781,0-.722,0-.722-.64-.722a2.545,2.545,0,0,1-.294,0c-.185-.022-.262.036-.248.238.018.269,0,.539.007.809a.275.275,0,0,1-.192.3,1.6,1.6,0,0,0-.983,1.51,1.648,1.648,0,0,0,1,1.545q.507.257,1.017.508a.5.5,0,0,1,.325.558.479.479,0,0,1-.449.418" transform="translate(-237.454 -64.782)" fill="#2b7e3b"/>
      </g>
    </g>
  </g>
</svg>
