<svg id="Grupo_872737" data-name="Grupo 872737" xmlns="http://www.w3.org/2000/svg" xmlns:xlink="http://www.w3.org/1999/xlink" width="83.986" height="84.021" viewBox="0 0 83.986 84.021">
  <defs>
    <clipPath id="clip-path">
      <rect id="Rectángulo_292193" data-name="Rectángulo 292193" width="83.986" height="84.022" fill="#359547"/>
    </clipPath>
  </defs>
  <g id="Grupo_872733" data-name="Grupo 872733" clip-path="url(#clip-path)">
    <path id="Trazado_255951" data-name="Trazado 255951" d="M152.479,194.9q-.028-16.273,0-32.546c0-.514-.1-.748-.662-.68-.694.084-1.625-.3-2.027.169-.343.4-.113,1.3-.119,1.977-.012,1.339-.013,2.677-.02,4.016,0,.016-.034.032-.116.1-1.491-1.492-2.983-2.991-4.484-4.481-.4-.4.052-.524.222-.686,1.974-1.889,3.993-3.732,5.931-5.657a3.791,3.791,0,0,1,2.56-1.162,9.718,9.718,0,0,0,8.183-7.15c.078-.3.055-.642.336-.864v-2.953c-.56-.166-.43-.7-.531-1.077a9.57,9.57,0,0,0-9.508-7.214,9.444,9.444,0,0,0-9.262,8.887,2.211,2.211,0,0,1-.6,1.48c-1.989,2.067-3.947,4.162-5.919,6.246-.818.864-1.01.841-1.86,0-1.107-1.1-2.2-2.21-3.31-3.3-.917-.9-1.437-.9-2.36.02q-5.954,5.934-11.889,11.887c-.923.926-.922,1.47.027,2.43,1.94,1.965,3.9,3.908,5.853,5.861l12.527,12.526a8.656,8.656,0,0,0,.773.733,1.282,1.282,0,0,0,1.6.075,5.852,5.852,0,0,0,.981-.868q4.873-4.87,9.747-9.738c.287-.286.577-.79.985-.68l.136-.123v.181c.345.216.2.762.2,1.156q.013,9.513.005,19.026c0,1.591-.02,1.612-1.589,1.612h-51.5c-.246,0-.493.016-.738,0-.6-.044-.822.216-.823.817,0,.585.179,1.207-.21,1.751h56.446a1.73,1.73,0,0,0,1.027-1.77m-18.52-35.234c3.577-3.729,7.111-7.5,10.687-11.23a2.892,2.892,0,0,0,.863-2.111A6.986,6.986,0,0,1,159.477,146a6.884,6.884,0,0,1-6.556,7.194,4.338,4.338,0,0,0-3.084,1.347c-3.55,3.447-7.177,6.816-10.75,10.239-.465.446-.712.432-1.148-.025q-1.924-2.018-3.943-3.945c-.443-.425-.5-.67-.038-1.15m4.8,19.368c-.584.488-1.079,1.431-1.664,1.474-.6.045-1.111-.924-1.648-1.461-5.317-5.307-10.626-10.622-16.029-16.027.675-.644,1.355-1.274,2.009-1.929.213-.213.347-.192.518.018a4.016,4.016,0,0,0,.288.291q8.259,8.258,16.529,16.505c.453.45.5.711,0,1.127m8.6-8.6q-2.866,2.814-5.682,5.678c-.3.3-.465.312-.774,0q-8.419-8.447-16.866-16.866c-.292-.291-.322-.45-.008-.758q2.864-2.816,5.678-5.681c.32-.326.485-.277.769.016.912.942,1.835,1.875,2.785,2.778.326.31.278.487-.008.777-.882.9-1.741,1.812-2.6,2.73a1.437,1.437,0,0,0,.036,2.342q3.294,3.314,6.6,6.611a1.494,1.494,0,0,0,1.2.582,1.43,1.43,0,0,0,1.093-.49c.931-.885,1.876-1.754,2.791-2.654.293-.289.464-.322.773-.005,1.373,1.408,2.77,2.794,4.172,4.174.276.271.374.436.039.765" transform="translate(-78.296 -112.644)" fill="#359547"/>
    <path id="Trazado_255952" data-name="Trazado 255952" d="M250.467,135.356a9.816,9.816,0,0,0-9.038,9.376,1.371,1.371,0,0,1-.386.942q-3.2,3.349-6.374,6.726c-.319.34-.5.354-.826.013-1.217-1.257-2.464-2.484-3.7-3.719-1.049-1.045-1.63-1.041-2.691.019q-5.918,5.913-11.832,11.83c-1.1,1.1-1.093,1.7.016,2.809l18.791,18.79c1.1,1.1,1.658,1.1,2.752.006q5.252-5.246,10.5-10.493c.166-.166.346-.323.576-.53-.408-.11-.7.394-.985.68q-4.881,4.862-9.747,9.738a5.843,5.843,0,0,1-.981.867,1.282,1.282,0,0,1-1.6-.075,8.6,8.6,0,0,1-.773-.733l-12.527-12.525c-1.952-1.952-3.913-3.9-5.853-5.861-.948-.961-.95-1.505-.027-2.43q5.937-5.951,11.889-11.887c.923-.92,1.443-.92,2.36-.02,1.112,1.091,2.2,2.205,3.31,3.3.85.841,1.043.865,1.86,0,1.971-2.084,3.93-4.179,5.919-6.246a2.211,2.211,0,0,0,.6-1.48,9.444,9.444,0,0,1,9.262-8.887,9.57,9.57,0,0,1,9.508,7.214c.1.378-.029.911.531,1.077-.28-.247-.168-.608-.245-.91a9.847,9.847,0,0,0-10.291-7.593" transform="translate(-177.017 -111.522)" fill="#359547"/>
    <path id="Trazado_255953" data-name="Trazado 255953" d="M95.216,361.817c0-.6.225-.861.823-.817.245.018.492,0,.738,0h51.5c1.568,0,1.588-.021,1.589-1.612q0-9.513-.005-19.026c0-.393.149-.94-.2-1.156v.693c0,6.671-.014,13.341.02,20.012,0,.731-.183.879-.891.878q-26.329-.033-52.657-.017a4.987,4.987,0,0,1-.574,0c-.4-.047-.516.121-.51.511.011.762-.03,1.525-.049,2.287.388-.544.209-1.166.21-1.751" transform="translate(-78.296 -279.547)" fill="#359547"/>
    <path id="Trazado_255954" data-name="Trazado 255954" d="M33.605,49.442c.4.193.742.362,1.088.518a2.634,2.634,0,0,0,1.2.2.97.97,0,0,1,.7.35,3.734,3.734,0,0,0,5.132.018,1.444,1.444,0,0,1,.942-.379,3.717,3.717,0,0,0,3.542-3.53,1.568,1.568,0,0,1,.421-1.005,3.713,3.713,0,0,0-.038-5,1.433,1.433,0,0,1-.378-.934,3.721,3.721,0,0,0-3.436-3.552,2.093,2.093,0,0,1-1.22-.529,3.68,3.68,0,0,0-4.813.041,1.92,1.92,0,0,1-1.155.482,3.7,3.7,0,0,0-3.447,3.62,1.085,1.085,0,0,1-.58.972,16.794,16.794,0,1,0,2.035,8.735m.667-7.247a1.435,1.435,0,0,0,.759-1.924c-.247-.99.3-1.53,1.3-1.3,1.062.246,1.353.122,1.939-.827a.97.97,0,0,1,1.8-.014c.612.976.847,1.072,2.015.826.941-.2,1.483.363,1.248,1.292a1.432,1.432,0,0,0,.8,1.967c.876.538.868,1.293-.018,1.834s-1.043.937-.775,1.975c.235.909-.341,1.492-1.27,1.284-1.162-.26-1.389-.179-2.005.826a1.038,1.038,0,0,1-.828.577,1.083,1.083,0,0,1-1.024-.686,1.386,1.386,0,0,0-1.832-.762c-1.045.3-1.611-.259-1.354-1.287a1.429,1.429,0,0,0-.78-1.914c-.925-.564-.917-1.3.019-1.871M2.773,48.7a14.008,14.008,0,1,1,14,14.036,14.052,14.052,0,0,1-14-14.036" transform="translate(0 -26.313)" fill="#359547"/>
    <path id="Trazado_255955" data-name="Trazado 255955" d="M112.537,275.083c1.353,0,1.82-.469,1.821-1.821,0-2.434.012-4.867-.006-7.3-.005-.675.307-1.6-.132-1.958-.412-.339-1.3-.062-1.977-.13-.616-.062-.7.2-.693.739.029,2.269-.022,4.54.032,6.808.017.729-.177.885-.892.884q-25.719-.034-51.437,0c-.7,0-.9-.141-.9-.879q.043-15.381.012-30.762c0-.645.292-1.5-.136-1.876-.361-.317-1.2-.057-1.817-.125-.66-.072-.859.11-.858.819q.04,16.817.019,33.634c0,1.57.408,1.971,2,1.971h27.4q13.782,0,27.565,0" transform="translate(-45.785 -196.654)" fill="#359547"/>
    <path id="Trazado_255956" data-name="Trazado 255956" d="M57.8,4.239c.55,0,.759-.172.66-.7-.12-.634.156-.748.751-.747q19.524.027,39.049,0c.649,0,.8.171.8.8-.032,3.336-.018,6.672-.013,10.008,0,1.339.49,1.818,1.842,1.819,3.336,0,6.672.015,10.008-.012.579,0,.8.086.776.738-.06,1.392-.034,2.789-.012,4.183.011.674-.3,1.554.13,1.966s1.307.053,1.98.132c.627.074.7-.22.691-.749-.025-2.351-.036-4.7,0-7.054a2.58,2.58,0,0,0-.828-2.031Q107.746,6.766,101.915.879A2.718,2.718,0,0,0,99.82,0C92.792.024,85.765.013,78.737.013H57.817c-1.824,0-2.153.326-2.154,2.134,0,2.12,0,2.1,2.136,2.092m44.042.676c.759.56,7.257,7.08,7.685,7.711-2.474,0-4.892,0-7.309,0-.443,0-.375-.3-.375-.561,0-2.345,0-4.691,0-7.154" transform="translate(-45.873 0)" fill="#359547"/>
    <path id="Trazado_255957" data-name="Trazado 255957" d="M184.61,326.452c-1.245,0-1.736.487-1.738,1.739q-.011,5.245,0,10.491c0,1.259.487,1.744,1.73,1.746q4.262.008,8.524,0h7.459c1.92,0,1.888,0,1.932-1.96.015-.678-.161-.858-.846-.854-5.082.031-10.163.005-15.245.031-.607,0-.782-.134-.771-.76.041-2.349.027-4.7.007-7.048,0-.454.112-.613.587-.6,1.42.03,2.841.024,4.262,0,.7-.009,1.623.305,2.047-.123s.062-1.349.134-2.048c.052-.506-.111-.639-.622-.633-2.486.029-4.972.01-7.459.015" transform="translate(-150.703 -269.022)" fill="#359547"/>
    <path id="Trazado_255958" data-name="Trazado 255958" d="M382.441,34.65c.956-.022,1.915.034,2.868-.022.614-.036.772.14.767.759-.032,3.743-.008,7.486-.026,11.229,0,.477.074.7.615.651a7.607,7.607,0,0,1,1.555,0c.579.063.655-.193.65-.691-.024-2.185-.01-4.371-.011-6.557s.008-4.371,0-6.557a1.423,1.423,0,0,0-1.608-1.615c-1.065-.015-2.131,0-3.2,0-2.265,0-2.249,0-2.182,2.279.014.459.176.534.572.525" transform="translate(-314.689 -26.241)" fill="#359547"/>
    <path id="Trazado_255959" data-name="Trazado 255959" d="M191.8,199.653c.06-.609-.194-.7-.74-.7-4.671.021-9.342.012-14.014.012-2.053,0-2.032,0-2.051,2.09,0,.558.113.738.707.73,2.567-.036,5.135-.015,7.7-.015,2.1,0,4.207.012,6.31-.007.671-.006,1.589.308,1.947-.132.339-.417.071-1.3.137-1.976" transform="translate(-144.215 -163.959)" fill="#359547"/>
    <path id="Trazado_255960" data-name="Trazado 255960" d="M103.117,264.454c-.059.6.118.779.751.775,4.644-.03,9.289-.016,13.934-.016,2.157,0,2.137,0,2.125-2.184,0-.513-.142-.635-.641-.631-2.6.025-5.191.012-7.786.012-2.1,0-4.207-.014-6.311.008-.669.007-1.56-.308-1.946.139-.329.382-.062,1.25-.125,1.9" transform="translate(-84.945 -216.179)" fill="#359547"/>
    <path id="Trazado_255961" data-name="Trazado 255961" d="M164.039,230.462c-3.74.032-7.481.008-11.221.023-.647,0-1.528-.3-1.878.14-.324.407-.065,1.254-.128,1.9-.059.6.117.8.751.783,2.074-.043,4.15-.016,6.225-.016h5.078c1.978,0,1.951,0,1.983-2.008.01-.638-.154-.828-.81-.822" transform="translate(-124.254 -189.865)" fill="#359547"/>
    <path id="Trazado_255962" data-name="Trazado 255962" d="M212,159.313c-2.076.027-4.153.011-6.229.011H200.69c-1.988,0-1.954,0-2,1.987-.016.718.233.834.882.829,3.688-.031,7.377-.015,11.065-.015,2.131,0,2.1,0,2.118-2.115,0-.616-.224-.7-.756-.7" transform="translate(-163.745 -131.292)" fill="#359547"/>
    <path id="Trazado_255963" data-name="Trazado 255963" d="M114.321,326.8c.064-.556-.1-.746-.693-.73-1.637.045-3.276.016-4.915.016-1.174,0-2.349-.019-3.522.007-.671.015-1.562-.306-1.95.138-.329.376-.046,1.251-.124,1.894-.084.7.231.776.82.77,2.758-.027,5.516,0,8.274-.017.676,0,1.554.29,1.973-.115s.061-1.293.137-1.963" transform="translate(-84.948 -268.66)" fill="#359547"/>
    <path id="Trazado_255964" data-name="Trazado 255964" d="M114.194,358.51c.041-.527-.116-.684-.662-.678-2.813.03-5.627.006-8.44.019-.675,0-1.579-.3-1.965.116-.418.449-.064,1.35-.134,2.049-.05.5.1.65.617.638,1.638-.038,3.277-.014,4.916-.014,1.174,0,2.349.016,3.523-.006.7-.013,1.63.307,2.03-.148.342-.389.062-1.3.115-1.977" transform="translate(-84.817 -294.827)" fill="#359547"/>
    <path id="Trazado_255965" data-name="Trazado 255965" d="M113.678,389.633c-1.665.023-3.33.009-5,.009-1.146,0-2.293-.018-3.439.007-.7.015-1.655-.316-2.027.138-.352.431-.089,1.352-.132,2.055-.026.431.064.614.561.61,3.357-.023,6.715-.018,10.072,0,.4,0,.6-.059.567-.523a11.92,11.92,0,0,1,0-1.718c.036-.49-.168-.579-.607-.573" transform="translate(-84.909 -321.031)" fill="#359547"/>
    <path id="Trazado_255966" data-name="Trazado 255966" d="M216.614,357.857c-.7.008-1.65-.32-2.022.148-.35.44-.085,1.354-.134,2.057-.033.471.132.605.6.594,1.227-.03,2.456-.01,3.684-.01.682,0,1.365.017,2.046,0s1.57.3,1.969-.12c.432-.451.07-1.351.145-2.049.055-.516-.137-.641-.636-.633-1.882.029-3.766,0-5.648.019" transform="translate(-176.697 -294.83)" fill="#359547"/>
    <path id="Trazado_255967" data-name="Trazado 255967" d="M103.081,296.46c-.049.554.2.614.661.6,1.172-.028,2.344-.01,3.516-.01.709,0,1.418.018,2.126,0,.674-.022,1.57.3,1.963-.122.422-.453.069-1.35.139-2.047.05-.5-.1-.648-.618-.639-1.88.035-3.762,0-5.642.02-.7.007-1.651-.311-2.017.145-.35.436-.067,1.354-.129,2.054" transform="translate(-84.909 -242.421)" fill="#359547"/>
    <path id="Trazado_255968" data-name="Trazado 255968" d="M103.659,233.692c.983-.025,1.966-.008,2.95-.008,2.272,0,2.261,0,2.153-2.308-.018-.385-.111-.528-.511-.514-.764.027-1.529.008-2.294.008H105.3c-2.269,0-2.259,0-2.151,2.307.018.384.109.525.51.515" transform="translate(-84.977 -190.257)" fill="#359547"/>
    <path id="Trazado_255969" data-name="Trazado 255969" d="M167.227,297.465c.737-.025,1.475-.007,2.212-.007h.737c2.271,0,2.26,0,2.156-2.3-.018-.392-.121-.513-.511-.5-.983.024-1.966.008-2.949.008-2.292,0-2.281,0-2.162,2.3.02.39.127.524.518.511" transform="translate(-137.354 -242.826)" fill="#359547"/>
    <path id="Trazado_255970" data-name="Trazado 255970" d="M53.462,83.684c-.507-.539-.769-.521-1.286,0-3.939,3.987-7.92,7.932-11.865,11.912-.4.406-.626.448-.993,0a11.719,11.719,0,0,0-1.154-1.164c-.537-.5-1-1.454-1.595-1.393-.574.059-1.052.946-1.6,1.443-.271.248-.341.4-.032.7,1.3,1.256,2.561,2.542,3.836,3.819a1.583,1.583,0,0,0,.985.459,1.96,1.96,0,0,0,1.357-.734q6.171-6.181,12.351-12.354c1.325-1.325,1.3-1.3-.01-2.688" transform="translate(-28.629 -68.638)" fill="#359547"/>
  </g>
</svg>
