<svg xmlns="http://www.w3.org/2000/svg" xmlns:xlink="http://www.w3.org/1999/xlink" width="82" height="82" viewBox="0 0 82 82">
  <defs>
    <clipPath id="clip-path">
      <rect id="Rectángulo_291635" data-name="Rectángulo 291635" width="67.213" height="66.509" fill="none"/>
    </clipPath>
  </defs>
  <g id="Grupo_877615" data-name="Grupo 877615" transform="translate(-759.667 -7084)">
    <circle id="Elipse_4712" data-name="Elipse 4712" cx="41" cy="41" r="41" transform="translate(759.667 7084)" fill="#fff"/>
    <g id="Grupo_872673" data-name="Grupo 872673" transform="translate(770.966 7099.492)">
      <g id="Grupo_872673-2" data-name="Grupo 872673" clip-path="url(#clip-path)">
        <path id="Trazado_255815" data-name="Trazado 255815" d="M.436,61.03a3.668,3.668,0,0,0,2.2,2.115c.478.177.651.449.452.952a4.938,4.938,0,0,0-.283,1.933c.016.874.015,1.749,0,2.623a4.291,4.291,0,0,0,.337,1.919.657.657,0,0,1-.27.952,4.09,4.09,0,0,0-2.041,4.1c.057.915,0,1.836.014,2.753a3.594,3.594,0,0,0,3.748,3.7q15.474,0,30.949.009a3.554,3.554,0,0,0,2.965-1.393.925.925,0,0,1,1.3-.3,16.9,16.9,0,0,0,5.655,1.583A19.108,19.108,0,0,0,65.329,70.622a18.437,18.437,0,0,0-.238-15.931,18.819,18.819,0,0,0-12.175-10.3,18.056,18.056,0,0,0-8.687-.373,2.156,2.156,0,0,1-1.963-.379,3.009,3.009,0,0,0-1.79-.552c-.431-.026-.685-.238-.522-.683a7.865,7.865,0,0,0,.259-2.725c0-.721.006-1.443,0-2.164a3.692,3.692,0,0,0-3.835-3.853c-2.382-.026-4.765-.005-7.147-.006-.219,0-.437,0-.656-.009a.627.627,0,0,1-.682-.7q-.009-.361-.009-.721,0-4.492,0-8.983a6.337,6.337,0,0,0-.148-1.431,3.233,3.233,0,0,0-3.144-2.577q-3.278-.035-6.557,0a3.292,3.292,0,0,0-3.16,2.806,11.288,11.288,0,0,0-.131,1.762q.01,4.36,0,8.721c0,1.037-.091,1.13-1.116,1.132-2.579.005-5.158,0-7.737,0a3.792,3.792,0,0,0-4.131,4.114c0,1.005-.01,2.011,0,3.016a3.654,3.654,0,0,0,3.2,3.787c.9.169.947.232.711,1.114a3.972,3.972,0,0,0-.113,1.039c0,1.137,0,2.273,0,3.41a4.607,4.607,0,0,0,.2,1.55c.177.516.058.666-.5.714-.414.035-.83.007-1.245.015A3.707,3.707,0,0,0,.463,54.733c-.107.235-.093.583-.463.636v5.247c.29-.015.357.223.436.414M36.318,80.207a2.383,2.383,0,0,1-.967.127q-15.281,0-30.561,0a1.925,1.925,0,0,1-2.166-2.184c0-1.071-.011-2.142,0-3.213a1.876,1.876,0,0,1,1.966-1.987c1.223-.011,2.447.01,3.671.017.628-.008,1.256-.018,1.884-.023.909-.006,1.128-.17,1.376-1.039a1.169,1.169,0,0,0-1.356-.939c-1.157.035-2.315.014-3.473.008a1.928,1.928,0,0,1-2.1-2.124q-.009-1.573,0-3.146a1.922,1.922,0,0,1,2.089-2.141c1.245-.026,2.49-.009,3.736-.009q8.651,0,17.3,0c.188,0,.393-.073.566.071a25.184,25.184,0,0,0,1.223,6.038l.575,1.309h-.789q-7.274,0-14.548,0c-.931,0-1.21.259-1.284,1.167.207.657.693.807,1.326.806,5.243-.012,10.486,0,15.729-.016a.956.956,0,0,1,.944.5,20.231,20.231,0,0,0,5.006,5.3c.3.167.784.3.756.615-.039.436-.493.681-.907.859M42.45,46.273a4.185,4.185,0,0,1,.443-.092,14.427,14.427,0,0,1,5.351-.724,17.445,17.445,0,1,1-5.626,34.105h0c-6.545-2.219-10.671-6.7-12-13.462A17.32,17.32,0,0,1,42.45,46.273m-2.2-1.44c.045.24-.154.209-.239.246a19.468,19.468,0,0,0-7.4,5.668,1.689,1.689,0,0,1-.19.174c-.244.355-.493.707-.729,1.068a.448.448,0,0,1-.419.239c-.558-.01-1.116,0-1.793,0l.814-1.317q1.647-2.891,3.291-5.785a.523.523,0,0,1,.523-.293c2.049.007,4.1,0,6.145,0m-12.21-9.206c.069-.212.211-.184.355-.184,2.75,0,5.5-.021,8.249.016a1.81,1.81,0,0,1,1.786,1.818c.021,1.221-.008,2.443-.015,3.664h0a1.8,1.8,0,0,1-1.544,1.866,5.733,5.733,0,0,1-.97.057c-1.259.006-1.259,0-1.146-1.27a3.287,3.287,0,0,1-.176-.954,5.092,5.092,0,0,0-4.826-3.894c-.305-.006-.611,0-.917,0-.754,0-1.029-.4-.8-1.115m-12.715,3.09a1.165,1.165,0,0,0,1.221-.666q.012-7.322.025-14.645c0-.262-.011-.524.008-.784A1.591,1.591,0,0,1,18.3,20.976c.282-.007.565.016.847.025,1.791-.007,3.583-.036,5.374-.012a1.549,1.549,0,0,1,1.545,1.687c.022.764.006,1.53.006,2.295q0,6.2,0,12.392c0,1.06.295,1.346,1.367,1.347.678,0,1.355,0,2.033,0a3.1,3.1,0,0,1,2.778,4.78c-2.238,3.925-4.512,7.828-6.772,11.74-.524.907-1.013,1.838-1.591,2.709a3.046,3.046,0,0,1-5.283-.295h0q-2.145-3.672-4.29-7.345c-1.217-2.095-2.4-4.213-3.644-6.289-.748-1.244-1.109-2.483-.3-3.81a3.347,3.347,0,0,1,3.53-1.469c.475-.007.952-.04,1.426-.015m-2.189,13.5c-1.451,0-2.82.043-4.185-.015a1.749,1.749,0,0,1-1.618-1.7c-.041-1.331-.015-2.664-.007-4a1.6,1.6,0,0,1,.463-1.057c.653-.734,1.049-.7,1.532.14q1.735,3,3.468,6c.106.183.207.369.346.62m-7.688-9.36a1.891,1.891,0,0,1-1.9-1.935q-.035-1.77,0-3.54a1.871,1.871,0,0,1,1.9-1.929c1.244-.025,2.49.008,3.735.016,1.683-.008,3.365-.014,5.048-.027.654,0,.32.488.372.762s.1.57-.38.551a11.262,11.262,0,0,0-1.9.042,5.066,5.066,0,0,0-3.7,2.437,5.142,5.142,0,0,0-.636,3.217c.051.318-.045.431-.371.422-.721-.019-1.444.02-2.163-.016M1.971,56.181A1.887,1.887,0,0,1,3.941,54.2c1.222-.012,2.443.011,3.665.019,2.11-.008,4.22-.007,6.33-.032a.606.606,0,0,1,.588.4c.667,1.17,1.354,2.328,2.011,3.5a8.367,8.367,0,0,0,1.594,2.125,5.23,5.23,0,0,0,6.392,0,13.348,13.348,0,0,0,2.31-3.379c.27-.448.523-.906.784-1.358.858-1.484.858-1.484,2.738-1.209a21.338,21.338,0,0,0-1.9,6.084c-.012,1.239-.012,1.239-1.226,1.239H4.378c-1.759,0-2.41-.648-2.41-2.4,0-1-.011-2.008,0-3.012" transform="translate(0 -15.844)"/>
        <path id="Trazado_255816" data-name="Trazado 255816" d="M.261,60.017A3.484,3.484,0,0,0,2.242,62.09c.694.255.986.455.558,1.193A2.427,2.427,0,0,0,2.62,64.5c.01,1.093.014,2.186,0,3.279a3.76,3.76,0,0,0,.44,1.955c.161.283.108.393-.177.522a3.693,3.693,0,0,0-1.86,1.855C.5,73.22.475,77.843,1.01,78.95a3.863,3.863,0,0,0,3.8,2.269q15.248-.018,30.5-.006c.175,0,.35-.007.524-.015a3.582,3.582,0,0,0,2.885-1.565c.274-.39.453-.427.87-.231a18.219,18.219,0,0,0,11.816,1.451c7.706-1.664,12.909-6.321,15.007-13.915s.048-14.27-5.763-19.572a18.614,18.614,0,0,0-16.975-4.53.955.955,0,0,1-.952-.2,3.307,3.307,0,0,0-2.279-.85c-.369,0-.526-.043-.322-.465a3.66,3.66,0,0,0,.294-1.662c-.012-1.071,0-2.142,0-3.214a3.858,3.858,0,0,0-4.078-4.06c-2.58,0-5.159-.014-7.739.011-.47,0-.566-.133-.564-.581.02-3.3.012-6.6.01-9.9,0-2.562-1.415-3.992-3.954-4-1.836,0-3.676.065-5.508-.018A3.722,3.722,0,0,0,14.6,21.9c.074,3.278,0,6.558.034,9.837.006.57-.167.664-.689.659-2.82-.026-5.64-.024-8.46-.008a3.856,3.856,0,0,0-3.9,3.848q-.029,1.836,0,3.673A3.846,3.846,0,0,0,4.473,43.6a10.522,10.522,0,0,0,1.192.177,18.207,18.207,0,0,0,.011,7.359c-.591,0-1.244-.021-1.894,0a3.749,3.749,0,0,0-3.237,1.9A10.3,10.3,0,0,0,0,54.28c.37-.053.355-.4.463-.636a3.707,3.707,0,0,1,3.564-2.323c.415-.008.832.021,1.245-.015.555-.048.674-.2.5-.714a4.606,4.606,0,0,1-.2-1.55c.005-1.137,0-2.273,0-3.41a3.974,3.974,0,0,1,.113-1.039c.236-.882.191-.945-.711-1.114a3.654,3.654,0,0,1-3.2-3.787c-.012-1.005-.005-2.011,0-3.016a3.792,3.792,0,0,1,4.131-4.114c2.579,0,5.158,0,7.737,0,1.024,0,1.114-.094,1.116-1.131q.006-4.36,0-8.721a11.27,11.27,0,0,1,.131-1.762,3.292,3.292,0,0,1,3.16-2.806q3.278-.036,6.557,0a3.233,3.233,0,0,1,3.144,2.577,6.336,6.336,0,0,1,.148,1.431q-.006,4.492,0,8.983,0,.361.009.721a.627.627,0,0,0,.682.7c.219.005.437.009.655.009,2.382,0,4.765-.019,7.147.007a3.692,3.692,0,0,1,3.835,3.853c.006.721,0,1.442,0,2.164a7.861,7.861,0,0,1-.259,2.725c-.162.445.092.657.522.683a3.007,3.007,0,0,1,1.791.552,2.156,2.156,0,0,0,1.963.379,18.056,18.056,0,0,1,8.687.373A18.819,18.819,0,0,1,65.09,53.6a18.436,18.436,0,0,1,.238,15.931A19.108,19.108,0,0,1,45.467,80.878,16.909,16.909,0,0,1,39.812,79.3a.925.925,0,0,0-1.3.3,3.555,3.555,0,0,1-2.965,1.393Q20.07,80.968,4.6,80.981a3.6,3.6,0,0,1-3.748-3.7c-.018-.918.043-1.839-.014-2.753a4.09,4.09,0,0,1,2.041-4.1.657.657,0,0,0,.27-.952,4.291,4.291,0,0,1-.337-1.919c.014-.874.016-1.749,0-2.623a4.937,4.937,0,0,1,.283-1.933c.2-.5.025-.775-.452-.952a3.669,3.669,0,0,1-2.2-2.115C.357,59.749.29,59.511,0,59.527c.217.094.191.321.261.491" transform="translate(0 -14.754)"/>
        <path id="Trazado_255817" data-name="Trazado 255817" d="M279.875,94.487a2.729,2.729,0,0,0-1.8-.034c-1.073.354-2.15.7-3.208,1.093a2.854,2.854,0,0,0-1.863,2.735,3.031,3.031,0,0,0,3.6,3.141c1.009-.16,2.012-.37,3.009-.6a2.813,2.813,0,0,0,2.4-2.78c-.038-1.707-.665-3.043-2.139-3.56m-.46,4.344c-1.117.285-2.257.479-3.187.67a1.052,1.052,0,0,1-1.207-.859.931.931,0,0,1,.485-1.221c1.054-.409,2.127-.782,3.214-1.09.627-.178,1.007.2,1.23,1.039.21.789.066,1.308-.536,1.462" transform="translate(-225.148 -77.783)"/>
        <path id="Trazado_255818" data-name="Trazado 255818" d="M250.544,37.9a3.618,3.618,0,0,0-1.392-3.017,2.907,2.907,0,0,0-4.217.145c-.726.786-1.425,1.6-2.109,2.422a3.086,3.086,0,0,0,4.3,4.361c.844-.693,1.656-1.425,2.47-2.154a2.759,2.759,0,0,0,.948-1.756m-2.27.29c-.783.728-1.6,1.416-2.412,2.117a1.1,1.1,0,0,1-.6.232,1.263,1.263,0,0,1-1.05-.694.9.9,0,0,1,.088-1.1c.692-.816,1.386-1.631,2.115-2.413a.9.9,0,0,1,1.346-.043,4.393,4.393,0,0,1,.554.556.9.9,0,0,1-.046,1.345" transform="translate(-199.658 -28.078)"/>
        <path id="Trazado_255819" data-name="Trazado 255819" d="M192.807,0a2.891,2.891,0,0,0-2.835,2.27c-.218.979-.384,1.97-.583,2.953a3.09,3.09,0,0,0,5.944,1.657c.313-.883.61-1.771.914-2.657a3.213,3.213,0,0,0,.187-1.352C196.265,1.053,194.846.121,192.807,0m1.633,3.278a31.385,31.385,0,0,1-1.116,3.271c-.225.558-.78.574-1.3.417a1.019,1.019,0,0,1-.74-1.23c.186-.916.376-1.99.629-3.048.149-.622.631-.821,1.348-.658.946.215,1.362.593,1.179,1.249" transform="translate(-156.121)"/>
        <path id="Trazado_255820" data-name="Trazado 255820" d="M75.1,53.162c1.608,3.949,3.1,7.945,4.629,11.925a8.75,8.75,0,0,1,.241.875h0a3.046,3.046,0,0,0,5.283.295c.578-.871,1.067-1.8,1.591-2.709,2.261-3.912,4.535-7.815,6.772-11.74a3.1,3.1,0,0,0-2.778-4.78c-.677-.005-1.355,0-2.033,0-1.072,0-1.366-.288-1.367-1.347q0-6.2,0-12.392c0-.765.016-1.53-.006-2.295a1.549,1.549,0,0,0-1.544-1.687c-1.791-.025-3.583,0-5.374.012a5.4,5.4,0,0,0-.38,2.293c-.027,4.167-.012,8.335-.013,12.5a1.829,1.829,0,0,1-1.563,1.859,1.042,1.042,0,0,0-.645.4,1.165,1.165,0,0,1-1.221.666c-.474-.025-.95.008-1.425.015a6.406,6.406,0,0,0-.167,6.114" transform="translate(-61.361 -24.16)" fill="#dc636e"/>
        <path id="Trazado_255821" data-name="Trazado 255821" d="M186.053,179.782a17.664,17.664,0,0,0-1.2,6.96,18.368,18.368,0,0,0,4.35,11.432,18.822,18.822,0,0,0,5.514,4.43c.156.085.317.156.338.363h0a17.276,17.276,0,0,0,9.109.323,17.448,17.448,0,0,0-3.483-34.428,14.423,14.423,0,0,0-5.351.724,36.77,36.77,0,0,0-3.29,2.11,18.47,18.47,0,0,0-5.991,8.087m11.466-6.65A13.441,13.441,0,0,1,207.6,175.1a1.134,1.134,0,0,1,.564,1.541,3.618,3.618,0,0,0,1.348,1.229h0a1.117,1.117,0,0,1,1.472.446c5.937,7.792,1.261,19.578-8.416,21.191a13.428,13.428,0,0,1-5.054-26.375" transform="translate(-152.441 -139.249)" fill="#f0e54c"/>
        <path id="Trazado_255822" data-name="Trazado 255822" d="M43.316,323.278c.044.936.033,1.878,0,2.815-.018.5.112.679.651.678q13.817-.025,27.634-.017c.216,0,.507.114.585-.244h0a20.228,20.228,0,0,1-5.006-5.3.956.956,0,0,0-.944-.5c-5.243.015-10.486,0-15.729.016-.633,0-1.119-.149-1.326-.806-.248-.4-.647-.213-.985-.24-.316-.025-.637,0-.955,0-.248.869-.467,1.033-1.376,1.039-.628,0-1.256.015-1.884.023a3.973,3.973,0,0,0-.664,2.535" transform="translate(-35.717 -263.621)" fill="#f0e54c"/>
        <path id="Trazado_255823" data-name="Trazado 255823" d="M54.584,274.228c-.054,1.309,0,2.622-.019,3.934-.005.4.2.463.529.46,1.071-.011,2.142,0,3.213,0H74.5a25.189,25.189,0,0,1-1.223-6.038l-16.917.007c-1.3,0-1.726.346-1.779,1.642" transform="translate(-44.994 -224.794)" fill="#f0e54c"/>
        <path id="Trazado_255824" data-name="Trazado 255824" d="M48.79,331.514c.113.326-.14.367-.344.415a3.954,3.954,0,0,1-.914.045q-13.17,0-26.34,0c-1.426,0-1.475-.049-1.475-1.466,0-.961-.039-1.924.016-2.882a2.045,2.045,0,0,1,.85-1.878c-1.224-.007-2.447-.028-3.671-.017a1.876,1.876,0,0,0-1.966,1.987c-.013,1.071-.005,2.142,0,3.213a1.925,1.925,0,0,0,2.166,2.184q15.281,0,30.561,0a2.381,2.381,0,0,0,.967-.126c.414-.178.868-.423.907-.859.028-.312-.461-.448-.756-.615" transform="translate(-12.321 -268.625)" fill="#fec150"/>
        <path id="Trazado_255825" data-name="Trazado 255825" d="M42.144,327.722c-.055.959-.016,1.921-.016,2.882,0,1.417.049,1.466,1.475,1.466q13.17,0,26.34,0a3.953,3.953,0,0,0,.914-.045c.2-.048.457-.089.344-.415-.078.358-.37.244-.585.244q-13.817.008-27.634.017c-.539,0-.669-.179-.651-.678.033-.937.044-1.878,0-2.815a3.972,3.972,0,0,1,.664-2.535,2.045,2.045,0,0,0-.85,1.878" transform="translate(-34.732 -268.722)" fill="#fec150"/>
        <path id="Trazado_255826" data-name="Trazado 255826" d="M34.749,280.3c.2.023.279.188.3.378h0c.073-.908.352-1.167,1.283-1.167q7.274,0,14.548,0h.789l-.575-1.309a1.088,1.088,0,0,1-.864.21q-9.08.009-18.159,0c-.972,0-1.108-.142-1.118-1.093-.011-1.027-.005-2.054,0-3.081a3.856,3.856,0,0,1,.117-.974c.256-.971.5-1.159,1.508-1.159q8.293,0,16.586,0a1.535,1.535,0,0,1,.71.056c-.173-.144-.378-.071-.566-.071q-8.651-.006-17.3,0c-1.245,0-2.491-.017-3.736.009a1.922,1.922,0,0,0-2.089,2.141q-.007,1.573,0,3.146a1.928,1.928,0,0,0,2.1,2.124c1.158.005,2.316.027,3.473-.008a1.169,1.169,0,0,1,1.356.939h0a2.274,2.274,0,0,1,1.641-.139" transform="translate(-21.585 -224.373)" fill="#fec150"/>
        <path id="Trazado_255827" data-name="Trazado 255827" d="M66.688,318.738c.337.026.737-.164.985.24-.02-.19-.1-.355-.3-.378a2.273,2.273,0,0,0-1.641.139c.318,0,.639-.025.955,0" transform="translate(-54.21 -262.678)" fill="#fec150"/>
        <path id="Trazado_255828" data-name="Trazado 255828" d="M71.606,272.195q-8.293-.006-16.586,0c-1.009,0-1.252.189-1.508,1.159a3.856,3.856,0,0,0-.117.974c0,1.027-.009,2.054,0,3.081.01.951.147,1.092,1.118,1.093q9.08.01,18.16,0a1.088,1.088,0,0,0,.864-.21h-16.2c-1.071,0-2.142-.007-3.213,0-.333,0-.535-.055-.529-.46.017-1.311-.035-2.624.019-3.934s.474-1.642,1.779-1.642l16.917-.007a1.534,1.534,0,0,0-.71-.056" transform="translate(-44.031 -224.466)" fill="#fec150"/>
        <path id="Trazado_255829" data-name="Trazado 255829" d="M173.122,192.969c1.327,6.765,5.454,11.243,12,13.462-.762-.454-1.566-.831-2.3-1.344a18.194,18.194,0,0,1-7.913-12.972,17.993,17.993,0,0,1,3.621-13.567,16.241,16.241,0,0,1,6.865-5.5,4.185,4.185,0,0,0-.443.092,17.319,17.319,0,0,0-11.831,19.827" transform="translate(-142.503 -142.713)" fill="#fec150"/>
        <path id="Trazado_255830" data-name="Trazado 255830" d="M187.677,178.548a17.993,17.993,0,0,0-3.621,13.567,18.194,18.194,0,0,0,7.913,12.972c.73.513,1.535.889,2.3,1.344-.021-.207-.182-.278-.338-.363a18.82,18.82,0,0,1-5.514-4.43,18.367,18.367,0,0,1-4.35-11.432,17.664,17.664,0,0,1,1.2-6.96,18.466,18.466,0,0,1,5.991-8.087,36.77,36.77,0,0,1,3.29-2.11,16.242,16.242,0,0,0-6.865,5.5" transform="translate(-151.649 -142.713)" fill="#fec150"/>
        <path id="Trazado_255831" data-name="Trazado 255831" d="M13.615,226.155H36.467c1.215,0,1.215,0,1.226-1.239-1.087,0-2.174.006-3.261,0-.229,0-.485.084-.673-.136a5.23,5.23,0,0,1-6.392,0,1.459,1.459,0,0,1-.762.141c-3.212,0-6.424-.015-9.636.01-.6,0-.82-.172-.79-.784a26.105,26.105,0,0,0,0-2.752,4.231,4.231,0,0,1,.665-2.612c-1.222-.008-2.444-.031-3.665-.019a1.887,1.887,0,0,0-1.97,1.983c-.014,1,0,2.008,0,3.012,0,1.748.651,2.4,2.41,2.4" transform="translate(-9.237 -180.41)" fill="#fec150"/>
        <path id="Trazado_255832" data-name="Trazado 255832" d="M41.09,219.182c-.753,1.608-.307,3.312-.4,4.973-.017.312.169.474.484.5.24.018.48.018.72.018,3.034,0,6.068.01,9.1-.008a2.389,2.389,0,0,1,.648.071,8.368,8.368,0,0,1-1.594-2.125c-.658-1.175-1.344-2.333-2.011-3.5-.135-.237-.26-.4-.589-.4-2.11.025-4.22.024-6.33.032a.562.562,0,0,1-.033.446" transform="translate(-33.518 -180.364)" fill="#f0e54c"/>
        <path id="Trazado_255833" data-name="Trazado 255833" d="M39.552,221.5a26.106,26.106,0,0,1,0,2.752c-.029.612.19.789.79.784,3.212-.025,6.424-.013,9.636-.01a1.461,1.461,0,0,0,.762-.14,2.39,2.39,0,0,0-.648-.071c-3.034.018-6.068,0-9.1.008-.24,0-.48,0-.72-.018-.315-.023-.5-.186-.483-.5.089-1.661-.357-3.365.4-4.973a.562.562,0,0,0,.033-.446,4.231,4.231,0,0,0-.665,2.612" transform="translate(-32.611 -180.515)" fill="#f0e54c"/>
        <path id="Trazado_255834" data-name="Trazado 255834" d="M95.032,45.761A1.757,1.757,0,0,0,96.41,43.8q.008-5.893,0-11.785a16.982,16.982,0,0,1,.171-1.954.911.911,0,0,1,.428-.769c-.283-.009-.565-.032-.847-.025a1.59,1.59,0,0,0-1.722,1.645c-.019.26-.007.523-.008.784q-.013,7.323-.025,14.645c.066-.35.321-.478.628-.586" transform="translate(-77.854 -24.139)" fill="#ca5668"/>
        <path id="Trazado_255835" data-name="Trazado 255835" d="M95.049,46.073a1.83,1.83,0,0,0,1.563-1.859c0-4.167-.013-8.335.013-12.5a5.405,5.405,0,0,1,.38-2.293.912.912,0,0,0-.428.769,17.022,17.022,0,0,0-.171,1.954q.014,5.893,0,11.785a1.757,1.757,0,0,1-1.378,1.956c-.307.107-.562.236-.628.586a1.042,1.042,0,0,1,.645-.4" transform="translate(-77.854 -24.261)" fill="#ca5668"/>
        <path id="Trazado_255836" data-name="Trazado 255836" d="M160.387,113.072c.306,0,.611,0,.917,0a5.092,5.092,0,0,1,4.826,3.894,3.288,3.288,0,0,0,.176.954,5.987,5.987,0,0,0,3.661-.653c.007-1.221.036-2.443.015-3.664a1.81,1.81,0,0,0-1.786-1.818c-2.749-.037-5.5-.016-8.249-.016-.144,0-.286-.028-.355.184-.234.716.041,1.115.8,1.115" transform="translate(-131.548 -92.173)" fill="#f0e54c"/>
        <path id="Trazado_255837" data-name="Trazado 255837" d="M59.551,134.429a5.72,5.72,0,0,1,.561-3.552.819.819,0,0,1,.43-.47,3.347,3.347,0,0,0-3.53,1.469c-.809,1.328-.447,2.566.3,3.81,1.248,2.077,2.426,4.194,3.644,6.289q2.137,3.677,4.29,7.345c-1.745-4.02-3.193-8.157-4.813-12.227a14.06,14.06,0,0,1-.882-2.665" transform="translate(-46.639 -107.519)" fill="#ca5769"/>
        <path id="Trazado_255838" data-name="Trazado 255838" d="M78.713,148.6c-1.532-3.979-3.022-7.976-4.629-11.925a6.406,6.406,0,0,1,.167-6.114.819.819,0,0,0-.43.47,5.721,5.721,0,0,0-.561,3.552,14.064,14.064,0,0,0,.882,2.665c1.62,4.069,3.068,8.207,4.813,12.227h0a8.859,8.859,0,0,0-.241-.875" transform="translate(-60.346 -107.672)" fill="#ca5769"/>
        <path id="Trazado_255839" data-name="Trazado 255839" d="M24.237,119.219c.326.008.421-.1.371-.422a5.143,5.143,0,0,1,.636-3.217,5.073,5.073,0,0,1,.562-3.766h0c-1.245-.008-2.491-.04-3.735-.015a1.872,1.872,0,0,0-1.9,1.929q-.035,1.769,0,3.54a1.891,1.891,0,0,0,1.9,1.935c.719.037,1.442,0,2.163.016" transform="translate(-16.622 -92.193)" fill="#fec150"/>
        <path id="Trazado_255840" data-name="Trazado 255840" d="M42.2,166.441a1.6,1.6,0,0,0-.463,1.057c-.008,1.332-.034,2.665.007,4a1.749,1.749,0,0,0,1.618,1.7c1.365.058,2.734.015,4.185.015-.14-.251-.241-.437-.346-.62q-1.733-3-3.468-6c-.483-.836-.879-.873-1.532-.14" transform="translate(-34.41 -136.833)" fill="#fec150"/>
        <path id="Trazado_255841" data-name="Trazado 255841" d="M176.633,165.341a.523.523,0,0,0-.523.293q-1.637,2.9-3.291,5.785l2.127.013a1.689,1.689,0,0,0,.19-.174,19.468,19.468,0,0,1,7.4-5.668c.084-.037.284-.006.239-.246-2.047,0-4.1,0-6.145,0" transform="translate(-142.523 -136.356)" fill="#f0e54c"/>
        <path id="Trazado_255842" data-name="Trazado 255842" d="M143.335,224.415a.68.68,0,0,1,.477.184,21.34,21.34,0,0,1,1.9-6.084c-1.879-.275-1.88-.275-2.738,1.209-.262.452-.515.91-.784,1.358a13.358,13.358,0,0,1-2.31,3.379,30.014,30.014,0,0,1,3.458-.046" transform="translate(-115.356 -180.092)" fill="#f0e54c"/>
        <path id="Trazado_255843" data-name="Trazado 255843" d="M140.55,252.884c1.087.008,2.174,0,3.261,0a.679.679,0,0,0-.477-.184,30.015,30.015,0,0,0-3.458.046c.188.22.445.134.673.136" transform="translate(-115.356 -208.379)" fill="#f0e54c"/>
        <path id="Trazado_255844" data-name="Trazado 255844" d="M49.776,112.048a5.488,5.488,0,0,0-.525,3.015c0,.175-.094.333-.08.509a5.066,5.066,0,0,1,3.7-2.437,11.226,11.226,0,0,1,1.9-.042c.479.02.43-.289.381-.551s.281-.767-.372-.762c-1.683.013-3.365.018-5.048.027a.226.226,0,0,1,.043.242" transform="translate(-40.55 -92.184)" fill="#efe44b"/>
        <path id="Trazado_255845" data-name="Trazado 255845" d="M48.618,115.7c-.013-.176.084-.334.08-.509a5.488,5.488,0,0,1,.525-3.015.226.226,0,0,0-.043-.242h0a5.073,5.073,0,0,0-.562,3.766" transform="translate(-39.997 -92.309)" fill="#efe44b"/>
        <path id="Trazado_255846" data-name="Trazado 255846" d="M201.021,143.71a4.319,4.319,0,0,1-2.967.106c-.113,1.273-.112,1.277,1.146,1.27a5.716,5.716,0,0,0,.97-.057,1.8,1.8,0,0,0,1.544-1.866,1.064,1.064,0,0,1-.694.547" transform="translate(-163.296 -118.066)" fill="#fabf4f"/>
        <path id="Trazado_255847" data-name="Trazado 255847" d="M198.27,143.816a4.319,4.319,0,0,0,2.967-.106,1.065,1.065,0,0,0,.694-.547,5.987,5.987,0,0,1-3.661.653" transform="translate(-163.512 -118.066)" fill="#fabf4f"/>
        <path id="Trazado_255848" data-name="Trazado 255848" d="M168.989,200.013l-.814,1.317c.677,0,1.235-.007,1.793,0a.448.448,0,0,0,.419-.239c.236-.361.485-.712.729-1.068a2.532,2.532,0,0,1-2.127-.013" transform="translate(-138.693 -164.949)" fill="#fdc14f"/>
        <path id="Trazado_255849" data-name="Trazado 255849" d="M172.819,200.013a2.532,2.532,0,0,0,2.127.013l-2.127-.013" transform="translate(-142.523 -164.949)" fill="#fdc14f"/>
        <path id="Trazado_255850" data-name="Trazado 255850" d="M287.946,105.6c-1.088.308-2.16.681-3.214,1.09a.931.931,0,0,0-.485,1.221,1.052,1.052,0,0,0,1.207.859c.929-.191,2.069-.385,3.187-.67.6-.153.746-.673.536-1.462-.223-.838-.6-1.216-1.23-1.039" transform="translate(-234.374 -87.053)" fill="#f6f392"/>
        <path id="Trazado_255851" data-name="Trazado 255851" d="M257.037,45.511a.9.9,0,0,0-1.346.043c-.729.782-1.423,1.6-2.115,2.414a.9.9,0,0,0-.088,1.1,1.263,1.263,0,0,0,1.05.694,1.1,1.1,0,0,0,.6-.232c.808-.7,1.629-1.389,2.412-2.117a.9.9,0,0,0,.046-1.345,4.4,4.4,0,0,0-.554-.556" transform="translate(-208.93 -37.299)" fill="#f6f392"/>
        <path id="Trazado_255852" data-name="Trazado 255852" d="M202.519,11.318c-.717-.163-1.2.036-1.348.658-.254,1.058-.443,2.132-.629,3.048a1.018,1.018,0,0,0,.74,1.23c.52.158,1.076.142,1.3-.417a31.384,31.384,0,0,0,1.116-3.271c.183-.656-.233-1.033-1.179-1.249" transform="translate(-165.379 -9.289)" fill="#f6f392"/>
        <path id="Trazado_255853" data-name="Trazado 255853" d="M224.613,204.885a11.449,11.449,0,1,0-7.45,20.976,10.859,10.859,0,0,0,11.063-5.622c2.438-4.165,2.139-8.377-.538-12.4-.563-.846-.582-1.094.007-1.783h0a3.618,3.618,0,0,1-1.348-1.229c-.687.582-.9.589-1.734.057m-2.13,15.46a5.159,5.159,0,0,1-2.757,1.538c-.4.082-.5.235-.477.6a2.5,2.5,0,0,1-.058.777.893.893,0,0,1-1.021.725.92.92,0,0,1-.875-.9c-.1-.983-.1-1-1.079-1.133a7.543,7.543,0,0,1-2.576-.9.984.984,0,1,1,.9-1.738,7.093,7.093,0,0,0,2.22.744c.382.052.558-.011.536-.458-.037-.763-.01-1.529-.01-2.293s-.016-1.53.007-2.294a.547.547,0,0,0-.428-.616,11.449,11.449,0,0,1-1.541-.711,3.355,3.355,0,0,1-.848-5.383,3.931,3.931,0,0,1,2.226-1.292c.533-.094.63-.334.591-.786a1.176,1.176,0,0,1,.1-.7.931.931,0,0,1,1.036-.517.871.871,0,0,1,.8.962c-.1.79.31.916.927,1.021a4.8,4.8,0,0,1,1.861.773.982.982,0,1,1-1.011,1.678,6.1,6.1,0,0,0-1.255-.542c-.354-.106-.511-.1-.5.341.023,1.157.019,2.316,0,3.473a.5.5,0,0,0,.452.58,7.953,7.953,0,0,1,1.716.625,3.93,3.93,0,0,1,1.064,6.433" transform="translate(-170.62 -167.435)" fill="#fec150"/>
        <path id="Trazado_255854" data-name="Trazado 255854" d="M195.686,206.853a13.424,13.424,0,0,0,15.73,11.583c9.676-1.613,14.353-13.4,8.416-21.191a1.117,1.117,0,0,0-1.473-.446h0a1.97,1.97,0,0,0,.4,2.095,11.621,11.621,0,1,1-12.131-5.048,11.293,11.293,0,0,1,8.382,1.43,1.966,1.966,0,0,0,2,.293,1.134,1.134,0,0,0-.564-1.541,13.439,13.439,0,0,0-20.761,12.824" transform="translate(-161.284 -158.177)"/>
        <path id="Trazado_255855" data-name="Trazado 255855" d="M223.622,203.658a11.292,11.292,0,0,0-8.382-1.43,11.63,11.63,0,1,0,12.131,5.048,1.97,1.97,0,0,1-.4-2.1c-.589.689-.57.937-.008,1.783,2.677,4.022,2.976,8.234.538,12.4a10.858,10.858,0,0,1-11.063,5.621,11.449,11.449,0,1,1,7.45-20.975c.831.532,1.047.525,1.734-.057a1.966,1.966,0,0,1-2-.293" transform="translate(-169.894 -166.559)"/>
        <path id="Trazado_255856" data-name="Trazado 255856" d="M250.236,223.109a7.953,7.953,0,0,0-1.716-.625.5.5,0,0,1-.452-.58c.018-1.158.022-2.316,0-3.473-.009-.439.148-.448.5-.341a6.1,6.1,0,0,1,1.255.542.981.981,0,1,0,1.01-1.678,4.793,4.793,0,0,0-1.861-.773c-.618-.105-1.032-.231-.927-1.021a.871.871,0,0,0-.8-.962.931.931,0,0,0-1.036.517,1.175,1.175,0,0,0-.1.7c.04.452-.058.692-.591.786A3.931,3.931,0,0,0,243.3,217.5a3.355,3.355,0,0,0,.848,5.383,11.456,11.456,0,0,0,1.541.711.547.547,0,0,1,.428.615c-.024.764-.008,1.529-.008,2.294s-.027,1.531.01,2.293c.022.447-.154.509-.536.458a7.089,7.089,0,0,1-2.22-.744.984.984,0,1,0-.9,1.738,7.541,7.541,0,0,0,2.576.9c.975.137.978.15,1.079,1.133a.92.92,0,0,0,.876.9.893.893,0,0,0,1.021-.724,2.492,2.492,0,0,0,.058-.777c-.025-.367.08-.52.477-.6a5.16,5.16,0,0,0,2.757-1.538,3.93,3.93,0,0,0-1.064-6.433m-4.129-3.25c0,.458-.006.916,0,1.374,0,.247-.052.4-.331.271-.95-.442-1.5-.723-1.491-1.522a2.031,2.031,0,0,1,1.4-1.791c.317-.109.439-.06.425.293-.018.458,0,.916,0,1.374m2.363,9.208c-.366.113-.405-.012-.4-.317.012-.677,0-1.354,0-2.031,0-.655,0-1.311,0-1.966,0-.259.069-.379.34-.248a.806.806,0,0,0,.124.041c1.306.383,2.051,1.152,2.026,2.091a2.906,2.906,0,0,1-2.092,2.43" transform="translate(-199.438 -176.633)"/>
        <path id="Trazado_255857" data-name="Trazado 255857" d="M277.879,272.865a.8.8,0,0,1-.124-.041c-.271-.131-.343-.011-.34.248.007.655,0,1.31,0,1.966,0,.677.008,1.354,0,2.031-.005.3.034.43.4.317a2.906,2.906,0,0,0,2.092-2.43c.025-.94-.72-1.709-2.026-2.091" transform="translate(-228.78 -224.952)" fill="#fdc150"/>
        <path id="Trazado_255858" data-name="Trazado 255858" d="M257.235,236.824a2.031,2.031,0,0,0-1.4,1.791c-.01.8.541,1.081,1.491,1.522.279.13.336-.025.331-.272-.009-.458,0-.916,0-1.374s-.013-.917,0-1.374c.014-.353-.108-.4-.425-.293" transform="translate(-210.987 -195.265)" fill="#fbbf4f"/>
      </g>
    </g>
  </g>
</svg>
