<svg xmlns="http://www.w3.org/2000/svg" width="14.9" height="19.866" viewBox="0 0 14.9 19.866">
  <g id="Grupo_877607" data-name="Grupo 877607" transform="translate(-1048.335 -1760.941)">
    <path id="Icon_awesome-file-download" data-name="Icon awesome-file-download" d="M8.691,5.277V0H.931A.929.929,0,0,0,0,.931v18a.929.929,0,0,0,.931.931H13.968a.929.929,0,0,0,.931-.931V6.208H9.623A.934.934,0,0,1,8.691,5.277Zm2.966,8.2L7.917,17.191a.662.662,0,0,1-.933,0L3.243,13.478a.621.621,0,0,1,.437-1.062H6.208v-3.1a.621.621,0,0,1,.621-.621H8.071a.621.621,0,0,1,.621.621v3.1H11.22A.621.621,0,0,1,11.658,13.478Zm2.97-9.4-3.8-3.8A.931.931,0,0,0,10.17,0H9.933V4.967H14.9V4.73A.928.928,0,0,0,14.628,4.074Z" transform="translate(1048.335 1760.941)" fill="#12263f"/>
  </g>
</svg>
