<svg xmlns="http://www.w3.org/2000/svg" xmlns:xlink="http://www.w3.org/1999/xlink" width="63" height="63.196" viewBox="0 0 63 63.196">
  <defs>
    <radialGradient id="radial-gradient" cx="0.741" cy="0.152" r="0.5" gradientUnits="objectBoundingBox">
      <stop offset="0" stop-color="#fff"/>
      <stop offset="1" stop-color="#e1efe3"/>
    </radialGradient>
    <clipPath id="clip-path">
      <rect id="Rect치ngulo_291633" data-name="Rect치ngulo 291633" width="31.902" height="34.156" fill="#2b7e3b"/>
    </clipPath>
  </defs>
  <g id="Grupo_872634" data-name="Grupo 872634" transform="translate(-301.667 -5845.098)">
    <g id="Grupo_870604" data-name="Grupo 870604" transform="translate(16.667 -1474.902)">
      <circle id="Elipse_4720" data-name="Elipse 4720" cx="31.5" cy="31.5" r="31.5" transform="translate(285 7320)" fill="url(#radial-gradient)"/>
      <path id="Sustracci칩n_8" data-name="Sustracci칩n 8" d="M8407.5,11782a31.476,31.476,0,0,1-31.5-31.5,31.842,31.842,0,0,1,.514-5.7,38.533,38.533,0,0,0,51.173,29.878A31.38,31.38,0,0,1,8407.5,11782Z" transform="translate(-8091 -4398.805)" fill="#bce2c1"/>
    </g>
    <g id="Grupo_872668" data-name="Grupo 872668" transform="translate(317.667 5859.098)">
      <g id="Grupo_872668-2" data-name="Grupo 872668" clip-path="url(#clip-path)">
        <path id="Trazado_255754" data-name="Trazado 255754" d="M2.115.234A1.481,1.481,0,0,0,1.27,1.67q0,2.351,0,4.7,0,4.669,0,9.338A2.03,2.03,0,0,0,1.515,16.8a.51.51,0,0,1-.006.566,1.863,1.863,0,0,0-.241.99q.007,7.02,0,14.04a1.63,1.63,0,0,0,.377,1.174,1.47,1.47,0,0,0,1.133.476c.889,0,1.778,0,2.668,0h6.6a1.5,1.5,0,0,0,.5-.041.358.358,0,0,0,.288-.362.366.366,0,0,0-.329-.362,2.277,2.277,0,0,0-.466-.021H3.2c-.133,0-.267,0-.4,0a.674.674,0,0,1-.739-.721c-.008-.122,0-.244,0-.367q0-6.786,0-13.573c0-.913.177-1.091,1.094-1.091H31.064c.122,0,.245,0,.367.008a.7.7,0,0,1,.72.751c.005.111,0,.222,0,.333q0,6.786,0,13.573c0,.933-.156,1.09-1.082,1.09H16.566a2.422,2.422,0,0,0-.5.022.371.371,0,0,0-.011.74,1.824,1.824,0,0,0,.4.024q7.436,0,14.873,0a1.453,1.453,0,0,0,1.611-1.612q0-7.053,0-14.106a1.733,1.733,0,0,0-.225-.927.582.582,0,0,1,.006-.656,1.738,1.738,0,0,0,.22-.928c0-1.89,0-3.78,0-5.669a1.285,1.285,0,0,0-.044-.462.366.366,0,0,0-.4-.276.355.355,0,0,0-.318.333,2.478,2.478,0,0,0-.019.433q0,2.735,0,5.469c0,.775-.22,1-.983,1q-14.072,0-28.145,0a1.457,1.457,0,0,1-.494-.059A.634.634,0,0,1,2.067,16c-.01-.144-.009-.289-.009-.433q0-6.786,0-13.573c0-.954.147-1.1,1.1-1.1H31.073c.93,0,1.081.152,1.081,1.088q0,1.884,0,3.768a2.013,2.013,0,0,0,.024.432.347.347,0,0,0,.349.3.358.358,0,0,0,.376-.269,1.2,1.2,0,0,0,.037-.4c0-1.378,0-2.757,0-4.135A1.488,1.488,0,0,0,32.074.223c-.1-.048-.22-.08-.227-.224H2.365c-.007.158-.147.182-.249.235" transform="translate(-1.155 0.001)" fill="#2b7e3b"/>
        <path id="Trazado_255755" data-name="Trazado 255755" d="M0,1.863C.023,6.532.012,11.2.008,15.869A1.622,1.622,0,0,0,.326,16.93c.081.1.1.17.008.282A1.631,1.631,0,0,0,.008,18.3q.006,7.07,0,14.14a1.529,1.529,0,0,0,1.7,1.71h9.371a1.737,1.737,0,0,0,.3-.006.5.5,0,0,0,0-.991,1.963,1.963,0,0,0-.3-.006H1.745c-.584,0-.731-.145-.731-.723q0-7.037,0-14.073c0-.579.148-.726.731-.726H30.157c.583,0,.732.148.732.726q0,7.037,0,14.073c0,.578-.148.724-.73.724H15.219a2.247,2.247,0,0,0-.366.007.468.468,0,0,0-.433.47.475.475,0,0,0,.419.516,1.41,1.41,0,0,0,.3.009H30.211a1.522,1.522,0,0,0,1.68-1.666q0-7.1,0-14.207a1.614,1.614,0,0,0-.32-1.06.189.189,0,0,1,0-.284,1.6,1.6,0,0,0,.323-1.059c0-1.979,0-3.957,0-5.936a1.864,1.864,0,0,0,0-.233.487.487,0,0,0-.521-.452.465.465,0,0,0-.473.463c-.01.1,0,.2,0,.3q0,2.885,0,5.769c0,.6-.143.738-.754.738H1.757c-.6,0-.743-.142-.743-.748q0-7,0-14.006c0-.642.129-.768.786-.768H30.111c.65,0,.778.127.778.777,0,1.434,0,2.868,0,4.3a.5.5,0,0,0,.489.556.509.509,0,0,0,.511-.54c0-.078,0-.156,0-.233,0-1.334-.027-2.669.009-4A1.7,1.7,0,0,0,30.692,0c.007.144.131.176.227.224a1.488,1.488,0,0,1,.867,1.456c0,1.378,0,2.757,0,4.135a1.207,1.207,0,0,1-.037.4.358.358,0,0,1-.376.269.347.347,0,0,1-.349-.3A2.013,2.013,0,0,1,31,5.75q0-1.884,0-3.768c0-.936-.151-1.088-1.081-1.088H2.007C1.051.894.9,1.041.9,2q0,6.786,0,13.573c0,.144,0,.289.009.433a.633.633,0,0,0,.464.588,1.455,1.455,0,0,0,.494.059q14.072,0,28.145,0c.763,0,.983-.23.983-1q0-2.735,0-5.469a2.479,2.479,0,0,1,.019-.433.355.355,0,0,1,.318-.333.365.365,0,0,1,.4.276,1.287,1.287,0,0,1,.044.462c0,1.89,0,3.78,0,5.669a1.738,1.738,0,0,1-.22.928.582.582,0,0,0-.006.656,1.733,1.733,0,0,1,.225.927q0,7.053,0,14.106a1.453,1.453,0,0,1-1.611,1.612q-7.436,0-14.873,0a1.825,1.825,0,0,1-.4-.024.371.371,0,0,1,.011-.74,2.423,2.423,0,0,1,.5-.022H29.918c.926,0,1.081-.157,1.082-1.09q0-6.786,0-13.573c0-.111,0-.222,0-.333a.7.7,0,0,0-.72-.751c-.122-.012-.244-.008-.367-.008H2C1.081,17.5.9,17.681.9,18.594q0,6.786,0,13.573c0,.122,0,.245,0,.367a.674.674,0,0,0,.739.721c.133.007.267,0,.4,0h8.837a2.283,2.283,0,0,1,.466.021.366.366,0,0,1,.329.362.358.358,0,0,1-.288.362,1.5,1.5,0,0,1-.5.041h-6.6c-.889,0-1.778,0-2.668,0a1.47,1.47,0,0,1-1.133-.476,1.631,1.631,0,0,1-.377-1.175q0-7.02,0-14.04a1.862,1.862,0,0,1,.241-.99A.51.51,0,0,0,.36,16.8,2.031,2.031,0,0,1,.113,15.71q.009-4.669,0-9.338,0-2.351,0-4.7A1.481,1.481,0,0,1,.961.235C1.063.182,1.2.158,1.21,0A1.716,1.716,0,0,0,0,1.863" transform="translate(0)" fill="#2b7e3b"/>
        <path id="Trazado_255756" data-name="Trazado 255756" d="M58.447,226.076c.613,0,.751-.135.751-.737q0-5.619,0-11.238c0-.622-.14-.759-.769-.759H33.987c-.629,0-.767.136-.767.76q0,5.6,0,11.2c0,.647.125.77.785.77H58.447m-.253-5.132c0,1.267-.006,2.533.005,3.8,0,.246-.039.339-.318.337-1.555-.016-3.111-.012-4.666,0-.215,0-.274-.051-.274-.271q.012-3.85,0-7.7c0-.218.057-.274.274-.273q2.333.014,4.666,0c.244,0,.322.053.319.31-.014,1.267-.006,2.533-.006,3.8m-4.964-6.6c.777.016,1.554.006,2.331.006s1.554.012,2.331-.007c.26-.006.323.078.307.32-.02.31-.011.622,0,.932,0,.158-.024.243-.214.243q-2.431-.009-4.862,0c-.159,0-.179-.067-.176-.2.006-.333.017-.667,0-1-.013-.229.05-.3.289-.3m-1.285,6.637c0,1.267-.005,2.534,0,3.8,0,.217-.029.3-.279.3-1.567-.013-3.134-.01-4.7,0-.2,0-.263-.036-.262-.25q.012-3.868,0-7.737c0-.214.07-.256.267-.255q2.351.011,4.7,0c.218,0,.275.057.273.274-.01,1.289-.005,2.579-.005,3.868m-5.238-5.428c.022-.321.011-.644,0-.966,0-.157.021-.242.214-.241q2.415.011,4.831,0c.18,0,.194.081.192.221-.006.344-.013.689,0,1.033.008.191-.052.241-.24.238-.8-.011-1.6,0-2.4,0-.766,0-1.533-.008-2.3,0-.222,0-.32-.04-.3-.287m-6.238-.985c-.007-.179.054-.222.227-.222q2.382.009,4.764,0c.186,0,.257.046.249.241-.014.333-.018.667,0,1,.012.219-.077.255-.27.253-.788-.009-1.577,0-2.365,0s-1.577-.006-2.365,0c-.188,0-.249-.046-.241-.238.015-.344.014-.689,0-1.033m-1.241,10.515q-2.366-.016-4.733,0c-.22,0-.278-.058-.276-.276.01-1.289,0-2.578,0-3.867,0-1.267.005-2.533,0-3.8,0-.227.053-.3.292-.3q2.35.016,4.7,0c.232,0,.265.079.265.282q-.009,3.85,0,7.7c0,.192-.028.265-.247.264m.248-10.481c-.018.332-.016.666,0,1,.009.191-.052.241-.24.238-.788-.011-1.576,0-2.365,0s-1.554-.009-2.331.005c-.238,0-.343-.043-.322-.307a6.975,6.975,0,0,0,0-.932c-.012-.214.072-.256.268-.255q2.365.011,4.729,0c.2,0,.271.049.26.257m6.229,6.366c0,1.278,0,2.557,0,3.835,0,.207-.039.281-.267.28q-2.351-.017-4.7,0c-.216,0-.274-.053-.273-.272q.012-3.852,0-7.7c0-.228.072-.269.279-.268q2.334.012,4.668,0c.234,0,.3.062.3.3-.011,1.278-.005,2.557-.005,3.835" transform="translate(-30.258 -194.322)" fill="#2b7e3b"/>
        <path id="Trazado_255757" data-name="Trazado 255757" d="M49.146,91.187h-6.1q-3.1,0-6.2,0a.835.835,0,0,0-.948.937q-.006,1.116,0,2.233a.837.837,0,0,0,.948.942q6.182.006,12.363,0a.86.86,0,0,0,.957-.976c0-.7,0-1.4,0-2.1,0-.73-.3-1.036-1.025-1.037m.027,1.311c-.02.5-.017,1,0,1.5.008.23-.057.3-.294.3-.889-.013-1.778-.005-2.666-.005q-4.5,0-9,.005c-.236,0-.33-.036-.316-.3a14.015,14.015,0,0,0,0-1.5c-.016-.286.1-.312.337-.311,1.933.008,3.866,0,5.8,0s3.889.005,5.833-.006c.255,0,.318.068.308.314" transform="translate(-32.698 -83.057)" fill="#2b7e3b"/>
        <path id="Trazado_255758" data-name="Trazado 255758" d="M36.7,63.272a1.768,1.768,0,0,0-.365.021.489.489,0,0,0-.028.945,1.529,1.529,0,0,0,.4.032q4.586,0,9.171,0a1.571,1.571,0,0,0,.4-.033.449.449,0,0,0,.35-.469.456.456,0,0,0-.385-.475,1.834,1.834,0,0,0-.365-.021H36.7" transform="translate(-32.755 -57.631)" fill="#2b7e3b"/>
        <path id="Trazado_255759" data-name="Trazado 255759" d="M36.483,46.582q3.283-.006,6.566,0c.42,0,.642-.177.642-.5s-.216-.5-.643-.5H36.482a.612.612,0,0,0-.412.1.479.479,0,0,0-.173.566.54.54,0,0,0,.585.342" transform="translate(-32.668 -41.515)" fill="#2b7e3b"/>
        <path id="Trazado_255760" data-name="Trazado 255760" d="M40.244,154.036q-1.849,0-3.7,0c-.393,0-.606.183-.6.5s.223.494.617.5c.6,0,1.2,0,1.8,0,.622,0,1.243,0,1.865,0,.386,0,.6-.193.6-.512s-.211-.486-.584-.487" transform="translate(-32.741 -140.303)" fill="#2b7e3b"/>
      </g>
    </g>
  </g>
</svg>
