<svg xmlns="http://www.w3.org/2000/svg" xmlns:xlink="http://www.w3.org/1999/xlink" width="63" height="63.196" viewBox="0 0 63 63.196"><defs><radialGradient id="a" cx="0.741" cy="0.152" r="0.5" gradientUnits="objectBoundingBox"><stop offset="0" stop-color="#fff"/><stop offset="1" stop-color="#e1efe3"/></radialGradient><clipPath id="b"><rect width="33.037" height="33.044" fill="#2b7e3b"/></clipPath></defs><g transform="translate(-301.667 -6025)"><g transform="translate(16.667 -1295)"><circle cx="31.5" cy="31.5" r="31.5" transform="translate(285 7320)" fill="url(#a)"/><path d="M8407.5,11782a31.476,31.476,0,0,1-31.5-31.5,31.842,31.842,0,0,1,.514-5.7,38.533,38.533,0,0,0,51.173,29.878A31.38,31.38,0,0,1,8407.5,11782Z" transform="translate(-8091 -4398.805)" fill="#bce2c1"/></g><g transform="translate(316.667 6039.858)"><g clip-path="url(#b)"><path d="M.434,23.873c1.469.488,2.939.971,4.4,1.471a3.336,3.336,0,0,0,1.146.115.3.3,0,0,0,.278-.183c.089-.174.221-.178.377-.089.41.236.813.483,1.218.728a.542.542,0,0,1,.242.364,1.587,1.587,0,0,0,1.333,1.315.3.3,0,0,1,.266.276,1.557,1.557,0,0,0,1.291,1.314.4.4,0,0,1,.338.364,1.477,1.477,0,0,0,1.129,1.2.628.628,0,0,1,.505.5,1.509,1.509,0,0,0,2.106,1.018.5.5,0,0,1,.632.108,1.873,1.873,0,0,0,1.132.566,1.546,1.546,0,0,0,1.67-1.17.587.587,0,0,1,.5-.49A1.39,1.39,0,0,0,20.086,30.2a.6.6,0,0,1,.51-.521,1.4,1.4,0,0,0,1.1-1.139.5.5,0,0,1,.447-.455A1.414,1.414,0,0,0,23.316,26.8a.7.7,0,0,1,.459-.627c2.888-1.435,5.767-2.887,8.659-4.313a.792.792,0,0,0,.523-.831c-.022-2.214-.01-4.428-.011-6.643,0-.427,0-.4-.431-.437a2.172,2.172,0,0,0-1.429.394c-.044.03-.093.053-.139.081a2.12,2.12,0,0,1-.827.329.164.164,0,0,1-.122.01,1.459,1.459,0,0,1-.642-.135,12.44,12.44,0,0,0-1.9-.5c-.141-.037-.311-.046-.354-.232s.076-.3.2-.406A3.828,3.828,0,0,0,28.7,10.366,4.981,4.981,0,0,0,28.209,7.9a3.561,3.561,0,0,0-3.032-1.942c-.387-.027-.414-.061-.272-.422.094-.24.193-.479.3-.711a.4.4,0,0,0-.086-.518Q23.955,3.15,22.8,1.981a.3.3,0,0,0-.449-.029c-.356.241-.713.48-1.077.709a.594.594,0,0,1-.662.032,7.4,7.4,0,0,0-1.4-.579.5.5,0,0,1-.375-.362c-.122-.49-.221-.985-.32-1.481A.289.289,0,0,1,18.58,0H14.451C14.4.622,14.2,1.216,14.1,1.827c-.02.117-.11.144-.206.173a7.955,7.955,0,0,0-1.657.693.264.264,0,0,1-.316-.027c-.438-.291-.885-.568-1.319-.865-.144-.1-.223-.084-.343.038Q9.012,3.1,7.749,4.347a.269.269,0,0,0-.071.359c.141.3.252.615.393.915.088.188.079.245-.156.253A3.648,3.648,0,0,0,4.6,8.046a2.816,2.816,0,0,0-.305,1.111,5.478,5.478,0,0,0,.542,3.467,3.735,3.735,0,0,0,.857.953c.106.081.2.157.173.312s-.171.1-.26.141a2.035,2.035,0,0,1-2.255-.295A4.245,4.245,0,0,0,0,12.774V23.806c.158-.064.3.02.434.067m9.7,2.528a.6.6,0,1,1-.847-.836c.29-.3.584-.6.889-.882a.555.555,0,0,1,.653-.112.563.563,0,0,1,.341.556.613.613,0,0,1-.218.458c-.271.274-.54.55-.818.816M11.729,28a.6.6,0,0,1-.884.06.59.59,0,0,1,.025-.884c.285-.3.582-.6.885-.887a.582.582,0,0,1,.682-.121.592.592,0,0,1,.341.594.6.6,0,0,1-.209.4c-.277.283-.554.567-.84.841m1.417,1.731a.519.519,0,0,1-.7-.077.511.511,0,0,1-.1-.7A7.018,7.018,0,0,1,13.489,27.8a.647.647,0,0,1,.294-.086.574.574,0,0,1,.491.9,5.285,5.285,0,0,1-1.129,1.129m2.727.482a6.96,6.96,0,0,1-1.109,1.109.524.524,0,0,1-.707-.055.5.5,0,0,1-.138-.668,5.146,5.146,0,0,1,1.236-1.242.548.548,0,0,1,.744.253.522.522,0,0,1-.026.6m1.65,1.423a.529.529,0,0,1-.537.319c-.353.018-.542-.239-.761-.435-.089-.08.024-.13.069-.176a2.732,2.732,0,0,0,.532-.639c.059-.114.114-.1.194-.029.127.115.264.218.386.338a.529.529,0,0,1,.117.621m4.837-4.956a.623.623,0,0,1-1.037.33c-.416-.323-.812-.67-1.216-1.007-.5-.413-.994-.822-1.484-1.241-.121-.1-.195-.127-.3.02-.162.226-.471.432-.481.657-.009.205.357.357.56.529.665.562,1.336,1.116,2,1.674.4.332.474.644.229.928a.693.693,0,0,1-1.006-.036c-.852-.706-1.7-1.412-2.549-2.128-.157-.133-.26-.193-.393.02s-.482.4-.446.629c.031.193.357.341.555.506q1.014.848,2.029,1.694a.836.836,0,0,1,.32.393.524.524,0,0,1-.171.582.574.574,0,0,1-.693.047,5.83,5.83,0,0,1-1.493-1.258,1.835,1.835,0,0,0-1.181-.757c-.136-.021-.168-.072-.19-.2a1.593,1.593,0,0,0-1.332-1.383c-.2-.038-.253-.111-.282-.3a1.584,1.584,0,0,0-1.275-1.288c-.2-.035-.286-.1-.326-.3a1.629,1.629,0,0,0-2.673-.946,13.656,13.656,0,0,0-1.077,1.064c-.106.112-.169.119-.29.044q-.642-.4-1.3-.779c-.135-.078-.161-.151-.115-.308q.672-2.315,1.32-4.638A.294.294,0,0,1,8.329,19c1.334-.274,2.649-.643,4-.841a5.344,5.344,0,0,1,2.352.247c.2.062.405.133.681.224-.9.45-1.726.868-2.557,1.283a1.784,1.784,0,0,0-1.067,1.85,1.763,1.763,0,0,0,2.584,1.472c.644-.341,1.257-.738,1.884-1.11a1.187,1.187,0,0,1,1.656.156q2.085,1.877,4.172,3.752a.707.707,0,0,1,.328.654M11.42,8.261a.582.582,0,0,1,.046-.558A5.727,5.727,0,0,1,15.7,4.862a5.832,5.832,0,0,1,5.92,2.927c.1.172,0,.28-.034.418a5.5,5.5,0,0,0,.321,4.451,3.111,3.111,0,0,0,.84.924.3.3,0,0,1,.16.287c-.015.168-.151.131-.24.154-.57.149-1.143.287-1.714.434a.652.652,0,0,1-.344,0c-.58-.152-1.164-.294-1.745-.443-.083-.021-.206.011-.22-.135a.291.291,0,0,1,.126-.271,4.839,4.839,0,0,0,.791-6.091A3.668,3.668,0,0,0,15.5,6,3.744,3.744,0,0,0,12.79,9.423c-.012.225,0,.451,0,.679a4.021,4.021,0,0,0,.835,2.9,3.326,3.326,0,0,0,.623.6.28.28,0,0,1,.142.263c-.01.17-.147.133-.237.157-.57.149-1.142.291-1.715.432a.479.479,0,0,1-.25.034c-.643-.166-1.29-.32-1.932-.49-.193-.051-.184-.242.019-.4a3.383,3.383,0,0,0,1.074-1.345,5.515,5.515,0,0,0,.072-3.99M11.2,16.988a1.6,1.6,0,0,1,1.271-1.441c.913-.236,1.827-.468,2.744-.686.183-.043.246-.11.24-.3-.013-.408-.015-.817,0-1.225a.348.348,0,0,0-.21-.352,2.642,2.642,0,0,1-1.383-2.51,5.9,5.9,0,0,1,.128-1.694,2.677,2.677,0,0,1,2.133-1.822A2.632,2.632,0,0,1,18.8,8.3a2.849,2.849,0,0,1,.372,1.35,7.931,7.931,0,0,1-.032,1.448A2.6,2.6,0,0,1,17.8,12.978a.392.392,0,0,0-.228.407c.016.4.013.8,0,1.192,0,.168.045.237.221.279.907.216,1.81.448,2.713.681a1.612,1.612,0,0,1,1.334,1.689c.005.269,0,.537,0,.806s-.014.56,0,.838c.017.252-.093.325-.321.3a1.809,1.809,0,0,1-.347-.054c-1.05-.3-2.09-.658-3.157-.874a23.5,23.5,0,0,1-2.715-.764,7.125,7.125,0,0,0-3.867-.261c-.224.05-.276,0-.248-.233m20.42-1.817a.555.555,0,0,1,.346-.126v.414c0,1.741,0,3.482.005,5.224a.413.413,0,0,1-.27.437q-4.232,2.1-8.452,4.229a.346.346,0,0,1-.466-.065c-1.405-1.282-2.823-2.55-4.237-3.822a2.171,2.171,0,0,0-2.854-.276c-.571.341-1.139.685-1.712,1.023a.728.728,0,0,1-1.086-.2.8.8,0,0,1,.371-1.135c.945-.48,1.894-.952,2.844-1.424a2.5,2.5,0,0,1,1.879-.136q1.373.4,2.749.79a3.432,3.432,0,0,0,.627.136,1.887,1.887,0,0,0,1.1-.239q4.569-2.43,9.154-4.828M25.056,6.928a2.706,2.706,0,0,1,2.476,1.838,5.148,5.148,0,0,1,.066,2.582,2.445,2.445,0,0,1-1.267,1.63.387.387,0,0,0-.226.406c.016.386.015.774,0,1.161-.007.193.044.275.248.322.778.179,1.55.384,2.408.6L22.909,18.55c-.025-1.172.184-2.35-.776-3.288.535-.133,1.006-.262,1.484-.363.269-.056.426-.158.366-.462a.863.863,0,0,1,0-.257,1.373,1.373,0,0,0-.666-1.543,2.136,2.136,0,0,1-.926-1.892,6.164,6.164,0,0,1,.12-1.953,2.669,2.669,0,0,1,2.546-1.863M8.99,4.618c.479-.479.962-.954,1.435-1.438a.2.2,0,0,1,.3-.025c.373.252.76.486,1.13.742a.307.307,0,0,0,.4.013,7.739,7.739,0,0,1,2.481-1.033.348.348,0,0,0,.3-.338c.071-.412.174-.818.253-1.229.033-.174.1-.251.293-.247q.919.021,1.838,0c.2,0,.284.057.319.256.074.422.179.839.255,1.261a.31.31,0,0,0,.278.288,8,8,0,0,1,2.51,1.047.29.29,0,0,0,.372-.006c.372-.255.756-.491,1.129-.743.123-.083.206-.107.326.018.471.487.954.961,1.432,1.441.044.044.1.081.1.179-.016.04-.044.1-.064.159a2.629,2.629,0,0,1-1.311,1.711c-.433.217-.381.281-.69-.111A6.739,6.739,0,0,0,15.05,3.91a6.539,6.539,0,0,0-4.2,2.807c-.166.238-.276.294-.482.055a1.12,1.12,0,0,0-.409-.309c-.74-.3-.758-1.054-1.061-1.628-.053-.1.034-.157.093-.216M6.711,14.856c.152-.04.216-.088.212-.251-.01-.44-.009-.881,0-1.321a.276.276,0,0,0-.171-.273,2.688,2.688,0,0,1-1.419-2.589,5.8,5.8,0,0,1,.137-1.66,2.7,2.7,0,0,1,2.149-1.8A2.588,2.588,0,0,1,10.263,8.3a2.716,2.716,0,0,1,.385,1.443,9.394,9.394,0,0,1-.035,1.318A2.574,2.574,0,0,1,9.263,12.99a.366.366,0,0,0-.215.378c.016.408.012.816,0,1.224,0,.156.044.222.205.259.529.121,1.053.263,1.61.405a3.743,3.743,0,0,0-.539.854,2.5,2.5,0,0,0-.2,1.1c.018.246-.07.33-.307.369-.441.074-.876.188-1.315.286a2.779,2.779,0,0,0-.031-1.087c-.143-.3-.584-.4-.894-.582-.579-.347-1.164-.684-1.746-1.026-.018-.01-.034-.024-.074-.053a5.328,5.328,0,0,1,.946-.263m-.54,2.07c.059-.243.12-.272.32-.141.26.17.535.316.8.474.081.048.183.082.168.208-.02.083-.036.167-.06.25-.62,2.172-1.245,4.343-1.856,6.518-.07.25-.168.3-.389.192-.247-.12-.638-.087-.736-.31-.086-.2.086-.508.15-.767.535-2.141,1.075-4.28,1.6-6.424m-5.1,1.524q0-2.113,0-4.225c0-.4.16-.49.526-.289.235.129.464.268.7.4.926.54,1.85,1.085,2.781,1.617a.277.277,0,0,1,.159.374q-.92,3.633-1.817,7.271c-.043.173-.093.217-.277.151q-.893-.32-1.8-.6a.331.331,0,0,1-.274-.385c.012-1.441.006-2.881.006-4.322" fill="#2b7e3b"/><path d="M278.5.272c.1.5.2.991.32,1.481a.5.5,0,0,0,.375.362,7.407,7.407,0,0,1,1.4.579.593.593,0,0,0,.662-.032c.364-.229.721-.468,1.077-.709a.3.3,0,0,1,.449.029q1.154,1.171,2.325,2.326a.4.4,0,0,1,.086.518c-.111.232-.21.471-.3.711-.142.361-.114.395.272.422A3.561,3.561,0,0,1,288.188,7.9a4.981,4.981,0,0,1,.488,2.467,3.828,3.828,0,0,1-1.389,3.125c-.128.108-.246.218-.2.406s.213.2.354.232a12.441,12.441,0,0,1,1.9.5,1.459,1.459,0,0,0,.642.135l-.023-.008a18.471,18.471,0,0,0-2.53-.724c-.1-.029-.251.018-.279-.158s.087-.227.188-.306a3.8,3.8,0,0,0,1.1-1.442,5.576,5.576,0,0,0,.3-2.663,3.847,3.847,0,0,0-2.828-3.489,5.079,5.079,0,0,0-1.065-.121c.171-.4.321-.78.492-1.147a.269.269,0,0,0-.073-.359Q284,3.1,282.753,1.839c-.12-.122-.2-.139-.343-.039-.424.292-.864.561-1.291.849a.306.306,0,0,1-.372.027A7.966,7.966,0,0,0,279.119,2c-.1-.028-.187-.054-.207-.172-.106-.611-.3-1.205-.353-1.827a.29.29,0,0,0-.062.272" transform="translate(-259.979)" fill="#2b7e3b"/><path d="M4.561,219.8a3.783,3.783,0,0,0,1.418.219c.192-.008.336-.017.356-.254.014-.167.1-.175.235-.09q.628.392,1.269.762a.345.345,0,0,1,.18.273,1.615,1.615,0,0,0,1.421,1.409c.113.022.159.054.179.174a1.613,1.613,0,0,0,1.4,1.428c.123.024.181.056.2.191a1.578,1.578,0,0,0,1.354,1.394.274.274,0,0,1,.255.262,1.58,1.58,0,0,0,2.059,1.29.84.84,0,0,1,.984.219,1.665,1.665,0,0,0,2.748-1.008c.026-.133.05-.191.2-.215a1.559,1.559,0,0,0,1.383-1.359c.03-.161.081-.226.258-.248a1.551,1.551,0,0,0,1.332-1.3c.029-.211.1-.282.309-.314a1.551,1.551,0,0,0,1.3-1.4.535.535,0,0,1,.352-.526q4.521-2.244,9.033-4.508c.121-.061.242-.092.241-.284q-.011-3.709,0-7.418c0-.151-.039-.193-.195-.2a2.678,2.678,0,0,0-1.776.4,7.313,7.313,0,0,1-.85.454c-.031.016-.062.036-.094.051a2.122,2.122,0,0,0,.827-.329c.046-.028.095-.051.139-.081a2.172,2.172,0,0,1,1.429-.394c.426.033.431.01.431.437,0,2.214-.012,4.429.011,6.643a.792.792,0,0,1-.523.831c-2.892,1.426-5.771,2.878-8.659,4.313a.7.7,0,0,0-.459.627,1.414,1.414,0,0,1-1.173,1.285.5.5,0,0,0-.447.455,1.4,1.4,0,0,1-1.1,1.139.6.6,0,0,0-.51.521A1.39,1.39,0,0,1,19,225.721a.587.587,0,0,0-.5.49,1.546,1.546,0,0,1-1.67,1.17,1.873,1.873,0,0,1-1.132-.566.5.5,0,0,0-.632-.108,1.509,1.509,0,0,1-2.106-1.018.628.628,0,0,0-.505-.5,1.477,1.477,0,0,1-1.129-1.2.4.4,0,0,0-.338-.364A1.557,1.557,0,0,1,9.7,222.31a.3.3,0,0,0-.266-.276A1.587,1.587,0,0,1,8.1,220.72a.542.542,0,0,0-.242-.363c-.4-.245-.808-.491-1.218-.728-.156-.09-.288-.086-.377.089a.3.3,0,0,1-.278.183,3.335,3.335,0,0,1-1.146-.115c-1.465-.5-2.935-.983-4.4-1.471-.139-.046-.276-.131-.434-.067a1.423,1.423,0,0,0,.144.066c1.473.493,2.949.976,4.417,1.482" transform="translate(0 -194.442)" fill="#2b7e3b"/></g></g></g></svg>