<svg xmlns="http://www.w3.org/2000/svg" xmlns:xlink="http://www.w3.org/1999/xlink" width="63" height="63.196" viewBox="0 0 63 63.196"><defs><radialGradient id="a" cx="0.741" cy="0.152" r="0.5" gradientUnits="objectBoundingBox"><stop offset="0" stop-color="#fff"/><stop offset="1" stop-color="#e1efe3"/></radialGradient><clipPath id="b"><rect width="35.509" height="27.9" fill="#2b7e3b"/></clipPath></defs><g transform="translate(-301.667 -5920)"><g transform="translate(16.667 -1400)"><circle cx="31.5" cy="31.5" r="31.5" transform="translate(285 7320)" fill="url(#a)"/><path d="M8407.5,11782a31.476,31.476,0,0,1-31.5-31.5,31.842,31.842,0,0,1,.514-5.7,38.533,38.533,0,0,0,51.173,29.878A31.38,31.38,0,0,1,8407.5,11782Z" transform="translate(-8091 -4398.805)" fill="#bce2c1"/></g><g transform="translate(315.667 5938)"><g clip-path="url(#b)"><path d="M200.171,107.8a9.172,9.172,0,0,0-1.692-4.271,9.071,9.071,0,0,0-6.263-3.768,9.277,9.277,0,1,0,4.705,16.292,9.133,9.133,0,0,0,3.2-5.6c.035-.2-.052-.473.22-.6v-.277a2.317,2.317,0,0,1,0-1.248v-.208c-.2-.034-.15-.2-.167-.325m-9.234,9.415a8.269,8.269,0,1,1,8.285-8.3,8.277,8.277,0,0,1-8.285,8.3" transform="translate(-164.83 -90.434)" fill="#2b7e3b"/><path d="M188.579,98.545a9.386,9.386,0,1,0,10.652,11.4,8.458,8.458,0,0,1,.257-1.23c-.272.124-.185.394-.22.6a9.133,9.133,0,0,1-3.2,5.6,9.012,9.012,0,0,1-7.1,2.106,8.886,8.886,0,0,1-5.933-3.176,9.281,9.281,0,1,1,14.586-11.454,9.173,9.173,0,0,1,1.692,4.271c.017.121-.031.291.167.325a5.935,5.935,0,0,1-.2-1.066,9.425,9.425,0,0,0-10.708-7.373" transform="translate(-163.98 -89.291)" fill="#2b7e3b"/><path d="M382.816,194.443V193.2a4.519,4.519,0,0,0,0,1.248" transform="translate(-347.307 -175.295)" fill="#2b7e3b"/><path d="M382.4,194.443a4.517,4.517,0,0,1,0-1.248,2.318,2.318,0,0,0,0,1.248" transform="translate(-346.894 -175.295)" fill="#2b7e3b"/><path d="M17.96,26.095a27.058,27.058,0,0,1-4.451.629,31,31,0,0,1-8.543-.584,8.94,8.94,0,0,1-3.208-1.226c-.668-.461-.733-.644-.589-1.632a8.314,8.314,0,0,0,1.965.926,25.994,25.994,0,0,0,7.54,1.111,31.553,31.553,0,0,0,5.971-.4.534.534,0,0,0,.5-.655.546.546,0,0,0-.678-.427,32.463,32.463,0,0,1-6.112.37,23.631,23.631,0,0,1-7.016-1.1,4.856,4.856,0,0,1-1.955-1.067A.651.651,0,0,1,1.344,21a3.689,3.689,0,0,1,1.139-.771c.112-.056.167-.007.24.053a6.454,6.454,0,0,0,1.872,1.022,19.073,19.073,0,0,0,4.2.984,35.9,35.9,0,0,0,6.536.232.579.579,0,0,0,.619-.567c-.007-.327-.274-.54-.673-.536-.069,0-.139,0-.208.008a31.559,31.559,0,0,1-8-.551,9.585,9.585,0,0,1-3.416-1.26c-.685-.46-.767-.653-.621-1.653a9.8,9.8,0,0,0,3.055,1.25,31.066,31.066,0,0,0,8.733.763.551.551,0,0,0,.58-.558c0-.339-.254-.56-.657-.547a35.3,35.3,0,0,1-5.569-.212,17.384,17.384,0,0,1-4.588-1.111,3.569,3.569,0,0,1-1.41-.911.57.57,0,0,1-.078-.786c.241-.289.452-.691.935-.57a28.89,28.89,0,0,0,6.3.849,37.187,37.187,0,0,0,4.844-.2c.44-.046.671-.284.637-.62s-.3-.516-.742-.481c-.633.051-1.265.116-1.9.148a29.9,29.9,0,0,1-7.21-.409,13.931,13.931,0,0,1-3.727-1.12c-.779-.4-1.371-.9-1.072-1.933a6.951,6.951,0,0,0,.9.5,18.037,18.037,0,0,0,5.622,1.36,33.906,33.906,0,0,0,7.367,0c.539-.058,1.077-.131,1.613-.215a.542.542,0,0,0,.489-.639.534.534,0,0,0-.624-.458c-.092,0-.183.023-.275.034-.7.083-1.4.183-2.1.244a32.7,32.7,0,0,1-6.985-.143,16.542,16.542,0,0,1-4.418-1.088,3.851,3.851,0,0,1-1.4-.872.649.649,0,0,1,0-1.008,1.967,1.967,0,0,1,.254-.236A6.963,6.963,0,0,1,3.716,8a.254.254,0,0,1,.255.051A8.653,8.653,0,0,0,6.988,9.378a27.149,27.149,0,0,0,6.577.844,29.189,29.189,0,0,0,8.471-.92,8.325,8.325,0,0,0,2.638-1.176A2.231,2.231,0,0,0,25.75,6.052a12.846,12.846,0,0,1,0-1.836,2.261,2.261,0,0,0-1.1-2.129A8.3,8.3,0,0,0,22.2.98,24.663,24.663,0,0,0,16.3.052,30.739,30.739,0,0,0,7.021.844,8.275,8.275,0,0,0,3.86,2.262a2.1,2.1,0,0,0-.88,1.822c.031.692,0,1.386.008,2.079a1.452,1.452,0,0,0,.056.616c.1.222,0,.292-.2.359A6.224,6.224,0,0,0,.79,8.247,2.012,2.012,0,0,0,0,9.935c.032.761.018,1.525,0,2.287A1.809,1.809,0,0,0,.46,13.459a3.779,3.779,0,0,0,.841.715,10.966,10.966,0,0,0,1.222.628,1.715,1.715,0,0,0-.628,1.208,23.665,23.665,0,0,0,.037,3.113c.017.149-.054.179-.144.225a4.959,4.959,0,0,0-.953.623A2.077,2.077,0,0,0,0,21.746a20.389,20.389,0,0,1,0,2.079,2.081,2.081,0,0,0,.86,1.795,6.678,6.678,0,0,0,2.069,1.088A22.031,22.031,0,0,0,8.455,27.77,32.18,32.18,0,0,0,18.2,27.18c.418-.094.611-.354.531-.707-.073-.319-.365-.47-.772-.378M4.456,3.2a4.276,4.276,0,0,1,1.306-.764,17.347,17.347,0,0,1,4.594-1.1,33.68,33.68,0,0,1,6.434-.148A20.53,20.53,0,0,1,22.81,2.37a6.031,6.031,0,0,1,1.023.5c1.06.66,1.066,1.266.012,1.926a7.9,7.9,0,0,1-2,.844,25.137,25.137,0,0,1-6.529.907c-.335.008-.67,0-1,0a27.111,27.111,0,0,1-6.964-.778A10.551,10.551,0,0,1,5.245,5a3.481,3.481,0,0,1-.777-.513A.748.748,0,0,1,4.456,3.2M4.141,5.63A13.007,13.007,0,0,0,8.974,7.246a33.366,33.366,0,0,0,7.662.355,24.613,24.613,0,0,0,5.386-.861,9.039,9.039,0,0,0,2.553-1.112,1.244,1.244,0,0,1-.553,1.612,8.945,8.945,0,0,1-3.135,1.22,30.932,30.932,0,0,1-8.95.583A21.163,21.163,0,0,1,6.242,7.991,9.117,9.117,0,0,1,4.954,7.41a1.427,1.427,0,0,1-.813-1.78" transform="translate(0 0.001)" fill="#2b7e3b"/><path d="M252.832,137.86a7.776,7.776,0,0,0-1.188-.466c-.112-.036-.18-.068-.18-.2,0-1.153,0-2.307,0-3.481.681.13,1.3.3,1.529,1.034.118.37.386.543.694.45a.56.56,0,0,0,.36-.773,2.527,2.527,0,0,0-2.223-1.762c-.263-.045-.42-.107-.366-.419a2.386,2.386,0,0,0,0-.553.551.551,0,0,0-1.1-.014,3.088,3.088,0,0,0,0,.588c.032.271-.06.358-.337.415a2.513,2.513,0,0,0-2.15,1.9,2.563,2.563,0,0,0,1.014,2.815,4.431,4.431,0,0,0,1.247.659.285.285,0,0,1,.225.323q-.013,1.559,0,3.119c0,.2-.038.255-.248.208a1.919,1.919,0,0,1-1.544-1.54.555.555,0,0,0-.673-.48.571.571,0,0,0-.395.731,2.718,2.718,0,0,0,1.333,1.926,3.489,3.489,0,0,0,1.256.462c.2.032.292.11.272.333a7.616,7.616,0,0,0,0,.8c.006.4.233.656.564.649a.576.576,0,0,0,.544-.633c0-.139,0-.277,0-.416,0-.572,0-.572.561-.666a2.751,2.751,0,0,0,2.2-2.216,2.46,2.46,0,0,0-1.391-2.783m-2.487-.959a1.774,1.774,0,0,1-1.44-1.852,1.483,1.483,0,0,1,1.44-1.288Zm2.753,3.717a1.709,1.709,0,0,1-1.473,1.183c-.2,0-.158-.117-.159-.225,0-1,0-2.006,0-3.052a3.481,3.481,0,0,1,.985.391,1.428,1.428,0,0,1,.647,1.7" transform="translate(-224.555 -118.994)" fill="#2b7e3b"/></g></g></g></svg>