<svg xmlns="http://www.w3.org/2000/svg" xmlns:xlink="http://www.w3.org/1999/xlink" width="63" height="63.196" viewBox="0 0 63 63.196">
  <defs>
    <radialGradient id="radial-gradient" cx="0.741" cy="0.152" r="0.5" gradientUnits="objectBoundingBox">
      <stop offset="0" stop-color="#fff"/>
      <stop offset="1" stop-color="#e1efe3"/>
    </radialGradient>
    <clipPath id="clip-path">
      <rect id="Rect치ngulo_291629" data-name="Rect치ngulo 291629" width="35.63" height="31.707" fill="#2b7e3b"/>
    </clipPath>
  </defs>
  <g id="Grupo_872664" data-name="Grupo 872664" transform="translate(-301.667 -6026)">
    <g id="Grupo_872614" data-name="Grupo 872614" transform="translate(16.667 -1294)">
      <circle id="Elipse_4720" data-name="Elipse 4720" cx="31.5" cy="31.5" r="31.5" transform="translate(285 7320)" fill="url(#radial-gradient)"/>
      <path id="Sustracci칩n_8" data-name="Sustracci칩n 8" d="M8407.5,11782a31.476,31.476,0,0,1-31.5-31.5,31.842,31.842,0,0,1,.514-5.7,38.533,38.533,0,0,0,51.173,29.878A31.38,31.38,0,0,1,8407.5,11782Z" transform="translate(-8091 -4398.805)" fill="#bce2c1"/>
    </g>
    <g id="Grupo_872660" data-name="Grupo 872660" transform="translate(315.667 6041)">
      <g id="Grupo_872654" data-name="Grupo 872654" clip-path="url(#clip-path)">
        <path id="Trazado_255711" data-name="Trazado 255711" d="M382.216,302.106q0,.406,0,.812a.075.075,0,0,1,.056.012V302.1a.073.073,0,0,1-.061.011" transform="translate(-346.647 -273.982)" fill="#2b7e3b"/>
        <path id="Trazado_255712" data-name="Trazado 255712" d="M382.267,310.926c0,.008,0,.016,0,.024l.032.013.024-.024a.075.075,0,0,0-.056-.012" transform="translate(-346.694 -281.99)" fill="#2b7e3b"/>
        <path id="Trazado_255713" data-name="Trazado 255713" d="M382.215,302.031a.073.073,0,0,0,.061-.011l-.061-.008c0,.006,0,.012,0,.019" transform="translate(-346.646 -273.907)" fill="#2b7e3b"/>
        <path id="Trazado_255714" data-name="Trazado 255714" d="M36.445,28.966a.089.089,0,0,1-.03-.021A20.114,20.114,0,0,0,34.4,25.108c-1.689-2.976-3.41-5.934-5.117-8.9q-2.613-4.539-5.225-9.078c-.855-1.489-1.715-2.974-2.567-4.465A3.2,3.2,0,0,0,19.47,1.027a3.015,3.015,0,0,0-3.276,1.286c-.645.991-1.2,2.037-1.794,3.062-1.821,3.154-3.654,6.3-5.472,9.458-1.876,3.256-3.77,6.5-5.643,9.761q-.928,1.614-1.868,3.221a3.051,3.051,0,0,0,1.91,4.545,5.575,5.575,0,0,0,1.209.125q14.166,0,28.332-.005a4.182,4.182,0,0,0,1.574-.235,3.073,3.073,0,0,0,1.869-2.107,1.107,1.107,0,0,1,.105-.331.084.084,0,0,1,.032-.022.741.741,0,0,1,0-.819m-2.5,2.11a2.539,2.539,0,0,1-.788.1q-7.241,0-14.481,0H4.163a1.78,1.78,0,0,1-1.87-1.344,1.9,1.9,0,0,1,.27-1.462q1.868-3.211,3.721-6.431,5.4-9.35,10.8-18.7a1.776,1.776,0,0,1,2.1-.95,1.843,1.843,0,0,1,1.11.936q1.99,3.461,3.991,6.917,5.261,9.11,10.533,18.214a1.814,1.814,0,0,1-.866,2.721" transform="translate(-0.885 -0.845)" fill="#2b7e3b"/>
        <path id="Trazado_255715" data-name="Trazado 255715" d="M35.531,28.963a1.112,1.112,0,0,0-.105.331A3.073,3.073,0,0,1,33.558,31.4a4.183,4.183,0,0,1-1.574.235q-14.166.011-28.332.005a5.579,5.579,0,0,1-1.209-.125,3.051,3.051,0,0,1-1.91-4.545Q1.47,25.363,2.4,23.75c1.873-3.258,3.767-6.5,5.643-9.761,1.818-3.156,3.651-6.3,5.472-9.458.591-1.025,1.149-2.07,1.794-3.062A3.015,3.015,0,0,1,18.586.183,3.2,3.2,0,0,1,20.6,1.821c.852,1.491,1.712,2.976,2.567,4.465q2.609,4.541,5.225,9.078c1.707,2.966,3.428,5.924,5.117,8.9A20.119,20.119,0,0,1,35.531,28.1a.086.086,0,0,0,.03.021l.008-.016a3.156,3.156,0,0,0-.458-1.262L23.61,6.864c-1-1.745-2.005-3.493-3.015-5.235A3.087,3.087,0,0,0,17.278.054,3.174,3.174,0,0,0,15.02,1.739q-4.9,8.5-9.82,16.983-2.373,4.1-4.744,8.206A3.125,3.125,0,0,0,.8,30.642,3.316,3.316,0,0,0,3.41,31.708Q17.8,31.7,32.2,31.7c.2,0,.394-.011.591-.028a3.11,3.11,0,0,0,2.784-2.714l-.011-.02a.085.085,0,0,0-.032.022" transform="translate(-0.001 -0.001)" fill="#2b7e3b"/>
        <path id="Trazado_255716" data-name="Trazado 255716" d="M380.936,303l.011,0,0-.812-.008,0a.741.741,0,0,0,0,.819" transform="translate(-345.374 -274.059)" fill="#2b7e3b"/>
        <path id="Trazado_255717" data-name="Trazado 255717" d="M382.149,310.942l.011.02c0-.008,0-.016,0-.024l-.011,0" transform="translate(-346.586 -282.002)" fill="#2b7e3b"/>
        <path id="Trazado_255718" data-name="Trazado 255718" d="M382.133,302.031c0-.006,0-.012,0-.019l-.008.016.008,0" transform="translate(-346.565 -273.907)" fill="#2b7e3b"/>
        <path id="Trazado_255719" data-name="Trazado 255719" d="M167.22,77.5a9.951,9.951,0,0,0-1.321-.021,2.038,2.038,0,0,0-2.041,2.2q.139,2.484.271,4.967c.09,1.749.176,3.5.272,5.246a2.012,2.012,0,0,0,4.022-.013q.275-5.124.542-10.248A2.02,2.02,0,0,0,167.22,77.5m.367,2.11c-.046,1.019-.105,2.037-.16,3.056-.034.637-.071,1.273-.107,1.909h.007q-.139,2.552-.28,5.1a.637.637,0,1,1-1.272,0q-.244-4.462-.483-8.924c-.022-.405-.056-.81-.062-1.215a.623.623,0,0,1,.657-.689c.324-.012.649-.007.974,0,.506.008.749.252.727.757" transform="translate(-148.606 -70.259)" fill="#2b7e3b"/>
        <path id="Trazado_255720" data-name="Trazado 255720" d="M167.285,248.066a2.462,2.462,0,0,0-2.555,2.419,2.474,2.474,0,1,0,4.947.092,2.461,2.461,0,0,0-2.392-2.512m0,3.582a1.142,1.142,0,0,1-1.1-1.117,1.07,1.07,0,1,1,2.136.022,1.112,1.112,0,0,1-1.034,1.095" transform="translate(-149.399 -224.98)" fill="#2b7e3b"/>
      </g>
    </g>
  </g>
</svg>
