<svg xmlns="http://www.w3.org/2000/svg" xmlns:xlink="http://www.w3.org/1999/xlink" width="82" height="82.001" viewBox="0 0 82 82.001">
  <defs>
    <clipPath id="clip-path">
      <rect id="Rectángulo_291636" data-name="Rectángulo 291636" width="60.059" height="66.51" fill="none"/>
    </clipPath>
  </defs>
  <g id="Grupo_877616" data-name="Grupo 877616" transform="translate(-1173.667 -7084)">
    <circle id="Elipse_4713" data-name="Elipse 4713" cx="41" cy="41" r="41" transform="translate(1173.667 7084)" fill="#fff"/>
    <g id="Grupo_872674" data-name="Grupo 872674" transform="translate(1191.843 7099.492)">
      <g id="Grupo_872674-2" data-name="Grupo 872674" clip-path="url(#clip-path)">
        <path id="Trazado_255859" data-name="Trazado 255859" d="M36.462,52.162q0-2.6,0-5.205a.924.924,0,0,1,.593.216c1.338.709,2.672,1.427,4.012,2.133,1.051.554,1.827.1,1.828-1.08,0-4.357.114-8.717-.024-13.069-.249-7.829-3.857-13.716-10.643-17.639-.706-.408-1.746-.563-2.107-1.155s-.077-1.6-.1-2.43a3.007,3.007,0,0,0-1.3-2.518c-.393-.271-.434-.466-.258-.895,1.2-2.924,2.368-5.861,3.537-8.8C32.418.679,31.957.016,30.827.014c-2.681,0-5.362.011-8.043-.01a1.317,1.317,0,0,0-1.357.86c-.3.669-.655,1.314-1.053,2.1-.374-.748-.718-1.367-1-2.013A1.423,1.423,0,0,0,17.869,0c-1.518.039-3.038.011-4.558.012-1.432,0-1.845.676-1.2,1.965q2.167,4.332,4.343,8.66c.178.351.2.539-.174.8a3.014,3.014,0,0,0-1.268,2.534c-.01.67-.025,1.342.007,2.01a.616.616,0,0,1-.441.687C6.474,20.468,2.3,26.853,2.154,35.8c-.079,4.825-.019,9.651-.006,14.477A1.514,1.514,0,0,1,1.7,51.453,5.944,5.944,0,0,0,0,55.492,6.564,6.564,0,0,0,6.681,62.2c5.429.018,10.858,0,16.287,0,1.072,0,1.354-.247,1.561-1.321.267-1.379.552-2.754.811-4.135.067-.357.17-.428.512-.252,1.486.764,2.983,1.507,4.48,2.249,1.123.557,1.834.119,1.837-1.131,0-1.562,0-3.124,0-4.684a.692.692,0,0,1,.167-.011c.8.194,1.6.394,2.4.588,1.22.295,1.719-.1,1.72-1.348M14.708,2.338c-.017-.034,0-.084,0-.179.865,0,1.729.009,2.592,0,.3,0,.366.2.465.4.469.936.947,1.869,1.4,2.812.253.524.535,1.013,1.193,1.022s.959-.465,1.213-.992c.456-.943.931-1.877,1.4-2.814.108-.217.187-.433.515-.431,1.982.013,3.964.006,6.029.006-.645,1.612-1.264,3.157-1.882,4.7-.455,1.138-.92,2.271-1.353,3.417a.606.606,0,0,1-.674.47c-2.075-.021-4.151-.012-6.226-.008-.276,0-.5-.007-.652-.32-1.33-2.7-2.678-5.389-4.019-8.083M27.776,15.63c-.238.27-.9-.122-1.374-.217a19.5,19.5,0,0,0-8.682.215c-.432.108-.572.087-.576-.414-.019-2.245.049-2.33,2.3-2.33h3.146c1.339,0,2.677-.005,4.016,0,.876,0,1.27.394,1.274,1.262,0,.51.159,1.187-.1,1.482M34.318,45.5c0,1.874,0,3.748,0,5.678L31.6,50.524c-1.037-.249-1.571.175-1.574,1.259,0,1.429,0,2.858,0,4.3-.34.04-.559-.179-.807-.3-1.282-.627-2.555-1.275-3.836-1.9-.983-.483-1.59-.193-1.808.869-.323,1.573-.644,3.146-.939,4.723-.083.446-.249.606-.737.6-5.071-.022-10.143-.01-15.215-.016a4.468,4.468,0,0,1-4.274-2.877,4.137,4.137,0,0,1,1.365-4.743,1.6,1.6,0,0,0,.516-1.311q-.016-7.909,0-15.818a18.235,18.235,0,0,1,36.3-2.39,10.807,10.807,0,0,1,.141,1.466c.011,4.065.006,8.131.006,12.3-1.541-.818-2.994-1.594-4.45-2.362-1.271-.67-1.966-.251-1.967,1.18" transform="translate(0 0)"/>
        <path id="Trazado_255860" data-name="Trazado 255860" d="M256.125,250.865a5.362,5.362,0,1,0-5.37,5.354,5.369,5.369,0,0,0,5.37-5.354m-5.4,3.2a3.215,3.215,0,1,1,3.255-3.207,3.233,3.233,0,0,1-3.255,3.207" transform="translate(-201.43 -201.506)"/>
        <path id="Trazado_255861" data-name="Trazado 255861" d="M202.862,299.369a5.362,5.362,0,1,0,5.375,5.421,5.367,5.367,0,0,0-5.375-5.421m.039,8.579a3.216,3.216,0,1,1,3.19-3.207,3.235,3.235,0,0,1-3.19,3.207" transform="translate(-162.121 -245.727)"/>
        <path id="Trazado_255862" data-name="Trazado 255862" d="M280.7,311.34a5.362,5.362,0,1,0,5.359,5.436,5.367,5.367,0,0,0-5.359-5.436m.022,8.579a3.216,3.216,0,1,1,3.192-3.205,3.235,3.235,0,0,1-3.192,3.205" transform="translate(-225.996 -255.553)"/>
        <path id="Trazado_255863" data-name="Trazado 255863" d="M50.518,125.331c0-4.167,0-8.233-.006-12.3a10.807,10.807,0,0,0-.141-1.466,18.235,18.235,0,0,0-36.3,2.39q-.024,7.909,0,15.819a1.6,1.6,0,0,1-.516,1.311,4.137,4.137,0,0,0-1.365,4.743,4.468,4.468,0,0,0,4.274,2.877c5.072.006,10.144-.006,15.215.016.488,0,.654-.158.737-.6.3-1.578.616-3.151.939-4.723.218-1.062.824-1.352,1.807-.869,1.281.63,2.554,1.277,3.836,1.9.247.121.467.34.806.3,0-1.442,0-2.87,0-4.3,0-1.084.538-1.508,1.574-1.259l2.715.656c0-1.931,0-3.8,0-5.678,0-1.432.7-1.851,1.967-1.18,1.456.768,2.909,1.543,4.45,2.362M32.325,128a13.943,13.943,0,1,1,13.92-13.948A13.957,13.957,0,0,1,32.325,128" transform="translate(-9.783 -78.648)" fill="#dc636e"/>
        <path id="Trazado_255864" data-name="Trazado 255864" d="M86.719,20.6c2.075,0,4.151-.013,6.226.008a.606.606,0,0,0,.674-.47c.433-1.146.9-2.279,1.353-3.417.618-1.546,1.237-3.092,1.882-4.7-2.065,0-4.047.006-6.029-.006-.328,0-.407.214-.515.431-.468.937-.944,1.871-1.4,2.814-.254.527-.554,1-1.213.992s-.94-.5-1.193-1.022c-.455-.943-.932-1.876-1.4-2.812-.1-.2-.168-.4-.465-.4-.863.013-1.727,0-2.592,0,0,.1-.015.145,0,.179,1.34,2.694,2.689,5.384,4.019,8.083.154.313.375.32.652.32" transform="translate(-67.34 -9.857)" fill="#dc636e"/>
        <path id="Trazado_255865" data-name="Trazado 255865" d="M105.133,71.895c-1.339-.007-2.677,0-4.016,0H97.972c-2.249,0-2.317.085-2.3,2.33,0,.5.144.522.576.414a19.5,19.5,0,0,1,8.682-.215c.474.095,1.136.487,1.374.217.261-.3.1-.972.1-1.482,0-.869-.4-1.258-1.274-1.262" transform="translate(-78.529 -59.01)" fill="#dc636e"/>
        <path id="Trazado_255866" data-name="Trazado 255866" d="M260.563,257.47a3.215,3.215,0,1,0,3.241,3.223,3.227,3.227,0,0,0-3.241-3.223" transform="translate(-211.258 -211.336)" fill="#fec150"/>
        <path id="Trazado_255867" data-name="Trazado 255867" d="M212.752,311.355a3.216,3.216,0,1,0,3.175,3.224,3.229,3.229,0,0,0-3.175-3.224" transform="translate(-171.957 -255.566)" fill="#fec150"/>
        <path id="Trazado_255868" data-name="Trazado 255868" d="M290.5,323.326a3.216,3.216,0,1,0,3.24,3.226,3.231,3.231,0,0,0-3.24-3.226" transform="translate(-235.831 -265.391)" fill="#fec150"/>
        <path id="Trazado_255869" data-name="Trazado 255869" d="M61.951,119.793a13.943,13.943,0,1,0,13.8,13.936,13.961,13.961,0,0,0-13.8-13.936m9.589,20.6a11.8,11.8,0,0,1-17.608,2.132,1.429,1.429,0,0,1-.162-.208,10.962,10.962,0,0,1-3.6-6.682,11.766,11.766,0,0,1,21.018-8.986c3.075,3.635,3.227,9.574.351,13.743" transform="translate(-39.288 -98.328)"/>
        <path id="Trazado_255870" data-name="Trazado 255870" d="M69.938,150.694h0a4.475,4.475,0,0,1-2.518-3.335c-.089-.479.039-.662.523-.591a1.469,1.469,0,0,0,.334,0c.718-.06,1.268-.059,1.511.9a1.951,1.951,0,0,0,2.41,1.174,2.138,2.138,0,0,0-.465-4.215,4.273,4.273,0,0,1-1.674-8.224.756.756,0,0,0,.559-.872c-.017-1.772-.006-1.762,1.779-1.645.305.02.393.121.358.395-.006.044,0,.09,0,.134a1.926,1.926,0,0,0,1.266,2.4,3.685,3.685,0,0,1,1.936,3.038c.063.389-.053.53-.443.482a2.363,2.363,0,0,0-.6,0c-.669.091-1.08-.009-1.289-.825a2.011,2.011,0,0,0-2.433-1.269,2.164,2.164,0,0,0-1.645,2.3,2.139,2.139,0,0,0,2.056,1.93,4.342,4.342,0,0,1,3.562,1.8,4.669,4.669,0,0,1,.831,2.367,16.667,16.667,0,0,0,2.644-3.4,17.4,17.4,0,0,0,2.428-6.77,11.766,11.766,0,0,0-21.018,8.986,10.962,10.962,0,0,0,3.6,6.682A18.372,18.372,0,0,0,69.938,150.694Z" transform="translate(-49.163 -108.145)" fill="#f0e54c"/>
        <path id="Trazado_255871" data-name="Trazado 255871" d="M98.243,158.054h0a3.2,3.2,0,0,1-.218,2.018,18.684,18.684,0,0,1-4.265,7.8c-.16.176-.293.425-.589.358a4.288,4.288,0,0,1-2.9,4.148c-.247.094-.376.2-.343.475a2.668,2.668,0,0,1,0,.334c0,1.793,0,1.785-1.816,1.614-.265-.025-.342-.106-.333-.356a12.379,12.379,0,0,1,.015-1.27c.077-.553-.141-.815-.648-.888,0,0,0,.007,0,.012-.089.271-.333.343-.56.427a19.7,19.7,0,0,1-5.2,1.131.83.83,0,0,1-.569-.138,1.426,1.426,0,0,0,.162.207A11.8,11.8,0,0,0,98.594,171.8c2.876-4.169,2.724-10.108-.351-13.743" transform="translate(-66.342 -129.733)" fill="#fec150"/>
        <path id="Trazado_255872" data-name="Trazado 255872" d="M152.376,164.823a16.67,16.67,0,0,1-2.644,3.4s0,.005,0,.008c.3.068.429-.182.589-.357a18.689,18.689,0,0,0,4.265-7.8,3.2,3.2,0,0,0,.218-2.018h0a17.4,17.4,0,0,1-2.427,6.77" transform="translate(-122.902 -129.733)" fill="#fce960"/>
        <path id="Trazado_255873" data-name="Trazado 255873" d="M81.393,239.04a19.69,19.69,0,0,0,5.2-1.131c.227-.084.471-.157.56-.427,0,0,0-.007,0-.011l-.034-.006a18.372,18.372,0,0,1-6.293,1.438.829.829,0,0,0,.569.138" transform="translate(-66.342 -194.915)" fill="#fce960"/>
        <path id="Trazado_255874" data-name="Trazado 255874" d="M110.928,156.272a4.053,4.053,0,0,0-4.036-3.348,2.322,2.322,0,0,1-.92-4.441,2.314,2.314,0,0,1,3.045,1.164,1.249,1.249,0,0,0,1.635.763c.35-.088.319-.32.263-.571a3.787,3.787,0,0,0-2.19-2.864,1.388,1.388,0,0,1-.936-1.551c.043-1.038-.421-1.345-1.444-1.063a.409.409,0,0,0-.321.506,2.064,2.064,0,0,1-1.368,2.387,3.832,3.832,0,0,0-1.69,4.478,4.13,4.13,0,0,0,3.66,2.969,2.705,2.705,0,0,1,1.849.641,2.236,2.236,0,0,1,.611,2.446A2.311,2.311,0,0,1,104.8,158a1.228,1.228,0,0,0-1.629-.773c-.388.087-.363.34-.293.613a4.243,4.243,0,0,0,1.708,2.557c.225.154.519.247.606.552.541-.153.743.165.806.634a11.5,11.5,0,0,1,.026,1.2c.009.323.157.495.49.495.178,0,.357-.011.534.006.539.051.793-.17.747-.726-.02-.243.006-.489,0-.734a.983.983,0,0,1,.669-1.035,4.086,4.086,0,0,0,2.5-3.227c.045-.23.027-.491.242-.661a.489.489,0,0,1-.054-.013,1.47,1.47,0,0,1-.227-.623" transform="translate(-84.387 -118.412)"/>
        <path id="Trazado_255875" data-name="Trazado 255875" d="M103.666,159.72a4.243,4.243,0,0,1-1.708-2.557c-.07-.273-.1-.526.293-.613a1.227,1.227,0,0,1,1.629.773,2.311,2.311,0,0,0,4.284-.215,2.237,2.237,0,0,0-.611-2.446,2.705,2.705,0,0,0-1.849-.641,4.13,4.13,0,0,1-3.66-2.969,3.832,3.832,0,0,1,1.69-4.478,2.064,2.064,0,0,0,1.368-2.387.409.409,0,0,1,.321-.506c1.023-.282,1.487.025,1.444,1.063a1.388,1.388,0,0,0,.936,1.551,3.786,3.786,0,0,1,2.19,2.864c.056.251.087.483-.263.571a1.25,1.25,0,0,1-1.635-.763,2.313,2.313,0,0,0-4.23,1.87,2.287,2.287,0,0,0,2.105,1.407,4.053,4.053,0,0,1,4.037,3.348,1.47,1.47,0,0,0,.227.623.477.477,0,0,0,.054.013l.007-.007a4.667,4.667,0,0,0-.83-2.367,4.342,4.342,0,0,0-3.562-1.8,2.139,2.139,0,0,1-2.056-1.93,2.165,2.165,0,0,1,1.645-2.3,2.011,2.011,0,0,1,2.433,1.269c.209.815.619.915,1.289.825a2.361,2.361,0,0,1,.6,0c.389.048.505-.093.443-.482a3.685,3.685,0,0,0-1.936-3.038,1.926,1.926,0,0,1-1.266-2.4c.006-.044,0-.09,0-.134.035-.274-.053-.374-.358-.395-1.786-.118-1.8-.128-1.779,1.645a.756.756,0,0,1-.559.872,4.273,4.273,0,0,0,1.674,8.224,2.138,2.138,0,0,1,.465,4.215,1.951,1.951,0,0,1-2.41-1.174c-.243-.962-.793-.963-1.511-.9a1.478,1.478,0,0,1-.334,0c-.483-.071-.612.112-.523.591a4.475,4.475,0,0,0,2.518,3.335l.03-.008c-.088-.306-.381-.4-.606-.552" transform="translate(-83.467 -117.73)"/>
        <path id="Trazado_255876" data-name="Trazado 255876" d="M121.886,215.5a4.086,4.086,0,0,1-2.5,3.227.983.983,0,0,0-.669,1.035c.007.244-.018.491,0,.734.046.556-.208.776-.747.726-.176-.016-.356-.006-.534-.006-.334,0-.481-.172-.49-.495a11.5,11.5,0,0,0-.026-1.2c-.063-.469-.265-.787-.806-.634,0,0,0,.009,0,.014.507.072.725.335.648.888a12.378,12.378,0,0,0-.015,1.27c-.009.25.068.331.333.356,1.815.171,1.814.179,1.816-1.614a2.666,2.666,0,0,0,0-.334c-.034-.271.1-.381.343-.475a4.288,4.288,0,0,0,2.9-4.149h-.007c-.214.17-.2.43-.242.661" transform="translate(-95.306 -176.343)"/>
        <path id="Trazado_255877" data-name="Trazado 255877" d="M115.946,237.429l.034.006c0-.005,0-.009,0-.014l-.03.008" transform="translate(-95.171 -194.879)"/>
        <path id="Trazado_255878" data-name="Trazado 255878" d="M149.694,214.807l.007,0s0-.006,0-.008l-.007.007" transform="translate(-122.871 -176.312)"/>
      </g>
    </g>
  </g>
</svg>
