<svg id="Grupo_1072155" data-name="Grupo 1072155" xmlns="http://www.w3.org/2000/svg" xmlns:xlink="http://www.w3.org/1999/xlink" width="235.651" height="187.395" viewBox="0 0 235.651 187.395">
  <defs>
    <clipPath id="clip-path">
      <rect id="Rectángulo_293751" data-name="Rectángulo 293751" width="235.651" height="187.395" fill="none"/>
    </clipPath>
    <clipPath id="clip-path-3">
      <rect id="Rectángulo_293736" data-name="Rectángulo 293736" width="69.881" height="48.969" fill="none"/>
    </clipPath>
    <clipPath id="clip-path-4">
      <rect id="Rectángulo_293746" data-name="Rectángulo 293746" width="9.584" height="20.224" fill="none"/>
    </clipPath>
    <clipPath id="clip-path-5">
      <rect id="Rectángulo_293747" data-name="Rectángulo 293747" width="26.165" height="88.302" fill="none"/>
    </clipPath>
    <clipPath id="clip-path-6">
      <rect id="Rectángulo_293748" data-name="Rectángulo 293748" width="38.148" height="77.998" fill="none"/>
    </clipPath>
    <clipPath id="clip-path-7">
      <rect id="Rectángulo_293749" data-name="Rectángulo 293749" width="15.818" height="38.211" fill="none"/>
    </clipPath>
  </defs>
  <g id="Grupo_877509" data-name="Grupo 877509" clip-path="url(#clip-path)">
    <g id="Grupo_877508" data-name="Grupo 877508">
      <g id="Grupo_877507" data-name="Grupo 877507" clip-path="url(#clip-path)">
        <g id="Grupo_1072314" data-name="Grupo 1072314" transform="translate(149.279 136.361)" opacity="0.5" style="mix-blend-mode: multiply;isolation: isolate">
          <g id="Grupo_877468" data-name="Grupo 877468" transform="translate(0)">
            <g id="Grupo_877467" data-name="Grupo 877467" clip-path="url(#clip-path-3)">
              <path id="Trazado_258731" data-name="Trazado 258731" d="M3.887,189.363l29.047,23.545c6.618,5.364,19.382,6.041,28.511,1.512s11.166-12.549,4.548-17.913L36.947,172.961c-6.618-5.364-19.382-6.041-28.511-1.512S-2.73,184,3.887,189.363" transform="translate(0 -168.451)" fill="#8196b3"/>
            </g>
          </g>
        </g>
        <path id="Trazado_258982" data-name="Trazado 258982" d="M87.041,51.195a4.246,4.246,0,0,0-.5-.335,2.075,2.075,0,0,0-2.084-.2L1.925,98.623a2.071,2.071,0,0,1,2.084.2,4.415,4.415,0,0,1,.5.337L32.745,121l82.535-47.963Z" transform="translate(0.365 9.564)" fill="#34559c"/>
        <path id="Trazado_258983" data-name="Trazado 258983" d="M104.088,71.308l-1.536.891-71.29,41.423L13.448,99.849l-1.536-1.191,72.82-42.32Z" transform="translate(2.258 10.678)" fill="#282752"/>
        <path id="Trazado_258984" data-name="Trazado 258984" d="M102.307,71.868,31.016,113.29,13.2,99.518,84.488,58.088Z" transform="translate(2.503 11.01)" fill="#eedfcf"/>
        <path id="Trazado_258985" data-name="Trazado 258985" d="M27.834,117.4l82.535-47.964,75.419,43.544-82.535,47.963Z" transform="translate(5.275 13.161)" fill="#eedfcf"/>
        <path id="Trazado_258986" data-name="Trazado 258986" d="M173.771,106.043,91.236,154.007a6.519,6.519,0,0,1,2.952,5.113l-.012,4.023-.012,4.153L176.7,119.332l.012-4.153.012-4.024a6.519,6.519,0,0,0-2.952-5.113" transform="translate(17.293 20.099)" fill="#34559c"/>
        <path id="Trazado_258987" data-name="Trazado 258987" d="M4.374,91.181a4.511,4.511,0,0,1,.5.335l28.238,21.84L108.528,156.9a6.521,6.521,0,0,1,2.952,5.114l-.012,4.023-.012,4.153L0,105.838l.012-4.153,1.462-9.339c.239-1.524,1.487-1.982,2.9-1.166" transform="translate(0 17.206)" fill="#282752"/>
        <path id="Trazado_258988" data-name="Trazado 258988" d="M86.681,86.257l6.169,3.561a4.65,4.65,0,0,0,4.218,0l11.311-6.573a1.479,1.479,0,0,0,.866-1.211l.007-2.653a.97.97,0,0,1-.031.182,1.388,1.388,0,0,0-.853-1.414L102.2,74.59a4.649,4.649,0,0,0-4.215,0L86.675,81.165a1.474,1.474,0,0,0-.865,1.216v0L85.8,85.029a1.491,1.491,0,0,0,.879,1.229" transform="translate(16.263 14.042)" fill="#262626"/>
        <path id="Trazado_258989" data-name="Trazado 258989" d="M71.326,95.18,77.5,98.742a4.65,4.65,0,0,0,4.218,0l11.311-6.573a1.48,1.48,0,0,0,.866-1.212l.007-2.651a.971.971,0,0,1-.031.182,1.388,1.388,0,0,0-.852-1.414l-6.169-3.561a4.649,4.649,0,0,0-4.215,0L71.32,90.088a1.474,1.474,0,0,0-.865,1.216v0l-.007,2.65a1.491,1.491,0,0,0,.879,1.229" transform="translate(13.352 15.733)" fill="#282752"/>
        <path id="Trazado_258990" data-name="Trazado 258990" d="M55.972,104.1l6.169,3.561a4.652,4.652,0,0,0,4.223,0l11.307-6.571a1.486,1.486,0,0,0,.87-1.215l.007-2.653a.979.979,0,0,1-.031.184A1.386,1.386,0,0,0,77.664,96L71.5,92.434a4.652,4.652,0,0,0-4.219,0L55.97,99.008a1.484,1.484,0,0,0-.868,1.219v0l-.008,2.65a1.492,1.492,0,0,0,.879,1.229" transform="translate(10.442 17.424)" fill="#282752"/>
        <path id="Trazado_258991" data-name="Trazado 258991" d="M63.185,108.8l.007-2.651a1.075,1.075,0,0,1-.03.182,1.386,1.386,0,0,0-.853-1.413l-6.168-3.561a4.645,4.645,0,0,0-4.219,0l-11.307,6.571a1.482,1.482,0,0,0-.87,1.218v0l-.007,2.651a1.49,1.49,0,0,0,.878,1.228l6.169,3.561a4.645,4.645,0,0,0,4.223,0l11.308-6.571a1.482,1.482,0,0,0,.868-1.215" transform="translate(7.532 19.115)" fill="#bf343b"/>
        <path id="Trazado_258992" data-name="Trazado 258992" d="M96.881,88.772l0,0-.007,2.65a1.5,1.5,0,0,0,.883,1.232l6.169,3.561a4.642,4.642,0,0,0,4.215,0l11.312-6.573a1.476,1.476,0,0,0,.865-1.212l.008-2.651a1.248,1.248,0,0,1-.03.183,1.387,1.387,0,0,0-.851-1.413l-6.168-3.56a4.642,4.642,0,0,0-4.218,0L97.744,87.556a1.469,1.469,0,0,0-.864,1.216" transform="translate(18.361 15.253)" fill="#282752"/>
        <path id="Trazado_258993" data-name="Trazado 258993" d="M104.088,93.468,97.92,89.907a4.65,4.65,0,0,0-4.218,0L82.39,96.478a1.475,1.475,0,0,0-.865,1.217v0l-.007,2.651a1.5,1.5,0,0,0,.883,1.232l6.169,3.561a4.649,4.649,0,0,0,4.215,0l11.311-6.573a1.479,1.479,0,0,0,.866-1.213l.007-2.651a1.068,1.068,0,0,1-.03.183,1.383,1.383,0,0,0-.849-1.412" transform="translate(15.45 16.944)" fill="#e98535"/>
        <path id="Trazado_258994" data-name="Trazado 258994" d="M78.346,98.828,67.038,105.4a1.479,1.479,0,0,0-.867,1.219v0l-.007,2.651a1.5,1.5,0,0,0,.883,1.232l6.168,3.56a4.645,4.645,0,0,0,4.219,0l11.307-6.571a1.482,1.482,0,0,0,.87-1.215l.007-2.653a1.07,1.07,0,0,1-.03.183,1.384,1.384,0,0,0-.848-1.411l-6.169-3.561a4.652,4.652,0,0,0-4.223,0" transform="translate(12.54 18.635)" fill="#e98535"/>
        <path id="Trazado_258995" data-name="Trazado 258995" d="M74.254,115.192l.007-2.651a1.075,1.075,0,0,1-.03.182,1.385,1.385,0,0,0-.849-1.411l-6.168-3.561a4.652,4.652,0,0,0-4.223,0l-11.308,6.571a1.485,1.485,0,0,0-.868,1.219v0l-.007,2.653a1.492,1.492,0,0,0,.881,1.231l6.169,3.561a4.652,4.652,0,0,0,4.219,0l11.307-6.571a1.484,1.484,0,0,0,.87-1.216" transform="translate(9.63 20.327)" fill="#e98535"/>
        <path id="Trazado_258996" data-name="Trazado 258996" d="M107.952,95.165v0l-.007,2.653a1.493,1.493,0,0,0,.879,1.229l6.169,3.561a4.649,4.649,0,0,0,4.215,0l11.311-6.573a1.482,1.482,0,0,0,.866-1.212l.007-2.651a1.059,1.059,0,0,1-.03.181,1.385,1.385,0,0,0-.849-1.411l-6.169-3.561a4.649,4.649,0,0,0-4.215,0l-11.311,6.573a1.477,1.477,0,0,0-.865,1.217" transform="translate(20.459 16.465)" fill="#282752"/>
        <path id="Trazado_258997" data-name="Trazado 258997" d="M115.157,99.859,108.988,96.3a4.649,4.649,0,0,0-4.215,0l-11.311,6.573a1.479,1.479,0,0,0-.865,1.217v0l-.008,2.651a1.493,1.493,0,0,0,.88,1.23l6.168,3.561a4.649,4.649,0,0,0,4.215,0l11.311-6.573a1.479,1.479,0,0,0,.866-1.213l.007-2.651a1.075,1.075,0,0,1-.03.182,1.385,1.385,0,0,0-.849-1.411" transform="translate(17.549 18.156)" fill="#e98535"/>
        <path id="Trazado_258998" data-name="Trazado 258998" d="M78.114,116.888l6.169,3.561a4.65,4.65,0,0,0,4.218,0l11.308-6.571a1.486,1.486,0,0,0,.87-1.216l.007-2.651a1.007,1.007,0,0,1-.031.186,1.383,1.383,0,0,0-.848-1.414l-6.168-3.561a4.652,4.652,0,0,0-4.219,0l-11.308,6.571a1.484,1.484,0,0,0-.868,1.219v0l-.008,2.651a1.492,1.492,0,0,0,.879,1.229" transform="translate(14.639 19.847)" fill="#e98535"/>
        <path id="Trazado_258999" data-name="Trazado 258999" d="M85.323,121.583l.007-2.651a1.007,1.007,0,0,1-.031.186,1.382,1.382,0,0,0-.847-1.414l-6.169-3.561a4.652,4.652,0,0,0-4.219,0l-11.307,6.571a1.485,1.485,0,0,0-.87,1.219v0l-.007,2.65a1.488,1.488,0,0,0,.878,1.229l6.169,3.561a4.652,4.652,0,0,0,4.219,0L84.454,122.8a1.484,1.484,0,0,0,.87-1.216" transform="translate(11.729 21.538)" fill="#e98535"/>
        <path id="Trazado_259000" data-name="Trazado 259000" d="M155.6,106.345a1.383,1.383,0,0,0-.848-1.413L135.412,93.765a4.649,4.649,0,0,0-4.215,0l-11.311,6.573a1.477,1.477,0,0,0-.865,1.217v0l-.007,2.65a1.491,1.491,0,0,0,.879,1.23L139.233,116.6a4.642,4.642,0,0,0,4.215,0l11.311-6.573a1.48,1.48,0,0,0,.866-1.212l.007-2.651a1,1,0,0,1-.031.184" transform="translate(22.557 17.676)" fill="#282752"/>
        <path id="Trazado_259001" data-name="Trazado 259001" d="M126.226,106.25l-6.168-3.561a4.652,4.652,0,0,0-4.216,0l-11.311,6.573a1.479,1.479,0,0,0-.865,1.217v0l-.008,2.651a1.493,1.493,0,0,0,.88,1.23l6.168,3.561a4.652,4.652,0,0,0,4.219,0l11.311-6.573a1.48,1.48,0,0,0,.865-1.212l.007-2.651a1.074,1.074,0,0,1-.03.182,1.388,1.388,0,0,0-.853-1.414" transform="translate(19.647 19.367)" fill="#e98535"/>
        <path id="Trazado_259002" data-name="Trazado 259002" d="M89.183,123.279l6.169,3.561a4.652,4.652,0,0,0,4.223,0l11.307-6.571a1.486,1.486,0,0,0,.87-1.215l.007-2.651a1.013,1.013,0,0,1-.031.184,1.386,1.386,0,0,0-.852-1.417l-6.168-3.561a4.652,4.652,0,0,0-4.219,0l-11.308,6.571a1.484,1.484,0,0,0-.868,1.219v0L88.3,122.05a1.492,1.492,0,0,0,.879,1.229" transform="translate(16.737 21.058)" fill="#e98535"/>
        <path id="Trazado_259003" data-name="Trazado 259003" d="M96.4,127.978l.007-2.651a1.062,1.062,0,0,1-.03.181,1.39,1.39,0,0,0-.853-1.413l-6.168-3.56a4.645,4.645,0,0,0-4.219,0l-11.307,6.571a1.482,1.482,0,0,0-.87,1.219v0l-.007,2.65a1.488,1.488,0,0,0,.878,1.228L80,135.763a4.645,4.645,0,0,0,4.223,0l11.308-6.571a1.482,1.482,0,0,0,.868-1.215" transform="translate(13.827 22.75)" fill="#e98535"/>
        <path id="Trazado_259004" data-name="Trazado 259004" d="M137.3,112.643l-6.169-3.561a4.65,4.65,0,0,0-4.218,0L115.6,115.653a1.475,1.475,0,0,0-.865,1.217v0l-.007,2.651a1.5,1.5,0,0,0,.884,1.232l6.168,3.561a4.649,4.649,0,0,0,4.215,0l11.311-6.575a1.476,1.476,0,0,0,.866-1.212l.007-2.651a1.083,1.083,0,0,1-.03.184,1.385,1.385,0,0,0-.849-1.413" transform="translate(21.745 20.579)" fill="#e98535"/>
        <path id="Trazado_259005" data-name="Trazado 259005" d="M121.949,121.564,115.78,118a4.652,4.652,0,0,0-4.223,0l-11.307,6.571a1.48,1.48,0,0,0-.868,1.219v0l-.007,2.65a1.494,1.494,0,0,0,.883,1.232l6.168,3.561a4.652,4.652,0,0,0,4.219,0l11.308-6.572a1.483,1.483,0,0,0,.868-1.215l.008-2.651a.972.972,0,0,1-.031.182,1.382,1.382,0,0,0-.848-1.411" transform="translate(18.835 22.27)" fill="#e98535"/>
        <path id="Trazado_259006" data-name="Trazado 259006" d="M106.594,130.487l-6.169-3.561a4.652,4.652,0,0,0-4.223,0L84.9,133.5a1.482,1.482,0,0,0-.868,1.219v0l-.007,2.651A1.5,1.5,0,0,0,84.9,138.6l6.169,3.561a4.649,4.649,0,0,0,4.218,0l11.308-6.571a1.484,1.484,0,0,0,.868-1.216l.008-2.651a1,1,0,0,1-.031.184,1.382,1.382,0,0,0-.848-1.413" transform="translate(15.925 23.961)" fill="#e98535"/>
        <path id="Trazado_259007" data-name="Trazado 259007" d="M108.369,78.152a1.291,1.291,0,0,1,.018,2.443L97.075,87.17a4.652,4.652,0,0,1-4.219,0l-6.168-3.561a1.291,1.291,0,0,1-.014-2.442L97.985,74.59a4.649,4.649,0,0,1,4.215,0Z" transform="translate(16.264 14.042)" fill="#34559c"/>
        <path id="Trazado_259008" data-name="Trazado 259008" d="M93.014,87.075a1.291,1.291,0,0,1,.018,2.443L81.72,96.093a4.652,4.652,0,0,1-4.219,0l-6.168-3.561a1.29,1.29,0,0,1-.014-2.442L82.63,83.513a4.649,4.649,0,0,1,4.215,0Z" transform="translate(13.353 15.733)" fill="#34559c"/>
        <path id="Trazado_259009" data-name="Trazado 259009" d="M77.663,96a1.292,1.292,0,0,1,.014,2.446L66.37,105.013a4.645,4.645,0,0,1-4.223,0l-6.169-3.56a1.292,1.292,0,0,1-.01-2.445l11.308-6.571a4.65,4.65,0,0,1,4.218,0Z" transform="translate(10.443 17.424)" fill="#34559c"/>
        <path id="Trazado_259010" data-name="Trazado 259010" d="M62.308,104.92a1.292,1.292,0,0,1,.014,2.446l-11.308,6.571a4.645,4.645,0,0,1-4.223,0l-6.169-3.56a1.292,1.292,0,0,1-.01-2.445l11.308-6.571a4.65,4.65,0,0,1,4.218,0Z" transform="translate(7.533 19.115)" fill="#ea6c78"/>
        <path id="Trazado_259011" data-name="Trazado 259011" d="M119.441,84.545a1.29,1.29,0,0,1,.014,2.441l-11.312,6.575a4.649,4.649,0,0,1-4.215,0L97.761,90a1.292,1.292,0,0,1-.018-2.444l11.311-6.573a4.65,4.65,0,0,1,4.218,0Z" transform="translate(18.362 15.253)" fill="#34559c"/>
        <path id="Trazado_259012" data-name="Trazado 259012" d="M104.087,93.468a1.29,1.29,0,0,1,.013,2.441l-11.311,6.573a4.646,4.646,0,0,1-4.215,0l-6.168-3.561a1.292,1.292,0,0,1-.018-2.444L93.7,89.9a4.65,4.65,0,0,1,4.218,0Z" transform="translate(15.452 16.944)" fill="#f4b874"/>
        <path id="Trazado_259013" data-name="Trazado 259013" d="M88.737,102.389a1.291,1.291,0,0,1,.008,2.443L77.44,111.4a4.647,4.647,0,0,1-4.22,0l-6.169-3.56a1.293,1.293,0,0,1-.013-2.447l11.308-6.571a4.652,4.652,0,0,1,4.223,0Z" transform="translate(12.541 18.635)" fill="#f4b874"/>
        <path id="Trazado_259014" data-name="Trazado 259014" d="M73.382,111.313a1.291,1.291,0,0,1,.01,2.443l-11.307,6.571a4.645,4.645,0,0,1-4.219,0L51.7,116.77a1.293,1.293,0,0,1-.013-2.447l11.307-6.571a4.655,4.655,0,0,1,4.224,0Z" transform="translate(9.631 20.327)" fill="#f4b874"/>
        <path id="Trazado_259015" data-name="Trazado 259015" d="M130.511,90.936a1.29,1.29,0,0,1,.014,2.441L119.214,99.95a4.648,4.648,0,0,1-4.216,0L108.83,96.39a1.291,1.291,0,0,1-.014-2.442l11.311-6.573a4.649,4.649,0,0,1,4.215,0Z" transform="translate(20.461 16.465)" fill="#34559c"/>
        <path id="Trazado_259016" data-name="Trazado 259016" d="M115.156,99.859a1.29,1.29,0,0,1,.014,2.441l-11.312,6.573a4.642,4.642,0,0,1-4.215,0l-6.168-3.56a1.291,1.291,0,0,1-.014-2.442L104.772,96.3a4.649,4.649,0,0,1,4.215,0Z" transform="translate(17.55 18.156)" fill="#f4b874"/>
        <path id="Trazado_259017" data-name="Trazado 259017" d="M99.805,108.78a1.291,1.291,0,0,1,.01,2.443l-11.308,6.571a4.642,4.642,0,0,1-4.218,0l-6.169-3.56a1.292,1.292,0,0,1-.01-2.444l11.308-6.571a4.65,4.65,0,0,1,4.218,0Z" transform="translate(14.64 19.847)" fill="#f4b874"/>
        <path id="Trazado_259018" data-name="Trazado 259018" d="M84.45,117.7a1.291,1.291,0,0,1,.01,2.443l-11.308,6.572a4.65,4.65,0,0,1-4.218,0l-6.169-3.561a1.292,1.292,0,0,1-.01-2.444l11.308-6.571a4.65,4.65,0,0,1,4.218,0Z" transform="translate(11.73 21.538)" fill="#f4b874"/>
        <path id="Trazado_259019" data-name="Trazado 259019" d="M154.751,104.932a1.29,1.29,0,0,1,.014,2.441l-11.312,6.573a4.642,4.642,0,0,1-4.215,0L119.9,102.781a1.291,1.291,0,0,1-.014-2.442L131.2,93.765a4.652,4.652,0,0,1,4.216,0Z" transform="translate(22.559 17.676)" fill="#34559c"/>
        <path id="Trazado_259020" data-name="Trazado 259020" d="M126.225,106.25a1.291,1.291,0,0,1,.018,2.443l-11.311,6.573a4.645,4.645,0,0,1-4.219,0l-6.168-3.56a1.291,1.291,0,0,1-.014-2.442l11.311-6.573a4.652,4.652,0,0,1,4.216,0Z" transform="translate(19.648 19.367)" fill="#f4b874"/>
        <path id="Trazado_259021" data-name="Trazado 259021" d="M110.874,115.171a1.292,1.292,0,0,1,.014,2.446l-11.308,6.572a4.652,4.652,0,0,1-4.223,0l-6.169-3.561a1.292,1.292,0,0,1-.01-2.444l11.308-6.571a4.65,4.65,0,0,1,4.218,0Z" transform="translate(16.738 21.058)" fill="#f4b874"/>
        <path id="Trazado_259022" data-name="Trazado 259022" d="M95.519,124.094a1.292,1.292,0,0,1,.014,2.446l-11.308,6.572a4.652,4.652,0,0,1-4.223,0l-6.169-3.561a1.292,1.292,0,0,1-.01-2.444l11.308-6.571a4.65,4.65,0,0,1,4.218,0Z" transform="translate(13.828 22.75)" fill="#f4b874"/>
        <path id="Trazado_259023" data-name="Trazado 259023" d="M137.3,112.643a1.29,1.29,0,0,1,.014,2.441L126,121.658a4.645,4.645,0,0,1-4.216,0l-6.168-3.56a1.292,1.292,0,0,1-.018-2.444l11.311-6.573a4.652,4.652,0,0,1,4.219,0Z" transform="translate(21.746 20.579)" fill="#f4b874"/>
        <path id="Trazado_259024" data-name="Trazado 259024" d="M121.948,121.564a1.291,1.291,0,0,1,.01,2.443l-11.307,6.571a4.645,4.645,0,0,1-4.219,0l-6.169-3.56a1.293,1.293,0,0,1-.013-2.447L111.556,118a4.652,4.652,0,0,1,4.223,0Z" transform="translate(18.836 22.27)" fill="#f4b874"/>
        <path id="Trazado_259025" data-name="Trazado 259025" d="M106.593,130.487a1.291,1.291,0,0,1,.01,2.443L95.3,139.5a4.648,4.648,0,0,1-4.219,0l-6.169-3.561a1.293,1.293,0,0,1-.013-2.447L96.2,126.926a4.652,4.652,0,0,1,4.223,0Z" transform="translate(15.926 23.961)" fill="#f4b874"/>
        <path id="Trazado_259026" data-name="Trazado 259026" d="M64.947,114.326l-1.225.713-4.316-2.492-.017.01-.538.885-1.166-.429.764-1.218,1.052-.611Z" transform="translate(10.934 21.073)" fill="#fff"/>
        <path id="Trazado_259027" data-name="Trazado 259027" d="M81.531,104.781l-3.837,2.23-.773-.446.062-.772c.121-1.3.08-1.991-.539-2.367a1.646,1.646,0,0,0-1.684.059,1.426,1.426,0,0,0-.708.931l-1.268-.318a2.365,2.365,0,0,1,1.21-1.357,3.646,3.646,0,0,1,3.609-.114,2,2,0,0,1,.906,2.191l-.08.533.017.01,2.039-1.185Z" transform="translate(13.795 19.371)" fill="#fff"/>
        <path id="Trazado_259028" data-name="Trazado 259028" d="M95.272,94.933c.964.557.824,1.451-.551,2.249a5.744,5.744,0,0,1-1.991.71l-.7-.7a5.4,5.4,0,0,0,1.592-.534c.66-.384.671-.761.259-1a1.984,1.984,0,0,0-1.866.184l-.515.3-.915-.527.491-.285c.416-.252.8-.658.339-.924a1.4,1.4,0,0,0-1.374.134,2.046,2.046,0,0,0-.8.847l-1.182-.381a3.006,3.006,0,0,1,1.264-1.212,3.308,3.308,0,0,1,3.157-.261c.578.333.7.784.277,1.306l.017.01a3.012,3.012,0,0,1,2.5.084" transform="translate(16.691 17.673)" fill="#fff"/>
        <path id="Trazado_259029" data-name="Trazado 259029" d="M75.258,119.632l1.3.748-1.2.7-1.3-.748-2.4,1.393-.83-.479-1.273-3.106,1.548-.9,3.194,1.845.653-.379.955.552Zm-3.37.852,1.217-.708-1.209-.7c-.328-.19-.644-.391-.972-.609l-.033.019c.176.307.351.57.514.876l.466,1.11Z" transform="translate(13.184 22.22)" fill="#fff"/>
        <path id="Trazado_259030" data-name="Trazado 259030" d="M90.684,110.149c1.017.588,1.044,1.607-.413,2.453a6.015,6.015,0,0,1-1.814.7l-.728-.683a5.5,5.5,0,0,0,1.487-.557c.525-.3.833-.772.255-1.106s-1.347-.265-2.428.363a5.493,5.493,0,0,0-.68.453l-2.5-1.857,2.983-1.733,1.047.6-2.1,1.22.723.552a3.038,3.038,0,0,1,.334-.214,4.565,4.565,0,0,1,1.819-.6,3.247,3.247,0,0,1,2.019.406" transform="translate(15.894 20.504)" fill="#fff"/>
        <path id="Trazado_259031" data-name="Trazado 259031" d="M106.028,101.108c1.08.623,1.148,1.614-.029,2.3a4.59,4.59,0,0,1-4.525-.126c-1.022-.59-1.507-1.3-1.464-1.956a2.353,2.353,0,0,1,1.282-1.678,4.774,4.774,0,0,1,.5-.3l.98.566a4.344,4.344,0,0,0-.473.3c-1.028.708-.949,1.331-.458,1.782l.025-.014c-.006-.314.207-.626.715-.921a3.583,3.583,0,0,1,3.448.055m-2.955,1.64a2.125,2.125,0,0,0,1.971.125c.451-.262.324-.665-.228-.984a1.8,1.8,0,0,0-1.747-.071c-.343.2-.412.484-.265.717a.771.771,0,0,0,.27.213" transform="translate(18.955 18.829)" fill="#fff"/>
        <path id="Trazado_259032" data-name="Trazado 259032" d="M83.713,123.879l2.411,3.979-1.337.777-2.158-3.828-.017-.01-2.48,1.442-1.047-.6,3.822-2.221Z" transform="translate(14.99 23.391)" fill="#fff"/>
        <path id="Trazado_259033" data-name="Trazado 259033" d="M102.136,116.58c.988.571.831,1.432-.427,2.164a3.713,3.713,0,0,1-3.521.29c-.657-.379-.734-.859-.4-1.351l-.025-.014a2.939,2.939,0,0,1-1.977-.232c-.922-.533-.707-1.364.375-1.994a3.316,3.316,0,0,1,3.19-.232c.47.271.679.683.416,1.149l.021.012a3.232,3.232,0,0,1,2.348.208m-2.774,1.64a1.639,1.639,0,0,0,1.517-.014c.45-.262.447-.6.065-.823a2.163,2.163,0,0,0-1.747-.024c-.3.309-.24.626.15.852l.015.01m-2.425-1.5a2.017,2.017,0,0,0,1.5-.017.432.432,0,0,0-.149-.722,1.339,1.339,0,0,0-1.325,0c-.433.252-.374.545-.029.743" transform="translate(18.045 21.779)" fill="#fff"/>
        <path id="Trazado_259034" data-name="Trazado 259034" d="M116.116,110.344a5.685,5.685,0,0,1-.573.333l-1-.575a4.016,4.016,0,0,0,.548-.32,1.736,1.736,0,0,0,.728-.812.94.94,0,0,0-.32-.979l-.037.012c.01.283-.2.571-.686.856a3.569,3.569,0,0,1-3.391,0c-1.063-.614-1.115-1.624.079-2.316a4.45,4.45,0,0,1,4.393.165c1.13.652,1.606,1.338,1.556,2a2.363,2.363,0,0,1-1.3,1.64m-3.54-2.264a1.674,1.674,0,0,0,1.639.057c.343-.2.413-.437.337-.614a.544.544,0,0,0-.25-.225,2.036,2.036,0,0,0-1.939-.2c-.427.249-.366.649.192.972l.021.012" transform="translate(20.959 20.097)" fill="#fff"/>
        <path id="Trazado_259035" data-name="Trazado 259035" d="M138.31,101.107l-2.2,1.275,2.33,1.347-1.031.6-2.33-1.345-2.2,1.278-.992-.573,2.2-1.278-2.309-1.333,1.031-.6,2.31,1.333,2.195-1.276Z" transform="translate(24.977 19.044)" fill="#fff"/>
        <path id="Trazado_259036" data-name="Trazado 259036" d="M121.608,91.466l-5.427,3.153-.843-.487,5.427-3.153Z" transform="translate(21.861 17.244)" fill="#fff"/>
        <path id="Trazado_259037" data-name="Trazado 259037" d="M111.3,86.17l.012.642-3.241-.021.048,1.878-1.113,0-.044-1.881-3.241-.017-.017-.64,3.255.019-.044-1.885,1.1.01.044,1.876Z" transform="translate(19.656 15.971)" fill="#fff"/>
        <path id="Trazado_259038" data-name="Trazado 259038" d="M95.415,78.708c.362.208.379.487,0,.705a1.251,1.251,0,0,1-1.217,0c-.387-.224-.384-.509-.025-.717a1.265,1.265,0,0,1,1.238.012" transform="translate(17.799 14.886)" fill="#fff"/>
        <path id="Trazado_259039" data-name="Trazado 259039" d="M97.885,80.134c.37.214.388.491.012.71a1.255,1.255,0,0,1-1.225,0c-.378-.219-.371-.5-.012-.71a1.255,1.255,0,0,1,1.225,0" transform="translate(18.269 15.158)" fill="#fff"/>
        <path id="Trazado_259040" data-name="Trazado 259040" d="M93.758,80.946l4.3-2.5.79.456-4.3,2.5Z" transform="translate(17.771 14.869)" fill="#fff"/>
        <path id="Trazado_259041" data-name="Trazado 259041" d="M81.97,89.338c-.972-.561-1.117-1.329-.193-1.866a3.125,3.125,0,0,1,3.073.087c1.138.657,1.023,1.418.238,1.874a3.268,3.268,0,0,1-3.118-.094m2-1.2a1.611,1.611,0,0,0-1.513-.257c-.383.224-.112.571.432.885l.036.021a1.617,1.617,0,0,0,1.494.226c.358-.209.162-.523-.448-.876" transform="translate(15.382 16.51)" fill="#fff"/>
        <path id="Trazado_259042" data-name="Trazado 259042" d="M79.814,86.356l2.517,5.063-.673.391-2.524-5.058Z" transform="translate(14.999 16.368)" fill="#fff"/>
        <path id="Trazado_259043" data-name="Trazado 259043" d="M79.671,88.364c1.142.659,1.022,1.417.238,1.872a3.231,3.231,0,0,1-3.114-.09c-.975-.564-1.121-1.331-.2-1.869a3.122,3.122,0,0,1,3.073.087M77.7,89.577a1.677,1.677,0,0,0,1.542.245c.359-.209.163-.523-.452-.878a1.62,1.62,0,0,0-1.521-.252c-.375.218-.112.571.432.885" transform="translate(14.401 16.663)" fill="#fff"/>
        <path id="Trazado_259044" data-name="Trazado 259044" d="M72.669,97.306l-3.578,2.079-5.649-3.262L66.9,94.112l1.047.6L65.76,95.989l1.175.679L69,95.467l1.038.6-2.067,1.2,1.342.774L71.622,96.7Z" transform="translate(12.024 17.838)" fill="#fff"/>
        <path id="Trazado_259045" data-name="Trazado 259045" d="M63.411,96.255l.758.734a4.756,4.756,0,0,0-1.276.5c-1.008.585-1.176,1.392.082,2.117a3.618,3.618,0,0,0,3.64.023,3.115,3.115,0,0,0,.873-.724l1.187.465a3.485,3.485,0,0,1-1.2.978,5.774,5.774,0,0,1-5.763.077c-1.927-1.113-1.633-2.525.063-3.512a5.667,5.667,0,0,1,1.632-.659" transform="translate(11.445 18.244)" fill="#fff"/>
        <path id="Trazado_259046" data-name="Trazado 259046" d="M49.886,104.116l.753.736a4.7,4.7,0,0,0-1.272.5c-1.008.585-1.18,1.394.079,2.12a3.624,3.624,0,0,0,3.644.02,3.053,3.053,0,0,0,.868-.722l1.192.463a3.533,3.533,0,0,1-1.2.978,5.775,5.775,0,0,1-5.767.08c-1.927-1.113-1.633-2.525.067-3.514a5.716,5.716,0,0,1,1.632-.659" transform="translate(8.881 19.734)" fill="#fff"/>
        <path id="Trazado_259047" data-name="Trazado 259047" d="M96.635,131.2c1.687.973,2.169,2.031.786,2.835-1.4.812-3.276.441-4.83-.446-1.575-.909-2.16-2.017-.761-2.83,1.449-.842,3.314-.42,4.8.441m-2.723,1.678c1.217.7,2.095.861,2.579.58s.14-.8-1.1-1.515c-1.205-.7-2.1-.914-2.612-.619-.46.266-.193.787,1.037,1.5l.048.027.05.029" transform="translate(17.255 24.696)" fill="#fff"/>
        <path id="Trazado_259048" data-name="Trazado 259048" d="M121.9,115.051l4.3-2.5.777.448-4.3,2.5Z" transform="translate(23.105 21.333)" fill="#fff"/>
        <path id="Trazado_259049" data-name="Trazado 259049" d="M127.655,113.4l.782.451-4.3,2.5-.78-.451Z" transform="translate(23.381 21.493)" fill="#fff"/>
        <path id="Trazado_259050" data-name="Trazado 259050" d="M110.332,122.807c.445.257.471.621.021.883a1.6,1.6,0,0,1-1.515-.014c-.453-.262-.467-.628-.025-.885a1.568,1.568,0,0,1,1.519.017" transform="translate(20.563 23.237)" fill="#fff"/>
        <path id="Trazado_259051" data-name="Trazado 259051" d="M51.668,82.395l.965.027.062-.638,2.052-1.219-3.161-2.324L49.534,79.46l-.965-.027-.062.638L46.456,81.29l-.965-.027.062-.636,5.13-3.05.965.027.965.027,3.161,2.324-.062.638.965.027,3.159,2.324-.062.638-.061.636-5.132,3.05-.964-.027.061-.638,2.053-1.219.965.027.061-.638,2.053-1.219-3.161-2.326L53.6,82.45l-.965-.027-.062.636-2.052,1.22-.965-.027.062-.638Z" transform="translate(8.622 14.703)" fill="#282752"/>
        <path id="Trazado_259052" data-name="Trazado 259052" d="M59.4,73l-.062.636-2.052,1.22-.965-.027-.062.636-2.052,1.22,3.161,2.324,2.052-1.22.965.027.062-.636,2.052-1.22.965.027.965.027,3.159,2.326-.062.636-.061.638-5.132,3.049-.964-.027-.965-.027-3.161-2.324.062-.636-.965-.027L53.182,77.3l.062-.636.062-.638,5.13-3.049Zm.923,5.455-2.052,1.219L61.431,82l2.053-1.22.964.027.062-.636,2.053-1.22L63.4,76.628l-2.052,1.219-.965-.027Z" transform="translate(10.08 13.831)" fill="#282752"/>
        <path id="Trazado_259053" data-name="Trazado 259053" d="M67.154,73.191l.965.027.062-.638,2.052-1.219-3.161-2.324L65.02,70.256l-.965-.027-.062.638-2.052,1.219-.965-.027.062-.636,5.13-3.05.965.027.965.027,3.161,2.324-.062.638-.062.636-2.052,1.22-.965-.027-.062.636-2.052,1.22L69.165,77.4l2.053-1.219.965.027.061-.638L74.3,74.351l.964.027-.061.636-5.132,3.05-.964-.027-.965-.027-3.161-2.324.062-.638.062-.638Z" transform="translate(11.557 12.959)" fill="#282752"/>
        <path id="Trazado_259054" data-name="Trazado 259054" d="M68.668,68.094l.062-.636.062-.638,5.13-3.049.965.027.965.026,3.159,2.326-.061.636-.965-.027L75.728,65.1l.718,2.575-.514.306-.9-.665-.717-2.575-1.539.915-.965-.027-.062.638-2.052,1.22,3.161,2.324-.062.636-.965-.027Zm4.063,2.989.062-.638.965.027,2.257,1.661L75.3,69.558l.513-.3.9.664.718,2.575,1.538-.915.965.027L80,70.969l2.053-1.22-3.161-2.324.062-.638.964.027,3.161,2.324-.062.638-.062.636-5.13,3.05-.965-.027-.964-.027Z" transform="translate(13.015 12.087)" fill="#282752"/>
        <path id="Trazado_259055" data-name="Trazado 259055" d="M51.668,82.395l.965.027.062-.638,2.052-1.219-3.161-2.324L49.534,79.46l-.965-.027-.062.638L46.456,81.29l-.965-.027.062-.636,5.13-3.05.965.027.965.027,3.161,2.324-.062.638.965.027,3.159,2.324-.062.638-.061.636-5.132,3.05-.964-.027.061-.638,2.053-1.219.965.027.061-.638,2.053-1.219-3.161-2.326L53.6,82.45l-.965-.027-.062.636-2.052,1.22-.965-.027.062-.638Z" transform="translate(8.622 14.703)" fill="#282752"/>
        <path id="Trazado_259056" data-name="Trazado 259056" d="M59.4,73l-.062.636-2.052,1.22-.965-.027-.062.636-2.052,1.22,3.161,2.324,2.052-1.22.965.027.062-.636,2.052-1.22.965.027.965.027,3.159,2.326-.062.636-.061.638-5.132,3.049-.964-.027-.965-.027-3.161-2.324.062-.636-.965-.027L53.182,77.3l.062-.636.062-.638,5.13-3.049Zm.923,5.455-2.052,1.219L61.431,82l2.053-1.22.964.027.062-.636,2.053-1.22L63.4,76.628l-2.052,1.219-.965-.027Z" transform="translate(10.08 13.831)" fill="#282752"/>
        <path id="Trazado_259057" data-name="Trazado 259057" d="M67.154,73.191l.965.027.062-.638,2.052-1.219-3.161-2.324L65.02,70.256l-.965-.027-.062.638-2.052,1.219-.965-.027.062-.636,5.13-3.05.965.027.965.027,3.161,2.324-.062.638-.062.636-2.052,1.22-.965-.027-.062.636-2.052,1.22L69.165,77.4l2.053-1.219.965.027.061-.638L74.3,74.351l.964.027-.061.636-5.132,3.05-.964-.027-.965-.027-3.161-2.324.062-.638.062-.638Z" transform="translate(11.557 12.959)" fill="#282752"/>
        <path id="Trazado_259058" data-name="Trazado 259058" d="M68.668,68.094l.062-.636.062-.638,5.13-3.049.965.027.965.026,3.159,2.326-.061.636-.965-.027L75.728,65.1l.718,2.575-.514.306-.9-.665-.717-2.575-1.539.915-.965-.027-.062.638-2.052,1.22,3.161,2.324-.062.636-.965-.027Zm4.063,2.989.062-.638.965.027,2.257,1.661L75.3,69.558l.513-.3.9.664.718,2.575,1.538-.915.965.027L80,70.969l2.053-1.22-3.161-2.324.062-.638.964.027,3.161,2.324-.062.638-.062.636-5.13,3.05-.965-.027-.964-.027Z" transform="translate(13.015 12.087)" fill="#282752"/>
        <path id="Trazado_259059" data-name="Trazado 259059" d="M163.344,10.431s2.364,13.181,6.663,14.4a8.55,8.55,0,0,0,7.243-1.046l5.056-3.5s.144-.752.335-1.845a70.756,70.756,0,0,0,1.025-7.6,1.457,1.457,0,0,0,.006-.157,14.21,14.21,0,0,0-.191-2.283c-.573-3.444-2.747-8.63-10.742-8.1-7.933.533-9.218,6.3-9.395,8.891a9.8,9.8,0,0,0,0,1.243" transform="translate(30.956 0.049)" fill="#ffb2a3"/>
        <path id="Trazado_259060" data-name="Trazado 259060" d="M180.182,12.908,184.869,22c-4.856.276-8.5,2.311-11.91,5.839l-2.7-9.134Z" transform="translate(32.27 2.447)" fill="#ffb2a3"/>
        <path id="Trazado_259061" data-name="Trazado 259061" d="M163.446,9.785c.362.266,1.187-.083,1.576.218,1.633,1.243,1.322,4.563,1.869,6.3a4.163,4.163,0,0,1,2.378,2.5c1.011,2.029,3.19,3.984,5.568,3.765s8.487-3.674,8.5-3.74c-.075-1.538.647-5.136.545-7.945-.02-.807-.082-1.626-.184-2.44C183.126,5,180.753.106,172.741,0c-8.316-.108-12.991,8.425-9.3,9.784" transform="translate(30.736 0)" fill="#282752"/>
        <path id="Trazado_259062" data-name="Trazado 259062" d="M166.953,15.154c0-.839-.419-2.389.684-2.678,1.22-.32,2.01,1.236,2.159,2.2.115.761.375,2.31-.024,3.019-.462.818-1.4.658-1.989.058a3.7,3.7,0,0,1-.83-2.6" transform="translate(31.629 2.357)" fill="#ffb2a3"/>
        <path id="Trazado_259063" data-name="Trazado 259063" d="M200.774,33.364l-.883,11.291c-.393,3.157-1.64,5.128-3.28,6.352-2.788,2.107-6.727,2.047-9.585,2.144a16.129,16.129,0,0,0-2.144.172l-.87-12.86,5.06-24.633c8.77-.284,11.616,7.335,11.7,17.534" transform="translate(34.877 2.999)" fill="#419e83"/>
        <g id="Grupo_877497" data-name="Grupo 877497" transform="translate(221.904 35.925)" style="mix-blend-mode: multiply;isolation: isolate">
          <g id="Grupo_877496" data-name="Grupo 877496">
            <g id="Grupo_877495" data-name="Grupo 877495" clip-path="url(#clip-path-4)">
              <path id="Trazado_259064" data-name="Trazado 259064" d="M196.131,48.283c-2.788,2.1-6.727,2.047-9.585,2.142V43.154L195.723,30.2Z" transform="translate(-186.547 -30.201)" fill="#e3ccb3"/>
            </g>
          </g>
        </g>
        <path id="Trazado_259065" data-name="Trazado 259065" d="M173.233,125.316c-4.985,1.036-5.787,4.92-3.886,8.291l5.613,7.946c2.107,3.661,4.937,5.38,8.637,4.761,3.325-1.372,3.774-3.561,2.85-6.143l-.186-5.512-3.356-10.206Z" transform="translate(31.918 23.588)" fill="#282752"/>
        <path id="Trazado_259066" data-name="Trazado 259066" d="M188.048,147.233c-1.633,5.554-10.469,5.354-11.177-2.073L173.82,124.4c0-.017-1.628-9.014-1.628-9.014l-5.93-20.428-1.285-5.347,4.19-25.8L191.141,62.8s-4.545,45.331-4.562,47.1a173.812,173.812,0,0,1,1.469,37.33" transform="translate(31.269 11.903)" fill="#34559c"/>
        <g id="Grupo_877500" data-name="Grupo 877500" transform="translate(196.246 74.702)" opacity="0.5" style="mix-blend-mode: multiply;isolation: isolate">
          <g id="Grupo_877499" data-name="Grupo 877499">
            <g id="Grupo_877498" data-name="Grupo 877498" clip-path="url(#clip-path-5)">
              <path id="Trazado_259067" data-name="Trazado 259067" d="M188.048,147.233c-1.633,5.554-10.469,5.354-11.177-2.073L173.82,124.4c0-.017-1.628-9.014-1.628-9.014l-5.93-20.428-1.285-5.347,4.19-25.8L191.141,62.8s-4.545,45.331-4.562,47.1a173.812,173.812,0,0,1,1.469,37.33" transform="translate(-164.977 -62.8)" fill="#25435c"/>
            </g>
          </g>
        </g>
        <path id="Trazado_259068" data-name="Trazado 259068" d="M176.572,141.912c1.989,3.353,1.074,8.952-.1,11.489-3.469,1.3-6.374,1.563-8.393.182-6.556-.393-10.224.483-13.6-.476-3.586-1.019-6.032-2.1-7.869-5.682a3.878,3.878,0,0,1,3.188-5.041c5.447-.224,10.338-.669,13-2l4.651-8.5,8.445,6.658Z" transform="translate(27.747 24.996)" fill="#282752"/>
        <path id="Trazado_259069" data-name="Trazado 259069" d="M174.433,90.8c-.244,2.164-3.051,20.159-2.985,21.435,4.782,14.745,3.051,31.066,4.294,44.835-4.172,3.13-14.213,3.695-15.178-1.9l-2.23-17.021c-.011-.111-.044-.344-.044-.344l-.077-.61-.854-6.613-2.563-16.21c-1.831-13.869,1.065-40.342,1.831-51.725L178.284,60.1a.664.664,0,0,0,.021.3.961.961,0,0,0,.045.167c.865,2.851,13.824,3.939,13.969,6.935.277,6.134-1.166,16.675-17.753,23.244-.044.023-.089.033-.133.056" transform="translate(29.226 11.391)" fill="#34559c"/>
        <g id="Grupo_877503" data-name="Grupo 877503" transform="translate(183.424 71.49)" opacity="0.5" style="mix-blend-mode: multiply;isolation: isolate">
          <g id="Grupo_877502" data-name="Grupo 877502">
            <g id="Grupo_877501" data-name="Grupo 877501" clip-path="url(#clip-path-6)">
              <path id="Trazado_259070" data-name="Trazado 259070" d="M174.566,90.744c-.077,0-.123.023-.133.056-6.2,2.252-11.594,5.247-14.057,10.851-1.876,30.212-2.32,30.212-2.042,36.447-.011-.056-.044-.289-.044-.289l-.077-.61-.854-6.613-2.563-16.21c-1.831-13.869,1.065-40.342,1.831-51.726L178.284,60.1a.665.665,0,0,0,.021.3.961.961,0,0,0,.045.167c.865,2.851,13.824,3.939,13.969,6.934.277,6.136-1.166,16.676-17.753,23.245" transform="translate(-154.198 -60.099)" fill="#25435c"/>
            </g>
          </g>
        </g>
        <path id="Trazado_259071" data-name="Trazado 259071" d="M193.269,59.111c-.335,1.734.1,4.928.654,7.831a10.393,10.393,0,0,1-5.039,10.984c-8.039,4.6-18.682,6.8-26.039,3.473a13.537,13.537,0,0,1-5.1-3.935,10.369,10.369,0,0,1-2.163-6.655,93.653,93.653,0,0,1,4.491-27.621,30.6,30.6,0,0,1,5.387-10.169L180.933,22.69c5.455-3.374,7.626-5.392,12.676-6.851,7.557-.617,10.238,11.719,6.811,22.147,0,0-6.434,17.434-7.15,21.125" transform="translate(29.488 2.998)" fill="#419e83"/>
        <g id="Grupo_877506" data-name="Grupo 877506" transform="translate(185.068 46.186)" style="mix-blend-mode: multiply;isolation: isolate">
          <g id="Grupo_877505" data-name="Grupo 877505">
            <g id="Grupo_877504" data-name="Grupo 877504" clip-path="url(#clip-path-7)">
              <path id="Trazado_259072" data-name="Trazado 259072" d="M171.4,42.516c-6.3,8.152-11.849,17.937-8.554,34.522a13.535,13.535,0,0,1-5.046-3.866,10.505,10.505,0,0,1-2.216-6.812,93.613,93.613,0,0,1,4.488-27.533Z" transform="translate(-155.58 -38.827)" fill="#e3ccb3"/>
            </g>
          </g>
        </g>
        <path id="Trazado_259073" data-name="Trazado 259073" d="M170.364,27.724l1.821-3.914c4.385-2.477,8.75-4.947,10.544-6.74l2.5,1.413c-1.25,3.615-7.446,7.284-14.866,9.24" transform="translate(32.29 3.236)" fill="#3a7e5c"/>
        <path id="Trazado_259074" data-name="Trazado 259074" d="M143.7,21.512l-2.452.7,2.75.636a.622.622,0,0,1,.629.5.8.8,0,0,1-.533.923.905.905,0,0,1-.353.062l-2.455-.027,1.187,2.122,1.078,1.946c1.18,2.356,1.383,5.6,1.316,8.7l2.22,5.6-.625-.419-5.729-3.033-4.613-9.363-.511-2.006-.582-2.239,1.4-3.4,3.308-1.741,3.648-.39c1.134,0,1.231,1.179.32,1.425" transform="translate(25.592 3.807)" fill="#ffb2a3"/>
        <path id="Trazado_259075" data-name="Trazado 259075" d="M131.865,10.447l7.651,18.079,3.953,14.295s17.153-8.829,17.405-8.913-3.532-13.875-3.532-13.875L151.12,3.271Z" transform="translate(24.993 0.62)" fill="#fff"/>
        <path id="Trazado_259076" data-name="Trazado 259076" d="M138.954,28.1l2.285-1.368.916-2.69c.337-.921,1.555-.715,1.362.765l-.378,3.3-.645,4.6,2.6,5.025-.931,3.684-2.141-.616Z" transform="translate(26.337 4.452)" fill="#ffb2a3"/>
        <path id="Trazado_259077" data-name="Trazado 259077" d="M168.64,30.469,152.621,46.04l-8.914-12.257c-2.173-1.3-5.435,1.684-4.837,4.294,0,0,4.485,11.211,8.371,20.845,2.929,7.262,11.333-.653,11.333-.653L172.317,46.45c7.389-4.962,7.059-21.769-3.677-15.981" transform="translate(26.307 5.548)" fill="#419e83"/>
      </g>
    </g>
  </g>
</svg>
