<svg xmlns="http://www.w3.org/2000/svg" xmlns:xlink="http://www.w3.org/1999/xlink" width="371.098" height="418.177" viewBox="0 0 371.098 418.177">
  <defs>
    <clipPath id="clip-path">
      <rect id="Rectángulo_293744" data-name="Rectángulo 293744" width="371.098" height="418.177" fill="none"/>
    </clipPath>
    <clipPath id="clip-path-3">
      <rect id="Rectángulo_293735" data-name="Rectángulo 293735" width="232.799" height="134.666" fill="none"/>
    </clipPath>
    <clipPath id="clip-path-4">
      <rect id="Rectángulo_293736" data-name="Rectángulo 293736" width="100.44" height="68.571" fill="none"/>
    </clipPath>
    <clipPath id="clip-path-6">
      <rect id="Rectángulo_293738" data-name="Rectángulo 293738" width="17.218" height="19.21" fill="none"/>
    </clipPath>
    <clipPath id="clip-path-7">
      <rect id="Rectángulo_293739" data-name="Rectángulo 293739" width="47.153" height="18.253" fill="none"/>
    </clipPath>
    <clipPath id="clip-path-8">
      <rect id="Rectángulo_293740" data-name="Rectángulo 293740" width="26.678" height="164.712" fill="none"/>
    </clipPath>
    <clipPath id="clip-path-9">
      <rect id="Rectángulo_293741" data-name="Rectángulo 293741" width="62.664" height="67.034" fill="none"/>
    </clipPath>
    <clipPath id="clip-path-10">
      <rect id="Rectángulo_293742" data-name="Rectángulo 293742" width="20.239" height="21.9" fill="none"/>
    </clipPath>
  </defs>
  <g id="Grupo_877491" data-name="Grupo 877491" transform="translate(0 0)">
    <g id="Grupo_877489" data-name="Grupo 877489" transform="translate(0 0)" clip-path="url(#clip-path)">
      <g id="Grupo_877471" data-name="Grupo 877471">
        <g id="Grupo_877470" data-name="Grupo 877470" clip-path="url(#clip-path)">
          <g id="Grupo_877466" data-name="Grupo 877466" transform="translate(0 277.297)" opacity="0.5" style="mix-blend-mode: multiply;isolation: isolate">
            <g id="Grupo_877465" data-name="Grupo 877465">
              <g id="Grupo_877464" data-name="Grupo 877464" clip-path="url(#clip-path-3)">
                <path id="Trazado_258730" data-name="Trazado 258730" d="M66.637,173.869l163.508,94.407L299.435,228l-108.09-62.4-55.432-32L126.7,138.97l-7.976,4.628-6.247,3.632Z" transform="translate(-66.637 -133.61)" fill="#8196b3"/>
              </g>
            </g>
          </g>
          <g id="Grupo_877469" data-name="Grupo 877469" transform="translate(270.658 349.606)" opacity="0.5" style="mix-blend-mode: multiply;isolation: isolate">
            <g id="Grupo_877468" data-name="Grupo 877468" transform="translate(0)">
              <g id="Grupo_877467" data-name="Grupo 877467" clip-path="url(#clip-path-4)">
                <path id="Trazado_258731" data-name="Trazado 258731" d="M5.587,197.734,47.337,230.7c9.512,7.511,27.858,8.459,40.979,2.117s16.049-17.573,6.538-25.084L53.1,174.767c-9.512-7.511-27.858-8.459-40.979-2.117s-16.049,17.573-6.538,25.084" transform="translate(0 -168.451)" fill="#8196b3"/>
              </g>
            </g>
          </g>
        </g>
      </g>
      <path id="Trazado_258732" data-name="Trazado 258732" d="M71.864,204.608l62.578-36.366-.046,16.1L71.818,220.711Z" transform="translate(87.602 180.932)" fill="#9aa651"/>
      <path id="Trazado_258733" data-name="Trazado 258733" d="M71.819,163.524,134.4,127.158l147.685,85.265L219.5,248.791Z" transform="translate(-60.038 136.749)" fill="#b8ca62"/>
      <path id="Trazado_258734" data-name="Trazado 258734" d="M81.3,157.588l42.911-24.936L252.2,206.545,209.29,231.482Z" transform="translate(-49.838 142.657)" fill="#a2d96a"/>
      <path id="Trazado_258735" data-name="Trazado 258735" d="M249.7,229.947l-.046,16.1L101.97,160.783l.048-16.1Z" transform="translate(-90.237 155.593)" fill="#747d3d"/>
      <g id="Grupo_877488" data-name="Grupo 877488">
        <g id="Grupo_877487" data-name="Grupo 877487" clip-path="url(#clip-path)">
          <path id="Trazado_258736" data-name="Trazado 258736" d="M169.731,149.176c10.441,6.027,6.558,18.044-8.673,26.837s-36.042,11.035-46.483,5.008-6.558-18.044,8.673-26.837,36.042-11.037,46.483-5.008" transform="translate(-30.119 156.788)" fill="#b8ca62"/>
          <path id="Trazado_258737" data-name="Trazado 258737" d="M194.724,159.267l-62.586,36.359-20.559-11.861-2.968-1.716c-.015,0-5.969-3.447-5.969-3.447l62.586-36.372,5.969,3.445,2.968,1.716Z" transform="translate(-36.652 152.958)" fill="#f3f2f2"/>
          <path id="Trazado_258738" data-name="Trazado 258738" d="M162.338,176.779l-.046,16.114-20.513-11.847-2.982-1.731-6-3.462.044-16.1L138.8,163.2c.015,0,2.982,1.716,2.982,1.716Z" transform="translate(-66.851 171.805)" fill="#eedfcf"/>
          <path id="Trazado_258739" data-name="Trazado 258739" d="M179,145.1,116.413,181.47V197.6l-2.984-1.731V179.754c.017,0,62.6-36.372,62.6-36.372Z" transform="translate(-43.315 154.196)" fill="#ea6c78"/>
          <path id="Trazado_258740" data-name="Trazado 258740" d="M146.569,162.623v16.128l-2.984-1.731V160.907c.017,0,2.984,1.716,2.984,1.716" transform="translate(-73.471 173.043)" fill="#bf343b"/>
          <path id="Trazado_258741" data-name="Trazado 258741" d="M170.389,150.069,107.8,186.443v16.126l-2.984-1.729V184.727c.017,0,62.6-36.374,62.6-36.374Z" transform="translate(-16.833 159.542)" fill="#ea6c78"/>
          <path id="Trazado_258742" data-name="Trazado 258742" d="M137.957,167.6v16.128l-2.984-1.731V165.879c.017,0,2.984,1.716,2.984,1.716" transform="translate(-46.985 178.39)" fill="#bf343b"/>
          <path id="Trazado_258743" data-name="Trazado 258743" d="M113.619,162.091c3.5,2.019,3.5,5.294,0,7.314a13.994,13.994,0,0,1-12.67,0c-3.5-2.019-3.5-5.294,0-7.314a14.007,14.007,0,0,1,12.67,0" transform="translate(50.789 172.688)" fill="#b8ca62"/>
          <path id="Trazado_258744" data-name="Trazado 258744" d="M150.892,143.745c3.5,2.019,3.5,5.294,0,7.316a14.007,14.007,0,0,1-12.67,0c-3.5-2.021-3.5-5.3,0-7.316a14.007,14.007,0,0,1,12.67,0" transform="translate(-63.841 152.958)" fill="#b8ca62"/>
          <path id="Trazado_258745" data-name="Trazado 258745" d="M99.3,164.142l30.426,17.566,4.724-2.727-30.426-17.566Z" transform="translate(30.553 173.59)" fill="#b8ca62"/>
          <path id="Trazado_258746" data-name="Trazado 258746" d="M104.818,166.254,128.8,180.1l3.723-2.15L108.541,164.1Z" transform="translate(21.031 176.481)" fill="#b8ca62"/>
          <path id="Trazado_258747" data-name="Trazado 258747" d="M69.993,196.8l62.578-36.366-.046,16.1L69.948,212.9Z" transform="translate(93.356 172.532)" fill="#9aa651"/>
          <path id="Trazado_258748" data-name="Trazado 258748" d="M69.948,155.714l62.578-36.366,147.685,85.267L217.633,240.98Z" transform="translate(-54.285 128.35)" fill="#b8ca62"/>
          <path id="Trazado_258749" data-name="Trazado 258749" d="M79.431,149.778l42.911-24.936L250.33,198.733l-42.911,24.938Z" transform="translate(-44.084 134.258)" fill="#a2d96a"/>
          <path id="Trazado_258750" data-name="Trazado 258750" d="M247.832,222.137l-.046,16.1L100.1,152.975l.048-16.105Z" transform="translate(-84.483 147.193)" fill="#747d3d"/>
          <path id="Trazado_258751" data-name="Trazado 258751" d="M167.86,141.365c10.441,6.029,6.558,18.044-8.673,26.837s-36.042,11.035-46.483,5.008-6.558-18.044,8.673-26.837,36.042-11.035,46.483-5.008" transform="translate(-24.365 148.389)" fill="#b8ca62"/>
          <path id="Trazado_258752" data-name="Trazado 258752" d="M192.853,151.457l-62.586,36.357-20.559-11.861-2.968-1.714c-.015,0-5.969-3.447-5.969-3.447l62.586-36.372,5.969,3.445,2.968,1.716Z" transform="translate(-30.898 144.559)" fill="#f3f2f2"/>
          <path id="Trazado_258753" data-name="Trazado 258753" d="M160.467,168.969l-.044,16.114-20.516-11.847-2.984-1.731-6-3.462.044-16.1,5.952,3.445c.017,0,2.984,1.716,2.984,1.716Z" transform="translate(-61.097 163.406)" fill="#eedfcf"/>
          <path id="Trazado_258754" data-name="Trazado 258754" d="M177.129,137.287l-62.586,36.374v16.128l-2.984-1.731V171.945c.015,0,62.6-36.374,62.6-36.374Z" transform="translate(-37.561 145.796)" fill="#ea6c78"/>
          <path id="Trazado_258755" data-name="Trazado 258755" d="M144.7,154.813v16.128l-2.984-1.731V153.1c.017,0,2.984,1.716,2.984,1.716" transform="translate(-67.717 164.644)" fill="#bf343b"/>
          <path id="Trazado_258756" data-name="Trazado 258756" d="M168.518,142.259l-62.586,36.374v16.128l-2.984-1.731V176.917c.015,0,62.6-36.374,62.6-36.374Z" transform="translate(-11.078 151.143)" fill="#ea6c78"/>
          <path id="Trazado_258757" data-name="Trazado 258757" d="M136.086,159.785v16.128l-2.984-1.731V158.069c.014,0,2.984,1.716,2.984,1.716" transform="translate(-41.231 169.991)" fill="#bf343b"/>
          <path id="Trazado_258758" data-name="Trazado 258758" d="M111.748,154.281c3.5,2.019,3.5,5.294,0,7.316a14.007,14.007,0,0,1-12.67,0c-3.5-2.021-3.5-5.3,0-7.316a14.007,14.007,0,0,1,12.67,0" transform="translate(56.544 164.289)" fill="#b8ca62"/>
          <path id="Trazado_258759" data-name="Trazado 258759" d="M149.021,135.935c3.5,2.019,3.5,5.294,0,7.316a14.007,14.007,0,0,1-12.67,0c-3.5-2.021-3.5-5.3,0-7.316a14.007,14.007,0,0,1,12.67,0" transform="translate(-58.087 144.559)" fill="#b8ca62"/>
          <path id="Trazado_258760" data-name="Trazado 258760" d="M97.431,156.332,127.857,173.9l4.724-2.727-30.426-17.566Z" transform="translate(36.307 165.191)" fill="#b8ca62"/>
          <path id="Trazado_258761" data-name="Trazado 258761" d="M102.947,158.444l23.984,13.847,3.723-2.15L106.67,156.294Z" transform="translate(26.785 168.082)" fill="#b8ca62"/>
          <path id="Trazado_258762" data-name="Trazado 258762" d="M71.864,186.709l62.578-36.366-.046,16.1L71.818,202.813Z" transform="translate(87.602 161.683)" fill="#9aa651"/>
          <path id="Trazado_258763" data-name="Trazado 258763" d="M71.816,145.624,219.5,230.893l62.582-36.376-97.628-56.354-50.065-28.9-8.32,4.84-7.2,4.182-5.643,3.279Z" transform="translate(-60.029 117.504)" fill="#b8ca62"/>
          <path id="Trazado_258764" data-name="Trazado 258764" d="M81.3,139.69l42.911-24.936L252.2,188.645l-42.909,24.94Z" transform="translate(-49.838 123.409)" fill="#eaf6a8"/>
          <path id="Trazado_258765" data-name="Trazado 258765" d="M249.7,212.049l-.046,16.1L101.97,142.885l.048-16.1Z" transform="translate(-90.237 136.344)" fill="#747d3d"/>
          <path id="Trazado_258766" data-name="Trazado 258766" d="M169.731,131.277c10.441,6.029,6.558,18.044-8.673,26.837s-36.042,11.035-46.483,5.008-6.558-18.044,8.673-26.837,36.042-11.035,46.483-5.008" transform="translate(-30.119 137.54)" fill="#b8ca62"/>
          <path id="Trazado_258767" data-name="Trazado 258767" d="M194.724,141.369l-62.586,36.357-20.559-11.861-2.968-1.714c-.015,0-5.969-3.447-5.969-3.447l62.586-36.372,5.969,3.445,2.968,1.716Z" transform="translate(-36.652 133.71)" fill="#f3f2f2"/>
          <path id="Trazado_258768" data-name="Trazado 258768" d="M162.338,158.88l-.046,16.114-20.513-11.847-2.982-1.731-6-3.462.044-16.1L138.8,145.3c.015,0,2.982,1.716,2.982,1.716Z" transform="translate(-66.851 152.556)" fill="#eedfcf"/>
          <path id="Trazado_258769" data-name="Trazado 258769" d="M179,127.2l-62.586,36.374V179.7l-2.984-1.729V161.857c.017,0,62.6-36.374,62.6-36.374Z" transform="translate(-43.315 134.947)" fill="#ea6c78"/>
          <path id="Trazado_258770" data-name="Trazado 258770" d="M146.569,144.724v16.128l-2.984-1.731V143.008c.017,0,2.984,1.716,2.984,1.716" transform="translate(-73.471 153.794)" fill="#bf343b"/>
          <path id="Trazado_258771" data-name="Trazado 258771" d="M170.389,132.171,107.8,168.545v16.126l-2.984-1.729V166.829c.017,0,62.6-36.374,62.6-36.374Z" transform="translate(-16.833 140.294)" fill="#ea6c78"/>
          <path id="Trazado_258772" data-name="Trazado 258772" d="M137.957,149.7v16.128l-2.984-1.731V147.98c.017,0,2.984,1.716,2.984,1.716" transform="translate(-46.985 159.141)" fill="#bf343b"/>
          <path id="Trazado_258773" data-name="Trazado 258773" d="M113.619,144.193c3.5,2.019,3.5,5.294,0,7.316a14.007,14.007,0,0,1-12.67,0c-3.5-2.021-3.5-5.3,0-7.316a14.007,14.007,0,0,1,12.67,0" transform="translate(50.789 153.44)" fill="#b8ca62"/>
          <path id="Trazado_258774" data-name="Trazado 258774" d="M150.892,125.847c3.5,2.019,3.5,5.294,0,7.314a13.994,13.994,0,0,1-12.67,0c-3.5-2.019-3.5-5.294,0-7.314a14.007,14.007,0,0,1,12.67,0" transform="translate(-63.841 133.71)" fill="#b8ca62"/>
          <path id="Trazado_258775" data-name="Trazado 258775" d="M99.3,146.244l30.426,17.566,4.724-2.727-30.426-17.566Z" transform="translate(30.553 154.341)" fill="#b8ca62"/>
          <path id="Trazado_258776" data-name="Trazado 258776" d="M104.818,148.356,128.8,162.2l3.723-2.15-23.984-13.847Z" transform="translate(21.031 157.233)" fill="#b8ca62"/>
          <path id="Trazado_258777" data-name="Trazado 258777" d="M71.864,177.245l62.578-36.366-.046,16.1L71.818,193.348Z" transform="translate(87.602 151.505)" fill="#9aa651"/>
          <path id="Trazado_258778" data-name="Trazado 258778" d="M71.819,136.161,134.4,99.8l147.685,85.267L219.5,221.428Z" transform="translate(-60.038 107.323)" fill="#b8ca62"/>
          <path id="Trazado_258779" data-name="Trazado 258779" d="M81.3,130.226l42.911-24.936L252.2,179.183,209.29,204.121Z" transform="translate(-49.838 113.231)" fill="#a2d96a"/>
          <path id="Trazado_258780" data-name="Trazado 258780" d="M249.7,202.584l-.046,16.1L101.97,133.423l.048-16.105Z" transform="translate(-90.237 126.166)" fill="#747d3d"/>
          <path id="Trazado_258781" data-name="Trazado 258781" d="M169.731,121.813c10.441,6.027,6.558,18.044-8.673,26.837s-36.042,11.035-46.483,5.008-6.558-18.044,8.673-26.837,36.042-11.037,46.483-5.008" transform="translate(-30.119 127.361)" fill="#b8ca62"/>
          <path id="Trazado_258782" data-name="Trazado 258782" d="M194.724,131.905l-62.586,36.359L111.579,156.4l-2.968-1.716c-.015,0-5.969-3.447-5.969-3.447l62.586-36.372,5.969,3.445,2.968,1.716Z" transform="translate(-36.652 123.532)" fill="#f3f2f2"/>
          <path id="Trazado_258783" data-name="Trazado 258783" d="M162.338,149.416l-.046,16.114-20.513-11.846-2.982-1.731-6-3.462.044-16.1,5.954,3.445c.015,0,2.982,1.716,2.982,1.716Z" transform="translate(-66.851 142.379)" fill="#eedfcf"/>
          <path id="Trazado_258784" data-name="Trazado 258784" d="M179,117.733l-62.586,36.374v16.128l-2.984-1.731V152.391c.017,0,62.6-36.372,62.6-36.372Z" transform="translate(-43.315 124.77)" fill="#ea6c78"/>
          <path id="Trazado_258785" data-name="Trazado 258785" d="M146.569,135.26v16.128l-2.984-1.731V133.544c.017,0,2.984,1.716,2.984,1.716" transform="translate(-73.471 143.616)" fill="#bf343b"/>
          <path id="Trazado_258786" data-name="Trazado 258786" d="M170.389,122.706,107.8,159.08v16.128l-2.984-1.731V157.364c.017,0,62.6-36.374,62.6-36.374Z" transform="translate(-16.833 130.116)" fill="#ea6c78"/>
          <path id="Trazado_258787" data-name="Trazado 258787" d="M137.957,140.232V156.36l-2.984-1.731V138.516c.017,0,2.984,1.716,2.984,1.716" transform="translate(-46.985 148.963)" fill="#bf343b"/>
          <path id="Trazado_258788" data-name="Trazado 258788" d="M113.619,134.73c3.5,2.019,3.5,5.294,0,7.314a13.994,13.994,0,0,1-12.67,0c-3.5-2.019-3.5-5.294,0-7.314a14,14,0,0,1,12.67,0" transform="translate(50.789 143.261)" fill="#b8ca62"/>
          <path id="Trazado_258789" data-name="Trazado 258789" d="M150.892,116.382c3.5,2.019,3.5,5.294,0,7.316a14.007,14.007,0,0,1-12.67,0c-3.5-2.021-3.5-5.3,0-7.316a14.007,14.007,0,0,1,12.67,0" transform="translate(-63.841 123.531)" fill="#b8ca62"/>
          <path id="Trazado_258790" data-name="Trazado 258790" d="M99.3,136.78l30.426,17.566,4.724-2.727-30.426-17.566Z" transform="translate(30.553 144.164)" fill="#b8ca62"/>
          <path id="Trazado_258791" data-name="Trazado 258791" d="M104.818,138.891,128.8,152.739l3.723-2.15-23.984-13.847Z" transform="translate(21.031 147.055)" fill="#b8ca62"/>
          <path id="Trazado_258792" data-name="Trazado 258792" d="M69.993,169.435l62.578-36.366-.046,16.1L69.948,185.538Z" transform="translate(93.356 143.106)" fill="#9aa651"/>
          <path id="Trazado_258793" data-name="Trazado 258793" d="M69.948,128.351l62.578-36.366L280.211,177.25l-62.578,36.368Z" transform="translate(-54.285 98.924)" fill="#b8ca62"/>
          <path id="Trazado_258794" data-name="Trazado 258794" d="M79.431,122.416l42.911-24.936L250.33,171.371l-42.911,24.938Z" transform="translate(-44.084 104.832)" fill="#a2d96a"/>
          <path id="Trazado_258795" data-name="Trazado 258795" d="M247.832,194.774l-.046,16.1L100.1,125.613l.048-16.105Z" transform="translate(-84.483 117.767)" fill="#747d3d"/>
          <path id="Trazado_258796" data-name="Trazado 258796" d="M167.86,114c10.441,6.029,6.558,18.044-8.673,26.837s-36.042,11.035-46.483,5.008-6.558-18.044,8.673-26.837S157.418,107.975,167.86,114" transform="translate(-24.365 118.962)" fill="#b8ca62"/>
          <path id="Trazado_258797" data-name="Trazado 258797" d="M192.853,124.1l-62.586,36.357-20.559-11.861-2.968-1.714c-.015,0-5.969-3.447-5.969-3.447l62.586-36.372,5.969,3.445,2.968,1.716Z" transform="translate(-30.898 115.133)" fill="#f3f2f2"/>
          <path id="Trazado_258798" data-name="Trazado 258798" d="M160.467,141.606l-.044,16.114-20.516-11.846-2.984-1.731-6-3.462.044-16.1,5.952,3.445c.017,0,2.984,1.716,2.984,1.716Z" transform="translate(-61.097 133.98)" fill="#eedfcf"/>
          <path id="Trazado_258799" data-name="Trazado 258799" d="M177.129,109.924,114.542,146.3v16.126l-2.984-1.729V144.582c.015,0,62.6-36.374,62.6-36.374Z" transform="translate(-37.561 116.369)" fill="#ea6c78"/>
          <path id="Trazado_258800" data-name="Trazado 258800" d="M144.7,127.45v16.128l-2.984-1.731V125.734c.017,0,2.984,1.716,2.984,1.716" transform="translate(-67.717 135.217)" fill="#bf343b"/>
          <path id="Trazado_258801" data-name="Trazado 258801" d="M168.518,114.9,105.931,151.27V167.4l-2.984-1.731V149.554c.015,0,62.6-36.374,62.6-36.374Z" transform="translate(-11.078 121.717)" fill="#ea6c78"/>
          <path id="Trazado_258802" data-name="Trazado 258802" d="M136.086,132.422v16.128L133.1,146.82V130.706c.014,0,2.984,1.716,2.984,1.716" transform="translate(-41.231 140.564)" fill="#bf343b"/>
          <path id="Trazado_258803" data-name="Trazado 258803" d="M111.748,126.919c3.5,2.019,3.5,5.294,0,7.316a14.007,14.007,0,0,1-12.67,0c-3.5-2.021-3.5-5.3,0-7.316a14.007,14.007,0,0,1,12.67,0" transform="translate(56.544 134.863)" fill="#b8ca62"/>
          <path id="Trazado_258804" data-name="Trazado 258804" d="M149.021,108.572c3.5,2.019,3.5,5.294,0,7.316a14.007,14.007,0,0,1-12.67,0c-3.5-2.021-3.5-5.3,0-7.316a14.007,14.007,0,0,1,12.67,0" transform="translate(-58.087 115.132)" fill="#b8ca62"/>
          <path id="Trazado_258805" data-name="Trazado 258805" d="M97.431,128.97l30.426,17.566,4.724-2.727-30.426-17.566Z" transform="translate(36.307 135.764)" fill="#b8ca62"/>
          <path id="Trazado_258806" data-name="Trazado 258806" d="M102.947,131.081l23.984,13.847,3.723-2.15L106.67,128.931Z" transform="translate(26.785 138.656)" fill="#b8ca62"/>
          <path id="Trazado_258807" data-name="Trazado 258807" d="M71.864,159.347l62.578-36.366-.046,16.1L71.818,175.45Z" transform="translate(87.602 132.257)" fill="#9aa651"/>
          <path id="Trazado_258808" data-name="Trazado 258808" d="M71.816,118.262,219.5,203.531l62.582-36.376L184.451,110.8,134.386,81.9l-8.32,4.84-7.2,4.182L113.218,94.2Z" transform="translate(-60.029 88.078)" fill="#b8ca62"/>
          <path id="Trazado_258809" data-name="Trazado 258809" d="M81.3,112.327l42.911-24.936L252.2,161.282l-42.909,24.94Z" transform="translate(-49.838 93.982)" fill="#eaf6a8"/>
          <path id="Trazado_258810" data-name="Trazado 258810" d="M249.7,184.686l-.046,16.1L101.97,115.525l.048-16.105Z" transform="translate(-90.237 106.918)" fill="#747d3d"/>
          <path id="Trazado_258811" data-name="Trazado 258811" d="M169.731,103.914c10.441,6.029,6.558,18.044-8.673,26.837s-36.042,11.035-46.483,5.008-6.558-18.044,8.673-26.837,36.042-11.035,46.483-5.008" transform="translate(-30.119 108.113)" fill="#b8ca62"/>
          <path id="Trazado_258812" data-name="Trazado 258812" d="M194.724,114.006l-62.586,36.359L111.579,138.5l-2.968-1.716c-.015,0-5.969-3.447-5.969-3.447l62.586-36.372,5.969,3.445,2.968,1.716Z" transform="translate(-36.652 104.283)" fill="#f3f2f2"/>
          <path id="Trazado_258813" data-name="Trazado 258813" d="M162.338,131.518l-.046,16.114-20.513-11.847-2.982-1.731-6-3.462.044-16.1,5.954,3.445c.015,0,2.982,1.716,2.982,1.716Z" transform="translate(-66.851 123.131)" fill="#eedfcf"/>
          <path id="Trazado_258814" data-name="Trazado 258814" d="M179,99.836,116.413,136.21v16.126l-2.984-1.729V134.494c.017,0,62.6-36.374,62.6-36.374Z" transform="translate(-43.315 105.521)" fill="#ea6c78"/>
          <path id="Trazado_258815" data-name="Trazado 258815" d="M146.569,117.362v16.128l-2.984-1.731V115.646c.017,0,2.984,1.716,2.984,1.716" transform="translate(-73.471 124.369)" fill="#bf343b"/>
          <path id="Trazado_258816" data-name="Trazado 258816" d="M170.389,104.808,107.8,141.182v16.126l-2.984-1.729V139.466c.017,0,62.6-36.374,62.6-36.374Z" transform="translate(-16.833 110.868)" fill="#ea6c78"/>
          <path id="Trazado_258817" data-name="Trazado 258817" d="M137.957,122.334v16.128l-2.984-1.731V120.618c.017,0,2.984,1.716,2.984,1.716" transform="translate(-46.985 129.716)" fill="#bf343b"/>
          <path id="Trazado_258818" data-name="Trazado 258818" d="M113.619,116.83c3.5,2.019,3.5,5.294,0,7.316a14.007,14.007,0,0,1-12.67,0c-3.5-2.021-3.5-5.3,0-7.316a14.007,14.007,0,0,1,12.67,0" transform="translate(50.789 124.013)" fill="#b8ca62"/>
          <path id="Trazado_258819" data-name="Trazado 258819" d="M150.892,98.484c3.5,2.019,3.5,5.294,0,7.316a14.007,14.007,0,0,1-12.67,0c-3.5-2.021-3.5-5.3,0-7.316a14.007,14.007,0,0,1,12.67,0" transform="translate(-63.841 104.283)" fill="#b8ca62"/>
          <path id="Trazado_258820" data-name="Trazado 258820" d="M99.3,118.881l30.426,17.566,4.724-2.727-30.426-17.566Z" transform="translate(30.553 124.915)" fill="#b8ca62"/>
          <path id="Trazado_258821" data-name="Trazado 258821" d="M104.818,120.993,128.8,134.84l3.723-2.15-23.984-13.847Z" transform="translate(21.031 127.807)" fill="#b8ca62"/>
          <path id="Trazado_258822" data-name="Trazado 258822" d="M71.864,150.056l62.578-36.366-.046,16.1L71.818,166.159Z" transform="translate(87.602 122.265)" fill="#9aa651"/>
          <path id="Trazado_258823" data-name="Trazado 258823" d="M71.819,108.972,134.4,72.606l147.685,85.267L219.5,194.239Z" transform="translate(-60.038 78.083)" fill="#b8ca62"/>
          <path id="Trazado_258824" data-name="Trazado 258824" d="M81.3,103.036,124.214,78.1,252.2,151.993,209.29,176.932Z" transform="translate(-49.838 83.99)" fill="#a2d96a"/>
          <path id="Trazado_258825" data-name="Trazado 258825" d="M249.7,175.395l-.046,16.1L101.97,106.233l.048-16.105Z" transform="translate(-90.237 96.926)" fill="#747d3d"/>
          <path id="Trazado_258826" data-name="Trazado 258826" d="M169.731,94.623c10.441,6.029,6.558,18.044-8.673,26.837s-36.042,11.035-46.483,5.008-6.558-18.044,8.673-26.837,36.042-11.035,46.483-5.008" transform="translate(-30.119 98.122)" fill="#b8ca62"/>
          <path id="Trazado_258827" data-name="Trazado 258827" d="M194.724,104.715l-62.586,36.359-20.559-11.861-2.968-1.716c-.015,0-5.969-3.447-5.969-3.447l62.586-36.372,5.969,3.445,2.968,1.716Z" transform="translate(-36.652 94.291)" fill="#f3f2f2"/>
          <path id="Trazado_258828" data-name="Trazado 258828" d="M162.338,122.227l-.046,16.114-20.513-11.846-2.982-1.731-6-3.462.044-16.1,5.954,3.445c.015,0,2.982,1.716,2.982,1.716Z" transform="translate(-66.851 113.139)" fill="#eedfcf"/>
          <path id="Trazado_258829" data-name="Trazado 258829" d="M179,90.544l-62.586,36.374v16.126l-2.984-1.729V125.2c.017,0,62.6-36.372,62.6-36.372Z" transform="translate(-43.315 95.53)" fill="#ea6c78"/>
          <path id="Trazado_258830" data-name="Trazado 258830" d="M146.569,108.07V124.2l-2.984-1.731V106.354c.017,0,2.984,1.716,2.984,1.716" transform="translate(-73.471 114.376)" fill="#bf343b"/>
          <path id="Trazado_258831" data-name="Trazado 258831" d="M170.389,95.517,107.8,131.891v16.126l-2.984-1.729V130.175c.017,0,62.6-36.374,62.6-36.374Z" transform="translate(-16.833 100.876)" fill="#ea6c78"/>
          <path id="Trazado_258832" data-name="Trazado 258832" d="M137.957,113.043v16.128l-2.984-1.731V111.327c.017,0,2.984,1.716,2.984,1.716" transform="translate(-46.985 119.724)" fill="#bf343b"/>
          <path id="Trazado_258833" data-name="Trazado 258833" d="M113.619,107.539c3.5,2.019,3.5,5.294,0,7.316a14.007,14.007,0,0,1-12.67,0c-3.5-2.021-3.5-5.3,0-7.316a14.007,14.007,0,0,1,12.67,0" transform="translate(50.789 114.021)" fill="#b8ca62"/>
          <path id="Trazado_258834" data-name="Trazado 258834" d="M150.892,89.193c3.5,2.019,3.5,5.294,0,7.316a14.007,14.007,0,0,1-12.67,0c-3.5-2.021-3.5-5.3,0-7.316a14.007,14.007,0,0,1,12.67,0" transform="translate(-63.841 94.291)" fill="#b8ca62"/>
          <path id="Trazado_258835" data-name="Trazado 258835" d="M99.3,109.59l30.426,17.566,4.724-2.729-30.426-17.564Z" transform="translate(30.553 114.923)" fill="#b8ca62"/>
          <path id="Trazado_258836" data-name="Trazado 258836" d="M104.818,111.7,128.8,125.549l3.723-2.15-23.984-13.847Z" transform="translate(21.031 117.815)" fill="#b8ca62"/>
          <path id="Trazado_258837" data-name="Trazado 258837" d="M69.993,142.245l62.578-36.366-.046,16.1L69.948,158.349Z" transform="translate(93.356 113.866)" fill="#9aa651"/>
          <path id="Trazado_258838" data-name="Trazado 258838" d="M69.948,101.162,132.526,64.8l147.685,85.267-62.578,36.366Z" transform="translate(-54.285 69.683)" fill="#b8ca62"/>
          <path id="Trazado_258839" data-name="Trazado 258839" d="M79.431,95.226,122.342,70.29,250.33,144.181l-42.911,24.938Z" transform="translate(-44.084 75.591)" fill="#a2d96a"/>
          <path id="Trazado_258840" data-name="Trazado 258840" d="M247.832,167.585l-.046,16.1L100.1,98.423l.048-16.105Z" transform="translate(-84.483 88.527)" fill="#747d3d"/>
          <path id="Trazado_258841" data-name="Trazado 258841" d="M167.86,86.813c10.441,6.027,6.558,18.044-8.673,26.837s-36.042,11.035-46.483,5.008-6.558-18.044,8.673-26.837,36.042-11.035,46.483-5.008" transform="translate(-24.365 89.723)" fill="#b8ca62"/>
          <path id="Trazado_258842" data-name="Trazado 258842" d="M192.853,96.905l-62.586,36.357L109.708,121.4l-2.968-1.714c-.015,0-5.969-3.447-5.969-3.447l62.586-36.372,5.969,3.445,2.968,1.716Z" transform="translate(-30.898 85.892)" fill="#f3f2f2"/>
          <path id="Trazado_258843" data-name="Trazado 258843" d="M160.467,114.416l-.044,16.114-20.516-11.847-2.984-1.731-6-3.462.044-16.1,5.952,3.445c.017,0,2.984,1.716,2.984,1.716Z" transform="translate(-61.097 104.739)" fill="#eedfcf"/>
          <path id="Trazado_258844" data-name="Trazado 258844" d="M177.129,82.735l-62.586,36.374v16.126l-2.984-1.731V117.393c.015,0,62.6-36.374,62.6-36.374Z" transform="translate(-37.561 87.13)" fill="#ea6c78"/>
          <path id="Trazado_258845" data-name="Trazado 258845" d="M144.7,100.26v16.128l-2.984-1.731V98.544c.017,0,2.984,1.716,2.984,1.716" transform="translate(-67.717 105.977)" fill="#bf343b"/>
          <path id="Trazado_258846" data-name="Trazado 258846" d="M168.518,87.706,105.931,124.08v16.128l-2.984-1.731V122.364c.015,0,62.6-36.372,62.6-36.372Z" transform="translate(-11.078 92.478)" fill="#ea6c78"/>
          <path id="Trazado_258847" data-name="Trazado 258847" d="M136.086,105.233v16.128l-2.984-1.731V103.517c.014,0,2.984,1.716,2.984,1.716" transform="translate(-41.231 111.325)" fill="#bf343b"/>
          <path id="Trazado_258848" data-name="Trazado 258848" d="M111.748,99.729c3.5,2.021,3.5,5.294,0,7.316a14.007,14.007,0,0,1-12.67,0c-3.5-2.021-3.5-5.294,0-7.316a14.007,14.007,0,0,1,12.67,0" transform="translate(56.544 105.622)" fill="#b8ca62"/>
          <path id="Trazado_258849" data-name="Trazado 258849" d="M149.021,81.383c3.5,2.019,3.5,5.294,0,7.316a14.007,14.007,0,0,1-12.67,0c-3.5-2.021-3.5-5.3,0-7.316a14.007,14.007,0,0,1,12.67,0" transform="translate(-58.087 85.892)" fill="#b8ca62"/>
          <path id="Trazado_258850" data-name="Trazado 258850" d="M97.431,101.78l30.426,17.566,4.724-2.727L102.155,99.053Z" transform="translate(36.307 106.524)" fill="#b8ca62"/>
          <path id="Trazado_258851" data-name="Trazado 258851" d="M102.947,103.892l23.984,13.847,3.723-2.15L106.67,101.741Z" transform="translate(26.785 109.415)" fill="#b8ca62"/>
          <path id="Trazado_258852" data-name="Trazado 258852" d="M71.864,132.157l62.578-36.366-.046,16.1L71.818,148.261Z" transform="translate(87.602 103.017)" fill="#9aa651"/>
          <path id="Trazado_258853" data-name="Trazado 258853" d="M71.816,91.072,219.5,176.341l62.582-36.376L184.451,83.611l-50.065-28.9-8.32,4.84-7.2,4.182-5.643,3.279Z" transform="translate(-60.029 58.837)" fill="#b8ca62"/>
          <path id="Trazado_258854" data-name="Trazado 258854" d="M81.3,85.138,124.214,60.2,252.2,134.093l-42.909,24.94Z" transform="translate(-49.838 64.742)" fill="#eaf6a8"/>
          <path id="Trazado_258855" data-name="Trazado 258855" d="M249.7,157.5l-.046,16.1L101.97,88.335l.048-16.105Z" transform="translate(-90.237 77.678)" fill="#747d3d"/>
          <path id="Trazado_258856" data-name="Trazado 258856" d="M169.731,76.725c10.441,6.029,6.558,18.044-8.673,26.837s-36.042,11.035-46.483,5.008-6.558-18.044,8.673-26.837,36.042-11.037,46.483-5.008" transform="translate(-30.119 78.872)" fill="#b8ca62"/>
          <path id="Trazado_258857" data-name="Trazado 258857" d="M194.724,86.817l-62.586,36.357-20.559-11.861-2.968-1.714c-.015,0-5.969-3.447-5.969-3.447L165.228,69.78l5.969,3.445,2.968,1.716Z" transform="translate(-36.652 75.043)" fill="#f3f2f2"/>
          <path id="Trazado_258858" data-name="Trazado 258858" d="M162.338,104.328l-.046,16.114-20.513-11.847-2.982-1.731-6-3.46.044-16.1L138.8,90.75c.015,0,2.982,1.716,2.982,1.716Z" transform="translate(-66.851 93.89)" fill="#eedfcf"/>
          <path id="Trazado_258859" data-name="Trazado 258859" d="M179,72.646,116.413,109.02v16.126l-2.984-1.729V107.3c.017,0,62.6-36.374,62.6-36.374Z" transform="translate(-43.315 76.28)" fill="#ea6c78"/>
          <path id="Trazado_258860" data-name="Trazado 258860" d="M146.569,90.172V106.3l-2.984-1.731V88.456c.017,0,2.984,1.716,2.984,1.716" transform="translate(-73.471 95.128)" fill="#bf343b"/>
          <path id="Trazado_258861" data-name="Trazado 258861" d="M170.389,77.619,107.8,113.993v16.128l-2.984-1.731V112.277c.017,0,62.6-36.374,62.6-36.374Z" transform="translate(-16.833 81.628)" fill="#ea6c78"/>
          <path id="Trazado_258862" data-name="Trazado 258862" d="M137.957,95.144v16.128l-2.984-1.731V93.428c.017,0,2.984,1.716,2.984,1.716" transform="translate(-46.985 100.475)" fill="#bf343b"/>
          <path id="Trazado_258863" data-name="Trazado 258863" d="M113.619,89.641c3.5,2.019,3.5,5.294,0,7.316a14.007,14.007,0,0,1-12.67,0c-3.5-2.021-3.5-5.3,0-7.316a14.007,14.007,0,0,1,12.67,0" transform="translate(50.789 94.773)" fill="#b8ca62"/>
          <path id="Trazado_258864" data-name="Trazado 258864" d="M150.892,71.295c3.5,2.019,3.5,5.294,0,7.316a14.007,14.007,0,0,1-12.67,0c-3.5-2.021-3.5-5.3,0-7.316a14.007,14.007,0,0,1,12.67,0" transform="translate(-63.841 75.043)" fill="#b8ca62"/>
          <path id="Trazado_258865" data-name="Trazado 258865" d="M99.3,91.692l30.426,17.566,4.724-2.727L104.026,88.965Z" transform="translate(30.553 95.675)" fill="#b8ca62"/>
          <path id="Trazado_258866" data-name="Trazado 258866" d="M104.818,93.8,128.8,107.651l3.723-2.15L108.541,91.653Z" transform="translate(21.031 98.566)" fill="#b8ca62"/>
          <path id="Trazado_258867" data-name="Trazado 258867" d="M71.864,122.407l62.578-36.366-.046,16.1L71.818,138.51Z" transform="translate(87.602 92.531)" fill="#9aa651"/>
          <path id="Trazado_258868" data-name="Trazado 258868" d="M71.819,81.323,134.4,44.958l147.685,85.267L219.5,166.59Z" transform="translate(-60.038 48.348)" fill="#b8ca62"/>
          <path id="Trazado_258869" data-name="Trazado 258869" d="M81.3,75.387l42.911-24.936L252.2,124.344,209.29,149.283Z" transform="translate(-49.838 54.256)" fill="#a2d96a"/>
          <path id="Trazado_258870" data-name="Trazado 258870" d="M249.7,147.746l-.046,16.1L101.97,78.585l.048-16.105Z" transform="translate(-90.237 67.192)" fill="#747d3d"/>
          <path id="Trazado_258871" data-name="Trazado 258871" d="M169.731,66.975c10.441,6.027,6.558,18.044-8.673,26.837s-36.042,11.035-46.483,5.008-6.558-18.044,8.673-26.837,36.042-11.037,46.483-5.008" transform="translate(-30.119 68.387)" fill="#b8ca62"/>
          <path id="Trazado_258872" data-name="Trazado 258872" d="M194.724,77.066l-62.586,36.359-20.559-11.861-2.968-1.716c-.015,0-5.969-3.447-5.969-3.447l62.586-36.372,5.969,3.445,2.968,1.716Z" transform="translate(-36.652 64.557)" fill="#f3f2f2"/>
          <path id="Trazado_258873" data-name="Trazado 258873" d="M162.338,94.578l-.046,16.114L141.778,98.845,138.8,97.114l-6-3.462.044-16.1L138.8,81c.015,0,2.982,1.716,2.982,1.716Z" transform="translate(-66.851 83.405)" fill="#eedfcf"/>
          <path id="Trazado_258874" data-name="Trazado 258874" d="M179,62.9,116.413,99.27V115.4l-2.984-1.729V97.554c.017,0,62.6-36.374,62.6-36.374Z" transform="translate(-43.315 65.794)" fill="#ea6c78"/>
          <path id="Trazado_258875" data-name="Trazado 258875" d="M146.569,80.422V96.551l-2.984-1.731V78.706c.017,0,2.984,1.716,2.984,1.716" transform="translate(-73.471 84.642)" fill="#bf343b"/>
          <path id="Trazado_258876" data-name="Trazado 258876" d="M170.389,67.868,107.8,104.242V120.37l-2.984-1.731V102.526c.017,0,62.6-36.374,62.6-36.374Z" transform="translate(-16.833 71.141)" fill="#ea6c78"/>
          <path id="Trazado_258877" data-name="Trazado 258877" d="M137.957,85.394v16.128l-2.984-1.731V83.678c.017,0,2.984,1.716,2.984,1.716" transform="translate(-46.985 89.989)" fill="#bf343b"/>
          <path id="Trazado_258878" data-name="Trazado 258878" d="M113.619,79.89c3.5,2.019,3.5,5.294,0,7.316a14.007,14.007,0,0,1-12.67,0c-3.5-2.021-3.5-5.3,0-7.316a14.007,14.007,0,0,1,12.67,0" transform="translate(50.789 84.287)" fill="#b8ca62"/>
          <path id="Trazado_258879" data-name="Trazado 258879" d="M150.892,61.544c3.5,2.019,3.5,5.294,0,7.316a14.007,14.007,0,0,1-12.67,0c-3.5-2.021-3.5-5.3,0-7.316a14.007,14.007,0,0,1,12.67,0" transform="translate(-63.841 64.557)" fill="#b8ca62"/>
          <path id="Trazado_258880" data-name="Trazado 258880" d="M99.3,81.942l30.426,17.566,4.724-2.727L104.026,79.214Z" transform="translate(30.553 85.189)" fill="#b8ca62"/>
          <path id="Trazado_258881" data-name="Trazado 258881" d="M104.818,84.053,128.8,97.9l3.723-2.15L108.541,81.9Z" transform="translate(21.031 88.08)" fill="#b8ca62"/>
          <path id="Trazado_258882" data-name="Trazado 258882" d="M69.993,114.6l62.578-36.366-.046,16.1L69.948,130.7Z" transform="translate(93.356 84.132)" fill="#9aa651"/>
          <path id="Trazado_258883" data-name="Trazado 258883" d="M69.948,73.513l62.578-36.366,147.685,85.267L217.633,158.78Z" transform="translate(-54.285 39.949)" fill="#b8ca62"/>
          <path id="Trazado_258884" data-name="Trazado 258884" d="M79.431,67.577l42.911-24.936L250.33,116.532l-42.911,24.938Z" transform="translate(-44.084 45.857)" fill="#a2d96a"/>
          <path id="Trazado_258885" data-name="Trazado 258885" d="M247.832,139.936l-.046,16.1L100.1,70.774l.048-16.105Z" transform="translate(-84.483 58.792)" fill="#747d3d"/>
          <path id="Trazado_258886" data-name="Trazado 258886" d="M167.86,59.164C178.3,65.193,174.418,77.208,159.186,86S123.145,97.036,112.7,91.009s-6.558-18.044,8.673-26.837,36.042-11.035,46.483-5.008" transform="translate(-24.365 59.988)" fill="#b8ca62"/>
          <path id="Trazado_258887" data-name="Trazado 258887" d="M192.853,69.256l-62.586,36.357L109.708,93.754l-2.968-1.716c-.015,0-5.969-3.447-5.969-3.447l62.586-36.372,5.969,3.445,2.968,1.716Z" transform="translate(-30.898 56.158)" fill="#f3f2f2"/>
          <path id="Trazado_258888" data-name="Trazado 258888" d="M160.467,86.768l-.044,16.114L139.907,91.035,136.923,89.3l-6-3.462.044-16.1,5.952,3.445c.017,0,2.984,1.716,2.984,1.716Z" transform="translate(-61.097 75.005)" fill="#eedfcf"/>
          <path id="Trazado_258889" data-name="Trazado 258889" d="M177.129,55.086,114.542,91.46v16.126l-2.984-1.729V89.744c.015,0,62.6-36.374,62.6-36.374Z" transform="translate(-37.561 57.395)" fill="#ea6c78"/>
          <path id="Trazado_258890" data-name="Trazado 258890" d="M144.7,72.612V88.741l-2.984-1.731V70.9c.017,0,2.984,1.716,2.984,1.716" transform="translate(-67.717 76.243)" fill="#bf343b"/>
          <path id="Trazado_258891" data-name="Trazado 258891" d="M168.518,60.057,105.931,96.431v16.128l-2.984-1.731V94.715c.015,0,62.6-36.372,62.6-36.372Z" transform="translate(-11.078 62.743)" fill="#ea6c78"/>
          <path id="Trazado_258892" data-name="Trazado 258892" d="M136.086,77.584V93.713L133.1,91.982V75.868c.014,0,2.984,1.716,2.984,1.716" transform="translate(-41.231 81.59)" fill="#bf343b"/>
          <path id="Trazado_258893" data-name="Trazado 258893" d="M111.748,72.08c3.5,2.019,3.5,5.294,0,7.316a14.007,14.007,0,0,1-12.67,0c-3.5-2.021-3.5-5.3,0-7.316a14.007,14.007,0,0,1,12.67,0" transform="translate(56.544 75.888)" fill="#b8ca62"/>
          <path id="Trazado_258894" data-name="Trazado 258894" d="M149.021,53.734c3.5,2.019,3.5,5.294,0,7.316a14.007,14.007,0,0,1-12.67,0c-3.5-2.021-3.5-5.3,0-7.316a14.007,14.007,0,0,1,12.67,0" transform="translate(-58.087 56.158)" fill="#b8ca62"/>
          <path id="Trazado_258895" data-name="Trazado 258895" d="M97.431,74.131,127.857,91.7l4.724-2.727L102.155,71.4Z" transform="translate(36.307 76.79)" fill="#b8ca62"/>
          <path id="Trazado_258896" data-name="Trazado 258896" d="M102.947,76.243,126.931,90.09l3.723-2.15L106.67,74.093Z" transform="translate(26.785 79.681)" fill="#b8ca62"/>
          <path id="Trazado_258897" data-name="Trazado 258897" d="M71.864,104.508l62.578-36.366-.046,16.1L71.818,120.612Z" transform="translate(87.602 73.283)" fill="#9aa651"/>
          <path id="Trazado_258898" data-name="Trazado 258898" d="M71.816,63.423,219.5,148.692l62.582-36.376L184.451,55.962l-50.065-28.9-8.32,4.84-7.2,4.182-5.643,3.279Z" transform="translate(-60.029 29.103)" fill="#b8ca62"/>
          <path id="Trazado_258899" data-name="Trazado 258899" d="M81.3,57.49l42.911-24.938L252.2,106.445,209.29,131.383Z" transform="translate(-49.838 35.007)" fill="#eaf6a8"/>
          <path id="Trazado_258900" data-name="Trazado 258900" d="M249.7,129.848l-.046,16.1L101.97,60.686l.048-16.105Z" transform="translate(-90.237 47.943)" fill="#747d3d"/>
          <path id="Trazado_258901" data-name="Trazado 258901" d="M169.731,49.076c10.441,6.027,6.558,18.044-8.673,26.837s-36.042,11.035-46.483,5.008-6.558-18.044,8.673-26.837,36.042-11.037,46.483-5.008" transform="translate(-30.119 49.139)" fill="#b8ca62"/>
          <path id="Trazado_258902" data-name="Trazado 258902" d="M194.724,59.168,132.138,95.525,111.579,83.664l-2.968-1.714c-.015,0-5.969-3.447-5.969-3.447l62.586-36.372,5.969,3.445,2.968,1.716Z" transform="translate(-36.652 45.309)" fill="#f3f2f2"/>
          <path id="Trazado_258903" data-name="Trazado 258903" d="M162.338,76.679l-.046,16.114L141.778,80.946,138.8,79.215l-6-3.462.044-16.1L138.8,63.1c.015,0,2.982,1.716,2.982,1.716Z" transform="translate(-66.851 64.156)" fill="#eedfcf"/>
          <path id="Trazado_258904" data-name="Trazado 258904" d="M179,45,116.413,81.372V97.5l-2.984-1.731V79.656c.017,0,62.6-36.374,62.6-36.374Z" transform="translate(-43.315 46.547)" fill="#ea6c78"/>
          <path id="Trazado_258905" data-name="Trazado 258905" d="M146.569,62.523V78.651l-2.984-1.731V60.807c.017,0,2.984,1.716,2.984,1.716" transform="translate(-73.471 65.393)" fill="#bf343b"/>
          <path id="Trazado_258906" data-name="Trazado 258906" d="M170.389,49.97,107.8,86.344V102.47l-2.984-1.729V84.628c.017,0,62.6-36.374,62.6-36.374Z" transform="translate(-16.833 51.894)" fill="#ea6c78"/>
          <path id="Trazado_258907" data-name="Trazado 258907" d="M137.957,67.5V83.624l-2.984-1.731V65.779c.017,0,2.984,1.716,2.984,1.716" transform="translate(-46.985 70.74)" fill="#bf343b"/>
          <path id="Trazado_258908" data-name="Trazado 258908" d="M113.619,61.993c3.5,2.019,3.5,5.294,0,7.314a13.994,13.994,0,0,1-12.67,0c-3.5-2.019-3.5-5.294,0-7.314a13.994,13.994,0,0,1,12.67,0" transform="translate(50.789 65.038)" fill="#b8ca62"/>
          <path id="Trazado_258909" data-name="Trazado 258909" d="M150.892,43.646c3.5,2.019,3.5,5.294,0,7.316a14.007,14.007,0,0,1-12.67,0c-3.5-2.021-3.5-5.3,0-7.316a14.007,14.007,0,0,1,12.67,0" transform="translate(-63.841 45.309)" fill="#b8ca62"/>
          <path id="Trazado_258910" data-name="Trazado 258910" d="M99.3,64.043l30.426,17.566,4.724-2.727L104.026,61.316Z" transform="translate(30.553 65.94)" fill="#b8ca62"/>
          <path id="Trazado_258911" data-name="Trazado 258911" d="M104.818,66.155,128.8,80l3.723-2.15L108.541,64Z" transform="translate(21.031 68.832)" fill="#b8ca62"/>
          <path id="Trazado_258912" data-name="Trazado 258912" d="M71.864,95.345,134.442,58.98l-.046,16.1L71.818,111.448Z" transform="translate(87.602 63.428)" fill="#9aa651"/>
          <path id="Trazado_258913" data-name="Trazado 258913" d="M71.819,54.261,134.4,17.9l147.685,85.267L219.5,139.528Z" transform="translate(-60.038 19.246)" fill="#b8ca62"/>
          <path id="Trazado_258914" data-name="Trazado 258914" d="M81.3,48.326l42.911-24.936L252.2,97.283,209.29,122.219Z" transform="translate(-49.838 25.154)" fill="#a2d96a"/>
          <path id="Trazado_258915" data-name="Trazado 258915" d="M249.7,120.684l-.046,16.1L101.97,51.523l.048-16.105Z" transform="translate(-90.237 38.089)" fill="#747d3d"/>
          <path id="Trazado_258916" data-name="Trazado 258916" d="M169.731,39.912c10.441,6.027,6.558,18.044-8.673,26.837s-36.042,11.035-46.483,5.008-6.558-18.044,8.673-26.837,36.042-11.037,46.483-5.008" transform="translate(-30.119 39.284)" fill="#b8ca62"/>
          <path id="Trazado_258917" data-name="Trazado 258917" d="M194.724,50.005,132.138,86.365,111.579,74.5l-2.968-1.716c-.015,0-5.969-3.447-5.969-3.447l62.586-36.372,5.969,3.445,2.968,1.716Z" transform="translate(-36.652 35.455)" fill="#f3f2f2"/>
          <path id="Trazado_258918" data-name="Trazado 258918" d="M162.338,67.516l-.046,16.114L141.778,71.783,138.8,70.052l-6-3.462.044-16.1,5.954,3.445c.015,0,2.982,1.716,2.982,1.716Z" transform="translate(-66.851 54.301)" fill="#eedfcf"/>
          <path id="Trazado_258919" data-name="Trazado 258919" d="M179,35.833,116.413,72.207V88.335L113.429,86.6V70.491c.017,0,62.6-36.372,62.6-36.372Z" transform="translate(-43.315 36.692)" fill="#ea6c78"/>
          <path id="Trazado_258920" data-name="Trazado 258920" d="M146.569,53.36V69.489l-2.984-1.731V51.644c.017,0,2.984,1.716,2.984,1.716" transform="translate(-73.471 55.539)" fill="#bf343b"/>
          <path id="Trazado_258921" data-name="Trazado 258921" d="M170.389,40.806,107.8,77.18V93.306l-2.984-1.729V75.464c.017,0,62.6-36.374,62.6-36.374Z" transform="translate(-16.833 42.038)" fill="#ea6c78"/>
          <path id="Trazado_258922" data-name="Trazado 258922" d="M137.957,58.332V74.461l-2.984-1.731V56.616c.017,0,2.984,1.716,2.984,1.716" transform="translate(-46.985 60.886)" fill="#bf343b"/>
          <path id="Trazado_258923" data-name="Trazado 258923" d="M113.619,52.829c3.5,2.019,3.5,5.294,0,7.316a14.007,14.007,0,0,1-12.67,0c-3.5-2.021-3.5-5.3,0-7.316a14.007,14.007,0,0,1,12.67,0" transform="translate(50.789 55.185)" fill="#b8ca62"/>
          <path id="Trazado_258924" data-name="Trazado 258924" d="M150.892,34.482c3.5,2.019,3.5,5.294,0,7.316a14.007,14.007,0,0,1-12.67,0c-3.5-2.021-3.5-5.3,0-7.316a14.007,14.007,0,0,1,12.67,0" transform="translate(-63.841 35.454)" fill="#b8ca62"/>
          <path id="Trazado_258925" data-name="Trazado 258925" d="M99.3,54.88l30.426,17.566,4.724-2.727L104.026,52.153Z" transform="translate(30.553 56.086)" fill="#b8ca62"/>
          <path id="Trazado_258926" data-name="Trazado 258926" d="M104.818,56.991,128.8,70.839l3.723-2.15L108.541,54.841Z" transform="translate(21.031 58.978)" fill="#b8ca62"/>
          <path id="Trazado_258927" data-name="Trazado 258927" d="M69.993,87.535l62.578-36.366-.046,16.1L69.948,103.638Z" transform="translate(93.356 55.029)" fill="#9aa651"/>
          <path id="Trazado_258928" data-name="Trazado 258928" d="M69.948,46.451l62.578-36.366L280.211,95.35l-62.578,36.368Z" transform="translate(-54.285 10.846)" fill="#b8ca62"/>
          <path id="Trazado_258929" data-name="Trazado 258929" d="M79.431,40.516l42.911-24.936L250.33,89.471l-42.911,24.938Z" transform="translate(-44.084 16.754)" fill="#a2d96a"/>
          <path id="Trazado_258930" data-name="Trazado 258930" d="M247.832,112.874l-.046,16.1L100.1,43.713l.048-16.105Z" transform="translate(-84.483 29.69)" fill="#747d3d"/>
          <path id="Trazado_258931" data-name="Trazado 258931" d="M167.86,32.1c10.441,6.029,6.558,18.044-8.673,26.837S123.145,69.974,112.7,63.947,106.145,45.9,121.376,37.11,157.418,26.075,167.86,32.1" transform="translate(-24.365 30.885)" fill="#b8ca62"/>
          <path id="Trazado_258932" data-name="Trazado 258932" d="M192.853,42.2,130.267,78.552,109.708,66.691l-2.968-1.714c-.015,0-5.969-3.447-5.969-3.447l62.586-36.372,5.969,3.445,2.968,1.716Z" transform="translate(-30.898 27.056)" fill="#f3f2f2"/>
          <path id="Trazado_258933" data-name="Trazado 258933" d="M160.467,59.706l-.044,16.114L139.907,63.973l-2.984-1.731-6-3.462.044-16.1,5.952,3.445c.017,0,2.984,1.716,2.984,1.716Z" transform="translate(-61.097 45.902)" fill="#eedfcf"/>
          <path id="Trazado_258934" data-name="Trazado 258934" d="M177.129,28.024,114.542,64.4V80.524L111.558,78.8V62.682c.015,0,62.6-36.374,62.6-36.374Z" transform="translate(-37.561 28.292)" fill="#ea6c78"/>
          <path id="Trazado_258935" data-name="Trazado 258935" d="M144.7,45.55V61.679l-2.984-1.731V43.834c.017,0,2.984,1.716,2.984,1.716" transform="translate(-67.717 47.14)" fill="#bf343b"/>
          <path id="Trazado_258936" data-name="Trazado 258936" d="M168.518,33,105.931,69.37V85.5l-2.984-1.731V67.654c.015,0,62.6-36.374,62.6-36.374Z" transform="translate(-11.078 33.639)" fill="#ea6c78"/>
          <path id="Trazado_258937" data-name="Trazado 258937" d="M136.086,50.522V66.65L133.1,64.92V48.806c.014,0,2.984,1.716,2.984,1.716" transform="translate(-41.231 52.487)" fill="#bf343b"/>
          <path id="Trazado_258938" data-name="Trazado 258938" d="M111.748,45.019c3.5,2.019,3.5,5.294,0,7.316a14.007,14.007,0,0,1-12.67,0c-3.5-2.021-3.5-5.3,0-7.316a14.007,14.007,0,0,1,12.67,0" transform="translate(56.544 46.786)" fill="#b8ca62"/>
          <path id="Trazado_258939" data-name="Trazado 258939" d="M149.021,26.673c3.5,2.019,3.5,5.294,0,7.316a14.007,14.007,0,0,1-12.67,0c-3.5-2.021-3.5-5.3,0-7.316a13.994,13.994,0,0,1,12.67,0" transform="translate(-58.087 27.054)" fill="#b8ca62"/>
          <path id="Trazado_258940" data-name="Trazado 258940" d="M97.431,47.07l30.426,17.566,4.724-2.727L102.155,44.343Z" transform="translate(36.307 47.687)" fill="#b8ca62"/>
          <path id="Trazado_258941" data-name="Trazado 258941" d="M102.947,49.181l23.984,13.847,3.723-2.15L106.67,47.031Z" transform="translate(26.785 50.578)" fill="#b8ca62"/>
          <path id="Trazado_258942" data-name="Trazado 258942" d="M71.864,77.447l62.578-36.366-.046,16.1L71.818,93.55Z" transform="translate(87.602 44.18)" fill="#9aa651"/>
          <path id="Trazado_258943" data-name="Trazado 258943" d="M71.816,36.362,219.5,121.631l62.582-36.376L184.451,28.9,134.386,0l-8.32,4.84-7.2,4.182L113.218,12.3Z" transform="translate(-60.029 0)" fill="#b8ca62"/>
          <path id="Trazado_258944" data-name="Trazado 258944" d="M81.3,30.427,124.214,5.491,252.2,79.382l-42.909,24.94Z" transform="translate(-49.838 5.905)" fill="#eaf6a8"/>
          <path id="Trazado_258945" data-name="Trazado 258945" d="M249.7,102.786l-.046,16.1L101.97,33.625l.048-16.105Z" transform="translate(-90.237 18.841)" fill="#747d3d"/>
          <path id="Trazado_258946" data-name="Trazado 258946" d="M169.731,22.014c10.441,6.027,6.558,18.044-8.673,26.837s-36.042,11.035-46.483,5.008-6.558-18.044,8.673-26.837,36.042-11.035,46.483-5.008" transform="translate(-30.119 20.036)" fill="#b8ca62"/>
          <path id="Trazado_258947" data-name="Trazado 258947" d="M194.724,32.106,132.138,68.466,111.579,56.6l-2.968-1.716c-.015,0-5.969-3.447-5.969-3.447l62.586-36.372,5.969,3.445,2.968,1.716Z" transform="translate(-36.652 16.206)" fill="#f3f2f2"/>
          <path id="Trazado_258948" data-name="Trazado 258948" d="M162.338,49.618l-.046,16.114L141.778,53.885,138.8,52.154l-6-3.462.044-16.1L138.8,36.04c.015,0,2.982,1.716,2.982,1.716Z" transform="translate(-66.851 35.053)" fill="#eedfcf"/>
          <path id="Trazado_258949" data-name="Trazado 258949" d="M179,17.936,116.413,54.31V70.436l-2.984-1.729V52.594c.017,0,62.6-36.374,62.6-36.374Z" transform="translate(-43.315 17.443)" fill="#ea6c78"/>
          <path id="Trazado_258950" data-name="Trazado 258950" d="M146.569,35.462V51.591l-2.984-1.731V33.746c.017,0,2.984,1.716,2.984,1.716" transform="translate(-73.471 36.291)" fill="#bf343b"/>
          <path id="Trazado_258951" data-name="Trazado 258951" d="M170.389,22.908,107.8,59.282V75.408l-2.984-1.729V57.566c.017,0,62.6-36.374,62.6-36.374Z" transform="translate(-16.833 22.79)" fill="#ea6c78"/>
          <path id="Trazado_258952" data-name="Trazado 258952" d="M137.957,40.434V56.563l-2.984-1.731V38.718c.017,0,2.984,1.716,2.984,1.716" transform="translate(-46.985 41.638)" fill="#bf343b"/>
          <path id="Trazado_258953" data-name="Trazado 258953" d="M113.619,34.93c3.5,2.019,3.5,5.294,0,7.316a14.007,14.007,0,0,1-12.67,0c-3.5-2.021-3.5-5.3,0-7.316a14.007,14.007,0,0,1,12.67,0" transform="translate(50.789 35.936)" fill="#b8ca62"/>
          <path id="Trazado_258954" data-name="Trazado 258954" d="M150.892,16.584c3.5,2.019,3.5,5.294,0,7.316a14.007,14.007,0,0,1-12.67,0c-3.5-2.021-3.5-5.3,0-7.316a14.007,14.007,0,0,1,12.67,0" transform="translate(-63.841 16.206)" fill="#b8ca62"/>
          <path id="Trazado_258955" data-name="Trazado 258955" d="M99.3,36.981l30.426,17.566,4.724-2.727L104.026,34.254Z" transform="translate(30.553 36.838)" fill="#b8ca62"/>
          <path id="Trazado_258956" data-name="Trazado 258956" d="M104.818,39.093,128.8,52.94l3.723-2.15L108.541,36.943Z" transform="translate(21.031 39.729)" fill="#b8ca62"/>
          <path id="Trazado_258957" data-name="Trazado 258957" d="M33.513,98.137c.042.021.062.042.1.062,14.113,6.89,47.05-11.768,47.05-11.768L90.4,62.315c-4.9-3.113-10.813-1.225-17.039,2.158L43.662,79,40.591,67.11a100.665,100.665,0,0,1-10.481,3.84c-1.6,7.783-4.192,23.2,3.4,27.188" transform="translate(221.844 65.315)" fill="#eedfcf"/>
          <path id="Trazado_258958" data-name="Trazado 258958" d="M72.157,70.323l-.4-5.039-.824-2L69.081,60.7l-4.4-4.506-4.84,1.148-5.907,4.3L52.216,64.89l2.32,3.175,2.424,4.657,3.8,3.979,4.861,1.557c1.71.909,6.5-2.25,6.533-7.934" transform="translate(190.571 60.437)" fill="#ffb2a3"/>
          <g id="Grupo_877474" data-name="Grupo 877474" transform="translate(245.106 119.582)" opacity="0.5" style="mix-blend-mode: multiply;isolation: isolate">
            <g id="Grupo_877473" data-name="Grupo 877473" transform="translate(0)">
              <g id="Grupo_877472" data-name="Grupo 877472" clip-path="url(#clip-path-6)">
                <path id="Trazado_258959" data-name="Trazado 258959" d="M68.772,68.389l.857-4.632-1.4-1.66-2,.363-3.356-4.842-2.808.921-5.423,4.614-2.175,1.216-.06,2.169L54.835,71.2l3.8,3.979L63.5,76.731c1.712.909,6.961-4.83,5.274-8.341" transform="translate(-52.412 -57.618)" fill="#ffb294"/>
              </g>
            </g>
          </g>
          <path id="Trazado_258960" data-name="Trazado 258960" d="M55.065,75.612c-2.385.513-3.678-4.761-2.148-7.7l2.032-2.551-.558-3.416c-.266-1.611-.311-3.727,1.235-4.238.986-.326,1.3.94,1.3.94l.556,2.507,1.361,2.779-.349,7.409a12.233,12.233,0,0,1-3.427,4.269" transform="translate(203.804 62.003)" fill="#ffb2a3"/>
          <path id="Trazado_258961" data-name="Trazado 258961" d="M68.449,57.618l-3.18.048s1.633,3.684,1.453,4.356-2.25,1.905-2.25,1.905a3.5,3.5,0,0,1-.284,1.806,3.042,3.042,0,0,1-1.9,1.146,4.133,4.133,0,0,1-1.814-.355s-1.949,1.49-2.993,1.22-1.395-2.387-1.395-2.387l-.419-1.994L60.12,59.28Z" transform="translate(187.123 61.964)" fill="#ffb2a3"/>
          <path id="Trazado_258962" data-name="Trazado 258962" d="M69.24,64.189l-1.312-2.258L64,55.844l-6.062-3.725c-2-1.332-4.473.517-1.941,2.634l4.819,3.7,2.279,4.632,1.976,1.847Z" transform="translate(187.882 55.565)" fill="#ffb2a3"/>
          <g id="Grupo_877477" data-name="Grupo 877477" transform="translate(255.359 146.786)" style="mix-blend-mode: multiply;isolation: isolate">
            <g id="Grupo_877476" data-name="Grupo 877476" transform="translate(0)">
              <g id="Grupo_877475" data-name="Grupo 877475" clip-path="url(#clip-path-7)">
                <path id="Trazado_258963" data-name="Trazado 258963" d="M33.047,87.392c.042.021.062.042.1.062C47.264,94.344,80.2,75.686,80.2,75.686l-4.317-4.96s-17.392,15.3-42.837,16.666" transform="translate(-33.048 -70.726)" fill="#e3ccb3"/>
              </g>
            </g>
          </g>
          <path id="Trazado_258964" data-name="Trazado 258964" d="M32.385,188.351c1.517,5.089,1.822,6.567,1.185,10.34a56.612,56.612,0,0,0-2.237,5.651c-.932,3.408-.791,9.1-5.633,12.5-5.77,4.771-16.923,4.991-20.433-.1,0-2.482,1.573-7.961,4.5-12.4l5.664-11.029-.361-10.331,16.267-3.74Z" transform="translate(326.281 192.772)" fill="#282752"/>
          <path id="Trazado_258965" data-name="Trazado 258965" d="M66.567,176.741c1.447,2.069,1.364,6.793.928,12.127-1.471,5.369-6.347,4.861-10.522,5.467C48.91,195.5,44.8,201.762,34.1,201.549c-6.359-.129-10.576-1.633-11.84-5.878-.164-1.949.951-3.9,3.24-5.863,14.731-6.594,14.721-6.6,15.07-6.83.382-.257,7-5.137,7.133-5.662s2.717-12.191,2.717-12.191l15.707.288Z" transform="translate(257.151 177.579)" fill="#282752"/>
          <path id="Trazado_258966" data-name="Trazado 258966" d="M58.491,105.621,45.8,178.474c1.911,22.188,9.236,44.076,7.272,65.513-1.548,8.889-19.088,7.555-22.437,1.009,1.139-16.666-8.192-41.367-11.705-68.7-.77-27.045-.463-54.872,4.8-76.328Z" transform="translate(273.971 107.505)" fill="#1f387d"/>
          <path id="Trazado_258967" data-name="Trazado 258967" d="M69.852,265.267a5.823,5.823,0,0,1-2.318,4.728,9.326,9.326,0,0,1-2.086,1.168c-5.5,2.287-14.493.828-17.492-3.13-1.739-16.589-9.153-41.714-17.28-67.96-2.619-18.179-5.4-38.4-5.919-54.488-.178-4.927-21.773-11-19.588-41.762l38.005,15.6,21.215-12.971-2.52,26.466-1.517,68.439c5.676,21.472,9.377,42.8,9.5,63.911" transform="translate(290.84 111.655)" fill="#34559c"/>
          <g id="Grupo_877480" data-name="Grupo 877480" transform="translate(334.014 218.107)" opacity="0.5" style="mix-blend-mode: multiply;isolation: isolate">
            <g id="Grupo_877479" data-name="Grupo 877479" transform="translate(0)">
              <g id="Grupo_877478" data-name="Grupo 877478" clip-path="url(#clip-path-8)">
                <path id="Trazado_258968" data-name="Trazado 258968" d="M31.691,263.906a5.823,5.823,0,0,1-2.318,4.728,9.326,9.326,0,0,1-2.086,1.168C29,241.547,25.081,217.79,12.649,199.4c2.073-23.07,3.445-40.631-1-58.994-2.976-12.26-5.6-16.452-6.633-22.346L26.229,105.09l-2.52,26.466-1.517,68.439c5.676,21.472,9.377,42.8,9.5,63.911" transform="translate(-5.014 -105.09)" fill="#25435c"/>
              </g>
            </g>
          </g>
          <path id="Trazado_258969" data-name="Trazado 258969" d="M3.207,160.2a47.106,47.106,0,0,0,8.177,9.505,35.1,35.1,0,0,0,16.375,8.385,45.262,45.262,0,0,0,18.949.021,37.9,37.9,0,0,0,13.615-5.894,11.324,11.324,0,0,0,4.773-9.547c-.291-13.636,6.917-27.443,8.951-41.847.374-2.449.643-4.732.851-6.787a.575.575,0,0,1,.021-.187l.54-18.637c-4.545-6.164-22.379-23.425-37.073-26.435-6.787-3.445-13.137-6.683-20.007-7.907C9.952,64.041,6.88,72.883,4.348,86.684c-2.511,16.375,3.321,44.5-2.034,68.717a6.205,6.205,0,0,0,.892,4.794" transform="translate(291.148 65.457)" fill="#eedfcf"/>
          <g id="Grupo_877483" data-name="Grupo 877483" transform="translate(302.533 177.517)" style="mix-blend-mode: multiply;isolation: isolate">
            <g id="Grupo_877482" data-name="Grupo 877482" transform="translate(0)">
              <g id="Grupo_877481" data-name="Grupo 877481" clip-path="url(#clip-path-9)">
                <path id="Trazado_258970" data-name="Trazado 258970" d="M2.844,143.174a35.1,35.1,0,0,0,16.375,8.385,45.262,45.262,0,0,0,18.949.021,37.9,37.9,0,0,0,13.615-5.894,11.324,11.324,0,0,0,4.773-9.547c-.291-13.636,6.917-27.443,8.951-41.847L49.786,85.533l-6.232,21.58L13.07,128.386Z" transform="translate(-2.845 -85.533)" fill="#e3ccb3"/>
              </g>
            </g>
          </g>
          <path id="Trazado_258971" data-name="Trazado 258971" d="M38.962,71.533l-3.891,9.945L31.526,85.8c-2.042,9.215-3.225,27.917-3.113,40.211l-5.882,4.151-1.9-7.7c1.729-13.146,5.533-31.306,8.3-37.964l-.087-8.993,3.719-5.622Z" transform="translate(289.32 75.16)" fill="#ea6c78"/>
          <path id="Trazado_258972" data-name="Trazado 258972" d="M36.219,64.868a11.826,11.826,0,0,1,7.523,10.118c.811,8.37-13.577,16-19.629,17.035L21.272,82.54l-8.748,2.217c-.432-8.821,2.854-26.374,23.7-19.889" transform="translate(301.402 68.248)" fill="#fff"/>
          <path id="Trazado_258973" data-name="Trazado 258973" d="M15.3,85.495c9.707,4.211,20.509-5.176,20.192-12.087a50.035,50.035,0,0,1,1.625-12.994L17.047,62.818s-1.314-.228-1.745,2.339c-.77,4.578-4.273,18.486,0,20.337" transform="translate(306.545 64.97)" fill="#ffb2a3"/>
          <g id="Grupo_877486" data-name="Grupo 877486" transform="translate(319.702 128.921)" opacity="0.5" style="mix-blend-mode: multiply;isolation: isolate">
            <g id="Grupo_877485" data-name="Grupo 877485" transform="translate(0)">
              <g id="Grupo_877484" data-name="Grupo 877484" clip-path="url(#clip-path-10)">
                <path id="Trazado_258974" data-name="Trazado 258974" d="M17.984,83.985c9.225.946,17.268-18.341,17.268-18.341L16.631,62.118c-2.2,13.025-2.53,21.468,1.353,21.867" transform="translate(-15.012 -62.118)" fill="#ffa89f"/>
              </g>
            </g>
          </g>
          <path id="Trazado_258975" data-name="Trazado 258975" d="M35.975,77.131S32.826,85.3,28.6,88.479a22.965,22.965,0,0,1-12.76,4.093c-2.306-.164-4.082-.585-5.357-2.513s-.21-18.085-.21-18.085c.807-6.193,1.141-8.051,2.3-11.409,1.71-4.95,6.778-15.763,21.342-11.909A14.387,14.387,0,0,1,44.88,62.675c.125,5.091-4.977,13.5-4.977,13.5Z" transform="translate(305.75 51.45)" fill="#ffb2a3"/>
          <path id="Trazado_258976" data-name="Trazado 258976" d="M38.435,77.18l-7.5,2.887-.012-4.273a3.449,3.449,0,0,0-3.244-3.925A26.788,26.788,0,0,1,14.453,67.84c-4.431-2.9-4.861-6.16-4.861-6.16C8.339,52.256,21.242,46.685,30.274,48.107,41.243,49.834,44.789,57.774,44,64.3c-.716,5.934-5.568,12.876-5.568,12.876" transform="translate(307.258 51.499)" fill="#282752"/>
          <path id="Trazado_258977" data-name="Trazado 258977" d="M15.392,59.254a2.448,2.448,0,0,1,2.916.816,2.35,2.35,0,0,1,.149,1.791,6.058,6.058,0,0,1-.826,1.64,30.315,30.315,0,0,1-1.891,2.586,3.418,3.418,0,0,1-2.073,1.463c-.884.1-1.99.562-2.362-.245a7.271,7.271,0,0,1,4.087-8.051" transform="translate(329.429 63.545)" fill="#ffb2a3"/>
          <path id="Trazado_258978" data-name="Trazado 258978" d="M53.208,77.752c5.1,2.854,1.606,24.683,4.107,48.561.259,14.4-34.672,20.561-53.961,24.258C.262,150.558.56,140.428,1.019,137.08c13.847-6.311,26.721-11.415,35.932-18.419-1.058-7.677-1.013-8.173-2.075-17.907-3.113-13.231,10.512-30.654,18.332-23" transform="translate(312.26 81.603)" fill="#eedfcf"/>
          <path id="Trazado_258979" data-name="Trazado 258979" d="M31.509,95.806l14.736,45.458,31.331,2.771-1.492-5.573-3.9-14.553-.336-1.31-1.675-6.243L65.213,97.846Z" transform="translate(228.13 103.032)" fill="#f3f2f2"/>
          <path id="Trazado_258980" data-name="Trazado 258980" d="M26.406,108.656l.755,2.889-.645.5,3.13,11.689c.2-.05.415-.122.61-.172l8.681-5.06L44,116.84c3.082-.637,1.372-10.307-1.685-9.989l-1.229.349A85.694,85.694,0,0,0,30.8,104.412l-5.189,1.264Z" transform="translate(272.322 112.287)" fill="#ffb2a3"/>
          <path id="Trazado_258981" data-name="Trazado 258981" d="M34.65,116.157l3.277.978,1.833,1.835,1.932,1.3,2.495,1.075a35.479,35.479,0,0,0,10.224-1.565l-3.132-11.689-7.752,5.917-7.972-.538c-2.837.025-2.812,2.1-.9,2.69" transform="translate(247.56 116.24)" fill="#ffb2a3"/>
        </g>
      </g>
    </g>
  </g>
</svg>
