<svg id="Grupo_877510" data-name="Grupo 877510" xmlns="http://www.w3.org/2000/svg" xmlns:xlink="http://www.w3.org/1999/xlink" width="371.098" height="295.105" viewBox="0 0 371.098 295.105">
  <defs>
    <clipPath id="clip-path">
      <rect id="Rectángulo_293751" data-name="Rectángulo 293751" width="371.098" height="295.106" fill="none"/>
    </clipPath>
    <clipPath id="clip-path-3">
      <rect id="Rectángulo_293746" data-name="Rectángulo 293746" width="15.093" height="31.849" fill="none"/>
    </clipPath>
    <clipPath id="clip-path-4">
      <rect id="Rectángulo_293747" data-name="Rectángulo 293747" width="41.204" height="139.057" fill="none"/>
    </clipPath>
    <clipPath id="clip-path-5">
      <rect id="Rectángulo_293748" data-name="Rectángulo 293748" width="60.075" height="122.83" fill="none"/>
    </clipPath>
    <clipPath id="clip-path-6">
      <rect id="Rectángulo_293749" data-name="Rectángulo 293749" width="24.911" height="60.174" fill="none"/>
    </clipPath>
  </defs>
  <g id="Grupo_877509" data-name="Grupo 877509" clip-path="url(#clip-path)">
    <g id="Grupo_877508" data-name="Grupo 877508">
      <g id="Grupo_877507" data-name="Grupo 877507" clip-path="url(#clip-path)">
        <path id="Trazado_258982" data-name="Trazado 258982" d="M135.964,51.617a6.687,6.687,0,0,0-.783-.528,3.267,3.267,0,0,0-3.282-.317L1.925,126.306a3.262,3.262,0,0,1,3.282.315,6.954,6.954,0,0,1,.783.53l44.469,34.391L180.433,86.01Z" transform="translate(1.681 44.065)" fill="#34559c"/>
        <path id="Trazado_258983" data-name="Trazado 258983" d="M157.068,79.913l-2.418,1.4L42.383,146.549l-28.052-21.69-2.418-1.875L126.588,56.338Z" transform="translate(10.403 49.198)" fill="#282752"/>
        <path id="Trazado_258984" data-name="Trazado 258984" d="M153.522,79.788,41.254,145.019,13.2,123.33,125.461,58.088Z" transform="translate(11.531 50.726)" fill="#eedfcf"/>
        <path id="Trazado_258985" data-name="Trazado 258985" d="M27.834,144.97,157.808,69.437l118.768,68.572L146.6,213.541Z" transform="translate(24.306 60.636)" fill="#eedfcf"/>
        <path id="Trazado_258986" data-name="Trazado 258986" d="M221.21,106.043,91.236,181.577a10.266,10.266,0,0,1,4.649,8.051l-.019,6.335-.019,6.54,129.974-75.532.019-6.54.019-6.337a10.266,10.266,0,0,0-4.649-8.051" transform="translate(79.673 92.603)" fill="#34559c"/>
        <path id="Trazado_258987" data-name="Trazado 258987" d="M6.888,91.41a7.1,7.1,0,0,1,.783.528L52.14,126.331,170.909,194.9a10.269,10.269,0,0,1,4.649,8.053l-.019,6.335-.019,6.54L0,114.492l.019-6.54,2.3-14.707c.377-2.4,2.342-3.121,4.567-1.836" transform="translate(0 79.276)" fill="#282752"/>
        <path id="Trazado_258988" data-name="Trazado 258988" d="M87.186,93.254,96.9,98.862a7.322,7.322,0,0,0,6.643,0l17.813-10.352a2.328,2.328,0,0,0,1.364-1.907l.011-4.177a1.528,1.528,0,0,1-.049.287,2.186,2.186,0,0,0-1.343-2.227l-9.713-5.609a7.322,7.322,0,0,0-6.637,0L87.177,85.234a2.32,2.32,0,0,0-1.362,1.914l0-.006L85.8,91.319a2.348,2.348,0,0,0,1.384,1.935" transform="translate(74.927 64.696)" fill="#262626"/>
        <path id="Trazado_258989" data-name="Trazado 258989" d="M71.831,102.177l9.715,5.609a7.322,7.322,0,0,0,6.643,0L106,97.437a2.331,2.331,0,0,0,1.364-1.909l.011-4.176a1.529,1.529,0,0,1-.049.287,2.186,2.186,0,0,0-1.341-2.227L96.272,83.8a7.322,7.322,0,0,0-6.637,0L71.822,94.157a2.32,2.32,0,0,0-1.362,1.914l0,0-.011,4.174a2.348,2.348,0,0,0,1.384,1.935" transform="translate(61.518 72.488)" fill="#282752"/>
        <path id="Trazado_258990" data-name="Trazado 258990" d="M56.477,111.1l9.715,5.609a7.326,7.326,0,0,0,6.65,0l17.805-10.348a2.341,2.341,0,0,0,1.369-1.913l.011-4.177a1.542,1.542,0,0,1-.049.29,2.182,2.182,0,0,0-1.341-2.229l-9.713-5.609a7.326,7.326,0,0,0-6.644,0L56.474,103.076A2.336,2.336,0,0,0,55.106,105v0l-.013,4.174a2.349,2.349,0,0,0,1.384,1.935" transform="translate(48.11 80.278)" fill="#282752"/>
        <path id="Trazado_258991" data-name="Trazado 258991" d="M76.661,113.372l.011-4.175a1.692,1.692,0,0,1-.047.287,2.183,2.183,0,0,0-1.343-2.225l-9.713-5.609a7.314,7.314,0,0,0-6.644,0L41.12,112a2.334,2.334,0,0,0-1.369,1.918v0l-.011,4.175a2.347,2.347,0,0,0,1.382,1.933l9.715,5.609a7.315,7.315,0,0,0,6.65,0l17.807-10.348a2.333,2.333,0,0,0,1.367-1.913" transform="translate(34.702 88.071)" fill="#bf343b"/>
        <path id="Trazado_258992" data-name="Trazado 258992" d="M96.886,93.539l0-.006-.011,4.174a2.357,2.357,0,0,0,1.39,1.941l9.715,5.609a7.31,7.31,0,0,0,6.637,0L132.427,94.9A2.325,2.325,0,0,0,133.789,93l.013-4.176a1.963,1.963,0,0,1-.047.288,2.184,2.184,0,0,0-1.339-2.225L122.7,81.277a7.311,7.311,0,0,0-6.643,0L98.246,91.625a2.314,2.314,0,0,0-1.36,1.914" transform="translate(84.593 70.277)" fill="#282752"/>
        <path id="Trazado_258993" data-name="Trazado 258993" d="M117.062,95.807,107.347,90.2a7.322,7.322,0,0,0-6.643,0L82.892,100.546a2.323,2.323,0,0,0-1.362,1.916l0-.007-.011,4.175a2.358,2.358,0,0,0,1.39,1.941l9.715,5.609a7.322,7.322,0,0,0,6.637,0l17.813-10.352a2.329,2.329,0,0,0,1.364-1.911l.011-4.175a1.684,1.684,0,0,1-.047.288,2.178,2.178,0,0,0-1.338-2.224" transform="translate(71.185 78.069)" fill="#e98535"/>
        <path id="Trazado_258994" data-name="Trazado 258994" d="M85.349,99.119,67.542,109.467a2.329,2.329,0,0,0-1.366,1.92l0-.007-.011,4.176a2.355,2.355,0,0,0,1.39,1.941l9.713,5.607a7.314,7.314,0,0,0,6.644,0l17.805-10.348a2.334,2.334,0,0,0,1.369-1.913l.011-4.177a1.684,1.684,0,0,1-.047.288,2.179,2.179,0,0,0-1.336-2.222L92,99.119a7.326,7.326,0,0,0-6.65,0" transform="translate(57.777 85.86)" fill="#e98535"/>
        <path id="Trazado_258995" data-name="Trazado 258995" d="M87.73,119.761l.011-4.176a1.692,1.692,0,0,1-.047.287,2.181,2.181,0,0,0-1.338-2.222l-9.713-5.609a7.326,7.326,0,0,0-6.65,0L52.187,118.39a2.338,2.338,0,0,0-1.367,1.92V120.3l-.011,4.177a2.35,2.35,0,0,0,1.388,1.939l9.715,5.609a7.326,7.326,0,0,0,6.644,0l17.805-10.348a2.337,2.337,0,0,0,1.369-1.914" transform="translate(44.368 93.652)" fill="#e98535"/>
        <path id="Trazado_258996" data-name="Trazado 258996" d="M107.957,99.933l0-.008-.011,4.177a2.352,2.352,0,0,0,1.384,1.935l9.715,5.609a7.322,7.322,0,0,0,6.637,0l17.813-10.352a2.333,2.333,0,0,0,1.364-1.909l.011-4.176a1.67,1.67,0,0,1-.047.285,2.181,2.181,0,0,0-1.337-2.222l-9.715-5.609a7.322,7.322,0,0,0-6.637,0L109.319,98.016a2.325,2.325,0,0,0-1.362,1.916" transform="translate(94.263 75.859)" fill="#282752"/>
        <path id="Trazado_258997" data-name="Trazado 258997" d="M128.128,102.2l-9.715-5.609a7.322,7.322,0,0,0-6.637,0L93.964,106.939a2.329,2.329,0,0,0-1.362,1.916v-.007l-.013,4.175a2.351,2.351,0,0,0,1.386,1.937l9.713,5.609a7.322,7.322,0,0,0,6.637,0l17.813-10.352a2.329,2.329,0,0,0,1.364-1.911l.011-4.175a1.693,1.693,0,0,1-.047.287,2.181,2.181,0,0,0-1.338-2.222" transform="translate(80.854 83.652)" fill="#e98535"/>
        <path id="Trazado_258998" data-name="Trazado 258998" d="M78.619,123.885l9.715,5.609a7.322,7.322,0,0,0,6.643,0l17.807-10.348a2.341,2.341,0,0,0,1.369-1.914l.011-4.175a1.586,1.586,0,0,1-.049.292,2.178,2.178,0,0,0-1.336-2.227l-9.713-5.609a7.326,7.326,0,0,0-6.644,0L78.616,115.86a2.336,2.336,0,0,0-1.367,1.92v-.006l-.013,4.175a2.349,2.349,0,0,0,1.384,1.935" transform="translate(67.446 91.442)" fill="#e98535"/>
        <path id="Trazado_258999" data-name="Trazado 258999" d="M98.8,126.151l.011-4.175a1.586,1.586,0,0,1-.049.292,2.176,2.176,0,0,0-1.334-2.227l-9.715-5.609a7.326,7.326,0,0,0-6.644,0L63.262,124.783a2.339,2.339,0,0,0-1.369,1.92v0l-.011,4.174a2.343,2.343,0,0,0,1.382,1.935l9.715,5.609a7.326,7.326,0,0,0,6.644,0l17.805-10.348a2.337,2.337,0,0,0,1.369-1.914" transform="translate(54.038 99.234)" fill="#e98535"/>
        <path id="Trazado_259000" data-name="Trazado 259000" d="M176.631,113.865a2.177,2.177,0,0,0-1.336-2.225L144.838,94.056a7.322,7.322,0,0,0-6.637,0l-17.813,10.352a2.325,2.325,0,0,0-1.362,1.916l0-.006-.011,4.174a2.348,2.348,0,0,0,1.384,1.937l30.457,17.582a7.31,7.31,0,0,0,6.637,0L175.3,119.659a2.331,2.331,0,0,0,1.364-1.909l.011-4.175a1.567,1.567,0,0,1-.049.29" transform="translate(103.929 81.44)" fill="#282752"/>
        <path id="Trazado_259001" data-name="Trazado 259001" d="M139.2,108.587l-9.713-5.609a7.326,7.326,0,0,0-6.639,0L105.033,113.33a2.329,2.329,0,0,0-1.362,1.916v-.007l-.013,4.176a2.35,2.35,0,0,0,1.386,1.937l9.713,5.609a7.326,7.326,0,0,0,6.644,0l17.813-10.352a2.331,2.331,0,0,0,1.362-1.909l.011-4.175a1.692,1.692,0,0,1-.047.287,2.186,2.186,0,0,0-1.343-2.227" transform="translate(90.52 89.233)" fill="#e98535"/>
        <path id="Trazado_259002" data-name="Trazado 259002" d="M89.688,130.276l9.715,5.609a7.326,7.326,0,0,0,6.65,0l17.805-10.348a2.341,2.341,0,0,0,1.369-1.913l.011-4.176a1.6,1.6,0,0,1-.049.29,2.183,2.183,0,0,0-1.341-2.231l-9.713-5.609a7.326,7.326,0,0,0-6.644,0L89.685,122.251a2.336,2.336,0,0,0-1.367,1.92l0-.006-.011,4.175a2.349,2.349,0,0,0,1.384,1.935" transform="translate(77.112 97.023)" fill="#e98535"/>
        <path id="Trazado_259003" data-name="Trazado 259003" d="M109.872,132.547l.011-4.176a1.672,1.672,0,0,1-.047.285,2.189,2.189,0,0,0-1.343-2.225l-9.713-5.607a7.314,7.314,0,0,0-6.644,0L74.331,131.176a2.334,2.334,0,0,0-1.369,1.92v0l-.011,4.174a2.343,2.343,0,0,0,1.382,1.933l9.715,5.609a7.315,7.315,0,0,0,6.65,0L108.5,134.46a2.333,2.333,0,0,0,1.367-1.913" transform="translate(63.704 104.815)" fill="#e98535"/>
        <path id="Trazado_259004" data-name="Trazado 259004" d="M150.273,114.982l-9.715-5.609a7.322,7.322,0,0,0-6.643,0L116.1,119.721a2.323,2.323,0,0,0-1.362,1.916l0-.007-.011,4.175a2.356,2.356,0,0,0,1.392,1.941l9.713,5.609a7.322,7.322,0,0,0,6.637,0L150.282,123a2.325,2.325,0,0,0,1.364-1.909l.011-4.175a1.706,1.706,0,0,1-.047.29,2.182,2.182,0,0,0-1.338-2.225" transform="translate(100.187 94.814)" fill="#e98535"/>
        <path id="Trazado_259005" data-name="Trazado 259005" d="M134.925,123.9l-9.715-5.609a7.326,7.326,0,0,0-6.65,0l-17.805,10.348a2.33,2.33,0,0,0-1.367,1.92l0-.006-.011,4.174a2.353,2.353,0,0,0,1.39,1.941l9.713,5.609a7.326,7.326,0,0,0,6.644,0l17.807-10.35a2.336,2.336,0,0,0,1.367-1.913l.013-4.175a1.531,1.531,0,0,1-.049.287,2.177,2.177,0,0,0-1.336-2.222" transform="translate(86.779 102.604)" fill="#e98535"/>
        <path id="Trazado_259006" data-name="Trazado 259006" d="M119.57,132.826l-9.715-5.609a7.326,7.326,0,0,0-6.65,0L85.4,137.565a2.334,2.334,0,0,0-1.367,1.92l0-.008-.011,4.176a2.357,2.357,0,0,0,1.39,1.941l9.715,5.609a7.322,7.322,0,0,0,6.643,0l17.807-10.348a2.337,2.337,0,0,0,1.367-1.914l.013-4.175a1.566,1.566,0,0,1-.049.29,2.176,2.176,0,0,0-1.336-2.225" transform="translate(73.37 110.396)" fill="#e98535"/>
        <path id="Trazado_259007" data-name="Trazado 259007" d="M121.336,80.489c1.845,1.066,1.855,2.787.028,3.848L103.551,94.69a7.326,7.326,0,0,1-6.644,0l-9.713-5.609c-1.838-1.062-1.849-2.784-.022-3.846l17.813-10.352a7.322,7.322,0,0,1,6.637,0Z" transform="translate(74.933 64.696)" fill="#34559c"/>
        <path id="Trazado_259008" data-name="Trazado 259008" d="M105.981,89.412c1.845,1.064,1.855,2.787.028,3.848L88.2,103.613a7.326,7.326,0,0,1-6.644,0L71.839,98c-1.84-1.062-1.849-2.784-.022-3.846L89.629,83.8a7.322,7.322,0,0,1,6.637,0Z" transform="translate(61.524 72.488)" fill="#34559c"/>
        <path id="Trazado_259009" data-name="Trazado 259009" d="M90.633,98.333c1.845,1.064,1.855,2.787.022,3.851L72.848,112.532a7.315,7.315,0,0,1-6.65,0l-9.715-5.607c-1.838-1.062-1.847-2.784-.015-3.85L74.275,92.728a7.322,7.322,0,0,1,6.643,0Z" transform="translate(48.116 80.278)" fill="#34559c"/>
        <path id="Trazado_259010" data-name="Trazado 259010" d="M75.278,107.257c1.845,1.064,1.855,2.787.022,3.851L57.493,121.456a7.315,7.315,0,0,1-6.65,0l-9.715-5.607c-1.838-1.062-1.847-2.784-.015-3.85L58.92,101.652a7.322,7.322,0,0,1,6.643,0Z" transform="translate(34.707 88.071)" fill="#ea6c78"/>
        <path id="Trazado_259011" data-name="Trazado 259011" d="M132.41,86.884c1.838,1.06,1.847,2.784.022,3.844l-17.815,10.353a7.322,7.322,0,0,1-6.637,0l-9.713-5.609c-1.845-1.066-1.855-2.787-.028-3.85l17.813-10.352a7.322,7.322,0,0,1,6.643,0Z" transform="translate(84.599 70.277)" fill="#34559c"/>
        <path id="Trazado_259012" data-name="Trazado 259012" d="M117.056,95.807c1.838,1.06,1.847,2.784.021,3.844L99.264,110a7.316,7.316,0,0,1-6.637,0L82.914,104.4c-1.845-1.066-1.855-2.787-.028-3.85L100.7,90.194a7.322,7.322,0,0,1,6.643,0Z" transform="translate(71.191 78.069)" fill="#f4b874"/>
        <path id="Trazado_259013" data-name="Trazado 259013" d="M101.708,104.728c1.836,1.06,1.845,2.784.013,3.848l-17.8,10.348a7.318,7.318,0,0,1-6.646,0l-9.715-5.607c-1.843-1.066-1.851-2.787-.021-3.853L85.344,99.119a7.326,7.326,0,0,1,6.65,0Z" transform="translate(57.783 85.86)" fill="#f4b874"/>
        <path id="Trazado_259014" data-name="Trazado 259014" d="M86.353,113.652c1.838,1.06,1.847,2.784.015,3.848L68.562,127.847a7.315,7.315,0,0,1-6.644,0L52.2,122.244c-1.843-1.066-1.853-2.787-.021-3.853l17.805-10.348a7.33,7.33,0,0,1,6.652,0Z" transform="translate(44.374 93.653)" fill="#f4b874"/>
        <path id="Trazado_259015" data-name="Trazado 259015" d="M143.478,93.273c1.838,1.06,1.847,2.784.022,3.844l-17.813,10.352a7.32,7.32,0,0,1-6.639,0l-9.713-5.609c-1.838-1.062-1.849-2.784-.022-3.846l17.813-10.352a7.322,7.322,0,0,1,6.637,0Z" transform="translate(94.269 75.859)" fill="#34559c"/>
        <path id="Trazado_259016" data-name="Trazado 259016" d="M128.123,102.2c1.838,1.06,1.847,2.784.022,3.844l-17.815,10.352a7.31,7.31,0,0,1-6.637,0l-9.713-5.607c-1.838-1.062-1.849-2.784-.022-3.846l17.813-10.352a7.322,7.322,0,0,1,6.637,0Z" transform="translate(80.86 83.652)" fill="#f4b874"/>
        <path id="Trazado_259017" data-name="Trazado 259017" d="M112.775,111.117c1.838,1.06,1.847,2.784.015,3.848L94.982,125.313a7.31,7.31,0,0,1-6.643,0l-9.715-5.607c-1.838-1.062-1.847-2.784-.015-3.85l17.807-10.348a7.322,7.322,0,0,1,6.643,0Z" transform="translate(67.452 91.442)" fill="#f4b874"/>
        <path id="Trazado_259018" data-name="Trazado 259018" d="M97.42,120.04c1.838,1.06,1.847,2.784.015,3.848l-17.807,10.35a7.322,7.322,0,0,1-6.643,0l-9.715-5.609c-1.838-1.062-1.847-2.784-.015-3.85l17.807-10.348a7.322,7.322,0,0,1,6.643,0Z" transform="translate(54.043 99.234)" fill="#f4b874"/>
        <path id="Trazado_259019" data-name="Trazado 259019" d="M175.289,111.64c1.838,1.06,1.847,2.784.022,3.844L157.5,125.836a7.31,7.31,0,0,1-6.637,0L120.4,108.253c-1.838-1.062-1.847-2.784-.022-3.846l17.813-10.352a7.326,7.326,0,0,1,6.639,0Z" transform="translate(103.935 81.44)" fill="#34559c"/>
        <path id="Trazado_259020" data-name="Trazado 259020" d="M139.192,108.587c1.845,1.064,1.855,2.787.028,3.848l-17.813,10.352a7.314,7.314,0,0,1-6.644,0l-9.713-5.607c-1.838-1.062-1.849-2.784-.022-3.846l17.813-10.352a7.326,7.326,0,0,1,6.639,0Z" transform="translate(90.526 89.233)" fill="#f4b874"/>
        <path id="Trazado_259021" data-name="Trazado 259021" d="M123.844,117.508c1.845,1.066,1.855,2.787.022,3.851l-17.807,10.35a7.326,7.326,0,0,1-6.65,0L89.694,126.1c-1.838-1.062-1.847-2.784-.015-3.85L107.486,111.9a7.322,7.322,0,0,1,6.643,0Z" transform="translate(77.118 97.023)" fill="#f4b874"/>
        <path id="Trazado_259022" data-name="Trazado 259022" d="M108.489,126.431c1.845,1.066,1.855,2.787.022,3.851L90.7,140.632a7.326,7.326,0,0,1-6.65,0l-9.715-5.609c-1.838-1.062-1.847-2.784-.015-3.85l17.807-10.348a7.322,7.322,0,0,1,6.643,0Z" transform="translate(63.709 104.815)" fill="#f4b874"/>
        <path id="Trazado_259023" data-name="Trazado 259023" d="M150.267,114.982c1.838,1.06,1.847,2.784.022,3.844l-17.813,10.352a7.314,7.314,0,0,1-6.639,0l-9.713-5.607c-1.845-1.066-1.855-2.787-.028-3.85l17.813-10.352a7.326,7.326,0,0,1,6.644,0Z" transform="translate(100.193 94.814)" fill="#f4b874"/>
        <path id="Trazado_259024" data-name="Trazado 259024" d="M134.919,123.9c1.838,1.06,1.847,2.784.015,3.848L117.129,138.1a7.314,7.314,0,0,1-6.644,0L100.77,132.5c-1.843-1.066-1.855-2.787-.021-3.853l17.805-10.348a7.326,7.326,0,0,1,6.65,0Z" transform="translate(86.785 102.604)" fill="#f4b874"/>
        <path id="Trazado_259025" data-name="Trazado 259025" d="M119.564,132.826c1.838,1.062,1.847,2.784.015,3.848l-17.805,10.348a7.32,7.32,0,0,1-6.644.006l-9.715-5.609c-1.843-1.066-1.855-2.787-.021-3.853L103.2,127.217a7.326,7.326,0,0,1,6.65,0Z" transform="translate(73.376 110.396)" fill="#f4b874"/>
        <path id="Trazado_259026" data-name="Trazado 259026" d="M69.121,116.133l-1.929,1.122-6.8-3.924-.026.015-.847,1.394-1.836-.676,1.2-1.918,1.656-.963Z" transform="translate(50.375 97.091)" fill="#fff"/>
        <path id="Trazado_259027" data-name="Trazado 259027" d="M86.559,106.261l-6.043,3.512-1.218-.7.1-1.216c.191-2.051.125-3.136-.849-3.728a2.592,2.592,0,0,0-2.653.094,2.246,2.246,0,0,0-1.115,1.467l-2-.5a3.724,3.724,0,0,1,1.905-2.137,5.741,5.741,0,0,1,5.683-.18c1.439.83,1.544,2.1,1.427,3.451l-.126.839.026.015,3.211-1.866Z" transform="translate(63.558 89.25)" fill="#fff"/>
        <path id="Trazado_259028" data-name="Trazado 259028" d="M99.418,95.9c1.517.877,1.3,2.285-.867,3.542a9.046,9.046,0,0,1-3.136,1.118l-1.1-1.107a8.509,8.509,0,0,0,2.506-.841c1.04-.605,1.057-1.2.408-1.572a3.125,3.125,0,0,0-2.939.29l-.811.472-1.441-.83.774-.45c.656-.4,1.259-1.036.534-1.456a2.207,2.207,0,0,0-2.164.212,3.222,3.222,0,0,0-1.264,1.334l-1.862-.6a4.733,4.733,0,0,1,1.991-1.909,5.209,5.209,0,0,1,4.972-.41c.91.525,1.109,1.234.436,2.057l.026.015a4.743,4.743,0,0,1,3.932.133" transform="translate(76.899 81.426)" fill="#fff"/>
        <path id="Trazado_259029" data-name="Trazado 259029" d="M78.533,121.009l2.04,1.178-1.885,1.1-2.04-1.178L72.872,124.3l-1.308-.755-2-4.891L72,117.236l5.03,2.905,1.028-.6,1.5.869Zm-5.307,1.341,1.916-1.115-1.9-1.1c-.517-.3-1.013-.616-1.53-.959l-.052.03c.277.483.553.9.809,1.379l.734,1.748Z" transform="translate(60.744 102.377)" fill="#fff"/>
        <path id="Trazado_259030" data-name="Trazado 259030" d="M94.607,111.28c1.6.925,1.645,2.531-.65,3.863a9.472,9.472,0,0,1-2.857,1.1l-1.146-1.075a8.657,8.657,0,0,0,2.342-.877c.826-.48,1.311-1.216.4-1.742-.888-.513-2.121-.418-3.823.571a8.651,8.651,0,0,0-1.072.714l-3.941-2.924,4.7-2.729,1.648.952L86.9,111.054l1.139.869a4.787,4.787,0,0,1,.526-.337,7.189,7.189,0,0,1,2.864-.944,5.113,5.113,0,0,1,3.179.639" transform="translate(73.231 94.469)" fill="#fff"/>
        <path id="Trazado_259031" data-name="Trazado 259031" d="M109.489,102.121c1.7.982,1.808,2.542-.045,3.617a7.228,7.228,0,0,1-7.126-.2c-1.609-.929-2.373-2.047-2.306-3.08a3.7,3.7,0,0,1,2.019-2.643,7.518,7.518,0,0,1,.785-.472l1.544.892a6.843,6.843,0,0,0-.746.465c-1.618,1.115-1.495,2.1-.721,2.806l.039-.022c-.009-.495.326-.985,1.126-1.45a5.643,5.643,0,0,1,5.431.086m-4.653,2.583a3.346,3.346,0,0,0,3.1.2c.71-.412.51-1.047-.36-1.549a2.831,2.831,0,0,0-2.752-.112c-.539.313-.648.762-.418,1.13a1.214,1.214,0,0,0,.425.335" transform="translate(87.333 86.754)" fill="#fff"/>
        <path id="Trazado_259032" data-name="Trazado 259032" d="M86.373,124.146l3.8,6.266-2.106,1.223-3.4-6.028-.026-.015-3.906,2.27-1.648-.952,6.019-3.5Z" transform="translate(69.062 107.772)" fill="#fff"/>
        <path id="Trazado_259033" data-name="Trazado 259033" d="M106.12,117.541c1.557.9,1.309,2.255-.673,3.407a5.846,5.846,0,0,1-5.545.457c-1.034-.6-1.156-1.352-.631-2.128l-.039-.022a4.628,4.628,0,0,1-3.113-.365c-1.452-.839-1.113-2.149.59-3.14a5.221,5.221,0,0,1,5.024-.365c.74.427,1.07,1.075.656,1.81l.034.019a5.09,5.09,0,0,1,3.7.328m-4.368,2.583a2.581,2.581,0,0,0,2.388-.022c.708-.412.7-.948.1-1.3a3.406,3.406,0,0,0-2.752-.037c-.474.487-.378.985.236,1.341l.024.015m-3.82-2.364a3.176,3.176,0,0,0,2.366-.026.68.68,0,0,0-.234-1.137,2.108,2.108,0,0,0-2.087-.007c-.682.4-.588.858-.045,1.171" transform="translate(83.139 100.343)" fill="#fff"/>
        <path id="Trazado_259034" data-name="Trazado 259034" d="M119.3,112.821a8.958,8.958,0,0,1-.9.525l-1.57-.9a6.326,6.326,0,0,0,.864-.5,2.735,2.735,0,0,0,1.146-1.279,1.48,1.48,0,0,0-.5-1.542l-.058.019c.015.446-.307.9-1.081,1.349a5.62,5.62,0,0,1-5.341,0c-1.675-.967-1.755-2.557.124-3.647a7.008,7.008,0,0,1,6.918.26c1.78,1.027,2.529,2.107,2.45,3.145a3.721,3.721,0,0,1-2.046,2.583m-5.575-3.565a2.637,2.637,0,0,0,2.581.09c.54-.313.65-.687.53-.967a.857.857,0,0,0-.393-.354,3.206,3.206,0,0,0-3.053-.318c-.673.392-.577,1.023.3,1.53l.034.019" transform="translate(96.565 92.595)" fill="#fff"/>
        <path id="Trazado_259035" data-name="Trazado 259035" d="M142.063,101.469l-3.458,2.008,3.67,2.121-1.624.944-3.67-2.119-3.464,2.012-1.562-.9,3.462-2.012-3.636-2.1,1.624-.944,3.638,2.1,3.456-2.01Z" transform="translate(115.078 87.742)" fill="#fff"/>
        <path id="Trazado_259036" data-name="Trazado 259036" d="M125.212,91.745l-8.546,4.966-1.328-.766,8.546-4.966Z" transform="translate(100.72 79.448)" fill="#fff"/>
        <path id="Trazado_259037" data-name="Trazado 259037" d="M115.669,87.266l.019,1.012-5.1-.034.075,2.958-1.753,0-.069-2.962-5.1-.026L103.7,87.2l5.125.03-.069-2.969,1.735.015.069,2.954Z" transform="translate(90.561 73.583)" fill="#fff"/>
        <path id="Trazado_259038" data-name="Trazado 259038" d="M96.28,78.8c.569.328.6.766.006,1.111a1.97,1.97,0,0,1-1.916,0c-.609-.352-.605-.8-.039-1.13a1.992,1.992,0,0,1,1.95.019" transform="translate(82.007 68.586)" fill="#fff"/>
        <path id="Trazado_259039" data-name="Trazado 259039" d="M98.745,80.227c.583.337.611.774.019,1.118a1.976,1.976,0,0,1-1.929-.008c-.6-.345-.584-.791-.019-1.118a1.976,1.976,0,0,1,1.929.008" transform="translate(84.173 69.836)" fill="#fff"/>
        <path id="Trazado_259040" data-name="Trazado 259040" d="M93.759,82.381l6.764-3.932,1.244.717L95,83.1Z" transform="translate(81.875 68.506)" fill="#fff"/>
        <path id="Trazado_259041" data-name="Trazado 259041" d="M82.437,90.62c-1.53-.884-1.759-2.092-.3-2.939a4.921,4.921,0,0,1,4.839.137c1.793,1.034,1.611,2.233.375,2.95a5.146,5.146,0,0,1-4.91-.148m3.145-1.888a2.536,2.536,0,0,0-2.383-.4c-.6.352-.176.9.68,1.394l.056.034a2.546,2.546,0,0,0,2.353.356c.564-.33.255-.824-.706-1.379" transform="translate(70.871 76.068)" fill="#fff"/>
        <path id="Trazado_259042" data-name="Trazado 259042" d="M80.2,86.356l3.964,7.973-1.06.616L79.133,86.98Z" transform="translate(69.104 75.411)" fill="#fff"/>
        <path id="Trazado_259043" data-name="Trazado 259043" d="M81.794,88.623c1.8,1.038,1.609,2.231.375,2.949a5.088,5.088,0,0,1-4.9-.142c-1.536-.888-1.765-2.1-.309-2.943a4.917,4.917,0,0,1,4.839.137m-3.106,1.911a2.641,2.641,0,0,0,2.428.386c.566-.33.257-.824-.712-1.382a2.551,2.551,0,0,0-2.4-.4c-.59.343-.176.9.68,1.394" transform="translate(66.349 76.771)" fill="#fff"/>
        <path id="Trazado_259044" data-name="Trazado 259044" d="M77.972,99.142l-5.635,3.274-8.9-5.136,5.453-3.168,1.648.952-3.451,2,1.851,1.07L72.2,96.246l1.635.944-3.256,1.892,2.113,1.219,3.632-2.111Z" transform="translate(55.401 82.184)" fill="#fff"/>
        <path id="Trazado_259045" data-name="Trazado 259045" d="M65.15,96.255l1.193,1.156a7.489,7.489,0,0,0-2.01.789c-1.587.922-1.853,2.192.129,3.334a5.7,5.7,0,0,0,5.732.036,4.906,4.906,0,0,0,1.375-1.141l1.87.732a5.488,5.488,0,0,1-1.883,1.54,9.093,9.093,0,0,1-9.076.122c-3.035-1.753-2.572-3.977.1-5.53a8.923,8.923,0,0,1,2.57-1.038" transform="translate(52.732 84.055)" fill="#fff"/>
        <path id="Trazado_259046" data-name="Trazado 259046" d="M51.626,104.116l1.186,1.16a7.4,7.4,0,0,0-2,.785c-1.587.922-1.858,2.2.124,3.338a5.708,5.708,0,0,0,5.738.032,4.808,4.808,0,0,0,1.367-1.137l1.877.729a5.564,5.564,0,0,1-1.883,1.54,9.094,9.094,0,0,1-9.082.126c-3.035-1.753-2.572-3.977.1-5.534a9,9,0,0,1,2.57-1.038" transform="translate(40.918 90.92)" fill="#fff"/>
        <path id="Trazado_259047" data-name="Trazado 259047" d="M99.851,131.712c2.656,1.532,3.415,3.2,1.238,4.464-2.2,1.279-5.159.695-7.605-.7-2.48-1.431-3.4-3.177-1.2-4.456,2.282-1.326,5.219-.661,7.566.7m-4.288,2.643c1.916,1.105,3.3,1.356,4.061.914s.221-1.259-1.735-2.387c-1.9-1.1-3.314-1.439-4.114-.974-.725.42-.3,1.24,1.633,2.358l.075.043.079.045" transform="translate(79.502 113.782)" fill="#fff"/>
        <path id="Trazado_259048" data-name="Trazado 259048" d="M121.9,116.486l6.764-3.932,1.223.706-6.764,3.932Z" transform="translate(106.453 98.289)" fill="#fff"/>
        <path id="Trazado_259049" data-name="Trazado 259049" d="M130.124,113.4l1.231.71-6.766,3.932-1.229-.71Z" transform="translate(107.725 99.023)" fill="#fff"/>
        <path id="Trazado_259050" data-name="Trazado 259050" d="M111.391,122.924c.7.4.742.978.034,1.39a2.524,2.524,0,0,1-2.387-.022c-.714-.412-.736-.989-.039-1.394a2.47,2.47,0,0,1,2.392.026" transform="translate(94.739 107.063)" fill="#fff"/>
        <path id="Trazado_259051" data-name="Trazado 259051" d="M55.219,85.165l1.519.043.1-1,3.231-1.92-4.977-3.66-3.231,1.92L50.339,80.5l-.1,1-3.231,1.92-1.519-.043.1-1,8.079-4.8,1.519.043,1.519.043,4.977,3.66-.1,1,1.519.043,4.975,3.66-.1,1-.1,1-8.081,4.8L58.289,92.8l.1-1,3.233-1.92,1.519.043.1-1,3.233-1.92-4.977-3.662-3.231,1.922-1.519-.043-.1,1-3.231,1.922-1.519-.043.1-1Z" transform="translate(39.725 67.744)" fill="#282752"/>
        <path id="Trazado_259052" data-name="Trazado 259052" d="M62.975,73.018l-.1,1-3.231,1.922L58.127,75.9l-.1,1L54.8,78.823l4.977,3.66,3.231-1.922,1.519.043.1-1,3.231-1.922,1.519.043,1.519.043,4.975,3.662-.1,1-.1,1-8.081,4.8-1.517-.043-1.519-.043-4.977-3.66.1-1-1.519-.043-4.977-3.662.1-1,.1-1,8.079-4.8Zm1.454,8.591L61.2,83.529l4.975,3.662,3.233-1.922,1.517.043.1-1,3.233-1.922-4.977-3.66-3.231,1.92L64.526,80.6Z" transform="translate(46.442 63.726)" fill="#282752"/>
        <path id="Trazado_259053" data-name="Trazado 259053" d="M70.7,75.961,72.224,76l.1-1,3.231-1.92-4.977-3.66-3.231,1.92L65.825,71.3l-.1,1L62.5,74.221l-1.519-.043.1-1,8.079-4.8,1.519.043,1.519.043,4.977,3.66-.1,1-.1,1-3.231,1.922L72.224,76l-.1,1L68.9,78.928l4.975,3.66,3.233-1.92,1.519.043.1-1,3.233-1.92,1.517.043-.1,1-8.081,4.8-1.517-.043-1.519-.043-4.977-3.66.1-1,.1-1Z" transform="translate(53.249 59.707)" fill="#282752"/>
        <path id="Trazado_259054" data-name="Trazado 259054" d="M68.668,70.578l.1-1,.1-1,8.079-4.8,1.519.043,1.519.041,4.975,3.662-.1,1-1.519-.043-3.555-2.615,1.131,4.056-.809.481-1.422-1.047L77.557,65.3l-2.424,1.441-1.519-.043-.1,1-3.231,1.922,4.977,3.66-.1,1-1.519-.043Zm6.4,4.708.1-1,1.519.043,3.554,2.615-1.13-4.056.807-.48,1.422,1.045,1.131,4.056,2.422-1.441,1.519.043.1-1,3.233-1.922-4.977-3.66.1-1,1.517.043,4.977,3.66-.1,1-.1,1-8.079,4.8-1.519-.043-1.517-.043Z" transform="translate(59.965 55.689)" fill="#282752"/>
        <path id="Trazado_259055" data-name="Trazado 259055" d="M55.219,85.165l1.519.043.1-1,3.231-1.92-4.977-3.66-3.231,1.92L50.339,80.5l-.1,1-3.231,1.92-1.519-.043.1-1,8.079-4.8,1.519.043,1.519.043,4.977,3.66-.1,1,1.519.043,4.975,3.66-.1,1-.1,1-8.081,4.8L58.289,92.8l.1-1,3.233-1.92,1.519.043.1-1,3.233-1.92-4.977-3.662-3.231,1.922-1.519-.043-.1,1-3.231,1.922-1.519-.043.1-1Z" transform="translate(39.725 67.744)" fill="#282752"/>
        <path id="Trazado_259056" data-name="Trazado 259056" d="M62.975,73.018l-.1,1-3.231,1.922L58.127,75.9l-.1,1L54.8,78.823l4.977,3.66,3.231-1.922,1.519.043.1-1,3.231-1.922,1.519.043,1.519.043,4.975,3.662-.1,1-.1,1-8.081,4.8-1.517-.043-1.519-.043-4.977-3.66.1-1-1.519-.043-4.977-3.662.1-1,.1-1,8.079-4.8Zm1.454,8.591L61.2,83.529l4.975,3.662,3.233-1.922,1.517.043.1-1,3.233-1.922-4.977-3.66-3.231,1.92L64.526,80.6Z" transform="translate(46.442 63.726)" fill="#282752"/>
        <path id="Trazado_259057" data-name="Trazado 259057" d="M70.7,75.961,72.224,76l.1-1,3.231-1.92-4.977-3.66-3.231,1.92L65.825,71.3l-.1,1L62.5,74.221l-1.519-.043.1-1,8.079-4.8,1.519.043,1.519.043,4.977,3.66-.1,1-.1,1-3.231,1.922L72.224,76l-.1,1L68.9,78.928l4.975,3.66,3.233-1.92,1.519.043.1-1,3.233-1.92,1.517.043-.1,1-8.081,4.8-1.517-.043-1.519-.043-4.977-3.66.1-1,.1-1Z" transform="translate(53.249 59.707)" fill="#282752"/>
        <path id="Trazado_259058" data-name="Trazado 259058" d="M68.668,70.578l.1-1,.1-1,8.079-4.8,1.519.043,1.519.041,4.975,3.662-.1,1-1.519-.043-3.555-2.615,1.131,4.056-.809.481-1.422-1.047L77.557,65.3l-2.424,1.441-1.519-.043-.1,1-3.231,1.922,4.977,3.66-.1,1-1.519-.043Zm6.4,4.708.1-1,1.519.043,3.554,2.615-1.13-4.056.807-.48,1.422,1.045,1.131,4.056,2.422-1.441,1.519.043.1-1,3.233-1.922-4.977-3.66.1-1,1.517.043,4.977,3.66-.1,1-.1,1-8.079,4.8-1.519-.043-1.517-.043Z" transform="translate(59.965 55.689)" fill="#282752"/>
        <path id="Trazado_259059" data-name="Trazado 259059" d="M163.355,16.277s3.722,20.758,10.492,22.672A13.465,13.465,0,0,0,185.253,37.3l7.961-5.519s.227-1.184.528-2.905a111.424,111.424,0,0,0,1.615-11.966,2.29,2.29,0,0,0,.009-.247,22.377,22.377,0,0,0-.3-3.595C194.162,7.647,190.74-.52,178.15.319c-12.493.839-14.516,9.921-14.795,14a15.432,15.432,0,0,0,0,1.958" transform="translate(142.625 0.226)" fill="#ffb2a3"/>
        <path id="Trazado_259060" data-name="Trazado 259060" d="M185.887,12.908l7.381,14.319c-7.647.435-13.39,3.64-18.755,9.2l-4.254-14.385Z" transform="translate(148.679 11.272)" fill="#ffb2a3"/>
        <path id="Trazado_259061" data-name="Trazado 259061" d="M164.182,15.409c.569.42,1.87-.131,2.482.343,2.572,1.958,2.081,7.186,2.943,9.919,2.162,1.023,2.679,1.787,3.745,3.939,1.592,3.2,5.024,6.274,8.769,5.929s13.366-5.786,13.39-5.89c-.118-2.422,1.019-8.089.858-12.511-.032-1.27-.129-2.561-.29-3.842C195.173,7.873,191.436.167,178.819,0c-13.1-.17-20.458,13.268-14.638,15.408" transform="translate(141.613 0)" fill="#282752"/>
        <path id="Trazado_259062" data-name="Trazado 259062" d="M167,16.718c0-1.321-.659-3.762,1.077-4.217,1.922-.5,3.166,1.946,3.4,3.458.182,1.2.59,3.638-.037,4.754-.727,1.289-2.2,1.036-3.132.092A5.819,5.819,0,0,1,167,16.718" transform="translate(145.725 10.858)" fill="#ffb2a3"/>
        <path id="Trazado_259063" data-name="Trazado 259063" d="M210.407,43.446l-1.39,17.781c-.618,4.972-2.583,8.076-5.165,10-4.391,3.318-10.593,3.224-15.095,3.376a25.4,25.4,0,0,0-3.376.272l-1.369-20.252,7.969-38.791c13.812-.448,18.292,11.551,18.425,27.612" transform="translate(160.691 13.817)" fill="#eedfcf"/>
        <g id="Grupo_877497" data-name="Grupo 877497" transform="translate(349.451 56.574)" style="mix-blend-mode: multiply;isolation: isolate">
          <g id="Grupo_877496" data-name="Grupo 877496">
            <g id="Grupo_877495" data-name="Grupo 877495" clip-path="url(#clip-path-3)">
              <path id="Trazado_259064" data-name="Trazado 259064" d="M201.641,58.676c-4.391,3.314-10.593,3.224-15.095,3.374V50.6L201,30.2Z" transform="translate(-186.548 -30.201)" fill="#e3ccb3"/>
            </g>
          </g>
        </g>
        <path id="Trazado_259065" data-name="Trazado 259065" d="M176.011,125.812c-7.851,1.632-9.113,7.748-6.12,13.057l8.84,12.513c3.318,5.766,7.774,8.473,13.6,7.5,5.236-2.16,5.944-5.609,4.488-9.673l-.292-8.681-5.284-16.073Z" transform="translate(147.057 108.679)" fill="#282752"/>
        <path id="Trazado_259066" data-name="Trazado 259066" d="M201.309,195.765c-2.572,8.746-16.487,8.432-17.6-3.265l-4.8-32.688c0-.026-2.564-14.2-2.564-14.2L167,113.446l-2.023-8.42,6.6-40.635,34.6-1.592s-7.158,71.386-7.184,74.179c3.087,19.036,3.419,38.791,2.313,58.787" transform="translate(144.067 54.84)" fill="#34559c"/>
        <g id="Grupo_877500" data-name="Grupo 877500" transform="translate(309.044 117.64)" opacity="0.5" style="mix-blend-mode: multiply;isolation: isolate">
          <g id="Grupo_877499" data-name="Grupo 877499">
            <g id="Grupo_877498" data-name="Grupo 877498" clip-path="url(#clip-path-4)">
              <path id="Trazado_259067" data-name="Trazado 259067" d="M201.309,195.765c-2.572,8.746-16.487,8.432-17.6-3.265l-4.8-32.688c0-.026-2.564-14.2-2.564-14.2L167,113.446l-2.023-8.42,6.6-40.635,34.6-1.592s-7.158,71.386-7.184,74.179c3.087,19.036,3.419,38.791,2.313,58.787" transform="translate(-164.977 -62.8)" fill="#25435c"/>
            </g>
          </g>
        </g>
        <path id="Trazado_259068" data-name="Trazado 259068" d="M193.918,147.679c3.132,5.281,1.692,14.1-.154,18.092-5.462,2.055-10.037,2.461-13.218.287-10.324-.618-16.1.761-21.413-.749-5.648-1.605-9.5-3.3-12.392-8.949-1.113-2.518.416-7.242,5.02-7.939,8.578-.352,16.281-1.053,20.478-3.156l7.324-13.386,13.3,10.485Z" transform="translate(127.84 115.164)" fill="#282752"/>
        <path id="Trazado_259069" data-name="Trazado 259069" d="M186.064,108.445c-.384,3.407-4.8,31.746-4.7,33.756,7.531,23.221,4.8,48.922,6.762,70.6-6.57,4.929-22.382,5.818-23.9-2.986l-3.512-26.8c-.017-.174-.069-.541-.069-.541l-.122-.961L159.175,171.1l-4.037-25.527c-2.883-21.84,1.677-63.53,2.883-81.455l34.106-4.02a1.045,1.045,0,0,0,.034.472,1.514,1.514,0,0,0,.071.262c1.362,4.49,21.769,6.2,22,10.921.436,9.66-1.836,26.259-27.956,36.6-.069.036-.141.052-.21.088" transform="translate(134.655 52.481)" fill="#34559c"/>
        <g id="Grupo_877503" data-name="Grupo 877503" transform="translate(288.853 112.581)" opacity="0.5" style="mix-blend-mode: multiply;isolation: isolate">
          <g id="Grupo_877502" data-name="Grupo 877502">
            <g id="Grupo_877501" data-name="Grupo 877501" clip-path="url(#clip-path-5)">
              <path id="Trazado_259070" data-name="Trazado 259070" d="M186.273,108.358c-.122,0-.193.036-.21.088-9.767,3.546-18.259,8.263-22.136,17.088-2.954,47.577-3.653,47.577-3.216,57.4-.017-.088-.069-.455-.069-.455l-.122-.961L159.175,171.1l-4.037-25.527c-2.883-21.84,1.677-63.53,2.883-81.457L192.127,60.1a1.047,1.047,0,0,0,.034.472,1.514,1.514,0,0,0,.071.262c1.362,4.49,21.769,6.2,22,10.919.436,9.662-1.836,26.261-27.956,36.605" transform="translate(-154.198 -60.099)" fill="#25435c"/>
            </g>
          </g>
        </g>
        <path id="Trazado_259071" data-name="Trazado 259071" d="M214.933,84c-.528,2.731.155,7.761,1.03,12.332a16.366,16.366,0,0,1-7.935,17.3c-12.659,7.236-29.419,10.709-41.006,5.47a21.318,21.318,0,0,1-8.034-6.2,16.328,16.328,0,0,1-3.406-10.481c.287-15.372,2.844-31.338,7.072-43.5,2.351-6.766,5.2-12.347,8.484-16.014L195.505,26.64c8.591-5.313,12.009-8.491,19.961-10.788,11.9-.972,16.123,18.455,10.726,34.876,0,0-10.132,27.454-11.26,33.267" transform="translate(135.861 13.813)" fill="#eedfcf"/>
        <g id="Grupo_877506" data-name="Grupo 877506" transform="translate(291.441 72.733)" style="mix-blend-mode: multiply;isolation: isolate">
          <g id="Grupo_877505" data-name="Grupo 877505">
            <g id="Grupo_877504" data-name="Grupo 877504" clip-path="url(#clip-path-6)">
              <path id="Trazado_259072" data-name="Trazado 259072" d="M180.491,44.637C170.564,57.474,161.831,72.884,167.02,99a21.315,21.315,0,0,1-7.946-6.088,16.543,16.543,0,0,1-3.49-10.728c.3-15.329,2.853-31.237,7.068-43.358Z" transform="translate(-155.58 -38.828)" fill="#e3ccb3"/>
            </g>
          </g>
        </g>
        <path id="Trazado_259073" data-name="Trazado 259073" d="M170.364,33.848l2.868-6.163c6.9-3.9,13.78-7.791,16.6-10.614l3.938,2.225c-1.969,5.693-11.727,11.47-23.41,14.551" transform="translate(148.772 14.907)" fill="#fff"/>
        <path id="Trazado_259074" data-name="Trazado 259074" d="M148.682,22.331l-3.861,1.109,4.331,1a.98.98,0,0,1,.991.783,1.258,1.258,0,0,1-.839,1.454,1.426,1.426,0,0,1-.556.1l-3.866-.043,1.87,3.342,1.7,3.065c1.858,3.711,2.179,8.825,2.072,13.7l3.5,8.819L153.032,55l-9.022-4.777-7.264-14.744-.805-3.158-.916-3.525,2.2-5.35,5.21-2.742,5.745-.614c1.785.007,1.939,1.856.5,2.244" transform="translate(117.911 17.541)" fill="#ffb2a3"/>
        <path id="Trazado_259075" data-name="Trazado 259075" d="M131.865,14.572l12.049,28.47,6.225,22.511s27.012-13.9,27.41-14.036-5.562-21.85-5.562-21.85l-9.8-26.4Z" transform="translate(115.152 2.856)" fill="#f3f2f2"/>
        <path id="Trazado_259076" data-name="Trazado 259076" d="M138.954,30.75l3.6-2.154,1.442-4.235c.53-1.45,2.448-1.126,2.145,1.2l-.6,5.2L144.529,38l4.1,7.913-1.467,5.8-3.372-.97Z" transform="translate(121.343 20.51)" fill="#ffb2a3"/>
        <path id="Trazado_259077" data-name="Trazado 259077" d="M185.793,31.157,160.566,55.678l-14.038-19.3c-3.422-2.055-8.559,2.653-7.617,6.762,0,0,7.062,17.655,13.182,32.827C156.7,87.4,169.94,74.937,169.94,74.937l21.644-18.613c11.637-7.813,11.116-34.281-5.79-25.167" transform="translate(121.206 25.562)" fill="#eedfcf"/>
      </g>
    </g>
  </g>
</svg>
