<svg id="Grupo_877514" data-name="Grupo 877514" xmlns="http://www.w3.org/2000/svg" xmlns:xlink="http://www.w3.org/1999/xlink" width="371.098" height="427.522" viewBox="0 0 371.098 427.522">
  <defs>
    <clipPath id="clip-path">
      <rect id="Rectángulo_293774" data-name="Rectángulo 293774" width="371.098" height="427.523" fill="none"/>
    </clipPath>
    <clipPath id="clip-path-3">
      <rect id="Rectángulo_293765" data-name="Rectángulo 293765" width="217.46" height="256.512" fill="none"/>
    </clipPath>
    <clipPath id="clip-path-5">
      <rect id="Rectángulo_293753" data-name="Rectángulo 293753" width="38.147" height="45.177" fill="none"/>
    </clipPath>
    <clipPath id="clip-path-7">
      <rect id="Rectángulo_293755" data-name="Rectángulo 293755" width="22.579" height="12.483" fill="none"/>
    </clipPath>
    <clipPath id="clip-path-8">
      <rect id="Rectángulo_293756" data-name="Rectángulo 293756" width="44.944" height="61.398" fill="none"/>
    </clipPath>
    <clipPath id="clip-path-9">
      <rect id="Rectángulo_293757" data-name="Rectángulo 293757" width="51.886" height="69.57" fill="none"/>
    </clipPath>
    <clipPath id="clip-path-10">
      <rect id="Rectángulo_293758" data-name="Rectángulo 293758" width="62.599" height="46.686" fill="none"/>
    </clipPath>
    <clipPath id="clip-path-11">
      <rect id="Rectángulo_293759" data-name="Rectángulo 293759" width="64.24" height="40.132" fill="none"/>
    </clipPath>
    <clipPath id="clip-path-12">
      <rect id="Rectángulo_293760" data-name="Rectángulo 293760" width="62.695" height="60.673" fill="none"/>
    </clipPath>
    <clipPath id="clip-path-13">
      <rect id="Rectángulo_293761" data-name="Rectángulo 293761" width="21.176" height="14.555" fill="none"/>
    </clipPath>
    <clipPath id="clip-path-14">
      <rect id="Rectángulo_293762" data-name="Rectángulo 293762" width="193.308" height="225.815" fill="none"/>
    </clipPath>
    <clipPath id="clip-path-15">
      <rect id="Rectángulo_293763" data-name="Rectángulo 293763" width="34.75" height="41.57" fill="none"/>
    </clipPath>
    <clipPath id="clip-path-16">
      <rect id="Rectángulo_293766" data-name="Rectángulo 293766" width="13.975" height="29.486" fill="none"/>
    </clipPath>
    <clipPath id="clip-path-17">
      <rect id="Rectángulo_293767" data-name="Rectángulo 293767" width="14.02" height="10.393" fill="none"/>
    </clipPath>
    <clipPath id="clip-path-18">
      <rect id="Rectángulo_293768" data-name="Rectángulo 293768" width="38.145" height="128.732" fill="none"/>
    </clipPath>
    <clipPath id="clip-path-19">
      <rect id="Rectángulo_293769" data-name="Rectángulo 293769" width="55.617" height="113.711" fill="none"/>
    </clipPath>
    <clipPath id="clip-path-20">
      <rect id="Rectángulo_293770" data-name="Rectángulo 293770" width="21.84" height="55.707" fill="none"/>
    </clipPath>
    <clipPath id="clip-path-21">
      <rect id="Rectángulo_293771" data-name="Rectángulo 293771" width="15.701" height="19.012" fill="none"/>
    </clipPath>
    <clipPath id="clip-path-22">
      <rect id="Rectángulo_293772" data-name="Rectángulo 293772" width="214.548" height="141.051" fill="none"/>
    </clipPath>
  </defs>
  <g id="Grupo_877576" data-name="Grupo 877576" clip-path="url(#clip-path)">
    <path id="Trazado_259078" data-name="Trazado 259078" d="M188.718,149.187l.1,36.374-23.759,13.718-.1-36.374Z" transform="translate(148.761 134.538)" fill="#de8d1d"/>
    <path id="Trazado_259079" data-name="Trazado 259079" d="M117.017,168.673l.1,36.374L84.705,200.2l-.1-36.374Z" transform="translate(76.294 147.742)" fill="#de8d1d"/>
    <g id="Grupo_877575" data-name="Grupo 877575">
      <g id="Grupo_877574" data-name="Grupo 877574" clip-path="url(#clip-path)">
        <path id="Trazado_259080" data-name="Trazado 259080" d="M222.053,161.689l.1,36.374c-28.835-15.306-73.874-14.863-101.95,1.348-8.56,4.943-14.912,11-18.457,17.624l-.1-36.374c3.543-6.62,9.9-12.681,18.457-17.624,28.076-16.209,73.115-16.654,101.95-1.348" transform="translate(91.665 135.754)" fill="#de8d1d"/>
        <path id="Trazado_259081" data-name="Trazado 259081" d="M237.425,170.878c-28.835-15.306-73.874-14.861-101.95,1.348-8.562,4.943-14.914,11-18.457,17.624L84.6,185.007c5.1-9.977,14.477-19.1,27.281-26.49,41.167-23.767,107.433-24.22,149.3-1.356Z" transform="translate(76.294 126.565)" fill="#ffc966"/>
        <path id="Trazado_259082" data-name="Trazado 259082" d="M237.425,170.878c-28.835-15.306-73.874-14.861-101.95,1.348-8.562,4.943-14.914,11-18.457,17.624L84.6,185.007c5.1-9.977,14.477-19.1,27.281-26.49,41.167-23.767,107.433-24.22,149.3-1.356Z" transform="translate(76.294 126.565)" fill="#f5c075"/>
        <path id="Trazado_259083" data-name="Trazado 259083" d="M121.668,63.283V208.8L95.229,193.534V48.019Z" transform="translate(85.879 43.304)" fill="#bf343b"/>
        <path id="Trazado_259084" data-name="Trazado 259084" d="M148.107,55.257,121.668,70.521,95.229,55.257l26.439-15.264Z" transform="translate(85.879 36.066)" fill="#ff8793"/>
        <path id="Trazado_259085" data-name="Trazado 259085" d="M109.131,63.283V208.8l26.439-15.264V48.019Z" transform="translate(98.415 43.304)" fill="#ea6c78"/>
        <path id="Trazado_259086" data-name="Trazado 259086" d="M103.854,84.152V209.538L77.415,194.274V68.888Z" transform="translate(69.814 62.124)" fill="#1f387d"/>
        <path id="Trazado_259087" data-name="Trazado 259087" d="M130.293,76.126,103.854,91.39,77.415,76.126l26.439-15.264Z" transform="translate(69.814 54.886)" fill="#4977db"/>
        <path id="Trazado_259088" data-name="Trazado 259088" d="M91.317,84.152V209.538l26.439-15.264V68.888Z" transform="translate(82.351 62.124)" fill="#34559c"/>
        <path id="Trazado_259089" data-name="Trazado 259089" d="M86.04,109.441v96.852L59.6,191.029V94.177Z" transform="translate(53.749 84.93)" fill="#bf343b"/>
        <path id="Trazado_259090" data-name="Trazado 259090" d="M112.479,101.415,86.04,116.679,59.6,101.415,86.04,86.151Z" transform="translate(53.749 77.692)" fill="#ff8793"/>
        <path id="Trazado_259091" data-name="Trazado 259091" d="M73.5,109.441v96.852l26.439-15.264V94.177Z" transform="translate(66.286 84.93)" fill="#ea6c78"/>
        <path id="Trazado_259092" data-name="Trazado 259092" d="M68.166,127.007v82.818L41.727,194.561V111.743Z" transform="translate(37.63 100.771)" fill="#1f387d"/>
        <path id="Trazado_259093" data-name="Trazado 259093" d="M94.6,118.98,68.166,134.244,41.727,118.98l26.439-15.264Z" transform="translate(37.63 93.532)" fill="#4977db"/>
        <path id="Trazado_259094" data-name="Trazado 259094" d="M55.629,127.007v82.818l26.439-15.264V111.743Z" transform="translate(50.167 100.771)" fill="#34559c"/>
        <path id="Trazado_259095" data-name="Trazado 259095" d="M50.291,142.1v73.5L23.852,200.327v-73.5Z" transform="translate(21.51 114.378)" fill="#bf343b"/>
        <path id="Trazado_259096" data-name="Trazado 259096" d="M76.73,134.069,50.291,149.333,23.852,134.069l26.439-15.264Z" transform="translate(21.51 107.14)" fill="#ff8793"/>
        <path id="Trazado_259097" data-name="Trazado 259097" d="M37.754,142.1v73.5l26.439-15.264v-73.5Z" transform="translate(34.047 114.378)" fill="#ea6c78"/>
        <path id="Trazado_259098" data-name="Trazado 259098" d="M32.417,161.771V217.22L5.978,201.957V146.507Z" transform="translate(5.391 132.122)" fill="#1f387d"/>
        <path id="Trazado_259099" data-name="Trazado 259099" d="M58.856,153.745,32.417,169.009,5.978,153.745l26.439-15.264Z" transform="translate(5.391 124.883)" fill="#4977db"/>
        <path id="Trazado_259100" data-name="Trazado 259100" d="M19.88,161.771V217.22l26.439-15.264V146.507Z" transform="translate(17.928 132.122)" fill="#34559c"/>
        <g id="Grupo_877552" data-name="Grupo 877552">
          <g id="Grupo_877551" data-name="Grupo 877551">
            <g id="Grupo_877550" data-name="Grupo 877550" clip-path="url(#clip-path-3)">
              <g id="Grupo_877549" data-name="Grupo 877549" style="isolation: isolate">
                <g id="Grupo_877548" data-name="Grupo 877548">
                  <g id="Grupo_877547" data-name="Grupo 877547" clip-path="url(#clip-path-3)">
                    <g id="Grupo_877516" data-name="Grupo 877516" transform="translate(179.314)">
                      <g id="Grupo_877515" data-name="Grupo 877515">
                        <g id="Grupo_877514-2" data-name="Grupo 877514" clip-path="url(#clip-path-5)">
                          <path id="Trazado_259101" data-name="Trazado 259101" d="M132.432,45.179,97.68,24.923l-3.395-3.608L127.24,0l3.395,3.608Z" transform="translate(-94.286 -0.001)" fill="#bf343b"/>
                        </g>
                      </g>
                    </g>
                    <g id="Grupo_877519" data-name="Grupo 877519" transform="translate(179.314)">
                      <g id="Grupo_877518" data-name="Grupo 877518">
                        <g id="Grupo_877517" data-name="Grupo 877517" clip-path="url(#clip-path-5)">
                          <path id="Trazado_259102" data-name="Trazado 259102" d="M132.432,45.179,97.68,24.923l-3.395-3.608L127.24,0l3.395,3.608Z" transform="translate(-94.286 -0.001)" fill="#961f24"/>
                        </g>
                      </g>
                    </g>
                    <g id="Grupo_877522" data-name="Grupo 877522" transform="translate(190.002 19.497)">
                      <g id="Grupo_877521" data-name="Grupo 877521">
                        <g id="Grupo_877520" data-name="Grupo 877520" clip-path="url(#clip-path-7)">
                          <path id="Trazado_259103" data-name="Trazado 259103" d="M119.178,21.452l-19.273-11.2,3.307,1.284,19.273,11.2Z" transform="translate(-99.906 -10.252)" fill="#bf343b"/>
                        </g>
                      </g>
                    </g>
                    <g id="Grupo_877525" data-name="Grupo 877525" transform="translate(164.331 19.497)">
                      <g id="Grupo_877524" data-name="Grupo 877524">
                        <g id="Grupo_877523" data-name="Grupo 877523" clip-path="url(#clip-path-8)">
                          <path id="Trazado_259104" data-name="Trazado 259104" d="M105.68,71.65,86.407,60.45l25.671-50.2,19.273,11.2Z" transform="translate(-86.408 -10.252)" fill="#ea6c78"/>
                        </g>
                      </g>
                    </g>
                    <g id="Grupo_877528" data-name="Grupo 877528" transform="translate(88.39 105.181)">
                      <g id="Grupo_877527" data-name="Grupo 877527">
                        <g id="Grupo_877526" data-name="Grupo 877526" clip-path="url(#clip-path-9)">
                          <path id="Trazado_259105" data-name="Trazado 259105" d="M65.75,124.876l-19.273-11.2,32.614-58.37,19.273,11.2Z" transform="translate(-46.477 -55.306)" fill="#ea6c78"/>
                        </g>
                      </g>
                    </g>
                    <g id="Grupo_877531" data-name="Grupo 877531" transform="translate(121.004 69.696)">
                      <g id="Grupo_877530" data-name="Grupo 877530">
                        <g id="Grupo_877529" data-name="Grupo 877529" clip-path="url(#clip-path-10)">
                          <path id="Trazado_259106" data-name="Trazado 259106" d="M82.9,83.333l-19.273-11.2,43.327-35.486,19.273,11.2Z" transform="translate(-63.626 -36.647)" fill="#ff8793"/>
                        </g>
                      </g>
                    </g>
                    <g id="Grupo_877534" data-name="Grupo 877534" transform="translate(43.423 163.552)">
                      <g id="Grupo_877533" data-name="Grupo 877533">
                        <g id="Grupo_877532" data-name="Grupo 877532" clip-path="url(#clip-path-11)">
                          <path id="Trazado_259107" data-name="Trazado 259107" d="M42.105,126.13l-19.273-11.2L67.8,86,87.073,97.2Z" transform="translate(-22.833 -85.998)" fill="#ff8793"/>
                        </g>
                      </g>
                    </g>
                    <g id="Grupo_877537" data-name="Grupo 877537" transform="translate(0 192.484)">
                      <g id="Grupo_877536" data-name="Grupo 877536">
                        <g id="Grupo_877535" data-name="Grupo 877535" clip-path="url(#clip-path-12)">
                          <path id="Trazado_259108" data-name="Trazado 259108" d="M19.273,161.884,0,150.685l43.424-49.474,19.271,11.2Z" transform="translate(0 -101.211)" fill="#ea6c78"/>
                        </g>
                      </g>
                    </g>
                    <g id="Grupo_877540" data-name="Grupo 877540" transform="translate(0 241.957)">
                      <g id="Grupo_877539" data-name="Grupo 877539">
                        <g id="Grupo_877538" data-name="Grupo 877538" clip-path="url(#clip-path-13)">
                          <path id="Trazado_259109" data-name="Trazado 259109" d="M21.176,141.78,1.9,130.58,0,127.225l19.273,11.2Z" transform="translate(0 -127.225)" fill="#bf343b"/>
                        </g>
                      </g>
                    </g>
                    <g id="Grupo_877543" data-name="Grupo 877543" transform="translate(19.273 30.697)">
                      <g id="Grupo_877542" data-name="Grupo 877542">
                        <g id="Grupo_877541" data-name="Grupo 877541" clip-path="url(#clip-path-14)">
                          <path id="Trazado_259110" data-name="Trazado 259110" d="M200.136,16.141l3.307,1.284L176.825,69.475l-43.473,35.6L100.477,163.9,54.685,193.365,12.037,241.956l-1.9-3.355,43.424-49.474L98.524,160.2l32.614-58.37,43.327-35.486Z" transform="translate(-10.134 -16.141)" fill="#bf343b"/>
                        </g>
                      </g>
                    </g>
                    <g id="Grupo_877546" data-name="Grupo 877546" transform="translate(179.314)">
                      <g id="Grupo_877545" data-name="Grupo 877545">
                        <g id="Grupo_877544" data-name="Grupo 877544" clip-path="url(#clip-path-15)">
                          <path id="Trazado_259111" data-name="Trazado 259111" d="M129.037,41.571,94.285,21.315,127.24,0Z" transform="translate(-94.286 -0.001)" fill="#ea6c78"/>
                        </g>
                      </g>
                    </g>
                  </g>
                </g>
              </g>
            </g>
          </g>
        </g>
        <path id="Trazado_259112" data-name="Trazado 259112" d="M179.188,105.525l-1.288,16.46c-.571,4.6-2.391,7.476-4.781,9.262-4.064,3.068-9.806,2.984-13.973,3.125a23.065,23.065,0,0,0-3.127.251l-1.267-18.748,7.377-35.914c12.786-.415,16.936,10.694,17.057,25.564" transform="translate(139.559 72.1)" fill="#eedfcf"/>
        <g id="Grupo_877555" data-name="Grupo 877555" transform="translate(298.706 176.986)" style="mix-blend-mode: multiply;isolation: isolate">
          <g id="Grupo_877554" data-name="Grupo 877554">
            <g id="Grupo_877553" data-name="Grupo 877553" clip-path="url(#clip-path-16)">
              <path id="Trazado_259113" data-name="Trazado 259113" d="M171.038,119.423c-4.066,3.068-9.806,2.984-13.973,3.125v-10.6l13.377-18.883Z" transform="translate(-157.063 -93.062)" fill="#e3ccb3"/>
            </g>
          </g>
        </g>
        <path id="Trazado_259114" data-name="Trazado 259114" d="M155.145,87.717l-2.3-2.484.886,3.636a.824.824,0,0,1-.213,1.042,1.062,1.062,0,0,1-1.411-.08,1.207,1.207,0,0,1-.283-.382l-1.432-2.925-1.8,2.672-1.664,2.438a22.356,22.356,0,0,1-8.53,6.932l-3.089,4.167-3.089.628.177-8.6,8.339-11.05,2.071-1.8,2.305-2.025,4.857-.371L154,82.4l2.638,4.091c.671,1.345-.662,2.16-1.5,1.229" transform="translate(119.236 71.71)" fill="#ffb2a3"/>
        <g id="Grupo_877558" data-name="Grupo 877558" transform="translate(262.043 151.228)" opacity="0.5" style="mix-blend-mode: multiply;isolation: isolate">
          <g id="Grupo_877557" data-name="Grupo 877557">
            <g id="Grupo_877556" data-name="Grupo 877556" clip-path="url(#clip-path-17)">
              <path id="Trazado_259115" data-name="Trazado 259115" d="M150.125,87.717l-2.3-2.484.886,3.636a.824.824,0,0,1-.213,1.042l-1.411-.08a1.207,1.207,0,0,1-.283-.382l-1.432-2.925-1.8,2.672-5.394-3.338-.39-3.944,2.3-2.025,4.857-.371,4.036,2.879,2.638,4.091c.671,1.345-.662,2.16-1.5,1.229" transform="translate(-137.786 -79.518)" fill="#ffb294"/>
            </g>
          </g>
        </g>
        <path id="Trazado_259116" data-name="Trazado 259116" d="M147.2,179.474c-7.636,1.588-8.864,7.535-5.953,12.7l8.6,12.172c3.227,5.607,7.562,8.241,13.229,7.292,5.093-2.1,5.781-5.456,4.367-9.408l-.283-8.444-5.141-15.633Z" transform="translate(126.073 160.659)" fill="#282752"/>
        <path id="Trazado_259117" data-name="Trazado 259117" d="M171.03,245.88c-2.381,8.1-15.262,7.805-16.295-3.022l-4.448-30.263c0-.023-2.373-13.14-2.373-13.14l-8.644-29.782-1.873-7.794,6.107-37.618,32.036-1.474s-6.628,66.086-6.651,68.671c2.858,17.622,3.165,35.912,2.141,54.422" transform="translate(123.906 110.73)" fill="#34559c"/>
        <g id="Grupo_877561" data-name="Grupo 877561" transform="translate(261.301 233.517)" opacity="0.5" style="mix-blend-mode: multiply;isolation: isolate">
          <g id="Grupo_877560" data-name="Grupo 877560">
            <g id="Grupo_877559" data-name="Grupo 877559" clip-path="url(#clip-path-18)">
              <path id="Trazado_259118" data-name="Trazado 259118" d="M171.03,245.88c-2.381,8.1-15.262,7.805-16.295-3.022l-4.448-30.263c0-.023-2.373-13.14-2.373-13.14l-8.644-29.782-1.873-7.794,6.107-37.618,32.036-1.474s-6.628,66.086-6.651,68.671c2.858,17.622,3.165,35.912,2.141,54.422" transform="translate(-137.395 -122.787)" fill="#25435c"/>
            </g>
          </g>
        </g>
        <path id="Trazado_259119" data-name="Trazado 259119" d="M165.843,201.011c3.094,5.213,1.672,13.914-.152,17.856-5.392,2.027-9.9,2.431-13.043.281-10.192-.61-15.89.751-21.133-.738-5.576-1.586-9.378-3.262-12.231-8.832-1.1-2.486.411-7.149,4.954-7.835,8.465-.346,16.065-1.04,20.211-3.117l7.229-13.21,13.126,10.348Z" transform="translate(107.262 167.21)" fill="#282752"/>
        <path id="Trazado_259120" data-name="Trazado 259120" d="M157.066,165.08c-.356,3.153-4.448,29.391-4.351,31.25,6.972,21.5,4.448,45.29,6.261,65.363-6.082,4.561-20.72,5.386-22.128-2.767L133.6,234.116c-.015-.164-.065-.5-.065-.5l-.112-.89-1.246-9.64-3.737-23.632c-2.668-20.218,1.552-58.812,2.67-75.407l31.572-3.72a1.009,1.009,0,0,0,.032.436,1.488,1.488,0,0,0,.065.243c1.263,4.157,20.155,5.742,20.365,10.108.405,8.944-1.7,24.311-25.88,33.886-.065.032-.129.049-.194.082" transform="translate(115.041 108.51)" fill="#34559c"/>
        <g id="Grupo_877564" data-name="Grupo 877564" transform="translate(242.608 228.833)" opacity="0.5" style="mix-blend-mode: multiply;isolation: isolate">
          <g id="Grupo_877563" data-name="Grupo 877563">
            <g id="Grupo_877562" data-name="Grupo 877562" clip-path="url(#clip-path-19)">
              <path id="Trazado_259121" data-name="Trazado 259121" d="M157.261,165c-.114,0-.179.032-.194.082-9.041,3.283-16.9,7.649-20.494,15.817-2.733,44.046-3.381,44.046-2.976,53.137-.015-.082-.065-.422-.065-.422l-.112-.888-1.246-9.64-3.737-23.632c-2.668-20.22,1.552-58.813,2.668-75.409l31.574-3.72a1.019,1.019,0,0,0,.032.437,1.422,1.422,0,0,0,.065.242c1.263,4.157,20.155,5.742,20.365,10.11.405,8.944-1.7,24.311-25.88,33.886" transform="translate(-127.566 -120.324)" fill="#25435c"/>
            </g>
          </g>
        </g>
        <path id="Trazado_259122" data-name="Trazado 259122" d="M144.217,105.137l1-23.824,15.2-6.961,3.844,19.44Z" transform="translate(130.056 67.052)" fill="#ffb2a3"/>
        <path id="Trazado_259123" data-name="Trazado 259123" d="M183.773,143.061c-.489,2.529.145,7.183.955,11.417a15.156,15.156,0,0,1-7.347,16.013c-11.721,6.7-27.236,9.914-37.962,5.063a19.711,19.711,0,0,1-7.436-5.736,15.106,15.106,0,0,1-3.153-9.7c.264-14.229,2.63-29.01,6.546-40.267,2.176-6.265,4.817-11.43,7.854-14.825l22.557-15.059c7.953-4.918,11.118-7.862,18.48-9.986,11.017-.9,14.925,17.084,9.931,32.285,0,0-9.382,25.418-10.426,30.8" transform="translate(116.177 72.096)" fill="#eedfcf"/>
        <path id="Trazado_259124" data-name="Trazado 259124" d="M151.1,101.338l-3.977-1.721a10.162,10.162,0,0,1-5.723-6.474c-1.527-5.222-3.208-13.735-.4-19.92,4.332-9.539,10.224-11.668,19.6-8.275s12.9,10.468,10.023,20.842-5.508,8.942-5.508,8.942Z" transform="translate(125.787 57.207)" fill="#ffb2a3"/>
        <path id="Trazado_259125" data-name="Trazado 259125" d="M140.7,77.187l4.781,6.634,1.548,5.5,1.586,2.3.717,3.359a5.594,5.594,0,0,0,5.681,4.418A22.149,22.149,0,0,0,167.387,95.1s3.745-2.438,5.238-11.917-3.92-14.931-6.46-16.34-16.044-7.942-23.246-1.7c-7.984,6.915-2.214,12.042-2.214,12.042" transform="translate(125.071 56.354)" fill="#282752"/>
        <path id="Trazado_259126" data-name="Trazado 259126" d="M144.756,74.539a1.771,1.771,0,0,1,1.259.728,4.072,4.072,0,0,1,.62,1.356,11.812,11.812,0,0,1,.217,5.7,3.675,3.675,0,0,1-.527,1.39,1.425,1.425,0,0,1-2.461.017,4.067,4.067,0,0,1-.574-1.322c-.455-1.577-2.024-8.052,1.466-7.872" transform="translate(128.547 67.216)" fill="#ffb2a3"/>
        <g id="Grupo_877567" data-name="Grupo 877567" transform="translate(245.004 191.944)" style="mix-blend-mode: multiply;isolation: isolate">
          <g id="Grupo_877566" data-name="Grupo 877566">
            <g id="Grupo_877565" data-name="Grupo 877565" clip-path="url(#clip-path-20)">
              <path id="Trazado_259127" data-name="Trazado 259127" d="M150.667,102.131c-9.19,11.884-13.159,29.8-11.249,54.5A19.734,19.734,0,0,1,132.062,151a15.313,15.313,0,0,1-3.231-9.931c.278-14.191,2.642-28.917,6.542-40.14Z" transform="translate(-128.827 -100.927)" fill="#e3ccb3"/>
            </g>
          </g>
        </g>
        <path id="Trazado_259128" data-name="Trazado 259128" d="M150.254,98.465l-10.095,9.6,8.32-16.441c.07-3.275-4.684-5.548-6-3.8,0,0-22.645,19.739-21.392,34.132,1.168,13.417,9.153,11.415,17.833,6.462l18.193-10.236c10.277-6.9,8.069-27.763-6.86-19.716" transform="translate(109.153 78.654)" fill="#eedfcf"/>
        <g id="Grupo_877570" data-name="Grupo 877570" transform="translate(240.223 173.65)" style="mix-blend-mode: multiply;isolation: isolate">
          <g id="Grupo_877569" data-name="Grupo 877569">
            <g id="Grupo_877568" data-name="Grupo 877568" clip-path="url(#clip-path-21)">
              <path id="Trazado_259129" data-name="Trazado 259129" d="M135.4,104.377l-9.089,5.945,15.7-19.014Z" transform="translate(-126.313 -91.308)" fill="#e3ccb3"/>
            </g>
          </g>
        </g>
        <path id="Trazado_259130" data-name="Trazado 259130" d="M145.629,90.377l-2.558,5.5a34.315,34.315,0,0,0,20.848-7.029c4.646-3.543,1.082-7.04,1.082-7.04L163.833,80.7c-1.236,3.412-10.89,8.592-18.2,9.68" transform="translate(129.023 72.773)" fill="#fff"/>
        <g id="Grupo_877573" data-name="Grupo 877573" transform="translate(156.55 286.472)" style="isolation: isolate">
          <g id="Grupo_877572" data-name="Grupo 877572">
            <g id="Grupo_877571" data-name="Grupo 877571" clip-path="url(#clip-path-22)">
              <path id="Trazado_259131" data-name="Trazado 259131" d="M100.008,213.681l-.1-36.374a25.584,25.584,0,0,1,1.615-8.959l.1,36.372a25.594,25.594,0,0,0-1.615,8.961" transform="translate(-66.455 -134.654)" fill="#bf343b"/>
              <path id="Trazado_259132" data-name="Trazado 259132" d="M186.549,186.459l.1,36.372c-.029-10.274-6.394-20.532-19.106-28.613l-.1-36.374c12.712,8.081,19.077,18.339,19.106,28.615" transform="translate(-5.549 -144.127)" fill="#1f387d"/>
              <path id="Trazado_259133" data-name="Trazado 259133" d="M210.068,172.838l.1,36.374c.046,16.013-10.5,32.051-31.619,44.244l-.1-36.374c21.118-12.193,31.665-28.23,31.619-44.244" transform="translate(4.377 -130.605)" fill="#1f387d"/>
              <path id="Trazado_259134" data-name="Trazado 259134" d="M134.714,195.258l.1,36.374-3.246,19.317-.1-36.372Z" transform="translate(-37.991 -110.386)" fill="#bf343b"/>
              <path id="Trazado_259135" data-name="Trazado 259135" d="M175.793,241.138c-23.531-1.712-45.56-7.961-62.343-17.715C87.595,208.4,76.855,186.48,84.98,165.8l32.4,4.834c-5.177,14.071,2.265,28.875,19.813,39.073,11.308,6.573,26.051,10.833,41.846,12.107Z" transform="translate(-82.316 -136.948)" fill="#ea6c78"/>
              <path id="Trazado_259136" data-name="Trazado 259136" d="M82.42,209.462l-.1-36.374c.046,16.207,11.011,32.074,31.133,43.766,16.783,9.754,38.812,16.006,62.343,17.715l.1,36.374c-23.531-1.712-45.56-7.961-62.343-17.715-20.121-11.692-31.087-27.559-31.133-43.766" transform="translate(-82.316 -130.38)" fill="#bf343b"/>
              <path id="Trazado_259137" data-name="Trazado 259137" d="M217.653,196.1l.1,36.374c-21.951,12.672-51.917,19.2-82.677,18.075l-.1-36.372c30.76,1.126,60.727-5.4,82.677-18.077" transform="translate(-34.828 -109.625)" fill="#1f387d"/>
              <path id="Trazado_259138" data-name="Trazado 259138" d="M217.653,237.108c-21.951,12.674-51.917,19.2-82.677,18.077l3.231-19.311c20.811.593,41.012-3.889,55.869-12.466,28.076-16.211,28.989-42.313,2.647-59.059l23.759-13.718c39.333,24.328,38.337,62.71-2.83,86.477" transform="translate(-34.828 -150.632)" fill="#34559c"/>
              <path id="Trazado_259139" data-name="Trazado 259139" d="M217.653,237.108c-21.951,12.674-51.917,19.2-82.677,18.077l3.231-19.311c20.811.593,41.012-3.889,55.869-12.466,28.076-16.211,28.989-42.313,2.647-59.059l23.759-13.718c39.333,24.328,38.337,62.71-2.83,86.477" transform="translate(-34.828 -150.632)" fill="#34559c"/>
            </g>
          </g>
        </g>
      </g>
    </g>
  </g>
</svg>
